<svg preserveAspectRatio="none" width="100%" height="100%" overflow="visible" style="display: block;" viewBox="0 0 85.5827 55.7041" fill="none" xmlns="http://www.w3.org/2000/svg">
<g id="Group">
<path id="Vector" fill-rule="evenodd" clip-rule="evenodd" d="M13.5826 39.4443V22.888H11.5167V34.4426C10.6652 33.6108 9.17734 32.6682 6.79481 32.6682C4.32447 32.6682 2.81859 33.6543 1.98811 34.4825C0.227313 36.2393 0 38.6705 0 39.805C0 39.8649 0.00150524 39.9218 0.00200704 39.9748L0.00150552 40.1152C0.00150552 41.2346 0.224804 43.6848 2.00367 45.4551C2.83213 46.2793 4.33501 47.2609 6.79431 47.2609C9.99928 47.2609 12.0526 46.5106 12.2764 46.4257L13.5896 45.9226V40.0138C13.5906 39.9678 13.5906 39.9118 13.5906 39.8329C13.5916 39.729 13.5916 39.5976 13.5826 39.4443ZM11.5232 39.9833V44.5479C11.5232 44.5479 9.70171 45.2448 6.79531 45.2448C1.83456 45.2448 2.0694 40.1791 2.0694 39.9728C2.0694 39.767 1.80596 34.6868 6.79531 34.6868C11.7837 34.6863 11.5232 39.9833 11.5232 39.9833ZM77.3207 39.6306C77.3207 34.5974 73.7885 32.6528 70.5329 32.6528C68.063 32.6528 66.505 32.6652 66.505 32.6652V34.7383H70.7231C73.5632 34.7383 74.4825 36.4317 74.9216 37.8908H69.039C64.2619 37.8908 64.424 42.392 64.424 42.392C64.9434 47.8323 71.401 48.2509 77.3317 45.9486L77.3207 39.6306ZM75.2643 39.9094V44.5215C72.2229 45.4621 69.4033 45.506 67.8483 44.5749C67.0429 44.0924 66.6123 43.3571 66.4939 42.2726C66.503 41.905 66.6329 41.0263 67.1734 40.4928C67.5723 40.0997 68.182 39.9094 69.0395 39.9094H75.2643ZM44.2167 47.2319V40.1926C44.2167 35.2912 41.5748 34.7263 39.5866 34.7263C37.5995 34.7263 34.9576 35.2917 34.9576 40.1926V47.2319H32.8912V40.1926C32.8912 35.0924 35.502 32.7077 39.5866 32.7077C43.6713 32.7077 46.2826 35.0924 46.2826 40.1926V47.2319H44.2167ZM29.9376 32.7097V32.7167V32.7072H27.8798V39.7465C27.8798 44.6463 25.2373 45.2138 23.2497 45.2138C21.2621 45.2138 18.6206 44.6458 18.6206 39.7465V32.7072H16.5532V39.7465C16.5532 44.8467 19.1641 47.2314 23.2497 47.2314C25.154 47.2314 26.7377 46.7129 27.8863 45.6419C27.8281 55.2543 18.5955 53.7087 18.5955 53.7087V55.6199C18.5955 55.6199 29.9371 57.3613 29.9371 44.9975L29.9376 32.7097ZM60.3339 34.539C59.5009 33.6848 57.9895 32.6687 55.5141 32.6687C53.0443 32.6687 51.5379 33.6548 50.7089 34.483C48.9486 36.2398 48.7213 38.671 48.7213 39.8055C48.7213 39.8654 48.7223 39.9223 48.7233 39.9753C48.7223 40.0202 48.7213 40.0662 48.7213 40.1157C48.7213 41.2351 48.9446 43.6853 50.7255 45.4556C51.5535 46.2798 53.0568 47.2614 55.5141 47.2614C58.7201 47.2614 60.774 46.5111 60.9978 46.4262L61.2763 46.3193V44.1818L60.2441 44.5474C60.2441 44.5474 58.423 45.2443 55.5141 45.2443C51.8515 45.2443 51.0226 42.4829 50.8394 40.9554H62.3099V40.0143C62.3123 39.954 62.3133 39.8937 62.313 39.8334C62.313 38.9907 62.1539 36.4037 60.3339 34.539ZM55.5141 34.6863C59.0834 34.6863 59.9666 37.3937 60.1803 38.9373H50.8414C51.0291 37.3962 51.8711 34.6863 55.5141 34.6863Z" fill="var(--fill-0, #48828D)"/>
<path id="Vector_2" fill-rule="evenodd" clip-rule="evenodd" d="M85.456 10.3845C84.3084 3.36716 76.0925 -0.943241 68.9058 0.176195C61.721 1.29713 58.6109 7.37285 59.7595 14.3907C60.9061 21.4095 65.4007 23.8092 72.5864 22.6893C79.7726 21.5683 86.6026 17.4023 85.456 10.3845ZM79.4726 13.488C78.5738 18.1456 76.0177 20.36 71.2476 19.4818C66.4786 18.6052 63.2726 15.3303 64.1703 10.6722C65.069 6.01464 69.6921 1.94901 74.4611 2.82568C79.2317 3.70334 80.3713 8.83146 79.4726 13.488Z" fill="var(--fill-0, #D37039)"/>
<path id="Vector_3" fill-rule="evenodd" clip-rule="evenodd" d="M74.691 2.08322C69.4974 1.12713 64.4669 5.55392 63.4879 10.6256C62.5089 15.6968 65.9999 19.2619 71.1925 20.217C76.386 21.1741 79.169 18.7624 80.1455 13.6917C81.124 8.6195 79.8841 3.03831 74.691 2.08322ZM76.6726 15.447C74.3016 17.4976 71.2883 17.8018 69.1878 15.4855C67.0863 13.1672 66.7897 9.21144 69.1622 7.16089C71.5357 5.10984 74.6985 6.58793 76.799 8.90423C78.899 11.222 79.0471 13.395 76.6726 15.447Z" fill="var(--fill-0, #BC4146)"/>
</g>
</svg>
