<svg preserveAspectRatio="none" width="100%" height="100%" overflow="visible" style="display: block;" viewBox="0 0 45.5 45.5" fill="none" xmlns="http://www.w3.org/2000/svg">
<g id="svgg">
<path id="path0" fill-rule="evenodd" clip-rule="evenodd" d="M0 22.75V45.5H22.75H45.5V22.75V0H22.75H0V22.75ZM28.5536 19.9325C29.0414 20.0603 29.0348 20.052 29.0193 20.5161L29.0062 20.9072L28.8621 20.9212C28.7827 20.929 28.5635 20.9034 28.3748 20.8644C26.8989 20.5595 25.7536 21.5706 26.0895 22.8818C26.1296 23.0386 26.1625 23.195 26.1625 23.2295C26.1625 23.6517 26.8543 24.0467 27.5942 24.0467H28.0962V23.5917V23.1367L27.6438 23.1237C27.395 23.1164 27.1646 23.0883 27.1319 23.0612C27.0541 22.9966 27.0501 22.3356 27.1271 22.2586C27.2044 22.1812 29.079 22.1812 29.1564 22.2586C29.2738 22.376 29.2297 24.6927 29.1086 24.7685C28.7005 25.0243 27.1028 25.1091 26.5699 24.9032C24.6727 24.1703 24.3312 21.6996 25.9529 20.4384C26.326 20.1482 26.4942 20.0699 27.1407 19.8861C27.4153 19.8081 28.1735 19.8329 28.5536 19.9325ZM4.5682 20.0126C4.58117 20.0335 4.59539 20.2109 4.59994 20.4066C4.61165 20.9101 4.65749 20.8914 3.43525 20.8804L2.43425 20.8714V21.4068V21.9421L3.31376 21.9341C4.36356 21.9243 4.3225 21.9059 4.3225 22.386C4.3225 22.8661 4.36356 22.8477 3.31376 22.8379L2.43425 22.8297L2.42151 23.4268C2.41457 23.7553 2.42481 24.0242 2.44426 24.0245C2.46382 24.0248 2.97706 24.0299 3.58483 24.0358C4.50939 24.0449 4.69696 24.0579 4.73302 24.115C4.79604 24.2149 4.78819 24.8141 4.7229 24.8794C4.64464 24.9577 1.45236 24.9577 1.3741 24.8794C1.29538 24.8007 1.29538 20.1078 1.3741 20.0291C1.43837 19.9648 4.52884 19.9489 4.5682 20.0126ZM8.38701 20.1124C9.41213 20.5182 9.68524 21.7694 8.90958 22.5066C8.75158 22.6567 8.43695 22.841 8.33856 22.841C8.25472 22.841 8.26792 22.9234 8.37382 23.0613C8.68811 23.4708 8.95804 23.8431 9.05416 23.9995C9.11513 24.0987 9.19214 24.2113 9.22546 24.2498C9.79194 24.9036 9.76521 24.9747 8.96771 24.9363L8.44878 24.9112L8.27201 24.661C8.06738 24.3713 7.74546 23.9097 7.48475 23.5323C7.15158 23.0497 7.17216 23.068 6.94421 23.051C6.66291 23.0299 6.66916 23.0075 6.68349 23.9796C6.69419 24.7064 6.68577 24.8341 6.62389 24.8855C6.5247 24.9678 5.76565 24.9722 5.66782 24.8911C5.57204 24.8115 5.55805 20.1236 5.65337 20.0247C5.76439 19.9094 8.06055 19.9831 8.38701 20.1124ZM13.1038 20.1307C13.9734 20.5817 14.2203 21.4612 13.6601 22.1116L13.4705 22.3317L13.5905 22.4102C14.6849 23.1274 14.1763 24.5631 12.7203 24.8669C12.3048 24.9536 10.4217 24.9635 10.3376 24.8794C10.2568 24.7986 10.2591 20.1083 10.3399 20.0252C10.3842 19.9796 10.6667 19.9705 11.6252 19.9838L12.8537 20.0009L13.1038 20.1307ZM18.1909 20.0291C18.2562 20.0944 18.264 20.6936 18.2009 20.7935C18.165 20.8504 17.9855 20.8635 17.1211 20.8718C16.5509 20.8773 16.0682 20.8825 16.0486 20.8831C16.0291 20.8839 16.0188 21.1148 16.0259 21.3964L16.0387 21.9082L16.926 21.9202C17.9601 21.9341 17.927 21.9185 17.927 22.3915C17.927 22.8512 17.9504 22.841 16.9026 22.841H16.0212L16.0072 23.4137C15.9995 23.7287 16.0018 23.9949 16.0122 24.0052C16.0226 24.0156 16.5038 24.0243 17.0815 24.0247C18.3784 24.0255 18.3541 24.0174 18.3724 24.4577C18.3938 24.9752 18.5271 24.9381 16.6522 24.9356C15.1929 24.9337 15.0323 24.926 14.9809 24.8568C14.9069 24.7571 14.8977 20.1997 14.9711 20.0625C15.0291 19.9541 18.0842 19.9224 18.1909 20.0291ZM22.0799 20.1772C23.2673 20.7609 23.2191 22.5081 22.0072 22.8122C21.8291 22.8569 21.84 22.8806 22.3994 23.66C22.4802 23.7726 22.6472 24.0081 22.7705 24.1832C22.8938 24.3584 23.0318 24.5384 23.0771 24.5832C23.1866 24.6913 23.1885 24.9329 23.0799 24.9371C22.1988 24.971 22.0064 24.9325 21.8805 24.6971C21.8509 24.6419 21.717 24.4484 21.5832 24.2672C21.4492 24.0861 21.3395 23.9236 21.3395 23.9059C21.3395 23.8884 21.2717 23.7901 21.189 23.6874C21.1062 23.5848 20.9934 23.4262 20.9382 23.3352C20.7844 23.0814 20.3024 22.8941 20.2892 23.0832C20.2872 23.1126 20.2887 23.4848 20.2924 23.9102C20.302 24.9657 20.3184 24.9342 19.7595 24.9333C19.5148 24.933 19.2884 24.9159 19.2562 24.8954C19.1636 24.8366 19.1565 20.0773 19.2489 20.0144C19.2897 19.9866 19.774 19.976 20.5205 19.9864L21.7262 20.0035L22.0799 20.1772ZM6.70704 20.8707C6.68429 20.8782 6.66871 21.166 6.67235 21.5101L6.67883 22.1357L6.99881 22.1491C7.79984 22.1824 8.2355 21.9431 8.2355 21.47C8.2355 21.071 8.10537 20.9492 7.64081 20.9129C7.11847 20.8721 6.75243 20.8556 6.70704 20.8707ZM11.3541 20.9261C11.3112 21.0647 11.3419 21.8878 11.391 21.9181C11.4632 21.9627 12.2775 21.9321 12.5032 21.8764C12.9776 21.7592 12.9844 21.0184 12.512 20.9253C12.1304 20.8503 11.3774 20.8507 11.3541 20.9261ZM20.2891 20.9002C20.287 20.9291 20.2845 21.2189 20.2837 21.5442L20.2821 22.1357L20.5492 22.1501C21.3433 22.1928 21.84 21.9259 21.84 21.4564C21.84 21.0989 21.6615 20.9485 21.1948 20.9129C20.3478 20.8484 20.293 20.8476 20.2891 20.9002ZM32.3257 21.2543C32.3838 21.3081 32.3855 22.0053 32.3277 22.0623C32.3027 22.0869 32.1696 22.1194 32.032 22.1344C31.712 22.1694 31.4018 22.2811 31.2642 22.4111L31.1561 22.5133L31.1641 23.644C31.1739 25.0336 31.2079 24.953 30.6171 24.9399C30.3823 24.9348 30.1733 24.9135 30.1527 24.8929C30.106 24.8462 30.1108 21.377 30.1576 21.3302C30.3046 21.1832 31.031 21.3091 31.031 21.4816C31.031 21.5858 31.0904 21.5917 31.1702 21.4954C31.3811 21.2414 32.1405 21.0829 32.3257 21.2543ZM35.1452 21.3144C36.6168 21.961 36.6327 24.1305 35.1715 24.8934C34.8414 25.0658 33.9299 25.0528 33.581 24.8706C32.1753 24.1367 32.2158 21.9597 33.6472 21.3134C33.9974 21.1553 34.7845 21.1558 35.1452 21.3144ZM43.3569 21.2869C43.6025 21.3968 43.9655 21.6909 44.0679 21.8627C44.3735 22.3759 44.3711 22.3668 44.3757 23.0457L44.3798 23.6827L44.2092 24.0291C44.0208 24.4114 43.7346 24.7194 43.407 24.8923C43.1128 25.0474 42.4071 25.0513 42.1932 24.899C42.1148 24.8431 42.0385 24.7975 42.0236 24.7975C42.0087 24.7975 41.9965 25.1824 41.9965 25.6529C41.9965 26.2576 41.9805 26.5243 41.9419 26.5629C41.8412 26.6636 41.0084 26.6355 40.9516 26.5295C40.8781 26.392 40.8874 21.471 40.9614 21.371C41.0987 21.1855 41.86 21.256 41.86 21.4543C41.86 21.5374 41.9789 21.5429 42.0283 21.462C42.1779 21.2171 42.9685 21.113 43.3569 21.2869ZM37.8071 21.3179C37.8359 21.3467 37.8587 21.81 37.8666 22.5236C37.8814 23.8605 37.9055 23.9732 38.1982 24.0698C38.4804 24.1629 38.8064 24.1064 38.9566 23.9381L39.0845 23.795V22.6325C39.0845 21.2021 39.0471 21.294 39.6305 21.294C40.2253 21.294 40.1872 21.1924 40.1651 22.7189C40.1451 24.1084 40.1268 24.1896 39.7457 24.5821C39.1515 25.1939 37.8285 25.1813 37.2245 24.5579C36.847 24.1686 36.8407 24.1318 36.8495 22.3959C36.8548 21.3916 36.8595 21.3348 36.9433 21.3039C37.0781 21.2541 37.7542 21.265 37.8071 21.3179ZM42.4207 22.0852C42.0219 22.1929 41.9965 22.2531 41.9965 23.0955C41.9965 23.9678 41.9921 23.9517 42.2737 24.0944C42.8352 24.3789 43.2399 24.0601 43.2979 23.2874C43.3501 22.5918 43.2224 22.2249 42.8823 22.0931C42.6776 22.0138 42.6847 22.0139 42.4207 22.0852ZM33.9535 22.2249C33.4149 22.6782 33.5833 23.9809 34.1955 24.0957C34.9382 24.235 35.4022 23.4605 35.0928 22.5975C34.9241 22.1268 34.3092 21.9257 33.9535 22.2249ZM11.3819 22.8637C11.326 22.9494 11.3343 24.0237 11.3909 24.0283C12.6047 24.1273 13.3314 23.7358 13.0065 23.1576C12.8666 22.9088 11.5125 22.6639 11.3819 22.8637Z" fill="var(--fill-0, #045393)"/>
<path id="path1" fill-rule="evenodd" clip-rule="evenodd" d="M27.05 20.0603C26.4009 20.1975 25.6886 20.6664 25.4689 21.101C25.4343 21.1694 25.3843 21.2665 25.3577 21.3165C24.8143 22.3402 25.1176 23.9899 25.9353 24.4572C26.5054 24.783 26.9142 24.8872 27.6188 24.8862C28.1446 24.8856 28.9423 24.766 29.0342 24.6741C29.0696 24.6387 29.1013 22.9575 29.0773 22.3962C29.0754 22.351 28.8692 22.3411 28.1307 22.3507L27.1865 22.363L27.18 22.6133C27.1707 22.9679 27.1904 22.9809 27.7247 22.9735C28.2943 22.9654 28.2866 22.9571 28.2695 23.574C28.2533 24.1561 28.2381 24.1753 27.7726 24.1987C26.5757 24.2592 25.9047 23.6164 25.9433 22.4464C25.9888 21.0691 26.8034 20.5795 28.7563 20.7561L28.9156 20.7705L28.9242 20.4894C28.9349 20.1427 28.9268 20.1357 28.4145 20.046C27.9058 19.9571 27.5193 19.9611 27.05 20.0603ZM1.53448 20.1207C1.46043 20.175 1.45588 20.3345 1.46691 22.4768L1.47886 24.7745H3.04862H4.61838V24.4788V24.183L3.50726 24.1709C2.15886 24.1561 2.27511 24.2261 2.27511 23.4283C2.27511 22.6424 2.19708 22.6971 3.3024 22.7073C4.25301 22.7161 4.19966 22.7318 4.2074 22.4425C4.21798 22.052 4.25756 22.0673 3.23392 22.0673C2.17467 22.0673 2.27511 22.1388 2.27511 21.3843C2.27511 20.6588 2.18411 20.7124 3.42252 20.7089C3.98012 20.7074 4.45265 20.7052 4.47255 20.7042C4.49246 20.7032 4.5027 20.5641 4.4953 20.3951L4.48188 20.088L3.04794 20.0752C1.93682 20.0653 1.59613 20.0755 1.53448 20.1207ZM5.78956 20.1002C5.74451 20.131 5.73485 20.6342 5.74406 22.457L5.75589 24.7745H6.14264H6.5294L6.55215 23.8795C6.57751 22.8812 6.5642 22.9268 6.83357 22.9113C7.18107 22.8914 7.16765 22.8781 7.97096 24.0366C8.054 24.1563 8.21097 24.3764 8.31972 24.5258L8.51765 24.7973H8.96548C9.4578 24.7973 9.51604 24.7682 9.36259 24.5987C9.30583 24.5361 9.07514 24.2231 8.84991 23.903C8.62469 23.583 8.38547 23.258 8.31836 23.1809C8.15182 22.9894 8.10735 22.8047 8.21951 22.7698C9.64492 22.3248 9.57598 20.5641 8.11815 20.179C7.77246 20.0877 5.90058 20.0244 5.78956 20.1002ZM10.4787 20.1175C10.3939 20.22 10.4045 24.6826 10.4897 24.7533C10.6225 24.8635 12.7114 24.7861 13.0359 24.6591C14.1141 24.2366 14.4062 22.9786 13.5336 22.5158C13.2969 22.3902 13.2782 22.2935 13.465 22.1605C14.1832 21.6491 13.8452 20.5124 12.8767 20.1819C12.5451 20.0687 10.563 20.0154 10.4787 20.1175ZM15.1167 20.1034C15.0697 20.1332 15.0316 23.2273 15.0597 24.7404C15.0605 24.7848 15.4007 24.7973 16.6061 24.7973C18.3405 24.7973 18.2381 24.8189 18.2173 24.456C18.2115 24.3559 18.2054 24.2484 18.2035 24.2172C18.201 24.1734 17.947 24.1602 17.0968 24.1596C15.7507 24.1587 15.87 24.2269 15.8629 23.4549C15.8553 22.6484 15.777 22.7043 16.9156 22.7043H17.7949L17.7814 22.3971L17.768 22.09L16.8592 22.0776C15.7843 22.0631 15.8628 22.114 15.8569 21.4267C15.8503 20.6675 15.7568 20.7269 16.9757 20.7156C17.5324 20.7103 18.0136 20.6963 18.0448 20.6843C18.1405 20.6477 18.1155 20.1627 18.0153 20.1092C17.9157 20.0559 15.1999 20.0505 15.1167 20.1034ZM19.3962 20.0987C19.3282 20.1457 19.3055 24.6923 19.3729 24.7596C19.3959 24.7826 19.5765 24.7954 19.7743 24.788L20.134 24.7745L20.1463 23.877C20.1602 22.8681 20.1534 22.8863 20.5041 22.9042C20.6914 22.9138 20.9303 23.0316 20.9303 23.1145C20.9303 23.1387 20.9968 23.2478 21.0781 23.3569C21.1595 23.466 21.3489 23.7347 21.499 23.9542C21.6492 24.1736 21.8492 24.4531 21.9437 24.5752L22.1154 24.7973H22.5618C23.1129 24.7973 23.1054 24.8059 22.8483 24.461C22.7318 24.3047 22.5649 24.0771 22.4773 23.9552C22.3897 23.8334 22.19 23.5618 22.0336 23.3519C21.7165 22.9262 21.6882 22.8179 21.8744 22.7428C23.231 22.1957 23.1402 20.5795 21.7309 20.1892C21.3817 20.0926 19.5102 20.02 19.3962 20.0987ZM7.89805 20.8198C8.55268 21.0528 8.55427 21.8617 7.90066 22.1508C7.68419 22.2465 6.75462 22.3125 6.62711 22.2412C6.5162 22.1792 6.51506 20.8823 6.62574 20.7716C6.71731 20.6802 7.59945 20.7135 7.89805 20.8198ZM12.6099 20.8235C13.1176 21.0379 13.1244 21.6769 12.6221 21.9641C12.3898 22.097 11.3148 22.1216 11.2663 21.9953C11.1998 21.8218 11.237 20.847 11.3131 20.7709C11.4086 20.6753 12.3496 20.7135 12.6099 20.8235ZM21.5649 20.8542C22.1121 21.12 22.1117 21.8048 21.5641 22.1106C21.3416 22.2348 20.3973 22.3294 20.2368 22.2435C20.1157 22.1786 20.1152 20.821 20.2364 20.7531C20.3837 20.6705 21.3357 20.743 21.5649 20.8542ZM31.6318 21.3721C31.4776 21.4176 31.3385 21.4984 31.2464 21.596C31.0546 21.7994 30.9056 21.8013 30.8863 21.6009L30.8721 21.453L30.5416 21.4396L30.2112 21.4263L30.2231 23.1004L30.2351 24.7745L30.5719 24.7881C31.0259 24.8063 31.0023 24.8717 30.99 23.6262C30.9798 22.5913 30.9836 22.5374 31.0734 22.4232C31.2225 22.2337 31.5281 22.0799 31.8277 22.0436C32.1848 22.0004 32.2143 21.9712 32.2143 21.6613C32.2143 21.2751 32.1202 21.2284 31.6318 21.3721ZM33.8751 21.3792C33.4178 21.5116 32.9753 21.8764 32.875 22.2038C32.8559 22.2663 32.8171 22.3462 32.7889 22.3813C32.5707 22.6526 32.7437 23.9141 33.0552 24.3223C33.6332 25.0801 35.1626 25.0855 35.7259 24.3318C36.2573 23.6207 36.2027 22.3042 35.6196 21.7683C35.1607 21.3467 34.4983 21.1989 33.8751 21.3792ZM42.3958 21.3823C42.2773 21.4286 42.1161 21.5206 42.0374 21.5867C41.8729 21.7251 41.8054 21.7193 41.7686 21.5634C41.7439 21.4587 41.7249 21.453 41.4034 21.453H41.0642L41.0571 23.9444L41.0499 26.4358L41.1495 26.4607C41.2042 26.4744 41.3814 26.4794 41.5433 26.4718L41.8377 26.4581L41.8397 25.5511C41.842 24.5229 41.8315 24.5468 42.1902 24.7493C42.7879 25.0867 43.6325 24.8257 43.9929 24.1922C44.8205 22.7374 43.7496 20.853 42.3958 21.3823ZM39.3017 21.4367C39.271 21.4559 39.2577 21.8357 39.2634 22.5288C39.2751 23.9605 39.1462 24.2513 38.4995 24.2513C37.8457 24.2513 37.7444 24.0311 37.7359 22.5905L37.7292 21.453L37.3346 21.4398L36.9399 21.4266L36.9558 22.6911C36.9706 23.8649 36.9786 23.9705 37.0683 24.1649C37.4484 24.9888 38.9871 25.1703 39.6742 24.4722C40.0068 24.1343 40.0467 23.9191 40.0305 22.545L40.0176 21.453L39.6832 21.4303C39.4993 21.4178 39.3276 21.4207 39.3017 21.4367ZM42.9604 21.9879C43.806 22.5045 43.5419 24.2968 42.6201 24.2968C42.3502 24.2968 42.2304 24.2482 42.0271 24.0564L41.8604 23.8993V23.1215C41.8604 22.2537 41.849 22.2873 42.2269 22.0446C42.5141 21.8602 42.7248 21.844 42.9604 21.9879ZM34.6941 22.0173C35.6418 22.4574 35.4185 24.2513 34.416 24.2513C33.3565 24.2513 33.137 22.3601 34.1544 21.9974C34.3889 21.9138 34.4784 21.9171 34.6941 22.0173ZM12.8567 22.8484C13.3415 23.1345 13.2872 23.7572 12.7542 24.0232C12.5014 24.1495 11.4311 24.218 11.3081 24.1157C11.1977 24.0241 11.2067 22.8196 11.3183 22.7502C11.4604 22.662 12.6716 22.7392 12.8567 22.8484Z" fill="var(--fill-0, #ECEFF5)"/>
<path id="path2" fill-rule="evenodd" clip-rule="evenodd" d="M27.5163 19.917C27.6476 19.9263 27.8626 19.9263 27.994 19.917C28.1254 19.9078 28.0179 19.9003 27.7551 19.9003C27.4924 19.9003 27.3849 19.9078 27.5163 19.917ZM5.66962 20.092C5.65437 20.1316 5.64198 21.2024 5.64198 22.4717C5.64198 24.7963 5.64812 24.8915 5.79895 24.8872C5.82523 24.8864 5.8109 24.8649 5.7671 24.8394C5.66586 24.7804 5.64163 20.175 5.74208 20.0746C5.77859 20.0381 5.78018 20.02 5.74697 20.02C5.71955 20.02 5.68475 20.0524 5.66962 20.092ZM7.72419 20.0522C7.78072 20.0631 7.86262 20.0626 7.90619 20.0513C7.94964 20.0399 7.90334 20.0309 7.80324 20.0315C7.70314 20.0319 7.66754 20.0413 7.72419 20.0522ZM10.3791 20.082C10.3419 20.1268 10.331 20.7869 10.3399 22.4594L10.3521 24.7748L10.3631 22.452C10.3713 20.7185 10.3879 20.1153 10.4286 20.0746C10.4586 20.0446 10.4714 20.02 10.4569 20.02C10.4425 20.02 10.4075 20.0479 10.3791 20.082ZM18.0977 20.0654C18.1666 20.1427 18.1752 20.7301 18.1079 20.7636C18.0823 20.7763 18.0875 20.7814 18.1193 20.7751C18.2201 20.7549 18.2226 20.1395 18.1223 20.0634C18.0528 20.0107 18.0491 20.011 18.0977 20.0654ZM8.18999 20.1337C8.3977 20.2137 8.47949 20.2126 8.30375 20.1321C8.22867 20.0977 8.13653 20.0703 8.09899 20.071C8.06146 20.0717 8.10241 20.1 8.18999 20.1337ZM21.6163 20.0819C21.6268 20.0909 21.6968 20.1119 21.7718 20.1287C21.8715 20.151 21.8899 20.1468 21.8401 20.113C21.7787 20.0715 21.5707 20.0425 21.6163 20.0819ZM4.56487 20.4067C4.5651 20.5819 4.57329 20.648 4.58318 20.5536C4.59308 20.4592 4.59285 20.3159 4.58284 20.2351C4.57272 20.1543 4.56464 20.2316 4.56487 20.4067ZM19.2135 20.3385C19.2135 20.4511 19.2223 20.4972 19.2332 20.4409C19.2441 20.3846 19.2441 20.2924 19.2332 20.2361C19.2223 20.1798 19.2135 20.2259 19.2135 20.3385ZM1.38599 22.4543C1.38599 23.6304 1.39179 24.1181 1.39907 23.5381C1.40624 22.9579 1.40624 21.9956 1.39907 21.3996C1.3919 20.8034 1.38599 21.2781 1.38599 22.4543ZM8.89525 20.5205C8.99296 20.6206 9.08317 20.7025 9.09568 20.7025C9.10819 20.7025 9.03846 20.6206 8.94075 20.5205C8.84304 20.4204 8.75283 20.3385 8.74032 20.3385C8.72781 20.3385 8.79754 20.4204 8.89525 20.5205ZM13.5135 20.4977C13.5984 20.5853 13.6781 20.657 13.6906 20.657C13.7032 20.657 13.6439 20.5853 13.559 20.4977C13.4742 20.4102 13.3944 20.3385 13.3819 20.3385C13.3694 20.3385 13.4287 20.4102 13.5135 20.4977ZM14.9905 22.4543C14.9905 23.6054 14.9964 24.0699 15.0037 23.4863C15.0108 22.9027 15.0108 21.9608 15.0037 21.3933C14.9964 20.8257 14.9905 21.3031 14.9905 22.4543ZM25.7275 20.6684L25.5939 20.8162L25.7417 20.6826C25.8231 20.6091 25.8896 20.5426 25.8896 20.5347C25.8896 20.4996 25.8521 20.5305 25.7275 20.6684ZM19.2215 22.2495C19.2215 23.1379 19.2277 23.5013 19.2351 23.0571C19.2426 22.6129 19.2426 21.8861 19.2351 21.4419C19.2277 20.9977 19.2215 21.3611 19.2215 22.2495ZM2.33865 20.9094C2.32261 20.9731 2.32227 21.0379 2.33774 21.0534C2.35321 21.069 2.36595 21.0414 2.36595 20.9922C2.36595 20.943 2.39052 20.8781 2.42055 20.8481C2.46207 20.8066 2.4623 20.7935 2.42146 20.7935C2.39189 20.7935 2.35458 20.8456 2.33865 20.9094ZM3.06233 20.8275C3.33272 20.8356 3.7627 20.8355 4.01784 20.8274C4.27298 20.8193 4.05174 20.8127 3.52621 20.8127C3.00068 20.8128 2.79195 20.8194 3.06233 20.8275ZM7.06523 20.8271C7.18489 20.8364 7.36917 20.8363 7.47473 20.8267C7.58029 20.8172 7.48246 20.8095 7.25724 20.8097C7.03201 20.8098 6.94556 20.8176 7.06523 20.8271ZM11.3038 20.8531C11.2912 20.886 11.2869 21.147 11.2941 21.4332L11.3073 21.9538L11.3297 21.3735C11.3519 20.8009 11.3487 20.7359 11.3038 20.8531ZM11.6025 20.8191C11.7495 20.8514 12.5628 20.8644 12.4833 20.8331C12.4368 20.8149 12.2043 20.8008 11.9665 20.802C11.7288 20.8032 11.565 20.8108 11.6025 20.8191ZM16.6896 20.8275C16.9474 20.8356 17.3569 20.8356 17.5996 20.8274C17.8423 20.8192 17.6313 20.8126 17.1308 20.8126C16.6303 20.8126 16.4318 20.8193 16.6896 20.8275ZM20.2221 20.8525C20.2096 20.8851 20.2052 21.1973 20.2123 21.5464L20.2252 22.1813L20.2478 21.4873C20.27 20.8045 20.2671 20.735 20.2221 20.8525ZM20.6457 20.8268C20.7521 20.8364 20.9261 20.8364 21.0325 20.8268C21.1388 20.8173 21.0518 20.8094 20.8391 20.8094C20.6264 20.8094 20.5394 20.8173 20.6457 20.8268ZM27.1409 20.839C27.0836 20.8637 27.0751 20.8781 27.1181 20.8781C27.1557 20.8781 27.2273 20.8605 27.2774 20.839C27.3347 20.8143 27.3431 20.7999 27.3001 20.7999C27.2626 20.7999 27.1909 20.8175 27.1409 20.839ZM6.60567 21.5756C6.60112 21.8932 6.61284 22.1627 6.63161 22.1744C6.65038 22.186 6.66027 22.0184 6.65356 21.8017C6.63104 21.0747 6.61398 20.9939 6.60567 21.5756ZM15.9412 21.4078C15.9411 21.633 15.9487 21.7308 15.9583 21.6252C15.9678 21.5197 15.9679 21.3354 15.9586 21.2157C15.9492 21.0961 15.9413 21.1825 15.9412 21.4078ZM26.4562 21.2599L26.2764 21.4533L26.4698 21.2734C26.6496 21.1061 26.6841 21.0665 26.6496 21.0665C26.6422 21.0665 26.5552 21.1535 26.4562 21.2599ZM13.8912 21.3395C13.8912 21.4771 13.8997 21.5334 13.9102 21.4646C13.9205 21.3958 13.9205 21.2832 13.9102 21.2144C13.8997 21.1456 13.8912 21.2019 13.8912 21.3395ZM31.907 21.2344C31.9508 21.2458 32.0225 21.2458 32.0663 21.2344C32.1101 21.2229 32.0743 21.2136 31.9867 21.2136C31.8991 21.2136 31.8633 21.2229 31.907 21.2344ZM34.2503 21.2359C34.3316 21.246 34.4647 21.246 34.5461 21.2359C34.6274 21.2259 34.5609 21.2176 34.3982 21.2176C34.2355 21.2176 34.169 21.2259 34.2503 21.2359ZM42.7139 21.2352C42.7705 21.2461 42.8524 21.2457 42.8959 21.2343C42.9394 21.2229 42.8931 21.2139 42.793 21.2145C42.6929 21.2149 42.6573 21.2243 42.7139 21.2352ZM8.29396 21.4533C8.2943 21.5784 8.30318 21.6242 8.31364 21.5551C8.32411 21.4858 8.32388 21.3834 8.31307 21.3276C8.30227 21.2716 8.29362 21.3281 8.29396 21.4533ZM22.8996 21.4533C22.8999 21.5784 22.9088 21.6242 22.9192 21.5551C22.9297 21.4858 22.9295 21.3834 22.9187 21.3276C22.9079 21.2716 22.8992 21.3281 22.8996 21.4533ZM9.29258 21.476C9.29258 21.5636 9.30191 21.5994 9.3134 21.5556C9.32477 21.5118 9.32477 21.4402 9.3134 21.3964C9.30191 21.3526 9.29258 21.3884 9.29258 21.476ZM21.8962 21.476C21.8962 21.5636 21.9055 21.5994 21.917 21.5556C21.9284 21.5118 21.9284 21.4402 21.917 21.3964C21.9055 21.3526 21.8962 21.3884 21.8962 21.476ZM30.8264 21.3814C30.8773 21.4012 30.9274 21.4734 30.9402 21.545C30.9527 21.6156 30.9891 21.6785 31.0209 21.685C31.0528 21.6914 31.058 21.6863 31.0323 21.6736C31.0066 21.6608 30.9857 21.605 30.9857 21.5496C30.9857 21.4308 30.9051 21.3383 30.8059 21.3427C30.7573 21.345 30.7635 21.3569 30.8264 21.3814ZM39.1805 21.4021C39.1439 21.4461 39.1325 21.7985 39.1416 22.5964L39.1547 23.7283L39.1651 22.5817C39.1747 21.5443 39.1833 21.4306 39.2554 21.3886C39.2991 21.3632 39.3119 21.3417 39.2837 21.3409C39.2555 21.3401 39.2091 21.3676 39.1805 21.4021ZM40.0061 21.3886C40.0783 21.4307 40.0868 21.5464 40.0963 22.6272L40.1069 23.8193L40.1199 22.6418C40.1327 21.4697 40.1183 21.3371 39.9778 21.3409C39.9496 21.3417 39.9623 21.3632 40.0061 21.3886ZM41.0009 21.4015C40.9637 21.4464 40.9529 22.142 40.9616 23.9154L40.9738 26.3673L40.9848 23.9012C40.9949 21.6073 41.0013 21.4318 41.0754 21.3886C41.1192 21.3632 41.1319 21.3417 41.1037 21.3409C41.0755 21.3401 41.0292 21.3674 41.0009 21.4015ZM25.169 21.5007C25.0928 21.668 25.1074 21.7037 25.1897 21.5516C25.2283 21.4806 25.2513 21.4139 25.2408 21.4035C25.2304 21.3931 25.1981 21.4369 25.169 21.5007ZM30.1417 23.0913C30.1417 24.0172 30.1478 24.3895 30.1553 23.9187C30.1627 23.4478 30.1627 22.6902 30.1552 22.2352C30.1478 21.7801 30.1417 22.1653 30.1417 23.0913ZM33.2797 21.5931L33.1014 21.7556L33.2948 21.6082C33.4715 21.4735 33.5146 21.4305 33.4731 21.4305C33.4646 21.4305 33.3776 21.5036 33.2797 21.5931ZM36.8749 22.5453C36.8749 23.1709 36.8814 23.4331 36.8892 23.128C36.8971 22.8229 36.8971 22.311 36.8892 21.9905C36.8814 21.6699 36.875 21.9196 36.8749 22.5453ZM21.678 21.9424L21.5443 22.0903L21.6922 21.9566C21.8301 21.832 21.861 21.7945 21.8259 21.7945C21.818 21.7945 21.7515 21.861 21.678 21.9424ZM26.0522 21.9116C26.0353 21.9782 26.0304 22.0416 26.0411 22.0523C26.0519 22.063 26.0744 22.0172 26.0911 21.9505C26.1079 21.8838 26.1128 21.8204 26.1021 21.8097C26.0913 21.7991 26.0689 21.8448 26.0522 21.9116ZM15.9353 21.9083C15.9484 21.9953 15.9885 21.9998 16.8584 22.0112C17.6483 22.0214 17.7753 22.0332 17.8247 22.0995C17.856 22.1416 17.8816 22.1557 17.8816 22.1308C17.8816 21.9958 17.758 21.9765 16.8965 21.9765C16.1115 21.9765 16.0155 21.9682 15.9711 21.8969C15.926 21.8241 15.9229 21.8251 15.9353 21.9083ZM3.3408 22.0106C3.89692 22.0198 4.17925 22.0419 4.22805 22.08C4.2913 22.1292 4.29232 22.1263 4.23727 22.0561C4.1813 21.9848 4.08882 21.9775 3.35001 21.9867L2.5252 21.997L3.3408 22.0106ZM11.7049 22.0099C11.8238 22.0193 12.0183 22.0193 12.1371 22.0099C12.256 22.0006 12.1588 21.9929 11.921 21.9929C11.6833 21.9929 11.586 22.0006 11.7049 22.0099ZM34.2958 22.0541C34.3521 22.065 34.4443 22.065 34.5006 22.0541C34.5569 22.0433 34.5108 22.0344 34.3982 22.0344C34.2856 22.0344 34.2395 22.0433 34.2958 22.0541ZM31.907 22.0989C31.9508 22.1103 32.0225 22.1103 32.0663 22.0989C32.1101 22.0874 32.0743 22.0781 31.9867 22.0781C31.8991 22.0781 31.8633 22.0874 31.907 22.0989ZM25.9968 22.4998C25.9967 22.725 26.0043 22.8228 26.0138 22.7173C26.0234 22.6117 26.0235 22.4274 26.0142 22.3077C26.0047 22.1881 25.9969 22.2745 25.9968 22.4998ZM24.9958 22.5453C24.9957 22.7705 25.0033 22.8683 25.0128 22.7628C25.0224 22.6572 25.0225 22.4729 25.0132 22.3532C25.0037 22.2336 24.9959 22.32 24.9958 22.5453ZM8.89309 22.4429L8.71325 22.6363L8.90663 22.4564C9.08647 22.2891 9.12093 22.2495 9.08646 22.2495C9.07907 22.2495 8.99205 22.3365 8.89309 22.4429ZM31.1909 22.3856C31.1192 22.4604 31.0693 22.5273 31.08 22.5342C31.0907 22.5412 31.1643 22.48 31.2434 22.3982C31.3226 22.3164 31.3725 22.2495 31.3543 22.2495C31.3361 22.2495 31.2625 22.3107 31.1909 22.3856ZM41.9144 23.1227C41.9096 23.5404 41.9211 23.8917 41.9399 23.9033C41.9586 23.915 41.9686 23.686 41.9622 23.3942C41.9409 22.4478 41.9231 22.3468 41.9144 23.1227ZM33.6321 22.5927C33.603 22.6565 33.58 22.7334 33.581 22.7635C33.5819 22.7936 33.613 22.7486 33.6499 22.6634C33.7276 22.4844 33.7112 22.419 33.6321 22.5927ZM29.1383 23.3188C29.1385 23.6941 29.1454 23.8417 29.154 23.6466C29.1626 23.4515 29.1625 23.1444 29.1539 22.9641C29.1453 22.7838 29.1382 22.9434 29.1383 23.3188ZM44.3287 22.8183C44.3292 22.9184 44.3385 22.954 44.3495 22.8973C44.3604 22.8408 44.3599 22.7589 44.3485 22.7153C44.3372 22.6719 44.3282 22.7182 44.3287 22.8183ZM2.37505 22.8046C2.34502 22.8346 2.3225 22.9012 2.325 22.9525C2.32876 23.0306 2.33467 23.0275 2.36117 22.9321C2.38267 22.8545 2.43557 22.8093 2.52725 22.7896C2.65374 22.7625 2.65488 22.7605 2.54568 22.7554C2.48186 22.7524 2.40508 22.7746 2.37505 22.8046ZM11.5001 22.7829C11.5815 22.793 11.7146 22.793 11.7959 22.7829C11.8772 22.7729 11.8107 22.7646 11.648 22.7646C11.4854 22.7646 11.4188 22.7729 11.5001 22.7829ZM31.0863 23.751C31.0752 24.7344 31.0655 24.8077 30.9402 24.8553C30.885 24.8764 30.8869 24.882 30.9499 24.8849C31.1023 24.8919 31.1243 24.7351 31.1108 23.7409L31.0975 22.7728L31.0863 23.751ZM36.1876 23.0913C36.1878 23.2664 36.196 23.3325 36.2059 23.2381C36.2158 23.1437 36.2156 23.0004 36.2056 22.9196C36.1955 22.8389 36.1874 22.9161 36.1876 23.0913ZM43.3763 23.0685C43.3763 23.2312 43.3846 23.2977 43.3946 23.2164C43.4048 23.1351 43.4048 23.002 43.3946 22.9206C43.3846 22.8393 43.3763 22.9059 43.3763 23.0685ZM11.3019 23.4325C11.3019 23.7704 11.309 23.9086 11.3178 23.7396C11.3266 23.5707 11.3266 23.2943 11.3178 23.1254C11.309 22.9565 11.3019 23.0947 11.3019 23.4325ZM27.1587 22.9873C27.2064 23.0504 27.3066 23.0679 27.6798 23.0783L28.1419 23.0913L28.1551 23.5456C28.1662 23.9335 28.1567 24.0083 28.0895 24.0575C28.0462 24.0891 28.031 24.115 28.0559 24.115C28.1744 24.115 28.2101 23.9888 28.2101 23.569C28.2101 23.0202 28.213 23.023 27.6641 23.023C27.3791 23.023 27.2052 23.0032 27.1635 22.9661C27.1095 22.9179 27.1087 22.9211 27.1587 22.9873ZM32.5897 23.0913C32.5901 23.1914 32.5994 23.227 32.6104 23.1703C32.6213 23.1138 32.6208 23.0319 32.6095 22.9883C32.5981 22.9449 32.5891 22.9912 32.5897 23.0913ZM15.9421 23.4553C15.9422 23.7305 15.9496 23.8372 15.9587 23.6924C15.9678 23.5476 15.9677 23.3224 15.9585 23.1919C15.9494 23.0615 15.942 23.18 15.9421 23.4553ZM20.2237 23.0344C20.2122 23.0657 20.1974 23.4803 20.191 23.9558L20.1793 24.8203L19.9746 24.8476L19.7698 24.8749L19.9576 24.8817C20.236 24.8918 20.2422 24.8709 20.257 23.8738C20.27 22.9981 20.2668 22.9177 20.2237 23.0344ZM14.0909 23.2785C14.121 23.5866 14.1428 23.6296 14.1462 23.387C14.1478 23.2744 14.1312 23.1539 14.1092 23.1192C14.0847 23.0805 14.0776 23.1415 14.0909 23.2785ZM44.3297 23.296C44.3297 23.4086 44.3385 23.4547 44.3493 23.3984C44.3603 23.3421 44.3603 23.2499 44.3493 23.1936C44.3385 23.1373 44.3297 23.1834 44.3297 23.296ZM6.6158 23.933C6.6158 24.3209 6.62274 24.4796 6.63127 24.2856C6.6398 24.0917 6.6398 23.7743 6.63127 23.5804C6.62274 23.3864 6.6158 23.5451 6.6158 23.933ZM13.1155 23.4098C13.116 23.5099 13.1253 23.5455 13.1362 23.4888C13.1471 23.4323 13.1467 23.3504 13.1353 23.3068C13.1239 23.2634 13.115 23.3097 13.1155 23.4098ZM37.8114 23.641C37.8117 23.689 37.8329 23.759 37.8583 23.7965C37.892 23.8463 37.8963 23.8279 37.874 23.7283C37.8365 23.5609 37.8105 23.5247 37.8114 23.641ZM12.9617 23.7809C12.9274 23.8225 12.8174 23.8937 12.7173 23.9393C12.6172 23.9848 12.5619 24.0224 12.5944 24.023C12.6841 24.0246 12.8889 23.9086 12.9861 23.8012C13.0337 23.7485 13.0617 23.7055 13.0484 23.7055C13.0351 23.7055 12.9961 23.7395 12.9617 23.7809ZM2.325 23.9125C2.31556 24.1063 2.37357 24.1156 3.52394 24.1049L4.61822 24.0947L3.50551 24.0708L2.39268 24.0468L2.36117 23.933C2.33467 23.8377 2.32876 23.8344 2.325 23.9125ZM32.7179 23.8648C32.7179 23.8898 32.7472 23.9615 32.7829 24.024C32.8186 24.0866 32.848 24.1173 32.848 24.0923C32.848 24.0672 32.8186 23.9956 32.7829 23.933C32.7472 23.8705 32.7179 23.8397 32.7179 23.8648ZM19.2135 24.1605C19.2135 24.2731 19.2223 24.3192 19.2332 24.2629C19.2441 24.2066 19.2441 24.1145 19.2332 24.0581C19.2223 24.0018 19.2135 24.0479 19.2135 24.1605ZM11.5926 24.1031C11.7249 24.1123 11.9297 24.1123 12.0476 24.1029C12.1657 24.0935 12.0575 24.086 11.8073 24.0861C11.557 24.0862 11.4604 24.0939 11.5926 24.1031ZM17.0817 24.1036C18.3222 24.1185 18.2914 24.1091 18.2904 24.4732C18.2896 24.7598 18.2637 24.8223 18.1318 24.8552C18.0481 24.8761 18.0489 24.8784 18.1416 24.8833C18.2778 24.8903 18.3366 24.7634 18.3366 24.4625C18.3366 24.058 18.3685 24.0678 17.0934 24.08L15.9933 24.0906L17.0817 24.1036ZM4.68567 24.3561L4.70751 24.5928L4.72264 24.3933C4.73095 24.2835 4.72116 24.1769 4.7008 24.1565C4.68044 24.1361 4.67362 24.2259 4.68567 24.3561ZM25.6394 24.297C25.7371 24.3971 25.8273 24.479 25.8398 24.479C25.8523 24.479 25.7826 24.3971 25.6849 24.297C25.5872 24.1969 25.497 24.115 25.4844 24.115C25.4719 24.115 25.5417 24.1969 25.6394 24.297ZM38.2254 24.1647C38.2601 24.1867 38.3806 24.2033 38.4932 24.2017C38.7358 24.1983 38.6929 24.1764 38.3847 24.1464C38.2477 24.1331 38.1867 24.1402 38.2254 24.1647ZM34.2958 24.1926C34.3521 24.2035 34.4443 24.2035 34.5006 24.1926C34.5569 24.1818 34.5108 24.1729 34.3982 24.1729C34.2856 24.1729 34.2395 24.1818 34.2958 24.1926ZM9.27222 24.4112C9.29804 24.4616 9.36709 24.5434 9.42567 24.593C9.5285 24.6799 9.52827 24.6783 9.41919 24.5469C9.23798 24.3288 9.22274 24.3147 9.27222 24.4112ZM32.9877 24.3567C32.9877 24.3646 33.0542 24.4311 33.1356 24.5046L33.2834 24.6383L33.1498 24.4904C33.0252 24.3525 32.9877 24.3216 32.9877 24.3567ZM35.6242 24.5132L35.4674 24.6838L35.6381 24.527C35.7969 24.381 35.8296 24.3425 35.7948 24.3425C35.7873 24.3425 35.7105 24.4193 35.6242 24.5132ZM43.8143 24.5132L43.6575 24.6838L43.8281 24.527C43.9869 24.381 44.0197 24.3425 43.9849 24.3425C43.9774 24.3425 43.9006 24.4193 43.8143 24.5132ZM19.2072 24.6236C19.1997 24.7715 19.3086 24.8908 19.4433 24.8824L19.5423 24.8761L19.4433 24.8569C19.3214 24.8331 19.2617 24.7641 19.2344 24.6155L19.2135 24.5018L19.2072 24.6236ZM6.60112 24.7156C6.59908 24.7582 6.56165 24.8139 6.51786 24.8394C6.47406 24.8649 6.46132 24.8864 6.48953 24.8872C6.56461 24.8892 6.65538 24.7644 6.62808 24.6966C6.61307 24.6591 6.6034 24.6658 6.60112 24.7156ZM4.68647 24.7459C4.68647 24.7759 4.6404 24.819 4.58409 24.8417C4.51482 24.8694 4.50561 24.8836 4.55577 24.8857C4.63994 24.8889 4.76007 24.765 4.7157 24.7206C4.69966 24.7045 4.68647 24.7159 4.68647 24.7459ZM41.9057 24.7548C41.9057 24.7813 41.9258 24.7905 41.9503 24.7753C41.9748 24.7602 42.0413 24.7703 42.0982 24.798C42.1972 24.846 42.1979 24.8451 42.1132 24.7773C42.0115 24.6958 41.9057 24.6843 41.9057 24.7548ZM1.40464 24.8089C1.43911 24.8528 1.52078 24.8858 1.58665 24.8824L1.7062 24.8761L1.59245 24.8552C1.52988 24.8437 1.44798 24.8107 1.41044 24.7818C1.35107 24.7361 1.35027 24.7396 1.40464 24.8089ZM37.7197 24.8658C37.7823 24.9015 37.8642 24.9307 37.9017 24.9306C37.9393 24.9305 37.901 24.9006 37.8169 24.864C37.6231 24.7799 37.5712 24.7808 37.7197 24.8658ZM2.37972 24.8769C2.62496 24.8852 3.01399 24.8851 3.24422 24.8769C3.47434 24.8686 3.27368 24.8619 2.79821 24.862C2.32273 24.862 2.13436 24.8687 2.37972 24.8769ZM4.15241 24.8757C4.22168 24.8861 4.32406 24.8859 4.37991 24.8751C4.43588 24.8643 4.37934 24.8557 4.25422 24.856C4.12909 24.8563 4.08325 24.8652 4.15241 24.8757ZM6.0401 24.8751C6.09641 24.886 6.18855 24.886 6.24486 24.8751C6.30116 24.8643 6.25509 24.8554 6.14248 24.8554C6.02987 24.8554 5.9838 24.8643 6.0401 24.8751ZM8.74737 24.8744C8.79117 24.8858 8.86283 24.8858 8.90663 24.8744C8.95042 24.8629 8.91459 24.8536 8.827 24.8536C8.73941 24.8536 8.70358 24.8629 8.74737 24.8744ZM11.2931 24.8769C11.5108 24.8852 11.8794 24.8852 12.1121 24.8769C12.3449 24.8687 12.1667 24.8619 11.7163 24.8618C11.2658 24.8618 11.0754 24.8685 11.2931 24.8769ZM15.5042 24.8768C15.6856 24.8855 15.9825 24.8855 16.1639 24.8768C16.3454 24.8682 16.1969 24.8611 15.8341 24.8611C15.4712 24.8611 15.3227 24.8682 15.5042 24.8768ZM16.9147 24.8769C17.1211 24.8853 17.459 24.8853 17.6654 24.8769C17.8719 24.8684 17.703 24.8616 17.2901 24.8616C16.8771 24.8616 16.7082 24.8684 16.9147 24.8769ZM30.4971 24.8757C30.5664 24.8861 30.6688 24.8859 30.7246 24.8751C30.7806 24.8643 30.724 24.8557 30.5989 24.856C30.4738 24.8563 30.4279 24.8652 30.4971 24.8757ZM41.9242 25.5483C41.9242 25.9487 41.9312 26.1063 41.9396 25.8987C41.9481 25.6912 41.9481 25.3636 41.9395 25.1707C41.931 24.9779 41.9241 25.1479 41.9242 25.5483ZM27.994 24.9654C28.0378 24.9768 28.1095 24.9768 28.1533 24.9654C28.1971 24.9539 28.1612 24.9446 28.0736 24.9446C27.9861 24.9446 27.9502 24.9539 27.994 24.9654ZM40.9516 26.4151C40.9482 26.5327 41.0735 26.572 41.4507 26.572C41.8279 26.572 41.9533 26.5327 41.9499 26.4151C41.9491 26.3888 41.9276 26.4031 41.9021 26.4469C41.8634 26.5133 41.7885 26.5265 41.4507 26.5265C41.113 26.5265 41.0381 26.5133 40.9994 26.4469C40.9739 26.4031 40.9524 26.3888 40.9516 26.4151Z" fill="var(--fill-0, #5E7CAC)"/>
<path id="path3" fill-rule="evenodd" clip-rule="evenodd" d="M26.9591 20.0142C24.4767 20.627 24.3117 24.1501 26.7315 24.8721C27.2954 25.0403 28.8489 24.9324 29.0719 24.7094C29.1463 24.635 29.1709 22.376 29.0982 22.303C29.0813 22.2861 28.6622 22.2659 28.167 22.2582C27.1087 22.2418 27.1183 22.2382 27.1183 22.6531C27.1183 23.0041 27.1462 23.0229 27.6643 23.0229C28.2135 23.0229 28.2103 23.0196 28.2103 23.5725C28.2103 24.1427 28.227 24.1299 27.5175 24.104C26.4825 24.0664 25.9808 23.5428 25.9808 22.5004C25.9808 21.1918 27.2325 20.414 28.6525 20.8403C28.9299 20.9237 28.9838 20.8642 28.9838 20.4749C28.9838 20.2844 28.9622 20.1497 28.9269 20.1206C28.7108 19.9419 27.5139 19.8773 26.9591 20.0142ZM28.4145 20.0462C28.9268 20.1358 28.9349 20.1429 28.9242 20.4896L28.9156 20.7707L28.7563 20.7562C26.8034 20.5797 25.9888 21.0693 25.9433 22.4466C25.9047 23.6166 26.5757 24.2594 27.7726 24.1989C28.2381 24.1755 28.2533 24.1562 28.2695 23.5742C28.2866 22.9573 28.2943 22.9656 27.7247 22.9737C27.1904 22.9811 27.1707 22.9681 27.18 22.6134L27.1866 22.3632L28.1307 22.3509C28.8692 22.3412 29.0754 22.3511 29.0773 22.3964C29.1013 22.9576 29.0696 24.6389 29.0342 24.6743C28.9423 24.7662 28.1446 24.8857 27.6188 24.8864C26.9142 24.8873 26.5054 24.7831 25.9353 24.4573C25.1177 23.9901 24.8143 22.3403 25.3577 21.3167C25.3843 21.2666 25.4343 21.1696 25.4689 21.1011C25.8741 20.2993 27.1823 19.8308 28.4145 20.0462ZM1.46624 20.0583C1.39378 20.1042 1.37728 24.7368 1.44929 24.8088C1.53915 24.8987 4.60132 24.8679 4.66821 24.7764C4.72099 24.7043 4.71712 24.3528 4.6615 24.1718C4.64807 24.1284 4.38167 24.115 3.53047 24.115C2.227 24.115 2.35281 24.1887 2.34598 23.4212C2.33961 22.7133 2.24543 22.7772 3.2842 22.785C4.28453 22.7924 4.27713 22.7953 4.27713 22.3917C4.27713 22.0151 4.29545 22.0219 3.29137 22.0219C2.5008 22.0219 2.41128 22.0141 2.37829 21.9423C2.34951 21.8797 2.33848 21.1473 2.36168 20.8511C2.36509 20.8088 2.63059 20.7921 3.44675 20.7828L4.52738 20.7707L4.54092 20.4334C4.55048 20.1944 4.53728 20.0853 4.49542 20.0587C4.41887 20.0103 1.54268 20.0097 1.46624 20.0583ZM5.74224 20.0745C5.64169 20.1751 5.66603 24.784 5.76727 24.832C5.87874 24.8849 6.49857 24.8692 6.55568 24.8121C6.58434 24.7835 6.60629 24.4186 6.61164 23.8826L6.6204 23.0002L6.8934 22.9879L7.1664 22.9756L7.53041 23.5016C8.54961 24.9747 8.42801 24.8657 9.05387 24.8657C9.55483 24.8657 9.6092 24.8144 9.38818 24.5499C9.31732 24.4653 9.16887 24.2662 9.05819 24.1076C8.82284 23.7702 8.54529 23.3876 8.3642 23.1507C8.2302 22.9756 8.19426 22.7954 8.29322 22.7954C8.32484 22.7954 8.43234 22.7524 8.5321 22.7C9.60761 22.1336 9.52287 20.6316 8.39127 20.2033C7.92148 20.0255 5.89001 19.9268 5.74224 20.0745ZM10.4311 20.0708C10.3493 20.1546 10.348 24.776 10.4298 24.8265C10.504 24.8723 12.4789 24.8468 12.7446 24.7965C14.0716 24.5454 14.5833 23.0814 13.5592 22.4659C13.4716 22.4132 13.3923 22.3644 13.3831 22.3574C13.3738 22.3503 13.4688 22.2295 13.5942 22.0888C14.1679 21.4451 13.8668 20.4996 12.9769 20.1506C12.6573 20.0253 10.5401 19.959 10.4311 20.0708ZM15.0699 20.0587C15.0135 20.0945 14.9749 24.7723 15.0306 24.8279C15.0856 24.883 18.217 24.8441 18.2526 24.788C18.31 24.6974 18.2981 24.231 18.2366 24.1696C18.1973 24.1302 17.8866 24.115 17.1256 24.115C15.7916 24.115 15.9252 24.1887 15.9252 23.453C15.9252 22.7167 15.8298 22.7825 16.9067 22.7771C17.9029 22.7721 17.8453 22.7923 17.8591 22.4442C17.8765 22.0056 17.9225 22.0256 16.8682 22.0115L15.948 21.9992V21.4077V20.8162L17.04 20.7914C17.6406 20.7777 18.1371 20.7624 18.1434 20.7573C18.1835 20.7244 18.1453 20.1197 18.1001 20.0745C18.0362 20.0106 15.1693 19.9957 15.0699 20.0587ZM19.3264 20.0662C19.2095 20.1384 19.2026 24.7042 19.3192 24.801C19.3989 24.8671 20.0989 24.8736 20.1637 24.8087C20.1837 24.7887 20.2058 24.3735 20.2126 23.8862L20.225 23.0002L20.4836 22.9867C20.7849 22.9708 20.7392 22.9197 21.7129 24.3599C21.7954 24.482 21.9244 24.6471 21.9995 24.7268L22.136 24.8716L22.6132 24.8687C23.1645 24.8653 23.2296 24.8108 22.9887 24.5538C22.9149 24.4751 22.7045 24.1957 22.5212 23.9329C22.3379 23.6702 22.0995 23.3391 21.9913 23.197C21.7406 22.8678 21.7394 22.8739 22.0955 22.6985C23.292 22.1096 23.1089 20.5486 21.7948 20.1326C21.489 20.0358 19.4637 19.9814 19.3264 20.0662ZM4.49531 20.3953C4.5027 20.5642 4.49246 20.7033 4.47256 20.7044C4.45265 20.7054 3.98013 20.7075 3.42252 20.709C2.18412 20.7125 2.27512 20.659 2.27512 21.3845C2.27512 22.139 2.17468 22.0674 3.23392 22.0674C4.25757 22.0674 4.21798 22.0522 4.2074 22.4427C4.19967 22.732 4.25302 22.7163 3.3024 22.7075C2.19708 22.6973 2.27512 22.6426 2.27512 23.4285C2.27512 24.2263 2.15886 24.1562 3.50727 24.171L4.61838 24.1832V24.479V24.7747H3.04862H1.47886L1.46692 22.4769C1.45588 20.3347 1.46043 20.1752 1.53449 20.1208C1.59614 20.0757 1.93682 20.0654 3.04794 20.0753L4.48188 20.0882L4.49531 20.3953ZM8.11816 20.1792C9.57599 20.5642 9.64492 22.325 8.21951 22.77C8.10735 22.8049 8.15183 22.9896 8.31836 23.1811C8.38547 23.2582 8.62469 23.5832 8.84992 23.9031C9.07514 24.2232 9.30583 24.5363 9.36259 24.5988C9.51604 24.7683 9.4578 24.7975 8.96549 24.7975H8.51765L8.31972 24.5259C8.21098 24.3766 8.054 24.1565 7.97096 24.0368C7.16765 22.8783 7.18108 22.8916 6.83357 22.9115C6.56421 22.9269 6.57752 22.8813 6.55215 23.8797L6.5294 24.7747H6.14265H5.75589L5.74406 22.4571C5.73485 20.6344 5.74452 20.1312 5.78956 20.1003C5.90058 20.0246 7.77247 20.0878 8.11816 20.1792ZM12.8767 20.182C13.8452 20.5126 14.1832 21.6493 13.465 22.1607C13.2782 22.2937 13.2969 22.3904 13.5336 22.516C14.4062 22.9788 14.1141 24.2368 13.0359 24.6592C12.7114 24.7863 10.6225 24.8637 10.4897 24.7534C10.4045 24.6828 10.3939 20.2201 10.4787 20.1176C10.563 20.0156 12.5451 20.0688 12.8767 20.182ZM18.0153 20.1093C18.1155 20.1629 18.1405 20.6478 18.0449 20.6845C18.0136 20.6965 17.5324 20.7105 16.9757 20.7157C15.7568 20.7271 15.8503 20.6676 15.8569 21.4269C15.8628 22.1142 15.7843 22.0632 16.8592 22.0778L17.768 22.0902L17.7814 22.3973L17.7949 22.7044H16.9156C15.777 22.7044 15.8553 22.6486 15.8629 23.4551C15.87 24.2271 15.7507 24.1589 17.0969 24.1598C17.947 24.1603 18.201 24.1735 18.2035 24.2173C18.2408 24.8617 18.4177 24.7975 16.6061 24.7975C15.4007 24.7975 15.0605 24.7849 15.0597 24.7406C15.0316 23.2275 15.0697 20.1333 15.1167 20.1035C15.1999 20.0506 17.9157 20.0561 18.0153 20.1093ZM21.7309 20.1894C22.5596 20.419 22.9444 21.0028 22.7781 21.7781C22.6752 22.2574 22.4305 22.5187 21.8744 22.743C21.6882 22.8181 21.7165 22.9264 22.0336 23.352C22.19 23.562 22.3897 23.8335 22.4773 23.9554C22.5649 24.0773 22.7318 24.3049 22.8483 24.4612C23.1054 24.8061 23.1129 24.7975 22.5618 24.7975H22.1154L21.9437 24.5754C21.8492 24.4532 21.6492 24.1738 21.499 23.9543C21.3489 23.7349 21.1595 23.4661 21.0781 23.357C20.9968 23.2479 20.9303 23.1389 20.9303 23.1146C20.9303 23.0318 20.6914 22.914 20.5041 22.9044C20.1535 22.8864 20.1602 22.8682 20.1463 23.8772L20.134 24.7747L19.7743 24.7881C19.5765 24.7955 19.3959 24.7828 19.3729 24.7598C19.3056 24.6925 19.3282 20.1458 19.3962 20.0989C19.5102 20.0201 21.3817 20.0927 21.7309 20.1894ZM6.62575 20.7718C6.51507 20.8825 6.5162 22.1794 6.62711 22.2414C6.75463 22.3127 7.6842 22.2467 7.90067 22.1509C8.55428 21.8619 8.55269 21.053 7.89805 20.8199C7.59945 20.7137 6.71732 20.6804 6.62575 20.7718ZM11.3131 20.771C11.237 20.8471 11.1998 21.822 11.2663 21.9954C11.3148 22.1218 12.3898 22.0971 12.6221 21.9643C13.1244 21.677 13.1176 21.0381 12.61 20.8237C12.3496 20.7137 11.4086 20.6755 11.3131 20.771ZM20.2364 20.7533C20.1152 20.8212 20.1157 22.1788 20.2368 22.2436C20.3973 22.3295 21.3416 22.235 21.5641 22.1108C22.1117 21.805 22.1121 21.1201 21.5649 20.8544C21.3357 20.7431 20.3837 20.6707 20.2364 20.7533ZM7.97301 20.8966C8.49263 21.1214 8.43768 21.8661 7.88451 22.0972C7.68261 22.1816 6.79012 22.255 6.67728 22.1964C6.5931 22.1529 6.55181 20.901 6.63177 20.8191C6.69502 20.7544 7.79056 20.8175 7.97301 20.8966ZM12.5579 20.8668C13.0832 21.077 13.046 21.7911 12.5012 21.9529C12.1709 22.0509 11.3498 22.049 11.3118 21.9499C11.2742 21.852 11.2766 20.8617 11.3146 20.8238C11.3805 20.7578 12.3711 20.7921 12.5579 20.8668ZM21.3411 20.8435C22.0467 20.9948 22.1352 21.8162 21.4763 22.098C21.2775 22.183 20.3393 22.2557 20.2591 22.1922C20.1982 22.1441 20.1737 20.8826 20.2326 20.8238C20.2816 20.7747 21.0872 20.789 21.3411 20.8435ZM31.5401 21.3333C31.4321 21.3771 31.2816 21.4793 31.2058 21.5606C31.0475 21.7299 30.9693 21.7266 30.9484 21.5496C30.9274 21.3711 30.509 21.2633 30.2388 21.3671C30.146 21.4027 30.1275 24.7678 30.2198 24.8248C30.3197 24.8865 30.9931 24.8592 31.0359 24.7918C31.0576 24.7573 31.0758 24.2263 31.0762 23.6116L31.0768 22.494L31.202 22.3791C31.3787 22.2168 31.6125 22.1203 31.9149 22.0847C32.2538 22.0449 32.3053 21.9886 32.3053 21.6579C32.3053 21.2423 32.0409 21.13 31.5401 21.3333ZM33.767 21.3419C32.1067 21.9314 32.2987 24.5961 34.0259 24.9359C35.4032 25.2068 36.455 24.011 36.1095 22.5669C35.8647 21.544 34.7862 20.98 33.767 21.3419ZM42.3154 21.3466C42.2028 21.3987 42.074 21.4799 42.0292 21.5269C41.926 21.6353 41.8149 21.6372 41.8149 21.5305C41.8149 21.3469 41.2721 21.2487 41.0731 21.3963C40.996 21.4535 40.9446 26.3611 41.0198 26.4829C41.0592 26.5465 41.8476 26.5385 41.8874 26.4741C41.9051 26.4454 41.9152 26.0359 41.9099 25.5641C41.8989 24.6085 41.8866 24.638 42.216 24.831C42.9266 25.2475 43.9042 24.7484 44.2335 23.8012C44.7415 22.3401 43.5269 20.7856 42.3154 21.3466ZM32.1597 21.3485C32.2327 21.4214 32.2308 21.9066 32.1575 21.9653C32.1262 21.9902 31.9777 22.0256 31.8277 22.0438C31.5281 22.0801 31.2225 22.2339 31.0734 22.4234C30.9836 22.5376 30.9798 22.5915 30.99 23.6264C31.0023 24.8718 31.0259 24.8064 30.5719 24.7882L30.2351 24.7747L30.2231 23.1005L30.2112 21.4264L30.5416 21.4398L30.8721 21.4532L30.8863 21.6011C30.9056 21.8015 31.0547 21.7996 31.2464 21.5962C31.4569 21.3731 32.0292 21.2179 32.1597 21.3485ZM34.9045 21.38C35.2369 21.4751 35.392 21.5593 35.6196 21.7685C36.2027 22.3044 36.2573 23.6208 35.7259 24.332C35.1627 25.0857 33.6332 25.0802 33.0552 24.3224C32.7437 23.9143 32.5707 22.6528 32.7889 22.3815C32.8171 22.3464 32.8559 22.2665 32.875 22.2039C33.0735 21.5559 34.0844 21.1455 34.9045 21.38ZM43.2503 21.3889C44.2223 21.6891 44.6018 23.122 43.9929 24.1924C43.6325 24.8259 42.7879 25.0868 42.1902 24.7495C41.8315 24.547 41.842 24.5231 41.8397 25.5513L41.8377 26.4582L41.5433 26.472C41.3814 26.4796 41.2042 26.4746 41.1495 26.4608L41.0499 26.4359L41.0571 23.9446L41.0642 21.4532H41.4034C41.7249 21.4532 41.7439 21.4589 41.7686 21.5635C41.8054 21.7195 41.8729 21.7253 42.0374 21.5868C42.3774 21.3009 42.762 21.2381 43.2503 21.3889ZM36.9551 21.3786C36.8354 21.4545 36.9 23.9568 37.0279 24.1965C37.6116 25.2895 39.5571 25.2157 39.9902 24.0839C40.0787 23.8526 40.0859 23.7439 40.0859 22.6337C40.0859 21.2529 40.1163 21.3394 39.6309 21.3394C39.1476 21.3394 39.1759 21.2634 39.1758 22.5582C39.1758 23.9642 39.1129 24.1326 38.5651 24.1943C37.9204 24.267 37.8109 24.0354 37.8109 22.5991C37.8109 21.2791 37.8333 21.3391 37.3412 21.3401C37.1616 21.3405 36.9879 21.3579 36.9551 21.3786ZM40.0305 22.5452C40.0467 23.9193 40.0068 24.1345 39.6742 24.4724C38.9871 25.1704 37.4484 24.989 37.0683 24.1651C36.9786 23.9707 36.9706 23.865 36.9558 22.6912L36.9399 21.4268L37.3346 21.44L37.7292 21.4532L37.7359 22.5907C37.7445 24.0312 37.8457 24.2515 38.4995 24.2515C39.1462 24.2515 39.2751 23.9607 39.2634 22.5289C39.2534 21.3199 39.2231 21.3991 39.6832 21.4304L40.0176 21.4532L40.0305 22.5452ZM42.4772 21.9185C42.3658 21.9469 42.0974 22.1179 41.9628 22.2464C41.8644 22.3402 41.8604 22.3744 41.8604 23.1217V23.8995L42.0271 24.0566C42.681 24.6735 43.4503 24.1492 43.4522 23.0855C43.4537 22.2845 43.0303 21.7778 42.4772 21.9185ZM34.1544 21.9976C33.137 22.3602 33.3565 24.2515 34.416 24.2515C35.4185 24.2515 35.6418 22.4576 34.6941 22.0175C34.4784 21.9173 34.3889 21.914 34.1544 21.9976ZM43.0026 22.0792C43.5587 22.4487 43.5213 23.8352 42.9464 24.1584C42.6516 24.3241 42.2029 24.2327 41.9866 23.9628C41.8569 23.801 41.8685 22.4458 42.001 22.2773C42.2325 21.983 42.7145 21.8877 43.0026 22.0792ZM34.8312 22.1402C35.4302 22.5328 35.3324 23.8739 34.6849 24.1445C34.0871 24.3942 33.5794 23.9072 33.5794 23.0841C33.5794 22.2385 34.2311 21.7471 34.8312 22.1402ZM11.3183 22.7504C11.2067 22.8198 11.1977 24.0243 11.3081 24.1159C11.4312 24.2181 12.5014 24.1496 12.7542 24.0234C13.2872 23.7573 13.3415 23.1346 12.8567 22.8486C12.6716 22.7394 11.4604 22.6621 11.3183 22.7504ZM12.7989 22.8942C13.2293 23.1112 13.2566 23.6505 12.8506 23.9166C12.5894 24.0878 11.4724 24.194 11.3388 24.0604C11.2613 23.9829 11.2633 22.8802 11.3411 22.8017C11.4327 22.7092 12.5757 22.7817 12.7989 22.8942Z" fill="var(--fill-0, #7B9AC4)"/>
<path id="path4" fill-rule="evenodd" clip-rule="evenodd" d="M27.141 19.8829C26.9846 19.9234 26.7621 20.0131 26.8074 20.0175C26.8242 20.0191 26.9675 19.987 27.1259 19.9464C27.4517 19.8628 28.3019 19.8795 28.5618 19.9747C28.6427 20.0043 28.7328 20.0205 28.7621 20.0108C29.0524 19.914 27.4955 19.7912 27.141 19.8829ZM1.37469 20.0288C1.29541 20.1081 1.29484 24.8005 1.37412 24.8797C1.45238 24.958 4.64469 24.958 4.72295 24.8797C4.78824 24.8145 4.79609 24.2152 4.73307 24.1153C4.69678 24.0579 4.51808 24.0466 3.60762 24.0442L2.52528 24.0414L3.57179 24.067C4.14737 24.0811 4.64389 24.1092 4.67517 24.1294C4.75013 24.1779 4.75195 24.7597 4.67745 24.8342C4.59918 24.9125 1.49788 24.9125 1.41962 24.8342C1.34091 24.7555 1.34091 20.1536 1.41962 20.0749C1.49106 20.0035 4.53037 19.9959 4.56563 20.0669C4.57837 20.0927 4.58349 20.0875 4.577 20.0556C4.56028 19.973 1.45648 19.9471 1.37469 20.0288ZM5.65115 20.0294C5.55788 20.1227 5.57403 24.8135 5.66787 24.8915C5.76297 24.9703 6.52465 24.9682 6.6202 24.889C6.67696 24.8419 6.68685 24.6996 6.67844 24.0529L6.6682 23.2736L6.65444 24.021C6.64613 24.4762 6.62122 24.7922 6.59085 24.8287C6.5251 24.908 5.77503 24.9126 5.69665 24.8342C5.63375 24.7713 5.6168 20.176 5.67902 20.0781C5.70496 20.0371 5.98945 20.0186 6.73622 20.0089L7.75782 19.9957L6.73179 19.9853C5.98228 19.9777 5.69108 19.9895 5.65115 20.0294ZM10.3377 20.0294C10.259 20.1081 10.259 24.801 10.3377 24.8797C10.3966 24.9387 12.3918 24.9527 12.5956 24.8957C12.6538 24.8794 12.194 24.8728 11.5739 24.8811C10.5373 24.895 10.4417 24.8896 10.3875 24.8156C10.2998 24.6956 10.3013 20.1451 10.3891 20.0723C10.4283 20.0396 10.8237 20.0175 11.5152 20.0089L12.5809 19.9959L11.4866 19.9853C10.6841 19.9777 10.3777 19.9894 10.3377 20.0294ZM14.9712 20.0629C14.8978 20.2 14.9071 24.7575 14.981 24.8571C15.0695 24.9763 18.2375 24.9784 18.3245 24.8593C18.4515 24.6856 18.3804 24.0698 18.2332 24.0698C18.2115 24.0698 18.2259 24.102 18.2651 24.1414C18.3481 24.2243 18.3643 24.6611 18.2896 24.8008C18.2315 24.9093 15.1309 24.9409 15.0242 24.8342C14.9663 24.7763 14.9406 20.24 14.9973 20.0923C15.0333 19.9981 18.0522 19.9815 18.1455 20.0749C18.1774 20.1068 18.2001 20.2592 18.2001 20.4401C18.2001 20.8517 18.2096 20.8486 16.9834 20.8347C16.4517 20.8286 16.0049 20.8353 15.9907 20.8497C15.9547 20.8856 15.9563 21.8714 15.9924 21.9297C16.0108 21.9595 16.3424 21.9768 16.897 21.9768C17.912 21.9768 17.8816 21.9642 17.8816 22.3863C17.8816 22.8085 17.912 22.7958 16.897 22.7958C16.3103 22.7958 16.0114 22.8123 15.9907 22.8458C15.9674 22.8834 15.9546 23.6004 15.9695 24.0357C15.9701 24.0545 16.4672 24.0653 17.074 24.0597L18.1774 24.0496L17.0854 24.0256C16.4848 24.0124 15.9985 23.9862 16.0048 23.9675C16.011 23.9487 16.0161 23.6876 16.0161 23.3873V22.8413H16.9001C17.9509 22.8413 17.9271 22.8517 17.9271 22.3918C17.9271 21.9188 17.9602 21.9344 16.9261 21.9205L16.0389 21.9086L16.026 21.3967C16.019 21.1152 16.0292 20.8842 16.0488 20.8835C16.0683 20.8828 16.551 20.8777 17.1212 20.8721C17.9856 20.8638 18.1651 20.8507 18.2011 20.7938C18.2642 20.6939 18.2563 20.0947 18.191 20.0294C18.0843 19.9227 15.0292 19.9544 14.9712 20.0629ZM19.258 20.005C19.2267 20.0176 19.2012 20.0608 19.2012 20.1011C19.2012 20.1665 19.2072 20.1661 19.258 20.0977C19.3079 20.0307 19.4419 20.0196 20.3387 20.0085L21.3624 19.9957L20.3387 19.9889C19.7756 19.985 19.2893 19.9923 19.258 20.005ZM8.09987 20.0675C8.7305 20.2172 9.20951 20.6666 9.28663 21.1806L9.31393 21.3626L9.32076 21.1886C9.33873 20.7306 8.53553 20.0018 8.0381 20.0249C7.97668 20.0277 7.99977 20.0437 8.09987 20.0675ZM12.8084 20.0625C12.8834 20.0807 12.9896 20.1195 13.0443 20.149C13.0989 20.1783 13.1603 20.2014 13.1808 20.2004C13.2753 20.1956 12.8857 20.0244 12.7856 20.0269C12.6829 20.0294 12.685 20.0328 12.8084 20.0625ZM21.6354 20.0626C21.7355 20.0796 21.8621 20.118 21.9168 20.1479C21.9714 20.1779 22.0431 20.2019 22.0761 20.2013C22.109 20.2007 22.0466 20.1598 21.9375 20.1103C21.8285 20.0608 21.6749 20.0229 21.5963 20.026C21.4659 20.0312 21.4693 20.0344 21.6354 20.0626ZM26.4585 20.1144C26.3834 20.1625 26.343 20.202 26.3687 20.2021C26.3944 20.2022 26.4558 20.1741 26.5052 20.1395C26.5546 20.1051 26.6359 20.0664 26.686 20.0538L26.777 20.0309L26.686 20.029C26.6359 20.0278 26.5335 20.0663 26.4585 20.1144ZM28.9041 20.0695C28.9479 20.0949 28.9853 20.1507 28.9874 20.1932C28.9896 20.243 28.9993 20.2497 29.0143 20.2122C29.0416 20.1444 28.9509 20.0196 28.8758 20.0217C28.8476 20.0225 28.8603 20.044 28.9041 20.0695ZM22.2497 20.2904C22.5808 20.5526 22.6435 20.5933 22.5504 20.4854C22.5031 20.4306 22.3905 20.344 22.3002 20.293C22.1435 20.2045 22.1413 20.2044 22.2497 20.2904ZM13.4226 20.353C13.4226 20.3609 13.4892 20.4274 13.5705 20.5009L13.7184 20.6346L13.5847 20.4867C13.4601 20.3488 13.4226 20.3179 13.4226 20.353ZM25.5715 20.7978C25.3289 21.0893 25.0693 21.5542 25.0727 21.6912C25.0738 21.7357 25.1014 21.6972 25.1341 21.6058C25.2231 21.3565 25.4237 21.0275 25.6497 20.7597C25.7605 20.6283 25.8402 20.5208 25.8267 20.5208C25.8132 20.5208 25.6983 20.6455 25.5715 20.7978ZM22.6734 20.685C22.8951 20.9536 22.978 21.4472 22.8644 21.8217C22.7798 22.1008 22.7809 22.1247 22.8706 21.9589C23.0499 21.628 22.952 20.9168 22.6948 20.6812L22.5943 20.5891L22.6734 20.685ZM13.7466 20.7256C13.7871 20.7756 13.8315 20.8473 13.8453 20.8848C13.8666 20.9427 13.871 20.9421 13.874 20.8805C13.876 20.8406 13.8315 20.7689 13.7752 20.7212C13.6738 20.6352 13.6735 20.6354 13.7466 20.7256ZM4.51148 20.7786C4.46064 20.8336 4.27898 20.8435 3.45952 20.8358C2.26399 20.8246 2.36603 20.7712 2.36603 21.4081C2.36603 22.0401 2.28322 21.9897 3.30698 21.9798C4.30912 21.9701 4.27704 21.9557 4.27704 22.4147C4.27704 22.8203 4.41047 22.7631 3.38979 22.7953L2.52528 22.8226L3.36931 22.8319C4.36258 22.843 4.32254 22.8618 4.32254 22.3828C4.32254 21.9068 4.36281 21.9246 3.3138 21.9344L2.43428 21.9425V21.4072V20.8717L3.43529 20.8807C4.39352 20.8894 4.71453 20.8488 4.59543 20.7339C4.58303 20.7218 4.54515 20.7419 4.51148 20.7786ZM28.9714 20.7903C28.9453 20.8904 28.9276 20.896 28.7246 20.869C28.1471 20.7923 28.0825 20.7905 28.3695 20.8592C28.866 20.9779 29.0847 20.9376 29.0188 20.7397C29.0083 20.7082 28.987 20.7309 28.9714 20.7903ZM27.7217 20.781C27.7909 20.7914 27.8933 20.7912 27.9492 20.7804C28.0051 20.7696 27.9486 20.7609 27.8235 20.7613C27.6983 20.7616 27.6525 20.7705 27.7217 20.781ZM6.68651 20.8406C6.66206 20.8557 6.82154 20.872 7.04073 20.8767C7.25993 20.8816 7.55193 20.8953 7.68957 20.9072C7.88499 20.9242 7.9099 20.9199 7.80332 20.8879C7.64088 20.8391 6.74999 20.8013 6.68651 20.8406ZM11.3542 20.83C11.3406 20.8434 11.3299 20.8766 11.3303 20.9038C11.3307 20.9381 11.3412 20.9377 11.3644 20.9026C11.3879 20.8668 11.5722 20.8618 11.9893 20.8853C12.5903 20.9192 12.7724 20.9114 12.4144 20.8673C12.0991 20.8284 11.381 20.8031 11.3542 20.83ZM20.2673 20.8442C20.2515 20.8699 20.2508 20.9031 20.2659 20.9181C20.2809 20.9332 20.2932 20.9235 20.2932 20.8968C20.2932 20.8486 20.3641 20.8499 21.195 20.9133C21.4846 20.9353 21.5497 20.9574 21.6935 21.0824C21.8476 21.2162 21.8529 21.2177 21.77 21.104C21.6495 20.9391 21.5144 20.8838 21.173 20.8597C21.0145 20.8484 20.7523 20.8299 20.5905 20.8184C20.4153 20.806 20.2845 20.8165 20.2673 20.8442ZM27.1865 20.8633C26.9442 20.9432 27.0807 20.9431 27.3685 20.8631C27.4939 20.8283 27.545 20.8008 27.4822 20.8017C27.4197 20.8026 27.2866 20.8303 27.1865 20.8633ZM8.08497 21.04C8.19155 21.1317 8.21692 21.1967 8.23978 21.4381L8.2672 21.7266L8.27413 21.4685C8.28096 21.2136 8.13752 20.9303 8.00147 20.9303C7.97724 20.9303 8.0149 20.9797 8.08497 21.04ZM12.7574 21.0858C12.9735 21.4043 12.8493 21.7913 12.5033 21.8767C12.2675 21.935 11.4619 21.9622 11.3847 21.9145C11.3544 21.8957 11.3296 21.9021 11.3296 21.9286C11.3296 21.9868 11.3338 21.9873 11.8756 21.978C12.1133 21.9739 12.3953 21.949 12.5021 21.9226C12.9284 21.8172 13.0543 21.2554 12.7149 20.9738C12.6727 20.9387 12.6918 20.9891 12.7574 21.0858ZM26.7494 21.0433C26.5845 21.1514 26.1627 21.6024 26.1627 21.6706C26.1627 21.6907 26.2507 21.5989 26.3582 21.4667C26.4657 21.3344 26.6549 21.1595 26.7786 21.0782C26.9022 20.9969 26.9832 20.9316 26.9584 20.933C26.9337 20.9344 26.8396 20.9841 26.7494 21.0433ZM13.9004 21.3398C13.9004 21.5382 13.9142 21.6654 13.9313 21.6225C13.9483 21.5796 13.9622 21.4524 13.9622 21.3398C13.9622 21.2272 13.9483 21.1 13.9313 21.0572C13.9142 21.0143 13.9004 21.1414 13.9004 21.3398ZM19.1706 21.3171C19.1708 21.4922 19.179 21.5583 19.1889 21.4639C19.1988 21.3695 19.1985 21.2262 19.1885 21.1454C19.1784 21.0647 19.1703 21.1419 19.1706 21.3171ZM6.6599 21.5218C6.6599 21.7846 6.6674 21.8921 6.67662 21.7607C6.68583 21.6293 6.68583 21.4143 6.67662 21.2829C6.6674 21.1516 6.6599 21.2591 6.6599 21.5218ZM20.2643 21.5446C20.2644 21.7948 20.272 21.8914 20.2812 21.7592C20.2904 21.6269 20.2904 21.4222 20.281 21.3042C20.2717 21.1861 20.2642 21.2943 20.2643 21.5446ZM31.4862 21.2943C31.3987 21.3423 31.3437 21.3824 31.3641 21.3834C31.3846 21.3844 31.446 21.3613 31.5006 21.332C31.5553 21.3025 31.6614 21.2637 31.7365 21.2455C31.8598 21.2158 31.862 21.2124 31.7592 21.2099C31.6967 21.2083 31.5738 21.2463 31.4862 21.2943ZM32.1989 21.2487C32.3784 21.3212 32.3695 22.0015 32.1881 22.0726C32.1083 22.1039 32.1097 22.1072 32.204 22.1101C32.3442 22.1145 32.3937 21.9667 32.3758 21.5991C32.3588 21.2543 32.3356 21.2023 32.2001 21.2062L32.1005 21.2091L32.1989 21.2487ZM33.6406 21.318C33.5116 21.3769 33.3948 21.4434 33.381 21.4659C33.3671 21.4883 33.4555 21.4589 33.5773 21.4006C33.6993 21.3422 33.8775 21.276 33.9735 21.2535C34.1325 21.2161 34.136 21.2124 34.0115 21.2116C33.9364 21.2112 33.7696 21.2591 33.6406 21.318ZM34.823 21.2535C34.919 21.276 35.0973 21.3422 35.2192 21.4006C35.341 21.4589 35.4295 21.4885 35.4159 21.4663C35.3716 21.3948 34.8913 21.2032 34.768 21.2079C34.6727 21.2115 34.6839 21.2207 34.823 21.2535ZM42.3353 21.275C42.2868 21.3143 42.276 21.3315 42.3113 21.3132C42.3467 21.2948 42.4389 21.2646 42.5161 21.2462C42.6452 21.2154 42.6473 21.2123 42.5401 21.208C42.4762 21.2054 42.384 21.2355 42.3353 21.275ZM43.0888 21.2479C43.1764 21.2667 43.289 21.2965 43.3391 21.3141C43.3987 21.335 43.3908 21.3221 43.3163 21.2763C43.2538 21.2379 43.1412 21.2082 43.0661 21.2101C42.932 21.2137 42.9323 21.2144 43.0888 21.2479ZM21.8402 21.4747C21.8402 21.816 21.6675 21.9931 21.2598 22.0701C21.091 22.1021 20.9812 22.1377 21.0158 22.1493C21.175 22.2027 21.5709 22.0519 21.728 21.8781C21.8707 21.7202 21.9717 21.2488 21.8629 21.2488C21.8504 21.2488 21.8402 21.3505 21.8402 21.4747ZM30.4433 21.2943C30.2375 21.3104 30.145 21.3372 30.1305 21.3853C30.1138 21.4404 30.1215 21.4427 30.1701 21.3967C30.3501 21.227 30.9857 21.3494 30.9857 21.5537C30.9857 21.7026 31.0872 21.6831 31.2119 21.5104L31.3187 21.3626L31.2062 21.4649C31.0691 21.5896 31.0312 21.5934 31.0312 21.4819C31.0312 21.3098 30.8768 21.2605 30.4433 21.2943ZM36.9436 21.3042C36.895 21.3222 36.8553 21.3605 36.8553 21.3894C36.8553 21.429 36.8711 21.4289 36.919 21.3891C36.9598 21.3552 37.1277 21.3408 37.3854 21.3494L37.788 21.3626L37.812 22.5228C37.8276 23.2721 37.8554 23.7275 37.8905 23.8082C37.9749 24.002 37.9856 23.9569 37.9174 23.6945C37.8732 23.5245 37.8562 23.1549 37.8582 22.4137C37.8602 21.7113 37.8448 21.3556 37.8109 21.3217C37.7552 21.266 37.0836 21.2525 36.9436 21.3042ZM41.1551 21.2837C41.08 21.2926 40.993 21.3333 40.9617 21.3741C40.8876 21.4705 40.8783 26.3924 40.9519 26.5298C41.0107 26.6397 41.8562 26.6643 41.9438 26.5587C42.0024 26.4881 42.039 24.7457 41.9815 24.765C41.9605 24.772 41.9461 25.1529 41.9493 25.6113C41.9533 26.1857 41.9386 26.4646 41.9021 26.5087C41.8336 26.5912 41.086 26.5989 41.0049 26.5178C40.9261 26.4389 40.9261 21.4733 41.0049 21.3944C41.1219 21.2775 41.7658 21.3245 41.8148 21.4536C41.8386 21.5161 41.8813 21.5673 41.9095 21.5673C41.9378 21.5673 42.0217 21.5161 42.0961 21.4536C42.1705 21.391 42.2091 21.3398 42.1819 21.3398C42.1547 21.3398 42.0974 21.3808 42.0545 21.4308C41.9647 21.5356 41.8603 21.5508 41.8603 21.4591C41.8603 21.305 41.574 21.2337 41.1551 21.2837ZM39.1311 21.3838C39.1002 21.4416 39.0879 21.8807 39.0962 22.6237L39.1091 23.7741L39.1197 22.6116C39.1321 21.2518 39.0965 21.3398 39.6343 21.3398C40.1736 21.3398 40.1394 21.2452 40.1227 22.69L40.1086 23.9106L39.9785 24.1714C39.907 24.3149 39.7676 24.5052 39.669 24.5942C39.4963 24.7503 39.4354 24.7839 39.0848 24.9159C38.9904 24.9514 38.9608 24.9767 39.0121 24.9778C39.3104 24.9847 39.8196 24.5874 40.0288 24.1848C40.1633 23.9259 40.2496 21.6065 40.1329 21.3884C40.0582 21.2487 39.2055 21.2447 39.1311 21.3838ZM43.8374 21.6496C43.9364 21.7544 44.0227 21.8403 44.0294 21.8403C44.076 21.8403 43.9632 21.7044 43.8242 21.5927L43.6576 21.4588L43.8374 21.6496ZM33.1411 21.6488C32.9857 21.7833 32.7601 22.096 32.7604 22.1766C32.7605 22.2043 32.8035 22.1554 32.8558 22.0678C32.9081 21.9802 33.0352 21.8216 33.1381 21.7152C33.3504 21.4958 33.3518 21.4664 33.1411 21.6488ZM35.6617 21.7066C35.7685 21.8177 35.906 21.9905 35.9675 22.0906C36.0288 22.1907 36.0796 22.2565 36.0804 22.2369C36.0842 22.142 35.7717 21.7348 35.5894 21.5968C35.5224 21.5461 35.5549 21.5955 35.6617 21.7066ZM9.28936 21.7402C9.28538 21.8228 9.2508 21.9508 9.21269 22.0246C9.17447 22.0984 9.15343 22.1588 9.16594 22.1588C9.22691 22.1588 9.33077 21.863 9.31473 21.7351L9.29664 21.5901L9.28936 21.7402ZM8.12182 21.8719C8.06153 21.9446 7.92321 22.0103 7.71232 22.0662C7.53714 22.1126 7.43613 22.1525 7.48789 22.1547C7.74258 22.1659 8.33431 21.8668 8.23193 21.7787C8.22147 21.7697 8.17187 21.8117 8.12182 21.8719ZM13.7651 21.9122C13.7169 22.0017 13.6201 22.1233 13.55 22.1823C13.4177 22.2936 13.3839 22.3863 13.4757 22.3863C13.5049 22.3863 13.5159 22.3735 13.5001 22.3577C13.4844 22.3419 13.5629 22.2245 13.6746 22.0968C13.7863 21.9691 13.8776 21.8387 13.8776 21.807C13.8776 21.7192 13.8604 21.7352 13.7651 21.9122ZM26.0749 21.9864C26.0417 22.1246 26.0259 22.266 26.0395 22.3007C26.0533 22.3353 26.0661 22.3103 26.0681 22.2453C26.0701 22.1802 26.094 22.0628 26.1213 21.9846C26.1486 21.9063 26.1629 21.8181 26.153 21.7886C26.1433 21.7591 26.108 21.8481 26.0749 21.9864ZM24.987 22.016C24.9138 22.2601 24.9225 22.8637 25.003 23.1371C25.0399 23.2622 25.0593 23.3032 25.0464 23.2281C24.9839 22.8668 24.9711 22.2867 25.0211 22.088C25.0867 21.8275 25.0602 21.7716 24.987 22.016ZM42.4063 22.0451C42.2152 22.1187 42.3313 22.1347 42.5367 22.0632C42.7082 22.0033 42.9991 22.0993 43.1426 22.263L43.2307 22.3636L43.1571 22.2423C43.0231 22.0218 42.6925 21.9349 42.4063 22.0451ZM34.2504 22.1007C34.3317 22.1108 34.4648 22.1108 34.5461 22.1007C34.6275 22.0907 34.5609 22.0824 34.3983 22.0824C34.2356 22.0824 34.1691 22.0907 34.2504 22.1007ZM6.68458 22.1732C6.70494 22.1935 6.81153 22.2033 6.92129 22.195L7.12081 22.1799L6.8841 22.158C6.75397 22.146 6.6641 22.1528 6.68458 22.1732ZM20.2477 22.1702C20.2477 22.189 20.4063 22.2013 20.6003 22.1975C20.9592 22.1906 20.9167 22.1725 20.4865 22.149C20.3552 22.1419 20.2477 22.1514 20.2477 22.1702ZM22.6592 22.2754C22.5512 22.4213 22.2211 22.6918 22.0696 22.7585C22.031 22.7755 22.024 22.7908 22.054 22.7926C22.1934 22.8008 22.8598 22.2065 22.7889 22.1372C22.7801 22.1287 22.7217 22.1908 22.6592 22.2754ZM33.8868 22.2385C33.702 22.4329 33.5781 22.7989 33.5861 23.1274L33.593 23.4101L33.6248 23.0688C33.6617 22.6729 33.7906 22.3504 33.9676 22.2113C34.0361 22.1573 34.0726 22.1133 34.0489 22.1133C34.0252 22.1133 33.9522 22.1696 33.8868 22.2385ZM34.7207 22.1247C34.7313 22.131 34.8115 22.1975 34.899 22.2726L35.058 22.4091L34.9244 22.2612C34.8509 22.1799 34.7707 22.1133 34.7461 22.1133C34.7217 22.1133 34.7103 22.1184 34.7207 22.1247ZM42.0736 22.241L41.9513 22.3686V23.1084C41.9513 23.5307 41.9715 23.886 41.9983 23.9362C42.0445 24.0223 42.397 24.2309 42.434 24.1938C42.4443 24.1836 42.3694 24.1375 42.2675 24.0916C42.0073 23.9742 41.9968 23.9363 41.9968 23.1084V22.3686L42.1191 22.241C42.1863 22.1708 42.2311 22.1133 42.2186 22.1133C42.2061 22.1133 42.1408 22.1708 42.0736 22.241ZM44.181 22.1277C44.181 22.1481 44.2051 22.2096 44.2348 22.2642C44.2644 22.3189 44.303 22.4352 44.3205 22.5228L44.3524 22.6821L44.3576 22.5353C44.3605 22.4546 44.322 22.3215 44.272 22.2396C44.222 22.1576 44.1811 22.1073 44.181 22.1277ZM31.4862 22.2306L31.3725 22.2991L31.4862 22.2689C31.6514 22.2253 31.7596 22.1616 31.6682 22.1618C31.6307 22.1619 31.5488 22.1928 31.4862 22.2306ZM27.1273 22.2589C27.0503 22.3359 27.0543 22.9969 27.1321 23.0616C27.1649 23.0886 27.3952 23.1167 27.644 23.124L28.0965 23.1371V23.6013C28.0965 23.8567 28.1126 24.0494 28.1323 24.0296C28.1521 24.0098 28.1623 23.7906 28.1551 23.5426L28.142 23.0916L27.6895 23.0785C27.1208 23.062 27.1112 23.054 27.1278 22.6182L27.141 22.2726L28.0907 22.2603C28.7528 22.2516 29.0594 22.2637 29.1031 22.3C29.1864 22.3692 29.1952 24.5665 29.1128 24.7212C29.0649 24.811 29.0671 24.8146 29.1356 24.7581C29.2325 24.6782 29.2522 22.3545 29.1566 22.2589C29.0793 22.1816 27.2047 22.1816 27.1273 22.2589ZM32.6726 22.3549C32.5099 22.7828 32.5325 23.7693 32.7091 23.9459C32.7308 23.9676 32.7187 23.8765 32.6821 23.7433C32.596 23.4297 32.595 22.7928 32.6801 22.4887C32.7485 22.2441 32.7441 22.1666 32.6726 22.3549ZM8.929 22.4432C8.78578 22.591 8.59662 22.7076 8.3607 22.7934C8.20156 22.8515 8.2052 22.9163 8.3789 23.1143C8.45568 23.2019 8.49697 23.2309 8.47058 23.1788C8.44419 23.1267 8.39073 23.0577 8.35183 23.0254C8.24683 22.9382 8.26594 22.855 8.39858 22.8217C8.59571 22.7723 9.22646 22.2953 9.09473 22.2953C9.08245 22.2953 9.00794 22.3619 8.929 22.4432ZM31.2127 22.4098L31.1052 22.5241L31.1172 23.6118C31.1254 24.346 31.1129 24.7303 31.0787 24.7942C31.0082 24.9262 30.2458 24.9388 30.1704 24.8092C30.1278 24.7362 30.1239 24.736 30.1226 24.8065C30.1206 24.92 30.1581 24.9301 30.6211 24.9404C31.2074 24.9533 31.174 25.0327 31.1643 23.6466C31.1564 22.5265 31.1572 22.5173 31.261 22.4067C31.3186 22.3455 31.3553 22.2953 31.3428 22.2953C31.3303 22.2953 31.2717 22.3469 31.2127 22.4098ZM13.5755 22.4215C13.6114 22.4797 13.8776 22.6767 13.8776 22.6451C13.8776 22.6339 13.8024 22.5673 13.7106 22.4972C13.6187 22.4272 13.5579 22.393 13.5755 22.4215ZM35.0369 22.438C35.036 22.4539 35.0652 22.5358 35.1017 22.62C35.1383 22.7041 35.1682 22.7424 35.1684 22.7048C35.1686 22.6393 35.0402 22.3788 35.0369 22.438ZM36.152 22.5683C36.3129 23.2742 36.1293 23.9987 35.6562 24.5247L35.513 24.6839L35.6627 24.5486C36.1426 24.1149 36.4085 23.1421 36.1914 22.6138C36.1551 22.5254 36.1375 22.5052 36.152 22.5683ZM43.2931 23.0945C43.2928 23.4182 43.3058 23.6217 43.3218 23.5466C43.3593 23.3714 43.3597 22.8129 43.3224 22.6395C43.3065 22.5661 43.2934 22.7708 43.2931 23.0945ZM13.9558 22.8149C14.0447 22.9339 14.0769 22.9395 14.0344 22.8286C14.0193 22.7895 13.9773 22.7459 13.9409 22.732C13.891 22.7128 13.8947 22.7334 13.9558 22.8149ZM26.0302 22.7731C26.0289 22.8231 26.0565 22.9665 26.0913 23.0916C26.1261 23.2167 26.1555 23.2781 26.1567 23.2281C26.1578 23.178 26.1303 23.0347 26.0955 22.9096C26.0608 22.7845 26.0313 22.723 26.0302 22.7731ZM2.38593 22.8552C2.32769 23.0067 2.38878 24.0397 2.45703 24.0582C2.51015 24.0727 2.51208 24.0675 2.46579 24.0349C2.42063 24.0031 2.40971 23.8485 2.42029 23.3943C2.43417 22.8017 2.43018 22.7398 2.38593 22.8552ZM12.0349 22.8387C12.3352 22.8573 12.6385 22.896 12.7089 22.9251C12.893 23.0009 12.9222 22.9868 12.7629 22.8991C12.6598 22.8424 12.4871 22.8217 12.0576 22.8146L11.4888 22.8052L12.0349 22.8387ZM21.8705 22.8262C21.814 22.8826 21.8397 22.9648 21.9653 23.1284C22.0341 23.2181 22.1821 23.4154 22.294 23.5669C22.4061 23.7184 22.5046 23.8423 22.5129 23.8423C22.5369 23.8423 22.4725 23.7422 22.3342 23.5642C21.9569 23.0787 21.8439 22.8658 21.9425 22.826C21.9743 22.8131 21.9777 22.8014 21.9502 22.7995C21.923 22.7974 21.8872 22.8095 21.8705 22.8262ZM44.3774 23.0688C44.3774 23.2315 44.3857 23.298 44.3957 23.2167C44.4058 23.1354 44.4058 23.0023 44.3957 22.921C44.3857 22.8396 44.3774 22.9062 44.3774 23.0688ZM35.1863 23.1143C35.1863 23.277 35.1946 23.3435 35.2046 23.2622C35.2148 23.1809 35.2148 23.0478 35.2046 22.9665C35.1946 22.8851 35.1863 22.9517 35.1863 23.1143ZM6.66911 23.0494C6.62975 23.0886 6.59915 23.1552 6.6012 23.1973C6.60404 23.2596 6.60939 23.2611 6.62987 23.2053C6.64363 23.1678 6.68617 23.1013 6.72428 23.0575C6.8105 22.9585 6.76637 22.952 6.66911 23.0494ZM6.89331 23.0229C6.82279 23.0527 6.84121 23.0605 6.97487 23.0577C7.09556 23.0551 7.16609 23.0801 7.20999 23.1411C7.24446 23.189 7.30623 23.269 7.34718 23.3191L7.42157 23.4101L7.378 23.3191C7.2514 23.0547 7.07395 22.9462 6.89331 23.0229ZM12.9224 22.9881C12.9222 23.0063 12.9629 23.0882 13.013 23.1701C13.0629 23.2521 13.1037 23.2986 13.1037 23.2736C13.1035 23.2486 13.0628 23.1667 13.0131 23.0916C12.9634 23.0165 12.9226 22.97 12.9224 22.9881ZM14.0869 23.0461C14.1942 23.3363 14.0926 23.8938 13.8886 24.1341C13.8124 24.2239 13.8127 24.225 13.8938 24.1619C14.1338 23.9752 14.2728 23.3128 14.1231 23.0688C14.0794 22.9976 14.0659 22.9892 14.0869 23.0461ZM20.2665 23.0297C20.2511 23.0545 20.2508 23.0871 20.2659 23.1022C20.2809 23.1172 20.2932 23.1071 20.2932 23.0796C20.2932 23.0269 20.6618 23.0382 20.7517 23.0937C20.779 23.1106 20.8709 23.2333 20.9562 23.3666C21.0414 23.4998 21.1315 23.6214 21.1565 23.6369C21.2224 23.6776 20.8629 23.1452 20.7756 23.0727C20.6864 22.9986 20.3056 22.9665 20.2665 23.0297ZM20.2663 24.0016C20.2662 24.427 20.273 24.6072 20.2814 24.402C20.2899 24.1967 20.29 23.8486 20.2816 23.6285C20.2733 23.4083 20.2663 23.5762 20.2663 24.0016ZM8.59855 23.4315C8.65156 23.5058 8.7181 23.5809 8.74643 23.5985C8.77486 23.6161 8.74074 23.5552 8.67067 23.4633C8.51858 23.2639 8.46125 23.2386 8.59855 23.4315ZM26.2039 23.4248C26.2315 23.4765 26.2766 23.5326 26.304 23.5495C26.3397 23.5716 26.3395 23.5536 26.3035 23.4864C26.2759 23.4347 26.2308 23.3786 26.2034 23.3616C26.1677 23.3396 26.1679 23.3575 26.2039 23.4248ZM25.0725 23.4157C25.0692 23.5092 25.2504 23.8749 25.3318 23.9387C25.4059 23.9969 25.4068 23.9951 25.3437 23.9153C25.3062 23.8677 25.2302 23.7244 25.1749 23.5968C25.1196 23.469 25.0735 23.3876 25.0725 23.4157ZM7.50905 23.5771C7.56092 23.669 7.63633 23.7714 7.6766 23.8046C7.77932 23.8893 7.69184 23.7336 7.53168 23.5466L7.41475 23.4101L7.50905 23.5771ZM33.6284 23.4617C33.6265 23.4902 33.6547 23.5823 33.6912 23.6665C33.7278 23.7507 33.7576 23.7889 33.7574 23.7513C33.7571 23.6673 33.6336 23.39 33.6284 23.4617ZM35.1115 23.5477C35.0945 23.5972 35.0684 23.6683 35.0532 23.7058C35.0382 23.7434 35.0602 23.7275 35.1022 23.6706C35.1442 23.6136 35.1704 23.5425 35.1604 23.5125C35.1502 23.4819 35.1288 23.4973 35.1115 23.5477ZM44.309 23.6213C44.2651 23.8649 44.0539 24.2855 43.8688 24.4981L43.707 24.6841L43.8729 24.53C44.0752 24.342 44.3743 23.7496 44.3536 23.5779C44.3404 23.4684 44.3358 23.473 44.309 23.6213ZM12.9497 23.7222C12.8446 23.8726 12.8386 23.8924 12.9198 23.82C13.0231 23.7281 13.1238 23.5729 13.0964 23.5477C13.0882 23.5401 13.0221 23.6186 12.9497 23.7222ZM26.3447 23.6291C26.3447 23.6403 26.4199 23.7069 26.5117 23.7769C26.6036 23.847 26.6645 23.8811 26.6468 23.8527C26.6109 23.7945 26.3447 23.5974 26.3447 23.6291ZM8.91137 23.8537C8.99258 23.9726 9.06755 24.0698 9.07801 24.0698C9.11384 24.0698 8.91341 23.7586 8.83856 23.6981C8.7975 23.6648 8.83026 23.7348 8.91137 23.8537ZM36.8613 23.8032C36.8445 24.262 37.5294 24.9944 37.9572 24.9752C38.0414 24.9714 38.0351 24.9643 37.9245 24.9373C37.4071 24.8113 36.9821 24.3572 36.9001 23.8423C36.8681 23.642 36.8673 23.6411 36.8613 23.8032ZM34.9319 23.9135C34.8321 24.047 34.5326 24.1321 34.2675 24.1021C34.1436 24.0882 34.0915 24.0949 34.1305 24.1196C34.3481 24.2573 35.193 23.9799 35.0312 23.8238C35.0209 23.8139 34.9762 23.8543 34.9319 23.9135ZM38.9457 23.9468C38.8102 24.1036 38.4683 24.1631 38.213 24.074C38.0914 24.0317 38.0741 24.0329 38.1212 24.08C38.2525 24.2112 38.7942 24.154 38.9565 23.9917C39.037 23.9112 39.0937 23.8378 39.0824 23.8286C39.0713 23.8194 39.0097 23.8726 38.9457 23.9468ZM12.6036 23.9429C12.541 23.97 12.2646 24.0075 11.9893 24.0263L11.4888 24.0605L11.9893 24.0506C12.3328 24.0438 12.5398 24.0179 12.6491 23.9679C12.8255 23.8874 12.7842 23.8646 12.6036 23.9429ZM21.3397 23.9051C21.3397 23.9451 21.7958 24.5703 21.8249 24.5703C21.8376 24.5703 21.7704 24.4629 21.6758 24.3315C21.4079 23.9598 21.3397 23.8732 21.3397 23.9051ZM22.733 24.195C22.9537 24.5103 23.0672 24.6505 23.0001 24.5248C22.9337 24.4006 22.564 23.8878 22.5409 23.8878C22.5284 23.8878 22.6148 24.026 22.733 24.195ZM26.8452 23.9788C26.9328 24.0268 27.0556 24.0648 27.1182 24.0632C27.2209 24.0607 27.2188 24.0573 27.0955 24.0276C27.0204 24.0094 26.9143 23.9707 26.8595 23.9412C26.8049 23.9118 26.7435 23.8888 26.723 23.8898C26.7027 23.8908 26.7576 23.9308 26.8452 23.9788ZM25.4294 24.0998C25.4857 24.2113 25.9765 24.6613 26.0418 24.6613C26.0654 24.6613 25.9916 24.5903 25.8778 24.5033C25.764 24.4163 25.6053 24.2679 25.5252 24.1735C25.4453 24.0789 25.4021 24.0457 25.4294 24.0998ZM32.7616 24.056C32.7608 24.0858 32.8063 24.1585 32.8626 24.2174C32.9189 24.2763 32.9423 24.2928 32.9145 24.2541C32.8867 24.2153 32.8412 24.1426 32.8135 24.0926C32.7857 24.0425 32.7624 24.026 32.7616 24.056ZM7.90661 24.1381C7.93265 24.1881 8.01217 24.3047 8.08337 24.3972C8.15458 24.4897 8.26913 24.6466 8.33806 24.7459L8.46319 24.9263L8.97507 24.9433C9.67293 24.9665 9.772 24.8881 9.45896 24.5597L9.31723 24.4111L9.43621 24.5625C9.66826 24.8578 9.62822 24.8888 9.01522 24.8888H8.47547L8.34409 24.6956C8.20384 24.4892 7.92264 24.1075 7.88317 24.0698C7.86998 24.0573 7.88056 24.088 7.90661 24.1381ZM27.4495 24.1034C27.5691 24.1127 27.7534 24.1126 27.859 24.1031C27.9645 24.0935 27.8667 24.0859 27.6415 24.086C27.4162 24.0861 27.3298 24.094 27.4495 24.1034ZM42.8413 24.1396C42.7926 24.1763 42.7734 24.2063 42.7984 24.2063C42.8235 24.2063 42.8836 24.1763 42.9323 24.1396C42.9809 24.1028 43.0001 24.0727 42.9751 24.0727C42.9501 24.0727 42.8899 24.1028 42.8413 24.1396ZM9.21383 24.2973C9.2591 24.3474 9.30392 24.3883 9.31347 24.3883C9.32303 24.3883 9.30881 24.3474 9.28208 24.2973C9.25535 24.2473 9.21042 24.2063 9.18243 24.2063C9.15445 24.2063 9.16856 24.2473 9.21383 24.2973ZM13.6501 24.3951C13.4598 24.5617 12.9904 24.7957 12.8311 24.8031C12.7442 24.8072 12.7376 24.8135 12.8029 24.8304C12.9428 24.8662 13.3986 24.6575 13.6348 24.4493C13.7558 24.3426 13.8446 24.2554 13.8321 24.2555C13.8196 24.2555 13.7377 24.3183 13.6501 24.3951ZM33.0289 24.4482C33.0995 24.5367 33.4428 24.817 33.4428 24.786C33.4428 24.7753 33.3353 24.6769 33.2039 24.5674C33.0725 24.4577 32.9938 24.4042 33.0289 24.4482ZM23.0987 24.7182L23.1261 24.8888H22.6257C22.1784 24.8888 22.1116 24.8782 21.9942 24.7877C21.9039 24.7181 21.8831 24.7117 21.9274 24.7675C22.064 24.9388 22.2671 24.9687 23.0801 24.9374C23.169 24.934 23.1905 24.7346 23.1148 24.6158C23.0849 24.569 23.0798 24.6012 23.0987 24.7182ZM26.1469 24.7092C26.2282 24.7906 26.7724 24.9798 26.9107 24.9748C27.0321 24.9705 27.0255 24.9651 26.859 24.9322C26.754 24.9114 26.5413 24.8432 26.3862 24.7806C26.2312 24.718 26.1236 24.6859 26.1469 24.7092ZM35.24 24.8017C35.1149 24.8735 34.9613 24.9355 34.8988 24.9395C34.7966 24.946 34.795 24.9487 34.8836 24.966C34.9826 24.9853 35.4133 24.7945 35.467 24.7078C35.503 24.6495 35.5111 24.6461 35.24 24.8017ZM43.5412 24.7572C43.4772 24.8072 43.3441 24.8768 43.2455 24.9119C43.1468 24.9471 43.1026 24.9768 43.1472 24.9778C43.2543 24.9805 43.6803 24.7634 43.6803 24.706C43.6803 24.6489 43.6795 24.6493 43.5412 24.7572ZM19.2012 24.8165C19.2012 24.9586 20.1955 24.9844 20.2383 24.8433C20.2551 24.7883 20.2474 24.786 20.1987 24.832C20.105 24.9204 19.3639 24.9086 19.2727 24.8173C19.2084 24.7531 19.2012 24.753 19.2012 24.8165ZM28.8017 24.8491C28.7392 24.8742 28.5754 24.9114 28.4377 24.9317L28.1875 24.9687L28.3922 24.9707C28.5048 24.9719 28.6993 24.935 28.8245 24.8888C28.9496 24.8427 29.0213 24.8046 28.9837 24.8042C28.9462 24.8039 28.8643 24.8241 28.8017 24.8491ZM33.6248 24.8842C33.7123 24.9347 33.825 24.976 33.875 24.976C33.9317 24.9759 33.906 24.9532 33.8068 24.9157C33.4954 24.7982 33.4674 24.7934 33.6248 24.8842ZM42.1788 24.8838C42.2414 24.9356 42.3233 24.9781 42.3608 24.9786C42.4207 24.9792 42.3843 24.9549 42.1221 24.8195C42.0908 24.8032 42.1163 24.8322 42.1788 24.8838ZM27.3798 25.0134C27.5112 25.0226 27.7262 25.0226 27.8576 25.0134C27.989 25.0042 27.8815 24.9967 27.6187 24.9967C27.356 24.9967 27.2485 25.0042 27.3798 25.0134ZM34.2049 25.0132C34.3112 25.0227 34.4853 25.0227 34.5916 25.0132C34.698 25.0036 34.611 24.9958 34.3983 24.9958C34.1856 24.9958 34.0985 25.0036 34.2049 25.0132ZM38.2999 25.0132C38.4063 25.0227 38.5803 25.0227 38.6867 25.0132C38.793 25.0036 38.706 24.9958 38.4933 24.9958C38.2806 24.9958 38.1936 25.0036 38.2999 25.0132ZM42.6687 25.0128C42.7505 25.023 42.8734 25.0227 42.9417 25.0124C43.0101 25.002 42.9432 24.9937 42.7931 24.994C42.6429 24.9942 42.587 25.0027 42.6687 25.0128Z" fill="var(--fill-0, #3B6BA4)"/>
</g>
</svg>
