<svg preserveAspectRatio="none" width="100%" height="100%" overflow="visible" style="display: block;" viewBox="0 0 62.1381 46.1894" fill="none" xmlns="http://www.w3.org/2000/svg">
<g id="Group">
<path id="Vector" fill-rule="evenodd" clip-rule="evenodd" d="M48.1971 2.78585L50.9872 5.57134L48.2064 8.35233L45.4256 11.1333H51.0012H56.5769L59.3445 8.36756C60.8667 6.84642 62.1121 5.59325 62.1121 5.58284C62.1121 5.57243 60.8597 4.31211 59.329 2.78196L56.5458 0.000198366H50.9762H45.4068L48.1971 2.78585ZM31.9234 0.0408988C31.9234 0.0489768 33.1642 1.29609 34.6808 2.8121C36.1973 4.32812 37.4382 5.57694 37.4382 5.58703C37.438 5.59729 36.197 6.84642 34.68 8.3629L31.9222 11.1203L37.4568 11.1268L42.9916 11.1333L45.7684 8.35653L48.5454 5.57973L45.7686 2.80294L42.9919 0.026141H37.4576C34.4138 0.026141 31.9234 0.0326655 31.9234 0.0408988ZM7.40484 12.7919C6.73375 12.8542 6.58166 12.8758 6.22701 12.9592C4.02717 13.4772 2.33903 14.7053 1.12159 16.6739C0.69517 17.3633 0.306651 18.4274 0.157209 19.3147C0.0338652 20.047 0.0259426 20.2148 0.0259426 22.1026V23.8716H2.66557H5.30535L5.31358 22.0786L5.32166 20.2856L5.39296 20.0268C5.63017 19.1644 6.19983 18.5372 7.039 18.214C7.48204 18.0434 7.40422 18.0462 11.9024 18.0462H15.9229V15.4053V12.7644L11.7739 12.768C9.4919 12.77 7.52585 12.7808 7.40484 12.7919ZM23.25 12.7826C20.1963 12.9697 17.385 15.1446 16.3799 18.0979C16.0093 19.187 15.9494 19.7483 15.949 22.1434L15.9488 23.8716H18.6018H21.2548L21.2621 22.0657C21.2694 20.2637 21.2695 20.2592 21.3303 20.0268C21.5566 19.162 22.2002 18.474 23.0482 18.1905C23.4848 18.0446 23.4329 18.0462 27.8166 18.0462H31.8458V15.4053V12.7644L27.6191 12.7691C25.2944 12.7717 23.3283 12.778 23.25 12.7826ZM39.0564 12.7921C35.7934 13.0509 32.9006 15.513 32.1072 18.7064C31.8911 19.5762 31.8719 19.851 31.8717 22.0527V23.8716H34.5126H37.1534V22.1933C37.1534 20.3774 37.161 20.2519 37.2982 19.8382C37.5816 18.9832 38.3132 18.3246 39.2118 18.1161C39.4421 18.0625 39.492 18.0619 43.6197 18.0535L47.7946 18.0449V15.4047V12.7644L43.5549 12.768C41.2232 12.77 39.1987 12.7809 39.0564 12.7921ZM6.9388 21.7745V23.8716H9.30238H11.666L12.7652 22.7808C13.3698 22.1807 14.3203 21.237 14.8772 20.6836L15.8899 19.6773H11.4143H6.9388V21.7745ZM0.0259426 30.2666V35.0305H2.66681H5.30768V30.2666V25.5028H2.66681H0.0259426V30.2666ZM15.949 26.4283C15.9493 27.9462 16.0523 28.7111 16.3867 29.6811C17.2867 32.2907 19.4856 34.2484 22.1884 34.8461C22.9431 35.0131 22.9243 35.0119 24.827 35.0237L26.5721 35.0347L29.1922 32.3982L31.8122 29.7617L27.7058 29.7465C24.9935 29.7362 23.5499 29.7218 23.4532 29.7036C22.4314 29.5124 21.6323 28.7827 21.3421 27.7761C21.273 27.5362 21.2725 27.5303 21.2629 26.5189L21.2531 25.5028H18.601H15.9488L15.949 26.4283ZM31.8717 26.5189C31.8719 27.8356 31.9053 28.2082 32.0935 28.985C32.8039 31.9171 35.1722 34.2213 38.1234 34.852C38.8743 35.0125 38.856 35.0114 40.7626 35.0235L42.5205 35.0346L45.1407 32.3982L47.7607 29.7617L43.6287 29.7472C39.2818 29.7319 39.373 29.7344 39.0305 29.6236C38.1366 29.3345 37.4444 28.5907 37.2261 27.6849C37.1766 27.4794 37.1704 27.3635 37.1604 26.48L37.1496 25.5028H34.5105H31.8717V26.5189ZM14.6024 40.6359V40.9854H14.9908H15.3792V40.6359V40.2863H14.9908H14.6024V40.6359ZM0 43.1862V46.06H1.90298H3.80596V45.7234V45.3869H2.27814H0.750317L0.756997 44.3059L0.763832 43.225L2.28482 43.2183L3.80596 43.2116V42.8882V42.5648H2.27845H0.750783V41.7752V40.9854H2.27845H3.80596V40.6489V40.3123H1.90298H0V43.1862ZM47.5356 41.1407V41.7621H47.2897H47.0436V42.0599V42.3577H47.2877H47.5316L47.5423 43.6845C47.555 45.242 47.567 45.3327 47.8058 45.6846C48.0789 46.0871 48.7395 46.2361 49.5228 46.0715L49.7364 46.0268V45.7083V45.39L49.5486 45.4571C49.0569 45.633 48.5505 45.5309 48.3653 45.2189L48.2735 45.0643L48.2656 43.7109L48.2577 42.3577H48.997H49.7364V42.0599V41.7621H48.9985H48.2606V41.1407V40.5194H47.898H47.5356V41.1407ZM6.91286 41.649C6.54982 41.7206 6.19501 41.8766 5.87376 42.1059C5.65658 42.2608 5.6701 42.2682 5.6701 41.9951V41.7621H5.33347H4.99699V43.9112V46.06H5.33347H5.6701V44.4469V42.8338L5.81892 42.7291C6.67829 42.1244 7.58255 42.1676 7.79833 42.8237C7.85177 42.9862 7.8541 43.0448 7.86481 44.526L7.87584 46.06H8.22413H8.57241L8.56247 44.4483C8.55051 42.5054 8.53979 42.4366 8.18809 42.0453C7.92291 41.7503 7.3312 41.5665 6.91286 41.649ZM21.5419 41.6622C20.8427 41.7781 20.3013 42.2198 20.0706 42.8626C19.7803 43.6716 19.8589 44.7098 20.2573 45.3315C21.151 46.7257 23.4116 46.3303 23.7583 44.7193C23.8433 44.3248 23.8526 44.2455 23.8536 43.9112C23.8564 42.9696 23.5208 42.273 22.8802 41.8898C22.5347 41.683 21.9826 41.5892 21.5419 41.6622ZM26.9094 41.6597C26.5982 41.7213 26.1527 41.917 25.9503 42.0812C25.9105 42.1135 25.8459 42.16 25.8067 42.1847L25.7356 42.2294V41.9958V41.7621H25.373H25.0106V43.9112V46.06H25.373H25.7356V44.435V42.8099L25.8712 42.7197C26.7051 42.1654 27.5346 42.1589 27.7815 42.7046C27.8998 42.9663 27.9104 43.1246 27.9104 44.6475V46.06H28.2599H28.6095L28.6088 44.5908C28.6084 42.8898 28.5938 42.6957 28.4426 42.3684C28.193 41.8281 27.553 41.5324 26.9094 41.6597ZM31.8458 41.6684C31.5316 41.743 31.237 41.889 30.8748 42.1497L30.7712 42.2241L30.7638 41.9931L30.7563 41.7621H30.3948H30.0333V43.9112V46.06H30.3959H30.7583L30.7587 44.4354L30.759 42.8107L30.8946 42.717C31.6606 42.1873 32.4454 42.1609 32.7183 42.6553C32.8118 42.8248 32.8285 43.1192 32.8291 44.6166L32.8296 46.06H33.1943H33.5591L33.5518 44.4413L33.5446 42.8227L33.7115 42.7106C34.2028 42.3807 34.3752 42.3186 34.7973 42.3193C35.1706 42.32 35.3288 42.3827 35.4622 42.5834C35.6099 42.8059 35.6082 42.7852 35.6192 44.4872L35.6293 46.06H35.9921H36.3546L36.3438 44.4872L36.3329 42.9143L36.268 42.6553C35.973 41.4791 34.6038 41.2771 33.4963 42.2466C33.3725 42.3549 33.3748 42.3555 33.2827 42.1979C33.0416 41.7857 32.3792 41.5417 31.8458 41.6684ZM39.2635 41.649C38.0864 41.8337 37.406 42.7565 37.4724 44.0778C37.5297 45.2207 38.045 45.8382 39.1729 46.1157C39.4358 46.1803 40.1215 46.1595 40.428 46.0774C40.5701 46.0394 40.7018 46.0083 40.7209 46.0083C40.7399 46.0083 40.8713 45.9602 41.0128 45.9014L41.2701 45.7947V45.4048V45.0147L41.1988 45.0803C41.0074 45.2564 40.3762 45.4954 39.9649 45.5473C38.9585 45.6743 38.1935 45.0557 38.1896 44.1117L38.189 43.9888H39.785H41.381L41.3661 43.581C41.328 42.5322 40.9442 41.9377 40.1648 41.7205C39.9397 41.6577 39.4535 41.6192 39.2635 41.649ZM44.3899 41.6611C44.0358 41.7323 43.7017 41.8842 43.3801 42.1199L43.2248 42.2337L43.2173 41.9979L43.2099 41.7621H42.8613H42.5128V43.9112V46.06H42.8624H43.2119L43.2124 44.4354L43.2128 42.8107L43.3483 42.7209C44.2313 42.1353 45.102 42.1694 45.3047 42.7978C45.3929 43.0714 45.4125 43.4311 45.4125 44.7812V46.06H45.7505H46.0886L46.0797 44.4095C46.0698 42.5871 46.0775 42.6752 45.8983 42.3189C45.6455 41.8163 45.0054 41.5372 44.3899 41.6611ZM9.52483 41.924C9.56476 42.013 9.61245 42.1314 9.63078 42.1871C9.64911 42.2429 9.70239 42.3726 9.74931 42.4753C9.79607 42.578 9.84593 42.7013 9.86007 42.7493C9.88523 42.8343 9.98528 43.0869 10.1614 43.5097C10.2949 43.8305 10.5529 44.4702 10.6522 44.7267C10.7819 45.0618 10.8807 45.3049 10.9661 45.4991C11.0152 45.6106 11.0554 45.715 11.0554 45.7309C11.0554 45.7469 11.0867 45.8278 11.125 45.9108L11.1946 46.0614L11.5431 46.0543L11.8915 46.0472L11.9944 45.8011C12.0509 45.6658 12.1349 45.462 12.1812 45.3481C12.2277 45.2341 12.3069 45.0419 12.3574 44.9209C12.4077 44.7997 12.4776 44.625 12.5126 44.5325C12.5475 44.44 12.5991 44.3118 12.6272 44.2476C12.7052 44.0696 12.8418 43.7319 12.8944 43.5874C12.9202 43.5163 13.0071 43.3006 13.0874 43.1085C13.1677 42.9162 13.2545 42.7007 13.2805 42.6296C13.3062 42.5583 13.3622 42.4184 13.4046 42.3189C13.4471 42.2191 13.5175 42.0531 13.561 41.9499L13.6402 41.7621H13.2687C12.9056 41.7621 12.8968 41.7635 12.8804 41.8204C12.8627 41.8817 12.8133 42.0111 12.3933 43.0956C12.3437 43.2238 12.2493 43.4684 12.1836 43.6393C11.9589 44.2232 11.8535 44.4937 11.7545 44.7396C11.7 44.8749 11.6487 45.0147 11.6405 45.0503C11.5915 45.2613 11.5625 45.2311 11.3916 44.7913C11.3169 44.5992 11.2165 44.3466 11.1685 44.2302C11.1205 44.1139 11.0812 44.0069 11.0812 43.9926C11.0812 43.9783 11.0365 43.858 10.9817 43.7252C10.9268 43.5925 10.8673 43.4431 10.8491 43.3932C10.831 43.3434 10.7657 43.1745 10.7041 43.0179C10.6424 42.8612 10.5324 42.5816 10.4595 42.3965C10.3867 42.2114 10.3036 41.993 10.2747 41.9111L10.2222 41.7621H9.83723H9.45229L9.52483 41.924ZM14.6542 43.9112V46.06H14.9908H15.3274V43.9112V41.7621H14.9908H14.6542V43.9112ZM16.8032 43.9112V46.06H17.1527H17.5023V44.5324V43.0046L17.5685 42.9465C18.0769 42.5002 18.6304 42.3673 19.4116 42.5042L19.4958 42.5188V42.157V41.795L19.3757 41.7786C18.7396 41.6914 18.2743 41.8326 17.6618 42.2985C17.5108 42.4133 17.5023 42.4003 17.5023 42.0584V41.7621H17.1527H16.8032V43.9112ZM39.8858 42.2424C40.3885 42.3734 40.6745 42.7632 40.6745 43.3173V43.4451H39.4317H38.189V43.3816C38.189 42.6168 39.0651 42.0287 39.8858 42.2424ZM22.1963 42.2668C22.8454 42.4358 23.121 42.923 23.1202 43.8998C23.1192 44.9863 22.7581 45.5142 21.9684 45.583C20.9394 45.6728 20.3595 44.5633 20.7024 43.1602C20.8694 42.4765 21.5162 42.0897 22.1963 42.2668Z" fill="var(--fill-0, #3D6A5E)"/>
<g id="Vector_2">
</g>
<path id="Vector_3" fill-rule="evenodd" clip-rule="evenodd" d="M31.872 0.00978674C31.872 0.0152238 31.8918 0.035574 31.9159 0.0551475C31.9455 0.079226 31.9534 0.0803134 31.9401 0.0582544C31.9247 0.0324671 33.0348 0.0259426 37.4564 0.0259426H42.9923L45.7689 2.80274L48.5457 5.57953L45.7689 8.35633L42.992 11.1331H37.452H31.912L32.1444 10.8936L32.3769 10.654L32.1374 10.8866C32.0056 11.0144 31.8978 11.128 31.8978 11.139C31.8978 11.1501 34.3941 11.1589 37.4451 11.1589H42.9923L45.782 8.36922L48.5717 5.57938L45.7818 2.78969L42.992 0H37.432C34.374 0 31.872 0.00434966 31.872 0.00978674ZM37.1154 5.90312L36.8052 6.2267L37.1272 5.91057C37.3043 5.73674 37.4438 5.59103 37.4374 5.58699C37.4309 5.58279 37.286 5.72509 37.1154 5.90312ZM36.39 6.62811C36.1767 6.84171 36.0081 7.01647 36.0153 7.01647C36.0222 7.01647 36.2026 6.84171 36.4159 6.62811C36.629 6.41451 36.7977 6.23975 36.7906 6.23975C36.7834 6.23975 36.6032 6.41451 36.39 6.62811ZM35.4835 7.54076L34.9918 8.03911L35.4902 7.54744C35.7644 7.27699 35.9887 7.05267 35.9887 7.0491C35.9887 7.03061 35.9404 7.07768 35.4835 7.54076ZM34.5775 8.44037C34.3644 8.65397 34.1957 8.82873 34.2028 8.82873C34.21 8.82873 34.3902 8.65397 34.6035 8.44037C34.8168 8.22677 34.9853 8.052 34.9782 8.052C34.9712 8.052 34.7908 8.22677 34.5775 8.44037ZM33.775 9.24304C33.5617 9.45664 33.393 9.6314 33.4002 9.6314C33.4073 9.6314 33.5877 9.45664 33.8008 9.24304C34.0141 9.02944 34.1828 8.85467 34.1757 8.85467C34.1685 8.85467 33.9882 9.02944 33.775 9.24304ZM32.9724 10.0457C32.7591 10.2593 32.5905 10.4341 32.5977 10.4341C32.6047 10.4341 32.785 10.2593 32.9983 10.0457C33.2114 9.8321 33.3801 9.65734 33.373 9.65734C33.3658 9.65734 33.1856 9.8321 32.9724 10.0457ZM32.4661 10.5569L32.3769 10.654L32.474 10.5649C32.5273 10.5158 32.5711 10.4721 32.5711 10.4678C32.5711 10.448 32.5492 10.4667 32.4661 10.5569ZM7.41155 12.7827C7.4507 12.7886 7.51485 12.7886 7.554 12.7827C7.59315 12.7768 7.56115 12.772 7.48285 12.772C7.40456 12.772 7.3724 12.7768 7.41155 12.7827ZM15.9357 15.4051C15.9357 16.8647 15.9388 17.4617 15.9426 16.7319C15.9465 16.0021 15.9465 14.808 15.9426 14.0782C15.9388 13.3483 15.9357 13.9455 15.9357 15.4051ZM6.95204 12.8174C6.88664 12.83 6.9247 12.8323 7.05565 12.8234C7.16952 12.8158 7.26754 12.8053 7.27345 12.7998C7.29147 12.7837 7.0628 12.7961 6.95204 12.8174ZM4.45362 13.5668C4.37517 13.6082 4.32034 13.6426 4.33152 13.6432C4.35902 13.6449 4.60897 13.5174 4.60897 13.5017C4.60897 13.4844 4.61254 13.4829 4.45362 13.5668ZM2.99074 14.4954C2.83415 14.6209 2.68269 14.7517 2.6541 14.7859C2.62567 14.8201 2.65472 14.8013 2.71888 14.7441C2.78288 14.6871 2.9373 14.561 3.06188 14.4639C3.25746 14.3116 3.3109 14.2636 3.28201 14.2664C3.27843 14.2669 3.14732 14.3699 2.99074 14.4954ZM2.35584 15.062L2.13634 15.2886L2.36283 15.0691C2.57332 14.8651 2.60129 14.8355 2.58233 14.8355C2.57845 14.8355 2.47654 14.9374 2.35584 15.062ZM1.99249 15.4503L1.90332 15.5474L2.00041 15.4582C2.09082 15.3751 2.10946 15.3532 2.08958 15.3532C2.08538 15.3532 2.04158 15.397 1.99249 15.4503ZM1.78899 15.6833C1.73104 15.7511 1.68351 15.8166 1.68335 15.8292C1.68335 15.8419 1.70852 15.8186 1.73943 15.7775C1.77034 15.7365 1.82487 15.6708 1.86075 15.6316C1.89664 15.5925 1.91885 15.5605 1.91015 15.5605C1.90146 15.5605 1.84693 15.6158 1.78899 15.6833ZM1.5134 16.0439C1.47348 16.0961 1.45406 16.1307 1.47022 16.1206C1.50331 16.1003 1.61546 15.9488 1.59744 15.9488C1.59108 15.9488 1.55317 15.9915 1.5134 16.0439ZM1.30679 16.3436C1.26703 16.4041 1.25087 16.44 1.27106 16.4232C1.3099 16.3911 1.40901 16.2336 1.39037 16.2336C1.38431 16.2336 1.34672 16.2831 1.30679 16.3436ZM1.18827 16.5248C1.17118 16.5568 1.14042 16.6123 1.11976 16.6479C1.08387 16.7099 1.08403 16.7105 1.12582 16.6608C1.17739 16.5994 1.24994 16.4666 1.23176 16.4666C1.22477 16.4666 1.2052 16.4928 1.18827 16.5248ZM0.742891 17.3611C0.681995 17.4886 0.690539 17.5103 0.754231 17.3898C0.783125 17.335 0.802077 17.2856 0.796485 17.28C0.790892 17.2744 0.766814 17.3109 0.742891 17.3611ZM0.547 17.8158C0.531 17.8616 0.522456 17.9035 0.528048 17.9091C0.533485 17.9146 0.551039 17.8816 0.56704 17.836C0.583041 17.7901 0.591584 17.7482 0.585992 17.7426C0.5804 17.7372 0.562846 17.7701 0.547 17.8158ZM7.30156 18.1237C7.2503 18.14 7.24766 18.1443 7.28867 18.1443C7.3171 18.1443 7.36961 18.135 7.40518 18.1237C7.45644 18.1072 7.45908 18.1028 7.41807 18.1028C7.38964 18.1028 7.33714 18.1122 7.30156 18.1237ZM0.377674 18.2938C0.368043 18.3317 0.365247 18.3677 0.37146 18.3738C0.377519 18.38 0.390257 18.3539 0.399733 18.316C0.409365 18.2781 0.412161 18.242 0.405947 18.2358C0.399889 18.2298 0.38715 18.2559 0.377674 18.2938ZM6.75133 18.3324C6.69805 18.3607 6.65424 18.3896 6.65424 18.3966C6.65424 18.4081 6.85883 18.3126 6.88508 18.2888C6.91491 18.2618 6.83724 18.2872 6.75133 18.3324ZM6.18821 18.7228L6.04591 18.8542L6.18168 18.7455C6.30083 18.6501 6.3639 18.5878 6.33873 18.5905C6.33423 18.5909 6.2665 18.6504 6.18821 18.7228ZM5.88031 19.0421C5.82097 19.1208 5.7767 19.1851 5.78213 19.1851C5.80264 19.1851 6.01204 18.9226 6.00055 18.9111C5.99387 18.9044 5.93981 18.9633 5.88031 19.0421ZM6.91957 21.7677L6.92578 23.8843L6.93262 21.7808L6.93945 19.6773L11.4378 19.6706L15.9361 19.6639L11.4247 19.6575L6.9132 19.6512L6.91957 21.7677ZM15.7792 19.7871L15.7031 19.8713L15.7873 19.7952C15.8336 19.7534 15.8715 19.7155 15.8715 19.711C15.8715 19.6911 15.8501 19.7086 15.7792 19.7871ZM15.5721 19.9942L15.496 20.0784L15.5802 20.0022C15.6265 19.9605 15.6643 19.9227 15.6643 19.9182C15.6643 19.8982 15.643 19.9157 15.5721 19.9942ZM15.3781 20.1883L15.2889 20.2854L15.386 20.1963C15.4763 20.1132 15.4949 20.0913 15.4752 20.0913C15.4709 20.0913 15.4272 20.1351 15.3781 20.1883ZM15.171 20.3956L15.0817 20.4927L15.1788 20.4033C15.2692 20.3204 15.2879 20.2985 15.2681 20.2985C15.2638 20.2985 15.2201 20.3421 15.171 20.3956ZM5.32014 22.1496C5.32014 23.1037 5.3234 23.4902 5.32744 23.0086C5.33132 22.5269 5.33132 21.7463 5.32744 21.2739C5.3234 20.8015 5.32014 21.1956 5.32014 22.1496ZM14.1885 21.3683C13.7116 21.8421 13.3044 22.2524 13.2839 22.2802C13.2634 22.308 13.6566 21.9232 14.1577 21.425C14.9935 20.594 15.082 20.5042 15.0623 20.5063C15.0587 20.5066 14.6655 20.8945 14.1885 21.3683ZM12.75 22.7904L12.6739 22.8746L12.7581 22.7985C12.8365 22.7276 12.8541 22.7063 12.8342 22.7063C12.8297 22.7063 12.7918 22.7441 12.75 22.7904ZM12.3489 23.1918L12.2597 23.2889L12.3568 23.1996C12.4471 23.1166 12.4657 23.0947 12.446 23.0947C12.4416 23.0947 12.398 23.1383 12.3489 23.1918ZM12.1545 23.386L12.0784 23.47L12.1626 23.394C12.2411 23.3232 12.2586 23.3018 12.2386 23.3018C12.2341 23.3018 12.1963 23.3397 12.1545 23.386ZM11.9473 23.593L11.8714 23.6772L11.9554 23.6011C12.0338 23.5303 12.0516 23.5088 12.0315 23.5088C12.027 23.5088 11.9891 23.5468 11.9473 23.593ZM11.7534 23.7872L11.6641 23.8843L11.7612 23.7951C11.8516 23.712 11.8703 23.6901 11.8505 23.6901C11.8462 23.6901 11.8025 23.7338 11.7534 23.7872ZM14.5768 40.635V41.0111H14.9919H15.4069L15.3997 40.6422L15.3924 40.2732L14.9846 40.2661L14.5768 40.2589V40.635ZM15.3795 40.6356V40.9852H14.9912H14.6028V40.6356V40.2861H14.9912H15.3795V40.6356ZM47.7107 40.5125C47.814 40.5174 47.9829 40.5174 48.0862 40.5125C48.1893 40.5076 48.1048 40.5036 47.8984 40.5036C47.6919 40.5036 47.6074 40.5076 47.7107 40.5125ZM6.58962 41.7102C6.55699 41.7242 6.55218 41.7324 6.57657 41.7324C6.59801 41.7324 6.63871 41.7224 6.66729 41.7102C6.69991 41.6962 6.70473 41.688 6.68018 41.688C6.65875 41.688 6.61805 41.6979 6.58962 41.7102ZM7.68993 41.7231C7.80814 41.7686 7.85459 41.768 7.75471 41.7221C7.71199 41.7026 7.65948 41.687 7.6382 41.6875C7.61676 41.6878 7.64006 41.704 7.68993 41.7231ZM21.2085 41.7141C21.1607 41.7277 21.1267 41.744 21.1327 41.7502C21.1389 41.7563 21.1955 41.7451 21.2586 41.7254C21.3873 41.685 21.3438 41.6751 21.2085 41.7141ZM22.4737 41.7231C22.5234 41.7423 22.5816 41.758 22.6031 41.758C22.6243 41.758 22.601 41.7423 22.5513 41.7231C22.5015 41.704 22.4432 41.6883 22.4218 41.6883C22.4005 41.6883 22.4238 41.704 22.4737 41.7231ZM26.5903 41.7231C26.5404 41.7423 26.5171 41.758 26.5384 41.758C26.5599 41.758 26.6181 41.7423 26.668 41.7231C26.7177 41.704 26.741 41.6883 26.7197 41.6883C26.6983 41.6883 26.64 41.704 26.5903 41.7231ZM32.6746 41.7231C32.7928 41.7686 32.8394 41.768 32.7393 41.7221C32.6966 41.7026 32.6441 41.687 32.6228 41.6875C32.6014 41.6878 32.6247 41.704 32.6746 41.7231ZM35.4967 41.7231C35.6149 41.7686 35.6614 41.768 35.5615 41.7221C35.5188 41.7026 35.4663 41.687 35.445 41.6875C35.4236 41.6878 35.4469 41.704 35.4967 41.7231ZM38.9014 41.7102C38.8688 41.7242 38.864 41.7324 38.8884 41.7324C38.9098 41.7324 38.9505 41.7224 38.9791 41.7102C39.0117 41.6962 39.0165 41.688 38.992 41.688C38.9705 41.688 38.9298 41.6979 38.9014 41.7102ZM45.2058 41.7231C45.324 41.7686 45.3705 41.768 45.2706 41.7221C45.2278 41.7026 45.1753 41.687 45.1541 41.6875C45.1326 41.6878 45.1559 41.704 45.2058 41.7231ZM40.2218 41.7361C40.2503 41.7482 40.291 41.7583 40.3124 41.7583C40.337 41.7583 40.3321 41.7501 40.2995 41.7361C40.2709 41.7238 40.2302 41.7137 40.2088 41.7137C40.1844 41.7137 40.1892 41.722 40.2218 41.7361ZM44.0278 41.7361C43.9952 41.7501 43.9904 41.7583 44.0148 41.7583C44.0362 41.7583 44.0769 41.7482 44.1055 41.7361C44.1381 41.722 44.1429 41.7137 44.1184 41.7137C44.0969 41.7137 44.0562 41.7238 44.0278 41.7361ZM4.97776 43.9044L4.98397 46.0727L4.9908 43.9173L4.99764 41.7619H5.33396H5.67044V41.9949C5.67044 42.1231 5.67914 42.2281 5.68986 42.2281C5.70058 42.2281 5.70555 42.1173 5.70104 41.982L5.69281 41.7361H5.3321H4.97139L4.97776 43.9044ZM9.63827 41.7554C9.74856 41.7602 9.92923 41.7602 10.0395 41.7554C10.1498 41.7504 10.0596 41.7465 9.83882 41.7465C9.61823 41.7465 9.52782 41.7504 9.63827 41.7554ZM13.0829 41.7554C13.194 41.7602 13.3687 41.7602 13.4713 41.7552C13.5738 41.7504 13.4831 41.7464 13.2695 41.7464C13.0559 41.7465 12.9718 41.7504 13.0829 41.7554ZM14.6349 43.9044L14.6413 46.0727L14.6481 43.9173L14.6548 41.7619H14.9912H15.3275L15.3342 43.9173L15.341 46.0727L15.3474 43.9044L15.3536 41.7361H14.9912H14.6287L14.6349 43.9044ZM17.1466 41.7554L17.5026 41.7635V42.0589C17.5026 42.2214 17.5113 42.3598 17.522 42.3665C17.5326 42.373 17.5379 42.234 17.5334 42.0574L17.5255 41.7361L17.1581 41.7417L16.7905 41.7475L17.1466 41.7554ZM18.9071 41.7549C18.9605 41.7605 19.048 41.7605 19.1013 41.7549C19.1547 41.7493 19.1111 41.7448 19.0042 41.7448C18.8975 41.7448 18.8538 41.7493 18.9071 41.7549ZM25.1857 41.7552C25.289 41.7602 25.4578 41.7602 25.5612 41.7552C25.6643 41.7504 25.5798 41.7464 25.3733 41.7464C25.1669 41.7464 25.0824 41.7504 25.1857 41.7552ZM30.2085 41.7552C30.3118 41.7602 30.4806 41.7602 30.5839 41.7552C30.6872 41.7504 30.6027 41.7464 30.3963 41.7464C30.1898 41.7464 30.1053 41.7504 30.2085 41.7552ZM42.4936 43.9044L42.4998 46.0727L42.5067 43.9181L42.5135 41.7635L42.8692 41.7554L43.2251 41.7475L42.8562 41.7417L42.4872 41.7361L42.4936 43.9044ZM47.168 41.7552C47.2431 41.7605 47.3596 41.7603 47.4268 41.7551C47.494 41.7498 47.4323 41.7454 47.2901 41.7456C47.1476 41.7456 47.0926 41.7499 47.168 41.7552ZM48.9916 41.7555L49.735 41.7627L49.7433 42.0665L49.7515 42.3704L49.7569 42.0532L49.7625 41.7361L49.0052 41.7422L48.2479 41.7482L48.9916 41.7555ZM27.9884 41.8188C27.9884 41.8239 28.0611 41.8911 28.1501 41.9682C28.2391 42.0453 28.283 42.0759 28.2472 42.0361C28.1828 41.9642 27.9884 41.8009 27.9884 41.8188ZM34.0404 41.8545C33.9436 41.907 33.9495 41.9287 34.0469 41.8784C34.0896 41.8564 34.1246 41.8327 34.1246 41.8261C34.1246 41.8093 34.1218 41.8104 34.0404 41.8545ZM45.5294 41.8776C45.6077 41.9461 45.6978 42.0049 45.6978 41.9873C45.6978 41.9822 45.6423 41.9399 45.5747 41.8938C45.4817 41.8301 45.4707 41.8262 45.5294 41.8776ZM32.9595 41.8464C32.9595 41.8525 33.0205 41.9084 33.0954 41.9708C33.1701 42.0331 33.2149 42.0636 33.195 42.0386C33.1547 41.9882 32.9595 41.8287 32.9595 41.8464ZM38.4677 41.8932C38.4143 41.9213 38.3706 41.9502 38.3706 41.9573C38.3706 41.9643 38.4172 41.9463 38.4742 41.9172C38.5311 41.8882 38.5777 41.8588 38.5777 41.852C38.5777 41.8351 38.5775 41.8352 38.4677 41.8932ZM43.6977 41.8932C43.6443 41.9213 43.6006 41.9502 43.6006 41.9573C43.6006 41.9643 43.6472 41.9463 43.7041 41.9172C43.7611 41.8882 43.8077 41.8588 43.8077 41.852C43.8077 41.8351 43.8075 41.8352 43.6977 41.8932ZM8.15705 42.008C8.22059 42.0791 8.29344 42.1666 8.31892 42.2021C8.36381 42.2646 8.36381 42.264 8.3197 42.1824C8.29453 42.1361 8.22167 42.0487 8.15767 41.9882L8.04132 41.8784L8.15705 42.008ZM18.2017 41.9303C18.1661 41.9506 18.1485 41.9673 18.1628 41.9673C18.177 41.9673 18.2178 41.9506 18.2534 41.9303C18.289 41.9099 18.3065 41.8932 18.2922 41.8932C18.2779 41.8932 18.2372 41.9099 18.2017 41.9303ZM26.1437 41.9322C26.0469 41.9847 26.0528 42.0064 26.1501 41.9561C26.1928 41.934 26.2277 41.9104 26.2277 41.9037C26.2277 41.887 26.2249 41.888 26.1437 41.9322ZM10.2938 41.9691C10.3035 42.0047 10.3219 42.0513 10.3351 42.0726C10.3518 42.0996 10.3539 42.0917 10.3418 42.0468C10.3323 42.0112 10.3137 41.9645 10.3005 41.9432C10.2839 41.9162 10.2819 41.9241 10.2938 41.9691ZM20.5789 42.0796C20.5123 42.1399 20.4208 42.2357 20.3756 42.2927C20.2999 42.3879 20.3019 42.387 20.4015 42.2798C20.461 42.2157 20.5584 42.1201 20.6179 42.0673C20.6774 42.0145 20.7201 41.971 20.713 41.9707C20.7058 41.9704 20.6456 42.0195 20.5789 42.0796ZM23.095 42.0316C23.1589 42.1026 23.3021 42.2157 23.3021 42.195C23.3021 42.1891 23.2409 42.1336 23.1662 42.0718C23.0888 42.008 23.0582 41.9906 23.095 42.0316ZM40.8432 42.0985C40.9133 42.1697 40.9765 42.2279 40.9837 42.2279C40.9908 42.2279 40.9392 42.1697 40.869 42.0985C40.799 42.0274 40.7357 41.9691 40.7286 41.9691C40.7214 41.9691 40.773 42.0274 40.8432 42.0985ZM33.7155 42.0578C33.5953 42.143 33.5784 42.1672 33.6798 42.1091C33.7272 42.0819 33.7781 42.0451 33.793 42.0274C33.8314 41.9816 33.8134 41.9887 33.7155 42.0578ZM9.56898 42.0726C9.57846 42.1083 9.59694 42.1548 9.61015 42.1762C9.62693 42.2032 9.62895 42.1953 9.61683 42.1503C9.60735 42.1147 9.58887 42.0681 9.57566 42.0468C9.55889 42.0198 9.55687 42.0277 9.56898 42.0726ZM5.83868 42.1138L5.76101 42.1806L5.8452 42.1248C5.8915 42.0942 5.9294 42.064 5.9294 42.058C5.9294 42.0386 5.91837 42.0452 5.83868 42.1138ZM25.8782 42.1147C25.8318 42.1543 25.8221 42.1701 25.8544 42.154C25.902 42.1304 25.991 42.0453 25.9655 42.0477C25.9602 42.0482 25.9209 42.0783 25.8782 42.1147ZM30.9011 42.1147C30.8545 42.1543 30.8451 42.1701 30.8774 42.154C30.9248 42.1304 31.0138 42.0453 30.9884 42.0477C30.9832 42.0482 30.9439 42.0783 30.9011 42.1147ZM38.0838 42.1956C37.9669 42.3193 37.8326 42.4818 37.9075 42.4092C37.9925 42.3269 38.2222 42.0726 38.2115 42.0726C38.2055 42.0726 38.148 42.128 38.0838 42.1956ZM43.3288 42.1397L43.2511 42.2063L43.3351 42.1507C43.3814 42.1201 43.4193 42.09 43.4193 42.0838C43.4193 42.0645 43.4083 42.0712 43.3288 42.1397ZM45.8842 42.2921C45.9151 42.3559 45.9449 42.4036 45.9504 42.3982C45.962 42.3865 45.8575 42.1762 45.8399 42.1762C45.8332 42.1762 45.8533 42.2284 45.8842 42.2921ZM17.658 42.2829C17.5677 42.362 17.5677 42.3622 17.6507 42.3069C17.6965 42.2764 17.7409 42.2404 17.7493 42.2268C17.7743 42.1863 17.7535 42.199 17.658 42.2829ZM36.131 42.2798C36.1532 42.3225 36.177 42.3575 36.1841 42.3575C36.1913 42.3575 36.179 42.3225 36.1569 42.2798C36.1349 42.2371 36.111 42.2021 36.1038 42.2021C36.0967 42.2021 36.1089 42.2371 36.131 42.2798ZM39.2898 42.215C39.3039 42.2199 39.4496 42.2286 39.6134 42.2343C39.7771 42.2402 39.8762 42.2366 39.8335 42.2265C39.7575 42.2087 39.2387 42.1976 39.2898 42.215ZM21.7681 42.2469C21.8287 42.2523 21.9276 42.2523 21.9882 42.2469C22.0486 42.2414 21.9991 42.2371 21.8781 42.2371C21.7571 42.2371 21.7075 42.2414 21.7681 42.2469ZM41.0752 42.3965C41.1918 42.5902 41.2206 42.6146 41.1275 42.4411C41.0874 42.3662 41.039 42.2919 41.02 42.2761C41.0011 42.2604 41.0259 42.3145 41.0752 42.3965ZM22.4477 42.3671C22.4477 42.3732 22.4892 42.4027 22.5398 42.4325C22.5906 42.4625 22.6248 42.4752 22.616 42.4608C22.5986 42.4328 22.4477 42.3488 22.4477 42.3671ZM7.4698 42.4265C7.51252 42.449 7.57062 42.4864 7.5989 42.5096C7.64736 42.5493 7.64814 42.549 7.61365 42.5046C7.57715 42.4575 7.45178 42.3823 7.41295 42.3844C7.40145 42.385 7.42708 42.4039 7.4698 42.4265ZM12.6296 42.4229C12.6217 42.451 12.6072 42.4973 12.5976 42.5257C12.588 42.5542 12.599 42.5448 12.6221 42.5048C12.6453 42.4647 12.6597 42.4184 12.6541 42.4019C12.6487 42.3853 12.6377 42.3948 12.6296 42.4229ZM32.4415 42.3938C32.4415 42.399 32.4707 42.4224 32.5063 42.4457C32.5419 42.469 32.5711 42.478 32.5711 42.4658C32.5711 42.4535 32.5419 42.4302 32.5063 42.4139C32.4707 42.3977 32.4415 42.3887 32.4415 42.3938ZM35.2508 42.4134C35.2792 42.4291 35.3423 42.4782 35.3908 42.5226C35.4717 42.5967 35.475 42.5978 35.4296 42.5344C35.3811 42.4667 35.2642 42.3825 35.2208 42.3841C35.2089 42.3845 35.2222 42.3977 35.2508 42.4134ZM20.2341 42.4869C20.212 42.5296 20.1997 42.5646 20.2069 42.5646C20.214 42.5646 20.2378 42.5296 20.26 42.4869C20.2821 42.4442 20.2943 42.4092 20.2872 42.4092C20.28 42.4092 20.2561 42.4442 20.2341 42.4869ZM38.6005 42.5312C38.5289 42.5981 38.4582 42.6769 38.4436 42.7059C38.429 42.735 38.4537 42.7156 38.4985 42.6627C38.5432 42.6099 38.6227 42.5312 38.6752 42.488C38.7277 42.4446 38.7618 42.4092 38.7509 42.4092C38.7399 42.4092 38.6723 42.4641 38.6005 42.5312ZM40.3775 42.5444C40.4466 42.6196 40.5086 42.6868 40.5155 42.694C40.5223 42.7011 40.5179 42.6895 40.506 42.6682C40.4592 42.5855 40.3303 42.4377 40.2921 42.4229C40.27 42.4145 40.3084 42.469 40.3775 42.5444ZM18.726 42.454C18.7792 42.4596 18.8667 42.4596 18.9201 42.454C18.9734 42.4484 18.9298 42.4439 18.8231 42.4439C18.7162 42.4439 18.6725 42.4484 18.726 42.454ZM26.2731 42.4759C26.1727 42.5302 26.1841 42.549 26.286 42.4972C26.3837 42.4476 26.4009 42.4347 26.368 42.4361C26.355 42.4367 26.3122 42.4546 26.2731 42.4759ZM45.1329 42.5293C45.1844 42.5883 45.2345 42.662 45.2443 42.693C45.2543 42.7243 45.2679 42.7441 45.2748 42.7372C45.2974 42.7145 45.2118 42.5789 45.1249 42.4998C45.0399 42.4227 45.04 42.4229 45.1329 42.5293ZM13.3111 42.5416C13.2952 42.5872 13.2867 42.6293 13.2921 42.6348C13.2977 42.6404 13.3153 42.6074 13.3313 42.5616C13.3471 42.5159 13.3557 42.474 13.3502 42.4684C13.3446 42.4628 13.3271 42.4957 13.3111 42.5416ZM27.6515 42.5259C27.7545 42.6502 27.7632 42.6581 27.735 42.6031C27.7203 42.5745 27.6811 42.5279 27.6477 42.4998C27.5892 42.4502 27.5893 42.4512 27.6515 42.5259ZM36.2261 42.4869C36.2273 42.5542 36.2682 42.6646 36.2691 42.6034C36.2694 42.575 36.2598 42.5284 36.2475 42.4998C36.234 42.4681 36.2256 42.4631 36.2261 42.4869ZM8.46992 42.5257C8.46867 42.54 8.4839 42.6099 8.50363 42.6811C8.52351 42.7522 8.53982 42.7872 8.53998 42.7588C8.54044 42.7036 8.47364 42.4819 8.46992 42.5257ZM9.7641 42.5517C9.76456 42.5658 9.7874 42.6241 9.81489 42.6811C9.84223 42.7381 9.85746 42.7555 9.8486 42.7199C9.83027 42.6466 9.76285 42.5121 9.7641 42.5517ZM6.00055 42.6053C5.90377 42.6578 5.90967 42.6797 6.00707 42.6293C6.04979 42.6071 6.08475 42.5837 6.08475 42.5768C6.08475 42.5602 6.08195 42.5612 6.00055 42.6053ZM7.70639 42.6551C7.76636 42.7574 7.7676 42.7589 7.7676 42.7271C7.7676 42.712 7.74368 42.6722 7.71432 42.6387L7.66103 42.5775L7.70639 42.6551ZM18.0139 42.6439C17.9606 42.6722 17.9168 42.7011 17.9168 42.7081C17.9168 42.7196 18.1214 42.6241 18.1476 42.6003C18.1774 42.5733 18.0998 42.5987 18.0139 42.6439ZM43.4675 42.6438L43.4064 42.6971L43.4841 42.6516C43.5863 42.5918 43.5879 42.5905 43.556 42.5905C43.541 42.5905 43.5012 42.6144 43.4675 42.6438ZM30.8511 42.7465C30.7952 42.7889 30.7602 42.8232 30.7734 42.8228C30.798 42.8221 30.9895 42.6696 30.9658 42.6696C30.9586 42.6696 30.907 42.7042 30.8511 42.7465ZM32.7421 42.7588C32.7634 42.854 32.7783 42.8746 32.7777 42.8083C32.7776 42.7811 32.7656 42.7412 32.7511 42.7199C32.7319 42.6915 32.7296 42.702 32.7421 42.7588ZM20.0686 42.8005C20.0528 42.8462 20.0442 42.8882 20.0497 42.8937C20.0552 42.8993 20.0728 42.8664 20.0888 42.8206C20.1046 42.7749 20.1132 42.7328 20.1078 42.7274C20.1022 42.7218 20.0846 42.7547 20.0686 42.8005ZM41.2488 42.7459C41.2502 42.8131 41.2909 42.9236 41.2919 42.8624C41.2923 42.8338 41.2825 42.7872 41.2704 42.7588C41.2568 42.7271 41.2484 42.7221 41.2488 42.7459ZM22.9058 42.8361C22.9296 42.8858 22.9535 42.9219 22.9591 42.9161C22.9709 42.9043 22.8923 42.7459 22.8746 42.7459C22.8681 42.7459 22.8822 42.7864 22.9058 42.8361ZM40.5745 42.8499C40.6136 42.9658 40.6357 42.9884 40.6119 42.8882C40.6018 42.8454 40.5824 42.7991 40.5687 42.7852C40.5552 42.7713 40.5577 42.8004 40.5745 42.8499ZM5.6824 42.8299C5.67557 42.8478 5.67293 43.5847 5.67665 44.4675L5.68333 46.0727L5.69638 44.4352C5.70353 43.5345 5.70601 42.7976 5.70197 42.7976C5.69794 42.7976 5.68908 42.8122 5.6824 42.8299ZM7.8111 42.9658C7.81933 43.0371 7.83036 43.1002 7.83564 43.1061C7.85382 43.1265 7.84015 42.9658 7.81809 42.9012C7.80333 42.8575 7.801 42.8785 7.8111 42.9658ZM28.5908 42.9529C28.5908 43.0169 28.596 43.0432 28.6022 43.0112C28.6082 42.9792 28.6082 42.9267 28.6022 42.8947C28.596 42.8627 28.5908 42.8888 28.5908 42.9529ZM20.7419 43.0073C20.726 43.0528 20.7139 43.103 20.7148 43.1187C20.7159 43.1342 20.7333 43.1016 20.7538 43.0458C20.7742 42.9901 20.7865 42.94 20.7809 42.9344C20.7753 42.9289 20.7579 42.9616 20.7419 43.0073ZM38.2712 42.9929C38.2547 43.0292 38.2417 43.073 38.2421 43.0901C38.2428 43.1072 38.2603 43.0816 38.2814 43.0331C38.3257 42.9312 38.3162 42.8941 38.2712 42.9929ZM46.0982 44.5193C46.0982 45.3737 46.1015 45.7195 46.1055 45.2878C46.1094 44.8559 46.1094 44.1569 46.1055 43.7343C46.1015 43.3116 46.0982 43.6649 46.0982 44.5193ZM17.5147 44.5323C17.5147 45.3796 17.518 45.7262 17.522 45.3025C17.5259 44.8789 17.5259 44.1856 17.522 43.762C17.518 43.3383 17.5147 43.6849 17.5147 44.5323ZM36.3312 43.0823C36.3312 43.1322 36.3365 43.1526 36.343 43.1277C36.3496 43.1028 36.3496 43.062 36.343 43.0371C36.3365 43.0121 36.3312 43.0325 36.3312 43.0823ZM37.5569 43.0972C37.5474 43.1351 37.5446 43.1712 37.5507 43.1773C37.5567 43.1833 37.5695 43.1574 37.5791 43.1193C37.5886 43.0814 37.5914 43.0454 37.5853 43.0393C37.5793 43.0332 37.5664 43.0592 37.5569 43.0972ZM28.6219 44.5712C28.6219 45.397 28.6252 45.7386 28.6292 45.3303C28.6331 44.9219 28.6331 44.2462 28.6292 43.8286C28.6252 43.411 28.6219 43.7452 28.6219 44.5712ZM23.7733 43.1471C23.7733 43.1755 23.7826 43.228 23.7941 43.2636C23.8104 43.3149 23.8148 43.3175 23.8148 43.2765C23.8148 43.2481 23.8054 43.1957 23.7941 43.16C23.7776 43.1087 23.7733 43.1061 23.7733 43.1471ZM45.3677 43.1988C45.368 43.2559 45.3733 43.276 45.3795 43.2439C45.3857 43.2117 45.3854 43.1651 45.379 43.1403C45.3725 43.1156 45.3673 43.142 45.3677 43.1988ZM8.58239 44.61C8.58239 45.4145 8.58565 45.7437 8.58969 45.3414C8.59357 44.939 8.59357 44.2808 8.58969 43.8785C8.58565 43.4763 8.58239 43.8053 8.58239 44.61ZM23.0469 43.1731C23.047 43.1872 23.0637 43.2804 23.0837 43.3801L23.1202 43.5614L23.1076 43.4149C23.0972 43.2936 23.0456 43.0879 23.0469 43.1731ZM27.8969 44.61C27.8969 45.4145 27.9002 45.7437 27.9042 45.3414C27.9083 44.939 27.9083 44.2808 27.9042 43.8785C27.9002 43.4763 27.8969 43.8053 27.8969 44.61ZM0.768057 43.2313C0.757182 43.2489 1.87147 43.2486 3.27548 43.2307C3.57452 43.2268 3.13552 43.2211 2.29976 43.2178C1.46385 43.2145 0.774736 43.2206 0.768057 43.2313ZM7.85133 43.419C7.85133 43.4688 7.85661 43.4892 7.86314 43.4643C7.86966 43.4393 7.86966 43.3986 7.86314 43.3736C7.85661 43.3488 7.85133 43.3691 7.85133 43.419ZM45.399 44.7265C45.399 45.4669 45.4025 45.7661 45.4065 45.3914C45.4105 45.0165 45.4105 44.4107 45.4065 44.045C45.4023 43.6793 45.399 43.986 45.399 44.7265ZM12.9227 43.4996C12.9069 43.5453 12.8983 43.5872 12.9038 43.5928C12.9094 43.5984 12.9269 43.5655 12.9429 43.5196C12.9588 43.474 12.9673 43.4319 12.9619 43.4264C12.9563 43.4208 12.9387 43.4538 12.9227 43.4996ZM38.8043 43.4384C39.1497 43.4424 39.7146 43.4424 40.06 43.4384C40.4053 43.4343 40.1227 43.4309 39.4321 43.4309C38.7414 43.4309 38.459 43.4343 38.8043 43.4384ZM10.8764 43.4707C10.8764 43.5081 10.9494 43.6563 10.9512 43.6226C10.9517 43.6136 10.9351 43.567 10.9144 43.519C10.8936 43.4712 10.8765 43.4494 10.8764 43.4707ZM19.8949 43.9109C19.8949 44.1315 19.899 44.2219 19.9038 44.1115C19.9086 44.0012 19.9086 43.8205 19.9038 43.7102C19.899 43.5999 19.8949 43.6902 19.8949 43.9109ZM10.1764 43.5779C10.1759 43.5869 10.1925 43.6335 10.2132 43.6813C10.234 43.7293 10.2511 43.7509 10.2513 43.7297C10.2513 43.6924 10.1782 43.5442 10.1764 43.5779ZM23.8524 43.6649C23.8527 43.7219 23.8579 43.7421 23.8642 43.7099C23.8704 43.6778 23.8701 43.6312 23.8637 43.6063C23.8572 43.5816 23.852 43.608 23.8524 43.6649ZM20.6192 43.8979C20.6192 44.0546 20.6235 44.1154 20.6286 44.0329C20.6338 43.9506 20.6338 43.8224 20.6285 43.7481C20.6233 43.6739 20.6192 43.7413 20.6192 43.8979ZM12.0166 44.0174C12.0006 44.063 11.9921 44.1051 11.9976 44.1106C12.0032 44.1162 12.0208 44.0832 12.0366 44.0374C12.0526 43.9917 12.0612 43.9498 12.0556 43.9442C12.0502 43.9386 12.0326 43.9715 12.0166 44.0174ZM12.7157 44.0174C12.6997 44.063 12.6911 44.1051 12.6967 44.1106C12.7023 44.1162 12.7198 44.0832 12.7357 44.0374C12.7517 43.9917 12.7602 43.9498 12.7546 43.9442C12.7492 43.9386 12.7317 43.9715 12.7157 44.0174ZM11.0848 43.9886C11.0844 44.0099 11.0999 44.0624 11.1195 44.1051C11.1653 44.205 11.1659 44.1586 11.1204 44.0403C11.1013 43.9905 11.0852 43.9672 11.0848 43.9886ZM10.3715 44.0663C10.3811 44.1019 10.3996 44.1485 10.4128 44.1698C10.4294 44.1968 10.4316 44.1889 10.4195 44.144C10.41 44.1084 10.3914 44.0616 10.3782 44.0403C10.3616 44.0133 10.3595 44.0212 10.3715 44.0663ZM23.8524 44.1309C23.8527 44.1879 23.8579 44.2081 23.8642 44.176C23.8704 44.1438 23.8701 44.0972 23.8637 44.0723C23.8572 44.0476 23.852 44.0741 23.8524 44.1309ZM23.1016 44.3381C23.1019 44.395 23.1072 44.4153 23.1134 44.383C23.1194 44.3509 23.1193 44.3043 23.1128 44.2796C23.1062 44.2547 23.1013 44.2811 23.1016 44.3381ZM38.2167 44.4306C38.2149 44.4784 38.2946 44.7204 38.3077 44.7074C38.3125 44.7024 38.2945 44.6291 38.2673 44.5441C38.2403 44.4593 38.2174 44.4082 38.2167 44.4306ZM11.2778 44.5064C11.2873 44.542 11.3057 44.5886 11.3189 44.61C11.3357 44.6369 11.3377 44.6291 11.3256 44.5841C11.3161 44.5485 11.2977 44.5019 11.2845 44.4804C11.2677 44.4536 11.2657 44.4613 11.2778 44.5064ZM23.7567 44.702C23.7469 44.754 23.7441 44.8017 23.7504 44.8079C23.7568 44.8143 23.7699 44.777 23.7797 44.725C23.7894 44.6731 23.7922 44.6254 23.7859 44.619C23.7795 44.6126 23.7664 44.6501 23.7567 44.702ZM37.5457 44.6877C37.5457 44.709 37.5558 44.7498 37.5679 44.7782C37.5821 44.8109 37.5903 44.8157 37.5903 44.7911C37.5903 44.7698 37.5802 44.729 37.5679 44.7006C37.554 44.6679 37.5457 44.6631 37.5457 44.6877ZM47.542 44.8688C47.542 44.9187 47.5473 44.939 47.5538 44.9142C47.5604 44.8893 47.5604 44.8485 47.5538 44.8236C47.5473 44.7986 47.542 44.8189 47.542 44.8688ZM20.0288 44.8947C20.0383 44.9303 20.057 44.9769 20.0702 44.9984C20.0868 45.0252 20.0888 45.0175 20.0768 44.9724C20.0672 44.9368 20.0487 44.8902 20.0355 44.8688C20.0189 44.8419 20.0167 44.8497 20.0288 44.8947ZM12.3152 45.005C12.2549 45.1627 12.2648 45.1927 12.3267 45.0401C12.3549 44.9707 12.3734 44.9092 12.3678 44.9038C12.3622 44.8982 12.3386 44.9437 12.3152 45.005ZM22.8727 45.0283C22.8496 45.0732 22.7769 45.1694 22.7113 45.2419L22.592 45.3737L22.7101 45.2621C22.8154 45.1627 22.9653 44.9465 22.929 44.9465C22.9214 44.9465 22.896 44.9833 22.8727 45.0283ZM37.7104 45.1278C37.7464 45.1989 37.7818 45.2572 37.789 45.2572C37.796 45.2572 37.7724 45.1989 37.7363 45.1278C37.7001 45.0566 37.6649 44.9984 37.6577 44.9984C37.6506 44.9984 37.6743 45.0566 37.7104 45.1278ZM48.2891 45.0319C48.2867 45.0796 48.3553 45.2314 48.379 45.2314C48.3863 45.2314 48.3786 45.2057 48.3618 45.1745C48.3452 45.1435 48.3225 45.088 48.3113 45.0516C48.2979 45.0075 48.2905 45.001 48.2891 45.0319ZM41.2762 45.4021C41.2706 45.7785 41.2683 45.7942 41.2122 45.8229C41.1549 45.8524 41.155 45.8528 41.2185 45.8368C41.2543 45.8277 41.2866 45.8177 41.2905 45.8142C41.2945 45.811 41.294 45.6289 41.2897 45.4097L41.2819 45.0113L41.2762 45.4021ZM10.7858 45.1018C10.7953 45.1376 10.8139 45.184 10.8271 45.2054C10.8437 45.2325 10.8458 45.2245 10.8338 45.1795C10.8242 45.1439 10.8057 45.0973 10.7925 45.076C10.7759 45.049 10.7737 45.0569 10.7858 45.1018ZM11.4967 45.0583C11.4951 45.1004 11.5503 45.1795 11.581 45.1792C11.6026 45.1789 11.6037 45.1728 11.5843 45.1598C11.5689 45.1492 11.543 45.1174 11.5268 45.0889C11.5106 45.0605 11.4971 45.0467 11.4967 45.0583ZM41.1177 45.117C41.0693 45.1514 41.0424 45.1795 41.0579 45.1795C41.0736 45.1795 41.119 45.1508 41.1589 45.1156C41.2504 45.0352 41.2321 45.0358 41.1177 45.117ZM21.0367 45.2572C21.0923 45.3142 21.1436 45.3608 21.1507 45.3608C21.1579 45.3608 21.1181 45.3142 21.0625 45.2572C21.0069 45.2003 20.9556 45.1537 20.9485 45.1537C20.9413 45.1537 20.9811 45.2003 21.0367 45.2572ZM38.7552 45.2766C38.8048 45.3229 38.8576 45.3608 38.8727 45.3608C38.8876 45.3608 38.8711 45.3415 38.8359 45.3179C38.8008 45.2943 38.7479 45.2564 38.7186 45.2337C38.6894 45.211 38.7058 45.2303 38.7552 45.2766ZM47.5922 45.2183C47.5917 45.2469 47.6014 45.2935 47.6136 45.3219C47.6421 45.388 47.6421 45.3199 47.6136 45.2314C47.597 45.1793 47.5928 45.1767 47.5922 45.2183ZM40.6879 45.3367C40.6309 45.3642 40.6135 45.3793 40.649 45.3704C40.7224 45.3522 40.8569 45.2847 40.8173 45.2861C40.803 45.2865 40.7447 45.3094 40.6879 45.3367ZM23.4279 45.4319C23.3535 45.5219 23.3218 45.5679 23.3347 45.5679C23.3419 45.5679 23.3789 45.5272 23.4169 45.4773C23.4874 45.3849 23.496 45.3499 23.4279 45.4319ZM49.7467 45.7103C49.7468 45.8955 49.7509 45.9677 49.7559 45.8711C49.761 45.7743 49.7608 45.6229 49.7559 45.5345C49.7507 45.4461 49.7467 45.5251 49.7467 45.7103ZM21.3738 45.4877C21.3878 45.5014 21.4341 45.5208 21.4768 45.5309C21.577 45.5547 21.5545 45.5326 21.4386 45.4934C21.389 45.4767 21.36 45.474 21.3738 45.4877ZM39.3869 45.534C39.4117 45.5405 39.4526 45.5405 39.4774 45.534C39.5023 45.5275 39.4819 45.5222 39.4321 45.5222C39.3822 45.5222 39.3619 45.5275 39.3869 45.534ZM39.9823 45.534C40.0072 45.5405 40.048 45.5405 40.0729 45.534C40.0979 45.5275 40.0774 45.5222 40.0277 45.5222C39.9778 45.5222 39.9575 45.5275 39.9823 45.534ZM48.9541 45.5351C49.015 45.5405 49.1082 45.5405 49.1613 45.5349C49.2143 45.5293 49.1644 45.525 49.0506 45.525C48.9367 45.5251 48.8932 45.5296 48.9541 45.5351ZM39.6334 45.561C39.6943 45.5665 39.7875 45.5665 39.8406 45.5609C39.8936 45.5553 39.8437 45.5508 39.7299 45.5509C39.616 45.5509 39.5725 45.5556 39.6334 45.561ZM10.9791 45.5714C10.9784 45.5804 10.9951 45.627 11.0159 45.675C11.0367 45.7229 11.0538 45.7446 11.0538 45.7232C11.0539 45.6859 10.9809 45.5377 10.9791 45.5714ZM21.7945 45.5867C21.8409 45.5924 21.9108 45.5922 21.9498 45.5863C21.9887 45.5804 21.9506 45.5758 21.8652 45.5759C21.7797 45.5761 21.7479 45.5809 21.7945 45.5867ZM23.1586 45.7175C23.1009 45.7704 23.0194 45.8406 22.9773 45.8733C22.9352 45.9059 22.9532 45.8984 23.0174 45.8565C23.1191 45.7898 23.3058 45.6185 23.2746 45.6204C23.2684 45.6207 23.2162 45.6643 23.1586 45.7175ZM38.3447 45.8125C38.3447 45.8197 38.3796 45.8436 38.4223 45.8657C38.4651 45.8877 38.5 45.9 38.5 45.8928C38.5 45.8857 38.4651 45.8619 38.4223 45.8397C38.3796 45.8177 38.3447 45.8054 38.3447 45.8125ZM21.072 46.0479C21.12 46.0687 21.1723 46.0853 21.1885 46.0847C21.2046 46.0842 21.1787 46.0667 21.1309 46.0459C21.0829 46.025 21.0305 46.0086 21.0144 46.009C20.998 46.0097 21.0241 46.0271 21.072 46.0479ZM38.7978 46.0339C38.8262 46.0462 38.8671 46.0563 38.8884 46.0563C38.9129 46.0563 38.9081 46.048 38.8755 46.0339C38.847 46.0218 38.8062 46.0117 38.7849 46.0117C38.7604 46.0117 38.7652 46.0199 38.7978 46.0339ZM40.5843 46.0339C40.5182 46.0623 40.5863 46.0623 40.6748 46.0339C40.7269 46.0173 40.7295 46.0131 40.6879 46.0125C40.6593 46.012 40.6127 46.0218 40.5843 46.0339ZM48.2091 46.0295C48.2305 46.0427 48.2771 46.0614 48.3127 46.0709C48.3577 46.083 48.3655 46.0808 48.3386 46.0642C48.3172 46.051 48.2706 46.0325 48.235 46.0229C48.19 46.0109 48.1822 46.0129 48.2091 46.0295ZM48.811 46.156C48.8502 46.162 48.9143 46.162 48.9535 46.156C48.9926 46.1501 48.9606 46.1453 48.8823 46.1453C48.8039 46.1453 48.7719 46.1501 48.811 46.156Z" fill="var(--fill-0, #5677AA)"/>
<path id="Vector_4" fill-rule="evenodd" clip-rule="evenodd" d="M43.8591 0.862513C43.8591 0.867018 43.897 0.904922 43.9433 0.94671L44.0275 1.02267L43.9514 0.938632C43.8805 0.860183 43.8591 0.842474 43.8591 0.862513ZM44.2475 1.25088C44.2475 1.25538 44.2854 1.29329 44.3317 1.33507L44.4158 1.41104L44.3397 1.327C44.2689 1.24855 44.2475 1.23084 44.2475 1.25088ZM44.6618 1.66518C44.6618 1.66969 44.6997 1.70744 44.746 1.74922L44.83 1.82534L44.754 1.74115C44.6832 1.6627 44.6618 1.64514 44.6618 1.66518ZM46.8625 3.8658C46.8625 3.87031 46.9003 3.90821 46.9466 3.95L47.0308 4.02612L46.9547 3.94192C46.8838 3.86347 46.8625 3.84592 46.8625 3.8658ZM47.2767 4.28011C47.2767 4.28461 47.3146 4.32252 47.3609 4.3643L47.4451 4.44027L47.369 4.35623C47.2981 4.27778 47.2767 4.26007 47.2767 4.28011ZM47.665 4.66847C47.665 4.67297 47.703 4.71088 47.7492 4.75267L47.8334 4.82863L47.7573 4.74459C47.6865 4.66614 47.665 4.64843 47.665 4.66847ZM48.0794 5.08278C48.0794 5.08728 48.1173 5.12503 48.1635 5.16682L48.2476 5.24294L48.1716 5.15874C48.1008 5.08029 48.0794 5.06274 48.0794 5.08278ZM7.61846 12.7562C7.64332 12.7627 7.68417 12.7627 7.70903 12.7562C7.73388 12.7497 7.71353 12.7444 7.66367 12.7444C7.6138 12.7444 7.59345 12.7497 7.61846 12.7562ZM23.5413 12.7562C23.5662 12.7627 23.6071 12.7627 23.6319 12.7562C23.6568 12.7497 23.6364 12.7444 23.5865 12.7444C23.5367 12.7444 23.5163 12.7497 23.5413 12.7562ZM31.8582 15.4051C31.8582 16.8648 31.8613 17.4618 31.8652 16.732C31.8691 16.0021 31.8691 14.808 31.8652 14.0782C31.8613 13.3484 31.8582 13.9455 31.8582 15.4051ZM15.0022 20.5898L14.9261 20.6738L15.0102 20.5979C15.0565 20.5561 15.0944 20.5182 15.0944 20.5137C15.0944 20.4936 15.073 20.5113 15.0022 20.5898ZM12.2072 23.3601L11.871 23.7031L12.214 23.3669C12.4028 23.182 12.557 23.0276 12.557 23.0239C12.557 23.0053 12.5194 23.0415 12.2072 23.3601ZM31.7018 29.8846L31.6257 29.9688L31.7099 29.8926C31.7883 29.8218 31.8059 29.8004 31.786 29.8004C31.7815 29.8004 31.7436 29.8383 31.7018 29.8846ZM31.3134 30.2729L31.2373 30.3571L31.3215 30.281C31.3999 30.2102 31.4175 30.1887 31.3976 30.1887C31.3931 30.1887 31.3552 30.2266 31.3134 30.2729ZM31.1063 30.48L31.0302 30.5642L31.1144 30.4881C31.1929 30.4172 31.2104 30.396 31.1904 30.396C31.1859 30.396 31.1481 30.4337 31.1063 30.48ZM42.6163 34.9398C42.5534 35.0038 42.5079 35.0563 42.515 35.0563C42.522 35.0563 42.5794 35.0038 42.6423 34.9398C42.7052 34.8756 42.7509 34.8233 42.7437 34.8233C42.7366 34.8233 42.6792 34.8756 42.6163 34.9398ZM14.7901 41.0304C14.9006 41.0352 15.0811 41.0352 15.1915 41.0304C15.3018 41.0256 15.2116 41.0216 14.9908 41.0216C14.7701 41.0216 14.6798 41.0256 14.7901 41.0304ZM7.101 41.6252C7.14031 41.6311 7.19856 41.631 7.23041 41.6249C7.26225 41.6187 7.2301 41.6139 7.15879 41.6141C7.08765 41.6142 7.06155 41.6193 7.101 41.6252ZM21.8066 41.6252C21.8457 41.6311 21.9099 41.6311 21.9491 41.6252C21.9882 41.6193 21.956 41.6144 21.8777 41.6144C21.7995 41.6144 21.7675 41.6193 21.8066 41.6252ZM27.1405 41.6252C27.1798 41.6311 27.2381 41.631 27.2699 41.6249C27.3018 41.6187 27.2696 41.6139 27.1983 41.6141C27.1272 41.6142 27.1011 41.6193 27.1405 41.6252ZM32.1116 41.6252C32.1509 41.6311 32.2091 41.631 32.241 41.6249C32.2728 41.6187 32.2407 41.6139 32.1694 41.6141C32.0982 41.6142 32.0721 41.6193 32.1116 41.6252ZM34.9078 41.6252C34.9471 41.6311 35.0053 41.631 35.0372 41.6249C35.069 41.6187 35.0369 41.6139 34.9656 41.6141C34.8944 41.6142 34.8683 41.6193 34.9078 41.6252ZM39.4776 41.6254C39.5242 41.6311 39.5941 41.631 39.6329 41.6251C39.6718 41.6192 39.6337 41.6145 39.5483 41.6147C39.4628 41.6148 39.431 41.6196 39.4776 41.6254ZM44.6169 41.6252C44.6562 41.6311 44.7144 41.631 44.7463 41.6249C44.7781 41.6187 44.746 41.6139 44.6747 41.6141C44.6035 41.6142 44.5774 41.6193 44.6169 41.6252ZM4.95755 43.8979C4.95755 45.0941 4.96066 45.5797 4.96454 44.977C4.96843 44.3742 4.96843 43.3956 4.96454 42.8021C4.96066 42.2087 4.95755 42.7018 4.95755 43.8979ZM14.6149 43.8979C14.6149 45.0941 14.618 45.5797 14.6219 44.977C14.6258 44.3742 14.6258 43.3956 14.6219 42.8021C14.618 42.2087 14.6149 42.7018 14.6149 43.8979ZM16.7897 43.8979C16.7897 45.0941 16.7928 45.5797 16.7967 44.977C16.8006 44.3742 16.8006 43.3956 16.7967 42.8021C16.7928 42.2087 16.7897 42.7018 16.7897 43.8979ZM47.0277 42.0597C47.0278 42.2306 47.032 42.2971 47.037 42.2076C47.0421 42.118 47.0421 41.9782 47.037 41.8969C47.0319 41.8155 47.0277 41.8889 47.0277 42.0597ZM49.7722 42.0597C49.7722 42.2306 49.7763 42.2971 49.7815 42.2076C49.7866 42.118 49.7864 41.9782 49.7813 41.8969C49.7762 41.8155 49.7722 41.8889 49.7722 42.0597ZM6.90667 42.324C6.93898 42.3302 6.98558 42.33 7.01028 42.3235C7.03498 42.317 7.00873 42.312 6.95172 42.3122C6.89471 42.3125 6.87451 42.3178 6.90667 42.324ZM26.9589 42.3235C26.9838 42.33 27.0246 42.33 27.0495 42.3235C27.0744 42.317 27.054 42.3117 27.0041 42.3117C26.9543 42.3117 26.9339 42.317 26.9589 42.3235ZM31.93 42.3235C31.9548 42.33 31.9957 42.33 32.0205 42.3235C32.0454 42.317 32.0251 42.3117 31.9752 42.3117C31.9253 42.3117 31.905 42.317 31.93 42.3235ZM34.7262 42.3235C34.751 42.33 34.7919 42.33 34.8168 42.3235C34.8416 42.317 34.8213 42.3117 34.7714 42.3117C34.7215 42.3117 34.7012 42.317 34.7262 42.3235ZM44.4353 42.3235C44.4601 42.33 44.501 42.33 44.5258 42.3235C44.5507 42.317 44.5303 42.3117 44.4805 42.3117C44.4306 42.3117 44.4103 42.317 44.4353 42.3235ZM18.7256 42.4799C18.7789 42.4855 18.8664 42.4855 18.9198 42.4799C18.9731 42.4744 18.9295 42.4697 18.8227 42.4697C18.7159 42.4697 18.6722 42.4744 18.7256 42.4799ZM45.3728 44.7394C45.3728 45.4728 45.3762 45.7728 45.3802 45.4062C45.3843 45.0394 45.3843 44.4395 45.3802 44.0727C45.3762 43.7061 45.3728 44.0061 45.3728 44.7394ZM41.3834 43.7168C41.3834 43.8734 41.3877 43.9341 41.3928 43.8518C41.398 43.7693 41.398 43.6412 41.3927 43.5669C41.3874 43.4926 41.3832 43.5601 41.3834 43.7168ZM19.867 43.911C19.867 44.0177 19.8716 44.0614 19.8772 44.0081C19.8828 43.9546 19.8828 43.8672 19.8772 43.8139C19.8716 43.7605 19.867 43.8041 19.867 43.911ZM49.729 45.3793C49.7498 45.3941 49.7634 45.5065 49.7692 45.7113L49.7779 46.021L49.7765 45.6995C49.7754 45.4365 49.7681 45.376 49.7364 45.3675C49.7085 45.3599 49.7064 45.3632 49.729 45.3793Z" fill="var(--fill-0, #A1B7BE)"/>
<path id="Vector_5" fill-rule="evenodd" clip-rule="evenodd" d="M37.2691 5.7287L37.1406 5.86463L37.2766 5.73616C37.4029 5.6167 37.4245 5.59277 37.405 5.59277C37.401 5.59277 37.3398 5.65398 37.2691 5.7287ZM36.907 6.09112L36.7265 6.27893L36.9142 6.09827C37.0885 5.93065 37.1136 5.90346 37.0947 5.90346C37.0908 5.90346 37.0063 5.98797 36.907 6.09112ZM36.5056 6.49253L36.3381 6.6673L36.5129 6.49968C36.6752 6.34402 36.6995 6.31777 36.6804 6.31777C36.6765 6.31777 36.5977 6.39637 36.5056 6.49253ZM36.0784 6.91973L35.9238 7.08145L36.0857 6.92703C36.1747 6.8419 36.2474 6.7692 36.2474 6.76516C36.2474 6.74606 36.2219 6.76936 36.0784 6.91973ZM35.677 7.32099L35.5355 7.46981L35.6843 7.32829C35.7662 7.25046 35.8333 7.18351 35.8333 7.17947C35.8333 7.16021 35.8084 7.18273 35.677 7.32099ZM35.2627 7.73529L35.1212 7.88412L35.2701 7.7426C35.352 7.66477 35.419 7.59781 35.419 7.59378C35.419 7.57451 35.3943 7.59688 35.2627 7.73529ZM34.8743 8.12366L34.7328 8.27248L34.8818 8.13096C34.9636 8.05313 35.0306 7.98618 35.0306 7.98214C35.0306 7.96288 35.0059 7.98525 34.8743 8.12366ZM34.4078 8.58969L34.3186 8.68678L34.4157 8.59746C34.469 8.54837 34.5128 8.50472 34.5128 8.50037C34.5128 8.48064 34.4909 8.49928 34.4078 8.58969ZM34.0062 8.99095L33.9303 9.07515L34.0143 8.99903C34.0928 8.92819 34.1105 8.90675 34.0904 8.90675C34.0859 8.90675 34.048 8.94466 34.0062 8.99095ZM31.9114 11.0808C31.8558 11.1391 31.8466 11.1611 31.8743 11.1717C31.8943 11.1793 34.4098 11.1826 37.4644 11.1788L43.018 11.1722L37.44 11.1658L31.8622 11.1593L31.9366 11.0816C31.9776 11.0389 32.0052 11.0039 31.9981 11.0039C31.991 11.0039 31.952 11.0386 31.9114 11.0808ZM7.45061 12.757C7.48293 12.7632 7.52953 12.7629 7.55423 12.7565C7.57893 12.75 7.55268 12.7449 7.49566 12.7452C7.43865 12.7455 7.41846 12.7508 7.45061 12.757ZM15.9615 15.4055C15.9615 16.8651 15.9646 17.4621 15.9685 16.7323C15.9722 16.0025 15.9722 14.8083 15.9685 14.0785C15.9646 13.3487 15.9615 13.9458 15.9615 15.4055ZM2.18705 15.2048L2.05858 15.3407L2.19451 15.2122C2.26923 15.1415 2.33044 15.0803 2.33044 15.0763C2.33044 15.057 2.30652 15.0785 2.18705 15.2048ZM6.89914 19.658C6.8923 19.6757 6.88982 20.6341 6.8937 21.7875L6.90054 23.8847L6.90675 21.7681L6.91312 19.6517L11.4375 19.645L15.962 19.6385L11.4368 19.6321C7.83572 19.627 6.90893 19.6323 6.89914 19.658ZM0.00631939 20.4023C0.00631939 20.4522 0.0116011 20.4725 0.0181256 20.4477C0.0246501 20.4228 0.0246501 20.3819 0.0181256 20.3571C0.0116011 20.3321 0.00631939 20.3524 0.00631939 20.4023ZM5.346 22.163C5.346 23.1098 5.34926 23.4972 5.35314 23.0237C5.35718 22.5503 5.35718 21.7755 5.35314 21.3021C5.34926 20.8286 5.346 21.216 5.346 22.163ZM14.2658 21.328L13.9165 21.6839L14.2726 21.3348C14.6033 21.0105 14.6403 20.9719 14.6218 20.9719C14.6179 20.9719 14.4578 21.1321 14.2658 21.328ZM11.7792 23.7876L11.69 23.8847L11.7871 23.7955C11.8775 23.7124 11.8961 23.6905 11.8762 23.6905C11.872 23.6905 11.8282 23.7341 11.7792 23.7876ZM14.5688 40.2514C14.5445 40.2758 14.546 41.0053 14.5704 41.0205C14.581 41.0272 14.5862 40.8589 14.582 40.6466L14.5743 40.2607H14.9911H15.4079L15.4001 40.6478C15.3959 40.8608 15.4015 41.0258 15.4125 41.0147C15.4235 41.0036 15.4295 40.8265 15.4254 40.6211L15.4183 40.2476L15.0024 40.2407C14.7737 40.2368 14.5786 40.2416 14.5688 40.2514ZM47.5216 40.5007C47.5148 40.5187 47.5124 40.8072 47.5165 41.1415L47.5239 41.7494L47.53 41.1222L47.5359 40.4951L47.9048 40.4872L48.2738 40.4791L47.904 40.4735C47.6246 40.4692 47.5312 40.4759 47.5216 40.5007ZM22.0399 41.6248C22.0647 41.6313 22.1056 41.6313 22.1304 41.6248C22.1554 41.6183 22.1349 41.613 22.0852 41.613C22.0354 41.613 22.015 41.6183 22.0399 41.6248ZM39.7233 41.6248C39.7483 41.6313 39.789 41.6313 39.814 41.6248C39.8388 41.6183 39.8185 41.613 39.7686 41.613C39.7188 41.613 39.6984 41.6183 39.7233 41.6248ZM15.3659 43.8983C15.3659 45.0944 15.369 45.58 15.3729 44.9773C15.3768 44.3745 15.3768 43.3959 15.3729 42.8025C15.369 42.209 15.3659 42.7021 15.3659 43.8983ZM24.9973 43.9113C24.9973 45.1145 25.0004 45.6067 25.0043 45.0051C25.0082 44.4034 25.0082 43.419 25.0043 42.8174C25.0004 42.2157 24.9973 42.708 24.9973 43.9113ZM30.0201 43.9113C30.0201 45.1145 30.0234 45.6067 30.0272 45.0051C30.0311 44.4034 30.0311 43.419 30.0272 42.8174C30.0234 42.2157 30.0201 42.708 30.0201 43.9113ZM30.7679 41.9695C30.7679 42.1046 30.7723 42.1601 30.7777 42.0924C30.783 42.0248 30.783 41.914 30.7777 41.8465C30.7723 41.7789 30.7679 41.8342 30.7679 41.9695ZM43.2215 41.9695C43.2215 42.1046 43.2258 42.1601 43.2311 42.0924C43.2365 42.0248 43.2365 41.914 43.2311 41.8465C43.2258 41.7789 43.2215 41.8342 43.2215 41.9695ZM5.70547 41.9824C5.70531 42.1105 5.70982 42.1663 5.7151 42.1062C5.72054 42.0461 5.72069 41.9412 5.71525 41.8732C5.70997 41.8051 5.70547 41.8542 5.70547 41.9824ZM42.4736 43.9113C42.4736 45.1003 42.4768 45.5867 42.4806 44.9922C42.4845 44.3977 42.4845 43.4248 42.4806 42.8303C42.4768 42.2358 42.4736 42.7221 42.4736 43.9113ZM33.1405 41.9824C33.1888 42.0323 33.2342 42.073 33.2413 42.073C33.2485 42.073 33.2148 42.0323 33.1665 41.9824C33.1181 41.9325 33.0728 41.8918 33.0656 41.8918C33.0585 41.8918 33.0922 41.9325 33.1405 41.9824ZM37.9935 42.2608L37.9174 42.3448L38.0016 42.2688C38.08 42.198 38.0976 42.1766 38.0777 42.1766C38.0732 42.1766 38.0353 42.2145 37.9935 42.2608ZM39.425 42.2471C39.471 42.2527 39.5525 42.2528 39.6063 42.2472C39.6599 42.2417 39.6223 42.237 39.5227 42.2368C39.423 42.2367 39.379 42.2413 39.425 42.2471ZM21.8202 42.273C21.8668 42.2788 21.9367 42.2786 21.9755 42.2727C22.0145 42.2668 21.9765 42.2622 21.891 42.2623C21.8056 42.2625 21.7737 42.2673 21.8202 42.273ZM47.5221 43.6523C47.5221 44.3714 47.5253 44.6657 47.5294 44.306C47.5334 43.9466 47.5334 43.3581 47.5294 42.9987C47.5253 42.639 47.5221 42.9333 47.5221 43.6523ZM1.53616 42.5584C1.96087 42.5624 2.64827 42.5624 3.06367 42.5584C3.47922 42.5544 3.13171 42.5511 2.2916 42.5511C1.4515 42.5511 1.11144 42.5545 1.53616 42.5584ZM5.70842 44.455C5.70842 45.345 5.71168 45.7091 5.71572 45.2641C5.7196 44.819 5.7196 44.0909 5.71572 43.6458C5.71168 43.2009 5.70842 43.565 5.70842 44.455ZM30.7707 44.4679C30.7707 45.365 30.774 45.7282 30.778 45.2751C30.7819 44.8219 30.7819 44.0879 30.778 43.644C30.774 43.2 30.7707 43.5708 30.7707 44.4679ZM43.2243 44.4679C43.2243 45.365 43.2275 45.7282 43.2316 45.2751C43.2355 44.8219 43.2355 44.0879 43.2316 43.644C43.2275 43.2 43.2243 43.5708 43.2243 44.4679ZM36.3631 44.5585C36.3631 45.3916 36.3664 45.7324 36.3704 45.3158C36.3745 44.8993 36.3745 44.2178 36.3704 43.8012C36.3664 43.3847 36.3631 43.7255 36.3631 44.5585ZM46.1239 44.5715C46.1239 45.3973 46.1272 45.7389 46.1312 45.3307C46.1353 44.9223 46.1353 44.2465 46.1312 43.829C46.1274 43.4114 46.1239 43.7456 46.1239 44.5715ZM27.8648 43.2899C27.8648 43.3396 27.8701 43.3601 27.8766 43.3351C27.8832 43.3103 27.8832 43.2694 27.8766 43.2446C27.8701 43.2197 27.8648 43.2401 27.8648 43.2899ZM28.6476 44.6492C28.6476 45.4323 28.6509 45.7565 28.6549 45.3694C28.659 44.9824 28.659 44.3416 28.6549 43.9455C28.6509 43.5494 28.6476 43.8659 28.6476 44.6492ZM41.3809 43.3417C41.3809 43.4057 41.3859 43.4319 41.3921 43.3999C41.3983 43.3679 41.3983 43.3154 41.3921 43.2834C41.3859 43.2514 41.3809 43.2775 41.3809 43.3417ZM35.6068 43.4322C35.6071 43.4892 35.6124 43.5094 35.6186 43.4773C35.6246 43.4451 35.6245 43.3985 35.618 43.3737C35.6114 43.349 35.6065 43.3754 35.6068 43.4322ZM32.816 44.7398C32.816 45.4731 32.8193 45.7731 32.8235 45.4065C32.8275 45.0397 32.8275 44.4398 32.8235 44.073C32.8193 43.7064 32.816 44.0064 32.816 44.7398ZM20.645 43.8983C20.645 44.055 20.6494 44.1157 20.6545 44.0333C20.6596 43.9509 20.6596 43.8228 20.6543 43.7485C20.649 43.6743 20.6449 43.7417 20.645 43.8983ZM23.8815 43.9113C23.8815 44.075 23.8857 44.142 23.8908 44.0601C23.8959 43.9783 23.8959 43.8442 23.8908 43.7623C23.8857 43.6805 23.8815 43.7474 23.8815 43.9113ZM48.2674 44.6492C48.2677 44.7061 48.273 44.7264 48.2792 44.6941C48.2853 44.6619 48.2851 44.6153 48.2786 44.5906C48.2721 44.5658 48.2671 44.5922 48.2674 44.6492ZM41.263 45.0172C41.2851 45.0327 41.2974 45.1623 41.303 45.4399L41.3112 45.8401L41.3103 45.4279C41.3093 45.0843 41.3027 45.0141 41.2703 45.0053C41.2422 44.9976 41.2402 45.0011 41.263 45.0172ZM48.9798 45.5093C49.0263 45.5151 49.0962 45.5149 49.1352 45.509C49.174 45.5031 49.1359 45.4985 49.0505 45.4986C48.9651 45.4988 48.9332 45.5036 48.9798 45.5093ZM39.6847 45.5348C39.717 45.541 39.7637 45.5407 39.7884 45.5344C39.8131 45.5278 39.7868 45.5227 39.7298 45.523C39.6728 45.5233 39.6526 45.5286 39.6847 45.5348Z" fill="var(--fill-0, #CBD4E3)"/>
<path id="Vector_6" fill-rule="evenodd" clip-rule="evenodd" d="M50.992 11.1329L45.3996 11.146L50.9839 11.1523C54.6859 11.1565 56.5739 11.15 56.5844 11.1329C56.5933 11.1186 56.5968 11.1098 56.5925 11.1133C56.588 11.1169 54.0678 11.1256 50.992 11.1329ZM25.703 12.7575C26.8316 12.7612 28.6782 12.7612 29.8068 12.7575C30.9354 12.7538 30.012 12.7507 27.755 12.7507C25.4978 12.7507 24.5746 12.7538 25.703 12.7575ZM41.613 12.7575C42.7486 12.7612 44.607 12.7612 45.7426 12.7575C46.8783 12.7538 45.949 12.7507 43.6779 12.7507C41.4066 12.7507 40.4775 12.7538 41.613 12.7575ZM23.2175 12.7822C23.2497 12.7884 23.302 12.7884 23.334 12.7822C23.3662 12.7762 23.3399 12.771 23.2758 12.771C23.2118 12.771 23.1855 12.7762 23.2175 12.7822ZM39.1278 12.7825C39.1673 12.7886 39.2255 12.7884 39.2574 12.7822C39.2892 12.776 39.2569 12.7712 39.1858 12.7713C39.1146 12.7717 39.0885 12.7766 39.1278 12.7825ZM34.1624 15.0748L33.93 15.3142L34.1694 15.0818C34.3011 14.9539 34.4089 14.8461 34.4089 14.8422C34.4089 14.8235 34.3783 14.8523 34.1624 15.0748ZM17.9796 15.3595L17.9035 15.4437L17.9877 15.3676C18.034 15.3258 18.0717 15.2879 18.0717 15.2834C18.0717 15.2635 18.0504 15.2811 17.9796 15.3595ZM25.7419 18.0652C26.8633 18.0689 28.6984 18.0689 29.8197 18.0652C30.9411 18.0615 30.0237 18.0584 27.7808 18.0584C25.5381 18.0584 24.6206 18.0615 25.7419 18.0652ZM41.6519 18.0652C42.7804 18.0689 44.627 18.0689 45.7556 18.0652C46.884 18.0615 45.9607 18.0584 43.7037 18.0584C41.4467 18.0584 40.5233 18.0615 41.6519 18.0652ZM37.9287 18.816L37.8394 18.9131L37.9365 18.8239C38.0269 18.7408 38.0455 18.7189 38.0258 18.7189C38.0215 18.7189 37.9778 18.7625 37.9287 18.816ZM21.889 18.9584L21.813 19.0425L21.8971 18.9665C21.9434 18.9247 21.9813 18.8868 21.9813 18.8823C21.9813 18.8623 21.9598 18.88 21.889 18.9584ZM15.9806 19.884C15.9806 19.9338 15.9859 19.9542 15.9924 19.9293C15.9989 19.9043 15.9989 19.8636 15.9924 19.8386C15.9859 19.8138 15.9806 19.8341 15.9806 19.884ZM31.8782 20.0264C31.8785 20.0833 31.8838 20.1036 31.89 20.0713C31.896 20.0392 31.8959 19.9926 31.8894 19.9679C31.8828 19.943 31.8779 19.9694 31.8782 20.0264ZM31.858 22.1105C31.858 23.086 31.8612 23.485 31.8651 22.9974C31.869 22.5096 31.869 21.7116 31.8651 21.2238C31.8612 20.736 31.858 21.1351 31.858 22.1105ZM37.1655 22.1624C37.1655 23.1093 37.1688 23.4967 37.1728 23.0232C37.1767 22.5497 37.1767 21.775 37.1728 21.3015C37.1688 20.828 37.1655 21.2154 37.1655 22.1624ZM17.2776 25.4958C18.0156 25.4997 19.2157 25.4997 19.9444 25.4958C20.6731 25.4919 20.0693 25.4888 18.6025 25.4888C17.1358 25.4888 16.5395 25.4919 17.2776 25.4958ZM31.8575 25.5087C31.8507 25.5267 31.8482 25.9665 31.8522 26.4863L31.8594 27.4311L31.8654 26.4667L31.8716 25.5023H34.5122H37.1526L37.1599 26.4019L37.1672 27.3017L37.1667 26.3956L37.1663 25.4893L34.5181 25.4828C32.4085 25.4775 31.8675 25.4828 31.8575 25.5087ZM31.8775 27.7289C31.8775 27.7788 31.883 27.7991 31.8895 27.7743C31.8959 27.7493 31.8959 27.7086 31.8895 27.6835C31.883 27.6587 31.8775 27.679 31.8775 27.7289ZM15.9806 27.8843C15.9806 27.9341 15.9859 27.9545 15.9924 27.9296C15.9989 27.9046 15.9989 27.8639 15.9924 27.8389C15.9859 27.814 15.9806 27.8344 15.9806 27.8843ZM31.9035 27.9879C31.9035 28.0376 31.9088 28.0581 31.9153 28.0331C31.9218 28.0082 31.9218 27.9674 31.9153 27.9425C31.9088 27.9177 31.9035 27.938 31.9035 27.9879ZM16.0066 28.1173C16.0066 28.1671 16.0118 28.1875 16.0184 28.1626C16.0249 28.1376 16.0249 28.0969 16.0184 28.0719C16.0118 28.0471 16.0066 28.0674 16.0066 28.1173ZM21.9036 28.8292C21.9519 28.8791 21.9973 28.9199 22.0044 28.9199C22.0116 28.9199 21.9779 28.8791 21.9296 28.8292C21.8812 28.7794 21.8359 28.7387 21.8287 28.7387C21.8216 28.7387 21.8553 28.7794 21.9036 28.8292ZM37.929 28.9523C38.0362 29.0666 38.0595 29.0871 38.0595 29.0677C38.0595 29.0635 38.0042 29.0082 37.9365 28.9446L37.8136 28.8292L37.929 28.9523ZM27.8018 29.7419C30.8268 29.7468 31.8182 29.756 31.8044 29.7784C31.7929 29.7969 31.7974 29.8011 31.8159 29.7897C31.8322 29.7796 31.8457 29.7602 31.8457 29.7468C31.8457 29.7318 30.3202 29.7249 27.8133 29.7288L23.7806 29.7353L27.8018 29.7419ZM41.7295 29.7419C42.8438 29.7456 44.6671 29.7456 45.7814 29.7419C46.8957 29.7381 45.984 29.7352 43.7555 29.7352C41.527 29.7352 40.6152 29.7381 41.7295 29.7419ZM29.9426 31.6448L28.8553 32.7388L29.9492 31.6515C30.966 30.6409 31.0547 30.5511 31.0365 30.5511C31.0329 30.5511 30.5406 31.0432 29.9426 31.6448ZM45.762 31.7744L44.6746 32.8682L45.7685 31.7809C46.3702 31.1829 46.8625 30.6907 46.8625 30.687C46.8625 30.6688 46.7725 30.7577 45.762 31.7744ZM34.0723 32.6094C34.1206 32.6591 34.1659 32.7 34.1731 32.7C34.1802 32.7 34.1465 32.6591 34.0982 32.6094C34.0499 32.5595 34.0045 32.5187 33.9974 32.5187C33.9902 32.5187 34.024 32.5595 34.0723 32.6094ZM34.2276 32.7598C34.2276 32.7643 34.2655 32.8022 34.3118 32.844L34.396 32.9201L34.3199 32.8359C34.249 32.7574 34.2276 32.7399 34.2276 32.7598ZM28.1028 33.4832L28.0269 33.5672L28.1109 33.4913C28.1893 33.4204 28.2071 33.399 28.187 33.399C28.1825 33.399 28.1446 33.4369 28.1028 33.4832ZM26.6289 34.9781C26.5834 35.0284 26.5428 35.0298 25.0908 35.0367L23.5995 35.0435L25.0902 35.0497L26.5809 35.0561L26.6416 34.9913C26.675 34.9557 26.6963 34.9265 26.689 34.9265C26.6816 34.9265 26.6545 34.9498 26.6289 34.9781ZM23.2175 35.0225C23.2497 35.0287 23.302 35.0287 23.334 35.0225C23.3662 35.0163 23.3399 35.0113 23.2758 35.0113C23.2118 35.0113 23.1855 35.0163 23.2175 35.0225ZM39.1404 35.0225C39.1726 35.0287 39.2249 35.0287 39.2569 35.0225C39.2891 35.0163 39.2628 35.0113 39.1987 35.0113C39.1347 35.0113 39.1084 35.0163 39.1404 35.0225ZM40.2538 35.0495C40.6702 35.0536 41.3519 35.0536 41.7684 35.0495C42.1849 35.0455 41.844 35.0422 41.0111 35.0422C40.178 35.0422 39.8373 35.0455 40.2538 35.0495Z" fill="var(--fill-0, #8EAD83)"/>
<path id="Vector_7" fill-rule="evenodd" clip-rule="evenodd" d="M48.1829 2.80468C48.1829 2.80919 48.2206 2.84709 48.2669 2.88888L48.3511 2.96484L48.275 2.8808C48.2042 2.80235 48.1829 2.78464 48.1829 2.80468ZM48.597 3.21899C48.597 3.22349 48.6349 3.26124 48.6812 3.30303L48.7654 3.37915L48.6893 3.29495C48.6185 3.2165 48.597 3.19895 48.597 3.21899ZM49.1279 3.75462C49.2124 3.84006 49.2874 3.90996 49.2945 3.90996C49.3017 3.90996 49.2383 3.84006 49.1538 3.75462C49.0691 3.66918 48.9943 3.59927 48.9871 3.59927C48.98 3.59927 49.0434 3.66918 49.1279 3.75462ZM49.5291 4.15587C49.6065 4.23417 49.6756 4.29833 49.6828 4.29833C49.6899 4.29833 49.6324 4.23417 49.5551 4.15587C49.4777 4.07758 49.4086 4.01342 49.4014 4.01342C49.3944 4.01342 49.4518 4.07758 49.5291 4.15587ZM49.9952 4.62191C50.0435 4.67178 50.0888 4.71248 50.096 4.71248C50.1031 4.71248 50.0694 4.67178 50.0211 4.62191C49.9728 4.57204 49.9274 4.53134 49.9203 4.53134C49.9131 4.53134 49.9468 4.57204 49.9952 4.62191ZM50.3318 4.95357C50.3318 4.95808 50.3697 4.99598 50.416 5.03777L50.5 5.11389L50.4241 5.02969C50.3532 4.95124 50.3318 4.93369 50.3318 4.95357ZM50.8238 5.45037C50.8721 5.50023 50.9174 5.54109 50.9244 5.54109C50.9316 5.54109 50.8979 5.50023 50.8496 5.45037C50.8012 5.4005 50.7559 5.3598 50.7489 5.3598C50.7417 5.3598 50.7754 5.4005 50.8238 5.45037ZM45.4087 11.1658C45.4195 11.1765 47.9384 11.1824 51.0063 11.1789L56.5844 11.1724L50.9869 11.1593C47.9081 11.1522 45.398 11.1551 45.4087 11.1658ZM18.0186 15.2954L17.9294 15.3925L18.0265 15.3033C18.0798 15.2542 18.1236 15.2105 18.1236 15.2062C18.1236 15.1865 18.1017 15.2051 18.0186 15.2954ZM37.9672 18.8037L37.8913 18.8877L37.9753 18.8118C38.0538 18.7409 38.0715 18.7195 38.0514 18.7195C38.0469 18.7195 38.009 18.7574 37.9672 18.8037ZM15.9351 22.0723C15.9351 23.0691 15.9384 23.4732 15.9422 22.9702C15.9461 22.4672 15.9461 21.6516 15.9422 21.1578C15.9384 20.6639 15.9351 21.0756 15.9351 22.0723ZM21.2686 22.1888C21.2686 23.1215 21.2718 23.5032 21.2757 23.0368C21.2798 22.5705 21.2798 21.8073 21.2757 21.3409C21.2718 20.8746 21.2686 21.2561 21.2686 22.1888ZM15.9346 26.4867C15.9346 27.035 15.9381 27.2593 15.9422 26.9851C15.9464 26.7111 15.9464 26.2624 15.9422 25.9884C15.9381 25.7142 15.9346 25.9385 15.9346 26.4867ZM21.2679 26.3831C21.2679 26.8745 21.2715 27.0755 21.2757 26.8297C21.2799 26.5841 21.2799 26.1823 21.2757 25.9365C21.2715 25.6909 21.2679 25.8919 21.2679 26.3831ZM37.9171 28.9205C37.9727 28.9774 38.0241 29.024 38.0312 29.024C38.0382 29.024 37.9986 28.9774 37.943 28.9205C37.8874 28.8635 37.8361 28.8169 37.829 28.8169C37.8218 28.8169 37.8614 28.8635 37.9171 28.9205ZM29.399 32.2086C29.1003 32.5076 28.8615 32.7523 28.8687 32.7523C28.8758 32.7523 29.1261 32.5076 29.425 32.2086C29.7237 31.9095 29.9623 31.6649 29.9552 31.6649C29.9482 31.6649 29.6978 31.9095 29.399 32.2086ZM45.5274 32.0338L45.4513 32.118L45.5355 32.0419C45.614 31.971 45.6315 31.9498 45.6116 31.9498C45.6071 31.9498 45.5692 31.9875 45.5274 32.0338ZM18.0459 32.5064C18.0942 32.5562 18.1396 32.5969 18.1466 32.5969C18.1537 32.5969 18.12 32.5562 18.0717 32.5064C18.0234 32.4565 17.978 32.4158 17.9711 32.4158C17.9639 32.4158 17.9976 32.4565 18.0459 32.5064ZM44.5186 33.0436L44.3381 33.2314L44.5258 33.0507C44.7001 32.8831 44.7252 32.8559 44.7063 32.8559C44.7024 32.8559 44.6179 32.9404 44.5186 33.0436ZM44.1689 33.3931L44.0274 33.5421L44.1762 33.4005C44.2581 33.3227 44.3251 33.2556 44.3251 33.2516C44.3251 33.2325 44.3004 33.2548 44.1689 33.3931ZM28.1028 33.5096L28.0269 33.5938L28.1109 33.5177C28.1893 33.4468 28.2071 33.4255 28.187 33.4255C28.1825 33.4255 28.1446 33.4633 28.1028 33.5096Z" fill="var(--fill-0, #D3DCD1)"/>
<path id="Vector_8" fill-rule="evenodd" clip-rule="evenodd" d="M34.6293 2.79684C36.1529 4.32046 37.4053 5.56711 37.4125 5.56711C37.4196 5.56711 36.1787 4.32046 34.6551 2.79684C33.1315 1.27321 31.8791 0.0265656 31.8719 0.0265656C31.8648 0.0265656 33.1057 1.27321 34.6293 2.79684ZM48.4665 5.69014L48.3773 5.78723L48.4744 5.69806C48.5647 5.61495 48.5833 5.59305 48.5636 5.59305C48.5593 5.59305 48.5156 5.6367 48.4665 5.69014ZM47.484 6.67394L46.6167 7.54776L47.4905 6.68062C47.9711 6.20371 48.3643 5.81038 48.3643 5.8068C48.3643 5.78847 48.2899 5.86195 47.484 6.67394ZM46.3967 7.75499C46.2906 7.86171 46.2097 7.94917 46.2166 7.94917C46.2238 7.94917 46.3164 7.86171 46.4225 7.75499C46.5286 7.64811 46.6095 7.56081 46.6025 7.56081C46.5954 7.56081 46.5028 7.64811 46.3967 7.75499ZM45.9816 8.17566L45.8141 8.35043L45.9889 8.18281C46.0849 8.09069 46.1637 8.01208 46.1637 8.00805C46.1637 7.98909 46.1373 8.01333 45.9816 8.17566ZM45.5675 8.58997L45.3998 8.76473L45.5746 8.59711C45.6708 8.50499 45.7494 8.42639 45.7494 8.42235C45.7494 8.40324 45.723 8.42763 45.5675 8.58997ZM45.1662 8.99122L44.9855 9.17888L45.1733 8.99837C45.2765 8.89911 45.361 8.8146 45.361 8.81071C45.361 8.79176 45.3338 8.81693 45.1662 8.99122ZM44.7648 9.39248L44.5972 9.56724L44.7719 9.39978C44.8681 9.30766 44.9467 9.2289 44.9467 9.22502C44.9467 9.20591 44.9204 9.23015 44.7648 9.39248ZM44.3764 9.78084L44.2088 9.95561L44.3836 9.78815C44.4797 9.69603 44.5583 9.61727 44.5583 9.61338C44.5583 9.59427 44.5321 9.61851 44.3764 9.78084ZM43.9621 10.1951L43.7947 10.3699L43.9694 10.2023C44.0654 10.1102 44.1442 10.0316 44.1442 10.0275C44.1442 10.0086 44.1178 10.0328 43.9621 10.1951ZM43.6636 10.4929L43.5874 10.577L43.6716 10.501C43.7179 10.4592 43.7558 10.4213 43.7558 10.4168C43.7558 10.3968 43.7344 10.4145 43.6636 10.4929ZM43.4823 10.6741L43.4063 10.7583L43.4903 10.6822C43.5688 10.6113 43.5865 10.59 43.5665 10.59C43.562 10.59 43.5241 10.6278 43.4823 10.6741ZM9.79551 12.7583C10.9322 12.7621 12.7847 12.7621 13.9122 12.7583C15.0395 12.7546 14.1094 12.7515 11.8453 12.7515C9.58113 12.7515 8.65869 12.7546 9.79551 12.7583ZM9.92289 18.066C11.03 18.0698 12.8418 18.0698 13.949 18.066C15.0561 18.0623 14.1501 18.0592 11.9359 18.0592C9.72156 18.0592 8.81574 18.0623 9.92289 18.066ZM6.08322 18.8427L5.9939 18.9398L6.09099 18.8505C6.1814 18.7676 6.20004 18.7457 6.18031 18.7457C6.17596 18.7457 6.13231 18.7893 6.08322 18.8427ZM15.6248 19.969L15.3406 20.2603L15.6318 19.9758C15.792 19.8194 15.9231 19.6884 15.9231 19.6846C15.9231 19.6659 15.8891 19.6984 15.6248 19.969ZM0.0124864 22.189C0.0124864 23.1217 0.0155933 23.5034 0.0196323 23.0371C0.0235159 22.5707 0.0235159 21.8075 0.0196323 21.3412C0.0155933 20.8748 0.0124864 21.2563 0.0124864 22.189ZM12.8936 22.6745L12.5443 23.0305L12.9004 22.6813C13.0961 22.4893 13.2563 22.3292 13.2563 22.3254C13.2563 22.3068 13.2179 22.3439 12.8936 22.6745ZM0.0121757 25.5095C0.00549589 25.5274 0.00285503 27.6799 0.00658331 30.2929L0.0131078 35.0439H2.66702H5.32079V30.267V25.4901L2.67262 25.4836C0.567845 25.4783 0.0219625 25.4836 0.0121757 25.5095ZM5.30789 30.267V35.031H2.66702H0.0261568V30.267V25.5032H2.66702H5.30789V30.267ZM0.93679 40.3062C1.45906 40.3101 2.32123 40.3101 2.85282 40.3062C3.38425 40.3023 2.9569 40.299 1.90319 40.299C0.849486 40.299 0.41452 40.3023 0.93679 40.3062ZM0.762493 41.7625C0.762493 42.1969 0.766066 42.3746 0.770416 42.1574C0.774765 41.9402 0.774765 41.585 0.770416 41.3678C0.766066 41.1506 0.762493 41.3282 0.762493 41.7625ZM0.762959 43.2708C0.755968 43.2886 0.753638 43.775 0.757522 44.3517L0.764668 45.4003L0.770726 44.3324L0.77694 43.2647L2.29808 43.2577L3.81906 43.2509L2.29715 43.2447C1.09804 43.2397 0.772746 43.2453 0.762959 43.2708ZM7.85773 44.7854L7.85804 46.0734L8.21409 46.0746L8.57014 46.0757L8.22077 46.0673L7.87155 46.0591L7.86441 44.7781L7.85742 43.4973L7.85773 44.7854ZM37.4462 43.9374C37.4462 44.0157 37.451 44.0478 37.4569 44.0087C37.4629 43.9695 37.4629 43.9054 37.4569 43.8662C37.451 43.8271 37.4462 43.8591 37.4462 43.9374ZM11.5475 46.0605L11.1722 46.0755L11.5396 46.081C11.7626 46.0842 11.9132 46.0762 11.923 46.0605C11.9318 46.0462 11.9354 46.037 11.931 46.04C11.9265 46.0429 11.7539 46.0521 11.5475 46.0605ZM0.93679 46.0799C1.45906 46.0838 2.32123 46.0838 2.85282 46.0799C3.38425 46.076 2.9569 46.0727 1.90319 46.0727C0.849486 46.0727 0.41452 46.076 0.93679 46.0799ZM5.14602 46.0797C5.24933 46.0845 5.41819 46.0845 5.52149 46.0797C5.62464 46.0748 5.54013 46.0707 5.33368 46.0707C5.12723 46.0707 5.04272 46.0748 5.14602 46.0797ZM14.8034 46.0797C14.9065 46.0845 15.0755 46.0845 15.1787 46.0797C15.282 46.0748 15.1975 46.0707 14.991 46.0707C14.7846 46.0707 14.7001 46.0748 14.8034 46.0797ZM16.9782 46.0797C17.0813 46.0845 17.2504 46.0845 17.3535 46.0797C17.4568 46.0748 17.3723 46.0707 17.1659 46.0707C16.9594 46.0707 16.8749 46.0748 16.9782 46.0797ZM25.1856 46.0797C25.2889 46.0845 25.4577 46.0845 25.561 46.0797C25.6642 46.0748 25.5797 46.0707 25.3732 46.0707C25.1668 46.0707 25.0822 46.0748 25.1856 46.0797ZM28.0712 46.0796C28.1668 46.0845 28.3299 46.0847 28.4337 46.0797C28.5376 46.0748 28.4595 46.0707 28.2601 46.0707C28.0607 46.0706 27.9757 46.0746 28.0712 46.0796ZM30.2083 46.0797C30.3116 46.0845 30.4805 46.0845 30.5838 46.0797C30.6871 46.0748 30.6026 46.0707 30.3961 46.0707C30.1897 46.0707 30.1052 46.0748 30.2083 46.0797ZM33.0045 46.0797C33.1078 46.0845 33.2767 46.0845 33.38 46.0797C33.4833 46.0748 33.3988 46.0707 33.1924 46.0707C32.9859 46.0707 32.9014 46.0748 33.0045 46.0797ZM35.8008 46.0797C35.9041 46.0845 36.0729 46.0845 36.1762 46.0797C36.2795 46.0748 36.195 46.0707 35.9886 46.0707C35.7821 46.0707 35.6976 46.0748 35.8008 46.0797ZM42.6619 46.0797C42.7652 46.0845 42.934 46.0845 43.0374 46.0797C43.1405 46.0748 43.056 46.0707 42.8495 46.0707C42.6431 46.0707 42.5586 46.0748 42.6619 46.0797ZM45.5617 46.0797C45.6649 46.0845 45.8339 46.0845 45.937 46.0797C46.0403 46.0748 45.9558 46.0707 45.7494 46.0707C45.5429 46.0707 45.4584 46.0748 45.5617 46.0797ZM39.6718 46.1826C39.7113 46.1886 39.7695 46.1885 39.8014 46.1823C39.8332 46.176 39.8009 46.1712 39.7297 46.1714C39.6586 46.1717 39.6325 46.1767 39.6718 46.1826Z" fill="var(--fill-0, #8C9CC4)"/>
<path id="Vector_9" fill-rule="evenodd" clip-rule="evenodd" d="M59.8854 3.3272C59.9337 3.37707 59.9791 3.41777 59.9862 3.41777C59.9934 3.41777 59.9597 3.37707 59.9113 3.3272C59.863 3.27734 59.8177 3.23648 59.8105 3.23648C59.8034 3.23648 59.8371 3.27734 59.8854 3.3272ZM60.3514 3.79324C60.4288 3.87153 60.4979 3.93553 60.5051 3.93553C60.5121 3.93553 60.4547 3.87153 60.3774 3.79324C60.3 3.71479 60.2309 3.65079 60.2237 3.65079C60.2166 3.65079 60.2741 3.71479 60.3514 3.79324ZM60.7527 4.19449C60.8374 4.27993 60.9122 4.34984 60.9194 4.34984C60.9265 4.34984 60.8631 4.27993 60.7786 4.19449C60.6941 4.10905 60.6191 4.03915 60.612 4.03915C60.6048 4.03915 60.6682 4.10905 60.7527 4.19449ZM61.1541 4.59575C61.2315 4.67405 61.3004 4.7382 61.3076 4.7382C61.3147 4.7382 61.2573 4.67405 61.1799 4.59575C61.1025 4.51746 61.0336 4.45345 61.0264 4.45345C61.0193 4.45345 61.0767 4.51746 61.1541 4.59575ZM61.5554 4.99716C61.6399 5.0826 61.7149 5.15251 61.722 5.15251C61.7292 5.15251 61.6658 5.0826 61.5813 4.99716C61.4966 4.91172 61.4218 4.84182 61.4146 4.84182C61.4075 4.84182 61.4709 4.91172 61.5554 4.99716ZM62.0214 5.4632C62.077 5.52005 62.1283 5.56666 62.1354 5.56666C62.1426 5.56666 62.103 5.52005 62.0473 5.4632C61.9917 5.40619 61.9403 5.35958 61.9332 5.35958C61.9262 5.35958 61.9658 5.40619 62.0214 5.4632ZM50.7711 5.76736L50.6035 5.94213L50.7783 5.77451C50.9406 5.61901 50.9649 5.5926 50.9459 5.5926C50.9419 5.5926 50.8633 5.67121 50.7711 5.76736ZM50.3828 6.15573L50.2152 6.33049L50.3899 6.16287C50.5523 6.00737 50.5765 5.98096 50.5575 5.98096C50.5535 5.98096 50.4749 6.05957 50.3828 6.15573ZM61.6055 6.11689L61.5294 6.20109L61.6136 6.12497C61.6921 6.05413 61.7096 6.03269 61.6897 6.03269C61.6852 6.03269 61.6473 6.0706 61.6055 6.11689ZM49.9815 6.55698L49.8009 6.7448L49.9887 6.56413C50.163 6.39651 50.1881 6.36933 50.1692 6.36933C50.1651 6.36933 50.0808 6.45383 49.9815 6.55698ZM49.5809 6.95187C49.4748 7.05875 49.3939 7.14605 49.4008 7.14605C49.408 7.14605 49.5006 7.05875 49.6067 6.95187C49.7128 6.84515 49.7937 6.75769 49.7867 6.75769C49.7796 6.75769 49.687 6.84515 49.5809 6.95187ZM49.2815 7.25604L49.2054 7.34023L49.2896 7.26411C49.3681 7.19328 49.3856 7.172 49.3656 7.172C49.3611 7.172 49.3233 7.20974 49.2815 7.25604ZM49.0875 7.45022L48.9983 7.54731L49.0954 7.45814C49.1487 7.40905 49.1925 7.3654 49.1925 7.36105C49.1925 7.34132 49.1706 7.35996 49.0875 7.45022ZM48.8804 7.65745L48.7911 7.75454L48.8882 7.66522C48.9416 7.61613 48.9853 7.57248 48.9853 7.56813C48.9853 7.5484 48.9634 7.56704 48.8804 7.65745ZM48.6602 7.87742L48.584 7.96162L48.6682 7.8855C48.7145 7.84371 48.7523 7.80596 48.7523 7.80145C48.7523 7.78141 48.731 7.79897 48.6602 7.87742ZM48.4789 8.05871L48.4028 8.1429L48.4869 8.06678C48.5332 8.025 48.5711 7.98709 48.5711 7.98259C48.5711 7.9627 48.5497 7.98026 48.4789 8.05871ZM48.2718 8.26578L48.1957 8.34998L48.2799 8.27386C48.3583 8.20302 48.3759 8.18174 48.3558 8.18174C48.3513 8.18174 48.3136 8.21949 48.2718 8.26578ZM48.0646 8.47301L47.9886 8.55705L48.0726 8.48109C48.1511 8.41025 48.1688 8.38881 48.1488 8.38881C48.1443 8.38881 48.1064 8.42672 48.0646 8.47301ZM47.8834 8.65414L47.8073 8.73834L47.8915 8.66222C47.97 8.59138 47.9875 8.5701 47.9675 8.5701C47.963 8.5701 47.9252 8.60785 47.8834 8.65414ZM47.6762 8.86137L47.6002 8.94542L47.6843 8.86945C47.7627 8.79862 47.7804 8.77718 47.7604 8.77718C47.7559 8.77718 47.718 8.81508 47.6762 8.86137ZM47.4691 9.06845L47.393 9.15265L47.4772 9.07653C47.5557 9.00569 47.5732 8.98425 47.5533 8.98425C47.5488 8.98425 47.5109 9.02216 47.4691 9.06845ZM47.2621 9.27552L47.1859 9.35972L47.2701 9.2836C47.3164 9.24181 47.3542 9.20407 47.3542 9.19956C47.3542 9.17952 47.3329 9.19708 47.2621 9.27552ZM46.8737 9.66389L46.7976 9.74808L46.8818 9.67197C46.9602 9.60113 46.9778 9.57985 46.9577 9.57985C46.9532 9.57985 46.9155 9.61759 46.8737 9.66389ZM46.4594 10.0782L46.3833 10.1624L46.4675 10.0863C46.5459 10.0154 46.5635 9.994 46.5436 9.994C46.5391 9.994 46.5012 10.0319 46.4594 10.0782ZM46.071 10.4666L45.9949 10.5508L46.0791 10.4746C46.1575 10.4038 46.1751 10.3824 46.1552 10.3824C46.1507 10.3824 46.1128 10.4203 46.071 10.4666ZM45.6567 10.8809L45.5808 10.9649L45.6648 10.8889C45.7432 10.8181 45.761 10.7967 45.7409 10.7967C45.7364 10.7967 45.6985 10.8346 45.6567 10.8809ZM45.4756 11.062L45.3995 11.1462L45.4837 11.0701C45.53 11.0283 45.5677 10.9905 45.5677 10.986C45.5677 10.966 45.5464 10.9835 45.4756 11.062ZM47.8068 15.4053C47.8068 16.8649 47.81 17.4619 47.8138 16.7321C47.8176 16.0023 47.8176 14.8081 47.8138 14.0783C47.81 13.3485 47.8068 13.9457 47.8068 15.4053ZM31.8521 20.2339C31.8524 20.2909 31.8577 20.3111 31.8639 20.2789C31.8701 20.2466 31.8698 20.2 31.8635 20.1753C31.8569 20.1506 31.8518 20.1769 31.8521 20.2339ZM31.8521 27.5351C31.8524 27.5921 31.8577 27.6123 31.8639 27.5802C31.8701 27.5478 31.8698 27.5012 31.8635 27.4765C31.8569 27.4518 31.8518 27.4781 31.8521 27.5351ZM18.2788 32.7392C18.3562 32.8175 18.4252 32.8816 18.4323 32.8816C18.4395 32.8816 18.382 32.8175 18.3046 32.7392C18.2273 32.6609 18.1583 32.5967 18.1511 32.5967C18.144 32.5967 18.2015 32.6609 18.2788 32.7392ZM27.7016 33.9108L27.6124 34.0079L27.7095 33.9186C27.763 33.8695 27.8066 33.8258 27.8066 33.8215C27.8066 33.8017 27.7847 33.8204 27.7016 33.9108ZM43.418 34.1438L43.2506 34.3186L43.4253 34.1509C43.5877 33.9953 43.6119 33.969 43.5928 33.969C43.5889 33.969 43.5102 34.0476 43.418 34.1438ZM27.2104 34.4026L27.0428 34.5774L27.2176 34.4099C27.3799 34.2543 27.4043 34.2278 27.3852 34.2278C27.3811 34.2278 27.3025 34.3066 27.2104 34.4026ZM43.0168 34.5451L42.8363 34.7327L43.0239 34.5522C43.1984 34.3846 43.2235 34.3574 43.2046 34.3574C43.2006 34.3574 43.116 34.4418 43.0168 34.5451Z" fill="var(--fill-0, #C6D4BC)"/>
</g>
</svg>
