<svg preserveAspectRatio="xMidYMid meet" width="106" height="40" viewBox="0 0 106 40" fill="none" xmlns="http://www.w3.org/2000/svg">
<g id="logo (3) 1" clip-path="url(#clip0_0_7)">
<path id="Vector" d="M2.51071 39.5606C2.00276 39.5606 1.5577 39.4683 1.17553 39.2837C0.798201 39.0991 0.507946 38.8393 0.304768 38.5041C0.101589 38.169 0 37.7829 0 37.3457C0 36.7677 0.130615 36.248 0.391844 35.7866C0.657911 35.3203 1.03041 34.9536 1.50933 34.6864C1.98825 34.4193 2.53731 34.2857 3.15652 34.2857C3.61126 34.2857 4.01278 34.3634 4.36108 34.5189C4.70939 34.6743 4.97304 34.8977 5.15203 35.1891L4.30303 35.8886C4.03213 35.4903 3.62335 35.2911 3.0767 35.2911C2.70421 35.2911 2.37525 35.3786 2.08984 35.5534C1.80442 35.7283 1.58189 35.9663 1.42225 36.2674C1.26745 36.5686 1.19005 36.9037 1.19005 37.2729C1.19005 37.6663 1.3134 37.9796 1.56012 38.2127C1.81168 38.441 2.1624 38.5551 2.6123 38.5551C3.14927 38.5551 3.59916 38.3584 3.96198 37.965L4.65859 38.679C4.15548 39.2667 3.43952 39.5606 2.51071 39.5606Z" fill="var(--fill-0, #105196)"/>
<path id="Vector_2" d="M6.89021 39.5606C6.48869 39.5606 6.10411 39.5071 5.73645 39.4003C5.36879 39.2934 5.0737 39.1574 4.85117 38.9923L5.33009 38.0816C5.5623 38.2516 5.82353 38.3827 6.11378 38.475C6.40404 38.5673 6.70155 38.6134 7.00632 38.6134C7.33043 38.6134 7.58683 38.56 7.77549 38.4531C7.96416 38.3463 8.05849 38.2006 8.05849 38.016C8.05849 37.8654 7.98351 37.7513 7.83354 37.6736C7.68358 37.591 7.44412 37.5036 7.11516 37.4113C6.78621 37.3141 6.51772 37.2219 6.3097 37.1344C6.10169 37.0421 5.92028 36.9061 5.76548 36.7264C5.61551 36.5467 5.54053 36.3087 5.54053 36.0124C5.54053 35.6676 5.63486 35.364 5.82353 35.1017C6.01703 34.8394 6.28793 34.6379 6.63624 34.497C6.98938 34.3561 7.39816 34.2857 7.86257 34.2857C8.20604 34.2857 8.53015 34.3246 8.83492 34.4023C9.13969 34.4751 9.40092 34.582 9.61861 34.7229L9.17597 35.6263C8.98731 35.4951 8.77445 35.398 8.53741 35.3349C8.30037 35.2669 8.05365 35.2329 7.79726 35.2329C7.46347 35.2329 7.19982 35.2911 7.00632 35.4077C6.81281 35.5243 6.71606 35.6749 6.71606 35.8594C6.71606 35.9711 6.75718 36.0659 6.83942 36.1436C6.92166 36.2164 7.02567 36.2771 7.15144 36.3257C7.27722 36.3694 7.45379 36.4229 7.68116 36.486C8.00528 36.5734 8.27134 36.6633 8.47936 36.7556C8.68738 36.843 8.86395 36.9741 9.00908 37.149C9.15904 37.319 9.23402 37.5449 9.23402 37.8266C9.23402 38.1763 9.13727 38.4823 8.94377 38.7446C8.75026 39.002 8.47694 39.2036 8.1238 39.3493C7.77065 39.4901 7.35946 39.5606 6.89021 39.5606Z" fill="var(--fill-0, #105196)"/>
<path id="Vector_3" d="M14.616 37.1271C14.4371 37.5789 14.2097 37.9771 13.9339 38.322L14.3911 38.8466L13.6364 39.5606L13.172 39.036C12.6592 39.3857 12.0932 39.5606 11.474 39.5606C11.1209 39.5606 10.8065 39.5096 10.5307 39.4076C10.2598 39.3007 10.0469 39.1526 9.89215 38.9631C9.74218 38.7689 9.6672 38.5406 9.6672 38.2783C9.6672 37.9286 9.78572 37.6226 10.0228 37.3603C10.2646 37.0931 10.6178 36.8479 11.0822 36.6244C10.8693 36.3379 10.7629 36.0464 10.7629 35.7501C10.7629 35.4587 10.8379 35.2037 10.9879 34.9851C11.1427 34.7666 11.3483 34.599 11.6047 34.4824C11.8659 34.3659 12.1537 34.3076 12.4682 34.3076C12.8745 34.3076 13.2035 34.3999 13.455 34.5844C13.7114 34.769 13.8396 35.024 13.8396 35.3494C13.8396 35.6603 13.7332 35.9299 13.5203 36.1581C13.3123 36.3816 12.9979 36.5929 12.577 36.792L13.3317 37.6444C13.501 37.4064 13.6413 37.1393 13.7525 36.843L14.616 37.1271ZM12.4246 35.0799C12.236 35.0799 12.0836 35.1309 11.9675 35.2329C11.8562 35.3349 11.8006 35.4709 11.8006 35.6409C11.8006 35.7234 11.8199 35.8084 11.8586 35.8959C11.9022 35.9833 11.9723 36.0877 12.0691 36.2091C12.3787 36.0683 12.5915 35.942 12.7076 35.8303C12.8237 35.7137 12.8818 35.585 12.8818 35.4441C12.8818 35.3373 12.8407 35.2499 12.7584 35.1819C12.6762 35.1139 12.5649 35.0799 12.4246 35.0799ZM11.6192 38.6717C11.9578 38.6717 12.2843 38.5721 12.5988 38.373L11.5901 37.2219C11.3192 37.353 11.1185 37.4866 10.9879 37.6226C10.8621 37.7537 10.7992 37.9067 10.7992 38.0816C10.7992 38.2564 10.8693 38.3997 11.0096 38.5114C11.1548 38.6183 11.3579 38.6717 11.6192 38.6717Z" fill="var(--fill-0, #105196)"/>
<path id="Vector_4" d="M16.0422 34.3731H17.225L16.2091 39.4731H15.0263L16.0422 34.3731Z" fill="var(--fill-0, #105196)"/>
<path id="Vector_5" d="M19.4028 35.3203L19.1851 36.4277H21.5435L21.3621 37.3457H18.9965L18.7643 38.526H21.5362L21.3403 39.4731H17.4073L18.4232 34.3731H22.2618L22.0659 35.3203H19.4028Z" fill="var(--fill-0, #105196)"/>
<path id="Vector_6" d="M25.3465 34.3731H27.4726C27.9903 34.3731 28.4353 34.4606 28.8078 34.6354C29.1851 34.8054 29.473 35.0507 29.6713 35.3713C29.8745 35.6919 29.9761 36.0683 29.9761 36.5006C29.9761 37.0931 29.8431 37.6153 29.577 38.067C29.3109 38.5139 28.9384 38.8611 28.4595 39.1089C27.9854 39.3517 27.4364 39.4731 26.8123 39.4731H24.3306L25.3465 34.3731ZM26.8486 38.5041C27.2453 38.5041 27.5887 38.4216 27.879 38.2564C28.1741 38.0864 28.399 37.8557 28.5538 37.5643C28.7086 37.268 28.786 36.9353 28.786 36.5661C28.786 36.1824 28.6627 35.8837 28.416 35.67C28.1692 35.4514 27.8113 35.3421 27.342 35.3421H26.3334L25.7021 38.5041H26.8486Z" fill="var(--fill-0, #105196)"/>
<path id="Vector_7" d="M33.8684 38.3803H31.5028L30.8425 39.4731H29.5872L32.8743 34.3731H34.0353L35.2834 39.4731H34.1079L33.8684 38.3803ZM33.6725 37.4841L33.2444 35.517L32.0471 37.4841H33.6725Z" fill="var(--fill-0, #105196)"/>
<path id="Vector_8" d="M37.4275 35.3349H35.802L35.998 34.3731H40.4243L40.2284 35.3349H38.6102L37.783 39.4731H36.6075L37.4275 35.3349Z" fill="var(--fill-0, #105196)"/>
<path id="Vector_9" d="M43.3995 38.3803H41.0339L40.3736 39.4731H39.1183L42.4054 34.3731H43.5664L44.8145 39.4731H43.639L43.3995 38.3803ZM43.2036 37.4841L42.7755 35.517L41.5782 37.4841H43.2036Z" fill="var(--fill-0, #105196)"/>
<path id="Vector_10" d="M50.0669 39.5606C49.559 39.5606 49.1139 39.4683 48.7318 39.2837C48.3543 39.0991 48.0642 38.8393 47.861 38.5041C47.6578 38.169 47.5562 37.7829 47.5562 37.3457C47.5562 36.7677 47.6868 36.248 47.9481 35.7866C48.2141 35.3203 48.5866 34.9536 49.0655 34.6864C49.5445 34.4193 50.0935 34.2857 50.7127 34.2857C51.1674 34.2857 51.5689 34.3634 51.9173 34.5189C52.2656 34.6743 52.5292 34.8977 52.7082 35.1891L51.8593 35.8886C51.5883 35.4903 51.1796 35.2911 50.6329 35.2911C50.2604 35.2911 49.9315 35.3786 49.6461 35.5534C49.3606 35.7283 49.1381 35.9663 48.9785 36.2674C48.8237 36.5686 48.7463 36.9037 48.7463 37.2729C48.7463 37.6663 48.8696 37.9796 49.1163 38.2127C49.3679 38.441 49.7186 38.5551 50.1685 38.5551C50.7055 38.5551 51.1554 38.3584 51.5182 37.965L52.2148 38.679C51.7117 39.2667 50.9957 39.5606 50.0669 39.5606Z" fill="var(--fill-0, #105196)"/>
<path id="Vector_11" d="M55.2461 39.5606C54.7382 39.5606 54.298 39.4683 53.9255 39.2837C53.553 39.0991 53.2676 38.8393 53.0692 38.5041C52.8709 38.169 52.7717 37.7829 52.7717 37.3457C52.7717 36.7677 52.9023 36.248 53.1636 35.7866C53.4296 35.3203 53.7997 34.9536 54.2738 34.6864C54.7527 34.4193 55.2993 34.2857 55.9137 34.2857C56.4217 34.2857 56.8619 34.378 57.2344 34.5626C57.6069 34.7471 57.8923 35.007 58.0906 35.3421C58.289 35.6773 58.3881 36.0634 58.3881 36.5006C58.3881 37.0786 58.2551 37.6007 57.989 38.067C57.7278 38.5284 57.3577 38.8927 56.8788 39.1599C56.4047 39.427 55.8605 39.5606 55.2461 39.5606ZM55.3477 38.5551C55.7202 38.5551 56.0468 38.4653 56.3273 38.2856C56.6079 38.1059 56.8232 37.8654 56.9732 37.5643C57.1231 37.2631 57.1981 36.9304 57.1981 36.5661C57.1981 36.1776 57.0772 35.8691 56.8353 35.6409C56.5934 35.4077 56.2524 35.2911 55.8121 35.2911C55.4396 35.2911 55.1131 35.381 54.8325 35.5607C54.5519 35.7404 54.3367 35.9809 54.1867 36.282C54.0367 36.5831 53.9618 36.9159 53.9618 37.2801C53.9618 37.6687 54.0827 37.9796 54.3246 38.2127C54.5665 38.441 54.9075 38.5551 55.3477 38.5551Z" fill="var(--fill-0, #105196)"/>
<path id="Vector_12" d="M64.4092 34.3731L63.3933 39.4731H62.4282L60.5343 36.282L59.8957 39.4731H58.7347L59.7506 34.3731H60.7229L62.6168 37.5716L63.2481 34.3731H64.4092Z" fill="var(--fill-0, #105196)"/>
<path id="Vector_13" d="M66.3655 39.5606C65.964 39.5606 65.5794 39.5071 65.2118 39.4003C64.8441 39.2934 64.549 39.1574 64.3265 38.9923L64.8054 38.0816C65.0376 38.2516 65.2988 38.3827 65.5891 38.475C65.8794 38.5673 66.1769 38.6134 66.4816 38.6134C66.8058 38.6134 67.0621 38.56 67.2508 38.4531C67.4395 38.3463 67.5338 38.2006 67.5338 38.016C67.5338 37.8654 67.4588 37.7513 67.3089 37.6736C67.1589 37.591 66.9194 37.5036 66.5905 37.4113C66.2615 37.3141 65.993 37.2219 65.785 37.1344C65.577 37.0421 65.3956 36.9061 65.2408 36.7264C65.0908 36.5467 65.0158 36.3087 65.0158 36.0124C65.0158 35.6676 65.1103 35.364 65.2988 35.1017C65.4924 34.8394 65.7633 34.6379 66.1116 34.497C66.4647 34.3561 66.8735 34.2857 67.3379 34.2857C67.6814 34.2857 68.0055 34.3246 68.3102 34.4023C68.615 34.4751 68.8762 34.582 69.0939 34.7229L68.6513 35.6263C68.4626 35.4951 68.2498 35.398 68.0127 35.3349C67.7757 35.2669 67.529 35.2329 67.2726 35.2329C66.9388 35.2329 66.6751 35.2911 66.4816 35.4077C66.2881 35.5243 66.1914 35.6749 66.1914 35.8594C66.1914 35.9711 66.2325 36.0659 66.3147 36.1436C66.397 36.2164 66.501 36.2771 66.6268 36.3257C66.7526 36.3694 66.9291 36.4229 67.1565 36.486C67.4806 36.5734 67.7467 36.6633 67.9547 36.7556C68.1627 36.843 68.3393 36.9741 68.4844 37.149C68.6344 37.319 68.7093 37.5449 68.7093 37.8266C68.7093 38.1763 68.6127 38.4823 68.4191 38.7446C68.2256 39.002 67.9523 39.2036 67.5991 39.3493C67.246 39.4901 66.8348 39.5606 66.3655 39.5606Z" fill="var(--fill-0, #105196)"/>
<path id="Vector_14" d="M71.6169 39.5606C70.9784 39.5606 70.4777 39.4027 70.1149 39.087C69.7521 38.7664 69.5706 38.3293 69.5706 37.7756C69.5706 37.6153 69.59 37.4331 69.6287 37.2291L70.1947 34.3731H71.3778L70.8115 37.2073C70.7825 37.3676 70.7679 37.5109 70.7679 37.6371C70.7679 37.9431 70.8502 38.1739 71.0147 38.3293C71.1843 38.4799 71.4283 38.5551 71.7478 38.5551C72.1056 38.5551 72.3909 38.4483 72.6036 38.2346C72.817 38.0209 72.9714 37.6784 73.0681 37.2073L73.6344 34.3731H74.7883L74.2149 37.2801C73.9055 38.8004 73.039 39.5606 71.6169 39.5606Z" fill="var(--fill-0, #105196)"/>
<path id="Vector_15" d="M75.9572 34.3731H77.1395L76.3122 38.5114H78.8597L78.6634 39.4731H74.9413L75.9572 34.3731Z" fill="var(--fill-0, #105196)"/>
<path id="Vector_16" d="M80.7179 35.3349H79.0924L79.288 34.3731H83.7144L83.5188 35.3349H81.9003L81.0729 39.4731H79.8977L80.7179 35.3349Z" fill="var(--fill-0, #105196)"/>
<path id="Vector_17" d="M84.3468 34.3731H85.5299L84.514 39.4731H83.3309L84.3468 34.3731Z" fill="var(--fill-0, #105196)"/>
<path id="Vector_18" d="M91.3869 34.3731L90.371 39.4731H89.4057L87.5119 36.282L86.873 39.4731H85.712L86.7279 34.3731H87.7004L89.5942 37.5716L90.2259 34.3731H91.3869Z" fill="var(--fill-0, #105196)"/>
<path id="Vector_19" d="M95.5345 36.843H96.6087L96.1875 38.9413C95.9314 39.1404 95.6341 39.2934 95.2954 39.4003C94.9568 39.5071 94.6061 39.5606 94.2432 39.5606C93.7353 39.5606 93.2921 39.4683 92.915 39.2837C92.538 39.0991 92.2449 38.8393 92.0372 38.5041C91.8337 38.169 91.732 37.7829 91.732 37.3457C91.732 36.7677 91.865 36.2456 92.1311 35.7793C92.3971 35.313 92.7721 34.9487 93.2558 34.6864C93.7396 34.4193 94.2959 34.2857 94.9248 34.2857C95.4085 34.2857 95.8276 34.361 96.1804 34.5116C96.5383 34.6621 96.8264 34.8831 97.0441 35.1746L96.2025 35.8594C96.0332 35.6603 95.8418 35.517 95.6291 35.4296C95.4164 35.3373 95.1645 35.2911 94.8743 35.2911C94.4873 35.2911 94.1465 35.3786 93.8513 35.5534C93.556 35.7234 93.3262 35.959 93.1619 36.2601C93.0018 36.5613 92.9222 36.8989 92.9222 37.2729C92.9222 37.6663 93.0481 37.9796 93.2999 38.2127C93.556 38.441 93.921 38.5551 94.3955 38.5551C94.695 38.5551 94.976 38.4944 95.2371 38.373L95.5345 36.843Z" fill="var(--fill-0, #105196)"/>
<path id="Vector_20" fill-rule="evenodd" clip-rule="evenodd" d="M72.0487 0L72.3774 0.0159521L72.6897 0.0398789L73.002 0.0797593L73.3065 0.127614L73.5953 0.207374L73.8756 0.295109L74.1481 0.390819L74.4042 0.510457L74.6446 0.638071L74.8851 0.781636L75.1099 0.941157L75.3176 1.10067L75.5182 1.28412L75.7025 1.47554L75.8789 1.68291L76.0312 1.89029L76.1749 2.11361L76.3115 2.34491L76.4317 2.59216L76.5356 2.83942L76.6238 3.10262L76.6963 3.37381L76.7518 3.64499L76.7924 3.93211L76.8158 4.22722L76.8322 4.52233L76.8244 4.82541L76.808 5.13648L76.7604 5.44754L76.7042 5.77455L76.6316 6.10156L76.5356 6.42857L76.4317 6.75559L76.3036 7.0826L76.1592 7.40164L76.007 7.72064L75.8384 8.03171L75.6541 8.33479L75.462 8.62993L75.2621 8.925L75.0452 9.21214L74.8132 9.48336L74.5728 9.7545L74.3323 10.0177L74.0677 10.2729L73.8037 10.5122L73.5234 10.7435L73.2424 10.9669L72.9543 11.1822L72.6498 11.3896L72.3532 11.573L72.0487 11.7565L71.7286 11.924L71.4155 12.0755L71.0874 12.2191L70.7669 12.3467L70.4383 12.4584L70.1019 12.5621L69.7654 12.6498L69.4368 12.7216L69.1003 12.7774L68.7638 12.8252L68.4273 12.8412L68.0988 12.8571L67.7703 12.8412L67.4418 12.8252L67.1373 12.7774L66.8408 12.7216L66.5444 12.6498L66.2639 12.5621L65.9996 12.4584L65.7432 12.3467L65.4948 12.2191L65.2624 12.0755L65.0381 11.924L64.8218 11.7565L64.6295 11.573L64.4372 11.3896L64.2609 11.1822L64.1006 10.9669L63.9564 10.7435L63.8282 10.5122L63.7081 10.2729L63.6119 10.0177L63.5158 9.7545L63.4436 9.48336L63.3876 9.21214L63.3475 8.925L63.3154 8.62993V8.33479V8.03171L63.3395 7.72064L63.3795 7.40164L63.4356 7.0826L63.5077 6.75559L63.6038 6.42857L63.716 6.10156L63.8442 5.77455L63.9805 5.44754L64.1327 5.13648L64.3009 4.82541L64.4772 4.52233L64.6775 4.22722L64.8859 3.93211L65.1022 3.64499L65.3265 3.37381L65.5669 3.10262L65.8153 2.83942L66.0716 2.59216L66.3441 2.34491L66.6165 2.11361L66.897 1.89029L67.1854 1.68291L67.4819 1.47554L67.7863 1.28412L68.0988 1.10067L68.4113 0.941157L68.7318 0.781636L69.0522 0.638071L69.3808 0.510457L69.7093 0.390819L70.0378 0.295109L70.3663 0.207374L70.7028 0.127614L71.0393 0.0797593L71.3757 0.0398789L71.7122 0.0159521L72.0487 0Z" fill="var(--fill-0, #DA251D)"/>
<path id="Vector_21" fill-rule="evenodd" clip-rule="evenodd" d="M62.986 4.39324L63.026 4.24841L63.0501 4.10358L63.0661 3.96679L63.0741 3.83001V3.70126L63.0661 3.57252L63.0501 3.44379L63.0341 3.31504L63.002 3.2024L62.962 3.08975L62.9139 2.97711L62.8579 2.8725L62.8018 2.77595L62.7377 2.67939L62.6656 2.58284L62.5936 2.48629L62.5135 2.39778L62.4254 2.31731L62.3293 2.23685L62.2332 2.15639L62.1371 2.09202L62.033 2.01961L61.9369 1.95524L61.8248 1.89891L61.7207 1.84259L61.6086 1.78626L61.4964 1.72994L61.3763 1.68166L61.136 1.59315L60.8958 1.52074L60.3031 1.34372L59.7025 1.17475L59.0939 1.01383L58.4852 0.868993L57.8766 0.74025L57.2599 0.611514L56.6432 0.498867L56.0266 0.394265L55.4099 0.305758L54.7852 0.225295L54.1606 0.160925L53.5279 0.104602L52.8872 0.0643698L52.2466 0.0321856L51.5978 0.0160929L50.9411 0L50.2844 0.00804643L49.6277 0.0241392L48.963 0.0482769L48.2903 0.0885093L47.6175 0.144832L46.9369 0.209202L46.2481 0.281619L45.5513 0.370127L44.8547 0.474728L44.1499 0.587374L43.4371 0.716114L42.7243 0.8529L41.9956 1.00578L41.2668 1.16671L40.538 1.34372L39.7932 1.53683L39.5049 1.60924L39.2246 1.69776L38.9363 1.79431L38.648 1.90696L38.5118 1.96328L38.3757 2.02765L38.2395 2.10006L38.1034 2.16444L37.9673 2.2449L37.8391 2.32536L37.711 2.40582L37.5828 2.49433L37.4547 2.59089L37.3346 2.68744L37.2145 2.78399L37.1024 2.88055L36.9982 2.98515L36.8941 3.0978L36.798 3.21045L36.7019 3.32309L36.6058 3.45184L36.5257 3.58057L36.4456 3.70931L36.3735 3.83805L36.3175 3.96679L36.2614 4.10358L36.2053 4.24841L36.1654 4.39324L32.6976 16.9051H42.42L41.1947 21.3466H48.5866L49.2513 18.9409H46.6085H44.5022L45.7356 14.5074H40.9865L42.7804 8.03821H54.3688L53.1435 12.4797H60.7596L62.986 4.39324ZM32.137 18.9409L29.9026 27.0273L29.8626 27.1721L29.8386 27.3169L29.8226 27.4537L29.8145 27.5825V27.7112L29.8226 27.8399L29.8386 27.9687L29.8546 28.0894L29.8866 28.2021L29.9266 28.3147L29.9667 28.4274L30.0228 28.5239L30.0788 28.6285L30.1349 28.725L30.2069 28.8216L30.279 28.9101L30.3591 28.9986L30.4472 29.0871L30.5353 29.1676L30.6314 29.24L30.7275 29.3124L30.8236 29.3849L30.9277 29.4492L31.0318 29.5055L31.1439 29.5619L31.2561 29.6181L31.3682 29.6745L31.4883 29.7228L31.6084 29.7791L31.7286 29.8194L31.8487 29.8596L31.9688 29.8998L32.6176 30.0929L33.2583 30.2619L33.8989 30.4309L34.5396 30.5837L35.1883 30.7205L35.8289 30.8492L36.4696 30.9619L37.1184 31.0584L37.767 31.1469L38.4077 31.2194L39.0564 31.2837L39.6891 31.324L40.3378 31.3642L40.9865 31.3884L41.6432 31.4044L42.2999 31.4125L42.9566 31.3964L43.6133 31.3803L44.27 31.3481L44.9267 31.3079L45.5914 31.2516L46.2561 31.1872L46.9208 31.1067L47.5936 31.0101L48.2663 30.9136L48.939 30.8009L49.6197 30.6803L50.3085 30.5435L50.9972 30.3986L51.6859 30.2458L52.3826 30.0768L53.0794 29.8998L53.3597 29.8194L53.64 29.7228L53.9203 29.6262L54.2086 29.5055L54.3448 29.4492L54.4809 29.3849L54.617 29.3124L54.7532 29.24L54.8813 29.1676L55.0175 29.0871L55.1456 28.9986L55.2737 28.9101L55.4019 28.8136L55.522 28.717L55.6422 28.6204L55.7543 28.5159L55.8664 28.4193L55.9705 28.3066L56.0666 28.194L56.1627 28.0814L56.2588 27.9606L56.3469 27.8319L56.427 27.7031L56.4991 27.5744L56.5632 27.4457L56.6192 27.3089L56.6753 27.1641L56.7153 27.0192L60.183 14.4993H50.4606L51.6859 10.0578H44.294L43.6373 12.4636H48.3784L47.1531 16.8971H51.8941L50.1002 23.3662H38.5198L39.7452 18.9247H32.137V18.9409ZM105.912 4.39324L105.952 4.24841L105.976 4.10358L105.992 3.96679L106 3.83001V3.70126L105.992 3.57252L105.976 3.44379L105.96 3.31504L105.928 3.2024L105.888 3.08975L105.84 2.97711L105.784 2.8725L105.728 2.77595L105.664 2.67939L105.592 2.58284L105.52 2.48629L105.439 2.39778L105.351 2.31731L105.255 2.23685L105.159 2.15639L105.063 2.09202L104.967 2.01961L104.862 1.95524L104.759 1.89891L104.655 1.84259L104.542 1.78626L104.422 1.72994L104.31 1.68166L104.07 1.59315L103.83 1.52074L103.237 1.34372L102.636 1.17475L102.027 1.01383L101.419 0.868993L100.81 0.74025L100.193 0.611514L99.5774 0.498867L98.9606 0.394265L98.3438 0.305758L97.7192 0.225295L97.0868 0.160925L96.4536 0.104602L95.8212 0.0643698L95.1802 0.0321856L94.5321 0.0160929L93.8747 0L93.2181 0.00804643L92.5615 0.0241392L91.897 0.0482769L91.224 0.0885093L90.5518 0.144832L89.8631 0.209202L89.1738 0.281619L88.4773 0.370127L87.7808 0.474728L87.0758 0.587374L86.363 0.716114L85.6501 0.8529L84.9217 1.00578L84.1925 1.16671L83.464 1.34372L82.7191 1.53683L82.431 1.60924L82.1422 1.69776L81.8619 1.79431L81.5738 1.90696L81.4379 1.96328L81.2935 2.02765L81.1576 2.10006L81.0295 2.16444L80.8929 2.2449L80.7649 2.32536L80.6368 2.40582L80.5088 2.49433L80.3807 2.59089L80.2605 2.68744L80.1403 2.78399L80.0279 2.88055L79.924 2.98515L79.8201 3.0978L79.7241 3.21045L79.6281 3.32309L79.532 3.45184L79.4516 3.58057L79.3712 3.70931L79.2994 3.83805L79.2432 3.96679L79.187 4.10358L79.1315 4.24841L79.0831 4.39324L76.8571 12.4716H84.4728L85.6985 8.03014H97.2945L95.5089 14.4993H90.7595L89.5344 18.9328H84.7936L84.1284 21.3386H101.243L105.912 4.39324ZM76.288 14.5074L72.8206 27.0273L72.7807 27.1721L72.7566 27.3169L72.7402 27.4537L72.7324 27.5825V27.7112L72.7402 27.8399L72.7566 27.9687L72.7807 28.0894L72.8128 28.2021L72.8448 28.3147L72.8924 28.4274L72.9486 28.5239L73.0048 28.6285L73.061 28.725L73.1329 28.8216L73.2047 28.9181L73.2851 29.0066L73.3733 29.0951L73.4609 29.1756L73.5576 29.2481L73.6536 29.3204L73.7497 29.3929L73.8536 29.4572L73.9574 29.5136L74.0698 29.5699L74.1822 29.6262L74.2939 29.6826L74.4141 29.7308L74.5344 29.7871L74.6546 29.8274L74.7748 29.8676L74.8951 29.9079L75.5431 30.1009L76.1841 30.2699L76.8251 30.4389L77.4654 30.5918L78.1142 30.7286L78.7552 30.8573L79.3954 30.9699L80.0442 31.0665L80.693 31.155L81.3333 31.2274L81.9821 31.2918L82.6309 31.3401L83.2875 31.3803L83.9364 31.4044L84.593 31.4205L85.2496 31.4286L85.9062 31.4125L86.5629 31.3964L87.2202 31.3642L87.8769 31.324L88.5335 31.2676L89.1979 31.2033L89.8709 31.1228L90.5354 31.0263L91.2162 30.9297L91.8892 30.8171L92.5693 30.6964L93.2587 30.5596L93.9473 30.4148L94.636 30.2619L95.3324 30.0929L96.0296 29.9159L96.3099 29.8354L96.5902 29.7389L96.8705 29.6423L97.1508 29.5216L97.2945 29.4653L97.4311 29.4009L97.567 29.3285L97.7028 29.2561L97.8316 29.1836L97.9597 29.1032L98.0877 29.0147L98.2158 28.9262L98.3438 28.8296L98.464 28.7331L98.5843 28.6365L98.696 28.5319L98.8084 28.4354L98.9122 28.3227L99.0083 28.2101L99.1043 28.0974L99.2011 27.9767L99.2886 27.848L99.369 27.7193L99.4408 27.5905L99.5048 27.4618L99.561 27.325L99.6094 27.1801L99.6571 27.0354L100.667 23.3904H81.4535L83.2399 16.9212H87.9885L89.2143 12.4877H93.9551L94.6196 10.0819H87.228L86.0023 14.5234H76.288V14.5074ZM33.8989 4.39324L33.9389 4.24841L33.963 4.10358L33.979 3.96679L33.987 3.83001V3.70126L33.979 3.57252L33.963 3.44379L33.947 3.31504L33.915 3.2024L33.8749 3.08975L33.8268 2.97711L33.7707 2.8725L33.7147 2.77595L33.6507 2.67939L33.5785 2.58284L33.5065 2.48629L33.4264 2.39778L33.3383 2.31731L33.2422 2.23685L33.1461 2.15639L33.05 2.09202L32.9539 2.01961L32.8498 1.95524L32.7457 1.89891L32.6415 1.84259L32.5294 1.78626L32.4093 1.72994L32.2972 1.68166L32.057 1.59315L31.8166 1.52074L31.224 1.34372L30.6234 1.17475L30.0147 1.01383L29.4061 0.868993L28.7974 0.74025L28.1808 0.611514L27.5641 0.498867L26.9475 0.394265L26.3388 0.313802L25.7142 0.233341L25.0815 0.168971L24.4488 0.112646L23.8161 0.0724164L23.1754 0.0402321L22.5267 0.0241392L21.87 0.00804643L21.2133 0.0160929L20.5566 0.0321856L19.8919 0.0563234L19.2192 0.0965557L18.5464 0.152879L17.8577 0.217249L17.169 0.289665L16.4723 0.378174L15.7755 0.482774L15.0708 0.595421L14.358 0.724157L13.6453 0.860943L12.9165 1.01383L12.1877 1.17475L11.4589 1.35176L10.7141 1.54488L10.4258 1.61729L10.1375 1.7058L9.85722 1.80236L9.56888 1.915L9.43272 1.97133L9.29656 2.03569L9.15242 2.10811L9.0243 2.17249L8.88814 2.25294L8.76001 2.33341L8.63189 2.41387L8.50376 2.50238L8.37564 2.59893L8.25548 2.69549L8.13532 2.79204L8.0232 2.88859L7.91913 2.9932L7.81498 3.10584L7.71893 3.21849L7.62282 3.33114L7.52671 3.45988L7.44661 3.58861L7.3665 3.71736L7.29444 3.8461L7.22237 3.96679L7.16631 4.10358L7.11025 4.24841L7.07021 4.39324L0.799503 27.0192L0.759465 27.1641L0.735434 27.3089L0.71942 27.4457L0.711409 27.5905V27.7193L0.71942 27.848L0.735434 27.9767L0.751455 28.0974L0.783489 28.2101L0.815524 28.3227L0.863573 28.4354L0.919632 28.5319L0.975691 28.6365L1.03175 28.7331L1.10383 28.8296L1.18391 28.9101L1.264 28.9986L1.35209 29.0871L1.44019 29.1676L1.53629 29.24L1.63239 29.3124L1.7285 29.3849L1.83261 29.4492L1.93672 29.5055L2.04884 29.5619L2.16096 29.6181L2.27308 29.6745L2.39321 29.7228L2.51334 29.7791L2.63347 29.8194L2.7536 29.8596L2.87372 29.8998L3.52242 30.0929L4.1631 30.2619L4.80379 30.4309L5.44447 30.5837L6.09317 30.7205L6.73385 30.8492L7.37454 30.9619L8.0232 31.0584L8.67194 31.1469L9.31263 31.2194L9.9613 31.2837L10.586 31.324L11.2427 31.3642L11.8914 31.3884L12.5481 31.4044L13.2048 31.4125L13.8615 31.3964L14.5182 31.3803L15.1749 31.3481L15.8316 31.3079L16.4963 31.2516L17.153 31.1872L17.8257 31.1067L18.4984 31.0101L19.1711 30.9136L19.8438 30.8009L20.5246 30.6803L21.2133 30.5435L21.9021 30.3986L22.5908 30.2458L23.2876 30.0768L23.9843 29.8998L24.2646 29.8194L24.5449 29.7228L24.8252 29.6262L25.1055 29.5055L25.2496 29.4492L25.3858 29.3849L25.522 29.3124L25.6581 29.24L25.7862 29.1676L25.9144 29.0871L26.0425 28.9986L26.1947 28.9101L26.3228 28.8136L26.4429 28.717L26.563 28.6204L26.6752 28.5159L26.7873 28.4193L26.8914 28.3066L26.9875 28.194L27.0836 28.0814L27.1797 27.9606L27.2678 27.8319L27.3479 27.7031L27.42 27.5744L27.484 27.4457L27.5401 27.3089L27.5961 27.1641L27.6362 27.0192L29.8786 18.9328H15.3991L17.1931 12.4716H21.9341L22.5988 10.0659H15.2069L12.0836 21.3466H21.5737L21.0131 23.3743H9.42475L13.6773 8.03014H25.2737L23.4878 14.4993H18.7307L18.066 16.8971H30.4312L33.8989 4.39324ZM70.3619 27.7756L70.2658 28.0491L70.1697 28.2986L70.0496 28.54L69.9214 28.7733L69.7853 28.9906L69.6412 29.1998L69.473 29.3929L69.3047 29.5779L69.1286 29.7549L68.9364 29.9159L68.7441 30.0768L68.5359 30.2136L68.3277 30.3504L68.1034 30.4711L67.8792 30.5918L67.647 30.6964L67.4068 30.7929L67.1664 30.8814L66.9182 30.9699L66.67 31.0424L66.4136 31.1067L66.1574 31.1631L65.8931 31.2194L65.6288 31.2676L65.3565 31.2999L65.0843 31.3401L64.812 31.3642L64.5317 31.3803L64.2593 31.3964L63.9871 31.4125L63.7068 31.4205H63.4345H63.1782L62.9139 31.4125L62.6496 31.3964L62.3853 31.3803L62.1291 31.3642L61.8728 31.3401L61.6325 31.2999L61.3923 31.2676L61.152 31.2194L60.9278 31.1631L60.7036 31.1067L60.4953 31.0424L60.2871 30.9699L60.0869 30.8814L59.9027 30.7929L59.7265 30.6964L59.5583 30.5918L59.4062 30.4711L59.27 30.3504L59.1419 30.2136L59.0298 30.0768L58.9337 29.9159L58.8375 29.7549L58.7655 29.5779L58.7094 29.3929L58.6694 29.1998L58.6454 28.9906L58.6374 28.7733L58.6534 28.54L58.6854 28.2986L58.7335 28.0491L58.7975 27.7756L60.3351 22.2076L62.4574 14.5154H74.0222L73.8934 14.9901L73.7653 15.4649L73.6373 15.9476L73.5092 16.4224L73.3812 16.8971L73.2531 17.3718L73.1251 17.8546L72.997 18.3293L72.8682 18.8041L72.7402 19.2868L72.6121 19.7616L72.4841 20.2363L72.356 20.711L72.228 21.1938L72.0999 21.6685L71.9719 22.1432L71.8758 22.4973L71.7791 22.8513L71.683 23.2054L71.587 23.5594L71.491 23.9134L71.3949 24.2674L71.2989 24.6214L71.2028 24.9755L71.1067 25.3295L71.0106 25.6836L70.9145 26.0376L70.8184 26.3916L70.7223 26.7456L70.6262 27.0997L70.5301 27.4537L70.3619 27.7756Z" fill="var(--fill-0, #004F86)"/>
</g>
<defs>
<clipPath id="clip0_0_7">
<rect width="106" height="40" fill="white"/>
</clipPath>
</defs>
</svg>
