<svg preserveAspectRatio="none" width="100%" height="100%" overflow="visible" style="display: block;" viewBox="0 0 18 18" fill="none" xmlns="http://www.w3.org/2000/svg">
<g id="material-symbols:search-rounded">
<path id="Vector" d="M7.12529 2.43018C8.43992 2.43024 9.5468 2.88396 10.4572 3.79336C11.3675 4.70272 11.8218 5.80937 11.8204 7.12441C11.8204 7.65482 11.7357 8.15363 11.5682 8.62031C11.3994 9.09052 11.171 9.50392 10.8844 9.86221L10.7842 9.98877L15.0979 14.3024C15.1981 14.4028 15.2516 14.5303 15.2517 14.6997C15.2517 14.8693 15.1983 14.9974 15.0979 15.0979C14.9974 15.1983 14.8693 15.2517 14.6997 15.2517C14.5303 15.2516 14.4028 15.1981 14.3024 15.0979L9.98877 10.7842L9.86221 10.8844C9.50392 11.171 9.09052 11.3994 8.62031 11.5682C8.15363 11.7357 7.65569 11.8204 7.12529 11.8204C5.80943 11.8204 4.70232 11.3658 3.79336 10.4563C2.88455 9.54697 2.43074 8.44044 2.43017 7.12529C2.42969 5.81 2.8834 4.70284 3.79336 3.79336C4.70337 2.88385 5.81048 2.43018 7.12529 2.43018ZM7.12529 3.57012C6.13947 3.56907 5.29647 3.91623 4.60723 4.60811C3.91857 5.29949 3.57176 6.14157 3.57012 7.12441C3.56854 8.1079 3.91523 8.95133 4.60723 9.64336C5.29926 10.3354 6.14225 10.6817 7.12529 10.6796L7.3081 10.6761C8.21453 10.6354 8.99592 10.2903 9.64336 9.64336C10.3339 8.95327 10.68 8.11032 10.6796 7.12529C10.6791 6.14022 10.333 5.29691 9.64336 4.60723C8.95372 3.91763 8.11072 3.57119 7.12529 3.57012Z" fill="var(--fill-0, #353535)"/>
</g>
</svg>
