<svg viewBox="0 0 45.8537 47" fill="none" xmlns="http://www.w3.org/2000/svg">
<g id="SVG" clip-path="url(#clip0_0_53)">
<path id="Vector" d="M8.55358 9.3362C9.02931 9.32461 9.48167 9.12748 9.81404 8.7869C10.1464 8.44633 10.3325 7.98931 10.3325 7.51343C10.3325 7.03755 10.1464 6.58052 9.81404 6.23995C9.48167 5.89938 9.02931 5.70224 8.55358 5.69065H0V0.818359H8.91629C12.3291 0.818359 15.2091 3.46997 15.2091 7.5118C15.2091 10.3009 13.8156 11.7529 13.8156 11.7529C14.724 12.9166 15.2148 14.352 15.2091 15.8283C15.2091 19.3298 12.3269 22.3896 8.9531 22.3896H0V17.5866H8.61529C9.08106 17.5866 9.52775 17.4016 9.8571 17.0722C10.1865 16.7429 10.3715 16.2962 10.3715 15.8304C10.3715 15.3647 10.1865 14.918 9.8571 14.5886C9.52775 14.2593 9.08106 14.0742 8.61529 14.0742H0V9.3362H8.55358Z" fill="#1A171B"/>
<path id="Vector_2" d="M14.6623 24.9766H0V29.8175H14.6623V24.9766Z" fill="#1A171B"/>
<path id="Vector_3" d="M8.50749e-05 36.8181H9.89192V31.7336H14.6624V46.8117H9.89192V41.7283H8.50749e-05V36.8181Z" fill="#1A171B"/>
<path id="Vector_4" d="M45.854 17.2227H16.2305V46.8115H45.854V17.2227Z" fill="#E2001A"/>
<path id="Vector_5" d="M45.8539 9.38148C45.8651 10.2567 45.7024 11.1255 45.3752 11.9373C45.048 12.7492 44.5629 13.488 43.9479 14.1109C43.3329 14.7338 42.6004 15.2283 41.7928 15.5659C40.9852 15.9034 40.1186 16.0772 39.2433 16.0772C38.368 16.0772 37.5014 15.9034 36.6938 15.5659C35.8862 15.2283 35.1536 14.7338 34.5387 14.1109C33.9237 13.488 33.4386 12.7492 33.1114 11.9373C32.7842 11.1255 32.6215 10.2567 32.6327 9.38148V0.821409H37.3967V9.29703C37.4084 9.78017 37.6085 10.2396 37.9544 10.5772C38.3002 10.9148 38.7643 11.1037 39.2476 11.1037C39.7309 11.1037 40.195 10.9148 40.5409 10.5772C40.8867 10.2396 41.0869 9.78017 41.0986 9.29703V0.821409H45.8626L45.8539 9.38148Z" fill="#1A171B"/>
<path id="Vector_6" d="M26.6778 8.40522C26.6782 7.75261 26.4569 7.11922 26.0502 6.60883C25.6435 6.09843 25.0755 5.7413 24.4393 5.59593C23.8031 5.45057 23.1364 5.52559 22.5484 5.80871C21.9603 6.09182 21.4859 6.56625 21.2028 7.15426C20.9197 7.74227 20.8447 8.409 20.9901 9.04522C21.1355 9.68143 21.4926 10.2494 22.003 10.6561C22.5134 11.0628 23.1468 11.2841 23.7994 11.2837C24.452 11.2833 25.0852 11.0613 25.5951 10.6541V15.7938C24.0428 16.1594 22.4151 16.0326 20.938 15.4311C19.461 14.8296 18.2078 13.7831 17.3525 12.437C16.4973 11.0909 16.0823 9.51194 16.1652 7.91926C16.2481 6.32658 16.8248 4.79922 17.8152 3.54919C18.8056 2.29916 20.1606 1.38848 21.6921 0.943566C23.2237 0.498652 24.8557 0.541573 26.3617 1.06637C27.8677 1.59117 29.173 2.57182 30.0964 3.87217C31.0197 5.17253 31.5153 6.7281 31.5144 8.32294V15.7234H26.6746L26.6778 8.40522Z" fill="#1A171B"/>
</g>
<defs>
<clipPath id="clip0_0_53">
<rect width="45.8537" height="47" fill="white"/>
</clipPath>
</defs>
</svg>
