<svg width="53" height="47" viewBox="0 0 53 47" fill="none" xmlns="http://www.w3.org/2000/svg">
<g clip-path="url(#clip0_136_206)">
<path d="M11.993 9.3362C12.4688 9.32461 12.9211 9.12748 13.2535 8.7869C13.5859 8.44633 13.7719 7.98931 13.7719 7.51343C13.7719 7.03755 13.5859 6.58052 13.2535 6.23995C12.9211 5.89938 12.4688 5.70224 11.993 5.69065H3.43945V0.818359H12.3557C15.7685 0.818359 18.6486 3.46997 18.6486 7.5118C18.6486 10.3009 17.2551 11.7529 17.2551 11.7529C18.1635 12.9166 18.6543 14.352 18.6486 15.8283C18.6486 19.3298 15.7663 22.3896 12.3926 22.3896H3.43945V17.5866H12.0547C12.5205 17.5866 12.9672 17.4016 13.2966 17.0722C13.6259 16.7429 13.8109 16.2962 13.8109 15.8304C13.8109 15.3647 13.6259 14.918 13.2966 14.5886C12.9672 14.2593 12.5205 14.0742 12.0547 14.0742H3.43945V9.3362H11.993Z" fill="#1A171B"/>
<path d="M18.1018 24.9766H3.43945V29.8175H18.1018V24.9766Z" fill="#1A171B"/>
<path d="M3.43945 36.8179H13.3313V31.7334H18.1018V46.8115H13.3313V41.7281H3.43945V36.8179Z" fill="#1A171B"/>
<path d="M49.2934 17.2227H19.6699V46.8115H49.2934V17.2227Z" fill="#E2001A"/>
<path d="M49.294 9.38136C49.3052 10.2566 49.1425 11.1253 48.8153 11.9372C48.4881 12.7491 48.003 13.4879 47.388 14.1107C46.7731 14.7336 46.0405 15.2282 45.2329 15.5658C44.4253 15.9033 43.5587 16.0771 42.6834 16.0771C41.8081 16.0771 40.9415 15.9033 40.1339 15.5658C39.3263 15.2282 38.5938 14.7336 37.9788 14.1107C37.3638 13.4879 36.8787 12.7491 36.5515 11.9372C36.2243 11.1253 36.0616 10.2566 36.0728 9.38136V0.821289H40.8368V9.29691C40.8485 9.78005 41.0486 10.2395 41.3945 10.5771C41.7403 10.9146 42.2045 11.1036 42.6877 11.1036C43.171 11.1036 43.6352 10.9146 43.981 10.5771C44.3269 10.2395 44.527 9.78005 44.5387 9.29691V0.821289H49.3027L49.294 9.38136Z" fill="#1A171B"/>
<path d="M30.1168 8.40522C30.1172 7.75261 29.8959 7.11922 29.4892 6.60883C29.0825 6.09843 28.5145 5.7413 27.8783 5.59593C27.242 5.45057 26.5753 5.52559 25.9873 5.80871C25.3993 6.09182 24.9249 6.56625 24.6418 7.15426C24.3587 7.74227 24.2837 8.409 24.4291 9.04522C24.5744 9.68143 24.9316 10.2494 25.442 10.6561C25.9524 11.0628 26.5858 11.2841 27.2384 11.2837C27.891 11.2833 28.5241 11.0613 29.0341 10.6541V15.7938C27.4817 16.1594 25.854 16.0326 24.377 15.4311C22.8999 14.8296 21.6468 13.7831 20.7915 12.437C19.9362 11.0909 19.5212 9.51194 19.6041 7.91926C19.687 6.32658 20.2637 4.79922 21.2542 3.54919C22.2446 2.29916 23.5996 1.38848 25.1311 0.943566C26.6626 0.498652 28.2947 0.541573 29.8007 1.06637C31.3067 1.59117 32.612 2.57182 33.5353 3.87217C34.4587 5.17253 34.9543 6.7281 34.9534 8.32294V15.7234H30.1136L30.1168 8.40522Z" fill="#1A171B"/>
</g>
<defs>
<clipPath id="clip0_136_206">
<rect width="45.8537" height="47" fill="white" transform="translate(3.43945)"/>
</clipPath>
</defs>
</svg>
