<?xml version="1.0" encoding="UTF-8"?>
<!DOCTYPE svg PUBLIC "-//W3C//DTD SVG 1.1//EN" "http://www.w3.org/Graphics/SVG/1.1/DTD/svg11.dtd">
<!-- Creator: CorelDRAW X7 -->
<svg xmlns="http://www.w3.org/2000/svg" xml:space="preserve" width="80mm" height="24mm" version="1.1" style="shape-rendering:geometricPrecision; text-rendering:geometricPrecision; image-rendering:optimizeQuality; fill-rule:evenodd; clip-rule:evenodd"
viewBox="0 0 8000 2400"
 xmlns:xlink="http://www.w3.org/1999/xlink">
 <defs>
  <style type="text/css">
   <![CDATA[
    .fil2 {fill:#FEFEFE}
    .fil1 {fill:#2B2A29;fill-rule:nonzero}
    .fil0 {fill:#E31E24;fill-rule:nonzero}
   ]]>
  </style>
 </defs>
 <g id="Слой_x0020_1">
  <metadata id="CorelCorpID_0Corel-Layer"/>
  <path class="fil0" d="M4409 7l629 0 0 440 725 0c0,0 12,3 28,18 16,16 16,26 16,26l0 913 -621 0 0 -773 -143 0 2 766 -633 0 -3 -1390z"/>
  <path class="fil0" d="M2092 1360c0,0 0,20 -9,31 -10,11 -35,13 -35,13l-1346 0 -2 -1396 626 0 -2 459 730 2c0,0 14,1 26,15 13,14 12,29 12,29l0 847zm-769 -754l146 0 1 0 0 641 -1 0 -146 0 0 -641z"/>
  <polygon class="fil0" points="2218,7 2216,1404 2835,1404 2833,7 "/>
  <path class="fil0" d="M2953 447l1315 0c0,0 22,8 35,21 14,13 14,38 14,38l2 876c0,0 1,10 -2,14 -4,5 -13,7 -13,7l-1307 2c0,0 -25,-4 -35,-14 -10,-10 -20,-27 -20,-27l0 -621c0,0 4,-6 14,-16 9,-10 21,-11 21,-11l731 -1 0 -90 -755 -1 0 -177zm606 447l-2 354 149 0 2 -355 -149 1z"/>
  <path class="fil0" d="M5934 443l1315 0c0,0 22,7 36,20 13,13 13,38 13,38l2 877c0,0 1,9 -2,14 -4,4 -13,6 -13,6l-1307 2c0,0 -25,-4 -35,-14 -10,-9 -20,-27 -20,-27l0 -620c0,0 4,-7 14,-17 10,-9 21,-11 21,-11l731 0 0 -91 -755 -1 0 -176zm604 445l0 355 149 0 2 -355 -151 0z"/>
  <path class="fil1" d="M741 1990c-4,25 -7,46 -8,64 -1,18 -2,38 -2,62 0,10 0,22 1,36 1,14 2,23 2,26l4 45c-29,25 -64,46 -104,62 -33,13 -69,23 -109,31 -32,5 -63,8 -91,8 -120,0 -215,-34 -288,-101 -71,-68 -107,-158 -107,-270 0,-111 39,-205 117,-281 78,-77 171,-115 280,-115 53,0 100,5 140,17 40,11 79,30 116,56 5,4 9,16 12,37 2,21 4,44 4,70 0,9 -2,16 -6,23 -3,7 -8,10 -13,10 -4,0 -9,-2 -13,-6 -5,-5 -10,-12 -14,-22 -20,-40 -40,-69 -62,-86 -25,-21 -63,-36 -112,-45 -17,-4 -35,-5 -53,-5 -84,0 -154,34 -210,104 -55,67 -83,148 -83,243 0,90 29,166 87,227 58,62 130,93 216,93 31,0 57,-2 81,-7 41,-9 71,-26 90,-49 14,-18 23,-39 26,-61 2,-12 3,-35 3,-69 0,-4 0,-8 0,-11 0,-4 0,-7 0,-10 0,-19 -1,-33 -3,-40 -4,-11 -10,-19 -20,-24 -10,-6 -19,-9 -26,-10 -8,-2 -17,-2 -28,-2 -6,0 -11,0 -14,0 -3,0 -5,0 -6,0 -6,0 -13,-1 -20,-2 -16,-2 -26,-3 -30,-5 -11,-4 -16,-12 -16,-23 0,-8 3,-13 10,-15 6,-3 14,-4 24,-4l192 0c11,0 19,3 25,9 6,5 9,15 9,28 0,2 0,4 -1,7 0,2 0,4 0,5zm797 300c0,6 -3,11 -9,15 -6,4 -12,6 -20,6l-145 0c-4,0 -7,0 -8,0 -8,0 -14,-1 -17,-4 -5,-3 -7,-11 -7,-21 0,-9 8,-16 23,-21 16,-5 25,-11 28,-17 2,-5 4,-11 4,-16 0,-3 -1,-7 -3,-11l-63 -171 -335 0 -44 128c-4,12 -6,23 -6,33 0,2 0,5 1,8 0,3 1,8 2,14 3,10 13,19 30,30 18,10 26,21 26,32 0,6 -3,10 -9,12 -6,3 -13,4 -22,4l-124 0c-9,0 -17,-1 -23,-4 -8,-4 -13,-10 -14,-17 -1,-9 3,-17 14,-24 14,-9 23,-17 26,-21 3,-4 6,-10 9,-17 3,-6 5,-12 7,-16 2,-5 14,-40 36,-106 21,-67 47,-134 77,-203 43,-100 96,-206 159,-319 8,-13 12,-20 13,-21 5,-7 11,-11 17,-11 5,0 11,2 17,8 6,6 14,15 22,27 43,69 88,155 135,259 32,73 64,154 97,243 15,41 31,82 46,123 4,9 7,16 9,21 2,5 5,10 8,15 4,6 12,12 27,20 10,6 16,13 16,22zm-232 -291l-75 -159 -81 -170 -74 165 -74 164 304 0zm956 289c0,8 -3,14 -8,18 -5,3 -11,5 -19,5l-170 0c-11,0 -18,-1 -23,-4 -8,-3 -11,-10 -11,-20 0,-9 4,-16 13,-20 11,-3 18,-5 22,-6 6,-2 11,-6 15,-12 4,-6 6,-11 6,-17 0,-1 0,-2 0,-3 0,-2 -1,-2 -1,-3 -11,-35 -24,-65 -39,-89 -4,-8 -17,-26 -36,-54 -14,-21 -28,-42 -42,-62 -8,-12 -22,-31 -44,-56l-136 23 -33 5 0 210c0,8 0,13 0,17 0,10 1,17 2,21 2,5 5,8 9,12 4,4 12,7 24,11 19,6 28,15 28,28 0,7 -1,11 -5,14 -3,3 -7,5 -13,5l-156 0c-13,0 -22,-1 -27,-3 -9,-3 -14,-10 -14,-20 0,-12 8,-20 23,-24 19,-6 29,-10 31,-11 4,-5 6,-9 7,-13 2,-4 2,-9 2,-16 0,-7 0,-13 0,-17l0 -545c0,-7 0,-12 0,-15 0,-6 -1,-11 -3,-15 -3,-8 -14,-14 -32,-18 -18,-5 -28,-14 -28,-27 0,-8 3,-13 8,-15 5,-3 11,-4 20,-4l317 0c73,0 131,16 173,47 42,31 64,75 64,131 0,34 -11,66 -32,94 -16,21 -37,41 -66,60 -12,8 -30,18 -54,31l-16 8c33,41 62,82 86,123 12,21 24,42 34,65 16,35 31,68 47,102 4,9 11,17 22,24 5,3 15,7 29,13 8,3 13,5 16,7 7,4 10,9 10,15zm-180 -521c0,-57 -21,-98 -62,-123 -31,-18 -75,-27 -131,-27 -36,0 -62,1 -78,4 -16,3 -27,7 -35,12 -14,9 -20,21 -20,36l0 275 35 -4c74,-8 139,-27 195,-56 64,-33 96,-72 96,-117zm812 -83c0,4 -1,7 -5,10 -4,3 -9,4 -14,4 -7,0 -13,-2 -17,-7 -9,-10 -22,-21 -39,-33 -19,-13 -35,-21 -49,-26 -7,-2 -22,-5 -43,-8 -22,-3 -41,-4 -56,-4 -19,0 -31,2 -37,7 -6,5 -10,11 -11,21 -2,9 -3,17 -3,23l0 534c0,15 0,25 2,30 1,5 4,10 7,15 3,4 7,7 11,9 3,1 8,2 15,4 12,4 19,7 22,10 4,3 6,9 6,17 0,7 -2,13 -5,16 -3,4 -7,6 -12,6l-187 0c-3,0 -7,-2 -10,-6 -3,-5 -4,-10 -4,-17 1,-7 4,-12 8,-16 5,-5 10,-8 17,-9 7,-2 14,-4 20,-6 4,-1 8,-5 12,-10 3,-4 5,-11 7,-21 1,-11 1,-18 1,-23l0 -535c0,-9 0,-15 0,-18 -2,-11 -5,-19 -10,-24 -2,-3 -6,-5 -12,-6 -6,-1 -13,-1 -22,-1 -17,0 -36,2 -58,5 -23,4 -40,7 -52,10 -11,4 -26,12 -45,27 -16,12 -30,24 -40,36 -4,4 -8,5 -13,5 -5,0 -10,-2 -15,-6 -5,-4 -7,-8 -6,-13 1,-4 3,-23 8,-56 1,-9 2,-23 5,-41 1,-2 1,-4 2,-4 1,-4 3,-6 5,-8 5,-3 7,-5 8,-5 2,-1 4,-1 7,-1l565 0c3,0 5,1 8,2 1,1 3,2 6,4 3,2 5,5 7,9 1,1 1,2 1,4 3,17 5,31 6,40 4,26 7,45 9,56zm631 497c7,6 11,10 11,13 0,4 -1,9 -2,16 -8,37 -12,64 -15,80 -1,7 -4,13 -9,16 -4,3 -10,5 -18,5l-487 0c-3,0 -6,0 -7,0 -15,0 -25,-2 -30,-6 -5,-5 -8,-11 -8,-19 0,-11 7,-19 22,-24 20,-6 30,-10 31,-11 4,-3 7,-7 9,-12 1,-6 2,-11 2,-18l0 -558c0,-5 0,-9 0,-12 0,-6 -1,-12 -4,-17 -3,-8 -14,-14 -32,-20 -18,-5 -27,-13 -27,-25 0,-8 2,-13 7,-16 4,-3 10,-4 18,-4l463 0c19,0 32,14 40,42 5,18 8,41 8,69 0,8 -6,13 -17,13 -3,0 -7,-1 -9,-2 -7,-3 -15,-11 -25,-25 -5,-7 -11,-12 -16,-16 -21,-13 -37,-22 -48,-25 -11,-4 -29,-5 -54,-5l-131 0c-23,0 -38,0 -45,1 -7,1 -15,5 -23,12 -9,7 -13,18 -13,31l0 222 225 0c10,0 20,-5 33,-15 13,-11 21,-16 26,-16 3,0 6,1 9,3 8,4 12,9 12,16l1 72c0,13 -6,21 -15,25 -3,1 -6,2 -7,2 -5,0 -17,-7 -35,-22 -9,-7 -17,-11 -25,-11l-227 0 1 257c0,15 7,29 20,41 15,13 32,19 52,19l196 0c21,0 42,-8 64,-24 24,-18 48,-36 72,-54 3,0 6,1 7,2zm765 -590c0,6 -1,11 -4,13 -2,3 -9,6 -22,11 -8,3 -13,4 -15,5 -6,2 -12,6 -16,12 -2,3 -3,7 -4,11 -1,5 -2,10 -2,16 0,8 0,12 0,13l0 620c0,2 1,5 1,8 1,4 1,6 1,8 0,5 -1,9 -3,12 -2,3 -6,5 -13,8 -6,2 -13,-1 -21,-8 -10,-11 -17,-21 -20,-31 -1,0 -20,-30 -58,-89 -36,-57 -73,-113 -109,-170 -38,-58 -61,-94 -71,-108 -39,-55 -71,-99 -98,-134 -29,-39 -64,-82 -103,-130l0 547c0,14 0,24 1,30 1,6 3,10 7,13 8,5 14,9 18,11 4,2 11,5 18,7 8,2 13,4 14,5 5,3 7,10 7,20 0,7 -2,12 -6,15 -4,3 -8,4 -14,4l-142 0c-6,0 -12,-2 -19,-6 -7,-4 -11,-9 -11,-14 0,-10 3,-16 8,-20 2,-2 7,-5 16,-8 4,-1 11,-3 20,-4 9,-2 15,-5 18,-9 4,-5 6,-11 7,-20 0,-8 1,-15 1,-21l0 -537c0,-9 -1,-18 -3,-26 -2,-9 -5,-15 -8,-20 -4,-4 -8,-7 -13,-9 -8,-1 -15,-2 -21,-3 -11,-2 -19,-5 -23,-7 -4,-3 -6,-8 -6,-15 0,-8 3,-13 8,-17 5,-3 12,-5 19,-5l111 0c4,0 7,1 10,2 3,2 6,3 9,4 2,2 5,3 7,5 3,2 5,4 6,7 17,12 38,34 66,66 23,28 50,63 82,105 30,40 58,79 86,119 19,28 39,55 58,83 16,22 33,48 52,76 20,31 39,60 54,86l0 -451c0,-2 0,-6 0,-10 0,-4 0,-8 0,-10 0,-5 0,-9 -1,-11 -1,-3 -3,-6 -5,-10 -3,-3 -7,-6 -11,-9 -2,0 -7,-3 -15,-6 -11,-4 -18,-7 -19,-8 -6,-4 -9,-10 -9,-16 0,-6 1,-11 5,-15 3,-5 8,-7 13,-7l142 0c6,0 11,2 15,5 4,4 5,9 5,17zm877 -1c0,7 -2,12 -5,15 -4,3 -11,7 -23,11 -2,0 -6,2 -14,3 -7,2 -12,5 -16,10 -3,5 -6,11 -6,20 -1,9 -2,16 -2,22l0 533c1,5 1,9 0,12 0,8 1,15 1,19 1,3 3,7 6,12 4,4 8,8 14,10 5,1 10,3 16,5 5,2 11,3 17,5 8,3 12,10 12,19 0,8 -2,14 -6,18 -4,4 -8,6 -14,6l-170 0c-6,0 -11,-3 -17,-8 -5,-5 -8,-9 -7,-13 0,-7 2,-12 5,-16 3,-4 8,-8 14,-11 2,0 9,-3 20,-7 6,-2 10,-5 13,-9 3,-3 5,-9 5,-15 1,-6 1,-12 1,-16 0,-6 0,-10 0,-11l0 -541c-10,24 -24,56 -40,96 -13,29 -25,58 -37,87 -13,32 -27,64 -41,96 -23,51 -46,102 -71,154 -26,55 -40,84 -43,86 -3,7 -6,13 -9,18 -7,10 -14,15 -21,15 -6,0 -12,-3 -18,-9 -8,-8 -13,-15 -16,-22 -2,-2 -19,-39 -51,-110 -32,-71 -62,-138 -88,-201l-88 -216 1 548c0,11 1,20 2,28 1,8 3,13 8,16 7,5 13,9 17,11 3,1 10,4 19,6 10,3 15,5 17,6 5,3 7,10 7,19 0,7 -2,12 -6,15 -4,3 -10,5 -16,5l-141 0c-6,0 -12,-2 -18,-5 -5,-4 -8,-8 -8,-13 0,-9 2,-16 5,-20 2,-2 7,-5 14,-8 7,-2 12,-4 17,-6 6,-2 10,-5 14,-10 4,-5 6,-11 7,-20 1,-8 1,-15 1,-21l0 -538c0,-4 0,-9 0,-13 0,-7 0,-13 -1,-19 -1,-6 -3,-10 -5,-13 -3,-5 -8,-8 -13,-9 -7,-1 -15,-1 -21,-3 -10,-2 -18,-5 -22,-9 -5,-4 -7,-9 -7,-14 0,-7 2,-13 8,-17 5,-3 12,-5 19,-5l138 0c4,0 7,1 10,2 2,2 6,4 9,7 4,2 7,6 9,9 1,3 3,7 6,12l201 486 115 -245c14,-29 29,-64 46,-104 7,-18 21,-50 40,-98 5,-14 11,-28 17,-43 1,-3 2,-6 3,-7 2,-6 5,-10 8,-12 3,-3 6,-4 7,-5 3,-1 6,-2 9,-2l142 0c7,0 12,2 15,5 4,4 6,10 6,17zm796 343c0,106 -31,196 -93,271 -66,79 -153,118 -259,118 -119,0 -212,-37 -281,-111 -63,-69 -95,-157 -95,-266 0,-107 32,-197 95,-270 68,-78 157,-116 267,-116 108,0 197,37 267,111 66,71 99,159 99,263zm-102 13c0,-89 -22,-166 -65,-229 -48,-71 -113,-107 -193,-107 -82,0 -148,34 -199,102 -46,61 -69,136 -69,223 0,90 23,167 69,230 50,71 117,106 201,106 79,0 143,-34 191,-102 43,-62 65,-136 65,-223zm808 157c0,63 -29,114 -87,153 -53,37 -116,55 -188,55l-313 0c-13,0 -23,-2 -31,-6 -10,-4 -16,-11 -16,-20 0,-9 8,-17 23,-22 20,-6 31,-10 32,-11 4,-4 7,-8 8,-12 2,-4 2,-10 2,-18l0 -559c0,-5 0,-9 0,-12 0,-3 0,-5 0,-8 -1,-2 -2,-5 -3,-8 -3,-8 -15,-14 -34,-19 -19,-6 -28,-14 -28,-26 0,-6 2,-11 8,-15 6,-4 12,-6 19,-6l362 0c48,0 91,13 127,39 39,28 60,64 65,108 0,3 1,5 1,8 0,3 0,5 0,8 0,35 -14,67 -41,96 -23,25 -54,46 -94,65l-27 12 26 6c56,14 100,36 133,66 37,35 56,76 56,126zm-157 -378c0,-34 -12,-60 -37,-78 -25,-20 -60,-29 -104,-29l-100 0c-19,0 -33,1 -42,2 -10,2 -19,6 -27,14 -5,5 -9,11 -10,17 -2,6 -2,14 -2,24l0 251 122 -30c56,-13 102,-33 138,-61 41,-32 62,-69 62,-110zm55 379c0,-33 -14,-64 -41,-92 -22,-22 -50,-40 -85,-55 -29,-13 -53,-19 -71,-19 -1,0 -3,0 -4,0 -2,1 -3,1 -4,1l-172 44 0 215c0,13 0,23 1,29 2,5 5,11 12,17 6,5 13,9 20,11 7,2 15,2 26,2 5,0 8,0 11,0l127 0c16,0 36,-4 60,-11 33,-11 60,-27 80,-46 27,-26 40,-58 40,-96zm733 77c7,6 10,10 10,13 0,4 0,9 -2,16 -7,37 -12,64 -14,80 -1,7 -4,13 -9,16 -5,3 -11,5 -18,5l-487 0c-3,0 -6,0 -8,0 -15,0 -25,-2 -30,-6 -4,-5 -7,-11 -7,-19 0,-11 7,-19 21,-24 21,-6 31,-10 32,-11 4,-3 7,-7 9,-12 1,-6 2,-11 2,-18l0 -558c0,-5 0,-9 0,-12 0,-6 -1,-12 -4,-17 -4,-8 -14,-14 -32,-20 -18,-5 -27,-13 -27,-25 0,-8 2,-13 7,-16 4,-3 10,-4 18,-4l462 0c19,0 33,14 41,42 5,18 7,41 7,69 0,8 -5,13 -16,13 -4,0 -7,-1 -10,-2 -6,-3 -14,-11 -24,-25 -5,-7 -11,-12 -17,-16 -20,-13 -36,-22 -47,-25 -11,-4 -30,-5 -55,-5l-131 0c-22,0 -37,0 -45,1 -6,1 -14,5 -22,12 -9,7 -13,18 -13,31l0 222 225 0c9,0 20,-5 33,-15 12,-11 21,-16 26,-16 3,0 5,1 9,3 8,4 12,9 12,16l0 72c0,13 -5,21 -15,25 -2,1 -5,2 -7,2 -4,0 -16,-7 -35,-22 -8,-7 -17,-11 -24,-11l-227 0 1 257c0,15 7,29 20,41 15,13 32,19 52,19l196 0c20,0 42,-8 64,-24 24,-18 48,-36 72,-54 3,0 5,1 7,2z"/>
  <path class="fil1" d="M7960 2220l-13 61c-2,7 -3,12 -5,14 -1,2 -3,5 -7,7 -6,6 -13,9 -19,9l-515 0c-6,0 -11,-3 -15,-7 -4,-5 -7,-10 -7,-15 0,-8 2,-14 4,-18 3,-3 9,-6 20,-9 5,-2 10,-3 16,-5 6,-1 11,-5 16,-11 2,-3 4,-8 5,-14 1,-6 1,-13 1,-19 0,-4 0,-6 0,-7l0 -532c0,-5 0,-10 0,-15 0,-6 0,-11 -1,-17 -1,-5 -2,-9 -4,-11 -4,-5 -8,-9 -11,-10 -4,-2 -11,-3 -21,-5 -10,-2 -17,-6 -21,-10 -4,-5 -7,-11 -7,-16 0,-8 3,-13 8,-16 4,-4 10,-5 18,-5l170 0c14,0 21,7 21,23 0,7 -1,12 -4,14 -4,2 -11,5 -24,10 -6,2 -10,3 -14,5 -4,1 -8,4 -12,10 -3,3 -4,8 -5,14 -1,6 -2,13 -2,23l0 535c0,13 1,23 3,29 1,6 4,10 7,13 8,5 14,9 20,10 5,2 11,2 20,2 1,1 13,1 36,2 24,1 40,1 49,1 25,0 55,-1 89,-3 34,-2 53,-3 57,-4 3,0 11,-2 23,-5 12,-3 22,-7 31,-10 8,-4 17,-9 27,-16 11,-9 21,-18 32,-26 4,-2 7,-4 11,-6 3,-2 6,-2 9,-2 6,0 10,4 14,12 1,2 1,5 1,9 0,3 0,7 -1,11z"/>
  <path class="fil1" d="M5701 1525c0,32 26,58 58,58 31,0 57,-26 57,-58 0,-32 -26,-58 -57,-58 -32,0 -58,26 -58,58z"/>
  <path class="fil1" d="M5380 1526c0,31 26,57 58,57 32,0 58,-26 58,-57 0,-32 -26,-58 -58,-58 -32,0 -58,26 -58,58z"/>
  <polygon class="fil2" points="1323,1247 1469,1247 1469,606 1323,606 "/>
 </g>
</svg>
