<svg preserveAspectRatio="xMidYMid meet" width="100%" height="100%" overflow="visible" style="display: block;" viewBox="0 0 117.029 34.2968" fill="none" xmlns="http://www.w3.org/2000/svg">
<g id="&#208;&#161;&#208;&#187;&#208;&#190;&#208;&#185;_x0020_1">
<path id="Vector" d="M64.5562 0H73.8482V6.49999H84.5585C84.5585 6.49999 84.7357 6.54431 84.9721 6.7659C85.2085 7.00226 85.2085 7.14999 85.2085 7.14999V20.6375H76.0346V9.21817H73.9221L73.9517 20.5341H64.6005L64.5562 0Z" fill="#009999"/>
<path id="Vector_2" d="M30.3283 19.9873C30.3283 19.9873 30.3283 20.2828 30.1954 20.4453C30.0476 20.6078 29.6783 20.6373 29.6783 20.6373H9.79427L9.76473 0.0146009H19.0124L18.9829 6.79527L29.767 6.82482C29.767 6.82482 29.9738 6.83959 30.1511 7.04641C30.3431 7.25323 30.3283 7.47482 30.3283 7.47482V19.9873ZM18.9681 8.84868H21.1249H21.1397V18.318H21.1249H18.9681V8.84868Z" fill="#009999"/>
<path id="Vector_3" d="M32.1893 0L32.1598 20.6375H41.3041L41.2745 0H32.1893Z" fill="#009999"/>
<path id="Vector_4" d="M43.0473 6.49999H62.4734C62.4734 6.49999 62.7984 6.61817 62.9904 6.81022C63.1973 7.00226 63.1973 7.37158 63.1973 7.37158L63.2268 20.3125C63.2268 20.3125 63.2416 20.4602 63.1973 20.5193C63.1382 20.5932 63.0052 20.6227 63.0052 20.6227L43.6973 20.6522C43.6973 20.6522 43.328 20.5932 43.1802 20.4454C43.0325 20.2977 42.8848 20.0466 42.8848 20.0466V10.8727C42.8848 10.8727 42.9439 10.7841 43.0916 10.6363C43.2246 10.4886 43.4018 10.4738 43.4018 10.4738L54.2007 10.4591V9.12953L43.0473 9.11476V6.49999ZM51.9995 13.1034L51.97 18.3329H54.1711L54.2007 13.0886L51.9995 13.1034Z" fill="#009999"/>
<path id="Vector_5" d="M87.0844 6.44045H106.51C106.51 6.44045 106.835 6.54386 107.042 6.7359C107.234 6.92795 107.234 7.29727 107.234 7.29727L107.264 20.2529C107.264 20.2529 107.279 20.3859 107.234 20.4597C107.175 20.5188 107.042 20.5484 107.042 20.5484L87.7344 20.5779C87.7344 20.5779 87.3651 20.5188 87.2173 20.3711C87.0696 20.2382 86.9219 19.9722 86.9219 19.9722V10.8132C86.9219 10.8132 86.981 10.7098 87.1287 10.562C87.2764 10.4291 87.4389 10.3995 87.4389 10.3995H98.2378V9.05522L87.0844 9.04045V6.44045ZM96.0071 13.0143V18.2586H98.2082L98.2378 13.0143H96.0071Z" fill="#009999"/>
<path id="Vector_6" d="M10.3704 29.2947C10.3113 29.664 10.267 29.9742 10.2523 30.2401C10.2375 30.506 10.2227 30.8015 10.2227 31.156C10.2227 31.3038 10.2227 31.481 10.2375 31.6879C10.2523 31.8947 10.267 32.0276 10.267 32.072L10.3261 32.7367C9.89771 33.106 9.38067 33.4163 8.78976 33.6526C8.30226 33.8447 7.77044 33.9924 7.17953 34.1106C6.70681 34.1844 6.24885 34.2288 5.83522 34.2288C4.06249 34.2288 2.65909 33.7265 1.58068 32.7367C0.531817 31.7322 0 30.4026 0 28.7481C0 27.1083 0.576135 25.7197 1.72841 24.597C2.88068 23.4595 4.25454 22.8981 5.86476 22.8981C6.64772 22.8981 7.34203 22.972 7.93294 23.1492C8.52385 23.3117 9.09999 23.5924 9.64658 23.9765C9.72044 24.0356 9.77953 24.2129 9.82385 24.5231C9.85339 24.8333 9.88294 25.1731 9.88294 25.5572C9.88294 25.6901 9.85339 25.7936 9.7943 25.897C9.74998 26.0004 9.67612 26.0447 9.60226 26.0447C9.54317 26.0447 9.4693 26.0151 9.41021 25.9561C9.33635 25.8822 9.26249 25.7788 9.20339 25.6311C8.90794 25.0401 8.61249 24.6117 8.28749 24.3606C7.91817 24.0504 7.35681 23.8288 6.63294 23.6958C6.38181 23.6367 6.1159 23.622 5.84999 23.622C4.60908 23.622 3.57499 24.1242 2.74772 25.1583C1.93522 26.1481 1.52159 27.3447 1.52159 28.7481C1.52159 30.0776 1.95 31.2004 2.80681 32.1015C3.66363 33.0174 4.72727 33.4754 5.99772 33.4754C6.45567 33.4754 6.83976 33.4458 7.19431 33.372C7.79999 33.239 8.24317 32.9879 8.52385 32.6481C8.73067 32.3822 8.86362 32.072 8.90794 31.747C8.93749 31.5697 8.95226 31.2299 8.95226 30.7276C8.95226 30.6685 8.95226 30.6095 8.95226 30.5651C8.95226 30.506 8.95226 30.4617 8.95226 30.4174C8.95226 30.1367 8.93749 29.9299 8.90794 29.8265C8.84885 29.664 8.76021 29.5458 8.61249 29.472C8.46476 29.3833 8.3318 29.339 8.2284 29.3242C8.11021 29.2947 7.97726 29.2947 7.81476 29.2947C7.72612 29.2947 7.65226 29.2947 7.60794 29.2947C7.56362 29.2947 7.53408 29.2947 7.51931 29.2947C7.43067 29.2947 7.32726 29.2799 7.22385 29.2651C6.98749 29.2356 6.83976 29.2208 6.78067 29.1913C6.61817 29.1322 6.54431 29.014 6.54431 28.8515C6.54431 28.7333 6.58863 28.6595 6.69203 28.6299C6.78067 28.5856 6.89885 28.5708 7.04658 28.5708H9.88294C10.0454 28.5708 10.1636 28.6151 10.2523 28.7038C10.3409 28.7776 10.3852 28.9254 10.3852 29.1174C10.3852 29.147 10.3852 29.1765 10.3704 29.2208C10.3704 29.2504 10.3704 29.2799 10.3704 29.2947ZM22.1443 33.7265C22.1443 33.8151 22.1 33.889 22.0113 33.9481C21.9227 34.0072 21.8341 34.0367 21.7159 34.0367H19.5738C19.5147 34.0367 19.4704 34.0367 19.4557 34.0367C19.3375 34.0367 19.2488 34.0219 19.2045 33.9776C19.1307 33.9333 19.1011 33.8151 19.1011 33.6674C19.1011 33.5345 19.2193 33.431 19.4409 33.3572C19.6772 33.2833 19.8102 33.1947 19.8545 33.106C19.8841 33.0322 19.9136 32.9435 19.9136 32.8697C19.9136 32.8254 19.8988 32.7663 19.8693 32.7072L18.9386 30.181H13.9898L13.3398 32.072C13.2807 32.2492 13.2511 32.4117 13.2511 32.5595C13.2511 32.589 13.2511 32.6333 13.2659 32.6776C13.2659 32.722 13.2807 32.7958 13.2954 32.8845C13.3398 33.0322 13.4875 33.1651 13.7386 33.3276C14.0045 33.4754 14.1227 33.6379 14.1227 33.8004C14.1227 33.889 14.0784 33.9481 13.9898 33.9776C13.9011 34.0219 13.7977 34.0367 13.6648 34.0367H11.8329C11.7 34.0367 11.5818 34.0219 11.4932 33.9776C11.375 33.9185 11.3011 33.8299 11.2863 33.7265C11.2716 33.5935 11.3307 33.4754 11.4932 33.372C11.7 33.239 11.8329 33.1208 11.8773 33.0617C11.9216 33.0026 11.9659 32.914 12.0102 32.8106C12.0545 32.722 12.0841 32.6333 12.1136 32.5742C12.1432 32.5004 12.3204 31.9833 12.6454 31.0083C12.9557 30.0185 13.3398 29.0288 13.7829 28.0095C14.4182 26.5322 15.2011 24.9663 16.1318 23.297C16.25 23.1049 16.3091 23.0015 16.3238 22.9867C16.3977 22.8833 16.4863 22.8242 16.575 22.8242C16.6488 22.8242 16.7375 22.8538 16.8261 22.9424C16.9147 23.0311 17.0329 23.164 17.1511 23.3413C17.7863 24.3606 18.4511 25.6311 19.1454 27.1674C19.6182 28.2458 20.0909 29.4424 20.5784 30.7572C20.8 31.3629 21.0363 31.9685 21.2579 32.5742C21.317 32.7072 21.3613 32.8106 21.3909 32.8845C21.4204 32.9583 21.4647 33.0322 21.5091 33.106C21.5681 33.1947 21.6863 33.2833 21.9079 33.4015C22.0556 33.4901 22.1443 33.5935 22.1443 33.7265ZM18.717 29.4276L17.6091 27.0788L16.4125 24.5674L15.3193 27.0049L14.2261 29.4276H18.717ZM32.8397 33.697C32.8397 33.8151 32.7954 33.9038 32.7215 33.9629C32.6477 34.0072 32.559 34.0367 32.4409 34.0367H29.9295C29.767 34.0367 29.6636 34.0219 29.5897 33.9776C29.4715 33.9333 29.4272 33.8299 29.4272 33.6822C29.4272 33.5492 29.4863 33.4458 29.6193 33.3867C29.7818 33.3424 29.8852 33.3129 29.9443 33.2981C30.0329 33.2685 30.1068 33.2095 30.1659 33.1208C30.225 33.0322 30.2545 32.9583 30.2545 32.8697C30.2545 32.8549 30.2545 32.8401 30.2545 32.8254C30.2545 32.7958 30.2397 32.7958 30.2397 32.781C30.0772 32.264 29.8852 31.8208 29.6636 31.4663C29.6045 31.3481 29.4125 31.0822 29.1318 30.6685C28.925 30.3583 28.7181 30.0481 28.5113 29.7526C28.3931 29.5754 28.1863 29.2947 27.8613 28.9254L25.8522 29.2651L25.3647 29.339V32.4413C25.3647 32.5595 25.3647 32.6333 25.3647 32.6924C25.3647 32.8401 25.3795 32.9435 25.3943 33.0026C25.4238 33.0765 25.4681 33.1208 25.5272 33.1799C25.5863 33.239 25.7045 33.2833 25.8818 33.3424C26.1625 33.431 26.2954 33.564 26.2954 33.756C26.2954 33.8595 26.2806 33.9185 26.2215 33.9629C26.1772 34.0072 26.1181 34.0367 26.0295 34.0367H23.725C23.5329 34.0367 23.4 34.0219 23.3261 33.9924C23.1931 33.9481 23.1193 33.8447 23.1193 33.697C23.1193 33.5197 23.2375 33.4015 23.4591 33.3424C23.7397 33.2538 23.8875 33.1947 23.917 33.1799C23.9761 33.106 24.0056 33.047 24.0204 32.9879C24.05 32.9288 24.05 32.8549 24.05 32.7515C24.05 32.6481 24.05 32.5595 24.05 32.5004V24.4492C24.05 24.3458 24.05 24.272 24.05 24.2276C24.05 24.139 24.0352 24.0651 24.0056 24.0061C23.9613 23.8879 23.7988 23.7992 23.5329 23.7401C23.267 23.6663 23.1193 23.5333 23.1193 23.3413C23.1193 23.2231 23.1636 23.1492 23.2375 23.1197C23.3113 23.0754 23.4 23.0606 23.5329 23.0606H28.2159C29.2943 23.0606 30.1511 23.297 30.7715 23.7549C31.392 24.2129 31.717 24.8629 31.717 25.6901C31.717 26.1924 31.5545 26.6651 31.2443 27.0788C31.0079 27.389 30.6977 27.6845 30.2693 27.9651C30.092 28.0833 29.8261 28.231 29.4715 28.4231L29.2352 28.5413C29.7227 29.147 30.1511 29.7526 30.5056 30.3583C30.6829 30.6685 30.8602 30.9788 31.0079 31.3185C31.2443 31.8356 31.4659 32.3231 31.7022 32.8254C31.7613 32.9583 31.8647 33.0765 32.0272 33.1799C32.1011 33.2242 32.2488 33.2833 32.4556 33.372C32.5738 33.4163 32.6477 33.4458 32.692 33.4754C32.7954 33.5345 32.8397 33.6083 32.8397 33.697ZM30.1806 26.0004C30.1806 25.1583 29.8704 24.5526 29.2647 24.1833C28.8068 23.9174 28.1568 23.7845 27.3295 23.7845C26.7977 23.7845 26.4136 23.7992 26.1772 23.8436C25.9409 23.8879 25.7784 23.947 25.6602 24.0208C25.4534 24.1538 25.3647 24.3311 25.3647 24.5526V28.6151L25.8818 28.556C26.975 28.4379 27.9352 28.1572 28.7625 27.7288C29.7079 27.2413 30.1806 26.6651 30.1806 26.0004ZM42.1761 24.7742C42.1761 24.8333 42.1613 24.8776 42.1022 24.922C42.0431 24.9663 41.9693 24.9811 41.8954 24.9811C41.792 24.9811 41.7033 24.9515 41.6443 24.8776C41.5113 24.7299 41.3193 24.5674 41.0681 24.3901C40.7874 24.1981 40.5511 24.0799 40.3443 24.0061C40.2408 23.9765 40.0193 23.9322 39.709 23.8879C39.384 23.8436 39.1033 23.8288 38.8818 23.8288C38.6011 23.8288 38.4238 23.8583 38.3352 23.9322C38.2465 24.0061 38.1874 24.0947 38.1727 24.2424C38.1431 24.3754 38.1283 24.4936 38.1283 24.5822V32.4708C38.1283 32.6924 38.1283 32.8401 38.1579 32.914C38.1727 32.9879 38.217 33.0617 38.2613 33.1356C38.3056 33.1947 38.3647 33.239 38.4238 33.2685C38.4681 33.2833 38.542 33.2981 38.6454 33.3276C38.8227 33.3867 38.9261 33.431 38.9704 33.4754C39.0295 33.5197 39.059 33.6083 39.059 33.7265C39.059 33.8299 39.0295 33.9185 38.9852 33.9629C38.9408 34.0219 38.8818 34.0515 38.8079 34.0515H36.0454C36.0011 34.0515 35.942 34.0219 35.8977 33.9629C35.8534 33.889 35.8386 33.8151 35.8386 33.7117C35.8534 33.6083 35.8977 33.5345 35.9568 33.4754C36.0306 33.4015 36.1045 33.3572 36.2079 33.3424C36.3113 33.3129 36.4147 33.2833 36.5034 33.2538C36.5624 33.239 36.6215 33.1799 36.6806 33.106C36.7249 33.047 36.7545 32.9435 36.784 32.7958C36.7988 32.6333 36.7988 32.5299 36.7988 32.456V24.5526C36.7988 24.4197 36.7988 24.3311 36.7988 24.2867C36.7693 24.1242 36.7249 24.0061 36.6511 23.9322C36.6215 23.8879 36.5624 23.8583 36.4738 23.8436C36.3852 23.8288 36.2818 23.8288 36.1488 23.8288C35.8977 23.8288 35.617 23.8583 35.292 23.9026C34.9522 23.9617 34.7011 24.0061 34.5238 24.0504C34.3613 24.1095 34.1397 24.2276 33.859 24.4492C33.6227 24.6265 33.4159 24.8038 33.2681 24.9811C33.209 25.0401 33.1499 25.0549 33.0761 25.0549C33.0022 25.0549 32.9284 25.0254 32.8545 24.9663C32.7806 24.9072 32.7511 24.8481 32.7659 24.7742C32.7806 24.7151 32.8102 24.4345 32.884 23.947C32.8988 23.814 32.9136 23.6072 32.9579 23.3413C32.9727 23.3117 32.9727 23.2822 32.9874 23.2822C33.0022 23.2231 33.0318 23.1936 33.0613 23.164C33.1352 23.1197 33.1647 23.0901 33.1795 23.0901C33.209 23.0754 33.2386 23.0754 33.2829 23.0754H41.6295C41.6738 23.0754 41.7033 23.0901 41.7477 23.1049C41.7624 23.1197 41.792 23.1345 41.8363 23.164C41.8806 23.1936 41.9102 23.2379 41.9397 23.297C41.9545 23.3117 41.9545 23.3265 41.9545 23.3561C41.9988 23.6072 42.0283 23.814 42.0431 23.947C42.1022 24.3311 42.1465 24.6117 42.1761 24.7742ZM51.4976 32.1163C51.6011 32.2049 51.6601 32.264 51.6601 32.3083C51.6601 32.3674 51.6454 32.4413 51.6306 32.5447C51.5124 33.0913 51.4533 33.4901 51.409 33.7265C51.3942 33.8299 51.3499 33.9185 51.2761 33.9629C51.217 34.0072 51.1283 34.0367 51.0101 34.0367H43.8158C43.7715 34.0367 43.7272 34.0367 43.7124 34.0367C43.4908 34.0367 43.3431 34.0072 43.2692 33.9481C43.1954 33.8742 43.1511 33.7856 43.1511 33.6674C43.1511 33.5049 43.2545 33.3867 43.4761 33.3129C43.7715 33.2242 43.9192 33.1651 43.934 33.1504C43.9931 33.106 44.0374 33.047 44.067 32.9731C44.0817 32.8845 44.0965 32.8106 44.0965 32.7072V24.464C44.0965 24.3901 44.0965 24.3311 44.0965 24.2867C44.0965 24.1981 44.0817 24.1095 44.0374 24.0356C43.9931 23.9174 43.8306 23.8288 43.5647 23.7401C43.2988 23.6663 43.1658 23.5481 43.1658 23.3708C43.1658 23.2526 43.1954 23.1788 43.2692 23.1345C43.3283 23.0901 43.417 23.0754 43.5352 23.0754H50.3749C50.6556 23.0754 50.8476 23.2822 50.9658 23.6958C51.0397 23.9617 51.084 24.3015 51.084 24.7151C51.084 24.8333 50.9954 24.9072 50.8329 24.9072C50.7886 24.9072 50.7295 24.8924 50.6999 24.8776C50.5965 24.8333 50.4783 24.7151 50.3306 24.5083C50.2567 24.4049 50.1681 24.3311 50.0942 24.272C49.784 24.0799 49.5476 23.947 49.3851 23.9026C49.2226 23.8436 48.9567 23.8288 48.5874 23.8288H46.6522C46.3124 23.8288 46.0908 23.8288 45.9874 23.8436C45.884 23.8583 45.7658 23.9174 45.6477 24.0208C45.5147 24.1242 45.4556 24.2867 45.4556 24.4788V27.7583H48.7795C48.9272 27.7583 49.0749 27.6845 49.267 27.5367C49.459 27.3742 49.5772 27.3004 49.6511 27.3004C49.6954 27.3004 49.7397 27.3151 49.784 27.3447C49.9022 27.4038 49.9613 27.4776 49.9613 27.5811L49.9761 28.6447C49.9761 28.8367 49.8874 28.9549 49.7545 29.014C49.7101 29.0288 49.6658 29.0435 49.6511 29.0435C49.5772 29.0435 49.3999 28.9401 49.134 28.7185C49.0011 28.6151 48.8829 28.556 48.7647 28.556H45.4113L45.4261 32.3526C45.4261 32.5742 45.5295 32.781 45.7215 32.9583C45.9431 33.1504 46.1942 33.239 46.4897 33.239H49.3851C49.6954 33.239 50.0056 33.1208 50.3306 32.8845C50.6851 32.6185 51.0397 32.3526 51.3942 32.0867C51.4386 32.0867 51.4829 32.1015 51.4976 32.1163ZM62.7988 23.4004C62.7988 23.489 62.784 23.5629 62.7397 23.5924C62.7101 23.6367 62.6067 23.6811 62.4147 23.7549C62.2965 23.7992 62.2226 23.814 62.1931 23.8288C62.1044 23.8583 62.0158 23.9174 61.9567 24.0061C61.9272 24.0504 61.9124 24.1095 61.8976 24.1686C61.8829 24.2424 61.8681 24.3163 61.8681 24.4049C61.8681 24.5231 61.8681 24.5822 61.8681 24.597V33.756C61.8681 33.7856 61.8829 33.8299 61.8829 33.8742C61.8976 33.9333 61.8976 33.9629 61.8976 33.9924C61.8976 34.0663 61.8829 34.1254 61.8533 34.1697C61.8238 34.214 61.7647 34.2435 61.6613 34.2879C61.5726 34.3174 61.4692 34.2731 61.351 34.1697C61.2033 34.0072 61.0999 33.8595 61.0556 33.7117C61.0408 33.7117 60.7601 33.2685 60.1988 32.397C59.667 31.5549 59.1204 30.7276 58.5885 29.8856C58.0272 29.0288 57.6874 28.497 57.5397 28.2901C56.9635 27.4776 56.4908 26.8276 56.092 26.3106C55.6635 25.7345 55.1465 25.0992 54.5704 24.3901V32.4708C54.5704 32.6776 54.5704 32.8254 54.5851 32.914C54.5999 33.0026 54.6295 33.0617 54.6885 33.106C54.8067 33.1799 54.8954 33.239 54.9545 33.2685C55.0135 33.2981 55.117 33.3424 55.2204 33.372C55.3385 33.4015 55.4124 33.431 55.4272 33.4458C55.501 33.4901 55.5306 33.5935 55.5306 33.7413C55.5306 33.8447 55.501 33.9185 55.442 33.9629C55.3829 34.0072 55.3238 34.0219 55.2351 34.0219H53.1374C53.0488 34.0219 52.9601 33.9924 52.8567 33.9333C52.7533 33.8742 52.6942 33.8004 52.6942 33.7265C52.6942 33.5788 52.7386 33.4901 52.8124 33.431C52.842 33.4015 52.9158 33.3572 53.0488 33.3129C53.1079 33.2981 53.2113 33.2685 53.3442 33.2538C53.4772 33.2242 53.5658 33.1799 53.6101 33.1208C53.6692 33.047 53.6988 32.9583 53.7136 32.8254C53.7136 32.7072 53.7283 32.6038 53.7283 32.5151V24.5822C53.7283 24.4492 53.7136 24.3163 53.684 24.1981C53.6545 24.0651 53.6101 23.9765 53.5658 23.9026C53.5067 23.8436 53.4476 23.7992 53.3738 23.7697C53.2556 23.7549 53.1522 23.7401 53.0636 23.7254C52.9011 23.6958 52.7829 23.6515 52.7238 23.622C52.6647 23.5776 52.6351 23.5038 52.6351 23.4004C52.6351 23.2822 52.6795 23.2083 52.7533 23.1492C52.8272 23.1049 52.9306 23.0754 53.034 23.0754H54.6738C54.7329 23.0754 54.7772 23.0901 54.8215 23.1049C54.8658 23.1345 54.9101 23.1492 54.9545 23.164C54.984 23.1936 55.0283 23.2083 55.0579 23.2379C55.1022 23.2674 55.1317 23.297 55.1465 23.3413C55.3976 23.5186 55.7079 23.8436 56.1215 24.3163C56.4613 24.7299 56.8601 25.247 57.3329 25.8674C57.776 26.4583 58.1897 27.0345 58.6033 27.6254C58.884 28.039 59.1795 28.4379 59.4601 28.8515C59.6965 29.1765 59.9476 29.5606 60.2283 29.9742C60.5238 30.4322 60.8044 30.8606 61.026 31.2447V24.5822C61.026 24.5526 61.026 24.4936 61.026 24.4345C61.026 24.3754 61.026 24.3163 61.026 24.2867C61.026 24.2129 61.026 24.1538 61.0113 24.1242C60.9965 24.0799 60.9669 24.0356 60.9374 23.9765C60.8931 23.9322 60.834 23.8879 60.7749 23.8436C60.7454 23.8436 60.6715 23.7992 60.5533 23.7549C60.3908 23.6958 60.2874 23.6515 60.2726 23.6367C60.184 23.5776 60.1397 23.489 60.1397 23.4004C60.1397 23.3117 60.1545 23.2379 60.2135 23.1788C60.2579 23.1049 60.3317 23.0754 60.4056 23.0754H62.5033C62.5919 23.0754 62.6658 23.1049 62.7249 23.1492C62.784 23.2083 62.7988 23.2822 62.7988 23.4004ZM75.7544 23.3856C75.7544 23.489 75.7249 23.5629 75.6806 23.6072C75.6215 23.6515 75.5181 23.7106 75.3408 23.7697C75.3112 23.7697 75.2522 23.7992 75.134 23.814C75.0306 23.8436 74.9567 23.8879 74.8976 23.9617C74.8533 24.0356 74.809 24.1242 74.809 24.2572C74.7942 24.3901 74.7794 24.4936 74.7794 24.5822V32.456C74.7942 32.5299 74.7942 32.589 74.7794 32.6333C74.7794 32.7515 74.7942 32.8549 74.7942 32.914C74.809 32.9583 74.8385 33.0174 74.8828 33.0913C74.9419 33.1504 75.001 33.2095 75.0897 33.239C75.1635 33.2538 75.2374 33.2833 75.326 33.3129C75.3999 33.3424 75.4885 33.3572 75.5772 33.3867C75.6953 33.431 75.7544 33.5345 75.7544 33.6674C75.7544 33.7856 75.7249 33.8742 75.6658 33.9333C75.6067 33.9924 75.5476 34.0219 75.459 34.0219H72.9476C72.859 34.0219 72.7851 33.9776 72.6965 33.9038C72.6226 33.8299 72.5783 33.7708 72.5931 33.7117C72.5931 33.6083 72.6226 33.5345 72.6669 33.4754C72.7112 33.4163 72.7851 33.3572 72.8737 33.3129C72.9033 33.3129 73.0067 33.2685 73.1692 33.2095C73.2578 33.1799 73.3169 33.1356 73.3612 33.0765C73.4056 33.0322 73.4351 32.9435 73.4351 32.8549C73.4499 32.7663 73.4499 32.6776 73.4499 32.6185C73.4499 32.5299 73.4499 32.4708 73.4499 32.456V24.464C73.3022 24.8186 73.0953 25.2913 72.859 25.8822C72.6669 26.3106 72.4897 26.739 72.3124 27.1674C72.1203 27.6401 71.9135 28.1129 71.7067 28.5856C71.3669 29.339 71.0272 30.0924 70.6578 30.8606C70.2738 31.6731 70.0669 32.1015 70.0226 32.131C69.9783 32.2345 69.934 32.3231 69.8897 32.397C69.7863 32.5447 69.6828 32.6185 69.5794 32.6185C69.4908 32.6185 69.4022 32.5742 69.3135 32.4856C69.1953 32.3674 69.1215 32.264 69.0772 32.1606C69.0476 32.131 68.7965 31.5845 68.3238 30.5356C67.851 29.4867 67.4078 28.497 67.0238 27.5663L65.7238 24.3754L65.7385 32.4708C65.7385 32.6333 65.7533 32.7663 65.7681 32.8845C65.7829 33.0026 65.8124 33.0765 65.8863 33.1208C65.9897 33.1947 66.0783 33.2538 66.1374 33.2833C66.1817 33.2981 66.2851 33.3424 66.4181 33.372C66.5658 33.4163 66.6397 33.4458 66.6692 33.4606C66.7431 33.5049 66.7726 33.6083 66.7726 33.7413C66.7726 33.8447 66.7431 33.9185 66.684 33.9629C66.6249 34.0072 66.5363 34.0367 66.4476 34.0367H64.3647C64.276 34.0367 64.1874 34.0072 64.0988 33.9629C64.0249 33.9038 63.9806 33.8447 63.9806 33.7708C63.9806 33.6379 64.0101 33.5345 64.0544 33.4754C64.084 33.4458 64.1579 33.4015 64.2613 33.3572C64.3647 33.3276 64.4385 33.2981 64.5124 33.2685C64.601 33.239 64.6601 33.1947 64.7192 33.1208C64.7783 33.047 64.8079 32.9583 64.8226 32.8254C64.8374 32.7072 64.8374 32.6038 64.8374 32.5151V24.5674C64.8374 24.5083 64.8374 24.4345 64.8374 24.3754C64.8374 24.272 64.8374 24.1833 64.8226 24.0947C64.8079 24.0061 64.7783 23.947 64.7488 23.9026C64.7044 23.8288 64.6306 23.7845 64.5567 23.7697C64.4533 23.7549 64.3351 23.7549 64.2465 23.7254C64.0988 23.6958 63.9806 23.6515 63.9215 23.5924C63.8476 23.5333 63.8181 23.4595 63.8181 23.3856C63.8181 23.2822 63.8476 23.1936 63.9363 23.1345C64.0101 23.0901 64.1135 23.0606 64.2169 23.0606H66.2556C66.3147 23.0606 66.359 23.0754 66.4033 23.0901C66.4328 23.1197 66.4919 23.1492 66.5363 23.1936C66.5953 23.2231 66.6397 23.2822 66.6692 23.3265C66.684 23.3708 66.7135 23.4299 66.7578 23.5038L69.7272 30.6833L71.426 27.064C71.6328 26.6356 71.8544 26.1186 72.1056 25.5276C72.209 25.2617 72.4158 24.789 72.6965 24.0799C72.7703 23.8731 72.859 23.6663 72.9476 23.4447C72.9624 23.4004 72.9772 23.3561 72.9919 23.3413C73.0215 23.2526 73.0658 23.1936 73.1101 23.164C73.1544 23.1197 73.1987 23.1049 73.2135 23.0901C73.2578 23.0754 73.3022 23.0606 73.3465 23.0606H75.4442C75.5476 23.0606 75.6215 23.0901 75.6658 23.1345C75.7249 23.1936 75.7544 23.2822 75.7544 23.3856ZM87.5135 28.4526C87.5135 30.0185 87.0555 31.3481 86.1396 32.456C85.1646 33.6231 83.8794 34.1992 82.3135 34.1992C80.5556 34.1992 79.1817 33.6526 78.1624 32.5595C77.2317 31.5401 76.759 30.2401 76.759 28.6299C76.759 27.0492 77.2317 25.7197 78.1624 24.6413C79.1669 23.489 80.4817 22.9276 82.1067 22.9276C83.7021 22.9276 85.0169 23.4742 86.051 24.5674C87.026 25.6163 87.5135 26.9163 87.5135 28.4526ZM86.0067 28.6447C86.0067 27.3299 85.6817 26.1924 85.0465 25.2617C84.3374 24.2129 83.3771 23.6811 82.1953 23.6811C80.984 23.6811 80.009 24.1833 79.2556 25.1879C78.576 26.089 78.2362 27.197 78.2362 28.4822C78.2362 29.8117 78.576 30.9492 79.2556 31.8799C79.9942 32.9288 80.984 33.4458 82.2249 33.4458C83.3919 33.4458 84.3374 32.9435 85.0465 31.939C85.6817 31.0231 86.0067 29.9299 86.0067 28.6447ZM97.943 30.964C97.943 31.8947 97.5146 32.6481 96.6578 33.2242C95.8748 33.7708 94.9442 34.0367 93.8805 34.0367H89.2567C89.0646 34.0367 88.9169 34.0072 88.7987 33.9481C88.651 33.889 88.5624 33.7856 88.5624 33.6526C88.5624 33.5197 88.6805 33.4015 88.9021 33.3276C89.1976 33.239 89.3601 33.1799 89.3749 33.1651C89.4339 33.106 89.4783 33.047 89.493 32.9879C89.5226 32.9288 89.5226 32.8401 89.5226 32.722V24.464C89.5226 24.3901 89.5226 24.3311 89.5226 24.2867C89.5226 24.2424 89.5226 24.2129 89.5226 24.1686C89.5078 24.139 89.493 24.0947 89.4783 24.0504C89.4339 23.9322 89.2567 23.8436 88.976 23.7697C88.6953 23.6811 88.5624 23.5629 88.5624 23.3856C88.5624 23.297 88.5919 23.2231 88.6805 23.164C88.7692 23.1049 88.8578 23.0754 88.9612 23.0754H94.3089C95.018 23.0754 95.6533 23.2674 96.1851 23.6515C96.7612 24.0651 97.0714 24.597 97.1453 25.247C97.1453 25.2913 97.1601 25.3208 97.1601 25.3651C97.1601 25.4095 97.1601 25.439 97.1601 25.4833C97.1601 26.0004 96.9533 26.4731 96.5544 26.9015C96.2146 27.2708 95.7567 27.5811 95.1658 27.8617L94.7669 28.039L95.151 28.1276C95.9783 28.3345 96.6283 28.6595 97.1158 29.1026C97.6623 29.6197 97.943 30.2254 97.943 30.964ZM95.6237 25.3799C95.6237 24.8776 95.4464 24.4936 95.0771 24.2276C94.7078 23.9322 94.1908 23.7992 93.5408 23.7992H92.0635C91.7828 23.7992 91.576 23.814 91.443 23.8288C91.2953 23.8583 91.1624 23.9174 91.0442 24.0356C90.9703 24.1095 90.9112 24.1981 90.8964 24.2867C90.8669 24.3754 90.8669 24.4936 90.8669 24.6413V28.3492L92.6692 27.9061C93.4964 27.714 94.176 27.4186 94.7078 27.0049C95.3135 26.5322 95.6237 25.9856 95.6237 25.3799ZM96.4362 30.9788C96.4362 30.4913 96.2294 30.0333 95.8305 29.6197C95.5055 29.2947 95.0919 29.0288 94.5749 28.8072C94.1464 28.6151 93.7919 28.5265 93.526 28.5265C93.5112 28.5265 93.4817 28.5265 93.4669 28.5265C93.4374 28.5413 93.4226 28.5413 93.4078 28.5413L90.8669 29.1913V32.3674C90.8669 32.5595 90.8669 32.7072 90.8817 32.7958C90.9112 32.8697 90.9555 32.9583 91.0589 33.047C91.1476 33.1208 91.251 33.1799 91.3544 33.2095C91.4578 33.239 91.576 33.239 91.7385 33.239C91.8124 33.239 91.8567 33.239 91.901 33.239H93.7771C94.0135 33.239 94.3089 33.1799 94.6635 33.0765C95.151 32.914 95.5498 32.6776 95.8453 32.397C96.2442 32.0129 96.4362 31.5401 96.4362 30.9788ZM107.265 32.1163C107.368 32.2049 107.412 32.264 107.412 32.3083C107.412 32.3674 107.412 32.4413 107.383 32.5447C107.279 33.0913 107.206 33.4901 107.176 33.7265C107.161 33.8299 107.117 33.9185 107.043 33.9629C106.969 34.0072 106.881 34.0367 106.777 34.0367H99.5828C99.5385 34.0367 99.4942 34.0367 99.4646 34.0367C99.243 34.0367 99.0953 34.0072 99.0214 33.9481C98.9623 33.8742 98.918 33.7856 98.918 33.6674C98.918 33.5049 99.0214 33.3867 99.2283 33.3129C99.5385 33.2242 99.6862 33.1651 99.701 33.1504C99.7601 33.106 99.8044 33.047 99.8339 32.9731C99.8487 32.8845 99.8635 32.8106 99.8635 32.7072V24.464C99.8635 24.3901 99.8635 24.3311 99.8635 24.2867C99.8635 24.1981 99.8487 24.1095 99.8044 24.0356C99.7453 23.9174 99.5976 23.8288 99.3317 23.7401C99.0658 23.6663 98.9328 23.5481 98.9328 23.3708C98.9328 23.2526 98.9623 23.1788 99.0362 23.1345C99.0953 23.0901 99.1839 23.0754 99.3021 23.0754H106.127C106.408 23.0754 106.615 23.2822 106.733 23.6958C106.807 23.9617 106.836 24.3015 106.836 24.7151C106.836 24.8333 106.762 24.9072 106.6 24.9072C106.541 24.9072 106.496 24.8924 106.452 24.8776C106.363 24.8333 106.245 24.7151 106.098 24.5083C106.024 24.4049 105.935 24.3311 105.846 24.272C105.551 24.0799 105.315 23.947 105.152 23.9026C104.99 23.8436 104.709 23.8288 104.34 23.8288H102.404C102.079 23.8288 101.858 23.8288 101.74 23.8436C101.651 23.8583 101.533 23.9174 101.415 24.0208C101.282 24.1242 101.223 24.2867 101.223 24.4788V27.7583H104.546C104.679 27.7583 104.842 27.6845 105.034 27.5367C105.211 27.3742 105.344 27.3004 105.418 27.3004C105.462 27.3004 105.492 27.3151 105.551 27.3447C105.669 27.4038 105.728 27.4776 105.728 27.5811V28.6447C105.728 28.8367 105.654 28.9549 105.507 29.014C105.477 29.0288 105.433 29.0435 105.403 29.0435C105.344 29.0435 105.167 28.9401 104.886 28.7185C104.768 28.6151 104.635 28.556 104.532 28.556H101.178L101.193 32.3526C101.193 32.5742 101.296 32.781 101.488 32.9583C101.71 33.1504 101.961 33.239 102.257 33.239H105.152C105.448 33.239 105.773 33.1208 106.098 32.8845C106.452 32.6185 106.807 32.3526 107.161 32.0867C107.206 32.0867 107.235 32.1015 107.265 32.1163Z" fill="#2B2A29"/>
<path id="Vector_7" d="M117.014 32.6913L116.822 33.5924C116.792 33.6958 116.778 33.7697 116.748 33.7992C116.733 33.8288 116.704 33.8731 116.645 33.9026C116.556 33.9913 116.453 34.0356 116.364 34.0356H108.756C108.667 34.0356 108.594 33.9913 108.534 33.9322C108.475 33.8583 108.431 33.7845 108.431 33.7106C108.431 33.5924 108.461 33.5038 108.49 33.4447C108.534 33.4004 108.623 33.356 108.786 33.3117C108.859 33.2822 108.933 33.2674 109.022 33.2379C109.111 33.2231 109.184 33.164 109.258 33.0754C109.288 33.031 109.317 32.9572 109.332 32.8685C109.347 32.7799 109.347 32.6765 109.347 32.5879C109.347 32.5288 109.347 32.4992 109.347 32.4845V24.6254C109.347 24.5515 109.347 24.4776 109.347 24.4038C109.347 24.3151 109.347 24.2413 109.332 24.1526C109.317 24.0788 109.303 24.0197 109.273 23.9901C109.214 23.9163 109.155 23.8572 109.111 23.8424C109.051 23.8129 108.948 23.7981 108.8 23.7686C108.653 23.739 108.549 23.6799 108.49 23.6208C108.431 23.547 108.387 23.4583 108.387 23.3845C108.387 23.2663 108.431 23.1924 108.505 23.1481C108.564 23.089 108.653 23.0742 108.771 23.0742H111.282C111.489 23.0742 111.592 23.1776 111.592 23.414C111.592 23.5174 111.578 23.5913 111.533 23.6208C111.474 23.6504 111.371 23.6947 111.179 23.7686C111.09 23.7981 111.031 23.8129 110.972 23.8424C110.913 23.8572 110.854 23.9015 110.795 23.9901C110.75 24.0345 110.736 24.1083 110.721 24.197C110.706 24.2856 110.691 24.389 110.691 24.5367V32.4401C110.691 32.6322 110.706 32.7799 110.736 32.8685C110.75 32.9572 110.795 33.0163 110.839 33.0606C110.957 33.1345 111.046 33.1935 111.134 33.2083C111.208 33.2379 111.297 33.2379 111.43 33.2379C111.445 33.2526 111.622 33.2526 111.962 33.2674C112.316 33.2822 112.553 33.2822 112.686 33.2822C113.055 33.2822 113.498 33.2674 114 33.2379C114.503 33.2083 114.783 33.1935 114.842 33.1788C114.887 33.1788 115.005 33.1492 115.182 33.1049C115.359 33.0606 115.507 33.0015 115.64 32.9572C115.758 32.8981 115.891 32.8242 116.039 32.7208C116.201 32.5879 116.349 32.4549 116.512 32.3367C116.571 32.3072 116.615 32.2776 116.674 32.2481C116.719 32.2185 116.763 32.2185 116.807 32.2185C116.896 32.2185 116.955 32.2776 117.014 32.3958C117.029 32.4254 117.029 32.4697 117.029 32.5288C117.029 32.5731 117.029 32.6322 117.014 32.6913Z" fill="#2B2A29"/>
<path id="Vector_8" d="M83.6424 22.425C83.6424 22.8977 84.0265 23.2818 84.4992 23.2818C84.9572 23.2818 85.3413 22.8977 85.3413 22.425C85.3413 21.9522 84.9572 21.5681 84.4992 21.5681C84.0265 21.5681 83.6424 21.9522 83.6424 22.425Z" fill="#2B2A29"/>
<path id="Vector_9" d="M78.9004 22.4398C78.9004 22.8978 79.2845 23.2819 79.7572 23.2819C80.2299 23.2819 80.614 22.8978 80.614 22.4398C80.614 21.9671 80.2299 21.583 79.7572 21.583C79.2845 21.583 78.9004 21.9671 78.9004 22.4398Z" fill="#2B2A29"/>
<path id="Vector_10" fill-rule="evenodd" clip-rule="evenodd" d="M18.9683 18.318H21.1251V8.84865H18.9683V18.318Z" fill="#FEFEFE"/>
</g>
</svg>
