<svg preserveAspectRatio="xMidYMid meet" width="100%" height="100%" overflow="visible" style="display: block;" viewBox="0 0 101.888 15.8855" fill="none" xmlns="http://www.w3.org/2000/svg">
<g id="SVG" clip-path="url(#clip0_0_60)">
<path id="Vector" d="M86.5134 15.4302V12.4803H78.004V9.07656H84.8115V6.12665H78.004V3.40366H85.8326V0.340303H74.9407V15.4302H86.5134ZM90.8248 0.340303V15.4302H101.83V12.4803H93.8881V0.340303H90.8248ZM18.8925 0.340303V15.4302H21.9559V9.07656H29.1037V15.4302H32.0541V0.340303H29.1037V6.12665H21.9559V0.340303H18.8925ZM49.4127 15.4302H52.7029L45.782 0.340303H41.811L35.0035 15.4302H38.1808L39.7688 12.0265H47.8247L49.4127 15.4302ZM55.6533 0.340303V15.4302H58.7167V4.53824L66.8852 15.4302H69.2678V0.340303H66.2044V9.41693L59.3974 0.340303H55.6533ZM12.312 10.3246C11.9012 11.1126 11.2818 11.7728 10.5216 12.2329C9.76129 12.6931 8.88925 12.9356 8.00055 12.9341C5.25298 12.9318 3.03583 10.7151 3.00841 7.94198C3.03583 5.24594 5.25298 3.02878 8.00055 3.06329C9.86741 3.02878 11.5031 4.07685 12.312 5.67282L15.0349 4.19787C13.6394 1.70511 11.0105 0.020257 8.00055 -7.08705e-05C3.59177 0.020257 0.0277786 3.58425 0.0585067 7.94198C0.0273058 12.3768 3.5913 15.9403 8.00055 15.884C11.0185 15.9403 13.6536 14.2465 15.0349 11.7995L12.312 10.3246Z" fill="var(--fill-0, black)"/>
<path id="Vector_2" d="M46.5759 8.96339H41.1298L43.8533 2.95008L46.5759 8.96339Z" fill="var(--fill-0, white)"/>
</g>
<defs>
<clipPath id="clip0_0_60">
<rect width="101.888" height="15.8855" fill="white"/>
</clipPath>
</defs>
</svg>
