<svg id="svg" version="1.1" xmlns="http://www.w3.org/2000/svg" xmlns:xlink="http://www.w3.org/1999/xlink" width="400" height="400" viewBox="0, 0, 400,400"><g id="svgg"><path id="path0" d="M0.000 200.000 L 0.000 400.000 200.000 400.000 L 400.000 400.000 400.000 200.000 L 400.000 0.000 200.000 0.000 L 0.000 0.000 0.000 200.000 M251.021 175.231 C 255.309 176.354,255.251 176.281,255.115 180.361 L 255.000 183.800 253.733 183.923 C 253.035 183.991,251.108 183.766,249.449 183.423 C 236.474 180.743,226.405 189.632,229.358 201.159 C 229.711 202.537,230.000 203.912,230.000 204.215 C 230.000 207.927,236.082 211.400,242.586 211.400 L 247.000 211.400 247.000 207.400 L 247.000 203.400 243.022 203.285 C 240.835 203.221,238.810 202.974,238.522 202.736 C 237.838 202.168,237.803 196.357,238.480 195.680 C 239.160 195.000,255.640 195.000,256.320 195.680 C 257.352 196.712,256.964 217.079,255.900 217.745 C 252.312 219.994,238.266 220.739,233.582 218.929 C 216.903 212.486,213.901 190.766,228.157 179.678 C 231.437 177.127,232.916 176.439,238.600 174.823 C 241.014 174.137,247.679 174.355,251.021 175.231 M40.160 175.935 C 40.274 176.119,40.399 177.678,40.439 179.399 C 40.542 183.825,40.945 183.661,30.200 183.564 L 21.400 183.485 21.400 188.192 L 21.400 192.898 29.132 192.827 C 38.361 192.741,38.000 192.579,38.000 196.800 C 38.000 201.021,38.361 200.859,29.132 200.773 L 21.400 200.701 21.288 205.950 C 21.227 208.838,21.317 211.202,21.488 211.204 C 21.660 211.207,26.172 211.252,31.515 211.304 C 39.643 211.384,41.292 211.498,41.609 212.000 C 42.163 212.878,42.094 218.146,41.520 218.720 C 40.832 219.408,12.768 219.408,12.080 218.720 C 11.388 218.028,11.388 176.772,12.080 176.080 C 12.645 175.515,39.814 175.375,40.160 175.935 M73.732 176.812 C 82.744 180.380,85.145 191.379,78.326 197.860 C 76.937 199.180,74.171 200.800,73.306 200.800 C 72.569 200.800,72.685 201.524,73.616 202.737 C 76.379 206.337,78.752 209.610,79.597 210.985 C 80.133 211.857,80.810 212.847,81.103 213.185 C 86.083 218.933,85.848 219.558,78.837 219.220 L 74.275 219.000 72.721 216.800 C 70.922 214.253,68.092 210.195,65.800 206.877 C 62.871 202.635,63.052 202.796,61.048 202.646 C 58.575 202.461,58.630 202.264,58.756 210.810 C 58.850 217.199,58.776 218.322,58.232 218.774 C 57.360 219.497,50.687 219.536,49.827 218.823 C 48.985 218.123,48.862 176.911,49.700 176.041 C 50.676 175.028,70.862 175.676,73.732 176.812 M115.198 176.973 C 122.843 180.938,125.014 188.670,120.089 194.388 L 118.422 196.323 119.477 197.013 C 129.098 203.318,124.627 215.939,111.827 218.610 C 108.174 219.372,91.619 219.459,90.880 218.720 C 90.170 218.010,90.190 176.776,90.900 176.046 C 91.290 175.645,93.773 175.565,102.200 175.682 L 113.000 175.832 115.198 176.973 M159.920 176.080 C 160.494 176.654,160.563 181.922,160.008 182.800 C 159.692 183.300,158.114 183.415,150.515 183.488 C 145.502 183.537,141.259 183.582,141.087 183.588 C 140.915 183.595,140.825 185.625,140.887 188.100 L 141.000 192.600 148.800 192.705 C 157.891 192.827,157.600 192.690,157.600 196.848 C 157.600 200.890,157.806 200.800,148.594 200.800 L 140.846 200.800 140.723 205.835 C 140.655 208.604,140.675 210.944,140.767 211.035 C 140.858 211.126,145.088 211.203,150.167 211.206 C 161.568 211.213,161.355 211.142,161.516 215.013 C 161.704 219.562,162.876 219.236,146.393 219.214 C 133.564 219.197,132.152 219.130,131.700 218.521 C 131.050 217.645,130.969 177.580,131.614 176.374 C 132.124 175.421,158.982 175.142,159.920 176.080 M194.109 177.382 C 204.548 182.513,204.124 197.873,193.470 200.547 C 191.904 200.940,192.000 201.148,196.918 208.000 C 197.628 208.990,199.096 211.060,200.180 212.600 C 201.264 214.140,202.477 215.722,202.876 216.116 C 203.838 217.066,203.855 219.190,202.900 219.227 C 195.154 219.525,193.463 219.187,192.356 217.117 C 192.096 216.632,190.919 214.931,189.742 213.338 C 188.564 211.746,187.600 210.317,187.600 210.162 C 187.600 210.008,187.004 209.144,186.277 208.241 C 185.549 207.339,184.557 205.945,184.072 205.145 C 182.720 202.913,178.483 201.267,178.367 202.929 C 178.349 203.188,178.362 206.460,178.395 210.200 C 178.479 219.479,178.623 219.202,173.710 219.194 C 171.559 219.191,169.568 219.041,169.285 218.861 C 168.471 218.344,168.409 176.504,169.221 175.951 C 169.580 175.706,173.837 175.613,180.400 175.705 L 191.000 175.855 194.109 177.382 M58.963 183.479 C 58.763 183.545,58.626 186.075,58.658 189.100 L 58.715 194.600 61.528 194.717 C 68.570 195.010,72.400 192.906,72.400 188.747 C 72.400 185.240,71.256 184.169,67.172 183.850 C 62.580 183.491,59.362 183.346,58.963 183.479 M99.816 183.966 C 99.439 185.184,99.709 192.420,100.141 192.687 C 100.775 193.079,107.934 192.810,109.918 192.320 C 114.089 191.290,114.149 184.777,109.996 183.959 C 106.641 183.299,100.021 183.303,99.816 183.966 M178.366 183.738 C 178.347 183.992,178.325 186.540,178.318 189.400 L 178.304 194.600 180.652 194.726 C 187.633 195.102,192.000 192.755,192.000 188.628 C 192.000 185.485,190.431 184.163,186.328 183.850 C 178.882 183.283,178.400 183.276,178.366 183.738 M284.182 186.851 C 284.693 187.324,284.708 193.453,284.200 193.954 C 283.980 194.171,282.810 194.456,281.600 194.588 C 278.787 194.896,276.060 195.878,274.850 197.021 L 273.900 197.919 273.970 207.859 C 274.056 220.076,274.355 219.367,269.161 219.252 C 267.097 219.207,265.260 219.020,265.079 218.839 C 264.668 218.428,264.710 187.930,265.122 187.518 C 266.414 186.226,272.800 187.333,272.800 188.849 C 272.800 189.765,273.322 189.817,274.024 188.971 C 275.878 186.738,282.554 185.344,284.182 186.851 M308.969 187.379 C 321.906 193.064,322.046 212.136,309.200 218.843 C 306.298 220.359,298.285 220.244,295.218 218.643 C 282.860 212.191,283.216 193.052,295.800 187.371 C 298.878 185.981,305.798 185.985,308.969 187.379 M381.160 187.138 C 383.319 188.104,386.510 190.689,387.410 192.200 C 390.097 196.711,390.076 196.631,390.116 202.600 L 390.152 208.200 388.652 211.245 C 386.996 214.606,384.480 217.313,381.600 218.833 C 379.014 220.197,372.810 220.231,370.929 218.892 C 370.240 218.401,369.569 218.000,369.438 218.000 C 369.307 218.000,369.200 221.384,369.200 225.520 C 369.200 230.836,369.059 233.181,368.720 233.520 C 367.835 234.405,360.513 234.158,360.014 233.226 C 359.368 232.018,359.450 188.756,360.100 187.877 C 361.307 186.246,368.000 186.866,368.000 188.609 C 368.000 189.340,369.045 189.388,369.480 188.677 C 370.795 186.524,377.745 185.609,381.160 187.138 M332.370 187.410 C 332.623 187.663,332.824 191.736,332.893 198.010 C 333.023 209.763,333.235 210.753,335.808 211.603 C 338.289 212.421,341.155 211.924,342.476 210.445 L 343.600 209.187 343.600 198.967 C 343.600 186.392,343.271 187.200,348.400 187.200 C 353.629 187.200,353.294 186.307,353.100 199.727 C 352.924 211.942,352.763 212.656,349.413 216.106 C 344.189 221.485,332.558 221.374,327.248 215.894 C 323.930 212.471,323.874 212.148,323.952 196.887 C 323.998 188.058,324.040 187.559,324.776 187.287 C 325.961 186.849,331.905 186.945,332.370 187.410 M372.929 194.156 C 369.423 195.102,369.200 195.632,369.200 203.037 C 369.200 210.706,369.161 210.564,371.637 211.819 C 376.573 214.320,380.131 211.517,380.641 204.724 C 381.100 198.609,379.977 195.384,376.987 194.225 C 375.188 193.528,375.250 193.529,372.929 194.156 M298.492 195.384 C 293.757 199.369,295.238 210.821,300.620 211.830 C 307.149 213.055,311.228 206.246,308.508 198.659 C 307.025 194.521,301.619 192.753,298.492 195.384 M100.061 201.000 C 99.569 201.753,99.642 211.197,100.140 211.238 C 110.811 212.108,117.199 208.666,114.343 203.583 C 113.113 201.396,101.209 199.243,100.061 201.000 " stroke="none" fill="#045393" fill-rule="evenodd"></path><path id="path1" d="M237.800 176.356 C 232.093 177.563,225.831 181.685,223.900 185.505 C 223.596 186.107,223.156 186.960,222.922 187.400 C 218.145 196.399,220.812 210.902,228.000 215.010 C 233.012 217.874,236.606 218.790,242.800 218.782 C 247.422 218.776,254.435 217.725,255.243 216.917 C 255.554 216.606,255.833 201.826,255.622 196.892 C 255.605 196.494,253.792 196.407,247.300 196.492 L 239.000 196.600 238.942 198.800 C 238.861 201.918,239.034 202.032,243.731 201.967 C 248.738 201.896,248.671 201.823,248.520 207.246 C 248.378 212.363,248.244 212.532,244.152 212.738 C 233.630 213.270,227.731 207.619,228.070 197.333 C 228.470 185.225,235.632 180.921,252.800 182.473 L 254.200 182.600 254.276 180.129 C 254.370 177.081,254.299 177.019,249.795 176.231 C 245.323 175.449,241.925 175.484,237.800 176.356 M13.489 176.887 C 12.838 177.365,12.798 178.767,12.895 197.600 L 13.000 217.800 26.800 217.800 L 40.600 217.800 40.600 215.200 L 40.600 212.600 30.832 212.493 C 18.978 212.363,20.000 212.979,20.000 205.965 C 20.000 199.056,19.314 199.537,29.031 199.627 C 37.388 199.704,36.919 199.842,36.987 197.299 C 37.080 193.866,37.428 194.000,28.429 194.000 C 19.117 194.000,20.000 194.629,20.000 187.996 C 20.000 181.618,19.200 182.089,30.087 182.058 C 34.989 182.045,39.143 182.026,39.318 182.017 C 39.493 182.008,39.583 180.785,39.518 179.300 L 39.400 176.600 26.794 176.487 C 17.026 176.400,14.031 176.490,13.489 176.887 M50.896 176.707 C 50.500 176.978,50.415 181.402,50.496 197.426 L 50.600 217.800 54.000 217.800 L 57.400 217.800 57.600 209.932 C 57.823 201.155,57.706 201.556,60.074 201.420 C 63.129 201.245,63.011 201.128,70.073 211.313 C 70.803 212.365,72.183 214.300,73.139 215.613 L 74.879 218.000 78.816 218.000 C 83.144 218.000,83.656 217.744,82.307 216.254 C 81.808 215.704,79.780 212.952,77.800 210.138 C 75.820 207.325,73.717 204.468,73.127 203.790 C 71.663 202.107,71.272 200.483,72.258 200.176 C 84.789 196.264,84.183 180.785,71.367 177.400 C 68.328 176.597,51.872 176.041,50.896 176.707 M92.119 176.859 C 91.373 177.760,91.467 216.992,92.216 217.613 C 93.383 218.582,111.747 217.902,114.600 216.785 C 124.078 213.071,126.646 202.012,118.975 197.943 C 116.894 196.839,116.730 195.989,118.372 194.820 C 124.686 190.324,121.714 180.331,113.200 177.425 C 110.285 176.430,92.860 175.962,92.119 176.859 M132.892 176.735 C 132.479 176.997,132.144 204.198,132.391 217.500 C 132.398 217.890,135.389 218.000,145.986 218.000 C 161.233 218.000,160.333 218.190,160.150 215.000 C 160.099 214.120,160.045 213.175,160.029 212.900 C 160.007 212.515,157.774 212.399,150.300 212.394 C 138.466 212.386,139.515 212.986,139.452 206.199 C 139.385 199.109,138.697 199.600,148.707 199.600 L 156.437 199.600 156.318 196.900 L 156.200 194.200 148.211 194.091 C 138.761 193.963,139.451 194.411,139.399 188.369 C 139.341 181.694,138.519 182.217,149.235 182.117 C 154.129 182.071,158.359 181.948,158.634 181.842 C 159.475 181.520,159.255 177.257,158.374 176.786 C 157.499 176.318,133.624 176.270,132.892 176.735 M170.514 176.694 C 169.916 177.107,169.717 217.077,170.309 217.669 C 170.511 217.871,172.099 217.983,173.838 217.918 L 177.000 217.800 177.108 209.910 C 177.230 201.040,177.171 201.200,180.254 201.358 C 181.900 201.442,184.000 202.478,184.000 203.206 C 184.000 203.419,184.585 204.378,185.300 205.337 C 186.015 206.296,187.680 208.659,189.000 210.588 C 190.320 212.517,192.079 214.974,192.909 216.048 L 194.419 218.000 198.343 218.000 C 203.188 218.000,203.122 218.076,200.862 215.044 C 199.838 213.670,198.370 211.669,197.600 210.597 C 196.830 209.526,195.075 207.139,193.700 205.293 C 190.912 201.551,190.663 200.599,192.300 199.939 C 204.226 195.129,203.428 180.921,191.039 177.490 C 187.969 176.640,171.516 176.002,170.514 176.694 M69.432 183.033 C 75.187 185.082,75.201 192.193,69.455 194.734 C 67.552 195.576,59.380 196.156,58.259 195.529 C 57.284 194.984,57.274 183.583,58.247 182.610 C 59.052 181.806,66.807 182.099,69.432 183.033 M110.855 183.066 C 115.318 184.951,115.378 190.568,110.962 193.093 C 108.920 194.261,99.469 194.478,99.043 193.367 C 98.458 191.842,98.785 183.272,99.454 182.603 C 100.294 181.763,108.566 182.099,110.855 183.066 M189.579 183.336 C 194.390 185.672,194.386 191.693,189.572 194.381 C 187.616 195.473,179.315 196.304,177.904 195.549 C 176.839 194.979,176.835 183.044,177.900 182.447 C 179.195 181.721,187.564 182.358,189.579 183.336 M278.079 187.889 C 276.723 188.289,275.500 188.999,274.691 189.857 C 273.005 191.645,271.695 191.662,271.525 189.900 L 271.400 188.600 268.495 188.482 L 265.590 188.365 265.695 203.082 L 265.800 217.800 268.761 217.919 C 272.752 218.079,272.545 218.654,272.437 207.705 C 272.347 198.607,272.380 198.133,273.170 197.129 C 274.481 195.463,277.167 194.111,279.801 193.792 C 282.940 193.412,283.200 193.155,283.200 190.431 C 283.200 187.036,282.372 186.625,278.079 187.889 M297.800 187.951 C 293.780 189.115,289.890 192.322,289.008 195.200 C 288.840 195.750,288.499 196.452,288.251 196.761 C 286.333 199.146,287.854 210.236,290.592 213.824 C 295.673 220.486,309.119 220.534,314.071 213.908 C 318.742 207.656,318.262 196.083,313.136 191.372 C 309.102 187.665,303.279 186.366,297.800 187.951 M372.707 187.978 C 371.665 188.385,370.248 189.194,369.556 189.775 C 368.110 190.992,367.516 190.941,367.193 189.570 C 366.976 188.650,366.809 188.600,363.982 188.600 L 361.000 188.600 360.938 210.502 L 360.875 232.404 361.750 232.623 C 362.231 232.744,363.789 232.788,365.212 232.721 L 367.800 232.600 367.818 224.627 C 367.838 215.588,367.746 215.798,370.899 217.578 C 376.154 220.544,383.579 218.250,386.747 212.681 C 394.023 199.891,384.608 183.325,372.707 187.978 M345.506 188.457 C 345.236 188.625,345.119 191.964,345.169 198.057 C 345.272 210.644,344.139 213.200,338.454 213.200 C 332.706 213.200,331.816 211.264,331.741 198.600 L 331.682 188.600 328.213 188.484 L 324.743 188.368 324.883 199.484 C 325.013 209.803,325.083 210.732,325.872 212.441 C 329.213 219.684,342.740 221.279,348.781 215.142 C 351.705 212.172,352.055 210.280,351.913 198.200 L 351.800 188.600 348.860 188.400 C 347.243 188.290,345.734 188.316,345.506 188.457 M377.670 193.302 C 385.104 197.844,382.782 213.600,374.679 213.600 C 372.306 213.600,371.253 213.173,369.465 211.487 L 368.000 210.106 368.000 203.268 C 368.000 195.639,367.900 195.934,371.222 193.801 C 373.747 192.180,375.599 192.037,377.670 193.302 M305.000 193.561 C 313.331 197.430,311.368 213.200,302.555 213.200 C 293.241 213.200,291.311 196.574,300.255 193.386 C 302.317 192.651,303.104 192.680,305.000 193.561 M113.024 200.867 C 117.286 203.382,116.809 208.856,112.123 211.195 C 109.901 212.305,100.492 212.907,99.410 212.008 C 98.440 211.203,98.519 200.614,99.500 200.004 C 100.749 199.228,111.397 199.907,113.024 200.867 " stroke="none" fill="#eceff5" fill-rule="evenodd"></path><path id="path2" d="M241.900 175.095 C 243.055 175.176,244.945 175.176,246.100 175.095 C 247.255 175.014,246.310 174.948,244.000 174.948 C 241.690 174.948,240.745 175.014,241.900 175.095 M49.843 176.633 C 49.709 176.981,49.600 186.395,49.600 197.553 C 49.600 217.989,49.654 218.826,50.980 218.788 C 51.211 218.781,51.085 218.592,50.700 218.368 C 49.810 217.849,49.597 177.363,50.480 176.480 C 50.801 176.159,50.815 176.000,50.523 176.000 C 50.282 176.000,49.976 176.285,49.843 176.633 M67.905 176.283 C 68.402 176.379,69.122 176.375,69.505 176.275 C 69.887 176.175,69.480 176.096,68.600 176.101 C 67.720 176.105,67.407 176.187,67.905 176.283 M91.245 176.545 C 90.918 176.939,90.822 182.742,90.900 197.445 L 91.007 217.800 91.104 197.380 C 91.176 182.141,91.322 176.838,91.680 176.480 C 91.944 176.216,92.056 176.000,91.929 176.000 C 91.802 176.000,91.494 176.245,91.245 176.545 M159.100 176.399 C 159.706 177.079,159.781 182.243,159.190 182.537 C 158.965 182.649,159.010 182.694,159.290 182.638 C 160.176 182.461,160.198 177.051,159.316 176.382 C 158.705 175.918,158.673 175.921,159.100 176.399 M72.000 177.000 C 73.826 177.703,74.545 177.693,73.000 176.986 C 72.340 176.683,71.530 176.442,71.200 176.448 C 70.870 176.455,71.230 176.703,72.000 177.000 M190.033 176.544 C 190.125 176.623,190.740 176.808,191.400 176.956 C 192.276 177.152,192.438 177.115,192.000 176.818 C 191.460 176.453,189.632 176.198,190.033 176.544 M40.131 179.400 C 40.133 180.940,40.205 181.521,40.292 180.691 C 40.379 179.861,40.377 178.601,40.289 177.891 C 40.200 177.181,40.129 177.860,40.131 179.400 M168.909 178.800 C 168.909 179.790,168.987 180.195,169.082 179.700 C 169.178 179.205,169.178 178.395,169.082 177.900 C 168.987 177.405,168.909 177.810,168.909 178.800 M12.185 197.400 C 12.185 207.740,12.236 212.027,12.300 206.928 C 12.363 201.828,12.363 193.368,12.300 188.128 C 12.237 182.887,12.185 187.060,12.185 197.400 M78.200 180.400 C 79.059 181.280,79.852 182.000,79.962 182.000 C 80.072 182.000,79.459 181.280,78.600 180.400 C 77.741 179.520,76.948 178.800,76.838 178.800 C 76.728 178.800,77.341 179.520,78.200 180.400 M118.800 180.200 C 119.546 180.970,120.247 181.600,120.357 181.600 C 120.467 181.600,119.946 180.970,119.200 180.200 C 118.454 179.430,117.753 178.800,117.643 178.800 C 117.533 178.800,118.054 179.430,118.800 180.200 M131.784 197.400 C 131.784 207.520,131.836 211.603,131.900 206.473 C 131.963 201.342,131.963 193.062,131.900 188.073 C 131.836 183.083,131.784 187.280,131.784 197.400 M226.175 181.700 L 225.000 183.000 226.300 181.825 C 227.015 181.179,227.600 180.594,227.600 180.525 C 227.600 180.216,227.270 180.488,226.175 181.700 M168.980 195.600 C 168.980 203.410,169.034 206.605,169.099 202.700 C 169.165 198.795,169.165 192.405,169.099 188.500 C 169.034 184.595,168.980 187.790,168.980 195.600 M20.560 183.819 C 20.419 184.379,20.416 184.949,20.552 185.085 C 20.688 185.222,20.800 184.979,20.800 184.547 C 20.800 184.114,21.016 183.544,21.280 183.280 C 21.645 182.915,21.647 182.800,21.288 182.800 C 21.028 182.800,20.700 183.258,20.560 183.819 M26.922 183.099 C 29.299 183.170,33.079 183.169,35.322 183.098 C 37.565 183.027,35.620 182.969,31.000 182.969 C 26.380 182.970,24.545 183.028,26.922 183.099 M62.112 183.095 C 63.164 183.177,64.784 183.176,65.712 183.092 C 66.640 183.008,65.780 182.941,63.800 182.942 C 61.820 182.943,61.060 183.012,62.112 183.095 M99.374 183.324 C 99.263 183.613,99.225 185.908,99.289 188.424 L 99.405 193.000 99.602 187.899 C 99.797 182.865,99.769 182.294,99.374 183.324 M102.000 183.025 C 103.292 183.309,110.442 183.423,109.743 183.148 C 109.334 182.988,107.290 182.864,105.200 182.875 C 103.110 182.885,101.670 182.952,102.000 183.025 M146.721 183.099 C 148.988 183.170,152.588 183.170,154.721 183.098 C 156.855 183.026,155.000 182.968,150.600 182.968 C 146.200 182.968,144.455 183.027,146.721 183.099 M177.776 183.319 C 177.666 183.605,177.627 186.350,177.690 189.419 L 177.803 195.000 178.002 188.899 C 178.197 182.897,178.172 182.286,177.776 183.319 M181.500 183.093 C 182.435 183.177,183.965 183.177,184.900 183.093 C 185.835 183.009,185.070 182.940,183.200 182.940 C 181.330 182.940,180.565 183.009,181.500 183.093 M238.600 183.200 C 238.096 183.417,238.022 183.544,238.400 183.544 C 238.730 183.544,239.360 183.389,239.800 183.200 C 240.304 182.983,240.378 182.856,240.000 182.856 C 239.670 182.856,239.040 183.011,238.600 183.200 M58.072 189.676 C 58.032 192.468,58.135 194.837,58.300 194.940 C 58.465 195.042,58.552 193.568,58.493 191.663 C 58.295 185.272,58.145 184.562,58.072 189.676 M140.142 188.200 C 140.141 190.180,140.208 191.040,140.292 190.112 C 140.376 189.184,140.377 187.564,140.295 186.512 C 140.212 185.460,140.143 186.220,140.142 188.200 M232.581 186.900 L 231.000 188.600 232.700 187.019 C 234.281 185.548,234.584 185.200,234.281 185.200 C 234.216 185.200,233.451 185.965,232.581 186.900 M122.120 187.600 C 122.120 188.810,122.195 189.305,122.287 188.700 C 122.378 188.095,122.378 187.105,122.287 186.500 C 122.195 185.895,122.120 186.390,122.120 187.600 M280.500 186.676 C 280.885 186.776,281.515 186.776,281.900 186.676 C 282.285 186.575,281.970 186.493,281.200 186.493 C 280.430 186.493,280.115 186.575,280.500 186.676 M301.100 186.689 C 301.815 186.778,302.985 186.778,303.700 186.689 C 304.415 186.601,303.830 186.528,302.400 186.528 C 300.970 186.528,300.385 186.601,301.100 186.689 M375.505 186.683 C 376.002 186.779,376.722 186.775,377.105 186.675 C 377.487 186.575,377.080 186.496,376.200 186.501 C 375.320 186.505,375.007 186.587,375.505 186.683 M72.914 188.600 C 72.917 189.700,72.995 190.103,73.087 189.495 C 73.179 188.886,73.177 187.986,73.082 187.495 C 72.987 187.003,72.911 187.500,72.914 188.600 M201.314 188.600 C 201.317 189.700,201.395 190.103,201.487 189.495 C 201.579 188.886,201.577 187.986,201.482 187.495 C 201.387 187.003,201.311 187.500,201.314 188.600 M81.693 188.800 C 81.693 189.570,81.775 189.885,81.876 189.500 C 81.976 189.115,81.976 188.485,81.876 188.100 C 81.775 187.715,81.693 188.030,81.693 188.800 M192.493 188.800 C 192.493 189.570,192.575 189.885,192.676 189.500 C 192.776 189.115,192.776 188.485,192.676 188.100 C 192.575 187.715,192.493 188.030,192.493 188.800 M271.000 187.968 C 271.447 188.142,271.888 188.777,272.000 189.407 C 272.110 190.027,272.430 190.580,272.710 190.637 C 272.990 190.694,273.036 190.649,272.810 190.537 C 272.584 190.425,272.400 189.934,272.400 189.447 C 272.400 188.403,271.692 187.589,270.820 187.628 C 270.392 187.648,270.447 187.753,271.000 187.968 M344.442 188.150 C 344.120 188.537,344.020 191.635,344.100 198.650 L 344.215 208.600 344.307 198.520 C 344.391 189.400,344.467 188.401,345.100 188.032 C 345.485 187.808,345.597 187.619,345.349 187.612 C 345.101 187.605,344.693 187.847,344.442 188.150 M351.700 188.032 C 352.335 188.402,352.409 189.419,352.493 198.920 L 352.586 209.400 352.700 199.049 C 352.813 188.745,352.686 187.579,351.451 187.612 C 351.203 187.619,351.315 187.808,351.700 188.032 M360.445 188.145 C 360.118 188.540,360.023 194.655,360.100 210.245 L 360.207 231.800 360.304 210.120 C 360.393 189.954,360.449 188.411,361.100 188.032 C 361.485 187.808,361.597 187.619,361.349 187.612 C 361.101 187.605,360.694 187.845,360.445 188.145 M221.265 189.017 C 220.595 190.488,220.723 190.802,221.447 189.465 C 221.786 188.840,221.988 188.254,221.896 188.163 C 221.805 188.071,221.521 188.456,221.265 189.017 M264.981 203.000 C 264.981 211.140,265.034 214.413,265.100 210.274 C 265.165 206.134,265.165 199.474,265.099 195.474 C 265.034 191.473,264.981 194.860,264.981 203.000 M292.567 189.829 L 291.000 191.258 292.700 189.962 C 294.253 188.778,294.632 188.400,294.267 188.400 C 294.193 188.400,293.428 189.043,292.567 189.829 M324.173 198.200 C 324.173 203.700,324.230 206.005,324.299 203.323 C 324.368 200.641,324.368 196.141,324.299 193.323 C 324.230 190.505,324.174 192.700,324.173 198.200 M190.575 192.900 L 189.400 194.200 190.700 193.025 C 191.912 191.930,192.184 191.600,191.875 191.600 C 191.806 191.600,191.221 192.185,190.575 192.900 M229.029 192.629 C 228.881 193.215,228.838 193.772,228.932 193.866 C 229.027 193.960,229.224 193.558,229.371 192.971 C 229.519 192.385,229.562 191.828,229.468 191.734 C 229.373 191.640,229.176 192.042,229.029 192.629 M140.090 192.600 C 140.205 193.365,140.558 193.405,148.205 193.505 C 155.149 193.595,156.266 193.698,156.700 194.281 C 156.975 194.651,157.200 194.775,157.200 194.556 C 157.200 193.370,156.114 193.200,148.540 193.200 C 141.639 193.200,140.795 193.127,140.405 192.500 C 140.008 191.860,139.981 191.869,140.090 192.600 M29.370 193.500 C 34.259 193.581,36.741 193.775,37.170 194.110 C 37.726 194.542,37.735 194.517,37.251 193.900 C 36.759 193.273,35.946 193.209,29.451 193.290 L 22.200 193.380 29.370 193.500 M102.900 193.494 C 103.945 193.576,105.655 193.576,106.700 193.494 C 107.745 193.412,106.890 193.344,104.800 193.344 C 102.710 193.344,101.855 193.412,102.900 193.494 M301.500 193.882 C 301.995 193.978,302.805 193.978,303.300 193.882 C 303.795 193.787,303.390 193.709,302.400 193.709 C 301.410 193.709,301.005 193.787,301.500 193.882 M280.500 194.276 C 280.885 194.376,281.515 194.376,281.900 194.276 C 282.285 194.175,281.970 194.093,281.200 194.093 C 280.430 194.093,280.115 194.175,280.500 194.276 M228.542 197.800 C 228.541 199.780,228.608 200.640,228.692 199.712 C 228.776 198.784,228.777 197.164,228.695 196.112 C 228.612 195.060,228.543 195.820,228.542 197.800 M219.742 198.200 C 219.741 200.180,219.808 201.040,219.892 200.112 C 219.976 199.184,219.977 197.564,219.895 196.512 C 219.812 195.460,219.743 196.220,219.742 198.200 M78.181 197.300 L 76.600 199.000 78.300 197.419 C 79.881 195.948,80.184 195.600,79.881 195.600 C 79.816 195.600,79.051 196.365,78.181 197.300 M274.204 196.796 C 273.574 197.454,273.135 198.042,273.229 198.103 C 273.323 198.164,273.970 197.626,274.666 196.907 C 275.362 196.188,275.801 195.600,275.641 195.600 C 275.481 195.600,274.834 196.138,274.204 196.796 M368.476 203.276 C 368.434 206.948,368.535 210.037,368.700 210.139 C 368.865 210.242,368.953 208.228,368.896 205.663 C 368.709 197.343,368.553 196.455,368.476 203.276 M295.665 198.617 C 295.409 199.178,295.207 199.854,295.216 200.119 C 295.224 200.383,295.497 199.988,295.822 199.239 C 296.505 197.665,296.361 197.090,295.665 198.617 M256.160 205.000 C 256.161 208.300,256.222 209.597,256.298 207.882 C 256.373 206.167,256.372 203.467,256.297 201.882 C 256.221 200.297,256.159 201.700,256.160 205.000 M389.701 200.600 C 389.705 201.480,389.787 201.793,389.883 201.295 C 389.979 200.798,389.975 200.078,389.875 199.695 C 389.775 199.313,389.696 199.720,389.701 200.600 M20.880 200.480 C 20.616 200.744,20.418 201.329,20.440 201.780 C 20.473 202.467,20.525 202.439,20.758 201.601 C 20.947 200.919,21.412 200.521,22.218 200.348 C 23.330 200.110,23.340 200.092,22.380 200.047 C 21.819 200.021,21.144 200.216,20.880 200.480 M101.100 200.289 C 101.815 200.378,102.985 200.378,103.700 200.289 C 104.415 200.201,103.830 200.128,102.400 200.128 C 100.970 200.128,100.385 200.201,101.100 200.289 M273.285 208.800 C 273.187 217.445,273.102 218.089,272.000 218.508 C 271.515 218.693,271.532 218.743,272.086 218.768 C 273.425 218.830,273.619 217.451,273.500 208.711 L 273.383 200.200 273.285 208.800 M318.131 203.000 C 318.133 204.540,318.205 205.121,318.292 204.291 C 318.379 203.461,318.377 202.201,318.289 201.491 C 318.200 200.781,318.129 201.460,318.131 203.000 M381.328 202.800 C 381.328 204.230,381.401 204.815,381.489 204.100 C 381.578 203.385,381.578 202.215,381.489 201.500 C 381.401 200.785,381.328 201.370,381.328 202.800 M99.357 206.000 C 99.357 208.970,99.420 210.185,99.497 208.700 C 99.574 207.215,99.574 204.785,99.497 203.300 C 99.420 201.815,99.357 203.030,99.357 206.000 M238.757 202.086 C 239.176 202.641,240.057 202.795,243.338 202.886 L 247.400 203.000 247.516 206.994 C 247.614 210.404,247.530 211.062,246.939 211.494 C 246.559 211.772,246.425 212.000,246.644 212.000 C 247.686 212.000,248.000 210.890,248.000 207.200 C 248.000 202.375,248.025 202.400,243.200 202.400 C 240.694 202.400,239.165 202.226,238.799 201.900 C 238.324 201.476,238.317 201.504,238.757 202.086 M286.501 203.000 C 286.505 203.880,286.587 204.193,286.683 203.695 C 286.779 203.198,286.775 202.478,286.675 202.095 C 286.575 201.713,286.496 202.120,286.501 203.000 M140.150 206.200 C 140.151 208.620,140.216 209.558,140.296 208.285 C 140.376 207.012,140.375 205.032,140.294 203.885 C 140.214 202.738,140.149 203.780,140.150 206.200 M177.790 202.500 C 177.689 202.775,177.559 206.420,177.503 210.600 L 177.400 218.200 175.600 218.440 L 173.800 218.680 175.451 218.740 C 177.898 218.829,177.953 218.645,178.083 209.879 C 178.197 202.181,178.169 201.474,177.790 202.500 M123.876 204.646 C 124.140 207.355,124.332 207.733,124.362 205.600 C 124.376 204.610,124.230 203.551,124.037 203.246 C 123.821 202.905,123.759 203.442,123.876 204.646 M389.709 204.800 C 389.709 205.790,389.787 206.195,389.882 205.700 C 389.978 205.205,389.978 204.395,389.882 203.900 C 389.787 203.405,389.709 203.810,389.709 204.800 M58.161 210.400 C 58.161 213.810,58.222 215.205,58.297 213.500 C 58.372 211.795,58.372 209.005,58.297 207.300 C 58.222 205.595,58.161 206.990,58.161 210.400 M115.301 205.800 C 115.305 206.680,115.387 206.993,115.483 206.495 C 115.579 205.998,115.575 205.278,115.475 204.895 C 115.375 204.513,115.296 204.920,115.301 205.800 M332.406 207.833 C 332.409 208.255,332.595 208.870,332.818 209.200 C 333.115 209.638,333.152 209.476,332.956 208.600 C 332.627 207.129,332.398 206.810,332.406 207.833 M113.949 209.063 C 113.647 209.428,112.680 210.054,111.800 210.455 C 110.920 210.855,110.434 211.186,110.720 211.191 C 111.508 211.205,113.309 210.185,114.163 209.241 C 114.582 208.778,114.828 208.400,114.711 208.400 C 114.594 208.400,114.251 208.699,113.949 209.063 M20.440 210.220 C 20.357 211.923,20.867 212.005,30.980 211.911 L 40.600 211.821 30.818 211.611 L 21.035 211.400 20.758 210.400 C 20.525 209.562,20.473 209.533,20.440 210.220 M287.628 209.800 C 287.628 210.020,287.886 210.650,288.200 211.200 C 288.514 211.750,288.772 212.020,288.772 211.800 C 288.772 211.580,288.514 210.950,288.200 210.400 C 287.886 209.850,287.628 209.580,287.628 209.800 M168.909 212.400 C 168.909 213.390,168.987 213.795,169.082 213.300 C 169.178 212.805,169.178 211.995,169.082 211.500 C 168.987 211.005,168.909 211.410,168.909 212.400 M101.913 211.895 C 103.076 211.976,104.876 211.976,105.913 211.893 C 106.951 211.811,106.000 211.745,103.800 211.746 C 101.600 211.747,100.751 211.814,101.913 211.895 M150.168 211.900 C 161.074 212.031,160.803 211.948,160.794 215.149 C 160.787 217.668,160.559 218.218,159.400 218.507 C 158.664 218.691,158.671 218.711,159.486 218.754 C 160.683 218.816,161.200 217.700,161.200 215.055 C 161.200 211.499,161.481 211.585,150.271 211.692 L 140.600 211.785 150.168 211.900 M41.193 214.119 L 41.385 216.200 41.518 214.446 C 41.591 213.481,41.505 212.544,41.326 212.365 C 41.147 212.185,41.087 212.975,41.193 214.119 M225.400 213.600 C 226.259 214.480,227.052 215.200,227.162 215.200 C 227.272 215.200,226.659 214.480,225.800 213.600 C 224.941 212.720,224.148 212.000,224.038 212.000 C 223.928 212.000,224.541 212.720,225.400 213.600 M336.046 212.437 C 336.351 212.630,337.410 212.776,338.400 212.762 C 340.533 212.732,340.155 212.540,337.446 212.276 C 336.242 212.159,335.705 212.221,336.046 212.437 M301.500 212.682 C 301.995 212.778,302.805 212.778,303.300 212.682 C 303.795 212.587,303.390 212.509,302.400 212.509 C 301.410 212.509,301.005 212.587,301.500 212.682 M81.514 214.604 C 81.741 215.047,82.348 215.766,82.863 216.202 C 83.767 216.966,83.765 216.952,82.806 215.797 C 81.213 213.879,81.079 213.755,81.514 214.604 M290.000 214.125 C 290.000 214.194,290.585 214.779,291.300 215.425 L 292.600 216.600 291.425 215.300 C 290.330 214.088,290.000 213.816,290.000 214.125 M313.178 215.500 L 311.800 217.000 313.300 215.622 C 314.696 214.338,314.984 214.000,314.678 214.000 C 314.612 214.000,313.937 214.675,313.178 215.500 M385.178 215.500 L 383.800 217.000 385.300 215.622 C 386.696 214.338,386.984 214.000,386.678 214.000 C 386.612 214.000,385.937 214.675,385.178 215.500 M168.854 216.471 C 168.788 217.771,169.745 218.820,170.929 218.746 L 171.800 218.691 170.929 218.522 C 169.858 218.313,169.333 217.706,169.093 216.400 L 168.909 215.400 168.854 216.471 M58.032 217.280 C 58.014 217.654,57.685 218.144,57.300 218.368 C 56.915 218.592,56.803 218.781,57.051 218.788 C 57.711 218.806,58.509 217.709,58.269 217.113 C 58.137 216.783,58.052 216.842,58.032 217.280 M41.200 217.546 C 41.200 217.810,40.795 218.189,40.300 218.388 C 39.691 218.632,39.610 218.757,40.051 218.775 C 40.791 218.803,41.847 217.714,41.457 217.324 C 41.316 217.182,41.200 217.282,41.200 217.546 M368.400 217.624 C 368.400 217.857,368.576 217.938,368.792 217.805 C 369.007 217.672,369.592 217.761,370.092 218.004 C 370.962 218.426,370.968 218.418,370.224 217.822 C 369.330 217.106,368.400 217.005,368.400 217.624 M12.349 218.100 C 12.652 218.486,13.370 218.776,13.949 218.746 L 15.000 218.691 14.000 218.507 C 13.450 218.406,12.730 218.116,12.400 217.862 C 11.878 217.460,11.871 217.491,12.349 218.100 M331.600 218.600 C 332.150 218.914,332.870 219.171,333.200 219.170 C 333.530 219.169,333.194 218.906,332.454 218.584 C 330.751 217.845,330.294 217.853,331.600 218.600 M20.921 218.698 C 23.077 218.771,26.497 218.770,28.521 218.698 C 30.544 218.625,28.780 218.566,24.600 218.567 C 20.420 218.567,18.764 218.626,20.921 218.698 M36.505 218.687 C 37.114 218.779,38.014 218.777,38.505 218.682 C 38.997 218.587,38.500 218.511,37.400 218.514 C 36.300 218.517,35.897 218.595,36.505 218.687 M53.100 218.682 C 53.595 218.778,54.405 218.778,54.900 218.682 C 55.395 218.587,54.990 218.509,54.000 218.509 C 53.010 218.509,52.605 218.587,53.100 218.682 M76.900 218.676 C 77.285 218.776,77.915 218.776,78.300 218.676 C 78.685 218.575,78.370 218.493,77.600 218.493 C 76.830 218.493,76.515 218.575,76.900 218.676 M99.280 218.698 C 101.194 218.771,104.434 218.771,106.480 218.698 C 108.526 218.626,106.960 218.566,103.000 218.565 C 99.040 218.565,97.366 218.624,99.280 218.698 M136.300 218.697 C 137.895 218.773,140.505 218.773,142.100 218.697 C 143.695 218.621,142.390 218.559,139.200 218.559 C 136.010 218.559,134.705 218.621,136.300 218.697 M148.700 218.698 C 150.515 218.772,153.485 218.772,155.300 218.698 C 157.115 218.623,155.630 218.563,152.000 218.563 C 148.370 218.563,146.885 218.623,148.700 218.698 M268.105 218.687 C 268.714 218.779,269.614 218.777,270.105 218.682 C 270.597 218.587,270.100 218.511,269.000 218.514 C 267.900 218.517,267.497 218.595,268.105 218.687 M368.562 224.600 C 368.562 228.120,368.624 229.506,368.698 227.681 C 368.772 225.856,368.772 222.976,368.697 221.281 C 368.622 219.586,368.561 221.080,368.562 224.600 M246.100 219.476 C 246.485 219.576,247.115 219.576,247.500 219.476 C 247.885 219.375,247.570 219.293,246.800 219.293 C 246.030 219.293,245.715 219.375,246.100 219.476 M360.012 232.220 C 359.982 233.254,361.084 233.600,364.400 233.600 C 367.716 233.600,368.818 233.254,368.788 232.220 C 368.781 231.989,368.592 232.115,368.368 232.500 C 368.028 233.084,367.369 233.200,364.400 233.200 C 361.431 233.200,360.772 233.084,360.432 232.500 C 360.208 232.115,360.019 231.989,360.012 232.220 " stroke="none" fill="#5e7cac" fill-rule="evenodd"></path><path id="path3" d="M237.000 175.950 C 215.177 181.337,213.727 212.309,235.000 218.656 C 239.957 220.135,253.614 219.186,255.574 217.226 C 256.228 216.572,256.445 196.713,255.806 196.071 C 255.657 195.922,251.973 195.745,247.619 195.677 C 238.316 195.533,238.400 195.501,238.400 199.149 C 238.400 202.234,238.645 202.400,243.200 202.400 C 248.028 202.400,248.000 202.371,248.000 207.231 C 248.000 212.244,248.147 212.131,241.909 211.904 C 232.811 211.573,228.400 206.970,228.400 197.806 C 228.400 186.302,239.404 179.464,251.887 183.212 C 254.326 183.945,254.800 183.422,254.800 180.000 C 254.800 178.325,254.610 177.141,254.300 176.885 C 252.400 175.314,241.878 174.746,237.000 175.950 M249.795 176.231 C 254.299 177.019,254.370 177.081,254.276 180.129 L 254.200 182.600 252.800 182.473 C 235.632 180.921,228.470 185.225,228.070 197.333 C 227.731 207.619,233.630 213.270,244.152 212.738 C 248.244 212.532,248.378 212.363,248.520 207.246 C 248.671 201.823,248.738 201.896,243.731 201.967 C 239.034 202.032,238.861 201.918,238.942 198.800 L 239.000 196.600 247.300 196.492 C 253.792 196.407,255.605 196.494,255.622 196.892 C 255.833 201.826,255.554 216.606,255.243 216.917 C 254.435 217.725,247.422 218.776,242.800 218.782 C 236.606 218.790,233.012 217.874,228.000 215.010 C 220.812 210.902,218.145 196.399,222.922 187.400 C 223.156 186.960,223.596 186.107,223.900 185.505 C 227.462 178.456,238.963 174.337,249.795 176.231 M12.889 176.337 C 12.252 176.741,12.107 217.467,12.740 218.100 C 13.530 218.890,40.450 218.619,41.038 217.815 C 41.502 217.181,41.468 214.091,40.979 212.500 C 40.861 212.118,38.519 212.000,31.036 212.000 C 19.577 212.000,20.683 212.648,20.623 205.901 C 20.567 199.678,19.739 200.240,28.871 200.308 C 37.665 200.373,37.600 200.399,37.600 196.851 C 37.600 193.540,37.761 193.600,28.934 193.600 C 21.984 193.600,21.197 193.531,20.907 192.900 C 20.654 192.350,20.557 185.911,20.761 183.307 C 20.791 182.935,23.125 182.788,30.300 182.707 L 39.800 182.600 39.919 179.635 C 40.003 177.534,39.887 176.575,39.519 176.341 C 38.846 175.915,13.561 175.910,12.889 176.337 M50.480 176.480 C 49.596 177.364,49.810 217.882,50.700 218.304 C 51.680 218.769,57.129 218.631,57.631 218.129 C 57.883 217.877,58.076 214.669,58.123 209.957 L 58.200 202.200 60.600 202.092 L 63.000 201.984 66.200 206.608 C 75.160 219.558,74.091 218.600,79.593 218.600 C 83.997 218.600,84.475 218.149,82.532 215.824 C 81.909 215.080,80.604 213.330,79.631 211.935 C 77.562 208.969,75.122 205.606,73.530 203.523 C 72.352 201.984,72.036 200.400,72.906 200.400 C 73.184 200.400,74.129 200.022,75.006 199.561 C 84.461 194.582,83.716 181.377,73.768 177.612 C 69.638 176.049,51.779 175.181,50.480 176.480 M91.700 176.447 C 90.981 177.184,90.970 217.811,91.689 218.255 C 92.341 218.658,109.703 218.434,112.039 217.992 C 123.705 215.784,128.203 202.914,119.200 197.503 C 118.430 197.040,117.733 196.611,117.652 196.549 C 117.570 196.487,118.405 195.425,119.508 194.188 C 124.551 188.529,121.904 180.217,114.081 177.149 C 111.271 176.047,92.659 175.464,91.700 176.447 M132.481 176.341 C 131.985 176.656,131.646 217.779,132.135 218.268 C 132.619 218.752,160.147 218.410,160.460 217.917 C 160.965 217.120,160.860 213.020,160.320 212.480 C 159.974 212.134,157.243 212.000,150.553 212.000 C 138.825 212.000,140.000 212.648,140.000 206.181 C 140.000 199.708,139.161 200.286,148.628 200.239 C 157.386 200.195,156.880 200.372,157.001 197.312 C 157.154 193.456,157.558 193.632,148.290 193.508 L 140.200 193.400 140.200 188.200 L 140.200 183.000 149.800 182.782 C 155.080 182.662,159.445 182.527,159.500 182.482 C 159.853 182.193,159.517 176.877,159.120 176.480 C 158.558 175.918,133.355 175.787,132.481 176.341 M169.900 176.407 C 168.873 177.042,168.812 217.180,169.837 218.031 C 170.538 218.612,176.691 218.669,177.261 218.099 C 177.437 217.923,177.631 214.273,177.691 209.989 L 177.800 202.200 180.073 202.081 C 182.722 201.942,182.320 201.492,190.880 214.153 C 191.606 215.227,192.740 216.678,193.400 217.379 L 194.600 218.652 198.795 218.626 C 203.642 218.596,204.214 218.117,202.096 215.858 C 201.447 215.166,199.598 212.710,197.986 210.400 C 196.375 208.090,194.279 205.179,193.328 203.930 C 191.124 201.036,191.113 201.090,194.244 199.548 C 204.762 194.371,203.153 180.648,191.600 176.991 C 188.912 176.140,171.107 175.661,169.900 176.407 M39.518 179.300 C 39.583 180.785,39.493 182.008,39.318 182.017 C 39.143 182.026,34.989 182.045,30.087 182.058 C 19.200 182.089,20.000 181.618,20.000 187.996 C 20.000 194.629,19.117 194.000,28.429 194.000 C 37.428 194.000,37.080 193.866,36.987 197.299 C 36.919 199.842,37.388 199.704,29.031 199.627 C 19.314 199.537,20.000 199.056,20.000 205.965 C 20.000 212.979,18.978 212.363,30.832 212.493 L 40.600 212.600 40.600 215.200 L 40.600 217.800 26.800 217.800 L 13.000 217.800 12.895 197.600 C 12.798 178.767,12.838 177.365,13.489 176.887 C 14.031 176.490,17.026 176.400,26.794 176.487 L 39.400 176.600 39.518 179.300 M71.367 177.400 C 84.183 180.785,84.789 196.264,72.258 200.176 C 71.272 200.483,71.663 202.107,73.127 203.790 C 73.717 204.468,75.820 207.325,77.800 210.138 C 79.780 212.952,81.808 215.704,82.307 216.254 C 83.656 217.744,83.144 218.000,78.816 218.000 L 74.879 218.000 73.139 215.613 C 72.183 214.300,70.803 212.365,70.073 211.313 C 63.011 201.128,63.129 201.245,60.074 201.420 C 57.706 201.556,57.823 201.155,57.600 209.932 L 57.400 217.800 54.000 217.800 L 50.600 217.800 50.496 197.426 C 50.415 181.402,50.500 176.978,50.896 176.707 C 51.872 176.041,68.328 176.597,71.367 177.400 M113.200 177.425 C 121.714 180.331,124.686 190.324,118.372 194.820 C 116.730 195.989,116.894 196.839,118.975 197.943 C 126.646 202.012,124.078 213.071,114.600 216.785 C 111.747 217.902,93.383 218.582,92.216 217.613 C 91.467 216.992,91.373 177.760,92.119 176.859 C 92.860 175.962,110.285 176.430,113.200 177.425 M158.374 176.786 C 159.255 177.257,159.475 181.520,158.634 181.842 C 158.359 181.948,154.129 182.071,149.235 182.117 C 138.519 182.217,139.341 181.694,139.399 188.369 C 139.451 194.411,138.761 193.963,148.211 194.091 L 156.200 194.200 156.318 196.900 L 156.437 199.600 148.707 199.600 C 138.697 199.600,139.385 199.109,139.452 206.199 C 139.515 212.986,138.466 212.386,150.300 212.394 C 157.774 212.399,160.007 212.515,160.029 212.900 C 160.357 218.565,161.912 218.000,145.986 218.000 C 135.389 218.000,132.398 217.890,132.391 217.500 C 132.144 204.198,132.479 176.997,132.892 176.735 C 133.624 176.270,157.499 176.318,158.374 176.786 M191.039 177.490 C 198.324 179.508,201.707 184.641,200.245 191.456 C 199.340 195.670,197.189 197.967,192.300 199.939 C 190.663 200.599,190.912 201.551,193.700 205.293 C 195.075 207.139,196.830 209.526,197.600 210.597 C 198.370 211.669,199.838 213.670,200.862 215.044 C 203.122 218.076,203.188 218.000,198.343 218.000 L 194.419 218.000 192.909 216.048 C 192.079 214.974,190.320 212.517,189.000 210.588 C 187.680 208.659,186.015 206.296,185.300 205.337 C 184.585 204.378,184.000 203.419,184.000 203.206 C 184.000 202.478,181.900 201.442,180.254 201.358 C 177.171 201.200,177.230 201.040,177.108 209.910 L 177.000 217.800 173.838 217.918 C 172.099 217.983,170.511 217.871,170.309 217.669 C 169.717 217.077,169.916 177.107,170.514 176.694 C 171.516 176.002,187.969 176.640,191.039 177.490 M58.247 182.610 C 57.274 183.583,57.284 194.984,58.259 195.529 C 59.380 196.156,67.552 195.576,69.455 194.734 C 75.201 192.193,75.187 185.082,69.432 183.033 C 66.807 182.099,59.052 181.806,58.247 182.610 M99.454 182.603 C 98.785 183.272,98.458 191.842,99.043 193.367 C 99.469 194.478,108.920 194.261,110.962 193.093 C 115.378 190.568,115.318 184.951,110.855 183.066 C 108.566 182.099,100.294 181.763,99.454 182.603 M177.900 182.447 C 176.835 183.044,176.839 194.979,177.904 195.549 C 179.315 196.304,187.616 195.473,189.572 194.381 C 194.386 191.693,194.390 185.672,189.579 183.336 C 187.564 182.358,179.195 181.721,177.900 182.447 M70.091 183.707 C 74.659 185.683,74.176 192.230,69.313 194.262 C 67.538 195.004,59.692 195.649,58.700 195.134 C 57.960 194.751,57.597 183.746,58.300 183.026 C 58.856 182.457,68.487 183.012,70.091 183.707 M110.397 183.445 C 115.015 185.293,114.688 191.571,109.899 192.993 C 106.995 193.855,99.777 193.838,99.443 192.967 C 99.112 192.106,99.133 183.400,99.467 183.067 C 100.047 182.487,108.755 182.788,110.397 183.445 M187.612 183.240 C 193.815 184.570,194.593 191.791,188.800 194.269 C 187.053 195.016,178.805 195.655,178.100 195.097 C 177.564 194.674,177.349 183.584,177.867 183.067 C 178.298 182.635,185.380 182.761,187.612 183.240 M277.273 187.546 C 276.323 187.931,275.000 188.830,274.334 189.544 C 272.942 191.033,272.255 191.004,272.071 189.448 C 271.886 187.878,268.208 186.931,265.833 187.843 C 265.017 188.156,264.854 217.739,265.666 218.240 C 266.544 218.783,272.464 218.543,272.840 217.950 C 273.031 217.647,273.191 212.979,273.194 207.575 L 273.200 197.750 274.300 196.740 C 275.854 195.313,277.909 194.465,280.568 194.152 C 283.547 193.802,284.000 193.307,284.000 190.400 C 284.000 186.746,281.675 185.759,277.273 187.546 M296.850 187.622 C 282.254 192.804,283.942 216.230,299.126 219.217 C 311.234 221.599,320.480 211.086,317.443 198.391 C 315.291 189.398,305.810 184.440,296.850 187.622 M372.000 187.663 C 371.010 188.121,369.878 188.835,369.484 189.248 C 368.577 190.201,367.600 190.218,367.600 189.280 C 367.600 187.666,362.828 186.802,361.079 188.100 C 360.401 188.603,359.949 231.746,360.610 232.817 C 360.956 233.376,367.887 233.306,368.237 232.740 C 368.393 232.487,368.482 228.887,368.435 224.740 C 368.338 216.339,368.230 216.598,371.126 218.295 C 377.373 221.956,385.967 217.569,388.862 209.242 C 393.328 196.397,382.650 182.731,372.000 187.663 M282.720 187.680 C 283.361 188.321,283.345 192.586,282.700 193.102 C 282.425 193.321,281.120 193.632,279.801 193.792 C 277.167 194.111,274.481 195.463,273.170 197.129 C 272.380 198.133,272.347 198.607,272.437 207.705 C 272.545 218.654,272.752 218.079,268.761 217.919 L 265.800 217.800 265.695 203.082 L 265.590 188.365 268.495 188.482 L 271.400 188.600 271.525 189.900 C 271.695 191.662,273.005 191.645,274.691 189.857 C 276.541 187.896,281.572 186.532,282.720 187.680 M306.850 187.957 C 309.772 188.793,311.135 189.533,313.136 191.372 C 318.262 196.083,318.742 207.656,314.071 213.908 C 309.119 220.534,295.673 220.486,290.592 213.824 C 287.854 210.236,286.333 199.146,288.251 196.761 C 288.499 196.452,288.840 195.750,289.008 195.200 C 290.753 189.503,299.640 185.895,306.850 187.957 M380.219 188.035 C 388.764 190.674,392.100 203.271,386.747 212.681 C 383.579 218.250,376.154 220.544,370.899 217.578 C 367.746 215.798,367.838 215.588,367.818 224.627 L 367.800 232.600 365.212 232.721 C 363.789 232.788,362.231 232.744,361.750 232.623 L 360.875 232.404 360.938 210.502 L 361.000 188.600 363.982 188.600 C 366.809 188.600,366.976 188.650,367.193 189.570 C 367.516 190.941,368.110 190.992,369.556 189.775 C 372.545 187.261,375.926 186.709,380.219 188.035 M324.877 187.944 C 323.824 188.612,324.392 210.610,325.517 212.717 C 330.648 222.326,347.751 221.677,351.559 211.727 C 352.337 209.694,352.400 208.738,352.400 198.978 C 352.400 186.839,352.667 187.600,348.400 187.600 C 344.151 187.600,344.400 186.932,344.399 198.314 C 344.399 210.675,343.846 212.155,339.030 212.698 C 333.363 213.337,332.400 211.301,332.400 198.674 C 332.400 187.070,332.597 187.597,328.271 187.606 C 326.692 187.609,325.165 187.762,324.877 187.944 M351.913 198.200 C 352.055 210.280,351.705 212.172,348.781 215.142 C 342.740 221.279,329.213 219.684,325.872 212.441 C 325.083 210.732,325.013 209.803,324.883 199.484 L 324.743 188.368 328.213 188.484 L 331.682 188.600 331.741 198.600 C 331.816 211.264,332.706 213.200,338.454 213.200 C 344.139 213.200,345.272 210.644,345.169 198.057 C 345.081 187.428,344.815 188.125,348.860 188.400 L 351.800 188.600 351.913 198.200 M373.422 192.691 C 372.443 192.940,370.083 194.444,368.900 195.573 C 368.035 196.398,368.000 196.699,368.000 203.268 L 368.000 210.106 369.465 211.487 C 375.214 216.910,381.977 212.301,381.994 202.950 C 382.007 195.908,378.285 191.454,373.422 192.691 M300.255 193.386 C 291.311 196.574,293.241 213.200,302.555 213.200 C 311.368 213.200,313.331 197.430,305.000 193.561 C 303.104 192.680,302.317 192.651,300.255 193.386 M378.041 194.103 C 382.930 197.352,382.601 209.541,377.547 212.382 C 374.955 213.839,371.011 213.035,369.109 210.662 C 367.969 209.240,368.071 197.326,369.236 195.845 C 371.271 193.258,375.508 192.420,378.041 194.103 M306.205 194.640 C 311.471 198.091,310.611 209.881,304.919 212.260 C 299.664 214.455,295.200 210.174,295.200 202.938 C 295.200 195.504,300.930 191.184,306.205 194.640 M99.500 200.004 C 98.519 200.614,98.440 211.203,99.410 212.008 C 100.492 212.907,109.901 212.305,112.123 211.195 C 116.809 208.856,117.286 203.382,113.024 200.867 C 111.397 199.907,100.749 199.228,99.500 200.004 M112.516 201.268 C 116.300 203.176,116.540 207.917,112.971 210.256 C 110.674 211.761,100.855 212.695,99.680 211.520 C 98.999 210.839,99.016 201.145,99.700 200.455 C 100.506 199.642,110.554 200.279,112.516 201.268 " stroke="none" fill="#7b9ac4" fill-rule="evenodd"></path><path id="path4" d="M238.600 174.792 C 237.225 175.148,235.269 175.937,235.668 175.975 C 235.815 175.989,237.075 175.707,238.468 175.350 C 241.332 174.615,248.806 174.762,251.091 175.599 C 251.802 175.859,252.594 176.002,252.852 175.916 C 255.404 175.065,241.717 173.986,238.600 174.792 M12.085 176.075 C 11.388 176.772,11.383 218.023,12.080 218.720 C 12.768 219.408,40.832 219.408,41.520 218.720 C 42.094 218.146,42.163 212.878,41.609 212.000 C 41.290 211.495,39.719 211.396,31.715 211.375 L 22.200 211.350 31.400 211.575 C 36.460 211.699,40.825 211.946,41.100 212.124 C 41.759 212.550,41.775 217.665,41.120 218.320 C 40.432 219.008,13.168 219.008,12.480 218.320 C 11.788 217.628,11.788 177.172,12.480 176.480 C 13.108 175.852,39.827 175.785,40.137 176.410 C 40.249 176.636,40.294 176.591,40.237 176.310 C 40.090 175.584,12.804 175.356,12.085 176.075 M49.680 176.080 C 48.860 176.900,49.002 218.138,49.827 218.823 C 50.663 219.516,57.359 219.498,58.199 218.801 C 58.698 218.387,58.785 217.136,58.711 211.451 L 58.621 204.600 58.500 211.171 C 58.427 215.172,58.208 217.950,57.941 218.271 C 57.363 218.968,50.769 219.009,50.080 218.320 C 49.527 217.767,49.378 177.369,49.925 176.508 C 50.153 176.148,52.654 175.985,59.219 175.900 L 68.200 175.784 59.180 175.692 C 52.591 175.625,50.031 175.729,49.680 176.080 M90.880 176.080 C 90.188 176.772,90.188 218.028,90.880 218.720 C 91.398 219.238,108.938 219.361,110.730 218.860 C 111.241 218.717,107.199 218.659,101.748 218.732 C 92.635 218.854,91.794 218.807,91.318 218.156 C 90.547 217.101,90.560 177.097,91.332 176.457 C 91.677 176.170,95.153 175.975,101.232 175.900 L 110.600 175.785 100.980 175.692 C 93.925 175.625,91.232 175.728,90.880 176.080 M131.614 176.374 C 130.969 177.580,131.050 217.645,131.700 218.521 C 132.478 219.569,160.328 219.587,161.093 218.540 C 162.210 217.013,161.585 211.600,160.291 211.600 C 160.100 211.600,160.226 211.883,160.571 212.229 C 161.301 212.958,161.443 216.798,160.786 218.026 C 160.276 218.980,133.018 219.258,132.080 218.320 C 131.571 217.811,131.345 177.931,131.843 176.633 C 132.160 175.805,158.699 175.659,159.520 176.480 C 159.800 176.760,160.000 178.100,160.000 179.690 C 160.000 183.309,160.083 183.282,149.303 183.159 C 144.629 183.106,140.701 183.165,140.576 183.291 C 140.260 183.607,140.274 192.273,140.591 192.786 C 140.753 193.048,143.668 193.200,148.544 193.200 C 157.467 193.200,157.200 193.089,157.200 196.800 C 157.200 200.511,157.467 200.400,148.544 200.400 C 143.386 200.400,140.758 200.545,140.576 200.839 C 140.372 201.170,140.259 207.473,140.390 211.300 C 140.395 211.465,144.765 211.560,150.100 211.511 L 159.800 211.422 150.200 211.211 C 144.920 211.095,140.645 210.865,140.700 210.700 C 140.755 210.535,140.800 208.240,140.800 205.600 L 140.800 200.800 148.571 200.800 C 157.809 200.800,157.600 200.891,157.600 196.848 C 157.600 192.690,157.891 192.827,148.800 192.705 L 141.000 192.600 140.887 188.100 C 140.825 185.625,140.915 183.595,141.087 183.588 C 141.259 183.582,145.502 183.537,150.515 183.488 C 158.114 183.415,159.692 183.300,160.008 182.800 C 160.563 181.922,160.494 176.654,159.920 176.080 C 158.982 175.142,132.124 175.421,131.614 176.374 M169.300 175.865 C 169.025 175.976,168.800 176.356,168.800 176.710 C 168.800 177.285,168.853 177.282,169.300 176.680 C 169.738 176.091,170.916 175.994,178.800 175.896 L 187.800 175.784 178.800 175.724 C 173.850 175.690,169.575 175.754,169.300 175.865 M71.207 176.415 C 76.751 177.731,80.962 181.682,81.640 186.200 L 81.880 187.800 81.940 186.271 C 82.098 182.244,75.037 175.837,70.664 176.040 C 70.124 176.065,70.327 176.206,71.207 176.415 M112.600 176.371 C 113.260 176.531,114.193 176.872,114.674 177.131 C 115.154 177.389,115.694 177.592,115.874 177.583 C 116.705 177.541,113.280 176.036,112.400 176.058 C 111.497 176.080,111.516 176.110,112.600 176.371 M190.200 176.372 C 191.080 176.521,192.193 176.859,192.674 177.122 C 193.154 177.385,193.784 177.596,194.074 177.591 C 194.363 177.586,193.815 177.226,192.856 176.791 C 191.897 176.356,190.547 176.023,189.856 176.050 C 188.710 176.096,188.740 176.124,190.200 176.372 M232.600 176.827 C 231.940 177.250,231.585 177.597,231.811 177.598 C 232.037 177.599,232.577 177.352,233.011 177.048 C 233.445 176.745,234.160 176.405,234.600 176.294 L 235.400 176.093 234.600 176.076 C 234.160 176.066,233.260 176.404,232.600 176.827 M254.100 176.432 C 254.485 176.656,254.814 177.146,254.832 177.520 C 254.852 177.958,254.937 178.017,255.069 177.687 C 255.309 177.091,254.511 175.994,253.851 176.012 C 253.603 176.019,253.715 176.208,254.100 176.432 M195.600 178.374 C 198.511 180.679,199.062 181.037,198.244 180.089 C 197.828 179.607,196.838 178.846,196.044 178.397 C 194.667 177.619,194.647 177.618,195.600 178.374 M118.000 178.925 C 118.000 178.994,118.585 179.579,119.300 180.225 L 120.600 181.400 119.425 180.100 C 118.330 178.888,118.000 178.616,118.000 178.925 M224.803 182.835 C 222.670 185.398,220.388 189.485,220.418 190.689 C 220.427 191.080,220.670 190.742,220.957 189.938 C 221.740 187.747,223.503 184.854,225.490 182.500 C 226.464 181.345,227.165 180.400,227.046 180.400 C 226.927 180.400,225.917 181.496,224.803 182.835 M199.325 181.843 C 201.274 184.205,202.003 188.544,201.004 191.836 C 200.260 194.290,200.270 194.500,201.059 193.042 C 202.635 190.133,201.774 183.881,199.513 181.810 L 198.630 181.000 199.325 181.843 M120.848 182.200 C 121.204 182.640,121.595 183.270,121.716 183.600 C 121.903 184.109,121.942 184.104,121.968 183.562 C 121.986 183.211,121.595 182.581,121.100 182.162 C 120.208 181.406,120.206 181.407,120.848 182.200 M39.661 182.666 C 39.214 183.150,37.617 183.237,30.413 183.169 C 19.903 183.071,20.800 182.601,20.800 188.200 C 20.800 193.756,20.072 193.313,29.072 193.226 C 37.882 193.141,37.600 193.014,37.600 197.049 C 37.600 200.615,38.773 200.112,29.800 200.395 L 22.200 200.635 29.620 200.717 C 38.352 200.815,38.000 200.980,38.000 196.769 C 38.000 192.584,38.354 192.741,29.132 192.827 L 21.400 192.898 21.400 188.192 L 21.400 183.485 30.200 183.564 C 38.624 183.640,41.446 183.283,40.399 182.273 C 40.290 182.167,39.957 182.344,39.661 182.666 M254.692 182.769 C 254.462 183.649,254.307 183.698,252.522 183.461 C 247.445 182.787,246.877 182.771,249.400 183.375 C 253.765 184.418,255.688 184.064,255.108 182.324 C 255.016 182.047,254.829 182.247,254.692 182.769 M243.705 182.687 C 244.314 182.779,245.214 182.777,245.705 182.682 C 246.197 182.587,245.700 182.511,244.600 182.514 C 243.500 182.517,243.097 182.595,243.705 182.687 M58.782 183.211 C 58.567 183.344,59.969 183.487,61.896 183.529 C 63.823 183.572,66.390 183.692,67.600 183.797 C 69.318 183.946,69.537 183.908,68.600 183.627 C 67.172 183.198,59.340 182.866,58.782 183.211 M99.816 183.118 C 99.697 183.236,99.603 183.528,99.606 183.767 C 99.610 184.068,99.702 184.065,99.906 183.756 C 100.113 183.442,101.733 183.398,105.400 183.604 C 110.683 183.902,112.284 183.834,109.137 183.446 C 106.365 183.104,100.052 182.882,99.816 183.118 M178.173 183.243 C 178.034 183.469,178.028 183.761,178.160 183.893 C 178.292 184.025,178.400 183.940,178.400 183.705 C 178.400 183.282,179.024 183.293,186.328 183.850 C 188.874 184.044,189.446 184.238,190.711 185.337 C 192.065 186.513,192.112 186.526,191.383 185.527 C 190.324 184.077,189.136 183.591,186.135 183.379 C 184.741 183.280,182.436 183.117,181.014 183.016 C 179.474 182.907,178.324 182.999,178.173 183.243 M239.000 183.411 C 236.870 184.113,238.070 184.112,240.600 183.409 C 241.703 183.103,242.152 182.861,241.600 182.869 C 241.050 182.877,239.880 183.121,239.000 183.411 M71.076 184.964 C 72.013 185.770,72.236 186.342,72.437 188.464 L 72.678 191.000 72.739 188.731 C 72.799 186.490,71.538 184.000,70.342 184.000 C 70.129 184.000,70.460 184.434,71.076 184.964 M112.152 185.367 C 114.052 188.167,112.960 191.569,109.918 192.320 C 107.845 192.832,100.763 193.071,100.084 192.652 C 99.818 192.487,99.600 192.543,99.600 192.776 C 99.600 193.288,99.637 193.292,104.400 193.210 C 106.490 193.174,108.969 192.955,109.908 192.723 C 113.655 191.797,114.762 186.858,111.778 184.382 C 111.407 184.074,111.575 184.517,112.152 185.367 M235.158 184.993 C 233.708 185.944,230.000 189.908,230.000 190.508 C 230.000 190.685,230.774 189.878,231.719 188.715 C 232.664 187.552,234.327 186.015,235.414 185.300 C 236.501 184.585,237.213 184.011,236.995 184.024 C 236.778 184.036,235.951 184.473,235.158 184.993 M122.200 187.600 C 122.200 189.344,122.322 190.462,122.472 190.085 C 122.621 189.708,122.744 188.590,122.744 187.600 C 122.744 186.610,122.621 185.492,122.472 185.115 C 122.322 184.738,122.200 185.856,122.200 187.600 M168.531 187.400 C 168.533 188.940,168.605 189.521,168.692 188.691 C 168.779 187.861,168.777 186.601,168.689 185.891 C 168.600 185.181,168.529 185.860,168.531 187.400 M58.548 189.200 C 58.548 191.510,58.614 192.455,58.695 191.300 C 58.776 190.145,58.776 188.255,58.695 187.100 C 58.614 185.945,58.548 186.890,58.548 189.200 M178.146 189.400 C 178.147 191.600,178.214 192.449,178.295 191.287 C 178.376 190.124,178.376 188.324,178.293 187.287 C 178.211 186.249,178.145 187.200,178.146 189.400 M276.800 187.200 C 276.030 187.622,275.547 187.974,275.726 187.983 C 275.906 187.992,276.446 187.789,276.926 187.531 C 277.407 187.272,278.340 186.931,279.000 186.771 C 280.084 186.510,280.103 186.480,279.200 186.458 C 278.650 186.444,277.570 186.778,276.800 187.200 M283.065 186.799 C 284.643 187.436,284.565 193.417,282.970 194.042 C 282.269 194.317,282.281 194.346,283.110 194.372 C 284.342 194.410,284.778 193.111,284.620 189.879 C 284.471 186.848,284.267 186.391,283.076 186.425 L 282.200 186.451 283.065 186.799 M295.739 187.408 C 294.605 187.926,293.578 188.511,293.457 188.708 C 293.335 188.905,294.112 188.647,295.183 188.134 C 296.255 187.621,297.822 187.039,298.666 186.841 C 300.064 186.512,300.094 186.480,299.000 186.473 C 298.340 186.469,296.873 186.890,295.739 187.408 M306.134 186.841 C 306.978 187.039,308.545 187.621,309.617 188.134 C 310.688 188.647,311.466 188.907,311.346 188.712 C 310.957 188.083,306.734 186.399,305.650 186.440 C 304.813 186.472,304.911 186.553,306.134 186.841 M372.176 187.030 C 371.749 187.376,371.654 187.527,371.965 187.366 C 372.276 187.204,373.086 186.939,373.765 186.777 C 374.900 186.506,374.918 186.479,373.976 186.441 C 373.414 186.418,372.604 186.683,372.176 187.030 M378.800 186.792 C 379.570 186.957,380.560 187.219,381.000 187.374 C 381.524 187.558,381.455 187.444,380.800 187.042 C 380.250 186.704,379.260 186.443,378.600 186.460 C 377.421 186.491,377.424 186.497,378.800 186.792 M192.000 188.786 C 192.000 191.786,190.482 193.343,186.898 194.020 C 185.414 194.301,184.449 194.614,184.753 194.716 C 186.152 195.186,189.633 193.860,191.014 192.332 C 192.268 190.944,193.156 186.800,192.200 186.800 C 192.090 186.800,192.000 187.694,192.000 188.786 M267.631 187.200 C 265.822 187.341,265.009 187.577,264.881 188.000 C 264.735 188.484,264.802 188.504,265.230 188.100 C 266.812 186.608,272.400 187.684,272.400 189.480 C 272.400 190.789,273.292 190.618,274.388 189.100 L 275.327 187.800 274.338 188.700 C 273.133 189.796,272.800 189.829,272.800 188.849 C 272.800 187.336,271.442 186.903,267.631 187.200 M324.776 187.287 C 324.349 187.445,324.000 187.782,324.000 188.036 C 324.000 188.384,324.139 188.383,324.560 188.033 C 324.919 187.735,326.395 187.609,328.660 187.684 L 332.200 187.800 332.411 198.000 C 332.548 204.587,332.792 208.590,333.101 209.300 C 333.843 211.004,333.937 210.607,333.337 208.300 C 332.949 206.806,332.799 203.557,332.817 197.041 C 332.834 190.866,332.699 187.739,332.401 187.441 C 331.911 186.951,326.007 186.832,324.776 187.287 M361.800 187.107 C 361.140 187.185,360.375 187.543,360.100 187.901 C 359.449 188.749,359.367 232.018,360.014 233.226 C 360.531 234.192,367.964 234.408,368.734 233.480 C 369.249 232.859,369.571 217.542,369.065 217.711 C 368.881 217.773,368.754 221.121,368.782 225.151 C 368.817 230.201,368.688 232.653,368.367 233.040 C 367.765 233.766,361.193 233.833,360.480 233.120 C 359.787 232.427,359.787 188.773,360.480 188.080 C 361.508 187.052,367.169 187.465,367.600 188.600 C 367.809 189.150,368.184 189.600,368.432 189.600 C 368.681 189.600,369.419 189.150,370.073 188.600 C 370.727 188.050,371.066 187.600,370.827 187.600 C 370.588 187.600,370.084 187.960,369.707 188.400 C 368.918 189.321,368.000 189.455,368.000 188.649 C 368.000 187.294,365.483 186.667,361.800 187.107 M344.007 187.987 C 343.735 188.495,343.627 192.355,343.700 198.887 L 343.814 209.000 343.907 198.780 C 344.016 186.826,343.703 187.600,348.431 187.600 C 353.172 187.600,352.871 186.768,352.724 199.470 L 352.600 210.200 351.457 212.493 C 350.828 213.754,349.603 215.427,348.736 216.210 C 347.218 217.582,346.682 217.877,343.600 219.038 C 342.770 219.350,342.510 219.572,342.961 219.582 C 345.583 219.643,350.060 216.150,351.899 212.611 C 353.081 210.335,353.840 189.944,352.814 188.027 C 352.157 186.799,344.661 186.764,344.007 187.987 M385.381 190.323 C 386.251 191.245,387.010 192.000,387.069 192.000 C 387.478 192.000,386.487 190.805,385.265 189.823 L 383.800 188.646 385.381 190.323 M291.348 190.316 C 289.982 191.499,287.999 194.248,288.001 194.956 C 288.002 195.200,288.380 194.770,288.840 194.000 C 289.300 193.230,290.417 191.835,291.322 190.900 C 293.188 188.971,293.200 188.713,291.348 190.316 M313.507 190.824 C 314.446 191.801,315.655 193.320,316.195 194.200 C 316.734 195.080,317.181 195.659,317.188 195.486 C 317.221 194.652,314.474 191.072,312.871 189.859 C 312.282 189.413,312.568 189.848,313.507 190.824 M81.664 191.120 C 81.629 191.846,81.325 192.971,80.990 193.620 C 80.654 194.269,80.469 194.800,80.579 194.800 C 81.115 194.800,82.028 192.199,81.887 191.075 L 81.728 189.800 81.664 191.120 M71.400 192.278 C 70.870 192.917,69.654 193.494,67.800 193.986 C 66.260 194.394,65.372 194.744,65.827 194.764 C 68.066 194.862,73.268 192.233,72.368 191.458 C 72.276 191.379,71.840 191.748,71.400 192.278 M121.011 192.632 C 120.587 193.419,119.736 194.488,119.120 195.006 C 117.957 195.985,117.660 196.800,118.467 196.800 C 118.723 196.800,118.820 196.687,118.681 196.548 C 118.543 196.409,119.233 195.377,120.215 194.255 C 121.197 193.132,122.000 191.986,122.000 191.707 C 122.000 190.935,121.849 191.076,121.011 192.632 M229.228 193.284 C 228.936 194.499,228.797 195.742,228.917 196.047 C 229.038 196.351,229.151 196.132,229.168 195.560 C 229.186 194.988,229.396 193.956,229.636 193.268 C 229.876 192.580,230.002 191.805,229.915 191.545 C 229.829 191.286,229.519 192.068,229.228 193.284 M219.664 193.544 C 219.021 195.690,219.097 200.997,219.805 203.400 C 220.129 204.500,220.300 204.860,220.186 204.200 C 219.637 201.024,219.524 195.924,219.964 194.177 C 220.541 191.887,220.308 191.396,219.664 193.544 M372.800 193.800 C 371.120 194.447,372.140 194.588,373.946 193.959 C 375.454 193.433,378.011 194.277,379.273 195.716 L 380.047 196.600 379.400 195.534 C 378.222 193.595,375.316 192.831,372.800 193.800 M301.100 194.289 C 301.815 194.378,302.985 194.378,303.700 194.289 C 304.415 194.201,303.830 194.128,302.400 194.128 C 300.970 194.128,300.385 194.201,301.100 194.289 M58.765 194.926 C 58.944 195.105,59.881 195.191,60.846 195.118 L 62.600 194.985 60.519 194.793 C 59.375 194.687,58.585 194.747,58.765 194.926 M178.000 194.900 C 178.000 195.065,179.395 195.173,181.100 195.140 C 184.255 195.079,183.882 194.920,180.100 194.714 C 178.945 194.651,178.000 194.735,178.000 194.900 M199.200 195.825 C 198.251 197.107,195.349 199.485,194.017 200.072 C 193.678 200.221,193.616 200.356,193.880 200.372 C 195.105 200.444,200.964 195.219,200.340 194.610 C 200.263 194.535,199.750 195.081,199.200 195.825 M297.904 195.500 C 296.279 197.209,295.190 200.427,295.260 203.315 L 295.321 205.800 295.600 202.800 C 295.925 199.319,297.058 196.484,298.614 195.261 C 299.216 194.787,299.537 194.400,299.329 194.400 C 299.120 194.400,298.479 194.895,297.904 195.500 M305.235 194.500 C 305.328 194.555,306.033 195.140,306.802 195.800 L 308.200 197.000 307.025 195.700 C 306.379 194.985,305.674 194.400,305.458 194.400 C 305.243 194.400,305.143 194.445,305.235 194.500 M369.875 195.522 L 368.800 196.644 368.800 203.148 C 368.800 206.860,368.977 209.984,369.213 210.425 C 369.619 211.182,372.718 213.016,373.043 212.690 C 373.134 212.600,372.475 212.195,371.580 211.791 C 369.292 210.759,369.200 210.426,369.200 203.148 L 369.200 196.644 370.275 195.522 C 370.866 194.905,371.260 194.400,371.150 194.400 C 371.040 194.400,370.466 194.905,369.875 195.522 M388.401 194.526 C 388.401 194.706,388.613 195.246,388.874 195.726 C 389.135 196.207,389.474 197.230,389.628 198.000 L 389.908 199.400 389.954 198.110 C 389.979 197.400,389.641 196.230,389.201 195.510 C 388.762 194.789,388.402 194.347,388.401 194.526 M276.800 195.431 L 275.800 196.033 276.800 195.768 C 278.252 195.384,279.203 194.824,278.400 194.826 C 278.070 194.827,277.350 195.099,276.800 195.431 M238.480 195.680 C 237.803 196.357,237.838 202.168,238.522 202.736 C 238.810 202.974,240.835 203.221,243.022 203.285 L 247.000 203.400 247.000 207.481 C 247.000 209.726,247.142 211.420,247.315 211.246 C 247.489 211.072,247.579 209.145,247.515 206.965 L 247.400 203.000 243.422 202.885 C 238.423 202.740,238.338 202.670,238.484 198.838 L 238.600 195.800 246.949 195.692 C 252.770 195.616,255.465 195.722,255.849 196.041 C 256.582 196.649,256.659 215.966,255.935 217.326 C 255.514 218.116,255.533 218.147,256.135 217.651 C 256.987 216.948,257.160 196.520,256.320 195.680 C 255.640 195.000,239.160 195.000,238.480 195.680 M287.229 196.524 C 285.799 200.285,285.998 208.958,287.550 210.510 C 287.741 210.701,287.635 209.900,287.313 208.729 C 286.556 205.972,286.547 200.373,287.295 197.700 C 287.897 195.550,287.858 194.868,287.229 196.524 M78.496 197.300 C 77.237 198.599,75.574 199.624,73.500 200.379 C 72.101 200.889,72.133 201.459,73.660 203.200 C 74.335 203.970,74.698 204.225,74.466 203.767 C 74.234 203.309,73.764 202.702,73.422 202.418 C 72.499 201.652,72.667 200.920,73.833 200.627 C 75.566 200.193,81.111 196.000,79.953 196.000 C 79.845 196.000,79.190 196.585,78.496 197.300 M274.395 197.006 L 273.450 198.011 273.556 207.573 C 273.628 214.028,273.518 217.406,273.217 217.968 C 272.597 219.128,265.895 219.239,265.232 218.100 C 264.858 217.458,264.823 217.456,264.812 218.076 C 264.794 219.074,265.124 219.163,269.194 219.253 C 274.349 219.367,274.055 220.065,273.970 207.879 C 273.900 198.032,273.907 197.951,274.820 196.979 C 275.326 196.441,275.649 196.000,275.539 196.000 C 275.429 196.000,274.914 196.453,274.395 197.006 M119.344 197.109 C 119.660 197.621,122.000 199.353,122.000 199.075 C 122.000 198.976,121.339 198.391,120.532 197.775 C 119.724 197.159,119.189 196.859,119.344 197.109 M308.014 197.254 C 308.006 197.394,308.263 198.114,308.584 198.854 C 308.906 199.594,309.169 199.930,309.170 199.600 C 309.172 199.024,308.043 196.734,308.014 197.254 M317.817 198.400 C 319.232 204.605,317.618 210.975,313.459 215.599 L 312.200 216.998 313.516 215.809 C 317.735 211.996,320.072 203.444,318.164 198.800 C 317.845 198.023,317.690 197.845,317.817 198.400 M380.596 203.026 C 380.593 205.871,380.707 207.660,380.848 207.000 C 381.178 205.460,381.181 200.550,380.853 199.026 C 380.714 198.380,380.598 200.180,380.596 203.026 M122.687 200.568 C 123.469 201.614,123.752 201.663,123.378 200.688 C 123.246 200.344,122.876 199.961,122.556 199.839 C 122.118 199.670,122.150 199.851,122.687 200.568 M228.835 200.200 C 228.824 200.640,229.066 201.900,229.372 203.000 C 229.678 204.100,229.937 204.640,229.947 204.200 C 229.957 203.760,229.715 202.500,229.409 201.400 C 229.104 200.300,228.845 199.760,228.835 200.200 M20.975 200.922 C 20.463 202.254,21.000 211.335,21.600 211.498 C 22.067 211.625,22.084 211.579,21.677 211.293 C 21.280 211.013,21.184 209.654,21.277 205.661 C 21.399 200.452,21.364 199.907,20.975 200.922 M105.800 200.777 C 108.440 200.940,111.107 201.281,111.726 201.536 C 113.344 202.203,113.601 202.079,112.200 201.308 C 111.294 200.809,109.776 200.627,106.000 200.565 L 101.000 200.482 105.800 200.777 M192.267 200.667 C 191.770 201.163,191.996 201.885,193.100 203.324 C 193.705 204.112,195.006 205.847,195.990 207.179 C 196.975 208.510,197.841 209.600,197.914 209.600 C 198.125 209.600,197.559 208.720,196.343 207.155 C 193.026 202.887,192.033 201.015,192.900 200.665 C 193.179 200.552,193.209 200.449,192.967 200.432 C 192.728 200.414,192.413 200.520,192.267 200.667 M390.128 202.800 C 390.128 204.230,390.201 204.815,390.289 204.100 C 390.378 203.385,390.378 202.215,390.289 201.500 C 390.201 200.785,390.128 201.370,390.128 202.800 M309.328 203.200 C 309.328 204.630,309.401 205.215,309.489 204.500 C 309.578 203.785,309.578 202.615,309.489 201.900 C 309.401 201.185,309.328 201.770,309.328 203.200 M58.629 202.629 C 58.283 202.974,58.014 203.559,58.032 203.929 C 58.057 204.477,58.104 204.490,58.284 204.000 C 58.405 203.670,58.779 203.085,59.114 202.700 C 59.872 201.830,59.484 201.773,58.629 202.629 M60.600 202.396 C 59.980 202.658,60.142 202.727,61.317 202.702 C 62.378 202.679,62.998 202.899,63.384 203.435 C 63.687 203.856,64.230 204.560,64.590 205.000 L 65.244 205.800 64.861 205.000 C 63.748 202.676,62.188 201.722,60.600 202.396 M113.603 202.090 C 113.601 202.250,113.959 202.970,114.399 203.690 C 114.838 204.411,115.196 204.820,115.196 204.600 C 115.195 204.380,114.837 203.660,114.400 203.000 C 113.963 202.340,113.604 201.931,113.603 202.090 M123.840 202.600 C 124.783 205.151,123.890 210.052,122.097 212.165 C 121.427 212.954,121.429 212.964,122.142 212.409 C 124.252 210.768,125.474 204.945,124.158 202.800 C 123.774 202.174,123.655 202.100,123.840 202.600 M178.166 202.456 C 178.030 202.674,178.028 202.961,178.160 203.093 C 178.292 203.225,178.400 203.136,178.400 202.895 C 178.400 202.431,181.641 202.531,182.431 203.019 C 182.671 203.167,183.479 204.246,184.229 205.418 C 184.978 206.589,185.770 207.658,185.990 207.794 C 186.569 208.152,183.409 203.471,182.641 202.834 C 181.857 202.183,178.509 201.900,178.166 202.456 M178.164 211.000 C 178.163 214.740,178.223 216.324,178.297 214.520 C 178.371 212.715,178.372 209.655,178.298 207.720 C 178.225 205.784,178.164 207.260,178.164 211.000 M75.591 205.988 C 76.057 206.641,76.642 207.302,76.891 207.456 C 77.141 207.611,76.841 207.076,76.225 206.268 C 74.888 204.515,74.384 204.292,75.591 205.988 M230.362 205.929 C 230.605 206.384,231.001 206.877,231.242 207.026 C 231.556 207.220,231.554 207.062,231.238 206.471 C 230.995 206.016,230.599 205.523,230.358 205.374 C 230.044 205.180,230.046 205.338,230.362 205.929 M220.416 205.849 C 220.387 206.671,221.980 209.886,222.695 210.447 C 223.347 210.959,223.355 210.943,222.800 210.241 C 222.470 209.823,221.802 208.563,221.316 207.441 C 220.830 206.318,220.425 205.602,220.416 205.849 M66.013 207.268 C 66.469 208.076,67.132 208.976,67.486 209.268 C 68.389 210.013,67.620 208.644,66.212 207.000 L 65.184 205.800 66.013 207.268 M295.632 206.254 C 295.615 206.504,295.863 207.314,296.184 208.054 C 296.506 208.794,296.768 209.130,296.766 208.800 C 296.763 208.061,295.678 205.623,295.632 206.254 M308.670 207.010 C 308.521 207.445,308.291 208.070,308.158 208.400 C 308.026 208.730,308.219 208.590,308.588 208.090 C 308.958 207.589,309.188 206.964,309.100 206.700 C 309.010 206.431,308.822 206.567,308.670 207.010 M389.527 207.657 C 389.141 209.798,387.284 213.496,385.657 215.365 L 384.234 217.000 385.693 215.645 C 387.471 213.993,390.101 208.785,389.919 207.275 C 389.803 206.313,389.762 206.353,389.527 207.657 M113.843 208.544 C 112.919 209.866,112.866 210.040,113.580 209.404 C 114.488 208.596,115.373 207.231,115.132 207.010 C 115.060 206.943,114.479 207.633,113.843 208.544 M231.600 207.725 C 231.600 207.824,232.261 208.409,233.068 209.025 C 233.876 209.641,234.411 209.941,234.256 209.691 C 233.940 209.179,231.600 207.447,231.600 207.725 M78.341 209.700 C 79.055 210.745,79.714 211.600,79.806 211.600 C 80.121 211.600,78.359 208.864,77.701 208.332 C 77.340 208.039,77.628 208.655,78.341 209.700 M324.053 209.256 C 323.905 213.289,329.926 219.728,333.687 219.559 C 334.427 219.526,334.372 219.463,333.400 219.226 C 328.851 218.118,325.115 214.126,324.394 209.600 C 324.113 207.839,324.106 207.831,324.053 209.256 M307.091 210.226 C 306.214 211.399,303.581 212.147,301.250 211.884 C 300.161 211.761,299.703 211.820,300.046 212.037 C 301.959 213.248,309.387 210.809,307.964 209.437 C 307.874 209.350,307.481 209.705,307.091 210.226 M342.377 210.518 C 341.186 211.897,338.180 212.420,335.936 211.637 C 334.867 211.265,334.715 211.275,335.129 211.689 C 336.283 212.843,341.045 212.340,342.472 210.913 C 343.180 210.205,343.678 209.560,343.579 209.479 C 343.481 209.398,342.940 209.866,342.377 210.518 M110.800 210.484 C 110.250 210.722,107.820 211.052,105.400 211.217 L 101.000 211.518 105.400 211.431 C 108.419 211.371,110.239 211.143,111.200 210.704 C 112.751 209.996,112.388 209.796,110.800 210.484 M187.600 210.152 C 187.600 210.503,191.610 216.000,191.866 216.000 C 191.977 216.000,191.387 215.055,190.555 213.900 C 188.200 210.633,187.600 209.871,187.600 210.152 M199.849 212.700 C 201.789 215.472,202.787 216.705,202.197 215.600 C 201.613 214.508,198.363 210.000,198.160 210.000 C 198.050 210.000,198.810 211.215,199.849 212.700 M236.000 210.800 C 236.770 211.222,237.850 211.556,238.400 211.542 C 239.303 211.520,239.284 211.490,238.200 211.229 C 237.540 211.069,236.607 210.728,236.126 210.469 C 235.646 210.211,235.106 210.008,234.926 210.017 C 234.747 210.026,235.230 210.378,236.000 210.800 M223.553 211.863 C 224.048 212.844,228.363 216.800,228.937 216.800 C 229.145 216.800,228.496 216.175,227.495 215.411 C 226.495 214.646,225.100 213.341,224.396 212.511 C 223.693 211.680,223.313 211.388,223.553 211.863 M288.012 211.478 C 288.005 211.740,288.405 212.379,288.900 212.897 C 289.395 213.415,289.600 213.560,289.356 213.220 C 289.112 212.879,288.712 212.240,288.468 211.800 C 288.224 211.360,288.019 211.215,288.012 211.478 M69.508 212.200 C 69.737 212.640,70.436 213.665,71.062 214.478 C 71.688 215.291,72.695 216.670,73.301 217.543 L 74.401 219.129 78.901 219.279 C 85.036 219.483,85.907 218.793,83.155 215.906 L 81.909 214.600 82.955 215.931 C 84.995 218.527,84.643 218.800,79.254 218.800 L 74.509 218.800 73.354 217.101 C 72.121 215.287,69.649 211.931,69.302 211.600 C 69.186 211.490,69.279 211.760,69.508 212.200 M241.312 211.895 C 242.364 211.977,243.984 211.976,244.912 211.892 C 245.840 211.808,244.980 211.741,243.000 211.742 C 241.020 211.743,240.260 211.812,241.312 211.895 M376.624 212.213 C 376.196 212.536,376.027 212.800,376.247 212.800 C 376.467 212.800,376.996 212.536,377.424 212.213 C 377.851 211.890,378.020 211.625,377.800 211.625 C 377.580 211.625,377.051 211.890,376.624 212.213 M81.000 213.600 C 81.398 214.040,81.792 214.400,81.876 214.400 C 81.960 214.400,81.835 214.040,81.600 213.600 C 81.365 213.160,80.970 212.800,80.724 212.800 C 80.478 212.800,80.602 213.160,81.000 213.600 M120.000 214.459 C 118.327 215.924,114.200 217.981,112.800 218.046 C 112.036 218.082,111.978 218.138,112.552 218.286 C 113.782 218.601,117.789 216.766,119.865 214.936 C 120.929 213.998,121.710 213.231,121.600 213.232 C 121.490 213.232,120.770 213.784,120.000 214.459 M290.362 214.926 C 290.982 215.704,294.000 218.168,294.000 217.896 C 294.000 217.802,293.055 216.937,291.900 215.974 C 290.745 215.010,290.053 214.539,290.362 214.926 M203.064 217.300 L 203.305 218.800 198.906 218.800 C 194.973 218.800,194.386 218.706,193.354 217.911 C 192.560 217.299,192.377 217.243,192.767 217.733 C 193.968 219.239,195.753 219.502,202.900 219.227 C 203.682 219.197,203.871 217.444,203.205 216.400 C 202.943 215.988,202.898 216.271,203.064 217.300 M229.861 217.221 C 230.576 217.936,235.360 219.600,236.576 219.556 C 237.643 219.518,237.585 219.470,236.121 219.181 C 235.198 218.998,233.328 218.399,231.965 217.848 C 230.602 217.298,229.656 217.016,229.861 217.221 M309.800 218.034 C 308.700 218.665,307.350 219.210,306.800 219.245 C 305.902 219.302,305.888 219.326,306.667 219.478 C 307.537 219.648,311.323 217.971,311.795 217.208 C 312.112 216.696,312.183 216.666,309.800 218.034 M382.777 217.643 C 382.214 218.082,381.044 218.694,380.177 219.003 C 379.310 219.312,378.921 219.573,379.313 219.582 C 380.255 219.606,384.000 217.697,384.000 217.193 C 384.000 216.691,383.993 216.694,382.777 217.643 M168.800 218.164 C 168.800 219.413,177.541 219.640,177.918 218.400 C 178.065 217.916,177.998 217.896,177.570 218.300 C 176.746 219.077,170.231 218.974,169.429 218.171 C 168.864 217.607,168.800 217.606,168.800 218.164 M253.200 218.451 C 252.650 218.671,251.210 218.998,250.000 219.177 L 247.800 219.502 249.600 219.520 C 250.590 219.530,252.300 219.206,253.400 218.800 C 254.500 218.394,255.130 218.059,254.800 218.056 C 254.470 218.053,253.750 218.231,253.200 218.451 M295.600 218.759 C 296.370 219.203,297.360 219.566,297.800 219.566 C 298.298 219.565,298.072 219.366,297.200 219.036 C 294.463 218.003,294.217 217.961,295.600 218.759 M370.800 218.756 C 371.350 219.211,372.070 219.585,372.400 219.589 C 372.926 219.594,372.606 219.381,370.301 218.190 C 370.026 218.047,370.250 218.302,370.800 218.756 M240.700 219.895 C 241.855 219.976,243.745 219.976,244.900 219.895 C 246.055 219.814,245.110 219.748,242.800 219.748 C 240.490 219.748,239.545 219.814,240.700 219.895 M300.700 219.893 C 301.635 219.977,303.165 219.977,304.100 219.893 C 305.035 219.809,304.270 219.740,302.400 219.740 C 300.530 219.740,299.765 219.809,300.700 219.893 M336.700 219.893 C 337.635 219.977,339.165 219.977,340.100 219.893 C 341.035 219.809,340.270 219.740,338.400 219.740 C 336.530 219.740,335.765 219.809,336.700 219.893 M375.107 219.890 C 375.826 219.979,376.906 219.977,377.507 219.886 C 378.108 219.795,377.520 219.722,376.200 219.724 C 374.880 219.726,374.388 219.801,375.107 219.890 " stroke="none" fill="#3b6ba4" fill-rule="evenodd"></path></g></svg>