<svg id="svg" version="1.1" xmlns="http://www.w3.org/2000/svg" xmlns:xlink="http://www.w3.org/1999/xlink" width="200" height="148.3791066814323" viewBox="0, 0, 400,297.3791066814323"><g id="svgg"><path id="path0" d="M310.258 17.932 L 328.219 35.863 310.318 53.765 L 292.417 71.667 328.309 71.667 L 364.201 71.667 382.017 53.863 C 391.816 44.071,399.833 36.004,399.833 35.937 C 399.833 35.870,391.771 27.757,381.917 17.907 L 364.001 0.000 328.148 -0.000 L 292.296 -0.000 310.258 17.932 M205.500 0.262 C 205.500 0.314,213.487 8.342,223.250 18.101 C 233.012 27.860,241.000 35.899,241.000 35.964 C 240.999 36.030,233.010 44.071,223.245 53.833 L 205.492 71.583 241.120 71.625 L 276.749 71.667 294.624 53.792 L 312.500 35.917 294.625 18.042 L 276.751 0.167 241.125 0.167 C 221.531 0.167,205.500 0.209,205.500 0.262 M47.667 82.344 C 43.347 82.745,42.368 82.884,40.085 83.421 C 25.924 86.755,15.057 94.661,7.220 107.333 C 4.475 111.771,1.974 118.621,1.012 124.333 C 0.218 129.047,0.167 130.127,0.167 142.279 L 0.167 153.667 17.159 153.667 L 34.152 153.667 34.205 142.125 L 34.257 130.583 34.716 128.917 C 36.243 123.365,39.910 119.328,45.312 117.247 C 48.164 116.149,47.663 116.167,76.619 116.167 L 102.500 116.167 102.500 99.167 L 102.500 82.167 75.792 82.190 C 61.102 82.203,48.446 82.272,47.667 82.344 M149.667 82.284 C 130.009 83.488,111.912 97.489,105.442 116.500 C 103.056 123.511,102.671 127.124,102.668 142.542 L 102.667 153.667 119.745 153.667 L 136.823 153.667 136.870 142.042 C 136.917 130.442,136.918 130.413,137.309 128.917 C 138.766 123.350,142.909 118.921,148.368 117.096 C 151.178 116.157,150.844 116.167,179.063 116.167 L 205.000 116.167 205.000 99.167 L 205.000 82.167 177.792 82.197 C 162.827 82.214,150.171 82.254,149.667 82.284 M251.417 82.345 C 230.412 84.011,211.790 99.860,206.683 120.417 C 205.292 126.016,205.168 127.785,205.167 141.958 L 205.167 153.667 222.167 153.667 L 239.167 153.667 239.167 142.863 C 239.167 131.174,239.216 130.366,240.099 127.703 C 241.923 122.199,246.633 117.959,252.417 116.617 C 253.900 116.272,254.221 116.268,280.792 116.214 L 307.667 116.159 307.667 99.163 L 307.667 82.167 280.375 82.190 C 265.365 82.203,252.333 82.273,251.417 82.345 M44.667 140.167 L 44.667 153.667 59.882 153.667 L 75.097 153.667 82.173 146.645 C 86.065 142.782,92.184 136.707,95.769 133.145 L 102.288 126.667 73.477 126.667 L 44.667 126.667 44.667 140.167 M0.167 194.833 L 0.167 225.500 17.167 225.500 L 34.167 225.500 34.167 194.833 L 34.167 164.167 17.167 164.167 L 0.167 164.167 0.167 194.833 M102.668 170.125 C 102.670 179.896,103.333 184.820,105.486 191.064 C 111.279 207.863,125.434 220.465,142.833 224.313 C 147.691 225.388,147.570 225.380,159.818 225.456 L 171.052 225.527 187.918 208.555 L 204.784 191.583 178.350 191.485 C 160.890 191.419,151.597 191.326,150.975 191.209 C 144.397 189.978,139.253 185.281,137.385 178.801 C 136.940 177.257,136.937 177.219,136.875 170.708 L 136.812 164.167 119.740 164.167 L 102.667 164.167 102.668 170.125 M205.167 170.708 C 205.168 179.184,205.383 181.583,206.595 186.583 C 211.168 205.458,226.413 220.291,245.411 224.351 C 250.245 225.384,250.127 225.377,262.400 225.455 L 273.716 225.526 290.583 208.555 L 307.449 191.583 280.850 191.490 C 252.868 191.391,253.455 191.407,251.250 190.694 C 245.496 188.833,241.040 184.045,239.635 178.214 C 239.316 176.891,239.276 176.145,239.212 170.458 L 239.142 164.167 222.154 164.167 L 205.167 164.167 205.167 170.708 M94.000 261.583 L 94.000 263.833 96.500 263.833 L 99.000 263.833 99.000 261.583 L 99.000 259.333 96.500 259.333 L 94.000 259.333 94.000 261.583 M0.000 278.000 L 0.000 296.500 12.250 296.500 L 24.500 296.500 24.500 294.333 L 24.500 292.167 14.665 292.167 L 4.830 292.167 4.873 285.208 L 4.917 278.250 14.708 278.207 L 24.500 278.164 24.500 276.082 L 24.500 274.000 14.667 274.000 L 4.833 274.000 4.833 268.917 L 4.833 263.833 14.667 263.833 L 24.500 263.833 24.500 261.667 L 24.500 259.500 12.250 259.500 L 0.000 259.500 0.000 278.000 M306.000 264.833 L 306.000 268.833 304.417 268.833 L 302.833 268.833 302.833 270.750 L 302.833 272.667 304.404 272.667 L 305.974 272.667 306.043 281.208 C 306.125 291.234,306.202 291.818,307.739 294.083 C 309.497 296.674,313.750 297.633,318.792 296.574 L 320.167 296.286 320.167 294.236 L 320.167 292.187 318.958 292.619 C 315.793 293.751,312.533 293.094,311.341 291.085 L 310.750 290.090 310.699 281.378 L 310.648 272.667 315.407 272.667 L 320.167 272.667 320.167 270.750 L 320.167 268.833 315.417 268.833 L 310.667 268.833 310.667 264.833 L 310.667 260.833 308.333 260.833 L 306.000 260.833 306.000 264.833 M44.500 268.105 C 42.163 268.566,39.879 269.570,37.811 271.046 C 36.413 272.043,36.500 272.091,36.500 270.333 L 36.500 268.833 34.333 268.833 L 32.167 268.833 32.167 282.667 L 32.167 296.500 34.333 296.500 L 36.500 296.500 36.500 286.116 L 36.500 275.732 37.458 275.058 C 42.990 271.165,48.811 271.443,50.200 275.667 C 50.544 276.713,50.559 277.090,50.628 286.625 L 50.699 296.500 52.941 296.500 L 55.183 296.500 55.119 286.125 C 55.042 273.618,54.973 273.175,52.709 270.656 C 51.002 268.757,47.193 267.574,44.500 268.105 M138.671 268.190 C 134.170 268.936,130.685 271.779,129.200 275.917 C 127.331 281.125,127.837 287.808,130.402 291.810 C 136.155 300.785,150.707 298.240,152.939 287.869 C 153.486 285.330,153.546 284.819,153.552 282.667 C 153.570 276.606,151.410 272.122,147.286 269.655 C 145.062 268.324,141.508 267.720,138.671 268.190 M173.223 268.174 C 171.220 268.570,168.352 269.830,167.049 270.887 C 166.793 271.095,166.377 271.394,166.125 271.553 L 165.667 271.841 165.667 270.337 L 165.667 268.833 163.333 268.833 L 161.000 268.833 161.000 282.667 L 161.000 296.500 163.333 296.500 L 165.667 296.500 165.667 286.039 L 165.667 275.578 166.540 274.997 C 171.908 271.429,177.248 271.387,178.837 274.900 C 179.599 276.585,179.667 277.604,179.667 287.407 L 179.667 296.500 181.917 296.500 L 184.167 296.500 184.163 287.042 C 184.160 276.092,184.066 274.843,183.093 272.736 C 181.486 269.258,177.366 267.354,173.223 268.174 M205.000 268.230 C 202.978 268.710,201.081 269.650,198.750 271.328 L 198.083 271.807 198.035 270.320 L 197.987 268.833 195.660 268.833 L 193.333 268.833 193.333 282.667 L 193.333 296.500 195.667 296.500 L 198.000 296.500 198.002 286.042 L 198.004 275.583 198.877 274.980 C 203.808 271.570,208.860 271.400,210.617 274.583 C 211.219 275.674,211.326 277.569,211.330 287.208 L 211.333 296.500 213.681 296.500 L 216.029 296.500 215.982 286.080 L 215.936 275.660 217.010 274.939 C 220.173 272.815,221.283 272.415,224.000 272.420 C 226.403 272.424,227.421 272.828,228.280 274.120 C 229.231 275.552,229.220 275.419,229.291 286.375 L 229.356 296.500 231.691 296.500 L 234.025 296.500 233.955 286.375 L 233.885 276.250 233.467 274.583 C 231.568 267.011,222.754 265.711,215.625 271.952 C 214.828 272.649,214.843 272.653,214.250 271.638 C 212.698 268.985,208.434 267.414,205.000 268.230 M252.750 268.105 C 245.173 269.294,240.793 275.234,241.220 283.740 C 241.589 291.097,244.906 295.072,252.167 296.858 C 253.859 297.274,258.273 297.140,260.246 296.612 C 261.161 296.367,262.009 296.167,262.132 296.167 C 262.254 296.167,263.100 295.857,264.011 295.479 L 265.667 294.792 265.667 292.282 L 265.667 289.771 265.208 290.193 C 263.976 291.327,259.913 292.865,257.265 293.199 C 250.787 294.017,245.862 290.035,245.837 283.958 L 245.833 283.167 256.107 283.167 L 266.381 283.167 266.285 280.542 C 266.040 273.790,263.569 269.963,258.552 268.565 C 257.103 268.161,253.973 267.913,252.750 268.105 M285.750 268.183 C 283.471 268.641,281.320 269.619,279.250 271.136 L 278.250 271.869 278.202 270.351 L 278.154 268.833 275.910 268.833 L 273.667 268.833 273.667 282.667 L 273.667 296.500 275.917 296.500 L 278.167 296.500 278.170 286.042 L 278.173 275.583 279.045 275.005 C 284.729 271.235,290.334 271.455,291.639 275.500 C 292.207 277.261,292.333 279.577,292.333 288.268 L 292.333 296.500 294.509 296.500 L 296.685 296.500 296.628 285.875 C 296.564 274.144,296.614 274.711,295.460 272.417 C 293.833 269.182,289.712 267.385,285.750 268.183 M61.314 269.875 C 61.571 270.448,61.878 271.210,61.996 271.569 C 62.114 271.928,62.457 272.763,62.759 273.424 C 63.060 274.085,63.381 274.879,63.472 275.188 C 63.634 275.735,64.278 277.361,65.412 280.083 C 66.271 282.148,67.932 286.266,68.571 287.917 C 69.406 290.074,70.042 291.639,70.592 292.889 C 70.908 293.607,71.167 294.279,71.167 294.381 C 71.167 294.484,71.368 295.005,71.615 295.539 L 72.063 296.509 74.306 296.463 L 76.549 296.417 77.211 294.833 C 77.575 293.962,78.116 292.650,78.414 291.917 C 78.713 291.183,79.223 289.946,79.548 289.167 C 79.872 288.387,80.322 287.262,80.547 286.667 C 80.772 286.071,81.104 285.246,81.285 284.833 C 81.787 283.687,82.666 281.513,83.005 280.583 C 83.171 280.125,83.730 278.737,84.247 277.500 C 84.764 276.262,85.323 274.875,85.490 274.417 C 85.656 273.958,86.016 273.058,86.289 272.417 C 86.563 271.775,87.016 270.706,87.296 270.042 L 87.806 268.833 85.414 268.833 C 83.077 268.833,83.020 268.842,82.915 269.208 C 82.801 269.603,82.483 270.436,79.779 277.417 C 79.460 278.242,78.852 279.817,78.429 280.917 C 76.983 284.676,76.304 286.417,75.667 288.000 C 75.316 288.871,74.986 289.771,74.933 290.000 C 74.618 291.358,74.431 291.164,73.331 288.333 C 72.850 287.096,72.204 285.470,71.895 284.721 C 71.586 283.972,71.333 283.283,71.333 283.191 C 71.333 283.099,71.045 282.325,70.692 281.470 C 70.339 280.616,69.956 279.654,69.839 279.333 C 69.722 279.012,69.302 277.925,68.905 276.917 C 68.508 275.908,67.800 274.108,67.331 272.917 C 66.862 271.725,66.327 270.319,66.141 269.792 L 65.803 268.833 63.325 268.833 L 60.847 268.833 61.314 269.875 M94.333 282.667 L 94.333 296.500 96.500 296.500 L 98.667 296.500 98.667 282.667 L 98.667 268.833 96.500 268.833 L 94.333 268.833 94.333 282.667 M108.167 282.667 L 108.167 296.500 110.417 296.500 L 112.667 296.500 112.667 286.666 L 112.667 276.831 113.093 276.457 C 116.366 273.584,119.929 272.729,124.958 273.610 L 125.500 273.704 125.500 271.375 L 125.500 269.045 124.727 268.939 C 120.632 268.378,117.637 269.287,113.694 272.286 C 112.722 273.025,112.667 272.941,112.667 270.740 L 112.667 268.833 110.417 268.833 L 108.167 268.833 108.167 282.667 M256.756 271.925 C 259.992 272.768,261.833 275.277,261.833 278.844 L 261.833 279.667 253.833 279.667 L 245.833 279.667 245.833 279.258 C 245.833 274.335,251.473 270.549,256.756 271.925 M142.884 272.082 C 147.062 273.170,148.836 276.306,148.831 282.594 C 148.825 289.588,146.500 292.986,141.417 293.429 C 134.793 294.007,131.060 286.865,133.267 277.833 C 134.342 273.432,138.506 270.942,142.884 272.082 " stroke="none" fill="#3d6a5e" fill-rule="evenodd"></path><path id="path1" d="M0.025 65.458 C 0.039 101.460,0.105 130.054,0.172 129.000 C 0.633 121.803,3.988 111.394,7.397 106.585 C 7.591 106.311,7.990 105.688,8.284 105.202 C 14.971 94.135,28.735 85.082,42.416 82.754 C 46.860 81.997,47.376 81.986,75.750 82.036 L 102.750 82.083 102.750 99.167 L 102.750 116.250 75.750 116.338 L 48.750 116.427 47.500 116.786 C 41.528 118.502,37.691 121.790,35.595 126.986 C 34.524 129.643,34.512 129.810,34.506 142.375 L 34.500 153.667 17.250 153.667 L 0.000 153.667 0.000 158.833 L 0.000 164.000 17.167 164.000 L 34.333 164.000 34.333 194.833 L 34.333 225.667 17.167 225.667 L 0.000 225.667 0.000 242.500 L 0.000 259.333 12.250 259.333 L 24.500 259.333 24.500 261.583 L 24.500 263.833 14.750 263.833 L 5.000 263.833 5.000 268.833 L 5.000 273.833 14.750 273.833 L 24.500 273.833 24.500 276.167 L 24.500 278.500 14.750 278.500 L 5.000 278.500 5.000 285.333 L 5.000 292.167 14.750 292.167 L 24.500 292.167 24.500 294.417 L 24.500 296.667 12.250 296.667 C 0.111 296.667,0.000 296.670,0.000 297.000 C 0.000 297.333,0.107 297.333,69.208 297.320 C 128.865 297.309,138.267 297.275,137.333 297.074 C 131.491 295.819,127.940 290.373,127.940 282.667 C 127.940 273.263,132.640 267.921,140.917 267.918 C 148.893 267.914,153.671 273.321,153.730 282.417 C 153.780 290.313,150.258 295.784,144.287 297.081 C 143.409 297.272,151.732 297.305,198.750 297.297 C 229.275 297.291,253.686 297.233,252.997 297.166 C 246.685 296.560,242.046 292.090,241.179 285.780 C 239.704 275.036,245.746 267.443,255.417 267.887 C 262.669 268.219,266.473 272.681,266.494 280.875 L 266.500 283.167 256.195 283.167 L 245.889 283.167 245.960 284.125 C 246.447 290.710,251.654 294.146,258.879 292.649 C 260.747 292.262,263.403 291.174,264.784 290.230 C 265.978 289.414,266.000 289.454,266.000 292.407 L 266.000 294.961 265.125 295.314 C 263.324 296.041,259.874 297.024,258.667 297.154 C 257.979 297.228,289.498 297.299,328.708 297.311 L 400.000 297.333 400.000 166.709 L 400.000 36.084 382.041 54.042 L 364.083 72.000 328.218 72.000 C 308.492 72.000,292.315 71.939,292.270 71.865 C 292.224 71.791,300.244 63.672,310.093 53.824 L 328.000 35.917 310.042 17.959 L 292.084 -0.000 284.501 -0.000 L 276.917 -0.000 294.875 17.959 L 312.833 35.917 294.791 53.959 L 276.749 72.000 240.968 72.000 C 221.288 72.000,205.149 71.939,205.103 71.865 C 205.057 71.791,213.074 63.676,222.919 53.831 L 240.818 35.933 222.845 17.966 L 204.873 0.000 102.436 0.000 L 0.000 0.000 0.025 65.458 M382.083 17.833 C 391.891 27.642,399.935 35.667,399.958 35.667 C 399.981 35.667,400.000 27.642,400.000 17.833 L 400.000 0.000 382.125 -0.000 L 364.251 -0.000 382.083 17.833 M205.167 99.167 L 205.167 116.333 178.875 116.335 C 161.756 116.335,152.205 116.395,151.500 116.507 C 144.796 117.563,139.944 121.638,137.717 128.083 L 137.083 129.917 137.035 141.792 L 136.987 153.667 119.731 153.667 L 102.474 153.667 102.548 141.042 C 102.627 127.309,102.618 127.468,103.661 122.464 C 108.184 100.773,126.405 84.468,148.667 82.189 C 149.446 82.110,162.477 82.034,177.625 82.022 L 205.167 82.000 205.167 99.167 M307.833 99.163 L 307.833 116.327 280.708 116.374 L 253.583 116.422 252.083 116.864 C 245.539 118.792,241.797 122.541,239.805 129.167 C 239.433 130.404,239.428 130.537,239.374 142.042 L 239.319 153.667 222.159 153.667 L 205.000 153.667 205.000 141.624 C 205.000 129.168,205.067 127.601,205.746 124.083 C 205.888 123.350,206.084 122.337,206.181 121.833 C 209.470 104.832,224.015 89.223,241.289 84.155 C 244.167 83.311,244.615 83.206,247.281 82.751 C 251.428 82.044,251.364 82.045,280.125 82.022 L 307.833 82.000 307.833 99.163 M102.674 126.458 C 102.678 126.527,96.547 132.675,89.049 140.120 L 75.417 153.657 59.875 153.662 L 44.333 153.667 44.333 140.111 C 44.333 132.656,44.383 126.506,44.444 126.444 C 44.599 126.290,102.665 126.304,102.674 126.458 M137.008 170.750 C 137.108 178.005,137.100 177.933,138.220 180.765 C 140.104 185.530,144.391 189.272,149.606 190.706 L 151.583 191.250 178.371 191.333 L 205.158 191.417 188.148 208.542 L 171.138 225.667 160.855 225.667 C 152.953 225.667,150.128 225.612,148.660 225.429 C 124.130 222.376,106.393 205.054,102.896 180.734 C 102.630 178.886,102.342 164.818,102.559 164.253 C 102.646 164.027,104.546 164.003,119.787 164.041 L 136.917 164.083 137.008 170.750 M239.335 169.875 C 239.336 176.195,239.409 177.014,240.188 179.477 C 241.945 185.028,246.337 189.146,252.250 190.787 L 253.917 191.250 280.863 191.333 L 307.809 191.417 290.780 208.549 L 273.750 225.681 263.452 225.674 C 257.429 225.670,252.482 225.594,251.535 225.491 C 249.995 225.324,245.263 224.576,244.801 224.426 C 244.681 224.387,243.580 224.080,242.353 223.743 C 239.208 222.879,235.037 221.247,232.667 219.952 C 226.109 216.370,221.825 212.954,217.261 207.667 C 210.854 200.245,206.983 191.622,205.401 181.250 C 205.038 178.869,204.910 175.416,204.961 169.320 L 205.005 164.000 222.169 164.000 L 239.333 164.000 239.335 169.875 M99.250 261.583 L 99.250 264.083 96.500 264.083 L 93.750 264.083 93.703 261.758 C 93.642 258.693,93.339 258.983,96.538 259.038 L 99.250 259.083 99.250 261.583 M310.667 264.583 L 310.667 268.667 315.583 268.667 L 320.500 268.667 320.500 270.667 L 320.500 272.667 315.583 272.667 L 310.667 272.667 310.675 279.458 C 310.680 283.194,310.745 287.045,310.820 288.018 C 311.184 292.739,313.792 293.873,320.130 292.067 L 320.510 291.959 320.463 294.188 L 320.417 296.417 319.250 296.723 C 314.036 298.091,308.717 296.681,307.089 293.500 C 305.927 291.230,305.935 291.313,305.871 281.542 L 305.812 272.667 304.239 272.667 L 302.667 272.667 302.667 270.667 L 302.667 268.667 304.250 268.667 L 305.833 268.667 305.833 264.694 C 305.833 262.510,305.883 260.672,305.944 260.611 C 306.006 260.550,307.093 260.500,308.361 260.500 L 310.667 260.500 310.667 264.583 M48.543 268.078 C 51.600 268.726,53.619 270.616,54.781 273.917 L 55.250 275.250 55.299 285.958 L 55.347 296.667 52.924 296.667 L 50.500 296.667 50.500 287.871 C 50.500 278.735,50.403 276.978,49.814 275.403 C 48.438 271.725,43.319 271.501,38.141 274.891 L 36.836 275.746 36.793 286.164 L 36.750 296.583 34.292 296.629 L 31.833 296.676 31.833 282.671 L 31.833 268.667 34.333 268.667 L 36.833 268.667 36.833 270.097 L 36.833 271.528 37.458 271.042 C 40.832 268.420,44.954 267.317,48.543 268.078 M177.543 268.078 C 180.663 268.739,182.833 270.819,183.777 274.054 C 184.391 276.158,184.519 278.772,184.466 288.083 L 184.417 296.583 181.971 296.629 L 179.526 296.675 179.452 287.129 C 179.371 276.612,179.296 275.741,178.371 274.421 C 176.458 271.692,171.743 271.906,167.047 274.935 L 165.667 275.826 165.667 286.246 L 165.667 296.667 163.250 296.667 L 160.833 296.667 160.833 282.667 L 160.833 268.667 163.250 268.667 L 165.667 268.667 165.667 270.198 L 165.667 271.729 166.125 271.296 C 168.829 268.738,173.907 267.307,177.543 268.078 M209.185 268.003 C 211.200 268.386,213.236 269.690,214.286 271.271 C 214.990 272.332,214.861 272.302,215.722 271.600 C 222.967 265.694,231.097 266.695,233.485 273.787 C 234.085 275.570,234.181 277.592,234.131 287.333 L 234.083 296.583 231.727 296.629 L 229.370 296.676 229.280 287.129 C 229.187 277.193,229.134 276.437,228.429 274.898 C 226.938 271.640,222.270 271.658,217.375 274.942 L 216.000 275.864 216.000 286.270 L 216.000 296.676 213.625 296.630 L 211.250 296.583 211.166 286.500 C 211.076 275.653,211.088 275.809,210.186 274.324 C 208.577 271.680,203.888 271.922,199.463 274.879 L 198.167 275.745 198.167 286.206 L 198.167 296.667 195.667 296.667 L 193.167 296.667 193.167 282.667 L 193.167 268.667 195.667 268.667 L 198.167 268.667 198.167 270.071 L 198.167 271.476 199.625 270.477 C 202.981 268.178,205.994 267.398,209.185 268.003 M291.000 268.299 C 293.840 269.305,295.599 271.288,296.459 274.451 L 296.903 276.083 296.910 286.333 L 296.917 296.583 294.458 296.629 L 292.000 296.676 291.999 287.713 C 291.998 276.484,291.845 275.161,290.390 273.810 C 288.155 271.734,283.785 272.178,279.629 274.905 L 278.341 275.750 278.337 286.213 L 278.333 296.676 275.875 296.629 L 273.417 296.583 273.417 282.667 L 273.417 268.750 275.875 268.704 L 278.333 268.658 278.333 270.072 L 278.333 271.486 279.792 270.505 C 283.476 268.025,287.815 267.171,291.000 268.299 M66.047 268.958 C 66.095 269.119,66.471 270.112,66.885 271.167 C 67.298 272.221,67.840 273.608,68.089 274.250 C 68.338 274.892,68.878 276.279,69.289 277.333 C 70.235 279.764,71.042 281.843,71.780 283.750 C 72.797 286.377,73.849 289.061,74.152 289.797 L 74.445 290.510 74.713 289.880 C 74.860 289.534,75.399 288.162,75.910 286.833 C 76.421 285.504,77.058 283.854,77.325 283.167 C 78.523 280.085,79.029 278.770,79.828 276.667 C 80.772 274.181,81.344 272.707,82.289 270.333 L 82.919 268.750 85.472 268.704 L 88.025 268.658 87.909 269.037 C 87.846 269.246,87.683 269.679,87.549 270.000 C 87.414 270.321,86.665 272.158,85.884 274.083 C 85.102 276.008,84.125 278.408,83.711 279.417 C 83.298 280.425,82.785 281.700,82.572 282.250 C 82.358 282.800,81.465 285.012,80.586 287.167 C 79.707 289.321,78.487 292.341,77.876 293.879 L 76.764 296.675 74.294 296.629 L 71.823 296.583 70.567 293.500 C 69.875 291.804,69.174 290.042,69.007 289.583 C 68.840 289.125,68.512 288.300,68.278 287.750 C 67.856 286.760,67.217 285.173,66.331 282.917 C 66.079 282.275,65.216 280.137,64.413 278.167 C 63.610 276.196,62.783 274.133,62.575 273.583 C 62.367 273.033,62.032 272.208,61.831 271.750 C 61.629 271.292,61.330 270.542,61.166 270.083 C 61.002 269.625,60.814 269.119,60.749 268.958 C 60.640 268.688,60.824 268.667,63.296 268.667 C 65.690 268.667,65.970 268.696,66.047 268.958 M98.959 282.625 L 98.917 296.583 96.458 296.629 L 94.000 296.676 94.000 282.671 L 94.000 268.667 96.501 268.667 L 99.002 268.667 98.959 282.625 M112.833 270.661 L 112.833 272.655 113.958 271.812 C 117.590 269.091,120.683 268.218,124.727 268.773 L 125.500 268.879 125.500 271.378 L 125.500 273.877 124.708 273.767 C 119.887 273.097,117.394 273.640,113.875 276.126 L 112.833 276.863 112.833 286.765 L 112.833 296.667 110.417 296.667 L 108.000 296.667 108.000 282.667 L 108.000 268.667 110.417 268.667 L 112.833 268.667 112.833 270.661 M251.583 272.314 C 248.770 273.132,246.459 275.822,246.058 278.744 L 245.955 279.500 253.833 279.500 L 261.711 279.500 261.631 278.292 C 261.314 273.478,256.806 270.796,251.583 272.314 M138.238 272.480 C 134.682 273.498,132.991 276.836,133.006 282.804 C 133.023 289.646,135.685 293.157,140.860 293.165 C 145.439 293.172,148.077 290.211,148.668 284.402 C 149.547 275.763,144.984 270.548,138.238 272.480 " stroke="none" fill="#fbfbfb" fill-opacity="0" fill-rule="evenodd"></path><path id="path2" d="M205.167 0.063 C 205.167 0.098,205.294 0.229,205.449 0.355 C 205.640 0.510,205.691 0.517,205.605 0.375 C 205.506 0.209,212.652 0.167,241.115 0.167 L 276.751 0.167 294.625 18.042 L 312.500 35.917 294.625 53.792 L 276.749 71.667 241.087 71.667 L 205.424 71.667 206.920 70.125 L 208.417 68.583 206.875 70.080 C 206.027 70.903,205.333 71.634,205.333 71.705 C 205.333 71.776,221.402 71.833,241.042 71.833 L 276.751 71.833 294.709 53.875 L 312.667 35.916 294.708 17.958 L 276.749 0.000 240.958 0.000 C 221.273 0.000,205.167 0.028,205.167 0.063 M238.920 38.000 L 236.923 40.083 238.996 38.048 C 240.136 36.929,241.034 35.991,240.993 35.965 C 240.951 35.938,240.018 36.854,238.920 38.000 M234.250 42.667 C 232.877 44.042,231.792 45.167,231.838 45.167 C 231.883 45.167,233.044 44.042,234.417 42.667 C 235.789 41.292,236.875 40.167,236.829 40.167 C 236.783 40.167,235.623 41.292,234.250 42.667 M228.415 48.542 L 225.250 51.750 228.458 48.585 C 230.223 46.844,231.667 45.400,231.667 45.377 C 231.667 45.258,231.356 45.561,228.415 48.542 M222.583 54.333 C 221.211 55.708,220.125 56.833,220.171 56.833 C 220.217 56.833,221.377 55.708,222.750 54.333 C 224.123 52.958,225.208 51.833,225.162 51.833 C 225.117 51.833,223.956 52.958,222.583 54.333 M217.417 59.500 C 216.044 60.875,214.958 62.000,215.004 62.000 C 215.050 62.000,216.211 60.875,217.583 59.500 C 218.956 58.125,220.042 57.000,219.996 57.000 C 219.950 57.000,218.789 58.125,217.417 59.500 M212.250 64.667 C 210.877 66.042,209.792 67.167,209.838 67.167 C 209.883 67.167,211.044 66.042,212.417 64.667 C 213.789 63.292,214.875 62.167,214.829 62.167 C 214.783 62.167,213.623 63.292,212.250 64.667 M208.991 67.958 L 208.417 68.583 209.042 68.009 C 209.385 67.693,209.667 67.412,209.667 67.384 C 209.667 67.257,209.526 67.377,208.991 67.958 M47.708 82.286 C 47.960 82.324,48.373 82.324,48.625 82.286 C 48.877 82.248,48.671 82.217,48.167 82.217 C 47.663 82.217,47.456 82.248,47.708 82.286 M102.580 99.167 C 102.580 108.563,102.600 112.406,102.625 107.708 C 102.650 103.010,102.650 95.323,102.625 90.625 C 102.600 85.927,102.580 89.771,102.580 99.167 M44.750 82.509 C 44.329 82.590,44.574 82.605,45.417 82.548 C 46.150 82.499,46.781 82.431,46.819 82.396 C 46.935 82.292,45.463 82.372,44.750 82.509 M28.667 87.333 C 28.162 87.600,27.809 87.821,27.881 87.825 C 28.058 87.836,29.667 87.015,29.667 86.914 C 29.667 86.803,29.690 86.793,28.667 87.333 M19.250 93.311 C 18.242 94.119,17.267 94.961,17.083 95.181 C 16.900 95.401,17.087 95.280,17.500 94.912 C 17.912 94.545,18.906 93.733,19.708 93.108 C 20.967 92.128,21.311 91.819,21.125 91.837 C 21.102 91.840,20.258 92.503,19.250 93.311 M15.163 96.958 L 13.750 98.417 15.208 97.004 C 16.563 95.691,16.743 95.500,16.621 95.500 C 16.596 95.500,15.940 96.156,15.163 96.958 M12.824 99.458 L 12.250 100.083 12.875 99.509 C 13.457 98.974,13.577 98.833,13.449 98.833 C 13.422 98.833,13.140 99.115,12.824 99.458 M11.514 100.958 C 11.141 101.394,10.835 101.816,10.834 101.897 C 10.834 101.979,10.996 101.829,11.195 101.564 C 11.394 101.300,11.745 100.877,11.976 100.625 C 12.207 100.373,12.350 100.167,12.294 100.167 C 12.238 100.167,11.887 100.523,11.514 100.958 M9.740 103.279 C 9.483 103.615,9.358 103.838,9.462 103.773 C 9.675 103.642,10.397 102.667,10.281 102.667 C 10.240 102.667,9.996 102.942,9.740 103.279 M8.410 105.208 C 8.154 105.598,8.050 105.829,8.180 105.721 C 8.430 105.514,9.068 104.500,8.948 104.500 C 8.909 104.500,8.667 104.819,8.410 105.208 M7.647 106.375 C 7.537 106.581,7.339 106.938,7.206 107.167 C 6.975 107.566,6.976 107.570,7.245 107.250 C 7.577 106.855,8.044 106.000,7.927 106.000 C 7.882 106.000,7.756 106.169,7.647 106.375 M4.780 111.758 C 4.388 112.579,4.443 112.719,4.853 111.943 C 5.039 111.590,5.161 111.272,5.125 111.236 C 5.089 111.200,4.934 111.435,4.780 111.758 M3.519 114.685 C 3.416 114.980,3.361 115.250,3.397 115.286 C 3.432 115.321,3.545 115.109,3.648 114.815 C 3.751 114.520,3.806 114.250,3.770 114.214 C 3.734 114.179,3.621 114.391,3.519 114.685 M47.000 116.667 C 46.670 116.772,46.653 116.800,46.917 116.800 C 47.100 116.800,47.438 116.740,47.667 116.667 C 47.997 116.561,48.014 116.533,47.750 116.533 C 47.567 116.533,47.229 116.593,47.000 116.667 M2.429 117.762 C 2.367 118.006,2.349 118.238,2.389 118.277 C 2.428 118.317,2.510 118.149,2.571 117.905 C 2.633 117.661,2.651 117.429,2.611 117.389 C 2.572 117.350,2.490 117.518,2.429 117.762 M43.458 118.011 C 43.115 118.193,42.833 118.379,42.833 118.424 C 42.833 118.498,44.150 117.883,44.319 117.730 C 44.511 117.556,44.011 117.720,43.458 118.011 M39.833 120.524 L 38.917 121.370 39.791 120.670 C 40.558 120.056,40.964 119.655,40.802 119.672 C 40.773 119.675,40.337 120.058,39.833 120.524 M37.851 122.579 C 37.469 123.086,37.184 123.500,37.219 123.500 C 37.351 123.500,38.699 121.810,38.625 121.736 C 38.582 121.693,38.234 122.072,37.851 122.579 M44.541 140.125 L 44.581 153.750 44.625 140.209 L 44.669 126.668 73.626 126.625 L 102.583 126.582 73.542 126.541 L 44.500 126.500 44.541 140.125 M101.573 127.375 L 101.083 127.917 101.625 127.427 C 101.923 127.158,102.167 126.914,102.167 126.885 C 102.167 126.757,102.029 126.870,101.573 127.375 M100.240 128.708 L 99.750 129.250 100.292 128.760 C 100.590 128.491,100.833 128.248,100.833 128.219 C 100.833 128.090,100.696 128.203,100.240 128.708 M98.991 129.958 L 98.417 130.583 99.042 130.009 C 99.623 129.474,99.743 129.333,99.616 129.333 C 99.588 129.333,99.307 129.615,98.991 129.958 M97.658 131.292 L 97.083 131.917 97.708 131.342 C 98.290 130.808,98.410 130.667,98.283 130.667 C 98.255 130.667,97.974 130.948,97.658 131.292 M34.245 142.583 C 34.245 148.725,34.266 151.213,34.292 148.113 C 34.317 145.012,34.317 139.987,34.292 136.946 C 34.266 133.905,34.245 136.442,34.245 142.583 M91.333 137.554 C 88.263 140.604,85.642 143.245,85.510 143.424 C 85.378 143.603,87.909 141.126,91.135 137.919 C 96.515 132.569,97.085 131.991,96.958 132.005 C 96.935 132.007,94.404 134.504,91.333 137.554 M82.073 146.708 L 81.583 147.250 82.125 146.760 C 82.630 146.304,82.743 146.167,82.615 146.167 C 82.586 146.167,82.342 146.410,82.073 146.708 M79.491 149.292 L 78.917 149.917 79.542 149.342 C 80.123 148.808,80.243 148.667,80.116 148.667 C 80.088 148.667,79.807 148.948,79.491 149.292 M78.240 150.542 L 77.750 151.083 78.292 150.594 C 78.797 150.138,78.910 150.000,78.781 150.000 C 78.752 150.000,78.509 150.244,78.240 150.542 M76.906 151.875 L 76.417 152.417 76.958 151.927 C 77.463 151.471,77.577 151.333,77.448 151.333 C 77.419 151.333,77.175 151.577,76.906 151.875 M75.658 153.125 L 75.083 153.750 75.708 153.176 C 76.290 152.641,76.410 152.500,76.283 152.500 C 76.255 152.500,75.974 152.781,75.658 153.125 M93.833 261.579 L 93.833 264.000 96.505 264.000 L 99.176 264.000 99.130 261.625 L 99.083 259.250 96.458 259.204 L 93.833 259.158 93.833 261.579 M99.000 261.583 L 99.000 263.833 96.500 263.833 L 94.000 263.833 94.000 261.583 L 94.000 259.333 96.500 259.333 L 99.000 259.333 99.000 261.583 M307.125 260.790 C 307.790 260.822,308.877 260.822,309.542 260.790 C 310.206 260.759,309.662 260.733,308.333 260.733 C 307.004 260.733,306.460 260.759,307.125 260.790 M42.417 268.500 C 42.207 268.590,42.176 268.643,42.333 268.643 C 42.471 268.643,42.733 268.579,42.917 268.500 C 43.127 268.410,43.158 268.357,43.000 268.357 C 42.862 268.357,42.600 268.421,42.417 268.500 M49.500 268.583 C 50.261 268.876,50.560 268.872,49.917 268.577 C 49.642 268.451,49.304 268.351,49.167 268.354 C 49.029 268.356,49.179 268.460,49.500 268.583 M136.523 268.525 C 136.215 268.613,135.996 268.718,136.035 268.758 C 136.075 268.797,136.439 268.725,136.845 268.598 C 137.674 268.338,137.394 268.274,136.523 268.525 M144.667 268.583 C 144.987 268.707,145.362 268.808,145.500 268.808 C 145.637 268.808,145.487 268.707,145.167 268.583 C 144.846 268.460,144.471 268.359,144.333 268.359 C 144.196 268.359,144.346 268.460,144.667 268.583 M171.167 268.583 C 170.846 268.707,170.696 268.808,170.833 268.808 C 170.971 268.808,171.346 268.707,171.667 268.583 C 171.987 268.460,172.137 268.359,172.000 268.359 C 171.862 268.359,171.487 268.460,171.167 268.583 M210.333 268.583 C 211.094 268.876,211.394 268.872,210.750 268.577 C 210.475 268.451,210.137 268.351,210.000 268.354 C 209.862 268.356,210.012 268.460,210.333 268.583 M228.500 268.583 C 229.261 268.876,229.560 268.872,228.917 268.577 C 228.642 268.451,228.304 268.351,228.167 268.354 C 228.029 268.356,228.179 268.460,228.500 268.583 M250.417 268.500 C 250.207 268.590,250.176 268.643,250.333 268.643 C 250.471 268.643,250.733 268.579,250.917 268.500 C 251.127 268.410,251.158 268.357,251.000 268.357 C 250.862 268.357,250.600 268.421,250.417 268.500 M291.000 268.583 C 291.761 268.876,292.060 268.872,291.417 268.577 C 291.142 268.451,290.804 268.351,290.667 268.354 C 290.529 268.356,290.679 268.460,291.000 268.583 M258.917 268.667 C 259.100 268.745,259.362 268.810,259.500 268.810 C 259.658 268.810,259.627 268.757,259.417 268.667 C 259.233 268.588,258.971 268.523,258.833 268.523 C 258.676 268.523,258.707 268.576,258.917 268.667 M283.417 268.667 C 283.207 268.757,283.176 268.810,283.333 268.810 C 283.471 268.810,283.733 268.745,283.917 268.667 C 284.127 268.576,284.158 268.523,284.000 268.523 C 283.862 268.523,283.600 268.588,283.417 268.667 M32.041 282.625 L 32.081 296.583 32.125 282.708 L 32.169 268.833 34.334 268.833 L 36.500 268.833 36.500 270.333 C 36.500 271.158,36.556 271.834,36.625 271.834 C 36.694 271.834,36.726 271.121,36.697 270.250 L 36.644 268.667 34.322 268.667 L 32.000 268.667 32.041 282.625 M62.042 268.791 C 62.752 268.822,63.915 268.822,64.625 268.791 C 65.335 268.759,64.754 268.734,63.333 268.734 C 61.913 268.734,61.331 268.759,62.042 268.791 M84.216 268.791 C 84.931 268.822,86.056 268.822,86.716 268.790 C 87.376 268.759,86.792 268.733,85.417 268.733 C 84.042 268.734,83.501 268.759,84.216 268.791 M94.207 282.625 L 94.248 296.583 94.292 282.708 L 94.335 268.833 96.500 268.833 L 98.665 268.833 98.708 282.708 L 98.752 296.583 98.793 282.625 L 98.833 268.667 96.500 268.667 L 94.167 268.667 94.207 282.625 M110.375 268.791 L 112.667 268.843 112.667 270.745 C 112.667 271.791,112.723 272.682,112.792 272.725 C 112.860 272.767,112.894 271.872,112.865 270.735 L 112.814 268.667 110.449 268.703 L 108.083 268.740 110.375 268.791 M121.708 268.788 C 122.052 268.824,122.615 268.824,122.958 268.788 C 123.302 268.752,123.021 268.723,122.333 268.723 C 121.646 268.723,121.365 268.752,121.708 268.788 M162.125 268.790 C 162.790 268.822,163.877 268.822,164.542 268.790 C 165.206 268.759,164.662 268.733,163.333 268.733 C 162.004 268.733,161.460 268.759,162.125 268.790 M194.458 268.790 C 195.123 268.822,196.210 268.822,196.875 268.790 C 197.540 268.759,196.996 268.733,195.667 268.733 C 194.338 268.733,193.794 268.759,194.458 268.790 M273.541 282.625 L 273.581 296.583 273.625 282.713 L 273.669 268.843 275.959 268.791 L 278.250 268.740 275.875 268.703 L 273.500 268.667 273.541 282.625 M303.631 268.790 C 304.115 268.824,304.865 268.823,305.297 268.789 C 305.730 268.755,305.333 268.727,304.417 268.728 C 303.500 268.728,303.146 268.756,303.631 268.790 M315.370 268.792 L 320.156 268.838 320.209 270.794 L 320.262 272.750 320.297 270.708 L 320.333 268.667 315.458 268.706 L 310.583 268.745 315.370 268.792 M180.167 269.199 C 180.167 269.232,180.635 269.665,181.208 270.161 C 181.781 270.657,182.063 270.854,181.833 270.598 C 181.418 270.135,180.167 269.084,180.167 269.199 M219.125 269.429 C 218.502 269.767,218.540 269.907,219.167 269.583 C 219.442 269.441,219.667 269.289,219.667 269.246 C 219.667 269.138,219.649 269.145,219.125 269.429 M293.083 269.578 C 293.587 270.019,294.167 270.397,294.167 270.284 C 294.167 270.251,293.810 269.979,293.375 269.682 C 292.776 269.272,292.705 269.247,293.083 269.578 M212.167 269.377 C 212.167 269.416,212.560 269.776,213.042 270.178 C 213.523 270.579,213.811 270.775,213.683 270.614 C 213.424 270.290,212.167 269.263,212.167 269.377 M247.625 269.678 C 247.281 269.859,247.000 270.045,247.000 270.091 C 247.000 270.136,247.300 270.020,247.667 269.833 C 248.033 269.646,248.333 269.457,248.333 269.413 C 248.333 269.304,248.332 269.305,247.625 269.678 M281.292 269.678 C 280.948 269.859,280.667 270.045,280.667 270.091 C 280.667 270.136,280.967 270.020,281.333 269.833 C 281.700 269.646,282.000 269.457,282.000 269.413 C 282.000 269.304,281.999 269.305,281.292 269.678 M52.507 270.417 C 52.916 270.875,53.385 271.438,53.549 271.667 C 53.838 272.069,53.838 272.065,53.554 271.540 C 53.392 271.242,52.923 270.679,52.511 270.290 L 51.762 269.583 52.507 270.417 M117.167 269.917 C 116.938 270.048,116.825 270.155,116.917 270.155 C 117.008 270.155,117.271 270.048,117.500 269.917 C 117.729 269.786,117.842 269.678,117.750 269.678 C 117.658 269.678,117.396 269.786,117.167 269.917 M168.292 269.929 C 167.669 270.267,167.707 270.407,168.333 270.083 C 168.608 269.941,168.833 269.789,168.833 269.746 C 168.833 269.638,168.815 269.645,168.292 269.929 M66.262 270.167 C 66.324 270.396,66.443 270.696,66.528 270.833 C 66.635 271.007,66.649 270.956,66.571 270.667 C 66.510 270.438,66.390 270.137,66.305 270.000 C 66.198 269.826,66.185 269.877,66.262 270.167 M132.470 270.878 C 132.041 271.266,131.452 271.883,131.161 272.250 C 130.674 272.863,130.687 272.857,131.328 272.167 C 131.711 271.754,132.338 271.139,132.721 270.799 C 133.104 270.459,133.379 270.179,133.333 270.177 C 133.287 270.175,132.899 270.491,132.470 270.878 M148.667 270.569 C 149.078 271.026,150.000 271.754,150.000 271.621 C 150.000 271.583,149.606 271.226,149.125 270.828 C 148.627 270.417,148.430 270.305,148.667 270.569 M262.917 271.000 C 263.368 271.458,263.775 271.833,263.821 271.833 C 263.867 271.833,263.535 271.458,263.083 271.000 C 262.632 270.542,262.225 270.167,262.179 270.167 C 262.133 270.167,262.465 270.542,262.917 271.000 M217.034 270.738 C 216.260 271.286,216.151 271.442,216.804 271.068 C 217.109 270.893,217.437 270.656,217.533 270.542 C 217.780 270.247,217.664 270.293,217.034 270.738 M61.596 270.833 C 61.657 271.063,61.776 271.362,61.861 271.500 C 61.969 271.674,61.982 271.623,61.904 271.333 C 61.843 271.104,61.724 270.804,61.639 270.667 C 61.531 270.493,61.518 270.544,61.596 270.833 M37.583 271.098 L 37.083 271.528 37.625 271.169 C 37.923 270.972,38.167 270.778,38.167 270.739 C 38.167 270.614,38.096 270.657,37.583 271.098 M166.583 271.104 C 166.284 271.359,166.222 271.461,166.430 271.357 C 166.736 271.205,167.309 270.657,167.145 270.673 C 167.111 270.676,166.858 270.870,166.583 271.104 M198.917 271.104 C 198.617 271.359,198.556 271.461,198.764 271.357 C 199.069 271.205,199.642 270.657,199.479 270.673 C 199.445 270.676,199.192 270.870,198.917 271.104 M245.154 271.625 C 244.401 272.421,243.537 273.467,244.019 273.000 C 244.566 272.470,246.045 270.833,245.976 270.833 C 245.937 270.833,245.567 271.190,245.154 271.625 M278.917 271.265 L 278.417 271.694 278.958 271.336 C 279.256 271.139,279.500 270.945,279.500 270.905 C 279.500 270.781,279.429 270.824,278.917 271.265 M295.367 272.246 C 295.566 272.657,295.758 272.964,295.793 272.929 C 295.868 272.854,295.195 271.500,295.082 271.500 C 295.039 271.500,295.168 271.836,295.367 272.246 M113.667 272.187 C 113.086 272.696,113.086 272.697,113.620 272.341 C 113.915 272.145,114.201 271.913,114.255 271.826 C 114.416 271.565,114.282 271.647,113.667 272.187 M232.583 272.167 C 232.726 272.442,232.879 272.667,232.925 272.667 C 232.971 272.667,232.892 272.442,232.750 272.167 C 232.608 271.892,232.454 271.667,232.408 271.667 C 232.362 271.667,232.441 271.892,232.583 272.167 M252.917 271.750 C 253.008 271.781,253.946 271.837,255.000 271.874 C 256.054 271.912,256.692 271.889,256.417 271.824 C 255.928 271.709,252.588 271.638,252.917 271.750 M140.125 271.955 C 140.515 271.990,141.152 271.990,141.542 271.955 C 141.931 271.920,141.612 271.892,140.833 271.892 C 140.054 271.892,139.735 271.920,140.125 271.955 M264.410 272.918 C 265.161 274.165,265.346 274.322,264.747 273.205 C 264.489 272.723,264.177 272.245,264.055 272.143 C 263.933 272.042,264.093 272.390,264.410 272.918 M144.500 272.729 C 144.500 272.768,144.767 272.958,145.093 273.150 C 145.420 273.343,145.640 273.425,145.583 273.332 C 145.471 273.152,144.500 272.611,144.500 272.729 M48.083 273.111 C 48.358 273.256,48.732 273.497,48.914 273.646 C 49.226 273.902,49.231 273.900,49.009 273.614 C 48.774 273.311,47.967 272.827,47.717 272.840 C 47.643 272.844,47.808 272.966,48.083 273.111 M81.298 273.088 C 81.247 273.269,81.154 273.567,81.092 273.750 C 81.030 273.933,81.101 273.873,81.250 273.615 C 81.399 273.357,81.492 273.059,81.456 272.953 C 81.421 272.846,81.350 272.907,81.298 273.088 M208.833 272.901 C 208.833 272.934,209.021 273.085,209.250 273.235 C 209.479 273.385,209.667 273.443,209.667 273.364 C 209.667 273.285,209.479 273.135,209.250 273.030 C 209.021 272.926,208.833 272.868,208.833 272.901 M226.917 273.027 C 227.100 273.128,227.506 273.444,227.818 273.730 C 228.339 274.207,228.360 274.214,228.068 273.806 C 227.756 273.370,227.003 272.828,226.724 272.838 C 226.647 272.841,226.733 272.926,226.917 273.027 M130.250 273.500 C 130.108 273.775,130.029 274.000,130.075 274.000 C 130.121 274.000,130.274 273.775,130.417 273.500 C 130.559 273.225,130.638 273.000,130.592 273.000 C 130.546 273.000,130.392 273.225,130.250 273.500 M248.480 273.785 C 248.019 274.216,247.564 274.723,247.470 274.910 C 247.376 275.097,247.535 274.972,247.823 274.632 C 248.111 274.292,248.623 273.785,248.961 273.507 C 249.299 273.228,249.518 273.000,249.448 273.000 C 249.377 273.000,248.942 273.353,248.480 273.785 M259.919 273.870 C 260.364 274.354,260.763 274.787,260.807 274.833 C 260.851 274.879,260.823 274.804,260.746 274.667 C 260.445 274.135,259.615 273.183,259.369 273.088 C 259.227 273.034,259.474 273.385,259.919 273.870 M120.542 273.288 C 120.885 273.324,121.448 273.324,121.792 273.288 C 122.135 273.252,121.854 273.223,121.167 273.223 C 120.479 273.223,120.198 273.252,120.542 273.288 M169.125 273.429 C 168.479 273.779,168.552 273.900,169.208 273.566 C 169.837 273.247,169.948 273.164,169.736 273.173 C 169.652 273.177,169.377 273.292,169.125 273.429 M290.531 273.773 C 290.862 274.153,291.185 274.627,291.248 274.827 C 291.312 275.028,291.400 275.156,291.444 275.111 C 291.590 274.965,291.039 274.092,290.479 273.583 C 289.932 273.087,289.933 273.088,290.531 273.773 M85.685 273.852 C 85.583 274.146,85.528 274.417,85.563 274.452 C 85.599 274.488,85.712 274.276,85.815 273.981 C 85.917 273.687,85.972 273.417,85.937 273.381 C 85.901 273.345,85.788 273.557,85.685 273.852 M177.998 273.751 C 178.661 274.551,178.717 274.602,178.536 274.248 C 178.441 274.064,178.189 273.764,177.974 273.583 C 177.597 273.264,177.598 273.270,177.998 273.751 M233.195 273.500 C 233.203 273.933,233.466 274.644,233.472 274.250 C 233.474 274.067,233.412 273.767,233.333 273.583 C 233.246 273.379,233.192 273.347,233.195 273.500 M54.521 273.750 C 54.513 273.842,54.611 274.292,54.738 274.750 C 54.866 275.208,54.971 275.433,54.972 275.250 C 54.975 274.895,54.545 273.468,54.521 273.750 M62.852 273.917 C 62.855 274.008,63.002 274.383,63.179 274.750 C 63.355 275.117,63.453 275.229,63.396 275.000 C 63.278 274.528,62.844 273.662,62.852 273.917 M38.625 274.262 C 38.002 274.600,38.040 274.741,38.667 274.417 C 38.942 274.274,39.167 274.123,39.167 274.079 C 39.167 273.972,39.149 273.978,38.625 274.262 M49.606 274.583 C 49.992 275.241,50.000 275.251,50.000 275.046 C 50.000 274.949,49.846 274.693,49.657 274.477 L 49.314 274.083 49.606 274.583 M115.958 274.511 C 115.615 274.693,115.333 274.879,115.333 274.924 C 115.333 274.998,116.650 274.383,116.819 274.230 C 117.011 274.056,116.511 274.220,115.958 274.511 M279.810 274.510 L 279.417 274.853 279.917 274.560 C 280.575 274.175,280.585 274.167,280.380 274.167 C 280.283 274.167,280.027 274.321,279.810 274.510 M198.595 275.171 C 198.235 275.444,198.010 275.665,198.095 275.662 C 198.253 275.658,199.486 274.676,199.333 274.676 C 199.287 274.676,198.955 274.899,198.595 275.171 M210.768 275.250 C 210.905 275.863,211.001 275.996,210.997 275.569 C 210.996 275.394,210.919 275.137,210.826 275.000 C 210.702 274.817,210.687 274.885,210.768 275.250 M129.185 275.519 C 129.083 275.813,129.028 276.083,129.063 276.119 C 129.099 276.155,129.212 275.943,129.315 275.648 C 129.417 275.354,129.472 275.083,129.437 275.048 C 129.401 275.012,129.288 275.224,129.185 275.519 M265.528 275.167 C 265.537 275.600,265.799 276.311,265.805 275.917 C 265.808 275.733,265.745 275.433,265.667 275.250 C 265.579 275.046,265.525 275.014,265.528 275.167 M147.449 275.748 C 147.602 276.068,147.756 276.300,147.792 276.263 C 147.868 276.187,147.362 275.167,147.248 275.167 C 147.206 275.167,147.297 275.428,147.449 275.748 M261.187 275.837 C 261.439 276.583,261.581 276.728,261.428 276.083 C 261.363 275.808,261.238 275.510,261.150 275.420 C 261.063 275.331,261.079 275.518,261.187 275.837 M36.577 275.708 C 36.533 275.823,36.516 280.567,36.540 286.250 L 36.583 296.583 36.667 286.042 C 36.713 280.244,36.729 275.500,36.703 275.500 C 36.677 275.500,36.620 275.594,36.577 275.708 M50.280 276.583 C 50.333 277.042,50.404 277.448,50.438 277.486 C 50.555 277.617,50.467 276.583,50.325 276.167 C 50.230 275.886,50.215 276.021,50.280 276.583 M184.045 276.500 C 184.045 276.912,184.078 277.081,184.118 276.875 C 184.157 276.669,184.157 276.331,184.118 276.125 C 184.078 275.919,184.045 276.087,184.045 276.500 M133.519 276.850 C 133.417 277.143,133.339 277.466,133.345 277.567 C 133.352 277.667,133.464 277.457,133.596 277.098 C 133.727 276.739,133.806 276.417,133.770 276.381 C 133.734 276.345,133.622 276.556,133.519 276.850 M246.360 276.757 C 246.254 276.991,246.170 277.273,246.173 277.383 C 246.177 277.493,246.290 277.328,246.426 277.016 C 246.711 276.360,246.650 276.121,246.360 276.757 M296.745 286.583 C 296.745 292.083,296.766 294.309,296.792 291.530 C 296.817 288.750,296.817 284.250,296.792 281.530 C 296.766 278.809,296.745 281.083,296.745 286.583 M112.745 286.667 C 112.745 292.121,112.766 294.352,112.792 291.625 C 112.817 288.898,112.817 284.435,112.792 281.708 C 112.766 278.981,112.745 281.212,112.745 286.667 M233.872 277.333 C 233.872 277.654,233.906 277.785,233.948 277.625 C 233.990 277.465,233.990 277.202,233.948 277.042 C 233.906 276.881,233.872 277.012,233.872 277.333 M241.762 277.429 C 241.701 277.673,241.683 277.905,241.722 277.944 C 241.761 277.983,241.843 277.816,241.905 277.571 C 241.966 277.327,241.984 277.095,241.945 277.056 C 241.906 277.017,241.823 277.184,241.762 277.429 M184.245 286.917 C 184.245 292.233,184.266 294.432,184.292 291.804 C 184.317 289.175,184.317 284.825,184.292 282.137 C 184.266 279.449,184.245 281.600,184.245 286.917 M153.033 277.750 C 153.033 277.933,153.093 278.271,153.167 278.500 C 153.272 278.830,153.300 278.847,153.300 278.583 C 153.300 278.400,153.240 278.063,153.167 277.833 C 153.061 277.503,153.033 277.486,153.033 277.750 M292.042 278.083 C 292.044 278.450,292.078 278.580,292.118 278.373 C 292.158 278.166,292.156 277.866,292.115 277.706 C 292.073 277.547,292.040 277.717,292.042 278.083 M55.245 287.167 C 55.245 292.346,55.266 294.465,55.292 291.875 C 55.317 289.285,55.317 285.048,55.292 282.458 C 55.266 279.869,55.245 281.987,55.245 287.167 M148.357 277.917 C 148.358 278.008,148.465 278.608,148.594 279.250 L 148.829 280.417 148.748 279.474 C 148.681 278.693,148.349 277.369,148.357 277.917 M179.578 287.167 C 179.578 292.346,179.599 294.465,179.625 291.875 C 179.651 289.285,179.651 285.048,179.625 282.458 C 179.599 279.869,179.578 281.987,179.578 287.167 M4.942 278.292 C 4.872 278.405,12.045 278.403,21.083 278.288 C 23.008 278.263,20.182 278.226,14.802 278.205 C 9.421 278.184,4.985 278.223,4.942 278.292 M50.539 279.500 C 50.539 279.821,50.573 279.952,50.615 279.792 C 50.657 279.631,50.657 279.369,50.615 279.208 C 50.573 279.048,50.539 279.179,50.539 279.500 M292.244 287.917 C 292.244 292.683,292.266 294.609,292.292 292.197 C 292.318 289.784,292.318 285.884,292.292 283.530 C 292.265 281.176,292.244 283.150,292.244 287.917 M83.185 280.019 C 83.083 280.313,83.028 280.583,83.063 280.619 C 83.099 280.655,83.212 280.443,83.315 280.148 C 83.417 279.854,83.472 279.583,83.437 279.548 C 83.401 279.512,83.288 279.724,83.185 280.019 M249.792 279.625 C 252.015 279.651,255.652 279.651,257.875 279.625 C 260.098 279.599,258.279 279.577,253.833 279.577 C 249.387 279.577,247.569 279.599,249.792 279.625 M70.012 279.833 C 70.012 280.074,70.482 281.028,70.494 280.811 C 70.497 280.753,70.390 280.453,70.257 280.144 C 70.123 279.836,70.013 279.696,70.012 279.833 M128.067 282.667 C 128.067 284.087,128.093 284.669,128.124 283.958 C 128.155 283.248,128.155 282.085,128.124 281.375 C 128.093 280.665,128.067 281.246,128.067 282.667 M65.506 280.523 C 65.503 280.581,65.610 280.881,65.743 281.189 C 65.877 281.498,65.987 281.637,65.988 281.500 C 65.988 281.260,65.518 280.306,65.506 280.523 M153.542 281.083 C 153.544 281.450,153.578 281.580,153.618 281.373 C 153.658 281.166,153.656 280.866,153.615 280.706 C 153.573 280.547,153.540 280.717,153.542 281.083 M132.729 282.583 C 132.729 283.592,132.757 283.983,132.790 283.452 C 132.823 282.922,132.823 282.097,132.789 281.619 C 132.756 281.141,132.729 281.575,132.729 282.583 M77.352 283.352 C 77.249 283.646,77.194 283.917,77.230 283.952 C 77.266 283.988,77.379 283.776,77.481 283.481 C 77.584 283.187,77.639 282.917,77.603 282.881 C 77.568 282.845,77.455 283.057,77.352 283.352 M81.852 283.352 C 81.749 283.646,81.694 283.917,81.730 283.952 C 81.766 283.988,81.879 283.776,81.981 283.481 C 82.084 283.187,82.139 282.917,82.103 282.881 C 82.068 282.845,81.955 283.057,81.852 283.352 M71.354 283.167 C 71.351 283.304,71.451 283.642,71.577 283.917 C 71.872 284.560,71.876 284.261,71.583 283.500 C 71.460 283.179,71.356 283.029,71.354 283.167 M66.762 283.667 C 66.824 283.896,66.943 284.196,67.028 284.333 C 67.135 284.507,67.149 284.456,67.071 284.167 C 67.010 283.938,66.890 283.637,66.805 283.500 C 66.698 283.326,66.685 283.377,66.762 283.667 M153.542 284.083 C 153.544 284.450,153.578 284.580,153.618 284.373 C 153.658 284.166,153.656 283.866,153.615 283.706 C 153.573 283.547,153.540 283.717,153.542 284.083 M148.709 285.417 C 148.711 285.783,148.745 285.914,148.785 285.706 C 148.824 285.499,148.823 285.199,148.781 285.040 C 148.739 284.880,148.707 285.050,148.709 285.417 M246.009 286.012 C 245.998 286.320,246.511 287.878,246.595 287.794 C 246.626 287.762,246.510 287.290,246.335 286.743 C 246.161 286.197,246.014 285.868,246.009 286.012 M72.596 286.500 C 72.657 286.729,72.776 287.029,72.861 287.167 C 72.969 287.340,72.982 287.290,72.904 287.000 C 72.843 286.771,72.724 286.471,72.639 286.333 C 72.531 286.160,72.518 286.210,72.596 286.500 M152.926 287.759 C 152.863 288.094,152.845 288.401,152.886 288.441 C 152.927 288.482,153.011 288.242,153.074 287.907 C 153.137 287.573,153.155 287.266,153.114 287.225 C 153.073 287.184,152.989 287.425,152.926 287.759 M241.690 287.667 C 241.690 287.804,241.755 288.067,241.833 288.250 C 241.924 288.460,241.977 288.491,241.977 288.333 C 241.977 288.196,241.912 287.933,241.833 287.750 C 241.743 287.540,241.690 287.509,241.690 287.667 M306.039 288.833 C 306.039 289.154,306.073 289.285,306.115 289.125 C 306.157 288.965,306.157 288.702,306.115 288.542 C 306.073 288.381,306.039 288.512,306.039 288.833 M128.929 289.000 C 128.990 289.229,129.110 289.529,129.195 289.667 C 129.302 289.840,129.315 289.790,129.238 289.500 C 129.176 289.271,129.057 288.971,128.972 288.833 C 128.865 288.660,128.851 288.710,128.929 289.000 M79.274 289.710 C 78.886 290.725,78.950 290.918,79.348 289.936 C 79.530 289.489,79.649 289.093,79.613 289.058 C 79.577 289.022,79.425 289.315,79.274 289.710 M147.236 289.860 C 147.087 290.149,146.619 290.768,146.197 291.235 L 145.429 292.083 146.189 291.365 C 146.867 290.725,147.832 289.333,147.598 289.333 C 147.549 289.333,147.386 289.570,147.236 289.860 M242.750 290.500 C 242.982 290.958,243.210 291.333,243.256 291.333 C 243.301 291.333,243.149 290.958,242.917 290.500 C 242.684 290.042,242.457 289.667,242.411 289.667 C 242.365 289.667,242.518 290.042,242.750 290.500 M310.848 289.883 C 310.833 290.190,311.274 291.167,311.427 291.167 C 311.474 291.167,311.424 291.002,311.316 290.801 C 311.209 290.601,311.063 290.244,310.991 290.010 C 310.905 289.726,310.857 289.684,310.848 289.883 M265.704 292.266 C 265.668 294.689,265.653 294.790,265.292 294.975 C 264.923 295.165,264.924 295.167,265.333 295.064 C 265.563 295.006,265.771 294.941,265.796 294.919 C 265.822 294.898,265.819 293.726,265.791 292.315 L 265.741 289.750 265.704 292.266 M69.429 290.333 C 69.490 290.563,69.610 290.862,69.695 291.000 C 69.802 291.174,69.815 291.123,69.738 290.833 C 69.676 290.604,69.557 290.304,69.472 290.167 C 69.365 289.993,69.351 290.044,69.429 290.333 M74.005 290.053 C 73.995 290.324,74.350 290.833,74.548 290.831 C 74.687 290.829,74.694 290.790,74.569 290.706 C 74.470 290.638,74.303 290.433,74.199 290.250 C 74.095 290.067,74.008 289.978,74.005 290.053 M264.684 290.431 C 264.372 290.652,264.199 290.833,264.299 290.833 C 264.400 290.833,264.692 290.648,264.949 290.422 C 265.538 289.904,265.420 289.908,264.684 290.431 M135.417 291.333 C 135.775 291.700,136.105 292.000,136.151 292.000 C 136.197 292.000,135.941 291.700,135.583 291.333 C 135.225 290.967,134.895 290.667,134.849 290.667 C 134.803 290.667,135.059 290.967,135.417 291.333 M249.476 291.458 C 249.795 291.756,250.135 292.000,250.232 292.000 C 250.328 292.000,250.222 291.876,249.995 291.724 C 249.769 291.572,249.429 291.328,249.240 291.182 C 249.052 291.036,249.158 291.160,249.476 291.458 M306.362 291.083 C 306.359 291.267,306.421 291.567,306.500 291.750 C 306.683 292.175,306.683 291.737,306.500 291.167 C 306.393 290.832,306.366 290.815,306.362 291.083 M261.917 291.845 C 261.550 292.022,261.438 292.119,261.667 292.062 C 262.139 291.945,263.005 291.510,262.750 291.519 C 262.658 291.522,262.283 291.669,261.917 291.845 M150.810 292.458 C 150.331 293.037,150.127 293.333,150.210 293.333 C 150.256 293.333,150.494 293.071,150.739 292.750 C 151.193 292.155,151.248 291.930,150.810 292.458 M320.231 294.250 C 320.232 295.442,320.258 295.907,320.290 295.285 C 320.323 294.662,320.322 293.687,320.290 293.118 C 320.257 292.549,320.231 293.058,320.231 294.250 M137.587 292.817 C 137.677 292.905,137.975 293.030,138.250 293.095 C 138.895 293.248,138.750 293.106,138.004 292.854 C 137.685 292.746,137.498 292.729,137.587 292.817 M253.542 293.115 C 253.702 293.157,253.965 293.157,254.125 293.115 C 254.285 293.073,254.154 293.039,253.833 293.039 C 253.512 293.039,253.381 293.073,253.542 293.115 M257.375 293.115 C 257.535 293.157,257.798 293.157,257.958 293.115 C 258.119 293.073,257.987 293.039,257.667 293.039 C 257.346 293.039,257.215 293.073,257.375 293.115 M315.129 293.122 C 315.521 293.157,316.121 293.157,316.463 293.121 C 316.804 293.085,316.483 293.057,315.750 293.057 C 315.017 293.058,314.737 293.087,315.129 293.122 M255.129 293.289 C 255.521 293.324,256.121 293.324,256.463 293.288 C 256.804 293.252,256.483 293.223,255.750 293.224 C 255.017 293.224,254.737 293.254,255.129 293.289 M70.673 293.356 C 70.669 293.414,70.776 293.714,70.910 294.023 C 71.044 294.331,71.154 294.471,71.154 294.333 C 71.155 294.093,70.685 293.139,70.673 293.356 M140.295 293.454 C 140.594 293.491,141.044 293.490,141.295 293.452 C 141.545 293.414,141.300 293.384,140.750 293.385 C 140.200 293.386,139.995 293.417,140.295 293.454 M149.076 294.296 C 148.705 294.637,148.180 295.089,147.909 295.299 C 147.638 295.509,147.754 295.461,148.167 295.191 C 148.822 294.762,150.024 293.659,149.823 293.671 C 149.783 293.673,149.447 293.954,149.076 294.296 M246.833 294.908 C 246.833 294.954,247.058 295.108,247.333 295.250 C 247.608 295.392,247.833 295.471,247.833 295.425 C 247.833 295.379,247.608 295.226,247.333 295.083 C 247.058 294.941,246.833 294.862,246.833 294.908 M135.644 296.423 C 135.953 296.557,136.290 296.664,136.394 296.660 C 136.498 296.657,136.331 296.544,136.023 296.410 C 135.714 296.276,135.377 296.170,135.273 296.173 C 135.168 296.177,135.336 296.289,135.644 296.423 M249.750 296.333 C 249.933 296.412,250.196 296.477,250.333 296.477 C 250.491 296.477,250.460 296.424,250.250 296.333 C 250.067 296.255,249.804 296.190,249.667 296.190 C 249.509 296.190,249.540 296.243,249.750 296.333 M261.250 296.333 C 260.825 296.516,261.263 296.516,261.833 296.333 C 262.168 296.226,262.185 296.199,261.917 296.195 C 261.733 296.192,261.433 296.255,261.250 296.333 M310.333 296.305 C 310.471 296.390,310.771 296.510,311.000 296.571 C 311.290 296.649,311.340 296.635,311.167 296.528 C 311.029 296.443,310.729 296.324,310.500 296.262 C 310.210 296.185,310.160 296.198,310.333 296.305 M314.208 297.119 C 314.460 297.158,314.873 297.158,315.125 297.119 C 315.377 297.081,315.171 297.050,314.667 297.050 C 314.162 297.050,313.956 297.081,314.208 297.119 " stroke="none" fill="#5677aa" fill-rule="evenodd"></path><path id="path3" d="M282.333 5.552 C 282.333 5.581,282.577 5.825,282.875 6.094 L 283.417 6.583 282.927 6.042 C 282.471 5.537,282.333 5.423,282.333 5.552 M284.833 8.052 C 284.833 8.081,285.077 8.325,285.375 8.594 L 285.917 9.083 285.427 8.542 C 284.971 8.037,284.833 7.923,284.833 8.052 M287.500 10.719 C 287.500 10.748,287.744 10.991,288.042 11.260 L 288.583 11.750 288.094 11.208 C 287.638 10.703,287.500 10.590,287.500 10.719 M301.667 24.885 C 301.667 24.914,301.910 25.158,302.208 25.427 L 302.750 25.917 302.260 25.375 C 301.804 24.870,301.667 24.757,301.667 24.885 M304.333 27.552 C 304.333 27.581,304.577 27.825,304.875 28.094 L 305.417 28.583 304.927 28.042 C 304.471 27.537,304.333 27.423,304.333 27.552 M306.833 30.052 C 306.833 30.081,307.077 30.325,307.375 30.594 L 307.917 31.083 307.427 30.542 C 306.971 30.037,306.833 29.923,306.833 30.052 M309.500 32.719 C 309.500 32.748,309.744 32.991,310.042 33.260 L 310.583 33.750 310.094 33.208 C 309.638 32.703,309.500 32.590,309.500 32.719 M49.042 82.115 C 49.202 82.157,49.465 82.157,49.625 82.115 C 49.785 82.073,49.654 82.039,49.333 82.039 C 49.012 82.039,48.881 82.073,49.042 82.115 M151.542 82.115 C 151.702 82.157,151.965 82.157,152.125 82.115 C 152.285 82.073,152.154 82.039,151.833 82.039 C 151.512 82.039,151.381 82.073,151.542 82.115 M205.080 99.167 C 205.080 108.563,205.100 112.406,205.125 107.708 C 205.150 103.010,205.150 95.323,205.125 90.625 C 205.100 85.927,205.080 89.771,205.080 99.167 M96.573 132.542 L 96.083 133.083 96.625 132.594 C 96.923 132.325,97.167 132.081,97.167 132.052 C 97.167 131.923,97.029 132.037,96.573 132.542 M78.581 150.375 L 76.417 152.583 78.625 150.419 C 79.840 149.229,80.833 148.235,80.833 148.211 C 80.833 148.091,80.591 148.324,78.581 150.375 M204.073 192.375 L 203.583 192.917 204.125 192.427 C 204.630 191.971,204.743 191.833,204.615 191.833 C 204.586 191.833,204.342 192.077,204.073 192.375 M201.573 194.875 L 201.083 195.417 201.625 194.927 C 202.130 194.471,202.243 194.333,202.115 194.333 C 202.086 194.333,201.842 194.577,201.573 194.875 M200.240 196.208 L 199.750 196.750 200.292 196.260 C 200.797 195.804,200.910 195.667,200.781 195.667 C 200.752 195.667,200.509 195.910,200.240 196.208 M274.333 224.917 C 273.928 225.329,273.635 225.667,273.681 225.667 C 273.726 225.667,274.095 225.329,274.500 224.917 C 274.905 224.504,275.199 224.167,275.153 224.167 C 275.107 224.167,274.738 224.504,274.333 224.917 M95.208 264.124 C 95.919 264.155,97.081 264.155,97.792 264.124 C 98.502 264.093,97.921 264.067,96.500 264.067 C 95.079 264.067,94.498 264.093,95.208 264.124 M45.711 267.953 C 45.964 267.991,46.339 267.990,46.544 267.951 C 46.749 267.911,46.542 267.880,46.083 267.881 C 45.625 267.882,45.457 267.915,45.711 267.953 M140.375 267.953 C 140.627 267.991,141.040 267.991,141.292 267.953 C 141.544 267.915,141.337 267.883,140.833 267.883 C 140.329 267.883,140.123 267.915,140.375 267.953 M174.711 267.953 C 174.964 267.991,175.339 267.990,175.544 267.951 C 175.749 267.911,175.542 267.880,175.083 267.881 C 174.625 267.882,174.457 267.915,174.711 267.953 M206.711 267.953 C 206.964 267.991,207.339 267.990,207.544 267.951 C 207.749 267.911,207.542 267.880,207.083 267.881 C 206.625 267.882,206.457 267.915,206.711 267.953 M224.711 267.953 C 224.964 267.991,225.339 267.990,225.544 267.951 C 225.749 267.911,225.542 267.880,225.083 267.881 C 224.625 267.882,224.457 267.915,224.711 267.953 M254.128 267.954 C 254.428 267.991,254.878 267.990,255.128 267.952 C 255.378 267.914,255.133 267.884,254.583 267.885 C 254.033 267.886,253.828 267.917,254.128 267.954 M287.211 267.953 C 287.464 267.991,287.839 267.990,288.044 267.951 C 288.249 267.911,288.042 267.880,287.583 267.881 C 287.125 267.882,286.957 267.915,287.211 267.953 M31.913 282.583 C 31.913 290.283,31.933 293.409,31.958 289.529 C 31.983 285.649,31.983 279.349,31.958 275.529 C 31.933 271.709,31.913 274.883,31.913 282.583 M94.080 282.583 C 94.080 290.283,94.100 293.409,94.125 289.529 C 94.150 285.649,94.150 279.349,94.125 275.529 C 94.100 271.709,94.080 274.883,94.080 282.583 M108.080 282.583 C 108.080 290.283,108.100 293.409,108.125 289.529 C 108.150 285.649,108.150 279.349,108.125 275.529 C 108.100 271.709,108.080 274.883,108.080 282.583 M302.730 270.750 C 302.731 271.850,302.758 272.278,302.790 271.702 C 302.823 271.125,302.823 270.225,302.790 269.702 C 302.757 269.178,302.730 269.650,302.730 270.750 M320.397 270.750 C 320.397 271.850,320.424 272.278,320.457 271.702 C 320.490 271.125,320.489 270.225,320.456 269.702 C 320.423 269.178,320.397 269.650,320.397 270.750 M44.460 272.451 C 44.668 272.491,44.968 272.490,45.127 272.448 C 45.286 272.406,45.117 272.374,44.750 272.375 C 44.383 272.377,44.253 272.411,44.460 272.451 M173.542 272.448 C 173.702 272.490,173.965 272.490,174.125 272.448 C 174.285 272.406,174.154 272.372,173.833 272.372 C 173.512 272.372,173.381 272.406,173.542 272.448 M205.542 272.448 C 205.702 272.490,205.965 272.490,206.125 272.448 C 206.285 272.406,206.154 272.372,205.833 272.372 C 205.512 272.372,205.381 272.406,205.542 272.448 M223.542 272.448 C 223.702 272.490,223.965 272.490,224.125 272.448 C 224.285 272.406,224.154 272.372,223.833 272.372 C 223.512 272.372,223.381 272.406,223.542 272.448 M286.042 272.448 C 286.202 272.490,286.465 272.490,286.625 272.448 C 286.785 272.406,286.654 272.372,286.333 272.372 C 286.012 272.372,285.881 272.406,286.042 272.448 M120.542 273.455 C 120.885 273.491,121.448 273.491,121.792 273.455 C 122.135 273.419,121.854 273.389,121.167 273.389 C 120.479 273.389,120.198 273.419,120.542 273.455 M292.077 288.000 C 292.077 292.721,292.099 294.652,292.125 292.292 C 292.151 289.931,292.151 286.069,292.125 283.708 C 292.099 281.348,292.077 283.279,292.077 288.000 M266.396 281.417 C 266.396 282.425,266.424 282.816,266.457 282.286 C 266.490 281.755,266.490 280.930,266.456 280.452 C 266.422 279.974,266.395 280.408,266.396 281.417 M127.889 282.667 C 127.889 283.354,127.919 283.635,127.955 283.292 C 127.991 282.948,127.991 282.385,127.955 282.042 C 127.919 281.698,127.889 281.979,127.889 282.667 M320.119 292.119 C 320.253 292.214,320.341 292.938,320.378 294.256 L 320.434 296.250 320.425 294.180 C 320.418 292.487,320.371 292.098,320.167 292.043 C 319.987 291.994,319.974 292.015,320.119 292.119 " stroke="none" fill="#a1b7be" fill-rule="evenodd"></path><path id="path4" d="M239.910 36.875 L 239.083 37.750 239.958 36.923 C 240.771 36.154,240.910 36.000,240.785 36.000 C 240.759 36.000,240.365 36.394,239.910 36.875 M237.579 39.208 L 236.417 40.417 237.625 39.254 C 238.747 38.175,238.909 38.000,238.787 38.000 C 238.762 38.000,238.218 38.544,237.579 39.208 M234.995 41.792 L 233.917 42.917 235.042 41.838 C 236.087 40.836,236.243 40.667,236.120 40.667 C 236.095 40.667,235.588 41.173,234.995 41.792 M232.245 44.542 L 231.250 45.583 232.292 44.589 C 232.865 44.041,233.333 43.573,233.333 43.547 C 233.333 43.424,233.169 43.574,232.245 44.542 M229.661 47.125 L 228.750 48.083 229.708 47.172 C 230.235 46.671,230.667 46.240,230.667 46.214 C 230.667 46.090,230.507 46.235,229.661 47.125 M226.994 49.792 L 226.083 50.750 227.042 49.839 C 227.569 49.338,228.000 48.907,228.000 48.881 C 228.000 48.757,227.841 48.901,226.994 49.792 M224.494 52.292 L 223.583 53.250 224.542 52.339 C 225.069 51.838,225.500 51.407,225.500 51.381 C 225.500 51.257,225.341 51.401,224.494 52.292 M221.491 55.292 L 220.917 55.917 221.542 55.342 C 221.885 55.026,222.167 54.745,222.167 54.717 C 222.167 54.590,222.026 54.710,221.491 55.292 M218.906 57.875 L 218.417 58.417 218.958 57.927 C 219.463 57.471,219.577 57.333,219.448 57.333 C 219.419 57.333,219.175 57.577,218.906 57.875 M205.421 71.328 C 205.063 71.703,205.004 71.845,205.182 71.913 C 205.311 71.962,221.504 71.983,241.167 71.959 L 276.917 71.916 241.010 71.875 L 205.104 71.833 205.583 71.333 C 205.847 71.058,206.025 70.833,205.979 70.833 C 205.933 70.833,205.682 71.056,205.421 71.328 M47.960 82.118 C 48.168 82.158,48.468 82.156,48.627 82.115 C 48.786 82.073,48.617 82.040,48.250 82.042 C 47.883 82.044,47.753 82.078,47.960 82.118 M102.747 99.167 C 102.747 108.563,102.767 112.406,102.792 107.708 C 102.816 103.010,102.816 95.323,102.792 90.625 C 102.767 85.927,102.747 89.771,102.747 99.167 M14.077 97.875 L 13.250 98.750 14.125 97.923 C 14.606 97.468,15.000 97.074,15.000 97.048 C 15.000 96.924,14.846 97.062,14.077 97.875 M44.410 126.542 C 44.366 126.656,44.350 132.825,44.375 140.250 L 44.419 153.750 44.459 140.125 L 44.500 126.501 73.625 126.458 L 102.750 126.416 73.620 126.375 C 50.439 126.342,44.473 126.376,44.410 126.542 M0.039 131.333 C 0.039 131.654,0.073 131.785,0.115 131.625 C 0.157 131.465,0.157 131.202,0.115 131.042 C 0.073 130.881,0.039 131.012,0.039 131.333 M34.412 142.667 C 34.412 148.762,34.433 151.256,34.458 148.208 C 34.484 145.160,34.484 140.173,34.458 137.125 C 34.433 134.077,34.412 136.571,34.412 142.667 M91.831 137.292 L 89.583 139.583 91.875 137.336 C 94.004 135.248,94.242 135.000,94.123 135.000 C 94.098 135.000,93.067 136.031,91.831 137.292 M75.824 153.125 L 75.250 153.750 75.875 153.176 C 76.457 152.641,76.577 152.500,76.449 152.500 C 76.422 152.500,76.140 152.781,75.824 153.125 M93.782 259.107 C 93.625 259.264,93.635 263.960,93.792 264.058 C 93.860 264.101,93.894 263.018,93.867 261.651 L 93.817 259.167 96.500 259.167 L 99.183 259.167 99.133 261.659 C 99.106 263.030,99.142 264.092,99.213 264.021 C 99.284 263.949,99.322 262.809,99.296 261.487 L 99.250 259.083 96.573 259.038 C 95.101 259.013,93.845 259.044,93.782 259.107 M305.908 260.712 C 305.864 260.828,305.849 262.685,305.875 264.837 L 305.923 268.750 305.962 264.713 L 306.000 260.676 308.375 260.625 L 310.750 260.573 308.370 260.537 C 306.571 260.509,305.970 260.552,305.908 260.712 M141.875 267.948 C 142.035 267.990,142.298 267.990,142.458 267.948 C 142.619 267.906,142.487 267.872,142.167 267.872 C 141.846 267.872,141.715 267.906,141.875 267.948 M255.708 267.948 C 255.869 267.990,256.131 267.990,256.292 267.948 C 256.452 267.906,256.321 267.872,256.000 267.872 C 255.679 267.872,255.548 267.906,255.708 267.948 M98.913 282.583 C 98.913 290.283,98.933 293.409,98.958 289.529 C 98.983 285.649,98.983 279.349,98.958 275.529 C 98.933 271.709,98.913 274.883,98.913 282.583 M160.913 282.667 C 160.913 290.412,160.933 293.581,160.958 289.708 C 160.983 285.835,160.983 279.498,160.958 275.625 C 160.933 271.752,160.913 274.921,160.913 282.667 M193.246 282.667 C 193.246 290.412,193.267 293.581,193.292 289.708 C 193.317 285.835,193.317 279.498,193.292 275.625 C 193.267 271.752,193.246 274.921,193.246 282.667 M198.060 270.167 C 198.060 271.037,198.088 271.394,198.123 270.958 C 198.157 270.523,198.157 269.810,198.123 269.375 C 198.088 268.940,198.060 269.296,198.060 270.167 M278.227 270.167 C 278.227 271.037,278.255 271.394,278.289 270.958 C 278.324 270.523,278.324 269.810,278.289 269.375 C 278.255 268.940,278.227 269.296,278.227 270.167 M36.726 270.250 C 36.725 271.075,36.754 271.434,36.788 271.047 C 36.823 270.660,36.824 269.985,36.789 269.547 C 36.755 269.109,36.726 269.425,36.726 270.250 M273.413 282.667 C 273.413 290.321,273.433 293.452,273.458 289.625 C 273.483 285.798,273.483 279.535,273.458 275.708 C 273.433 271.881,273.413 275.012,273.413 282.667 M213.333 270.250 C 213.644 270.571,213.936 270.833,213.982 270.833 C 214.028 270.833,213.811 270.571,213.500 270.250 C 213.189 269.929,212.897 269.667,212.851 269.667 C 212.805 269.667,213.022 269.929,213.333 270.250 M244.573 272.042 L 244.083 272.583 244.625 272.094 C 245.130 271.638,245.243 271.500,245.115 271.500 C 245.086 271.500,244.842 271.744,244.573 272.042 M253.788 271.954 C 254.084 271.990,254.609 271.991,254.955 271.955 C 255.300 271.919,255.058 271.889,254.417 271.888 C 253.775 271.887,253.492 271.917,253.788 271.954 M140.461 272.121 C 140.761 272.158,141.211 272.157,141.461 272.119 C 141.712 272.081,141.467 272.051,140.917 272.052 C 140.367 272.053,140.162 272.084,140.461 272.121 M305.911 281.000 C 305.911 285.629,305.932 287.523,305.958 285.208 C 305.984 282.894,305.984 279.106,305.958 276.792 C 305.932 274.477,305.911 276.371,305.911 281.000 M9.887 273.958 C 12.621 273.984,17.046 273.984,19.720 273.958 C 22.395 273.932,20.158 273.911,14.750 273.911 C 9.342 273.911,7.153 273.933,9.887 273.958 M36.745 286.167 C 36.745 291.896,36.766 294.240,36.792 291.375 C 36.817 288.510,36.817 283.823,36.792 280.958 C 36.766 278.094,36.745 280.438,36.745 286.167 M198.078 286.250 C 198.078 292.025,198.099 294.363,198.125 291.446 C 198.150 288.529,198.150 283.804,198.125 280.946 C 198.099 278.088,198.078 280.475,198.078 286.250 M278.245 286.250 C 278.245 292.025,278.266 294.363,278.292 291.446 C 278.317 288.529,278.317 283.804,278.292 280.946 C 278.266 278.088,278.245 280.475,278.245 286.250 M234.078 286.833 C 234.078 292.196,234.099 294.390,234.125 291.708 C 234.151 289.027,234.151 284.640,234.125 281.958 C 234.099 279.277,234.078 281.471,234.078 286.833 M296.911 286.917 C 296.911 292.233,296.932 294.432,296.958 291.804 C 296.984 289.175,296.984 284.825,296.958 282.137 C 296.933 279.449,296.911 281.600,296.911 286.917 M179.372 278.667 C 179.372 278.987,179.406 279.119,179.448 278.958 C 179.490 278.798,179.490 278.535,179.448 278.375 C 179.406 278.215,179.372 278.346,179.372 278.667 M184.411 287.417 C 184.411 292.458,184.432 294.545,184.458 292.053 C 184.484 289.562,184.484 285.437,184.458 282.887 C 184.432 280.337,184.411 282.375,184.411 287.417 M266.379 279.000 C 266.379 279.412,266.411 279.581,266.451 279.375 C 266.491 279.169,266.491 278.831,266.451 278.625 C 266.411 278.419,266.379 278.587,266.379 279.000 M229.209 279.583 C 229.211 279.950,229.245 280.080,229.285 279.873 C 229.324 279.666,229.323 279.366,229.281 279.206 C 229.239 279.047,229.207 279.217,229.209 279.583 M211.244 288.000 C 211.244 292.721,211.265 294.652,211.292 292.292 C 211.318 289.931,211.318 286.069,211.292 283.708 C 211.265 281.348,211.244 283.279,211.244 288.000 M132.896 282.583 C 132.896 283.592,132.924 283.983,132.957 283.452 C 132.990 282.922,132.990 282.097,132.956 281.619 C 132.922 281.141,132.895 281.575,132.896 282.583 M153.730 282.667 C 153.730 283.721,153.757 284.152,153.790 283.625 C 153.823 283.098,153.823 282.235,153.790 281.708 C 153.757 281.181,153.730 281.612,153.730 282.667 M310.709 287.417 C 310.711 287.783,310.745 287.914,310.785 287.706 C 310.824 287.499,310.823 287.199,310.781 287.040 C 310.739 286.880,310.707 287.050,310.709 287.417 M265.620 289.786 C 265.762 289.886,265.841 290.720,265.877 292.507 L 265.930 295.083 265.924 292.430 C 265.918 290.218,265.875 289.766,265.667 289.709 C 265.486 289.660,265.473 289.682,265.620 289.786 M315.295 292.954 C 315.594 292.991,316.044 292.990,316.295 292.952 C 316.545 292.914,316.300 292.884,315.750 292.885 C 315.200 292.886,314.995 292.917,315.295 292.954 M255.460 293.118 C 255.668 293.158,255.968 293.156,256.127 293.115 C 256.286 293.073,256.117 293.040,255.750 293.042 C 255.383 293.044,255.253 293.078,255.460 293.118 " stroke="none" fill="#cbd4e3" fill-rule="evenodd"></path><path id="path5" d="M328.250 71.667 L 292.250 71.751 328.198 71.792 C 352.029 71.819,364.182 71.777,364.250 71.667 C 364.307 71.575,364.330 71.518,364.302 71.541 C 364.273 71.564,348.050 71.620,328.250 71.667 M165.458 82.125 C 172.723 82.149,184.610 82.149,191.875 82.125 C 199.140 82.101,193.196 82.081,178.667 82.081 C 164.137 82.081,158.194 82.101,165.458 82.125 M267.875 82.125 C 275.185 82.149,287.148 82.149,294.458 82.125 C 301.769 82.101,295.787 82.081,281.167 82.081 C 266.546 82.081,260.565 82.101,267.875 82.125 M149.458 82.284 C 149.665 82.324,150.002 82.324,150.208 82.284 C 150.415 82.245,150.246 82.212,149.833 82.212 C 149.421 82.212,149.252 82.245,149.458 82.284 M251.877 82.286 C 252.131 82.325,252.506 82.324,252.711 82.284 C 252.916 82.244,252.708 82.213,252.250 82.214 C 251.792 82.216,251.624 82.248,251.877 82.286 M219.913 97.042 L 218.417 98.583 219.958 97.087 C 220.806 96.264,221.500 95.570,221.500 95.545 C 221.500 95.424,221.303 95.610,219.913 97.042 M115.740 98.875 L 115.250 99.417 115.792 98.927 C 116.090 98.658,116.333 98.414,116.333 98.385 C 116.333 98.257,116.196 98.370,115.740 98.875 M165.708 116.292 C 172.927 116.316,184.740 116.316,191.958 116.292 C 199.177 116.268,193.271 116.248,178.833 116.248 C 164.396 116.248,158.490 116.268,165.708 116.292 M268.125 116.292 C 275.390 116.316,287.277 116.316,294.542 116.292 C 301.806 116.268,295.862 116.248,281.333 116.248 C 266.804 116.248,260.860 116.268,268.125 116.292 M244.158 121.125 L 243.583 121.750 244.208 121.176 C 244.790 120.641,244.910 120.500,244.783 120.500 C 244.755 120.500,244.474 120.781,244.158 121.125 M140.906 122.042 L 140.417 122.583 140.958 122.094 C 141.256 121.825,141.500 121.581,141.500 121.552 C 141.500 121.423,141.362 121.537,140.906 122.042 M102.872 128.000 C 102.872 128.321,102.906 128.452,102.948 128.292 C 102.990 128.131,102.990 127.869,102.948 127.708 C 102.906 127.548,102.872 127.679,102.872 128.000 M205.209 128.917 C 205.211 129.283,205.245 129.414,205.285 129.206 C 205.324 128.999,205.323 128.699,205.281 128.540 C 205.239 128.380,205.207 128.550,205.209 128.917 M205.079 142.333 C 205.079 148.612,205.100 151.181,205.125 148.042 C 205.150 144.902,205.150 139.765,205.125 136.625 C 205.100 133.485,205.079 136.054,205.079 142.333 M239.245 142.667 C 239.245 148.762,239.266 151.256,239.292 148.208 C 239.317 145.160,239.317 140.173,239.292 137.125 C 239.266 134.077,239.245 136.571,239.245 142.667 M111.221 164.125 C 115.972 164.150,123.697 164.150,128.388 164.125 C 133.079 164.100,129.192 164.080,119.750 164.080 C 110.308 164.080,106.470 164.100,111.221 164.125 M205.076 164.208 C 205.032 164.324,205.016 167.155,205.042 170.501 L 205.088 176.583 205.127 170.375 L 205.167 164.167 222.165 164.167 L 239.162 164.167 239.209 169.958 L 239.256 175.750 239.253 169.917 L 239.250 164.083 222.203 164.041 C 208.623 164.007,205.140 164.041,205.076 164.208 M205.205 178.500 C 205.205 178.821,205.240 178.952,205.282 178.792 C 205.323 178.631,205.323 178.369,205.282 178.208 C 205.240 178.048,205.205 178.179,205.205 178.500 M102.872 179.500 C 102.872 179.821,102.906 179.952,102.948 179.792 C 102.990 179.631,102.990 179.369,102.948 179.208 C 102.906 179.048,102.872 179.179,102.872 179.500 M205.372 180.167 C 205.372 180.487,205.406 180.619,205.448 180.458 C 205.490 180.298,205.490 180.035,205.448 179.875 C 205.406 179.715,205.372 179.846,205.372 180.167 M103.039 181.000 C 103.039 181.321,103.073 181.452,103.115 181.292 C 103.157 181.131,103.157 180.869,103.115 180.708 C 103.073 180.548,103.039 180.679,103.039 181.000 M141.000 185.583 C 141.311 185.904,141.603 186.167,141.649 186.167 C 141.695 186.167,141.478 185.904,141.167 185.583 C 140.856 185.262,140.564 185.000,140.518 185.000 C 140.472 185.000,140.689 185.262,141.000 185.583 M244.160 186.375 C 244.850 187.111,245.000 187.243,245.000 187.118 C 245.000 187.091,244.644 186.735,244.208 186.326 L 243.417 185.583 244.160 186.375 M178.968 191.458 C 198.441 191.490,204.823 191.549,204.734 191.693 C 204.660 191.812,204.689 191.839,204.808 191.766 C 204.913 191.701,205.000 191.576,205.000 191.490 C 205.000 191.393,195.180 191.349,179.042 191.374 L 153.083 191.416 178.968 191.458 M268.625 191.458 C 275.798 191.482,287.535 191.482,294.708 191.458 C 301.881 191.434,296.012 191.415,281.667 191.415 C 267.321 191.415,261.452 191.434,268.625 191.458 M192.749 203.708 L 185.750 210.750 192.792 203.751 C 199.337 197.245,199.908 196.667,199.791 196.667 C 199.768 196.667,196.599 199.835,192.749 203.708 M294.583 204.542 L 287.583 211.583 294.625 204.584 C 298.498 200.734,301.667 197.566,301.667 197.542 C 301.667 197.425,301.088 197.997,294.583 204.542 M219.333 209.917 C 219.644 210.237,219.936 210.500,219.982 210.500 C 220.028 210.500,219.811 210.237,219.500 209.917 C 219.189 209.596,218.897 209.333,218.851 209.333 C 218.805 209.333,219.022 209.596,219.333 209.917 M220.333 210.885 C 220.333 210.914,220.577 211.158,220.875 211.427 L 221.417 211.917 220.927 211.375 C 220.471 210.870,220.333 210.757,220.333 210.885 M180.906 215.542 L 180.417 216.083 180.958 215.594 C 181.463 215.138,181.577 215.000,181.448 215.000 C 181.419 215.000,181.175 215.244,180.906 215.542 M171.418 225.165 C 171.125 225.489,170.864 225.498,161.517 225.542 L 151.917 225.586 161.513 225.626 L 171.109 225.667 171.500 225.250 C 171.715 225.021,171.852 224.833,171.805 224.833 C 171.757 224.833,171.583 224.983,171.418 225.165 M149.458 225.451 C 149.665 225.491,150.002 225.491,150.208 225.451 C 150.415 225.411,150.246 225.379,149.833 225.379 C 149.421 225.379,149.252 225.411,149.458 225.451 M251.958 225.451 C 252.165 225.491,252.502 225.491,252.708 225.451 C 252.915 225.411,252.746 225.379,252.333 225.379 C 251.921 225.379,251.752 225.411,251.958 225.451 M259.125 225.625 C 261.806 225.651,266.194 225.651,268.875 225.625 C 271.556 225.599,269.362 225.578,264.000 225.578 C 258.637 225.578,256.444 225.599,259.125 225.625 " stroke="none" fill="#8ead83" fill-rule="evenodd"></path><path id="path6" d="M310.167 18.052 C 310.167 18.081,310.410 18.325,310.708 18.594 L 311.250 19.083 310.760 18.542 C 310.304 18.037,310.167 17.923,310.167 18.052 M312.833 20.719 C 312.833 20.748,313.077 20.991,313.375 21.260 L 313.917 21.750 313.427 21.208 C 312.971 20.703,312.833 20.590,312.833 20.719 M316.250 24.167 C 316.794 24.717,317.277 25.167,317.323 25.167 C 317.369 25.167,316.961 24.717,316.417 24.167 C 315.872 23.617,315.390 23.167,315.344 23.167 C 315.298 23.167,315.706 23.617,316.250 24.167 M318.833 26.750 C 319.331 27.254,319.776 27.667,319.822 27.667 C 319.868 27.667,319.498 27.254,319.000 26.750 C 318.502 26.246,318.057 25.833,318.011 25.833 C 317.966 25.833,318.335 26.246,318.833 26.750 M321.833 29.750 C 322.144 30.071,322.436 30.333,322.482 30.333 C 322.528 30.333,322.311 30.071,322.000 29.750 C 321.689 29.429,321.397 29.167,321.351 29.167 C 321.305 29.167,321.522 29.429,321.833 29.750 M324.000 31.885 C 324.000 31.914,324.244 32.158,324.542 32.427 L 325.083 32.917 324.594 32.375 C 324.138 31.870,324.000 31.757,324.000 31.885 M327.167 35.083 C 327.478 35.404,327.770 35.667,327.815 35.667 C 327.861 35.667,327.644 35.404,327.333 35.083 C 327.022 34.762,326.730 34.500,326.685 34.500 C 326.639 34.500,326.856 34.762,327.167 35.083 M292.309 71.875 C 292.378 71.944,308.593 71.982,328.342 71.959 L 364.250 71.917 328.217 71.833 C 308.398 71.787,292.240 71.806,292.309 71.875 M115.991 98.458 L 115.417 99.083 116.042 98.509 C 116.385 98.193,116.667 97.912,116.667 97.884 C 116.667 97.757,116.526 97.877,115.991 98.458 M244.406 121.042 L 243.917 121.583 244.458 121.094 C 244.963 120.638,245.077 120.500,244.948 120.500 C 244.919 120.500,244.675 120.744,244.406 121.042 M102.579 142.083 C 102.579 148.500,102.600 151.101,102.625 147.863 C 102.650 144.625,102.650 139.375,102.625 136.196 C 102.600 133.017,102.579 135.667,102.579 142.083 M136.912 142.833 C 136.912 148.837,136.933 151.294,136.958 148.292 C 136.984 145.290,136.984 140.377,136.958 137.375 C 136.933 134.373,136.912 136.829,136.912 142.833 M102.576 170.500 C 102.576 174.029,102.598 175.473,102.625 173.708 C 102.652 171.944,102.652 169.056,102.625 167.292 C 102.598 165.527,102.576 166.971,102.576 170.500 M136.908 169.833 C 136.908 172.996,136.931 174.290,136.958 172.708 C 136.985 171.127,136.985 168.540,136.958 166.958 C 136.931 165.377,136.908 166.671,136.908 169.833 M244.083 186.167 C 244.441 186.533,244.772 186.833,244.818 186.833 C 244.863 186.833,244.608 186.533,244.250 186.167 C 243.892 185.800,243.562 185.500,243.516 185.500 C 243.470 185.500,243.725 185.800,244.083 186.167 M189.250 207.333 C 187.327 209.258,185.790 210.833,185.836 210.833 C 185.882 210.833,187.493 209.258,189.417 207.333 C 191.340 205.408,192.876 203.833,192.830 203.833 C 192.785 203.833,191.173 205.408,189.250 207.333 M293.073 206.208 L 292.583 206.750 293.125 206.260 C 293.630 205.804,293.743 205.667,293.615 205.667 C 293.586 205.667,293.342 205.910,293.073 206.208 M116.167 209.250 C 116.478 209.571,116.770 209.833,116.815 209.833 C 116.861 209.833,116.644 209.571,116.333 209.250 C 116.022 208.929,115.730 208.667,115.685 208.667 C 115.639 208.667,115.856 208.929,116.167 209.250 M286.579 212.708 L 285.417 213.917 286.625 212.754 C 287.747 211.675,287.909 211.500,287.787 211.500 C 287.762 211.500,287.218 212.044,286.579 212.708 M284.328 214.958 L 283.417 215.917 284.375 215.006 C 284.902 214.505,285.333 214.073,285.333 214.047 C 285.333 213.924,285.174 214.068,284.328 214.958 M180.906 215.708 L 180.417 216.250 180.958 215.760 C 181.463 215.304,181.577 215.167,181.448 215.167 C 181.419 215.167,181.175 215.410,180.906 215.708 " stroke="none" fill="#d3dcd1" fill-rule="evenodd"></path><path id="path7" d="M222.917 18.000 C 232.725 27.808,240.787 35.833,240.833 35.833 C 240.879 35.833,232.891 27.808,223.083 18.000 C 213.275 8.192,205.213 0.167,205.167 0.167 C 205.121 0.167,213.109 8.192,222.917 18.000 M311.991 36.625 L 311.417 37.250 312.042 36.676 C 312.623 36.141,312.743 36.000,312.616 36.000 C 312.588 36.000,312.307 36.281,311.991 36.625 M305.666 42.958 L 300.083 48.583 305.708 43.001 C 308.802 39.931,311.333 37.399,311.333 37.376 C 311.333 37.258,310.854 37.731,305.666 42.958 M298.667 49.917 C 297.984 50.604,297.463 51.167,297.508 51.167 C 297.554 51.167,298.150 50.604,298.833 49.917 C 299.516 49.229,300.037 48.667,299.992 48.667 C 299.946 48.667,299.350 49.229,298.667 49.917 M295.995 52.625 L 294.917 53.750 296.042 52.671 C 296.660 52.078,297.167 51.572,297.167 51.546 C 297.167 51.424,296.997 51.580,295.995 52.625 M293.329 55.292 L 292.250 56.417 293.375 55.338 C 293.994 54.745,294.500 54.239,294.500 54.213 C 294.500 54.090,294.330 54.247,293.329 55.292 M290.746 57.875 L 289.583 59.083 290.792 57.921 C 291.456 57.282,292.000 56.738,292.000 56.713 C 292.000 56.591,291.825 56.753,290.746 57.875 M288.162 60.458 L 287.083 61.583 288.208 60.505 C 288.827 59.912,289.333 59.405,289.333 59.380 C 289.333 59.257,289.164 59.413,288.162 60.458 M285.662 62.958 L 284.583 64.083 285.708 63.005 C 286.327 62.412,286.833 61.905,286.833 61.880 C 286.833 61.757,286.664 61.913,285.662 62.958 M282.995 65.625 L 281.917 66.750 283.042 65.671 C 283.660 65.078,284.167 64.572,284.167 64.546 C 284.167 64.424,283.997 64.580,282.995 65.625 M281.073 67.542 L 280.583 68.083 281.125 67.594 C 281.423 67.325,281.667 67.081,281.667 67.052 C 281.667 66.923,281.529 67.037,281.073 67.542 M279.906 68.708 L 279.417 69.250 279.958 68.760 C 280.463 68.304,280.577 68.167,280.448 68.167 C 280.419 68.167,280.175 68.410,279.906 68.708 M63.055 82.125 C 70.372 82.149,82.297 82.149,89.555 82.125 C 96.812 82.101,90.825 82.081,76.250 82.081 C 61.675 82.081,55.737 82.101,63.055 82.125 M63.875 116.292 C 71.002 116.316,82.665 116.316,89.792 116.292 C 96.919 116.268,91.087 116.248,76.833 116.248 C 62.579 116.248,56.748 116.268,63.875 116.292 M39.158 121.292 L 38.583 121.917 39.208 121.342 C 39.790 120.808,39.910 120.667,39.783 120.667 C 39.755 120.667,39.474 120.948,39.158 121.292 M100.580 128.542 L 98.750 130.417 100.625 128.586 C 101.656 127.579,102.500 126.736,102.500 126.711 C 102.500 126.591,102.281 126.800,100.580 128.542 M0.079 142.833 C 0.079 148.837,0.099 151.294,0.125 148.292 C 0.150 145.290,0.150 140.377,0.125 137.375 C 0.099 134.373,0.079 136.829,0.079 142.833 M82.998 145.958 L 80.750 148.250 83.042 146.002 C 84.302 144.766,85.333 143.735,85.333 143.711 C 85.333 143.591,85.086 143.830,82.998 145.958 M0.077 164.208 C 0.034 164.323,0.017 178.179,0.041 195.000 L 0.083 225.583 17.167 225.583 L 34.250 225.583 34.250 194.833 L 34.250 164.083 17.203 164.041 C 3.654 164.007,0.140 164.041,0.077 164.208 M34.167 194.833 L 34.167 225.500 17.167 225.500 L 0.167 225.500 0.167 194.833 L 0.167 164.167 17.167 164.167 L 34.167 164.167 34.167 194.833 M6.029 259.458 C 9.391 259.483,14.941 259.483,18.363 259.458 C 21.784 259.433,19.033 259.412,12.250 259.412 C 5.467 259.412,2.667 259.433,6.029 259.458 M4.907 268.833 C 4.907 271.629,4.930 272.773,4.958 271.375 C 4.986 269.977,4.986 267.690,4.958 266.292 C 4.930 264.894,4.907 266.037,4.907 268.833 M4.910 278.542 C 4.865 278.657,4.850 281.788,4.875 285.500 L 4.921 292.250 4.960 285.376 L 5.000 278.503 14.792 278.458 L 24.583 278.414 14.786 278.374 C 7.067 278.342,4.973 278.378,4.910 278.542 M50.581 288.292 L 50.583 296.583 52.875 296.591 L 55.167 296.598 52.918 296.544 L 50.670 296.491 50.624 288.245 L 50.579 280.000 50.581 288.292 M241.050 282.833 C 241.050 283.337,241.081 283.544,241.119 283.292 C 241.158 283.040,241.158 282.627,241.119 282.375 C 241.081 282.123,241.050 282.329,241.050 282.833 M74.333 296.500 L 71.917 296.597 74.282 296.632 C 75.718 296.653,76.687 296.601,76.750 296.500 C 76.807 296.408,76.830 296.349,76.802 296.368 C 76.773 296.387,75.662 296.446,74.333 296.500 M6.029 296.625 C 9.391 296.650,14.941 296.650,18.363 296.625 C 21.784 296.600,19.033 296.579,12.250 296.579 C 5.467 296.579,2.667 296.600,6.029 296.625 M33.125 296.624 C 33.790 296.655,34.877 296.655,35.542 296.624 C 36.206 296.592,35.662 296.566,34.333 296.566 C 33.004 296.566,32.460 296.592,33.125 296.624 M95.292 296.624 C 95.956 296.655,97.044 296.655,97.708 296.624 C 98.373 296.592,97.829 296.566,96.500 296.566 C 95.171 296.566,94.627 296.592,95.292 296.624 M109.292 296.624 C 109.956 296.655,111.044 296.655,111.708 296.624 C 112.373 296.592,111.829 296.566,110.500 296.566 C 109.171 296.566,108.627 296.592,109.292 296.624 M162.125 296.624 C 162.790 296.655,163.877 296.655,164.542 296.624 C 165.206 296.592,164.662 296.566,163.333 296.566 C 162.004 296.566,161.460 296.592,162.125 296.624 M180.701 296.623 C 181.316 296.655,182.366 296.656,183.034 296.624 C 183.703 296.592,183.200 296.566,181.917 296.566 C 180.633 296.565,180.086 296.591,180.701 296.623 M194.458 296.624 C 195.123 296.655,196.210 296.655,196.875 296.624 C 197.540 296.592,196.996 296.566,195.667 296.566 C 194.338 296.566,193.794 296.592,194.458 296.624 M212.458 296.624 C 213.123 296.655,214.210 296.655,214.875 296.624 C 215.540 296.592,214.996 296.566,213.667 296.566 C 212.338 296.566,211.794 296.592,212.458 296.624 M230.458 296.624 C 231.123 296.655,232.210 296.655,232.875 296.624 C 233.540 296.592,232.996 296.566,231.667 296.566 C 230.338 296.566,229.794 296.592,230.458 296.624 M274.625 296.624 C 275.290 296.655,276.377 296.655,277.042 296.624 C 277.706 296.592,277.162 296.566,275.833 296.566 C 274.504 296.566,273.960 296.592,274.625 296.624 M293.292 296.624 C 293.956 296.655,295.044 296.655,295.708 296.624 C 296.373 296.592,295.829 296.566,294.500 296.566 C 293.171 296.566,292.627 296.592,293.292 296.624 M255.377 297.286 C 255.631 297.325,256.006 297.324,256.211 297.284 C 256.416 297.244,256.208 297.213,255.750 297.214 C 255.292 297.216,255.124 297.248,255.377 297.286 " stroke="none" fill="#8c9cc4" fill-rule="evenodd"></path><path id="path8" d="M385.500 21.417 C 385.811 21.738,386.103 22.000,386.149 22.000 C 386.195 22.000,385.978 21.738,385.667 21.417 C 385.356 21.096,385.064 20.833,385.018 20.833 C 384.972 20.833,385.189 21.096,385.500 21.417 M388.500 24.417 C 388.998 24.921,389.443 25.333,389.489 25.333 C 389.534 25.333,389.165 24.921,388.667 24.417 C 388.169 23.912,387.724 23.500,387.678 23.500 C 387.632 23.500,388.002 23.912,388.500 24.417 M391.083 27.000 C 391.628 27.550,392.110 28.000,392.156 28.000 C 392.202 28.000,391.794 27.550,391.250 27.000 C 390.706 26.450,390.223 26.000,390.177 26.000 C 390.131 26.000,390.539 26.450,391.083 27.000 M393.667 29.583 C 394.165 30.087,394.609 30.500,394.655 30.500 C 394.701 30.500,394.331 30.087,393.833 29.583 C 393.335 29.079,392.891 28.667,392.845 28.667 C 392.799 28.667,393.169 29.079,393.667 29.583 M396.250 32.167 C 396.794 32.717,397.277 33.167,397.323 33.167 C 397.369 33.167,396.961 32.717,396.417 32.167 C 395.872 31.617,395.390 31.167,395.344 31.167 C 395.298 31.167,395.706 31.617,396.250 32.167 M399.250 35.167 C 399.608 35.533,399.938 35.833,399.984 35.833 C 400.030 35.833,399.775 35.533,399.417 35.167 C 399.059 34.800,398.728 34.500,398.682 34.500 C 398.637 34.500,398.892 34.800,399.250 35.167 M326.829 37.125 L 325.750 38.250 326.875 37.171 C 327.920 36.170,328.076 36.000,327.954 36.000 C 327.928 36.000,327.422 36.506,326.829 37.125 M324.329 39.625 L 323.250 40.750 324.375 39.671 C 325.420 38.670,325.576 38.500,325.454 38.500 C 325.428 38.500,324.922 39.006,324.329 39.625 M396.573 39.375 L 396.083 39.917 396.625 39.427 C 397.130 38.971,397.243 38.833,397.115 38.833 C 397.086 38.833,396.842 39.077,396.573 39.375 M321.746 42.208 L 320.583 43.417 321.792 42.254 C 322.914 41.175,323.076 41.000,322.954 41.000 C 322.928 41.000,322.385 41.544,321.746 42.208 M319.167 44.750 C 318.484 45.438,317.963 46.000,318.008 46.000 C 318.054 46.000,318.650 45.438,319.333 44.750 C 320.016 44.063,320.537 43.500,320.492 43.500 C 320.446 43.500,319.850 44.063,319.167 44.750 M317.240 46.708 L 316.750 47.250 317.292 46.760 C 317.797 46.304,317.910 46.167,317.781 46.167 C 317.752 46.167,317.509 46.410,317.240 46.708 M315.991 47.958 L 315.417 48.583 316.042 48.009 C 316.385 47.693,316.667 47.412,316.667 47.384 C 316.667 47.257,316.526 47.377,315.991 47.958 M314.658 49.292 L 314.083 49.917 314.708 49.342 C 315.052 49.026,315.333 48.745,315.333 48.717 C 315.333 48.590,315.192 48.710,314.658 49.292 M313.240 50.708 L 312.750 51.250 313.292 50.760 C 313.590 50.491,313.833 50.248,313.833 50.219 C 313.833 50.090,313.696 50.203,313.240 50.708 M312.073 51.875 L 311.583 52.417 312.125 51.927 C 312.423 51.658,312.667 51.414,312.667 51.385 C 312.667 51.257,312.529 51.370,312.073 51.875 M310.740 53.208 L 310.250 53.750 310.792 53.260 C 311.297 52.804,311.410 52.667,311.281 52.667 C 311.252 52.667,311.009 52.910,310.740 53.208 M309.406 54.542 L 308.917 55.083 309.458 54.594 C 309.963 54.138,310.077 54.000,309.948 54.000 C 309.919 54.000,309.675 54.244,309.406 54.542 M308.240 55.708 L 307.750 56.250 308.292 55.760 C 308.797 55.304,308.910 55.167,308.781 55.167 C 308.752 55.167,308.509 55.410,308.240 55.708 M306.906 57.042 L 306.417 57.583 306.958 57.094 C 307.463 56.638,307.577 56.500,307.448 56.500 C 307.419 56.500,307.175 56.744,306.906 57.042 M305.573 58.375 L 305.083 58.917 305.625 58.427 C 306.130 57.971,306.243 57.833,306.115 57.833 C 306.086 57.833,305.842 58.077,305.573 58.375 M304.240 59.708 L 303.750 60.250 304.292 59.760 C 304.590 59.491,304.833 59.248,304.833 59.219 C 304.833 59.090,304.696 59.203,304.240 59.708 M301.740 62.208 L 301.250 62.750 301.792 62.260 C 302.297 61.804,302.410 61.667,302.281 61.667 C 302.252 61.667,302.009 61.910,301.740 62.208 M299.073 64.875 L 298.583 65.417 299.125 64.927 C 299.630 64.471,299.743 64.333,299.615 64.333 C 299.586 64.333,299.342 64.577,299.073 64.875 M296.573 67.375 L 296.083 67.917 296.625 67.427 C 297.130 66.971,297.243 66.833,297.115 66.833 C 297.086 66.833,296.842 67.077,296.573 67.375 M293.906 70.042 L 293.417 70.583 293.958 70.094 C 294.463 69.638,294.577 69.500,294.448 69.500 C 294.419 69.500,294.175 69.744,293.906 70.042 M292.740 71.208 L 292.250 71.750 292.792 71.260 C 293.090 70.991,293.333 70.748,293.333 70.719 C 293.333 70.590,293.196 70.703,292.740 71.208 M307.747 99.167 C 307.747 108.563,307.767 112.406,307.792 107.708 C 307.816 103.010,307.816 95.323,307.792 90.625 C 307.767 85.927,307.747 89.771,307.747 99.167 M205.042 130.250 C 205.044 130.617,205.078 130.747,205.118 130.540 C 205.158 130.332,205.156 130.032,205.115 129.873 C 205.073 129.714,205.040 129.883,205.042 130.250 M205.042 177.250 C 205.044 177.617,205.078 177.747,205.118 177.540 C 205.158 177.332,205.156 177.032,205.115 176.873 C 205.073 176.714,205.040 176.883,205.042 177.250 M117.667 210.750 C 118.165 211.254,118.609 211.667,118.655 211.667 C 118.701 211.667,118.331 211.254,117.833 210.750 C 117.335 210.246,116.891 209.833,116.845 209.833 C 116.799 209.833,117.169 210.246,117.667 210.750 M178.324 218.292 L 177.750 218.917 178.375 218.342 C 178.719 218.026,179.000 217.745,179.000 217.717 C 179.000 217.590,178.859 217.710,178.324 218.292 M279.495 219.792 L 278.417 220.917 279.542 219.838 C 280.587 218.836,280.743 218.667,280.620 218.667 C 280.595 218.667,280.088 219.173,279.495 219.792 M175.162 221.458 L 174.083 222.583 175.208 221.505 C 176.253 220.503,176.410 220.333,176.287 220.333 C 176.261 220.333,175.755 220.840,175.162 221.458 M276.912 222.375 L 275.750 223.583 276.958 222.421 C 278.081 221.342,278.243 221.167,278.121 221.167 C 278.095 221.167,277.551 221.710,276.912 222.375 " stroke="none" fill="#c6d4bc" fill-rule="evenodd"></path></g></svg>
