<svg preserveAspectRatio="xMidYMid meet" width="100%" height="100%" overflow="visible" style="display: block;" viewBox="0 0 82.7996 52.3297" fill="none" xmlns="http://www.w3.org/2000/svg">
<g id="Group">
<path id="Vector" fill-rule="evenodd" clip-rule="evenodd" d="M25.2807 41.9658H31.728V44.854H28.8437V45.8735H31.3886V48.592H28.8437V52.1599H25.2807V41.9658ZM36.6483 46.5526V44.6839H37.3271C37.6664 44.6839 38.0058 45.1934 38.0058 45.7033C38.0058 46.2133 37.6664 46.5526 37.1576 46.5526H36.6483ZM33.2548 52.1599H36.6483V48.9314C36.8183 48.9314 36.8183 49.101 36.8183 49.101L38.1752 52.1599H42.2479L40.0419 48.7617C40.0419 48.592 39.8724 48.4219 39.5331 48.2522V48.0825C40.2118 47.9129 40.7206 47.7427 40.8905 47.4029C41.2294 47.0626 41.5692 46.2138 41.5692 45.5337C41.5692 44.1744 41.0599 43.155 39.8724 42.4748C39.3632 42.1355 38.6849 41.9658 37.6669 41.9658H33.2553L33.2548 52.1599ZM43.6049 41.9658H47.1683V52.1599H43.6049V41.9658ZM52.7674 48.4219L53.2762 46.5526C53.2762 46.2133 53.4456 46.0432 53.4456 45.3635H53.6151C53.6151 45.873 53.6151 45.873 53.7845 46.5526L54.2933 48.4219H52.7674ZM52.0887 50.8006H54.8031L55.1424 52.1599H58.8753L55.4818 41.9658H51.5799L48.1864 52.1599H51.9193L52.0887 50.8006ZM60.7415 45.1939L58.8753 45.364V41.9658H66.3406V45.364L64.305 45.1939V52.1599H60.7415V45.1939ZM67.3591 41.9658H73.9763V44.6844H70.9216V45.7033H73.6369V48.4219H70.9216V49.2717H73.9763V52.1599H67.3591V41.9658ZM82.6296 51.8201C82.4601 51.9897 82.2902 51.9897 82.1198 51.9897C81.4411 52.1594 80.7629 52.3295 80.0842 52.3295C77.3698 52.3295 75.1638 50.121 75.1638 47.0621C75.1638 44.1739 77.3698 41.7957 80.2541 41.7957C81.1023 41.7957 81.9504 41.9654 82.6301 42.3052L82.7995 46.0427C81.9504 45.3631 81.2717 45.0232 80.5935 45.0232C79.5754 45.0232 78.7273 45.8725 78.7273 47.0617C78.7273 48.0816 79.5754 49.1006 80.7629 49.1006C81.4416 49.1006 81.9504 48.7607 82.7995 48.0811L82.6296 51.8201Z" fill="var(--fill-0, #0C0E0F)"/>
<path id="Vector_2" fill-rule="evenodd" clip-rule="evenodd" d="M40.721 0L0 52.1602H21.7182V45.3644H14.0825L40.721 11.0438L62.948 39.5875H71.7702L40.721 0Z" fill="var(--fill-0, #68A9DA)"/>
</g>
</svg>
