<svg preserveAspectRatio="xMidYMid meet" width="100%" height="100%" overflow="visible" style="display: block;" viewBox="0 0 92.2297 92.2297" fill="none" xmlns="http://www.w3.org/2000/svg">
<g id="Group">
<path id="Vector" fill-rule="evenodd" clip-rule="evenodd" d="M25.9627 23.3443C24.1576 23.5642 22.3688 23.9797 21.259 24.4369C21.1576 24.4787 20.7425 24.6454 20.3367 24.8073C16.5348 26.324 11.2297 30.9106 9.66966 34.0295C9.6051 34.1582 9.48313 34.3673 9.39851 34.4941C8.91453 35.2191 7.95096 37.1545 7.4663 38.3752C5.63323 42.9917 5.51402 48.6189 7.14326 53.6327C7.27492 54.0381 7.42318 54.4418 7.47275 54.5299C7.52233 54.618 7.56291 54.731 7.56291 54.7812C7.56291 54.8751 7.97379 55.8036 8.34156 56.541C9.69526 59.2544 11.586 61.6064 13.9636 63.535C14.7965 64.2106 15.4476 64.654 15.6035 64.6512C15.6704 64.65 18.0932 62.2947 20.9874 59.4172L26.2493 54.1852L26.4718 53.5626C26.8087 52.6194 26.9312 52.7346 26.9312 53.9959V55.0517L21.8534 60.1038C19.0607 62.8825 16.7264 65.1863 16.666 65.2237C16.2899 65.4561 20.0123 67.1721 22.2274 67.7875C22.4557 67.8509 22.7462 67.9355 22.873 67.9754C25.2597 68.7282 31.5915 69.2966 32.1989 68.8128C32.4767 68.5915 40.1237 60.9228 40.2168 60.772C40.3884 60.4946 40.5812 60.7734 40.5812 61.2986V61.8234L38.529 63.8944C37.4004 65.0335 36.425 66.0199 36.3616 66.0867C36.2798 66.1727 36.2464 66.6118 36.2464 67.5956V68.9834L42.8638 68.9839L49.4813 68.9844L50.3628 68.1331C50.8477 67.6648 51.5948 66.9546 52.0229 66.5548C52.4513 66.1548 53.3006 65.3454 53.9102 64.7563C54.883 63.816 56.4613 62.3122 59.3423 59.5806C59.797 59.1495 60.6282 58.3565 61.1892 57.8183C63.194 55.8951 63.7541 55.3842 63.8569 55.3842C63.9319 55.3842 63.9683 56.181 63.9858 58.2025L64.01 61.0208L68.9346 56.0812C71.6432 53.3643 76.3275 48.6514 79.3441 45.6078L84.8291 40.074L82.6342 40.0279C81.4272 40.0026 80.4083 39.9507 80.3704 39.9126C80.3324 39.8746 81.3091 38.8305 82.5408 37.5926C85.1853 34.9343 85.4747 34.552 85.9748 33.0565C86.3089 32.0574 86.2316 28.6943 85.8742 28.6818C85.8443 28.6807 83.2863 31.235 80.1899 34.3579L74.56 40.036L73.7338 40.0215L72.9077 40.0069L71.4327 41.4932C70.6215 42.3106 69.9065 42.9793 69.844 42.9793C69.7596 42.9793 69.7239 42.5938 69.705 41.4815L69.6796 39.9834L69.4285 39.9366C69.0854 39.8723 68.5422 40.4492 76.1821 32.7678C84.073 24.8342 83.4359 25.501 83.2904 25.3256C82.8367 24.7789 80.8076 24.1644 79.456 24.1644C76.9738 24.1644 76.0038 24.733 72.5466 28.2147C70.2111 30.5665 70.1975 30.5771 69.9971 30.1824C69.3792 28.9638 68.2007 27.5329 66.9393 26.4699C65.7511 25.4688 65.1274 25.0657 63.8692 24.4865C63.4633 24.2995 63.0592 24.1091 62.9711 24.0634C62.883 24.0175 62.7299 23.98 62.6307 23.98C62.5316 23.98 62.4278 23.9433 62.4002 23.8983C62.3723 23.8534 62.2351 23.7932 62.0949 23.7641C61.9547 23.7353 61.6326 23.6684 61.379 23.6159C59.1671 23.157 57.2464 23.158 55.2457 23.6189C55.0174 23.6717 54.716 23.7376 54.5759 23.7657C54.4357 23.7939 54.2985 23.8534 54.2706 23.8983C54.2429 23.9433 54.1392 23.98 54.04 23.98C53.9409 23.98 53.7878 24.018 53.6997 24.0643C53.6116 24.1109 53.3734 24.2186 53.1705 24.3039C50.6164 25.3775 48.2902 27.4028 46.699 29.9387C46.3679 30.4662 45.9422 31.0858 44.9909 32.4257C44.7721 32.7337 44.1159 33.6602 43.5325 34.4847C42.9491 35.3092 42.2743 36.2608 42.0328 36.5993C41.7914 36.938 41.4919 37.3602 41.3674 37.5377C41.0693 37.9629 40.4294 38.8582 40.0331 39.4054L39.7156 39.8435H39.1338C38.4209 39.8435 38.414 39.8015 38.998 39.0134C39.2422 38.6837 39.8521 37.8329 40.3529 37.1227C40.8537 36.4125 41.7052 35.214 42.2447 34.4593C43.3319 32.9394 43.3033 33.0466 42.8468 32.1884C42.663 31.843 41.6812 30.3611 41.4264 30.0445C40.2083 28.5308 38.6236 27.0597 37.2609 26.178C36.1756 25.4757 35.3997 25.0743 33.8945 24.4363C33.6452 24.3307 32.8518 24.0673 32.511 23.977C31.4267 23.6897 31.1479 23.626 30.5742 23.5343C28.6554 23.2271 27.3614 23.1739 25.9627 23.3443ZM30.081 24.4418C31.7262 24.7577 31.5952 24.7263 32.5572 25.0332C36.4025 26.2589 40.1749 29.2898 41.8648 32.5112L42.0584 32.8801L35.7167 32.9336C29.0483 32.9899 29.0363 32.9908 27.8913 33.4443C22.3849 35.6263 21.8463 43.4091 27.0003 46.3203C27.2666 46.4709 27.4845 46.6348 27.4845 46.6848C27.4845 46.7349 25.603 48.6671 23.3035 50.9786L19.1223 55.1813L18.5306 54.7831C4.56798 45.3832 11.3093 23.9135 28.0981 24.3117C28.9175 24.3311 29.8099 24.3897 30.081 24.4418ZM60.5242 24.4496C65.4447 25.4457 69.732 29.6465 70.3377 34.0648L70.3944 34.4798L65.4716 34.5117L60.5489 34.5435L59.8562 34.8232C58.5588 35.347 58.2205 35.6498 52.5249 41.3809C49.532 44.3925 47.0315 46.8557 46.9681 46.8548C46.8768 46.8534 46.8528 45.3115 46.8528 39.4582V32.0634L47.2346 31.2728C49.6273 26.3196 55.3211 23.3964 60.5242 24.4496ZM80.2 25.181C81.0599 25.329 81.7285 25.5541 81.6974 25.6846C81.6557 25.8594 74.3257 33.2952 74.1954 33.2952C74.1336 33.2952 74.0363 33.1706 73.9796 33.0185C73.9227 32.8663 73.8254 32.6069 73.7631 32.4423C73.5551 31.8903 73.6215 29.9331 73.8717 29.2396C74.8754 26.4579 77.572 24.7284 80.2 25.181ZM85.2699 31.4275C84.9538 34.4997 82.467 36.8921 79.5897 36.8921C79.0649 36.8921 78.9658 37.0122 82.1537 33.7925C85.4223 30.4914 85.3617 30.5375 85.2699 31.4275ZM41.0423 49.5698V58.1891L40.2959 58.425C37.2454 59.3886 33.0921 59.576 29.1908 58.9258C27.9803 58.724 25.8318 58.2242 25.6291 58.0971C25.5339 58.0374 26.1709 57.3436 28.1391 55.3634C31.9803 51.4988 34.5671 48.849 34.6019 48.7436C34.6213 48.6851 33.9099 48.6346 32.6494 48.6053L30.6665 48.5592L30.6409 44.9622C30.6266 42.9839 30.6379 41.2719 30.6655 41.1577L30.716 40.9502H35.8793H41.0423V49.5698ZM68.7112 44.7778V48.6053H64.0608C58.9252 48.6053 58.699 48.6253 58.1078 49.1315C57.369 49.7637 57.3905 49.5963 57.2902 55.5225L57.2286 59.1656L52.1664 59.1893C48.4507 59.2069 47.0702 59.185 46.9761 59.107C46.8754 59.0233 46.8535 58.7123 46.8735 57.6415L46.8989 56.2823L54.4979 48.6161L62.097 40.9502H65.4041H68.7112V44.7778ZM82.4534 41.0171C82.4534 41.1402 74.1203 49.4261 74.0437 49.3789C73.9577 49.3256 73.9388 41.3189 74.0243 41.0962C74.0838 40.941 82.4534 40.8624 82.4534 41.0171ZM29.5532 42.1388C29.6024 42.2182 26.9644 44.9161 26.8375 44.9161C26.5115 44.9161 24.9475 42.8753 25.013 42.5354C25.081 42.1822 29.3496 41.8093 29.5532 42.1388ZM74.9305 56.0434L64.0536 66.986L64.0276 67.9871L64.0015 68.9881H70.5895H77.1774L81.4919 64.6551C83.865 62.2719 85.8401 60.2694 85.8809 60.205C85.9789 60.0508 85.9808 45.1006 85.8828 45.1006C85.8413 45.1006 80.9127 50.0247 74.9305 56.0434ZM84.9436 53.2906C84.9436 57.6007 84.9167 59.0173 84.833 59.101C84.6732 59.2608 74.2388 59.2608 74.079 59.101C73.6893 58.7114 73.6898 58.7107 79.064 53.3258C81.8666 50.5177 84.2842 48.084 84.4364 47.9173C84.9658 47.3374 84.9436 47.1022 84.9436 53.2906Z" fill="var(--fill-0, #07457C)"/>
<path id="Vector_2" fill-rule="evenodd" clip-rule="evenodd" d="M26.1472 24.3108C18.3881 24.8858 11.8763 31.311 11.0729 39.1847C10.4326 45.4588 13.1631 51.1699 18.5306 54.7833L19.1223 55.1815L23.3035 50.9788C25.603 48.6673 27.4845 46.7351 27.4845 46.685C27.4845 46.635 27.2666 46.471 27.0003 46.3205C21.8463 43.4092 22.3849 35.6264 27.8913 33.4445C29.0363 32.991 29.0483 32.9901 35.7167 32.9338L42.0584 32.8803L41.8648 32.5114C40.1749 29.29 36.4025 26.2591 32.5572 25.0334C31.7575 24.7784 31.5848 24.7318 31.0815 24.6345C30.8025 24.5808 30.3524 24.4941 30.081 24.442C29.5574 24.3412 26.9208 24.2534 26.1472 24.3108ZM56.9058 24.3444C52.738 24.8432 49.0721 27.4696 47.2346 31.273L46.8528 32.0636V39.4584C46.8528 45.3117 46.8768 46.8536 46.9681 46.855C47.0315 46.8559 49.532 44.3926 52.5249 41.3811C58.2205 35.65 58.5588 35.3472 59.8562 34.8234L60.5489 34.5437L65.4717 34.5118L70.3944 34.48L70.3377 34.065C69.5473 28.2983 63.0654 23.6075 56.9058 24.3444ZM82.5457 26.332C82.3216 26.5603 82.159 26.747 82.1844 26.747C82.2097 26.747 82.4138 26.5603 82.6379 26.332C82.862 26.1037 83.0246 25.917 82.9992 25.917C82.9739 25.917 82.7698 26.1037 82.5457 26.332ZM49.2911 26.7701L49.0202 27.0698L49.3199 26.7989C49.4848 26.65 49.6197 26.5151 49.6197 26.4992C49.6197 26.4279 49.5436 26.4906 49.2911 26.7701ZM40.2583 28.6839C40.4564 28.8868 40.6393 29.0528 40.6646 29.0528C40.69 29.0528 40.5486 28.8868 40.3506 28.6839C40.1525 28.4809 39.9697 28.3149 39.9443 28.3149C39.9189 28.3149 40.0603 28.4809 40.2583 28.6839ZM13.0944 29.6753L12.405 30.3901L13.1403 29.6984C13.5445 29.3179 13.8938 28.9963 13.9164 28.9836C13.939 28.9709 13.9185 28.9605 13.8707 28.9605C13.8228 28.9605 13.4734 29.2822 13.0944 29.6753ZM86.2681 30.9896C86.2681 31.4715 86.2838 31.6686 86.3027 31.4277C86.3216 31.1867 86.3216 30.7925 86.3027 30.5515C86.2838 30.3106 86.2681 30.5077 86.2681 30.9896ZM82.5448 37.6071L80.655 39.5208L82.5687 37.6311C83.6213 36.5916 84.4825 35.7304 84.4825 35.7173C84.4825 35.6516 84.3008 35.8289 82.5448 37.6071ZM75.9962 38.5294L74.5678 39.982L76.0204 38.5536C77.37 37.2264 77.5148 37.0768 77.4488 37.0768C77.4355 37.0768 76.7818 37.7304 75.9962 38.5294ZM69.9542 39.0366L69.2185 39.7975L69.9794 39.0618C70.3979 38.6573 70.7403 38.3149 70.7403 38.3009C70.7403 38.2338 70.6374 38.3299 69.9542 39.0366ZM73.4866 40.0034C73.7034 40.023 74.0354 40.0228 74.2245 40.003C74.4133 39.9831 74.2358 39.9672 73.83 39.9675C73.4242 39.9679 73.2697 39.9841 73.4866 40.0034ZM81.5542 40.0048C82.1503 40.0207 83.1256 40.0207 83.7216 40.0048C84.3176 39.9887 83.83 39.9755 82.6379 39.9755C81.4458 39.9755 80.9582 39.9887 81.5542 40.0048ZM71.3384 41.5268L70.1408 42.7489L71.3628 41.5513C72.035 40.8925 72.5849 40.3426 72.5849 40.3292C72.5849 40.2631 72.4509 40.3917 71.3384 41.5268ZM84.3384 40.6045L84.0675 40.9043L84.3672 40.6334C84.5321 40.4844 84.667 40.3495 84.667 40.3336C84.667 40.2624 84.5909 40.3251 84.3384 40.6045ZM30.6655 41.1579C30.6379 41.2721 30.6266 42.9841 30.6409 44.9624L30.6665 48.5594L32.6494 48.6055C33.9099 48.6348 34.6213 48.6852 34.6019 48.7438C34.5671 48.8492 31.9803 51.499 28.1391 55.3636C26.1709 57.3438 25.5339 58.0376 25.6291 58.0973C25.8318 58.2243 27.9803 58.7242 29.1908 58.926C33.0921 59.5762 37.2454 59.3887 40.2959 58.4252L41.0423 58.1893V49.57V40.9504H35.8793H30.716L30.6655 41.1579ZM54.4979 48.6163L46.8989 56.2824L46.8735 57.6417C46.8535 58.7125 46.8754 59.0235 46.9761 59.1072C47.0702 59.1851 48.4507 59.2071 52.1664 59.1895L57.2286 59.1658L57.2902 55.5227C57.4179 47.9735 56.7993 48.6055 64.0608 48.6055H68.7112V44.7779V40.9504H65.4041H62.097L54.4979 48.6163ZM74.0243 41.0964C73.9388 41.3191 73.9577 49.3258 74.0437 49.379C74.1203 49.4263 82.4535 41.1404 82.4535 41.0173C82.4535 40.8626 74.0838 40.9412 74.0243 41.0964ZM82.3612 42.5644C81.9833 42.9449 81.6949 43.2561 81.7202 43.2561C81.7456 43.2561 82.0755 42.9449 82.4535 42.5644C82.8314 42.184 83.1198 41.8727 83.0945 41.8727C83.0691 41.8727 82.7391 42.184 82.3612 42.5644ZM26.5853 42.1208C26.6741 42.1439 26.8193 42.1439 26.9081 42.1208C26.9969 42.0975 26.9242 42.0786 26.7467 42.0786C26.5691 42.0786 26.4965 42.0975 26.5853 42.1208ZM28.5452 42.112C28.9773 42.1814 29.5848 42.1902 29.5454 42.1263C29.5219 42.0883 29.2457 42.0629 28.9316 42.0696C28.6176 42.0765 28.4437 42.0957 28.5452 42.112ZM25.0559 42.3954C24.9724 42.4787 24.9777 42.7738 25.0635 42.8268C25.1015 42.8503 25.1327 42.7491 25.1327 42.6018C25.1327 42.4544 25.1292 42.3339 25.1251 42.3339C25.1207 42.3339 25.0896 42.3615 25.0559 42.3954ZM79.5014 45.4466L77.4269 47.5448L79.5252 45.4704C81.4749 43.543 81.6649 43.3484 81.5996 43.3484C81.5865 43.3484 80.6423 44.2926 79.5014 45.4466ZM5.93966 46.2536C5.93989 47.0145 5.95396 47.3136 5.97148 46.9181C5.98878 46.5227 5.98854 45.9001 5.97125 45.5347C5.95373 45.1692 5.93943 45.4927 5.93966 46.2536ZM82.681 48.1674L82.1307 48.7438L82.7071 48.1934C83.0241 47.8905 83.2835 47.6311 83.2835 47.617C83.2835 47.5488 83.1924 47.632 82.681 48.1674ZM84.4364 47.9174C84.2842 48.0841 81.8666 50.5179 79.064 53.326C73.6898 58.7109 73.6893 58.7115 74.079 59.1012C74.2388 59.261 84.6732 59.261 84.833 59.1012C84.9976 58.9366 84.993 47.5859 84.8284 47.6027C84.765 47.6092 84.5886 47.7507 84.4364 47.9174ZM6.10867 49.1588C6.10867 49.3364 6.12758 49.409 6.15087 49.3203C6.17393 49.2315 6.17393 49.0862 6.15087 48.9974C6.12758 48.9087 6.10867 48.9813 6.10867 49.1588ZM63.2664 55.8686L62.7624 56.3989L63.2927 55.8949C63.7855 55.4263 63.8652 55.3382 63.7968 55.3382C63.7825 55.3382 63.5438 55.5769 63.2664 55.8686ZM63.9563 58.2435C63.9563 59.816 63.9688 60.4722 63.9842 59.7019C63.9997 58.9315 63.9997 57.6449 63.9842 56.8427C63.969 56.0406 63.9563 56.671 63.9563 58.2435ZM73.2296 57.7132L71.5242 59.4425L73.2535 57.7371C74.8602 56.1526 75.0246 55.9839 74.9589 55.9839C74.9457 55.9839 74.1675 56.762 73.2296 57.7132ZM62.0188 57.0214L61.7479 57.3212L62.0476 57.0503C62.3271 56.7978 62.3898 56.7217 62.3185 56.7217C62.3026 56.7217 62.1678 56.8566 62.0188 57.0214ZM66.2199 58.8199L64.7915 60.2725L66.2441 58.8441C67.5936 57.5169 67.7384 57.3673 67.6725 57.3673C67.6591 57.3673 67.0054 58.021 66.2199 58.8199ZM59.5318 59.4194L58.8888 60.0881L59.5574 59.445C60.1786 58.8476 60.2683 58.7507 60.2005 58.7507C60.1864 58.7507 59.8855 59.0516 59.5318 59.4194ZM19.5062 62.3708L16.6475 65.2529L19.5297 62.3943C22.2083 59.7378 22.4534 59.4886 22.3884 59.4886C22.3752 59.4886 21.0783 60.7856 19.5062 62.3708ZM83.2842 62.855L80.6566 65.5296L83.3264 62.8817C84.7949 61.4254 85.9773 60.2218 85.9543 60.2071C85.931 60.1923 84.7297 61.3839 83.2842 62.855ZM58.192 60.6645L57.8742 61.0104L58.2201 60.6926C58.4103 60.5176 58.5659 60.362 58.5659 60.3468C58.5659 60.2762 58.488 60.3426 58.192 60.6645ZM40.5175 61.2871C40.518 61.5914 40.5353 61.7049 40.5558 61.5391C40.5763 61.3733 40.5758 61.1243 40.5549 60.9857C40.5339 60.8471 40.5171 60.9827 40.5175 61.2871ZM12.2627 62.0941C12.4889 62.335 12.686 62.5322 12.7008 62.5322C12.7702 62.5322 12.6969 62.4494 12.2897 62.0671L11.8516 61.656L12.2627 62.0941ZM17.1536 63.2469L15.7252 64.6996L17.1779 63.2712C17.9768 62.4856 18.6305 61.8319 18.6305 61.8185C18.6305 61.7526 18.4808 61.8974 17.1536 63.2469ZM39.6561 62.6936L39.0594 63.3161L39.6819 62.7194C40.0243 62.391 40.3045 62.1109 40.3045 62.0968C40.3045 62.0288 40.2106 62.1153 39.6561 62.6936ZM55.7504 63.0164L55.1073 63.685L55.776 63.042C56.3972 62.4445 56.4869 62.3477 56.4191 62.3477C56.405 62.3477 56.1041 62.6486 55.7504 63.0164ZM54.3651 64.3076L54.0006 64.6996L54.3926 64.335C54.6081 64.1344 54.7845 63.958 54.7845 63.943C54.7845 63.8732 54.7043 63.943 54.3651 64.3076ZM34.3081 66.7517L33.0644 68.0198L34.3326 66.7761C35.0301 66.092 35.6007 65.5213 35.6007 65.508C35.6007 65.4418 35.4638 65.5737 34.3081 66.7517ZM36.191 67.5587C36.1912 68.3196 36.2053 68.6186 36.2228 68.2232C36.2401 67.8278 36.2399 67.2052 36.2226 66.8397C36.2051 66.4743 36.1908 66.7978 36.191 67.5587ZM51.7836 66.7978L51.3259 67.282L51.8101 66.8243C52.26 66.3991 52.3365 66.3136 52.2678 66.3136C52.2533 66.3136 52.0354 66.5315 51.7836 66.7978ZM78.9914 67.1667L78.5337 67.6509L79.0179 67.1932C79.4677 66.768 79.5443 66.6825 79.4756 66.6825C79.4611 66.6825 79.2432 66.9004 78.9914 67.1667ZM63.9494 67.9737C63.9494 68.5063 63.9646 68.7242 63.9833 68.4579C64.002 68.1916 64.002 67.7558 63.9833 67.4895C63.9646 67.2232 63.9494 67.4411 63.9494 67.9737ZM50.4901 67.9968L50.2192 68.2965L50.5189 68.0256C50.6838 67.8766 50.8186 67.7418 50.8186 67.7259C50.8186 67.6546 50.7426 67.7173 50.4901 67.9968ZM28.5682 68.961C28.6824 68.9832 28.8691 68.9832 28.9833 68.961C29.0974 68.9391 29.004 68.9211 28.7757 68.9211C28.5475 68.9211 28.4541 68.9391 28.5682 68.961Z" fill="var(--fill-0, #6BB3C4)"/>
<g id="Vector_3">
</g>
<path id="Vector_4" fill-rule="evenodd" clip-rule="evenodd" d="M77.8881 25.3519C74.8775 26.2724 72.9012 29.6664 73.7728 32.4192C73.9766 33.063 74.0806 33.2954 74.1645 33.2954C74.2796 33.2954 81.6633 25.8396 81.6976 25.6888C81.7899 25.2846 78.9344 25.0321 77.8881 25.3519ZM82.2291 33.7213C78.8335 37.1555 78.9967 36.9387 79.8715 36.8525C82.047 36.6383 83.7456 35.4612 84.7106 33.4999C85.1491 32.6081 85.4477 30.9053 85.1742 30.8536C85.1235 30.844 83.7982 32.1345 82.2291 33.7213Z" fill="var(--fill-0, #D1A91F)"/>
<path id="Vector_5" fill-rule="evenodd" clip-rule="evenodd" d="M26.9584 23.2187C27.3539 23.236 27.9764 23.2358 28.3419 23.2185C28.7073 23.201 28.3838 23.1867 27.6229 23.1869C26.8621 23.1871 26.563 23.2012 26.9584 23.2187ZM57.6668 23.2185C58.0092 23.2362 58.5695 23.2362 58.9119 23.2185C59.2543 23.2007 58.9741 23.1862 58.2893 23.1862C57.6045 23.1862 57.3244 23.2007 57.6668 23.2185ZM24.483 23.4244C23.4037 23.6183 22.3972 23.8904 21.3234 24.278C20.2596 24.6621 20.4246 24.6889 21.5413 24.3135C22.8816 23.8629 23.6195 23.6686 24.5333 23.5254C26.1627 23.2699 26.1772 23.2669 25.7784 23.2623C25.5754 23.2598 24.9926 23.3329 24.483 23.4244ZM29.6059 23.3446C30.9838 23.5634 31.3373 23.6259 31.6349 23.7025C32.3237 23.88 33.8201 24.3656 34.1713 24.5258C34.3742 24.6183 34.6439 24.7195 34.7708 24.7511C35.1846 24.8537 34.0066 24.3336 33.2081 24.061C31.9448 23.6298 30.0444 23.2282 29.3864 23.2533C29.1943 23.2605 29.2674 23.2909 29.6059 23.3446ZM56.0297 23.3345C55.7664 23.4013 55.771 23.405 56.1219 23.4066C56.3248 23.4076 56.5946 23.3751 56.7214 23.3345C57.0401 23.2323 56.4309 23.2323 56.0297 23.3345ZM60.1339 23.3423C61.308 23.5512 62.1127 23.7394 62.4858 23.8922C62.5872 23.934 62.8363 24.0223 63.0392 24.0887C63.4717 24.2305 64.8346 24.8945 65.2988 25.1897C65.5699 25.3621 65.5921 25.3663 65.4371 25.2148C64.7055 24.4993 61.7816 23.4251 60.2262 23.3001L59.6267 23.2519L60.1339 23.3423ZM54.7846 23.6052C54.0242 23.8178 53.6626 23.9662 53.8865 23.9743C53.976 23.9775 54.1212 23.9427 54.2093 23.8968C54.2974 23.851 54.5356 23.7709 54.7385 23.7188C55.5469 23.5116 55.7449 23.4454 55.5686 23.4417C55.4671 23.4396 55.1143 23.5132 54.7846 23.6052ZM53.1245 24.1717C52.2882 24.5498 51.7362 24.8355 51.6861 24.9164C51.6377 24.9948 51.8639 24.8948 53.1706 24.2598C53.797 23.9554 53.7599 23.8844 53.1245 24.1717ZM77.7959 24.2116C77.2216 24.3596 76.715 24.5438 76.7597 24.5886C76.7784 24.6072 76.9361 24.5791 77.1102 24.5263C78.1164 24.2203 78.4812 24.1645 79.477 24.1645C80.0671 24.1645 80.6772 24.2026 80.833 24.2489C81.9177 24.5727 82.4358 24.753 82.623 24.8722C82.7415 24.9476 82.8619 24.9858 82.8907 24.957C82.9679 24.8798 81.9875 24.4661 81.2282 24.2556C80.4487 24.0396 78.5573 24.0154 77.7959 24.2116ZM19.8526 24.8643C19.5863 24.9895 19.3684 25.1122 19.3684 25.1366C19.3684 25.1894 19.8653 24.9882 20.251 24.7793C20.6727 24.551 20.3912 24.6112 19.8526 24.8643ZM35.4671 25.0718C35.6052 25.1936 36.6153 25.7389 36.6153 25.6916C36.6153 25.6407 35.5247 24.9946 35.4392 24.9946C35.4062 24.9946 35.4189 25.0294 35.4671 25.0718ZM51.0032 25.293C49.5171 26.3319 47.314 28.4975 47.314 28.9194C47.314 28.9573 47.4438 28.8055 47.6022 28.5823C48.0802 27.91 49.895 26.1807 50.6813 25.649C51.5174 25.0834 51.6322 24.9928 51.5058 24.9988C51.4576 25.0011 51.2314 25.1334 51.0032 25.293ZM75.3979 25.3299C75.1443 25.5118 73.9165 26.6937 72.6696 27.9561C71.4226 29.2187 70.3331 30.2517 70.2485 30.2517C70.1639 30.2517 70.0947 30.2932 70.0947 30.3439C70.0947 30.61 70.5354 30.2238 72.8596 27.9213C74.2557 26.5381 75.5225 25.316 75.6746 25.2056C75.8268 25.0951 75.9306 25.0036 75.9052 25.002C75.8798 25.0004 75.6516 25.1479 75.3979 25.3299ZM83.1646 25.1597C83.2767 25.2593 83.3804 25.382 83.3952 25.432C83.4099 25.482 80.2352 28.726 76.3401 32.6409C72.445 36.5556 69.2829 39.7984 69.3131 39.8473C69.3431 39.8959 69.4484 39.9358 69.5469 39.9358C69.7168 39.9358 69.7258 40.0128 69.7258 41.4576C69.7258 42.2946 69.7574 42.9794 69.7961 42.9794C69.8346 42.9794 70.5506 42.2842 71.3871 41.4346L72.9077 39.8897L71.4309 41.3423C70.6188 42.1413 69.9237 42.7949 69.8861 42.7949C69.8487 42.7949 69.818 42.1309 69.818 41.3193C69.818 39.8853 69.8125 39.8436 69.626 39.8436C69.323 39.8436 69.1459 40.0299 76.5047 32.6063C84.3878 24.6538 83.6661 25.4468 83.2651 25.1805C83.0219 25.0193 83.0018 25.0151 83.1646 25.1597ZM79.1563 25.153C79.2958 25.174 79.5241 25.174 79.6636 25.153C79.8031 25.1318 79.6889 25.1145 79.4099 25.1145C79.1309 25.1145 79.0168 25.1318 79.1563 25.153ZM18.7689 25.399C18.0405 25.7947 17.9697 25.8404 18.0145 25.8849C18.0394 25.9098 18.2289 25.8235 18.4355 25.693C18.6423 25.5625 18.8434 25.4544 18.8823 25.4528C18.9213 25.4511 19.0338 25.3889 19.1323 25.3144C19.3884 25.1207 19.2003 25.1645 18.7689 25.399ZM65.8886 25.5761C66.923 26.3605 67.8688 27.2215 68.4364 27.8959C69.0401 28.6125 69.2981 28.8696 69.1125 28.569C68.6728 27.8576 65.9871 25.3462 65.6898 25.3686C65.6523 25.3714 65.7417 25.4647 65.8886 25.5761ZM36.7583 25.8095C36.8491 25.8892 37.9469 26.6476 38.1745 26.7878C38.5826 27.0393 38.0878 26.6119 37.5024 26.2072C36.9093 25.7972 36.4876 25.5717 36.7583 25.8095ZM16.7949 26.5674C16.2674 26.9197 15.444 27.5298 14.9651 27.9229C14.4862 28.316 14.0285 28.6891 13.948 28.752C13.8678 28.815 13.8231 28.8874 13.8489 28.9132C13.8747 28.939 14.1415 28.741 14.4417 28.4728C15.2789 27.7253 16.5999 26.7537 17.4546 26.2563C17.8667 26.0165 17.9833 25.9107 17.8235 25.9215C17.7855 25.9243 17.3227 26.2148 16.7949 26.5674ZM38.8683 27.3225C39.1256 27.5627 39.3675 27.7599 39.4055 27.7606C39.4438 27.761 39.2985 27.6077 39.0827 27.4196C38.4802 26.8945 38.344 26.8327 38.8683 27.3225ZM39.7064 28.0382C39.8639 28.2549 40.3968 28.7378 40.3968 28.664C40.3968 28.6453 40.2038 28.4449 39.9677 28.2187C39.7318 27.9925 39.6142 27.9114 39.7064 28.0382ZM85.6816 28.6808C85.6816 28.7301 85.7387 28.7484 85.8086 28.7216C85.89 28.6903 85.9615 28.7657 86.0078 28.9319C86.0629 29.13 86.0892 29.1519 86.119 29.0253C86.1404 28.934 86.1079 28.7991 86.0468 28.7255C85.9214 28.5743 85.6816 28.545 85.6816 28.6808ZM69.4318 29.168C69.5792 29.3836 69.771 29.6988 69.8579 29.8683C69.9449 30.038 70.0378 30.1551 70.0641 30.1286C70.1166 30.076 69.3013 28.776 69.216 28.776C69.1872 28.776 69.2843 28.9524 69.4318 29.168ZM85.3265 29.025C85.2073 29.1484 85.1275 29.2672 85.1494 29.2891C85.1711 29.3107 85.2861 29.2252 85.4049 29.0988C85.5236 28.9725 85.6034 28.8537 85.582 28.8348C85.5607 28.8161 85.4457 28.9017 85.3265 29.025ZM40.6734 29.0126C40.6734 29.0449 40.928 29.388 41.2393 29.7746C41.9428 30.6492 42.5967 31.6312 42.9322 32.3167C43.073 32.6047 43.2063 32.8221 43.2282 32.8002C43.3375 32.6909 42.2725 30.9365 41.5132 29.975C40.9896 29.3119 40.6734 28.9494 40.6734 29.0126ZM46.3145 30.2879C45.8406 31.0034 45.3045 31.7966 45.1226 32.0502C44.9409 32.3038 44.8651 32.444 44.9543 32.3619C45.1316 32.198 45.688 31.4193 46.3956 30.3439C46.646 29.9635 46.8872 29.6082 46.9317 29.5542C47.0569 29.402 47.2402 29.0398 47.2061 29.0117C47.1895 28.9978 46.7881 29.5722 46.3145 30.2879ZM86.16 29.4216C86.1625 29.5485 86.1962 29.7767 86.2349 29.9289L86.3053 30.2056L86.3099 29.8828C86.3122 29.7052 86.2785 29.477 86.2349 29.3755C86.163 29.2081 86.1561 29.2125 86.16 29.4216ZM84.7131 29.6451C84.2218 30.1581 84.1582 30.311 84.6225 29.863C84.8704 29.6239 85.0544 29.412 85.0316 29.3921C85.0085 29.3723 84.8653 29.4862 84.7131 29.6451ZM76.8243 30.6898L76.3202 31.2201L76.8506 30.7161C77.3433 30.2476 77.4231 30.1595 77.3546 30.1595C77.3403 30.1595 77.1017 30.3981 76.8243 30.6898ZM12.1964 30.5185C11.3548 31.4887 10.1784 33.0186 10.2738 33.0186C10.3008 33.0186 10.6139 32.6347 10.9699 32.1655C11.326 31.6963 11.8109 31.0935 12.0477 30.8263C12.2845 30.5591 12.4618 30.3262 12.4417 30.3091C12.4214 30.2918 12.3112 30.3861 12.1964 30.5185ZM83.8199 30.5487C83.6836 30.6896 83.6036 30.8051 83.6424 30.8051C83.7298 30.8051 84.1595 30.3543 84.1063 30.3183C84.0851 30.3038 83.9559 30.4076 83.8199 30.5487ZM86.3567 30.9895C86.3567 31.3193 86.3735 31.4541 86.3938 31.2893C86.4143 31.1244 86.4143 30.8547 86.3938 30.6898C86.3735 30.5249 86.3567 30.6598 86.3567 30.9895ZM83.0279 31.319C82.8111 31.5436 82.6675 31.7274 82.7088 31.7274C82.7503 31.7274 82.9672 31.5406 83.1914 31.3123C83.4155 31.0841 83.5589 30.9003 83.5102 30.904C83.4616 30.9077 83.2446 31.0945 83.0279 31.319ZM81.9147 32.4329C81.593 32.7627 81.3463 33.0488 81.3664 33.0691C81.3867 33.0892 81.6901 32.8162 82.041 32.4627C82.392 32.109 82.6387 31.8228 82.5893 31.8265C82.54 31.8304 82.2363 32.1034 81.9147 32.4329ZM86.1997 32.2201C86.1607 32.4657 86.1501 32.6877 86.1759 32.7138C86.2432 32.7809 86.3514 32.1479 86.3073 31.9441C86.2873 31.8503 86.2386 31.9743 86.1997 32.2201ZM86.0044 33.0186C85.9698 33.1277 85.9622 33.2376 85.9875 33.263C86.0129 33.2884 86.062 33.2199 86.0966 33.1108C86.1312 33.0018 86.1388 32.8918 86.1134 32.8664C86.0881 32.8411 86.0389 32.9095 86.0044 33.0186ZM44.1016 33.4447C43.9833 33.6273 43.9296 33.75 43.982 33.7175C44.1279 33.6275 44.4777 33.1106 44.3919 33.112C44.3504 33.1127 44.2199 33.2623 44.1016 33.4447ZM80.9857 33.4228L80.7632 33.7103L81.027 33.4595C81.1722 33.3216 81.2723 33.1922 81.2497 33.1719C81.2269 33.1516 81.1081 33.2646 80.9857 33.4228ZM42.5697 34.0562C42.3435 34.3732 42.0629 34.7703 41.9462 34.9388C41.8295 35.1071 41.6356 35.3681 41.515 35.5189C41.3947 35.67 41.3149 35.812 41.338 35.8351C41.3608 35.8581 41.6236 35.5346 41.9218 35.1164C42.2199 34.6981 42.6045 34.1588 42.7763 33.9178C42.9481 33.6769 43.0645 33.4797 43.035 33.4797C43.0055 33.4797 42.7961 33.7391 42.5697 34.0562ZM85.6514 33.9782C85.2428 34.8706 84.8651 35.3206 82.6202 37.5909C81.4125 38.8122 80.4245 39.8394 80.4245 39.8736C80.4245 39.9079 81.3973 39.9358 82.5863 39.9358C84.0408 39.9358 84.7687 39.9686 84.8102 40.0359C84.8455 40.0931 81.6135 43.403 77.2679 47.7601C68.0927 56.9598 63.9432 61.1519 64.0147 61.15C64.1148 61.1475 84.9898 40.1002 85.0196 39.9718C85.0445 39.865 84.6765 39.8436 82.8215 39.8436C81.4355 39.8436 80.6052 39.8102 80.6244 39.7548C80.6412 39.7062 81.6133 38.6997 82.7844 37.5183C83.9555 36.337 85.0394 35.1837 85.193 34.9554C85.5437 34.4341 85.9845 33.5676 85.9278 33.5109C85.9043 33.4871 85.7798 33.6976 85.6514 33.9782ZM9.6061 33.9005C9.54454 34.0357 9.53808 34.1127 9.59088 34.0799C9.72623 33.9962 9.88901 33.6642 9.79448 33.6642C9.75021 33.6642 9.66536 33.7705 9.6061 33.9005ZM80.24 34.1715C80.0159 34.3997 79.8533 34.5865 79.8787 34.5865C79.9041 34.5865 80.1081 34.3997 80.3322 34.1715C80.5564 33.9432 80.7189 33.7564 80.6935 33.7564C80.6682 33.7564 80.4641 33.9432 80.24 34.1715ZM43.299 34.6096C42.2354 36.1018 42.109 36.2914 42.2559 36.1749C42.3377 36.1101 42.5955 35.7781 42.8291 35.4371C43.0624 35.0961 43.37 34.6511 43.5125 34.4482C43.8418 33.9794 43.9211 33.8487 43.8771 33.8487C43.8575 33.8487 43.5974 34.1911 43.299 34.6096ZM9.20559 34.5634C8.60033 35.4883 7.11428 38.6877 7.23441 38.8079C7.26047 38.8341 7.3075 38.777 7.33863 38.6808C7.36976 38.5849 7.42879 38.4233 7.46983 38.3218C7.51087 38.2204 7.59849 37.9921 7.66466 37.8145C7.82261 37.3901 8.85766 35.3177 9.2192 34.7018C9.54753 34.1426 9.53877 34.0546 9.20559 34.5634ZM79.474 34.9123C79.3315 35.0375 79.2518 35.1399 79.2965 35.1399C79.3412 35.1399 79.4752 35.0361 79.5944 34.9093C79.8699 34.616 79.8091 34.6174 79.474 34.9123ZM76.8768 37.5346L74.5757 39.8371L73.7417 39.8673L72.9077 39.8975L73.7385 39.9167L74.5693 39.9358L76.9197 37.584C78.2126 36.2904 79.2495 35.2321 79.2241 35.2321C79.1987 35.2321 78.1425 36.2683 76.8768 37.5346ZM41.0721 36.1775C40.8286 36.4479 40.7034 36.6649 40.8395 36.581C40.9501 36.5125 41.355 35.9699 41.2953 35.9699C41.2752 35.9699 41.1749 36.0633 41.0721 36.1775ZM41.5953 37.0075C41.3387 37.3753 41.068 37.7493 40.9933 37.8387C40.9188 37.928 40.8579 38.0239 40.8579 38.0516C40.8579 38.1825 41.0728 37.9372 41.4768 37.3453C41.7198 36.9891 41.9755 36.6169 42.0451 36.5183C42.1148 36.4196 42.1468 36.3389 42.1166 36.3389C42.0864 36.3389 41.8519 36.6398 41.5953 37.0075ZM40.5346 36.8927C40.4424 36.9946 40.3889 37.0995 40.4157 37.1263C40.4422 37.1528 40.5328 37.0696 40.617 36.9411C40.8007 36.6607 40.7641 36.6391 40.5346 36.8927ZM40.1994 37.4226C39.9015 37.7823 39.8247 37.9068 39.9013 37.9056C39.9455 37.9049 40.0756 37.7597 40.1902 37.5828C40.4134 37.2383 40.418 37.1588 40.1994 37.4226ZM40.658 38.3449C40.5831 38.4336 40.3255 38.7864 40.0857 39.1288L39.6497 39.7514H39.1358C38.5559 39.7514 38.5515 39.8298 39.1805 38.9699C39.3486 38.7403 39.4632 38.5524 39.435 38.5524C39.3354 38.5524 38.5595 39.6886 38.607 39.7654C38.6834 39.8888 39.6398 39.8579 39.7488 39.7283C39.875 39.5787 40.7124 38.4364 40.801 38.2934C40.9026 38.1288 40.8132 38.1609 40.658 38.3449ZM7.05572 39.1058C7.02113 39.2148 7.01352 39.3248 7.03889 39.3502C7.06425 39.3755 7.11336 39.307 7.14795 39.198C7.18253 39.0889 7.19014 38.9789 7.16478 38.9536C7.13942 38.9282 7.0903 38.9967 7.05572 39.1058ZM6.87126 39.6591C6.83667 39.7682 6.82906 39.8782 6.85443 39.9035C6.87979 39.9289 6.9289 39.8604 6.96349 39.7514C6.99807 39.6423 7.00568 39.5323 6.98032 39.507C6.95496 39.4816 6.90584 39.5501 6.87126 39.6591ZM6.69349 40.2653C6.65936 40.4004 6.65244 40.5316 6.67781 40.557C6.70317 40.5824 6.75159 40.4927 6.78572 40.3575C6.81961 40.2222 6.82653 40.091 6.80116 40.0656C6.7758 40.0403 6.72738 40.13 6.69349 40.2653ZM6.50234 40.9504C6.46729 41.1097 6.45945 41.2609 6.48482 41.2863C6.51018 41.3117 6.55952 41.2019 6.59457 41.0426C6.62962 40.8833 6.63746 40.732 6.61209 40.7066C6.58673 40.6813 6.53739 40.791 6.50234 40.9504ZM6.31281 41.7292C6.27799 41.9144 6.27038 42.0864 6.29574 42.1118C6.32111 42.1371 6.37022 42.0066 6.40504 41.8215C6.43962 41.6363 6.44746 41.4641 6.4221 41.4387C6.39674 41.4133 6.34739 41.5441 6.31281 41.7292ZM26.6545 42.1182C26.0876 42.1576 25.245 42.3437 25.1327 42.4544C25.0716 42.5146 25.0873 42.5291 25.1789 42.4975C25.5805 42.3585 26.4479 42.2254 27.3924 42.1583C28.2169 42.0998 28.299 42.0839 27.7613 42.0862C27.3808 42.088 26.8828 42.1023 26.6545 42.1182ZM28.6605 42.2144C28.7747 42.2365 28.9614 42.2365 29.0756 42.2144C29.1897 42.1925 29.0963 42.1745 28.868 42.1745C28.6398 42.1745 28.5464 42.1925 28.6605 42.2144ZM29.3292 42.2556C29.3292 42.4385 26.9169 44.7461 26.7804 44.6937C26.7113 44.667 26.6545 44.6854 26.6545 44.7348C26.6545 45.0267 27.1267 44.6769 28.2466 43.5547C29.4696 42.3294 29.6202 42.1493 29.4214 42.1493C29.3707 42.1493 29.3292 42.1971 29.3292 42.2556ZM6.12927 42.7447C6.09399 42.9799 6.08592 43.1931 6.11128 43.2185C6.13665 43.2439 6.18622 43.0721 6.2215 42.8369C6.25678 42.6015 6.26485 42.3884 6.23948 42.3631C6.21412 42.3377 6.16455 42.5093 6.12927 42.7447ZM25.4138 43.3213C25.5067 43.4839 25.8049 43.8574 26.076 44.1514C26.3472 44.4452 26.5162 44.5923 26.4514 44.4781C26.3864 44.364 26.3071 44.2706 26.2745 44.2706C26.2423 44.2706 26.0366 44.032 25.8175 43.7403C25.3066 43.0601 25.2035 42.9531 25.4138 43.3213ZM5.96879 43.7634C5.93351 43.9663 5.90976 44.319 5.91553 44.5473C5.92452 44.9001 5.93858 44.8657 6.00891 44.3167C6.10045 43.6031 6.06978 43.1802 5.96879 43.7634ZM85.745 44.9757C85.7102 45.0108 85.6822 45.0841 85.6829 45.1392C85.6836 45.1941 85.7231 45.1779 85.7703 45.1032C85.9446 44.8275 85.9589 45.3423 85.9822 52.7558L86.006 60.2725L86.0053 52.625C86.0044 45.2303 85.9875 44.7334 85.745 44.9757ZM84.5271 46.2247C83.97 46.7922 83.5829 47.2054 83.6668 47.1429C83.8439 47.0112 85.2979 45.5754 85.4853 45.3472C85.8021 44.9612 85.4593 45.2752 84.5271 46.2247ZM5.8369 46.0691C5.83759 46.3227 5.85558 46.4157 5.87679 46.2755C5.898 46.135 5.89754 45.9275 5.87564 45.8143C5.85373 45.7009 5.83621 45.8155 5.8369 46.0691ZM5.92106 48.0059C5.91691 48.2596 5.94781 48.6331 5.98977 48.836L6.06609 49.2049L6.06748 48.8821C6.0684 48.7046 6.0375 48.331 5.999 48.052L5.9289 47.5448L5.92106 48.0059ZM81.0196 49.723C80.8192 49.9319 80.738 50.0514 80.8395 49.9884C81.0115 49.8816 81.4948 49.3433 81.4187 49.3433C81.3998 49.3433 81.2202 49.5141 81.0196 49.723ZM6.10737 49.6661C6.10644 49.8182 6.13895 50.0465 6.17953 50.1733L6.25332 50.4039L6.25171 50.1733C6.25078 50.0465 6.21827 49.8182 6.17953 49.6661L6.10921 49.3894L6.10737 49.6661ZM6.28468 50.8189C6.28468 50.9457 6.32042 51.1325 6.36399 51.234C6.43616 51.4021 6.44331 51.3981 6.44331 51.1879C6.44331 51.061 6.40757 50.8743 6.36399 50.7728C6.29182 50.6047 6.28468 50.6086 6.28468 50.8189ZM6.45899 51.6951C6.45899 51.7966 6.49934 51.9418 6.54845 52.0179C6.62247 52.1325 6.63792 52.1244 6.63792 51.9718C6.63792 51.8704 6.59757 51.7251 6.54845 51.649C6.47444 51.5344 6.45899 51.5425 6.45899 51.6951ZM6.64852 52.3868C6.65129 52.4629 6.68934 52.6082 6.73291 52.7096L6.81223 52.8941L6.8173 52.7096C6.82007 52.6082 6.78203 52.4629 6.73291 52.3868C6.65337 52.2639 6.64414 52.2639 6.64852 52.3868ZM78.1326 52.6359C78.0133 52.7592 77.9336 52.878 77.9555 52.8999C77.9772 52.9215 78.0922 52.836 78.211 52.7096C78.3297 52.5833 78.4095 52.4645 78.388 52.4456C78.3668 52.427 78.2518 52.5125 78.1326 52.6359ZM6.82514 53.0152C6.82514 53.3204 7.55445 55.1634 7.56021 54.8724C7.56183 54.7938 7.52839 54.69 7.48597 54.6419C7.44354 54.5937 7.29344 54.1911 7.15233 53.7472C6.91991 53.0165 6.82514 52.8046 6.82514 53.0152ZM76.294 54.4961C75.468 55.3398 72.3371 58.4883 69.3368 61.4929C66.3364 64.4975 63.9031 66.9776 63.9296 67.0041C63.9774 67.0521 77.7678 53.1766 77.8266 53.0214C77.8803 52.8796 77.8247 52.9333 76.294 54.4961ZM26.4821 53.6089C26.2739 54.1602 26.0756 54.3755 21.9172 58.5625C19.5261 60.97 17.6114 62.9066 17.6621 62.8657C18.0161 62.5821 26.3778 54.2208 26.3778 54.1507C26.3778 54.1021 26.4708 53.8616 26.5844 53.6165L26.791 53.1708L26.8436 54.047L26.8959 54.9232L26.9135 53.9778C26.9347 52.8459 26.8102 52.7396 26.4821 53.6089ZM25.5173 56.2819C24.8159 56.9891 24.2575 57.5835 24.2769 57.6027C24.296 57.6218 24.8886 57.0594 25.5939 56.3527C26.2992 55.646 26.8574 55.0518 26.8346 55.032C26.8116 55.0122 26.219 55.5748 25.5173 56.2819ZM7.61486 55.246C7.7094 55.593 8.91714 57.9331 9.13803 58.1973C9.2743 58.3603 9.25886 58.3064 9.085 58.0129C8.94966 57.7846 8.54961 57.0168 8.19545 56.3066C7.84151 55.5964 7.58027 55.1191 7.61486 55.246ZM61.0887 57.9898C60.175 58.8902 59.7422 59.3343 60.1265 58.9769C60.5111 58.6193 61.1992 57.9686 61.6557 57.5307C62.1122 57.0929 62.5856 56.6488 62.7074 56.5436C62.8293 56.4387 62.8888 56.3527 62.8395 56.3527C62.7904 56.3527 62.0025 57.0894 61.0887 57.9898ZM23.5655 58.2042C23.2623 58.5049 23.0456 58.7507 23.0841 58.7507C23.1777 58.7507 24.1998 57.741 24.1533 57.6944C24.1332 57.6744 23.8687 57.9038 23.5655 58.2042ZM9.44977 58.7276C9.52632 58.8671 9.69787 59.1058 9.83114 59.258C10.1032 59.5685 10.049 59.4456 9.65844 58.866C9.361 58.4242 9.2388 58.3433 9.44977 58.7276ZM10.2238 59.8381C10.3375 59.9979 10.4784 60.1581 10.5367 60.1941C10.595 60.2303 10.5498 60.1288 10.4359 59.969C10.3223 59.8093 10.1814 59.649 10.123 59.613C10.0647 59.5768 10.1099 59.6783 10.2238 59.8381ZM57.3511 61.5427C56.5118 62.3659 56.1201 62.7712 56.4807 62.4436C57.5824 61.4424 58.9469 60.1152 58.9112 60.0797C58.8925 60.061 58.1906 60.7193 57.3511 61.5427ZM10.9868 60.7779C11.2088 61.056 11.6603 61.5563 11.99 61.8897C12.3197 62.2234 12.4396 62.3278 12.2563 62.1221C12.0732 61.9165 11.8035 61.6045 11.6568 61.4288C11.5104 61.2531 11.2088 60.9211 10.9868 60.691L10.583 60.2725L10.9868 60.7779ZM84.3433 61.9096L82.7763 63.5005L84.3673 61.9335C85.8453 60.4779 86 60.3186 85.9343 60.3186C85.9209 60.3186 85.205 61.0345 84.3433 61.9096ZM36.245 64.8438L32.1392 69.0066L30.0656 68.9538C27.3393 68.8847 26.263 68.7629 23.8876 68.255C23.263 68.1212 23.1231 68.1602 23.7032 68.3062C25.7659 68.8256 27.9905 69.0806 30.4553 69.08L32.1422 69.0795L32.4189 68.8148C32.5711 68.6691 34.412 66.8224 36.5097 64.711C38.6075 62.5994 40.3403 60.872 40.3603 60.872C40.3804 60.872 40.3968 61.0873 40.3968 61.3504V61.8291L38.7136 63.5321C37.7878 64.4687 36.8113 65.459 36.5439 65.7327L36.0571 66.2301L36.0827 67.6322L36.1081 69.0343L42.8408 69.0555L49.5736 69.077L50.4729 68.1962C51.6536 67.0398 51.6255 66.9824 50.4267 68.1021L49.4814 68.985L42.8408 68.9635L36.2003 68.9421L36.1798 67.6047L36.1595 66.2674L38.3241 64.0541L40.489 61.8406V61.2642C40.489 60.9469 40.4579 60.6861 40.4198 60.6843C40.3818 60.6824 38.5031 62.5542 36.245 64.8438ZM19.5067 62.2554C18.7472 63.0163 18.1463 63.6389 18.1717 63.6389C18.1971 63.6389 18.8394 63.0163 19.599 62.2554C20.3585 61.4945 20.9593 60.872 20.934 60.872C20.9086 60.872 20.2662 61.4945 19.5067 62.2554ZM12.7278 62.5699C12.7278 62.6324 13.3193 63.1775 13.7112 63.4763L13.9729 63.6758L13.7885 63.4625C13.5551 63.1927 12.7278 62.4966 12.7278 62.5699ZM79.9626 66.2683L77.2425 68.9903L70.5789 68.9661C66.914 68.9529 63.9153 68.9732 63.9153 69.0112C63.9153 69.0493 66.9142 69.0804 70.5796 69.0804H77.2437L80.0094 66.3135C81.5305 64.7917 82.7544 63.5466 82.7291 63.5466C82.7037 63.5466 81.4588 64.7714 79.9626 66.2683ZM14.0202 63.7018C14.0214 63.777 14.0892 63.8289 15.0594 64.4996C15.6571 64.913 15.684 64.9063 16.3709 64.1789L16.8321 63.6905L16.2625 64.2181C15.5522 64.8759 15.7048 64.9054 14.3008 63.8402C14.1459 63.7226 14.0195 63.6603 14.0202 63.7018ZM53.3875 65.3237C52.4482 66.2485 51.9529 66.7544 52.2868 66.4475C52.6207 66.1408 53.2674 65.5326 53.724 65.0961C54.1805 64.6594 54.6947 64.1724 54.8665 64.014C55.0382 63.8554 55.16 63.7069 55.1371 63.6841C55.1143 63.661 54.3269 64.3991 53.3875 65.3237ZM16.9776 64.7844C16.6919 65.0737 16.5044 65.338 16.5328 65.4117C16.5844 65.5459 18.7989 66.7295 18.8683 66.6598C18.8906 66.6377 18.4295 66.3765 17.8436 66.0795C16.4417 65.3689 16.4611 65.4009 17.0673 64.7869C17.3403 64.5107 17.5429 64.2845 17.5176 64.2845C17.4922 64.2845 17.2492 64.5095 16.9776 64.7844ZM19.4606 66.9119C19.4606 66.9794 20.1281 67.2446 20.1765 67.1964C20.1996 67.1733 20.0636 67.0896 19.8743 67.0106C19.4994 66.854 19.4606 66.8448 19.4606 66.9119ZM20.9363 67.5125C21.0124 67.5616 21.1369 67.602 21.213 67.602C21.3359 67.602 21.3359 67.5921 21.213 67.5125C21.1369 67.4634 21.0124 67.423 20.9363 67.423C20.8134 67.423 20.8134 67.433 20.9363 67.5125ZM22.0892 67.8692C22.4069 68.0078 22.9266 68.1584 23.064 68.1517C23.1367 68.148 23.0493 68.091 22.8699 68.0249C22.4774 67.8803 21.809 67.747 22.0892 67.8692Z" fill="var(--fill-0, #97A8BB)"/>
</g>
</svg>
