<svg id="svg" version="1.1" xmlns="http://www.w3.org/2000/svg" xmlns:xlink="http://www.w3.org/1999/xlink" width="150" height="150" viewBox="0, 0, 400,400"><g id="svgg"><path id="path0" d="M112.600 101.243 C 104.771 102.197,97.013 103.999,92.200 105.982 C 91.760 106.163,89.960 106.886,88.200 107.588 C 71.711 114.166,48.703 134.058,41.937 147.585 C 41.657 148.143,41.128 149.050,40.761 149.600 C 38.662 152.744,34.483 161.138,32.381 166.432 C 24.431 186.454,23.914 210.859,30.980 232.604 C 31.551 234.362,32.194 236.113,32.409 236.495 C 32.624 236.877,32.800 237.367,32.800 237.585 C 32.800 237.992,34.582 242.019,36.177 245.217 C 42.048 256.985,50.248 267.186,60.560 275.550 C 64.172 278.480,66.996 280.403,67.672 280.391 C 67.962 280.386,78.470 270.171,91.022 257.691 L 113.843 235.000 114.808 232.300 C 116.269 228.209,116.800 228.709,116.800 234.179 L 116.800 238.758 94.778 260.669 C 82.666 272.720,72.542 282.712,72.280 282.874 C 70.649 283.882,86.793 291.324,96.400 293.993 C 97.390 294.268,98.650 294.635,99.200 294.808 C 109.551 298.073,137.012 300.538,139.646 298.440 C 140.851 297.480,174.016 264.221,174.420 263.567 C 175.164 262.364,176.000 263.573,176.000 265.851 L 176.000 268.127 167.100 277.109 C 162.205 282.049,157.975 286.327,157.700 286.617 C 157.345 286.990,157.200 288.894,157.200 293.161 L 157.200 299.180 185.900 299.182 L 214.600 299.184 218.423 295.492 C 220.526 293.461,223.766 290.381,225.623 288.647 C 227.481 286.912,231.164 283.402,233.808 280.847 C 238.027 276.769,244.872 270.247,257.367 258.400 C 259.339 256.530,262.944 253.091,265.377 250.757 C 274.072 242.416,276.501 240.200,276.947 240.200 C 277.272 240.200,277.430 243.656,277.506 252.423 L 277.611 264.646 298.969 243.223 C 310.716 231.440,331.032 211.000,344.115 197.800 L 367.903 173.800 358.384 173.600 C 353.149 173.490,348.730 173.265,348.566 173.100 C 348.401 172.935,352.637 168.407,357.979 163.038 C 369.448 151.509,370.703 149.851,372.872 143.365 C 374.321 139.032,373.986 124.446,372.436 124.392 C 372.306 124.387,361.212 135.465,347.783 149.009 L 323.366 173.635 319.783 173.572 L 316.200 173.509 309.803 179.955 C 306.285 183.500,303.184 186.400,302.913 186.400 C 302.547 186.400,302.392 184.728,302.310 179.904 L 302.200 173.407 301.111 173.204 C 299.623 172.925,297.267 175.427,330.401 142.113 C 364.624 107.705,361.861 110.597,361.230 109.836 C 359.262 107.465,350.462 104.800,344.600 104.800 C 333.835 104.800,329.628 107.266,314.634 122.366 C 304.505 132.566,304.446 132.612,303.577 130.900 C 300.897 125.615,295.786 119.409,290.315 114.799 C 285.162 110.457,282.457 108.709,277.000 106.197 C 275.240 105.386,273.487 104.560,273.105 104.362 C 272.723 104.163,272.059 104.000,271.629 104.000 C 271.199 104.000,270.749 103.841,270.629 103.646 C 270.508 103.451,269.913 103.190,269.305 103.064 C 268.697 102.939,267.300 102.649,266.200 102.421 C 256.607 100.431,248.277 100.435,239.600 102.434 C 238.610 102.663,237.303 102.949,236.695 103.071 C 236.087 103.193,235.492 103.451,235.371 103.646 C 235.251 103.841,234.801 104.000,234.371 104.000 C 233.941 104.000,233.277 104.165,232.895 104.366 C 232.513 104.568,231.480 105.035,230.600 105.405 C 219.523 110.061,209.434 118.845,202.533 129.843 C 201.097 132.131,199.251 134.818,195.125 140.629 C 194.176 141.965,191.330 145.983,188.800 149.559 C 186.270 153.135,183.343 157.262,182.296 158.730 C 181.249 160.199,179.950 162.030,179.410 162.800 C 178.117 164.644,175.342 168.527,173.623 170.900 L 172.246 172.800 169.723 172.800 C 166.631 172.800,166.601 172.618,169.134 169.200 C 170.193 167.770,172.838 164.080,175.010 161.000 C 177.182 157.920,180.875 152.722,183.215 149.449 C 187.930 142.857,187.806 143.322,185.826 139.600 C 185.029 138.102,180.771 131.675,179.666 130.302 C 174.383 123.737,167.510 117.357,161.600 113.533 C 156.893 110.487,153.528 108.746,147.000 105.979 C 145.919 105.521,142.478 104.379,141.000 103.987 C 136.297 102.741,135.088 102.465,132.600 102.067 C 124.278 100.735,118.666 100.504,112.600 101.243 M130.461 106.003 C 137.596 107.373,137.028 107.237,141.200 108.568 C 157.877 113.884,174.238 127.029,181.567 141.000 L 182.407 142.600 154.903 142.832 C 125.982 143.076,125.930 143.080,120.964 145.047 C 97.083 154.510,94.747 188.264,117.100 200.890 C 118.255 201.543,119.200 202.254,119.200 202.471 C 119.200 202.688,111.040 211.068,101.067 221.093 L 82.933 239.320 80.367 237.593 C 19.811 196.826,49.048 103.712,121.861 105.439 C 125.415 105.523,129.285 105.777,130.461 106.003 M262.493 106.037 C 283.833 110.357,302.427 128.576,305.054 147.738 L 305.300 149.538 283.950 149.676 L 262.600 149.814 259.596 151.027 C 253.969 153.299,252.502 154.612,227.800 179.468 C 214.820 192.529,203.975 203.212,203.700 203.208 C 203.304 203.202,203.200 196.515,203.200 171.129 L 203.200 139.058 204.856 135.629 C 215.233 114.147,239.927 101.469,262.493 106.037 M347.827 109.209 C 351.556 109.851,354.456 110.827,354.321 111.393 C 354.140 112.151,322.350 144.400,321.785 144.400 C 321.517 144.400,321.095 143.860,320.849 143.200 C 320.602 142.540,320.180 141.415,319.910 140.701 C 319.008 138.307,319.296 129.819,320.381 126.811 C 324.734 114.747,336.429 107.246,347.827 109.209 M369.815 136.300 C 368.444 149.624,357.659 160.000,345.180 160.000 C 342.904 160.000,342.474 160.521,356.300 146.557 C 370.476 132.240,370.213 132.440,369.815 136.300 M178.000 214.983 L 178.000 252.365 174.763 253.388 C 161.533 257.567,143.520 258.380,126.600 255.560 C 121.350 254.685,112.032 252.517,111.153 251.966 C 110.740 251.707,113.503 248.698,122.039 240.110 C 138.698 223.349,149.917 211.857,150.068 211.400 C 150.152 211.146,147.067 210.927,141.600 210.800 L 133.000 210.600 132.889 195.000 C 132.827 186.420,132.876 178.995,132.996 178.500 L 133.215 177.600 155.608 177.600 L 178.000 177.600 178.000 214.983 M298.000 194.200 L 298.000 210.800 277.831 210.800 C 255.558 210.800,254.577 210.887,252.013 213.082 C 248.809 215.824,248.902 215.098,248.467 240.800 L 248.200 256.600 226.245 256.703 C 210.130 256.779,204.143 256.684,203.735 256.346 C 203.298 255.983,203.203 254.634,203.290 249.990 L 203.400 244.095 236.357 210.847 L 269.314 177.600 283.657 177.600 L 298.000 177.600 298.000 194.200 M357.600 177.890 C 357.600 178.424,321.459 214.360,321.127 214.155 C 320.754 213.924,320.672 179.199,321.043 178.233 C 321.301 177.560,357.600 177.219,357.600 177.890 M128.172 182.755 C 128.385 183.099,116.944 194.800,116.394 194.800 C 114.980 194.800,108.197 185.949,108.481 184.475 C 108.776 182.943,127.289 181.326,128.172 182.755 M324.973 243.059 L 277.800 290.517 277.687 294.859 L 277.574 299.200 306.146 299.200 L 334.718 299.200 353.430 280.408 C 363.722 270.072,372.288 261.387,372.465 261.108 C 372.890 260.439,372.898 195.600,372.473 195.600 C 372.293 195.600,350.918 216.956,324.973 243.059 M368.400 231.120 C 368.400 249.813,368.283 255.957,367.920 256.320 C 367.227 257.013,321.973 257.013,321.280 256.320 C 319.590 254.630,319.592 254.627,342.900 231.273 C 355.055 219.094,365.540 208.539,366.200 207.816 C 368.496 205.301,368.400 204.281,368.400 231.120 " stroke="none" fill="#07457c" fill-rule="evenodd"></path><path id="path1" d="M113.400 105.434 C 79.749 107.928,51.507 135.794,48.023 169.942 C 45.246 197.153,57.088 221.922,80.367 237.593 L 82.933 239.320 101.067 221.093 C 111.040 211.068,119.200 202.688,119.200 202.471 C 119.200 202.254,118.255 201.543,117.100 200.890 C 94.747 188.264,97.083 154.510,120.964 145.047 C 125.930 143.080,125.982 143.076,154.903 142.832 L 182.407 142.600 181.567 141.000 C 174.238 127.029,157.877 113.884,141.200 108.568 C 137.732 107.462,136.983 107.260,134.800 106.838 C 133.590 106.605,131.638 106.229,130.461 106.003 C 128.190 105.566,116.755 105.185,113.400 105.434 M246.800 105.580 C 228.724 107.743,212.825 119.134,204.856 135.629 L 203.200 139.058 203.200 171.129 C 203.200 196.515,203.304 203.202,203.700 203.208 C 203.975 203.212,214.820 192.529,227.800 179.468 C 252.502 154.612,253.969 153.299,259.596 151.027 L 262.600 149.814 283.950 149.676 L 305.300 149.538 305.054 147.738 C 301.626 122.728,273.514 102.384,246.800 105.580 M358.000 114.200 C 357.028 115.190,356.323 116.000,356.433 116.000 C 356.543 116.000,357.428 115.190,358.400 114.200 C 359.372 113.210,360.077 112.400,359.967 112.400 C 359.857 112.400,358.972 113.210,358.000 114.200 M213.775 116.100 L 212.600 117.400 213.900 116.225 C 214.615 115.579,215.200 114.994,215.200 114.925 C 215.200 114.616,214.870 114.888,213.775 116.100 M174.600 124.400 C 175.459 125.280,176.252 126.000,176.362 126.000 C 176.472 126.000,175.859 125.280,175.000 124.400 C 174.141 123.520,173.348 122.800,173.238 122.800 C 173.128 122.800,173.741 123.520,174.600 124.400 M56.790 128.700 L 53.800 131.800 56.989 128.800 C 58.742 127.150,60.257 125.755,60.355 125.700 C 60.453 125.645,60.364 125.600,60.157 125.600 C 59.949 125.600,58.434 126.995,56.790 128.700 M374.144 134.400 C 374.144 136.490,374.212 137.345,374.294 136.300 C 374.376 135.255,374.376 133.545,374.294 132.500 C 374.212 131.455,374.144 132.310,374.144 134.400 M357.996 163.100 L 349.800 171.400 358.100 163.204 C 362.665 158.696,366.400 154.961,366.400 154.904 C 366.400 154.619,365.612 155.388,357.996 163.100 M329.595 167.100 L 323.400 173.400 329.700 167.205 C 335.553 161.449,336.181 160.800,335.895 160.800 C 335.837 160.800,333.002 163.635,329.595 167.100 M303.391 169.300 L 300.200 172.600 303.500 169.409 C 305.315 167.655,306.800 166.170,306.800 166.109 C 306.800 165.818,306.354 166.235,303.391 169.300 M318.711 173.493 C 319.651 173.578,321.091 173.577,321.911 173.491 C 322.730 173.405,321.960 173.336,320.200 173.337 C 318.440 173.339,317.770 173.409,318.711 173.493 M353.700 173.499 C 356.285 173.568,360.515 173.568,363.100 173.499 C 365.685 173.429,363.570 173.372,358.400 173.372 C 353.230 173.372,351.115 173.429,353.700 173.499 M309.394 180.100 L 304.200 185.400 309.500 180.206 C 312.415 177.349,314.800 174.964,314.800 174.906 C 314.800 174.619,314.219 175.177,309.394 180.100 M365.775 176.100 L 364.600 177.400 365.900 176.225 C 366.615 175.579,367.200 174.994,367.200 174.925 C 367.200 174.616,366.870 174.888,365.775 176.100 M132.996 178.500 C 132.876 178.995,132.827 186.420,132.889 195.000 L 133.000 210.600 141.600 210.800 C 147.067 210.927,150.152 211.146,150.068 211.400 C 149.917 211.857,138.698 223.349,122.039 240.110 C 113.503 248.698,110.740 251.707,111.153 251.966 C 112.032 252.517,121.350 254.685,126.600 255.560 C 143.520 258.380,161.533 257.567,174.763 253.388 L 178.000 252.365 178.000 214.983 L 178.000 177.600 155.608 177.600 L 133.215 177.600 132.996 178.500 M236.357 210.847 L 203.400 244.095 203.290 249.990 C 203.203 254.634,203.298 255.983,203.735 256.346 C 204.143 256.684,210.130 256.779,226.245 256.703 L 248.200 256.600 248.467 240.800 C 249.021 208.059,246.338 210.800,277.831 210.800 L 298.000 210.800 298.000 194.200 L 298.000 177.600 283.657 177.600 L 269.314 177.600 236.357 210.847 M321.043 178.233 C 320.672 179.199,320.754 213.924,321.127 214.155 C 321.459 214.360,357.600 178.424,357.600 177.890 C 357.600 177.219,321.301 177.560,321.043 178.233 M357.200 184.600 C 355.561 186.250,354.310 187.600,354.420 187.600 C 354.530 187.600,355.961 186.250,357.600 184.600 C 359.239 182.950,360.490 181.600,360.380 181.600 C 360.270 181.600,358.839 182.950,357.200 184.600 M115.300 182.676 C 115.685 182.776,116.315 182.776,116.700 182.676 C 117.085 182.575,116.770 182.493,116.000 182.493 C 115.230 182.493,114.915 182.575,115.300 182.676 M123.800 182.638 C 125.674 182.939,128.309 182.977,128.138 182.700 C 128.036 182.535,126.838 182.425,125.476 182.454 C 124.114 182.484,123.360 182.567,123.800 182.638 M108.667 183.867 C 108.305 184.228,108.328 185.508,108.700 185.738 C 108.865 185.840,109.000 185.401,109.000 184.762 C 109.000 184.123,108.985 183.600,108.967 183.600 C 108.948 183.600,108.813 183.720,108.667 183.867 M344.797 197.100 L 335.800 206.200 344.900 197.203 C 353.356 188.844,354.180 188.000,353.897 188.000 C 353.840 188.000,349.745 192.095,344.797 197.100 M25.760 200.600 C 25.761 203.900,25.822 205.197,25.898 203.482 C 25.973 201.767,25.972 199.067,25.897 197.482 C 25.821 195.897,25.759 197.300,25.760 200.600 M358.587 208.900 L 356.200 211.400 358.700 209.013 C 360.075 207.699,361.200 206.574,361.200 206.513 C 361.200 206.217,360.805 206.578,358.587 208.900 M366.200 207.816 C 365.540 208.539,355.055 219.094,342.900 231.273 C 319.592 254.627,319.590 254.630,321.280 256.320 C 321.973 257.013,367.227 257.013,367.920 256.320 C 368.634 255.606,368.614 206.378,367.900 206.451 C 367.625 206.479,366.860 207.093,366.200 207.816 M26.493 213.200 C 26.493 213.970,26.575 214.285,26.676 213.900 C 26.776 213.515,26.776 212.885,26.676 212.500 C 26.575 212.115,26.493 212.430,26.493 213.200 M274.386 242.300 L 272.200 244.600 274.500 242.414 C 276.637 240.382,276.983 240.000,276.686 240.000 C 276.624 240.000,275.589 241.035,274.386 242.300 M277.378 252.600 C 277.378 259.420,277.432 262.266,277.499 258.925 C 277.566 255.584,277.566 250.004,277.499 246.525 C 277.433 243.046,277.378 245.780,277.378 252.600 M317.596 250.300 L 310.200 257.800 317.700 250.404 C 324.668 243.532,325.381 242.800,325.096 242.800 C 325.039 242.800,321.664 246.175,317.596 250.300 M268.975 247.300 L 267.800 248.600 269.100 247.425 C 270.312 246.330,270.584 246.000,270.275 246.000 C 270.206 246.000,269.621 246.585,268.975 247.300 M287.195 255.100 L 281.000 261.400 287.300 255.205 C 293.153 249.449,293.781 248.800,293.495 248.800 C 293.437 248.800,290.602 251.635,287.195 255.100 M258.189 257.700 L 255.400 260.600 258.300 257.811 C 260.994 255.220,261.383 254.800,261.089 254.800 C 261.028 254.800,259.723 256.105,258.189 257.700 M84.598 270.500 L 72.200 283.000 84.700 270.602 C 96.317 259.081,97.380 258.000,97.098 258.000 C 97.041 258.000,91.416 263.625,84.598 270.500 M361.203 272.600 L 349.807 284.200 361.386 272.716 C 367.755 266.400,372.883 261.180,372.783 261.116 C 372.682 261.052,367.472 266.220,361.203 272.600 M252.378 263.100 L 251.000 264.600 252.500 263.222 C 253.325 262.463,254.000 261.788,254.000 261.722 C 254.000 261.416,253.662 261.704,252.378 263.100 M175.724 265.800 C 175.726 267.120,175.801 267.612,175.890 266.893 C 175.979 266.174,175.977 265.094,175.886 264.493 C 175.795 263.892,175.722 264.480,175.724 265.800 M53.183 269.300 C 54.164 270.345,55.019 271.200,55.083 271.200 C 55.384 271.200,55.066 270.841,53.300 269.183 L 51.400 267.400 53.183 269.300 M74.395 274.300 L 68.200 280.600 74.500 274.405 C 77.965 270.998,80.800 268.163,80.800 268.105 C 80.800 267.819,80.151 268.447,74.395 274.300 M171.988 271.900 L 169.400 274.600 172.100 272.012 C 173.585 270.588,174.800 269.373,174.800 269.312 C 174.800 269.017,174.393 269.392,171.988 271.900 M241.789 273.300 L 239.000 276.200 241.900 273.411 C 244.594 270.820,244.983 270.400,244.689 270.400 C 244.628 270.400,243.323 271.705,241.789 273.300 M235.781 278.900 L 234.200 280.600 235.900 279.019 C 236.835 278.149,237.600 277.384,237.600 277.319 C 237.600 277.016,237.252 277.319,235.781 278.900 M148.794 289.500 L 143.400 295.000 148.900 289.606 C 151.925 286.639,154.400 284.164,154.400 284.106 C 154.400 283.819,153.806 284.391,148.794 289.500 M156.960 293.000 C 156.961 296.300,157.022 297.597,157.098 295.882 C 157.173 294.167,157.172 291.467,157.097 289.882 C 157.021 288.297,156.959 289.700,156.960 293.000 M224.585 289.700 L 222.600 291.800 224.700 289.815 C 226.651 287.971,226.983 287.600,226.685 287.600 C 226.622 287.600,225.677 288.545,224.585 289.700 M342.585 291.300 L 340.600 293.400 342.700 291.415 C 344.651 289.571,344.983 289.200,344.685 289.200 C 344.622 289.200,343.677 290.145,342.585 291.300 M277.348 294.800 C 277.348 297.110,277.414 298.055,277.495 296.900 C 277.576 295.745,277.576 293.855,277.495 292.700 C 277.414 291.545,277.348 292.490,277.348 294.800 M218.975 294.900 L 217.800 296.200 219.100 295.025 C 219.815 294.379,220.400 293.794,220.400 293.725 C 220.400 293.416,220.070 293.688,218.975 294.900 M123.900 299.082 C 124.395 299.178,125.205 299.178,125.700 299.082 C 126.195 298.987,125.790 298.909,124.800 298.909 C 123.810 298.909,123.405 298.987,123.900 299.082 " stroke="none" fill="#6bb3c4" fill-rule="evenodd"></path><path id="path2" d="M0.000 200.000 L 0.000 400.000 200.000 400.000 L 400.000 400.000 400.000 200.000 L 400.000 0.000 200.000 0.000 L 0.000 0.000 0.000 200.000 M132.200 101.373 C 137.049 102.233,140.000 102.977,144.023 104.355 C 149.089 106.090,152.973 107.825,156.605 109.976 C 157.928 110.759,159.481 111.644,160.057 111.942 C 168.667 116.398,182.419 131.112,186.876 140.638 L 188.071 143.191 187.258 144.495 C 186.811 145.213,184.448 148.590,182.006 152.000 C 179.564 155.410,176.654 159.526,175.540 161.146 C 174.426 162.766,173.273 164.386,172.978 164.746 C 172.402 165.449,168.311 171.173,167.838 171.938 C 167.636 172.266,168.195 172.400,169.767 172.400 L 171.982 172.400 174.291 169.163 C 175.561 167.383,176.780 165.628,177.000 165.263 C 177.220 164.898,177.498 164.510,177.617 164.400 C 177.737 164.290,178.649 163.030,179.644 161.600 C 182.607 157.342,191.586 144.689,192.516 143.461 C 193.779 141.795,196.290 138.151,200.691 131.600 C 202.834 128.410,204.689 125.710,204.813 125.600 C 204.937 125.490,205.473 124.770,206.004 124.000 C 208.525 120.344,215.683 113.540,220.600 110.127 C 234.810 100.262,255.195 97.685,272.259 103.598 C 275.851 104.843,282.534 108.143,283.775 109.286 C 284.202 109.679,284.695 110.000,284.871 110.000 C 285.969 110.000,295.230 118.334,298.429 122.200 C 299.984 124.080,304.000 130.239,304.000 130.745 C 304.000 132.169,306.317 130.192,315.360 121.054 C 326.353 109.945,328.326 108.375,334.400 105.908 C 339.275 103.928,348.725 103.872,354.341 105.791 C 357.741 106.953,362.566 109.726,362.330 110.383 C 362.258 110.582,348.520 124.545,331.800 141.412 C 299.885 173.608,300.653 172.800,301.967 172.800 C 302.776 172.800,302.800 172.981,302.800 179.200 C 302.800 182.720,302.928 185.600,303.085 185.600 C 303.241 185.600,306.269 182.720,309.812 179.200 L 316.255 172.800 319.854 172.800 L 323.452 172.800 347.783 148.338 C 366.952 129.066,372.242 123.957,372.716 124.256 C 374.748 125.538,375.240 137.891,373.473 143.251 C 371.244 150.007,370.090 151.563,359.035 162.715 C 353.956 167.839,349.740 172.204,349.667 172.415 C 349.584 172.655,353.185 172.800,359.196 172.800 C 367.241 172.800,368.837 172.893,368.729 173.356 C 368.579 174.004,278.024 265.200,277.531 265.200 C 277.349 265.200,277.200 259.710,277.200 253.000 C 277.200 239.196,277.404 239.788,273.868 243.300 C 272.484 244.675,268.315 248.680,264.605 252.200 C 260.894 255.720,257.111 259.320,256.198 260.200 C 252.157 264.095,231.334 283.939,227.628 287.427 C 225.774 289.172,222.174 292.621,219.628 295.090 L 215.000 299.581 185.800 299.490 L 156.600 299.400 156.490 293.319 L 156.379 287.238 158.490 285.081 C 159.650 283.894,163.885 279.599,167.900 275.537 L 175.200 268.151 175.200 266.075 C 175.200 264.934,175.129 264.000,175.042 264.000 C 174.955 264.000,167.440 271.492,158.342 280.650 C 149.244 289.807,141.260 297.816,140.600 298.448 L 139.400 299.596 132.084 299.598 C 121.372 299.601,113.618 298.734,103.200 296.370 C 98.171 295.228,90.203 292.818,88.705 291.986 C 88.323 291.774,87.826 291.600,87.601 291.600 C 86.397 291.600,72.000 284.465,71.717 283.728 C 71.561 283.323,78.657 275.992,93.944 260.763 L 116.400 238.394 116.400 234.573 C 116.400 230.374,116.072 230.088,114.941 233.298 C 114.263 235.222,112.615 236.971,95.432 254.000 C 85.109 264.230,74.939 274.369,72.832 276.532 C 68.198 281.287,67.896 281.479,66.473 280.576 C 65.350 279.863,61.146 276.759,60.800 276.387 C 60.690 276.269,60.065 275.762,59.412 275.260 C 43.260 262.846,30.158 239.736,26.837 217.800 C 26.604 216.260,26.217 213.740,25.977 212.200 C 25.417 208.614,25.371 192.484,25.912 189.600 C 26.139 188.390,26.546 186.050,26.817 184.400 C 28.851 172.024,36.479 153.495,42.790 145.600 C 43.230 145.050,43.592 144.375,43.595 144.100 C 43.598 143.825,43.741 143.600,43.914 143.600 C 44.086 143.600,44.534 143.082,44.907 142.449 C 46.389 139.941,52.269 132.985,56.521 128.710 C 72.557 112.589,91.968 102.878,112.600 100.653 C 116.001 100.286,128.705 100.753,132.200 101.373 M114.800 183.180 C 112.178 183.483,108.800 184.284,108.800 184.603 C 108.800 186.056,115.172 194.000,116.337 194.000 C 116.840 194.000,127.201 183.851,127.198 183.361 C 127.195 182.908,118.280 182.778,114.800 183.180 M373.102 228.218 L 373.205 261.369 354.107 280.484 L 335.010 299.600 306.105 299.600 L 277.200 299.600 277.208 294.900 L 277.215 290.200 294.814 272.600 C 304.493 262.920,325.865 241.456,342.306 224.902 C 358.748 208.348,372.380 194.863,372.600 194.935 C 372.861 195.021,373.035 206.562,373.102 228.218 " stroke="none" fill="#fbfbfb" fill-opacity="0" fill-rule="evenodd"></path><path id="path3" d="M337.800 109.949 C 324.743 113.941,316.172 128.661,319.952 140.600 C 320.836 143.392,321.287 144.400,321.651 144.400 C 322.150 144.400,354.173 112.064,354.322 111.410 C 354.722 109.657,342.338 108.562,337.800 109.949 M356.627 146.247 C 341.900 161.141,342.608 160.201,346.402 159.827 C 355.837 158.898,363.204 153.793,367.389 145.287 C 369.291 141.419,370.586 134.034,369.400 133.810 C 369.180 133.768,363.432 139.365,356.627 146.247 " stroke="none" fill="#d1a91f" fill-rule="evenodd"></path><path id="path4" d="M116.918 100.698 C 118.633 100.773,121.333 100.772,122.918 100.697 C 124.503 100.621,123.100 100.559,119.800 100.560 C 116.500 100.561,115.203 100.622,116.918 100.698 M250.100 100.697 C 251.585 100.774,254.015 100.774,255.500 100.697 C 256.985 100.620,255.770 100.557,252.800 100.557 C 249.830 100.557,248.615 100.620,250.100 100.697 M106.182 101.590 C 101.501 102.431,97.136 103.611,92.479 105.292 C 87.865 106.958,88.581 107.074,93.424 105.446 C 99.237 103.492,102.437 102.649,106.400 102.028 C 113.467 100.920,113.530 100.907,111.800 100.887 C 110.920 100.876,108.392 101.193,106.182 101.590 M128.400 101.244 C 134.376 102.193,135.909 102.464,137.200 102.796 C 140.187 103.566,146.677 105.672,148.200 106.367 C 149.080 106.768,150.250 107.207,150.800 107.344 C 152.595 107.789,147.486 105.533,144.023 104.351 C 138.544 102.481,130.302 100.739,127.448 100.848 C 126.615 100.879,126.932 101.011,128.400 101.244 M243.000 101.200 C 241.858 101.490,241.878 101.506,243.400 101.513 C 244.280 101.517,245.450 101.376,246.000 101.200 C 247.382 100.757,244.740 100.757,243.000 101.200 M260.800 101.234 C 265.892 102.140,269.382 102.956,271.000 103.619 C 271.440 103.800,272.520 104.183,273.400 104.471 C 275.276 105.086,281.187 107.966,283.200 109.246 C 284.376 109.994,284.472 110.012,283.800 109.355 C 280.627 106.252,267.946 101.593,261.200 101.051 L 258.600 100.842 260.800 101.234 M237.600 102.374 C 234.302 103.296,232.734 103.940,233.705 103.975 C 234.093 103.989,234.723 103.838,235.105 103.639 C 235.487 103.440,236.520 103.093,237.400 102.867 C 240.906 101.968,241.765 101.681,241.000 101.665 C 240.560 101.656,239.030 101.975,237.600 102.374 M230.400 104.831 C 226.773 106.471,224.379 107.710,224.162 108.061 C 223.952 108.401,224.933 107.967,230.600 105.213 C 233.317 103.893,233.156 103.585,230.400 104.831 M337.400 105.004 C 334.909 105.646,332.712 106.445,332.906 106.639 C 332.987 106.720,333.671 106.598,334.426 106.369 C 338.790 105.042,340.372 104.800,344.691 104.800 C 347.250 104.800,349.896 104.965,350.572 105.166 C 355.276 106.570,357.523 107.352,358.335 107.869 C 358.849 108.196,359.371 108.362,359.496 108.237 C 359.831 107.902,355.579 106.108,352.286 105.195 C 348.905 104.258,340.702 104.153,337.400 105.004 M86.100 107.835 C 84.945 108.378,84.000 108.910,84.000 109.016 C 84.000 109.245,86.155 108.372,87.828 107.466 C 89.657 106.476,88.436 106.737,86.100 107.835 M153.820 108.735 C 154.419 109.263,158.800 111.628,158.800 111.423 C 158.800 111.202,154.070 108.400,153.699 108.400 C 153.556 108.400,153.611 108.551,153.820 108.735 M221.200 109.694 C 214.755 114.200,205.200 123.592,205.200 125.422 C 205.200 125.586,205.763 124.928,206.450 123.960 C 208.523 121.044,216.394 113.544,219.804 111.238 C 223.430 108.785,223.928 108.392,223.380 108.418 C 223.171 108.428,222.190 109.002,221.200 109.694 M327.000 109.854 C 325.900 110.643,320.575 115.769,315.167 121.244 C 309.759 126.720,305.034 131.200,304.667 131.200 C 304.300 131.200,304.000 131.380,304.000 131.600 C 304.000 132.754,305.911 131.079,315.991 121.093 C 322.046 115.094,327.540 109.794,328.200 109.315 C 328.860 108.836,329.310 108.439,329.200 108.432 C 329.090 108.425,328.100 109.065,327.000 109.854 M360.684 109.116 C 361.170 109.548,361.620 110.080,361.684 110.297 C 361.748 110.514,347.979 124.583,331.086 141.562 C 314.193 158.540,300.479 172.604,300.610 172.816 C 300.740 173.027,301.197 173.200,301.624 173.200 C 302.361 173.200,302.400 173.534,302.400 179.800 C 302.400 183.430,302.537 186.400,302.705 186.400 C 302.872 186.400,305.977 183.385,309.605 179.700 L 316.200 173.000 309.795 179.300 C 306.273 182.765,303.258 185.600,303.095 185.600 C 302.933 185.600,302.800 182.720,302.800 179.200 C 302.800 172.981,302.776 172.800,301.967 172.800 C 300.653 172.800,299.885 173.608,331.800 141.412 C 365.989 106.922,362.859 110.361,361.120 109.206 C 360.065 108.507,359.978 108.489,360.684 109.116 M343.300 109.087 C 343.905 109.178,344.895 109.178,345.500 109.087 C 346.105 108.995,345.610 108.920,344.400 108.920 C 343.190 108.920,342.695 108.995,343.300 109.087 M81.400 110.154 C 78.241 111.870,77.934 112.068,78.128 112.261 C 78.236 112.369,79.058 111.995,79.954 111.429 C 80.851 110.863,81.723 110.394,81.892 110.387 C 82.061 110.380,82.549 110.110,82.976 109.787 C 84.087 108.947,83.271 109.137,81.400 110.154 M285.758 110.922 C 290.244 114.324,294.346 118.058,296.808 120.983 C 299.426 124.091,300.545 125.206,299.740 123.902 C 297.833 120.817,286.185 109.925,284.896 110.022 C 284.733 110.034,285.121 110.439,285.758 110.922 M159.420 111.934 C 159.814 112.280,164.575 115.569,165.562 116.177 C 167.332 117.268,165.186 115.414,162.647 113.659 C 160.075 111.881,158.246 110.903,159.420 111.934 M72.839 115.221 C 70.551 116.749,66.980 119.395,64.903 121.100 C 62.826 122.805,60.841 124.423,60.492 124.696 C 60.144 124.969,59.950 125.283,60.062 125.395 C 60.174 125.507,61.331 124.648,62.633 123.485 C 66.264 120.243,71.993 116.029,75.700 113.872 C 77.487 112.832,77.993 112.373,77.300 112.420 C 77.135 112.432,75.128 113.692,72.839 115.221 M168.571 118.496 C 169.687 119.538,170.736 120.393,170.901 120.396 C 171.067 120.398,170.437 119.733,169.501 118.917 C 166.888 116.640,166.297 116.372,168.571 118.496 M172.206 121.600 C 172.889 122.540,175.200 124.634,175.200 124.314 C 175.200 124.233,174.363 123.364,173.339 122.383 C 172.316 121.402,171.806 121.050,172.206 121.600 M371.600 124.387 C 371.600 124.601,371.848 124.680,372.151 124.564 C 372.504 124.428,372.814 124.755,373.015 125.476 C 373.254 126.335,373.368 126.430,373.497 125.881 C 373.590 125.485,373.449 124.900,373.184 124.581 C 372.640 123.925,371.600 123.798,371.600 124.387 M301.125 126.500 C 301.764 127.435,302.596 128.802,302.973 129.537 C 303.350 130.273,303.753 130.781,303.867 130.666 C 304.095 130.438,300.559 124.800,300.189 124.800 C 300.064 124.800,300.485 125.565,301.125 126.500 M370.060 125.880 C 369.543 126.415,369.197 126.930,369.292 127.025 C 369.386 127.119,369.885 126.748,370.400 126.200 C 370.915 125.652,371.261 125.137,371.168 125.055 C 371.076 124.974,370.577 125.345,370.060 125.880 M176.400 125.826 C 176.400 125.966,177.504 127.454,178.854 129.131 C 181.905 132.924,184.741 137.183,186.196 140.156 C 186.807 141.405,187.385 142.348,187.480 142.253 C 187.954 141.779,183.335 134.170,180.042 130.000 C 177.771 127.124,176.400 125.552,176.400 125.826 M200.865 131.357 C 198.810 134.460,196.485 137.900,195.696 139.000 C 194.908 140.100,194.579 140.708,194.966 140.352 C 195.735 139.641,198.148 136.264,201.217 131.600 C 202.303 129.950,203.349 128.409,203.542 128.175 C 204.085 127.515,204.880 125.944,204.732 125.822 C 204.660 125.762,202.919 128.253,200.865 131.357 M373.675 127.600 C 373.686 128.150,373.832 129.140,374.000 129.800 L 374.305 131.000 374.325 129.600 C 374.335 128.830,374.189 127.840,374.000 127.400 C 373.688 126.674,373.658 126.693,373.675 127.600 M367.400 128.569 C 365.269 130.794,364.993 131.457,367.007 129.514 C 368.082 128.477,368.880 127.558,368.781 127.472 C 368.681 127.386,368.060 127.880,367.400 128.569 M333.186 133.100 L 331.000 135.400 333.300 133.214 C 335.437 131.182,335.783 130.800,335.486 130.800 C 335.424 130.800,334.389 131.835,333.186 133.100 M52.895 132.357 C 49.245 136.565,44.143 143.200,44.557 143.200 C 44.674 143.200,46.032 141.535,47.576 139.500 C 49.120 137.465,51.223 134.851,52.250 133.692 C 53.277 132.533,54.046 131.523,53.959 131.449 C 53.871 131.374,53.393 131.783,52.895 132.357 M363.526 132.488 C 362.935 133.099,362.588 133.600,362.756 133.600 C 363.135 133.600,364.999 131.645,364.768 131.489 C 364.676 131.426,364.116 131.876,363.526 132.488 M374.528 134.400 C 374.528 135.830,374.601 136.415,374.689 135.700 C 374.778 134.985,374.778 133.815,374.689 133.100 C 374.601 132.385,374.528 132.970,374.528 134.400 M360.091 135.829 C 359.151 136.803,358.528 137.600,358.707 137.600 C 358.887 137.600,359.828 136.790,360.800 135.800 C 361.772 134.810,362.394 134.013,362.183 134.029 C 361.972 134.045,361.031 134.855,360.091 135.829 M355.263 140.660 C 353.868 142.090,352.798 143.331,352.885 143.419 C 352.973 143.506,354.289 142.322,355.811 140.789 C 357.333 139.255,358.403 138.014,358.189 138.030 C 357.975 138.047,356.658 139.231,355.263 140.660 M373.847 139.737 C 373.678 140.802,373.632 141.765,373.744 141.878 C 374.036 142.169,374.505 139.424,374.314 138.540 C 374.227 138.133,374.016 138.671,373.847 139.737 M373.000 143.200 C 372.850 143.673,372.817 144.150,372.927 144.260 C 373.037 144.370,373.250 144.073,373.400 143.600 C 373.550 143.127,373.583 142.650,373.473 142.540 C 373.363 142.430,373.150 142.727,373.000 143.200 M191.268 145.048 C 190.755 145.840,190.522 146.372,190.749 146.231 C 191.382 145.841,192.899 143.599,192.527 143.605 C 192.347 143.608,191.781 144.257,191.268 145.048 M351.234 144.953 L 350.269 146.200 351.413 145.112 C 352.043 144.514,352.477 143.953,352.379 143.865 C 352.280 143.777,351.765 144.267,351.234 144.953 M184.624 147.700 C 183.643 149.075,182.426 150.797,181.920 151.528 C 181.414 152.258,180.573 153.390,180.050 154.044 C 179.528 154.699,179.182 155.315,179.282 155.415 C 179.381 155.515,180.521 154.112,181.814 152.298 C 183.107 150.484,184.775 148.145,185.520 147.100 C 186.265 146.055,186.770 145.200,186.642 145.200 C 186.514 145.200,185.606 146.325,184.624 147.700 M371.469 147.362 C 369.697 151.232,368.059 153.184,358.323 163.030 C 353.085 168.327,348.800 172.782,348.800 172.930 C 348.800 173.079,353.019 173.200,358.176 173.200 C 364.484 173.200,367.641 173.342,367.821 173.634 C 367.974 173.882,353.957 188.237,335.110 207.134 C 295.317 247.033,277.321 265.214,277.631 265.206 C 278.065 265.195,368.600 173.913,368.729 173.356 C 368.837 172.893,367.241 172.800,359.196 172.800 C 353.185 172.800,349.584 172.655,349.667 172.415 C 349.740 172.204,353.956 167.839,359.035 162.715 C 364.114 157.592,368.815 152.590,369.481 151.600 C 371.002 149.339,372.914 145.581,372.668 145.335 C 372.566 145.232,372.026 146.145,371.469 147.362 M41.661 147.025 C 41.394 147.611,41.366 147.945,41.595 147.803 C 42.182 147.440,42.888 146.000,42.478 146.000 C 42.286 146.000,41.918 146.461,41.661 147.025 M348.000 148.200 C 347.028 149.190,346.323 150.000,346.433 150.000 C 346.543 150.000,347.428 149.190,348.400 148.200 C 349.372 147.210,350.077 146.400,349.967 146.400 C 349.857 146.400,348.972 147.210,348.000 148.200 M187.787 150.100 C 183.174 156.572,182.626 157.394,183.263 156.889 C 183.618 156.608,184.736 155.168,185.749 153.689 C 186.761 152.210,188.095 150.280,188.713 149.400 C 190.141 147.367,190.485 146.800,190.294 146.800 C 190.209 146.800,189.081 148.285,187.787 150.100 M39.924 149.900 C 37.299 153.911,30.854 167.787,31.375 168.308 C 31.488 168.422,31.692 168.174,31.827 167.757 C 31.962 167.341,32.218 166.640,32.396 166.200 C 32.574 165.760,32.954 164.770,33.241 164.000 C 33.926 162.159,38.415 153.171,39.983 150.500 C 41.407 148.075,41.369 147.693,39.924 149.900 M344.678 151.413 C 344.060 151.956,343.714 152.400,343.908 152.400 C 344.102 152.400,344.683 151.950,345.200 151.400 C 346.395 150.128,346.131 150.134,344.678 151.413 M333.414 162.786 L 323.434 172.772 319.817 172.903 L 316.200 173.034 319.803 173.117 L 323.406 173.200 333.600 163.000 C 339.207 157.390,343.704 152.800,343.594 152.800 C 343.484 152.800,338.903 157.294,333.414 162.786 M178.129 156.900 C 177.073 158.073,176.530 159.014,177.120 158.650 C 177.600 158.353,179.356 156.000,179.097 156.000 C 179.010 156.000,178.575 156.405,178.129 156.900 M180.398 160.500 C 179.285 162.095,178.111 163.717,177.787 164.105 C 177.464 164.492,177.200 164.908,177.200 165.028 C 177.200 165.596,178.132 164.532,179.884 161.965 C 180.938 160.420,182.047 158.806,182.349 158.378 C 182.651 157.950,182.790 157.600,182.659 157.600 C 182.528 157.600,181.511 158.905,180.398 160.500 M175.798 160.002 C 175.398 160.444,175.166 160.899,175.282 161.015 C 175.397 161.130,175.790 160.769,176.155 160.212 C 176.952 158.996,176.793 158.902,175.798 160.002 M174.344 162.300 C 173.052 163.860,172.719 164.400,173.051 164.395 C 173.243 164.392,173.807 163.762,174.304 162.995 C 175.272 161.501,175.292 161.156,174.344 162.300 M176.333 166.300 C 176.008 166.685,174.891 168.215,173.851 169.700 L 171.960 172.400 169.731 172.400 C 167.216 172.400,167.197 172.740,169.925 169.011 C 170.654 168.015,171.151 167.200,171.029 167.200 C 170.597 167.200,167.232 172.128,167.438 172.461 C 167.769 172.996,171.917 172.862,172.390 172.300 C 172.937 171.651,176.569 166.697,176.953 166.077 C 177.394 165.363,177.006 165.502,176.333 166.300 M30.600 169.600 C 30.450 170.073,30.417 170.550,30.527 170.660 C 30.637 170.770,30.850 170.473,31.000 170.000 C 31.150 169.527,31.183 169.050,31.073 168.940 C 30.963 168.830,30.750 169.127,30.600 169.600 M29.800 172.000 C 29.650 172.473,29.617 172.950,29.727 173.060 C 29.837 173.170,30.050 172.873,30.200 172.400 C 30.350 171.927,30.383 171.450,30.273 171.340 C 30.163 171.230,29.950 171.527,29.800 172.000 M29.029 174.629 C 28.881 175.215,28.851 175.784,28.961 175.894 C 29.071 176.004,29.281 175.615,29.429 175.029 C 29.576 174.442,29.606 173.873,29.496 173.763 C 29.386 173.653,29.176 174.042,29.029 174.629 M28.200 177.600 C 28.048 178.291,28.014 178.947,28.124 179.057 C 28.234 179.167,28.448 178.691,28.600 178.000 C 28.752 177.309,28.786 176.653,28.676 176.543 C 28.566 176.433,28.352 176.909,28.200 177.600 M27.378 180.978 C 27.227 181.781,27.194 182.527,27.304 182.637 C 27.414 182.747,27.627 182.181,27.778 181.378 C 27.928 180.575,27.962 179.828,27.852 179.718 C 27.742 179.608,27.528 180.175,27.378 180.978 M115.600 182.665 C 113.141 182.836,109.487 183.643,109.000 184.123 C 108.735 184.384,108.803 184.447,109.200 184.310 C 110.942 183.707,114.704 183.130,118.800 182.839 C 122.376 182.585,122.732 182.516,120.400 182.526 C 118.750 182.534,116.590 182.596,115.600 182.665 M124.300 183.082 C 124.795 183.178,125.605 183.178,126.100 183.082 C 126.595 182.987,126.190 182.909,125.200 182.909 C 124.210 182.909,123.805 182.987,124.300 183.082 M127.200 183.261 C 127.200 184.054,116.738 194.062,116.146 193.835 C 115.846 193.719,115.600 193.799,115.600 194.013 C 115.600 195.279,117.648 193.762,122.505 188.895 C 127.809 183.581,128.462 182.800,127.600 182.800 C 127.380 182.800,127.200 183.007,127.200 183.261 M26.582 185.382 C 26.429 186.402,26.394 187.327,26.504 187.437 C 26.614 187.547,26.829 186.802,26.982 185.782 C 27.135 184.761,27.170 183.837,27.060 183.727 C 26.950 183.617,26.735 184.361,26.582 185.382 M110.219 187.883 C 110.622 188.588,111.915 190.208,113.091 191.483 C 114.267 192.757,115.000 193.395,114.719 192.900 C 114.437 192.405,114.093 192.000,113.952 192.000 C 113.812 192.000,112.920 190.965,111.970 189.700 C 109.754 186.750,109.307 186.286,110.219 187.883 M25.886 189.800 C 25.733 190.680,25.630 192.210,25.655 193.200 C 25.694 194.730,25.755 194.581,26.060 192.200 C 26.457 189.105,26.324 187.271,25.886 189.800 M371.875 195.058 C 371.724 195.210,371.603 195.528,371.606 195.767 C 371.609 196.005,371.780 195.935,371.985 195.611 C 372.741 194.415,372.803 196.648,372.904 228.800 L 373.007 261.400 373.004 228.233 C 373.000 196.162,372.927 194.007,371.875 195.058 M366.593 200.475 C 364.177 202.936,362.498 204.728,362.862 204.457 C 363.630 203.886,369.936 197.659,370.749 196.669 C 372.123 194.995,370.636 196.357,366.593 200.475 M25.314 199.800 C 25.317 200.900,25.395 201.303,25.487 200.695 C 25.579 200.086,25.577 199.186,25.482 198.695 C 25.387 198.203,25.311 198.700,25.314 199.800 M25.679 208.200 C 25.661 209.300,25.795 210.920,25.977 211.800 L 26.308 213.400 26.314 212.000 C 26.318 211.230,26.184 209.610,26.017 208.400 L 25.713 206.200 25.679 208.200 M351.381 215.647 C 350.512 216.553,350.160 217.071,350.600 216.798 C 351.346 216.335,353.442 214.000,353.112 214.000 C 353.030 214.000,352.251 214.741,351.381 215.647 M26.487 215.400 C 26.483 216.060,26.624 217.050,26.800 217.600 L 27.120 218.600 27.113 217.600 C 27.109 217.050,26.968 216.060,26.800 215.400 L 26.495 214.200 26.487 215.400 M27.256 220.400 C 27.256 220.950,27.411 221.760,27.600 222.200 C 27.913 222.929,27.944 222.912,27.944 222.000 C 27.944 221.450,27.789 220.640,27.600 220.200 C 27.287 219.471,27.256 219.488,27.256 220.400 M28.012 224.200 C 28.012 224.640,28.187 225.270,28.400 225.600 C 28.721 226.097,28.788 226.062,28.788 225.400 C 28.788 224.960,28.613 224.330,28.400 224.000 C 28.079 223.503,28.012 223.538,28.012 224.200 M28.834 227.200 C 28.846 227.530,29.011 228.160,29.200 228.600 L 29.544 229.400 29.566 228.600 C 29.578 228.160,29.413 227.530,29.200 227.200 C 28.855 226.667,28.815 226.667,28.834 227.200 M338.860 228.280 C 338.343 228.815,337.997 229.330,338.092 229.425 C 338.186 229.519,338.685 229.148,339.200 228.600 C 339.715 228.052,340.061 227.537,339.968 227.455 C 339.876 227.374,339.377 227.745,338.860 228.280 M29.600 229.925 C 29.600 231.249,32.763 239.242,32.788 237.980 C 32.795 237.639,32.650 237.189,32.466 236.980 C 32.282 236.771,31.631 235.025,31.019 233.100 C 30.011 229.931,29.600 229.012,29.600 229.925 M330.886 236.348 C 327.304 240.007,313.725 253.662,300.713 266.693 C 287.700 279.724,277.147 290.480,277.262 290.595 C 277.469 290.803,337.278 230.625,337.533 229.952 C 337.766 229.337,337.525 229.570,330.886 236.348 M114.852 232.500 C 113.949 234.891,113.089 235.825,95.054 253.984 C 84.684 264.425,76.380 272.824,76.600 272.647 C 78.135 271.417,114.400 235.154,114.400 234.850 C 114.400 234.639,114.803 233.596,115.296 232.533 L 116.192 230.600 116.420 234.400 L 116.647 238.200 116.723 234.100 C 116.815 229.191,116.275 228.730,114.852 232.500 M110.668 244.093 C 107.626 247.160,105.204 249.738,105.288 249.821 C 105.371 249.904,107.941 247.465,111.000 244.400 C 114.059 241.335,116.480 238.758,116.381 238.672 C 116.281 238.586,113.711 241.026,110.668 244.093 M33.025 239.600 C 33.435 241.105,38.673 251.254,39.631 252.400 C 40.222 253.107,40.155 252.873,39.401 251.600 C 38.814 250.610,37.079 247.280,35.543 244.200 C 34.008 241.120,32.875 239.050,33.025 239.600 M264.941 251.500 C 260.978 255.405,259.101 257.331,260.768 255.781 C 262.436 254.230,265.420 251.408,267.400 249.509 C 269.380 247.610,271.433 245.684,271.961 245.228 C 272.490 244.773,272.748 244.400,272.534 244.400 C 272.321 244.400,268.904 247.595,264.941 251.500 M102.203 252.430 C 100.888 253.734,99.948 254.800,100.115 254.800 C 100.521 254.800,104.954 250.421,104.752 250.219 C 104.665 250.132,103.518 251.127,102.203 252.430 M40.983 254.700 C 41.315 255.305,42.059 256.340,42.637 257.000 C 43.817 258.347,43.582 257.814,41.888 255.300 C 40.598 253.384,40.068 253.033,40.983 254.700 M44.340 259.516 C 44.833 260.209,45.444 260.904,45.697 261.060 C 45.950 261.217,45.754 260.777,45.260 260.084 C 44.767 259.391,44.156 258.696,43.903 258.540 C 43.650 258.383,43.846 258.823,44.340 259.516 M248.731 266.909 C 245.091 270.479,243.392 272.237,244.956 270.816 C 249.734 266.474,255.652 260.718,255.497 260.564 C 255.416 260.483,252.372 263.338,248.731 266.909 M47.649 263.592 C 48.612 264.798,50.570 266.968,52.000 268.414 C 53.430 269.861,53.950 270.314,53.155 269.422 C 52.361 268.530,51.191 267.177,50.555 266.415 C 49.920 265.653,48.612 264.213,47.649 263.215 L 45.898 261.400 47.649 263.592 M365.796 268.500 L 359.000 275.400 365.900 268.604 C 372.310 262.291,372.981 261.600,372.696 261.600 C 372.638 261.600,369.533 264.705,365.796 268.500 M157.194 281.226 L 139.387 299.280 130.394 299.051 C 118.570 298.751,113.902 298.223,103.600 296.020 C 100.891 295.440,100.284 295.609,102.800 296.242 C 111.746 298.495,121.394 299.601,132.084 299.598 L 139.400 299.596 140.600 298.448 C 141.260 297.816,149.244 289.807,158.342 280.650 C 167.440 271.492,174.955 264.000,175.042 264.000 C 175.129 264.000,175.200 264.934,175.200 266.075 L 175.200 268.151 167.900 275.537 C 163.885 279.599,159.650 283.894,158.490 285.081 L 156.379 287.238 156.490 293.319 L 156.600 299.400 185.800 299.492 L 215.000 299.585 218.900 295.765 C 224.021 290.750,223.899 290.501,218.700 295.357 L 214.600 299.186 185.800 299.093 L 157.000 299.000 156.911 293.200 L 156.823 287.400 166.211 277.801 L 175.600 268.201 175.600 265.701 C 175.600 264.325,175.465 263.194,175.300 263.186 C 175.135 263.178,166.987 271.296,157.194 281.226 M84.600 270.000 C 81.306 273.300,78.700 276.000,78.810 276.000 C 78.920 276.000,81.706 273.300,85.000 270.000 C 88.294 266.700,90.900 264.000,90.790 264.000 C 90.680 264.000,87.894 266.700,84.600 270.000 M55.200 271.364 C 55.200 271.635,57.765 273.999,59.465 275.295 L 60.600 276.160 59.800 275.235 C 58.788 274.065,55.200 271.046,55.200 271.364 M346.797 287.404 L 335.000 299.209 306.100 299.104 C 290.205 299.047,277.200 299.135,277.200 299.300 C 277.200 299.465,290.206 299.600,306.103 299.600 L 335.005 299.600 347.000 287.600 C 353.597 281.000,358.905 275.600,358.795 275.600 C 358.685 275.600,353.286 280.912,346.797 287.404 M60.805 276.273 C 60.810 276.599,61.104 276.824,65.312 279.733 C 67.904 281.526,68.021 281.497,71.000 278.342 L 73.000 276.224 70.530 278.512 C 67.449 281.365,68.111 281.493,62.022 276.873 C 61.350 276.363,60.802 276.093,60.805 276.273 M231.541 283.307 C 227.467 287.318,225.319 289.512,226.767 288.181 C 228.215 286.851,231.020 284.213,233.000 282.320 C 234.980 280.426,237.210 278.314,237.955 277.627 C 238.700 276.939,239.228 276.295,239.129 276.196 C 239.030 276.096,235.615 279.297,231.541 283.307 M73.631 280.968 C 72.392 282.223,71.579 283.369,71.702 283.689 C 71.926 284.271,81.530 289.404,81.831 289.102 C 81.928 289.006,79.928 287.873,77.387 286.585 C 71.307 283.503,71.391 283.642,74.020 280.979 C 75.204 279.781,76.083 278.800,75.973 278.800 C 75.863 278.800,74.809 279.776,73.631 280.968 M84.400 290.195 C 84.400 290.488,87.295 291.638,87.505 291.429 C 87.605 291.329,87.015 290.966,86.194 290.623 C 84.568 289.944,84.400 289.904,84.400 290.195 M90.800 292.800 C 91.130 293.013,91.670 293.188,92.000 293.188 C 92.533 293.188,92.533 293.145,92.000 292.800 C 91.670 292.587,91.130 292.412,90.800 292.412 C 90.267 292.412,90.267 292.455,90.800 292.800 M95.800 294.347 C 97.178 294.948,99.432 295.601,100.028 295.572 C 100.343 295.556,99.964 295.309,99.186 295.022 C 97.484 294.395,94.585 293.817,95.800 294.347 " stroke="none" fill="#97a8bb" fill-rule="evenodd"></path></g></svg>
