<svg preserveAspectRatio="xMidYMid meet" width="100%" height="100%" overflow="visible" style="display: block;" viewBox="0 0 78.4194 45.3745" fill="none" xmlns="http://www.w3.org/2000/svg">
<g id="svgg">
<path id="path0" fill-rule="evenodd" clip-rule="evenodd" d="M0 22.6873V45.3745H39.2097H78.4194V22.6873V0H39.2097H0V22.6873ZM77.7875 9.77478V18.9179L77.3309 19.1288C67.9032 23.4845 57.5393 26.8498 48.2191 28.5825C31.1774 31.7503 14.678 30.1289 0.890256 23.9314L0.612652 23.8066V12.2352C0.612652 5.87087 0.624219 0.652253 0.638138 0.638138C0.652253 0.624022 18.0167 0.616965 39.2256 0.622258L77.7875 0.631864V9.77478ZM52.8604 5.22626C52.473 5.36448 52.3026 5.74677 52.2758 6.53822L52.2571 7.08382H52.013H51.7692V7.4667V7.84959H52.0179H52.2669V9.45934V11.0691L52.5828 11.0579L52.8986 11.0469V9.45777V7.8688L53.1858 7.84959L53.473 7.83037V7.4667V7.10284L53.1954 7.09166L52.9178 7.08049V6.68251C52.9178 6.04908 53.0817 5.82813 53.3977 6.03516L53.4922 6.09711L53.4924 5.87244C53.4926 5.74893 53.5034 5.55935 53.5165 5.45113L53.5401 5.2541L53.3724 5.22881C53.2803 5.21489 53.1619 5.19627 53.1092 5.18764C53.0566 5.17882 52.9447 5.19627 52.8604 5.22626ZM65.0738 5.62993C64.9232 5.78735 64.8921 6.18906 65.0156 6.38569C65.3018 6.84229 65.7943 6.39216 65.6312 5.82343C65.541 5.50896 65.2775 5.41741 65.0738 5.62993ZM60.5184 5.79441L60.2122 5.95419L60.2014 6.38491L60.1904 6.81582H59.9428H59.6952V7.19871V7.58159H59.9411H60.1871L60.202 8.93138C60.2157 10.1906 60.2222 10.2957 60.2979 10.499C60.4872 11.0085 60.7637 11.1701 61.2632 11.0628L61.4567 11.0215V10.5992C61.4567 10.2112 61.4512 10.1796 61.3897 10.2075C61.2303 10.2798 61.0285 10.2467 60.9442 10.1347C60.8662 10.0306 60.8627 9.98122 60.8521 8.80415L60.8409 7.58159H61.1297H61.4183V7.19871V6.81582H61.1321H60.8458L60.8354 6.22513L60.8248 5.63463L60.5184 5.79441ZM62.9212 5.82676L62.6436 5.97713V6.39648V6.81582H62.3948H62.1458V7.19675V7.57786L62.3852 7.58923L62.6246 7.6008L62.6446 8.92178C62.6638 10.1749 62.6693 10.2555 62.7528 10.4892C62.9347 10.9989 63.2094 11.1671 63.695 11.0664L63.9073 11.0222V10.5998C63.9073 10.2112 63.9018 10.1796 63.8403 10.2075C63.6809 10.2798 63.4791 10.2467 63.3948 10.1347C63.3168 10.0306 63.3133 9.98122 63.3027 8.80709L63.2915 7.58767L63.5325 7.58727C63.6648 7.58708 63.7948 7.58571 63.821 7.58414C63.8559 7.58237 63.8689 7.47808 63.8689 7.19871V6.81582H63.5817H63.2947V6.2414C63.2947 5.58189 63.3205 5.61071 62.9212 5.82676ZM67.5691 6.92953C66.4046 7.30261 66.3201 10.418 67.4595 10.9773C67.754 11.122 68.1886 11.1293 68.4898 10.9946C68.8009 10.8554 68.813 10.8313 68.8003 10.3761L68.7893 9.9824L68.6687 10.084C68.0588 10.5978 67.3705 10.3165 67.2884 9.51972L67.266 9.30466H68.1388H69.0116L68.9869 8.8165C68.9152 7.40789 68.3643 6.67486 67.5691 6.92953ZM57.5018 6.9709C56.1769 7.29595 56.0313 10.4312 57.3146 10.9989C58.2831 11.4273 59.1229 10.3663 59.0324 8.82885C58.9579 7.56512 58.306 6.77367 57.5018 6.9709ZM55.4576 7.08049C55.289 7.18459 55.1512 7.40005 55.0512 7.71549L54.9663 7.98368L54.9555 7.55277L54.9448 7.12205H54.6779H54.4111V9.0941V11.066H54.7126H55.0144L55.0338 9.9077C55.0618 8.24717 55.199 7.86351 55.718 7.99525L55.8683 8.03348L55.8578 7.52983L55.847 7.02638L55.7131 7.01599C55.6309 7.00952 55.5319 7.03461 55.4576 7.08049ZM71.1825 7.03324C70.9833 7.10852 70.7853 7.3926 70.6804 7.75392L70.6135 7.98368L70.6108 7.55277L70.6081 7.12205H70.3208H70.0338V9.0941V11.066H70.3563H70.679L70.6939 9.85026C70.7141 8.19522 70.8404 7.84743 71.3654 7.99996L71.4911 8.03642L71.4803 7.5314L71.4697 7.02638L71.3548 7.01893C71.2917 7.01481 71.214 7.02128 71.1825 7.03324ZM65.056 9.11312V11.066H65.3251H65.5943L65.5908 9.11312L65.5871 7.16028H65.3216H65.056V9.11312ZM68.1384 7.78469C68.2764 7.92271 68.3872 8.22737 68.3872 8.4693V8.61535H67.8267H67.266L67.2884 8.40029C67.3525 7.77881 67.8049 7.45102 68.1384 7.78469ZM58.0676 7.90056C58.6322 8.48988 58.3931 10.3008 57.7506 10.3C57.3391 10.2996 57.0938 9.81164 57.0921 8.99059C57.0901 7.97271 57.5955 7.40789 58.0676 7.90056ZM9.34289 15.6417V21.1366H10.0322H10.7215V18.6668V16.1969H12.7316H14.7419V18.6668V21.1366H15.4312H16.1205V15.6417V10.1471H15.4312H14.7419V12.4446V14.7419H12.7316H10.7215V12.4446V10.1471H10.0322H9.34289V15.6417ZM19.6049 15.6417V21.1366H21.8639H24.1232V20.3516V19.5666H22.5532H20.9833V17.8818V16.1969H22.4576H23.9316V15.4694V14.7419H22.4576H20.9833V13.1721V11.6022H22.534H24.085V11.2826C24.085 11.1069 24.0961 10.7795 24.1099 10.5551L24.1348 10.1471H21.8698H19.6049V15.6417ZM27.1482 15.6398V21.1366H27.8373H28.5266V18.7166C28.5266 17.2393 28.5404 16.3106 28.5619 16.333C28.5813 16.353 28.7082 16.5675 28.8436 16.8096C28.9793 17.0519 29.3543 17.7151 29.677 18.2839C29.9995 18.8524 30.483 19.7054 30.7512 20.1793L31.239 21.0407L32.1073 21.0511L32.9756 21.0613L32.8989 20.9362C32.8568 20.8674 32.2159 19.7858 31.4746 18.5327C30.7335 17.2797 30.1097 16.233 30.0884 16.2069C30.0452 16.1542 30.0533 16.1501 30.3264 16.0799C31.4966 15.7799 32.2823 14.7548 32.4372 13.326C32.5991 11.8333 31.9498 10.698 30.69 10.271L30.3836 10.1673L28.766 10.1551L27.1482 10.1432V15.6398ZM35.6105 15.6427V21.1383L36.29 21.1278L36.9697 21.1174V18.4466C36.9697 16.9776 36.9783 15.776 36.9889 15.7764C36.9995 15.7768 37.1028 15.9456 37.2186 16.1517C37.3345 16.3579 38.015 17.5634 38.7312 18.8307L40.0329 21.135L40.952 21.1113C41.4574 21.0984 41.876 21.0835 41.8824 21.0784C41.8922 21.0701 40.8875 19.4288 38.9913 16.3552C38.6443 15.7931 38.4477 15.438 38.4622 15.4004C38.4833 15.3451 39.5157 13.6865 41.0888 11.1808L41.7258 10.1661L40.9006 10.1559C40.2717 10.1481 40.0649 10.1571 40.031 10.1941C39.9947 10.2337 38.5139 12.6524 37.2763 14.694C37.1326 14.9311 37.0047 15.1248 36.9924 15.1248C36.9799 15.1248 36.9728 14.0608 36.9767 12.7604C36.9806 11.46 36.9744 10.34 36.9628 10.2716L36.9418 10.1471H36.276H35.6105V15.6427ZM46.3886 10.1941C46.3727 10.2375 45.3635 13.8514 43.858 19.2555C43.5741 20.2742 43.3479 21.1138 43.3553 21.1211C43.3626 21.1285 43.6808 21.1236 44.0623 21.1103L44.7559 21.0864L45.0669 19.9722C45.2378 19.3596 45.3939 18.8195 45.4137 18.772L45.4495 18.686H47.1524H48.8553L48.8953 18.8295C48.9172 18.9085 49.0602 19.4598 49.2129 20.0546L49.4907 21.136L50.2641 21.1362L51.0375 21.1366L50.984 20.9546C50.9544 20.8547 50.8101 20.342 50.6633 19.8154C50.4194 18.9418 50.0165 17.5063 48.584 12.4061C48.3089 11.4269 48.0556 10.5223 48.0209 10.3959L47.958 10.1661L47.1822 10.1559C46.5823 10.1479 46.4025 10.1565 46.3886 10.1941ZM30.0268 11.6353C31.3105 12.0501 31.3484 14.3017 30.0823 14.9344C29.856 15.0475 29.8503 15.0483 29.1906 15.0483H28.5266V13.3029V11.5576L29.2063 11.5737C29.58 11.5825 29.9494 11.6102 30.0268 11.6353ZM47.8184 14.725C48.1801 16.074 48.4761 17.2001 48.4761 17.2272C48.4761 17.278 45.8693 17.2789 45.8185 17.2282C45.8065 17.2162 45.96 16.5873 46.1592 15.8305C46.3586 15.0738 46.6541 13.95 46.8158 13.3333C46.9775 12.7163 47.1212 12.2254 47.1354 12.2419C47.1493 12.2585 47.4567 13.376 47.8184 14.725ZM62.0694 34.9404V35.304H61.7988C61.3532 35.304 61.2652 35.4144 61.2652 35.9729V36.2996H61.6673H62.0694V36.625V36.9506H61.6673H61.2652V38.6163V40.2819H60.8631H60.461V38.6163V36.9506H60.2314H60.0016V36.625V36.2996H60.2314H60.461L60.4614 35.8881C60.4618 34.9423 60.808 34.5863 61.7343 34.579L62.0694 34.5765V34.9404ZM9.53266 36.5962C9.79498 37.6752 10.0208 38.5455 10.0342 38.5298C10.0528 38.5082 10.7286 36.1314 11.1067 34.7584L11.1461 34.6149H11.49C11.8111 34.6149 11.8358 34.6204 11.8664 34.701C11.8845 34.7484 12.1374 35.6357 12.4285 36.6728C12.7196 37.7099 12.969 38.5457 12.9827 38.53C12.9964 38.5141 13.1213 38.0275 13.2605 37.4484C13.3995 36.8693 13.6109 35.9947 13.7301 35.5052L13.9469 34.6149H14.4019C14.6521 34.6149 14.8568 34.6304 14.8568 34.6494C14.8568 34.6686 14.5294 35.9353 14.1292 37.4645C13.7291 38.9937 13.4017 40.2531 13.4017 40.2633C13.4017 40.2735 13.2301 40.2819 13.0204 40.2819H12.6389L12.5851 40.1C12.5555 40 12.3018 39.1295 12.0215 38.1656C11.741 37.2018 11.4994 36.4264 11.4845 36.4425C11.4628 36.4664 10.5425 39.6179 10.4051 40.1396L10.3669 40.2844L9.98397 40.2735L9.60128 40.2627L8.88198 37.5133C8.48635 36.0012 8.15366 34.7408 8.14268 34.7124C8.10818 34.6222 8.16072 34.6122 8.6132 34.6231L9.05548 34.6339L9.53266 36.5962ZM16.3418 35.0413L16.331 35.4679L15.9097 35.4669L15.4886 35.466L15.4778 35.0403L15.4669 34.6149H15.9097H16.3526L16.3418 35.0413ZM33.4661 35.6122V36.6095L33.6098 36.4946C34.2703 35.9659 35.3607 36.1594 35.723 36.8695C36.0237 37.459 36.0223 39.0486 35.7206 39.6398C35.3554 40.3558 34.2244 40.5568 33.6078 40.0155L33.4661 39.891V40.0864V40.2819H33.064H32.6621V37.4484V34.6149H33.064H33.4661V35.6122ZM47.8156 35.1031C47.9017 35.3715 48.084 35.9445 48.2209 36.3762C48.3577 36.8079 48.5793 37.5049 48.7132 37.9252L48.9566 38.689L49.4695 37.0636C49.7516 36.1696 50.0408 35.2529 50.1122 35.0264L50.2419 34.6149H50.6991C50.9507 34.6149 51.1565 34.6279 51.1565 34.6437C51.1565 34.6596 50.7372 35.9304 50.2247 37.4676L49.2929 40.2627H48.9531H48.6132L47.6837 37.4484C47.1724 35.9004 46.7538 34.6296 46.7537 34.6243C46.7533 34.619 46.9568 34.6149 47.2059 34.6149H47.659L47.8156 35.1031ZM52.6114 35.0329C52.6114 35.2713 52.5953 35.4564 52.5739 35.4636C52.5534 35.4707 52.3552 35.4709 52.1336 35.4644L51.7307 35.4522V35.0335V34.6149H52.1711H52.6114V35.0329ZM58.7467 36.9922L58.7571 39.3695L58.8646 39.462C58.9573 39.5416 59.011 39.5544 59.257 39.5544H59.5421V39.918V40.2819H59.2096C58.4348 40.2819 58.0368 39.9914 57.9349 39.3515C57.891 39.0754 57.8802 34.6814 57.9233 34.638C57.9361 34.6253 58.1243 34.6149 58.3415 34.6149H58.7363L58.7467 36.9922ZM67.6214 36.9675V39.3203L67.7138 39.4277C67.7967 39.5244 67.8365 39.5371 68.1063 39.5544L68.4064 39.5734V39.918V40.2627L67.9851 40.2597C67.3815 40.2556 67.0851 40.0933 66.8888 39.6592L66.7982 39.4587L66.7873 37.0871C66.7812 35.7828 66.7849 34.6929 66.7955 34.6653C66.8098 34.6281 66.92 34.6149 67.2182 34.6149H67.6214V36.9675ZM70.1103 35.7061V36.2996H70.4869C70.9386 36.2996 70.898 36.2647 70.8827 36.6409L70.8704 36.9506H70.4902H70.1103V38.0744C70.1103 39.5169 70.1238 39.5544 70.6445 39.5544H70.8761V39.8798C70.8761 40.0588 70.8804 40.2182 70.8857 40.2341C70.9017 40.2819 70.345 40.2884 70.1254 40.2427C69.8352 40.1825 69.5868 40.0013 69.4435 39.7457L69.3253 39.5351L69.3063 38.2524L69.2871 36.9697L69.0669 36.9583L68.8468 36.9467V36.6615C68.8468 36.5046 68.8424 36.3633 68.8371 36.3474C68.8319 36.3317 68.9354 36.3137 69.0669 36.3074L69.3063 36.296V35.7044V35.1127H69.7082H70.1103V35.7061ZM19.6892 36.2268C19.9058 36.2717 20.1565 36.3986 20.2644 36.5178C20.3632 36.6268 19.7648 37.2318 19.6541 37.1347C19.2939 36.8187 18.7291 36.9036 18.4766 37.3118L18.3603 37.4996L18.3496 38.8907L18.3386 40.2819H17.9184H17.4981L17.5081 38.2687L17.5179 36.2556L17.9104 36.2488L18.3029 36.2421V36.4472V36.6523L18.4446 36.5278C18.7626 36.2486 19.2388 36.1335 19.6892 36.2268ZM30.5763 36.3C31.2729 36.5397 31.6644 37.2035 31.666 38.1471L31.6663 38.5204H30.3614H29.0565L29.0775 38.6257C29.0889 38.6837 29.1093 38.7953 29.1228 38.8735C29.2469 39.5953 30.293 39.8429 30.9353 39.3026L31.0568 39.2003L31.2723 39.3885C31.6375 39.7075 31.5918 39.8292 30.9963 40.1245C29.817 40.7093 28.5478 40.1111 28.3096 38.8582C27.9718 37.0812 29.1109 35.7959 30.5763 36.3ZM38.8376 36.2411C39.6585 36.415 40.1347 37.0924 40.1441 38.0993L40.1478 38.5014L38.8554 38.5114L37.5633 38.5216V38.6288C37.5633 39.4903 38.6261 39.9129 39.3581 39.3426C39.5716 39.1762 39.5334 39.167 39.8167 39.4528L40.0576 39.6961L39.8729 39.8588C38.7876 40.8161 37.0889 40.2993 36.7954 38.9225C36.4374 37.2422 37.4274 35.9424 38.8376 36.2411ZM43.3146 36.2278C44.2634 36.4291 44.4275 36.8473 44.4087 39.0182L44.3981 40.2627L43.9864 40.2737L43.5749 40.2844V38.9692C43.5749 37.9207 43.5634 37.615 43.5183 37.4633C43.3295 36.8271 42.3786 36.7556 42.0491 37.3525C41.9946 37.4515 41.9832 37.6605 41.9667 38.8651L41.9475 40.2627L41.5358 40.2737L41.1243 40.2844V38.2755V36.2668L41.4645 36.2545C41.9334 36.2376 41.9283 36.2356 41.9283 36.437V36.6072L42.1195 36.4758C42.4796 36.228 42.9021 36.1404 43.3146 36.2278ZM55.6472 36.2411C56.4777 36.417 56.9478 37.092 56.9548 38.1185L56.9574 38.5014L55.6652 38.5114L54.3729 38.5216V38.6288C54.3729 39.4908 55.4357 39.9129 56.1687 39.3418C56.373 39.1827 56.3387 39.1742 56.6343 39.4569L56.8727 39.6851L56.6882 39.8524C55.6188 40.8204 53.8935 40.3001 53.6061 38.9225C53.2533 37.232 54.2353 35.942 55.6472 36.2411ZM64.4116 36.2233C64.9805 36.3054 65.3783 36.5615 65.5592 36.9614C65.6486 37.1592 65.6496 37.1759 65.6606 38.7215L65.6717 40.2819H65.2681H64.8644V40.1078V39.9337L64.7209 40.0488C64.1926 40.4725 63.0414 40.3795 62.6624 39.8827C62.3285 39.4452 62.3278 38.7308 62.6606 38.3418C62.9392 38.0164 63.3397 37.9085 64.2716 37.9081L64.8466 37.9077L64.824 37.6005C64.7876 37.1055 64.6137 36.9477 64.0728 36.9195C63.6701 36.8983 63.4576 36.9559 63.2431 37.1447L63.0774 37.2906L62.822 37.0332L62.5663 36.7758L62.7295 36.6162C63.0904 36.2631 63.7011 36.1204 64.4116 36.2233ZM16.3118 38.262V40.2819H15.9097H15.5078V38.262V36.2421H15.9099H16.3118V38.262ZM25.8096 37.6409C26.066 38.4202 26.267 38.9746 26.2813 38.9417C26.2952 38.9101 26.4673 38.2985 26.6642 37.5823L27.0222 36.2805L27.4727 36.2696C27.8265 36.2611 27.9191 36.2694 27.9046 36.308C27.8944 36.3349 27.8075 36.607 27.7117 36.9122C27.3811 37.9654 26.9618 39.3067 26.8139 39.7841L26.6657 40.2627H26.3072H25.9484L25.4967 38.908C25.2483 38.1628 25.0376 37.5458 25.0283 37.5366C25.0193 37.5276 24.8062 38.1371 24.5547 38.8913L24.0977 40.2627H23.7399H23.3821L22.7648 38.2716L22.1474 36.2805L22.5671 36.2696C22.7981 36.2637 22.999 36.2721 23.0135 36.2888C23.0281 36.3052 23.1992 36.9046 23.3939 37.6207C23.5884 38.3367 23.7591 38.9348 23.7734 38.9501C23.7875 38.9652 24.0024 38.3673 24.2508 37.6213L24.7023 36.2651L24.9201 36.2535C25.3855 36.2292 25.303 36.1004 25.8096 37.6409ZM52.5639 38.2659L52.5739 40.2844L52.1618 40.2737L51.7499 40.2627L51.74 38.2649C51.7307 36.4092 51.7347 36.2662 51.7952 36.2547C51.8311 36.2478 52.0166 36.2433 52.2073 36.2449L52.5539 36.2474L52.5639 38.2659ZM29.718 36.9193C29.3887 36.9936 29.1648 37.2992 29.085 37.7835L29.0646 37.9077H29.9678H30.8708L30.8449 37.7642C30.7261 37.1045 30.303 36.7873 29.718 36.9193ZM38.2073 36.9265C37.8478 37.0251 37.6241 37.3031 37.5756 37.7119L37.5525 37.9077H38.4386H39.3246V37.7786C39.3246 37.1982 38.767 36.7732 38.2073 36.9265ZM55.062 36.9161C54.7019 36.9863 54.434 37.301 54.3854 37.7107L54.3621 37.9077H55.2482H56.1342V37.7786C56.1342 37.2155 55.6256 36.8063 55.062 36.9161ZM33.9429 37.0044C33.3028 37.2833 33.3004 39.1689 33.9397 39.5053C34.2314 39.6589 34.7096 39.5636 34.8953 39.315C35.1427 38.9839 35.1937 37.7829 34.9786 37.3525C34.7982 36.9918 34.3318 36.835 33.9429 37.0044ZM63.4964 38.5773C63.3272 38.6508 63.2184 38.8413 63.2182 39.0642C63.2178 39.4654 63.4239 39.6124 63.9838 39.6106C64.6139 39.6085 64.8262 39.4054 64.8262 38.8053V38.5204L64.2231 38.522C63.7924 38.5229 63.5846 38.5388 63.4964 38.5773Z" fill="#9B0405"/>
<path id="path1" fill-rule="evenodd" clip-rule="evenodd" d="M0.650811 12.2282V23.8055L0.966844 23.942C2.36684 24.5464 2.85108 24.7491 3.63763 25.0604C5.09507 25.6372 6.84638 26.2528 8.65377 26.8235C14.2463 28.5895 20.5352 29.6688 27.512 30.0601C29.5601 30.175 33.863 30.146 36.4146 29.9999C48.7734 29.2928 61.9305 25.9005 75.5097 19.9198C76.2149 19.6093 76.5888 19.4413 77.4914 19.0299L77.769 18.9033V9.77717V0.65085H39.2099H0.650811V12.2282ZM53.4925 5.22391C53.5465 5.24528 53.5474 5.45231 53.4965 6.08085C53.4933 6.11947 53.4731 6.11731 53.4073 6.07124C53.1014 5.85696 52.9187 6.11006 52.9183 6.74879L52.9181 7.08384H53.2053H53.4925V7.46672V7.84961H53.2053H52.9181V9.45781V11.066H52.5735H52.2288V9.45781V7.84961H51.999H51.7695V7.46672V7.08384H51.9934H52.2174L52.2396 6.57646C52.2731 5.80873 52.4468 5.37389 52.7811 5.22097C52.8962 5.16843 53.3563 5.17019 53.4925 5.22391ZM65.4692 5.53544C65.7319 5.71933 65.7618 6.22984 65.5245 6.48079C65.2746 6.74506 64.9066 6.48314 64.904 6.03909C64.9017 5.64581 65.2208 5.36134 65.4692 5.53544ZM61.142 6.78545L61.4379 6.79663V7.19872V7.60082L61.141 7.612L60.8444 7.62317V8.65008C60.8444 10.1454 60.9409 10.4206 61.383 10.184C61.452 10.1471 61.4571 10.1587 61.4571 10.3508C61.4571 10.4641 61.4679 10.6606 61.481 10.787L61.5051 11.0168L61.3796 11.0607C61.0209 11.1858 60.6482 11.0907 60.4431 10.8215C60.2096 10.5157 60.183 10.3332 60.1641 8.9122L60.1469 7.61984H59.9212H59.6956V7.19872V6.77741H59.924H60.1526L60.1633 6.36688L60.1743 5.95635L60.4998 5.7752L60.8252 5.59405L60.8358 6.18417L60.8462 6.77428L61.142 6.78545ZM63.3035 6.21259L63.3141 6.79663L63.6109 6.8078L63.9077 6.81898V7.21951V7.61984H63.6013H63.295V8.64851C63.295 10.1456 63.3915 10.4206 63.8336 10.184C63.9026 10.1471 63.9077 10.1587 63.9077 10.3508C63.9077 10.4641 63.9185 10.6616 63.9318 10.7892L63.9561 11.0213L63.8075 11.0627C63.3874 11.1793 63.0802 11.0864 62.8665 10.7784C62.6602 10.4806 62.6344 10.2869 62.6153 8.89299L62.5981 7.61984H62.372H62.1462V7.21774V6.81584H62.376H62.6057L62.6104 6.43295C62.6132 6.2222 62.6175 6.03203 62.62 6.01027C62.6246 5.97341 63.2029 5.63248 63.2653 5.62993C63.2805 5.62934 63.2978 5.89146 63.3035 6.21259ZM68.2616 6.97562C68.738 7.19794 69.0385 8.04135 69.0385 9.1555V9.34292H68.1575H67.2762L67.3017 9.50564C67.4303 10.3306 67.985 10.5659 68.6384 10.0724L68.8472 9.9148V10.3545V10.7941L68.7201 10.8911C68.1208 11.3481 67.2419 11.1129 66.8959 10.4026C66.5444 9.68091 66.5534 8.25386 66.9139 7.5422C67.2166 6.94504 67.7319 6.7284 68.2616 6.97562ZM58.183 7.02718C59.405 7.61906 59.3356 10.6323 58.0905 11.0458C57.1818 11.3477 56.4739 10.5637 56.4145 9.18981C56.3463 7.61317 57.2106 6.55607 58.183 7.02718ZM55.8857 7.54612C55.8857 7.9843 55.8771 8.05801 55.8283 8.04488C55.4468 7.94332 55.2829 8.05605 55.138 8.51971C55.1064 8.62067 55.0821 9.08453 55.0666 9.87912L55.0433 11.0852H54.7179H54.3922L54.3824 9.08453L54.3724 7.08384H54.6792H54.9859L54.9866 7.4379L54.9876 7.79217L55.0755 7.57847C55.2592 7.13226 55.5044 6.93641 55.7899 7.00797L55.8857 7.03189V7.54612ZM71.5276 7.55181C71.5276 8.04782 71.5225 8.08546 71.4605 8.05821C70.8677 7.79766 70.6871 8.29111 70.6857 10.1773L70.6852 11.1074L70.3501 11.0962L70.0151 11.0852L70.0051 9.08453L69.9953 7.08384H70.3019H70.6085L70.6112 7.45712C70.6138 7.81001 70.6167 7.82314 70.6642 7.69434C70.8518 7.1848 71.1247 6.94111 71.4413 7.00013C71.5258 7.01581 71.5276 7.02659 71.5276 7.55181ZM65.5924 9.11315V11.1044H65.3052H65.0181V9.11315V7.12207H65.3052H65.5924V9.11315ZM67.6754 7.71277C67.4946 7.79158 67.3547 8.06193 67.3023 8.43364L67.2821 8.57715H67.8383H68.3943L68.3692 8.41443C68.2763 7.81275 68.0263 7.56004 67.6754 7.71277ZM57.5904 7.77707C56.876 8.06526 56.9866 10.2524 57.7164 10.2732C58.0144 10.2816 58.1934 10.0624 58.2952 9.56485C58.5087 8.51912 58.1303 7.55926 57.5904 7.77707ZM10.7223 10.1567C10.7227 10.183 10.7223 11.2168 10.7215 12.454L10.7197 14.7037H12.7308H14.7419V12.4062V10.1089H15.4504H16.1588V15.6228V21.1367H15.4504H14.7419V18.6861V16.2355H12.7553H10.7686L10.746 16.3215C10.7335 16.369 10.7243 17.4674 10.7254 18.7625L10.7278 21.1175L10.0353 21.1279L9.34288 21.1383V15.6236V10.1089H10.0322C10.5576 10.1089 10.7217 10.1203 10.7223 10.1567ZM24.1145 10.8651L24.1041 11.6212L22.5629 11.6312L21.0218 11.6412V13.172V14.7027L22.4863 14.7129L23.951 14.7229V15.4695V16.2162L22.4863 16.2262L21.0218 16.2362V17.9015V19.5667H22.5725H24.1233V20.3517V21.1367H21.845H19.5667V15.6228V10.1089H21.8458H24.1249L24.1145 10.8651ZM30.6135 10.2195C31.8071 10.6125 32.4074 11.4393 32.4597 12.7622C32.5264 14.4469 31.7075 15.7414 30.3514 16.0951C30.2283 16.1272 30.1218 16.159 30.115 16.1659C30.1081 16.1727 30.1852 16.316 30.2859 16.4844C30.3867 16.6528 30.7449 17.2559 31.0817 17.8244C31.4185 18.393 31.9894 19.3554 32.3503 19.9629C32.7115 20.5705 33.0067 21.0746 33.0067 21.083C33.0067 21.0914 32.6113 21.0983 32.1278 21.0983H31.2487L31.0997 20.8399C31.0178 20.6977 30.4183 19.6401 29.7674 18.4896L28.5842 16.398L28.5742 18.7672L28.5644 21.1367H27.8563H27.1483V15.6201V10.1036L28.7469 10.1175C30.2936 10.1308 30.3543 10.1342 30.6135 10.2195ZM36.9983 12.5995L37.0083 15.0901L38.5175 12.615C39.3475 11.2536 40.0457 10.1324 40.069 10.1236C40.0925 10.1146 40.4858 10.1118 40.943 10.1175L41.7744 10.1279L40.1114 12.784C38.5598 15.2617 38.4518 15.4456 38.5014 15.5218C39.019 16.317 41.917 21.0869 41.8956 21.1083C41.8793 21.1245 41.4461 21.1334 40.9328 21.1277L39.9996 21.1175L39.2093 19.7198C38.7747 18.9511 38.1124 17.7793 37.738 17.1161C37.3633 16.4527 37.0416 15.8935 37.023 15.8735C37.0032 15.8524 36.9891 16.9465 36.9891 18.4869V21.1367H36.2807H35.5722V15.6228V10.1089H36.2803H36.9885L36.9983 12.5995ZM48.5686 12.2627C48.9009 13.4472 49.2822 14.8043 49.4161 15.2781C49.8164 16.697 50.9964 20.9179 51.0243 21.0312L51.0502 21.1367H50.264H49.4778L49.4386 21.0122C49.4169 20.9438 49.2751 20.4007 49.1232 19.8055L48.8471 18.7235L47.1431 18.7335L45.439 18.7433L45.1061 19.9304L44.7734 21.1175L44.0359 21.1279C43.4375 21.1363 43.3019 21.1287 43.3176 21.0877C43.3283 21.06 43.3726 20.9089 43.416 20.7519C43.5091 20.416 44.1714 18.0426 44.6283 16.4076C44.8048 15.7759 45.2608 14.1389 45.6413 12.7701C46.0221 11.4011 46.3499 10.2424 46.3703 10.195C46.4067 10.1097 46.4146 10.1089 47.1856 10.1089H47.9645L48.5686 12.2627ZM28.5742 13.2959L28.5842 15.0292H29.2159C29.8376 15.0292 29.8515 15.0274 30.0769 14.9166C31.2307 14.3502 31.3189 12.3486 30.2161 11.7608C29.9628 11.6259 29.8858 11.6136 29.1102 11.5838L28.5642 11.5628L28.5742 13.2959ZM46.9562 12.894C46.8698 13.2259 46.582 14.3195 46.3167 15.324C46.0513 16.3286 45.8343 17.1663 45.8343 17.1853C45.8343 17.2139 48.4339 17.2792 48.467 17.2516C48.4723 17.2471 48.4603 17.1932 48.4403 17.1318C48.4205 17.0704 48.1253 15.9778 47.7846 14.7037C47.4438 13.4296 47.1535 12.3654 47.1394 12.3388C47.125 12.3121 47.0427 12.5621 46.9562 12.894ZM15.5079 35.0363V35.4574H15.9098H16.3119V35.0363V34.6151H15.9098H15.5079V35.0363ZM51.731 35.0363V35.4574H52.1524H52.5735V35.0363V34.6151H52.1524H51.731V35.0363ZM61.1301 34.6759C60.6833 34.8345 60.4908 35.1811 60.4678 35.8669L60.4521 36.3382H60.2271H60.002V36.6252V36.9125H60.2318H60.4613V38.5781V40.2437H60.8634H61.2655V38.5781V36.9125H61.6484H62.0313V36.6252V36.3382H61.6484H61.2655V35.9367C61.2655 35.3978 61.3404 35.2964 61.7557 35.2729L62.0252 35.2578L62.0388 35.0033C62.0605 34.5969 62.0782 34.6145 61.6535 34.6181C61.4385 34.6198 61.2203 34.644 61.1301 34.6759ZM8.17188 34.7204C8.20697 34.8326 9.61088 40.203 9.61088 40.2255C9.61088 40.2371 9.77831 40.2416 9.98299 40.2357L10.3551 40.2247L10.5147 39.6695C11.3099 36.9042 11.4604 36.3917 11.4847 36.3657C11.5 36.3492 11.7067 37.0038 11.9437 37.8208C12.1809 38.6375 12.4366 39.5168 12.512 39.7748L12.6491 40.2437H13.0212H13.3931L13.4109 40.1385C13.4209 40.0806 13.5852 39.4388 13.7762 38.7122C14.5664 35.7058 14.8186 34.7341 14.8186 34.6936C14.8186 34.664 14.686 34.6542 14.3888 34.6616L13.9591 34.6724L13.6225 36.051C13.4374 36.8091 13.2215 37.7008 13.1429 38.0323C13.0641 38.3638 12.99 38.6351 12.978 38.6353C12.9661 38.6355 12.8296 38.1832 12.6746 37.6304C12.5195 37.0777 12.2685 36.1859 12.117 35.6489L11.8413 34.6724L11.4967 34.6616C11.1646 34.651 11.1514 34.6538 11.1338 34.7381C11.0838 34.9763 10.0583 38.5824 10.0326 38.61C10.0163 38.6275 9.98161 38.5499 9.95554 38.4377C9.92927 38.3254 9.72087 37.4667 9.49227 36.5296C9.26348 35.5924 9.06704 34.7869 9.05587 34.7394C9.03587 34.6563 9.01979 34.6534 8.59299 34.6534C8.18933 34.6534 8.15266 34.6592 8.17188 34.7204ZM32.6622 37.4486V40.2437H33.0451H33.428V40.0524C33.428 39.8348 33.4529 39.8199 33.5841 39.9604C34.006 40.4127 35.0609 40.3855 35.4983 39.9112C36.0872 39.2721 36.0814 37.1967 35.4887 36.5807C35.0595 36.1345 34.0871 36.1073 33.608 36.528L33.4662 36.6525V35.6528V34.6534H33.0641H32.6622V37.4486ZM46.801 34.7012C46.8184 34.7485 47.0792 35.5377 48.0508 38.4824C48.3253 39.3143 48.5695 40.051 48.5935 40.1194L48.637 40.2437H48.9546C49.1736 40.2437 49.2779 40.229 49.2904 40.1959C49.3508 40.0359 51.1184 34.7032 51.1184 34.6808C51.1184 34.6657 50.9239 34.6534 50.6863 34.6534H50.254L49.648 36.5774C49.3145 37.6357 49.0207 38.5532 48.9946 38.6165C48.942 38.7447 48.9579 38.7902 48.0486 35.9077L47.653 34.654L47.2182 34.6536C46.8865 34.6534 46.7874 34.6647 46.801 34.7012ZM57.9425 37.0752C57.9546 39.7644 57.9437 39.6495 58.2138 39.9312C58.4367 40.1639 58.5932 40.2194 59.0733 40.2367L59.5042 40.2522V39.9275V39.6028L59.21 39.584C58.95 39.5674 58.9055 39.5532 58.8271 39.4621L58.7383 39.3588L58.7345 37.1305C58.7326 35.905 58.7302 34.8463 58.7296 34.7779L58.7285 34.6534H58.3299H57.9315L57.9425 37.0752ZM66.8177 37.002C66.8177 39.5454 66.8187 39.5583 67.0273 39.8595C67.2074 40.1192 67.4568 40.2206 67.9569 40.2375L68.3876 40.2522V39.9267V39.6013L68.1006 39.5868C67.8485 39.574 67.8007 39.5593 67.7081 39.4668L67.6027 39.3615L67.5917 37.0073L67.5807 34.6534H67.1992H66.8177V37.002ZM69.3067 35.7242V36.3382H69.077H68.8472V36.6252V36.9125H69.0746H69.302L69.314 38.1856L69.3257 39.4589L69.4336 39.6783C69.6328 40.084 69.9443 40.2437 70.5364 40.2437H70.8765V39.9226V39.6015L70.604 39.5862C70.3542 39.5721 70.3223 39.5605 70.2211 39.4472L70.1107 39.3237V38.1182V36.9125H70.4936H70.8765V36.6252V36.3382H70.4946H70.1127L70.1021 35.735L70.0917 35.1319L69.6992 35.1211L69.3067 35.1102V35.7242ZM18.9731 36.2769C18.7441 36.3492 18.5663 36.4478 18.4274 36.5798L18.303 36.6978V36.4796V36.2616H17.9201H17.5372V38.2526V40.2437H17.9201H18.303L18.3039 38.9898C18.3049 37.6625 18.322 37.4959 18.4802 37.2567C18.7103 36.9089 19.3448 36.7993 19.5859 37.066C19.6894 37.1801 19.7239 37.1654 20.0209 36.8791C20.3381 36.5737 20.3364 36.5796 20.1497 36.448C19.8486 36.2357 19.3381 36.1614 18.9731 36.2769ZM29.4849 36.2847C28.3035 36.6021 27.8406 38.6681 28.7107 39.7416C29.2716 40.4339 30.6449 40.4841 31.3918 39.8397L31.5575 39.6968L31.3358 39.4725C31.0721 39.2062 31.1095 39.2117 30.8415 39.3993C30.0765 39.9353 29.0628 39.4856 29.0628 38.6104V38.4824H30.3704H31.6781L31.6528 38.0672C31.5702 36.705 30.6712 35.9659 29.4849 36.2847ZM37.9805 36.2788C36.9048 36.5754 36.4041 38.1697 36.9926 39.4242C37.4282 40.3525 38.9172 40.6017 39.8012 39.8942C40.0627 39.685 40.0633 39.6944 39.77 39.4321L39.526 39.2139L39.4371 39.3084C38.8117 39.9742 37.6627 39.5942 37.5417 38.6818L37.5153 38.4824H38.8274H40.1394L40.1186 38.0325C40.0584 36.7219 39.1311 35.9614 37.9805 36.2788ZM42.533 36.2949C42.4126 36.3347 42.2275 36.4296 42.1215 36.5058L41.9285 36.6443V36.4529V36.2616H41.5457H41.1628V38.2526V40.2437H41.5439H41.925L41.9364 38.8749C41.9474 37.558 41.9509 37.5002 42.0301 37.3528C42.3534 36.7523 43.2715 36.768 43.5156 37.3779C43.5699 37.5135 43.5797 37.7288 43.5842 38.89L43.5895 40.2437H43.9843H44.3792V38.8706C44.3792 37.4036 44.3609 37.2026 44.1978 36.8793C43.931 36.3506 43.1709 36.0837 42.533 36.2949ZM54.7943 36.278C53.716 36.578 53.2128 38.1703 53.8009 39.4205C54.2411 40.3559 55.722 40.6054 56.6111 39.8942C56.8711 39.6862 56.8717 39.6958 56.579 39.4321L56.3366 39.2137L56.2312 39.3239C55.6083 39.974 54.475 39.5872 54.3544 38.6834L54.3277 38.4824H55.6332H56.9387L56.9379 38.1474C56.9354 36.788 55.9742 35.9498 54.7943 36.278ZM63.3695 36.2908C63.0953 36.3651 62.7477 36.5674 62.6571 36.7058C62.6016 36.7903 62.6087 36.8023 62.8416 37.0213L63.0837 37.2489L63.2153 37.1334C63.428 36.9466 63.583 36.8974 63.9651 36.8952C64.5953 36.8919 64.8648 37.1279 64.8648 37.6829V37.9394L64.1087 37.9562C63.2905 37.9746 63.1686 37.9976 62.8871 38.1868C62.3054 38.5775 62.2623 39.5374 62.8059 39.9969C63.2551 40.3767 64.2184 40.3931 64.6948 40.0294C64.9064 39.8681 64.8946 39.8656 64.8854 40.0716L64.8776 40.2437H65.2542H65.6308V38.7575C65.6308 36.9391 65.6114 36.8444 65.1754 36.5237C64.8015 36.2488 63.9367 36.1371 63.3695 36.2908ZM15.5079 38.2526V40.2437H15.9098H16.3119V38.2526V36.2616H15.9098H15.5079V38.2526ZM22.1855 36.3286C22.1967 36.3655 22.2996 36.6972 22.4143 37.0658C22.529 37.4341 22.7717 38.2181 22.954 38.8079C23.1362 39.3976 23.3114 39.9618 23.3436 40.062L23.4018 40.2437H23.7433C23.9314 40.2437 24.0851 40.239 24.0851 40.2329C24.0851 40.2143 24.7306 38.2899 24.8755 37.8768C24.9518 37.6594 25.0269 37.4957 25.0426 37.513C25.0582 37.5302 25.2727 38.1517 25.5194 38.8941L25.9675 40.2437H26.3059H26.6443L26.7217 40.0045C26.8846 39.5017 27.8759 36.307 27.8759 36.2849C27.8759 36.272 27.6892 36.2616 27.4612 36.2616H27.0468L26.7292 37.4198C26.5543 38.057 26.3843 38.6859 26.3512 38.8175C26.3183 38.949 26.2804 39.0568 26.2671 39.0568C26.2538 39.0568 26.0377 38.4273 25.7866 37.6578L25.3302 36.2588L25.0265 36.2698L24.7226 36.2808L24.2605 37.6688C24.0064 38.4322 23.7898 39.0568 23.779 39.0568C23.7682 39.0566 23.5885 38.4277 23.3793 37.6592L22.9989 36.2616H22.5821C22.203 36.2616 22.1671 36.2676 22.1855 36.3286ZM51.7695 38.2526V40.2437H52.1524H52.5352V38.2526V36.2616H52.1524H51.7695V38.2526ZM30.2622 36.9152C30.5818 37.004 30.8625 37.4151 30.8625 37.7947V37.9464H29.9626H29.0628V37.7947C29.0628 37.1646 29.6388 36.7423 30.2622 36.9152ZM38.8535 36.9713C39.1425 37.1152 39.363 37.4996 39.363 37.859V37.9464H38.4441H37.5251V37.859C37.5251 37.3147 37.9362 36.8742 38.4441 36.8742C38.5971 36.8742 38.7147 36.9021 38.8535 36.9713ZM55.7365 37.0105C55.9585 37.1477 56.1233 37.4339 56.16 37.7453L56.1835 37.9464H55.2556H54.3277L54.3542 37.7453C54.4514 37.0077 55.14 36.6417 55.7365 37.0105ZM34.5886 36.9589C35.3026 37.1728 35.3748 39.2027 34.6794 39.5185C33.9034 39.8708 33.4433 39.3505 33.4733 38.1548C33.4988 37.1285 33.8605 36.7407 34.5886 36.9589ZM64.8646 38.76C64.8642 39.4093 64.6329 39.6313 63.9567 39.6311C63.326 39.6311 63.018 39.2758 63.2411 38.8059C63.369 38.5363 63.5305 38.4863 64.281 38.4842L64.8648 38.4824L64.8646 38.76Z" fill="#FBFBFB"/>
<path id="path2" fill-rule="evenodd" clip-rule="evenodd" d="M53.5014 5.82045C53.5014 5.89397 53.5092 5.92416 53.5188 5.88731C53.5284 5.85045 53.5284 5.79026 53.5188 5.75341C53.5092 5.71655 53.5014 5.74674 53.5014 5.82045ZM60.1632 6.3641L60.1551 6.77404L59.9157 6.78757L59.6766 6.8011L59.9169 6.80855C60.2071 6.81737 60.2002 6.82992 60.1837 6.3345L60.1712 5.95436L60.1632 6.3641ZM62.6199 6.43311C62.6199 6.65406 62.6261 6.74463 62.634 6.63406C62.6416 6.52349 62.6416 6.34254 62.634 6.23196C62.6261 6.12139 62.6199 6.21197 62.6199 6.43311ZM52.2431 6.70111C52.2431 6.92226 52.2494 7.01263 52.257 6.90206C52.2649 6.79149 52.2649 6.61054 52.257 6.49996C52.2494 6.38939 52.2431 6.47997 52.2431 6.70111ZM61.1301 6.80541L61.4161 6.81913L61.4291 7.19084L61.4418 7.56256L61.4398 7.17967L61.4379 6.79678L61.141 6.79423L60.844 6.79169L61.1301 6.80541ZM63.8836 7.2179C63.8838 7.44963 63.8901 7.53942 63.8977 7.41767C63.9054 7.29573 63.9052 7.10615 63.8975 6.99636C63.8899 6.88657 63.8836 6.98636 63.8836 7.2179ZM55.8663 7.55118C55.8559 7.83977 55.8608 8.06248 55.8773 8.04601C55.8938 8.02935 55.9022 7.79331 55.8963 7.52119L55.8853 7.02655L55.8663 7.55118ZM70.0145 9.09429L70.0151 11.0854L70.3405 11.0875L70.6659 11.0899L70.3505 11.0766L70.0349 11.0632L70.0245 9.08312L70.0141 7.10301L70.0145 9.09429ZM60.172 8.74964C60.172 9.38151 60.1773 9.64519 60.1837 9.33583C60.1902 9.02666 60.1902 8.50967 60.1837 8.18717C60.1773 7.86467 60.1722 8.11777 60.172 8.74964ZM62.6226 8.74964C62.6226 9.38151 62.6279 9.64519 62.6344 9.33583C62.6408 9.02666 62.6408 8.50967 62.6344 8.18717C62.6279 7.86467 62.6228 8.11777 62.6226 8.74964ZM52.2465 9.45797C52.2465 10.3531 52.2514 10.7192 52.2576 10.2718C52.2637 9.82419 52.2637 9.09194 52.2576 8.64436C52.2514 8.19678 52.2465 8.563 52.2465 9.45797ZM67.5566 8.60574C67.7207 8.61299 67.9793 8.61299 68.131 8.60574C68.2828 8.59848 68.1483 8.5926 67.8324 8.5926C67.5166 8.5926 67.3925 8.59868 67.5566 8.60574ZM66.6352 8.76885C66.6352 8.84257 66.643 8.87256 66.6526 8.8357C66.6624 8.79885 66.6624 8.73866 66.6526 8.7018C66.643 8.66494 66.6352 8.69514 66.6352 8.76885ZM59.0565 9.01764C59.0566 9.14409 59.0639 9.19114 59.0723 9.12233C59.081 9.05351 59.0808 8.95 59.0719 8.89256C59.0633 8.83492 59.0563 8.89138 59.0565 9.01764ZM69.0099 8.94098C69.0105 9.02528 69.0183 9.05528 69.0274 9.00764C69.0366 8.96 69.0362 8.89099 69.0266 8.85452C69.017 8.81786 69.0095 8.85688 69.0099 8.94098ZM57.1028 9.09429C57.103 9.19957 57.1105 9.238 57.1193 9.17977C57.1281 9.12174 57.1279 9.03548 57.1187 8.98843C57.1097 8.94137 57.1024 8.98901 57.1028 9.09429ZM66.6352 9.30485C66.6352 9.37857 66.643 9.40876 66.6526 9.3719C66.6624 9.33504 66.6624 9.27466 66.6526 9.2378C66.643 9.20094 66.6352 9.23114 66.6352 9.30485ZM9.67793 10.1375C9.8728 10.1443 10.1916 10.1443 10.3865 10.1375C10.5811 10.1306 10.4217 10.1249 10.0322 10.1249C9.64264 10.1249 9.48325 10.1306 9.67793 10.1375ZM15.0981 10.1375C15.3046 10.1443 15.632 10.1443 15.8257 10.1375C16.0194 10.1306 15.8506 10.1249 15.4504 10.1249C15.0503 10.1249 14.8917 10.1306 15.0981 10.1375ZM20.6867 10.1377C21.3131 10.1436 22.3384 10.1436 22.965 10.1377C23.5914 10.1318 23.0789 10.1269 21.8258 10.1269C20.5728 10.1269 20.0601 10.1318 20.6867 10.1377ZM27.8853 10.1377C28.3013 10.1437 28.982 10.1437 29.3978 10.1377C29.8138 10.1314 29.4735 10.1263 28.6416 10.1263C27.8098 10.1263 27.4695 10.1314 27.8853 10.1377ZM35.9284 10.1375C36.1349 10.1443 36.4623 10.1443 36.656 10.1375C36.8497 10.1306 36.6809 10.1249 36.2807 10.1249C35.8806 10.1249 35.722 10.1306 35.9284 10.1375ZM40.4852 10.1375C40.7338 10.1443 41.1302 10.1441 41.3659 10.1375C41.6017 10.1308 41.3982 10.1253 40.9138 10.1253C40.4295 10.1253 40.2366 10.1308 40.4852 10.1375ZM46.7839 10.1375C47.0009 10.1443 47.3456 10.1443 47.5499 10.1375C47.754 10.1306 47.5765 10.1249 47.1552 10.1251C46.7341 10.1251 46.5671 10.1306 46.7839 10.1375ZM61.4675 10.8748C61.4675 10.9695 61.4749 11.0083 61.4839 10.9609C61.4932 10.9136 61.4932 10.836 61.4839 10.7886C61.4749 10.7413 61.4675 10.7799 61.4675 10.8748ZM63.9181 10.8748C63.9181 10.9695 63.9256 11.0083 63.9346 10.9609C63.9438 10.9136 63.9438 10.836 63.9346 10.7886C63.9256 10.7413 63.9181 10.7799 63.9181 10.8748ZM54.5549 11.0942C54.6445 11.1022 54.791 11.1022 54.8806 11.0942C54.97 11.0862 54.8969 11.0797 54.7179 11.0797C54.5387 11.0797 54.4656 11.0862 54.5549 11.0942ZM24.0972 11.3726C24.0972 11.5094 24.1043 11.5655 24.1127 11.4971C24.1211 11.4285 24.1211 11.3165 24.1127 11.2481C24.1043 11.1797 24.0972 11.2357 24.0972 11.3726ZM29.0724 11.592C29.1514 11.6002 29.2806 11.6002 29.3596 11.592C29.4386 11.5837 29.3739 11.5769 29.2159 11.5769C29.0581 11.5769 28.9934 11.5837 29.0724 11.592ZM21.0018 13.1723L21.0026 14.7231L22.4663 14.7331L23.9302 14.7431L23.9417 15.4702L23.9535 16.1972L23.9521 15.4602L23.951 14.7231L22.4867 14.7131L21.0226 14.7029L21.012 13.1621L21.0012 11.6214L21.0018 13.1723ZM28.5334 14.558C28.5297 14.8042 28.5397 15.0136 28.5554 15.0236C28.5713 15.0334 28.5795 14.9009 28.5738 14.729C28.5552 14.1661 28.5403 14.1026 28.5334 14.558ZM11.7292 14.7325C12.294 14.7386 13.2072 14.7386 13.7587 14.7325C14.31 14.7266 13.8479 14.7217 12.7316 14.7217C11.6155 14.7217 11.1644 14.7266 11.7292 14.7325ZM21.0008 17.6905C21.0008 18.5014 21.0059 18.8331 21.012 18.4276C21.0182 18.0222 21.0182 17.3588 21.012 16.9535C21.0059 16.5481 21.0008 16.8798 21.0008 17.6905ZM28.5446 18.9158C28.5446 20.148 28.5495 20.6518 28.5554 20.0358C28.5613 19.4199 28.5613 18.412 28.5554 17.7958C28.5495 17.1798 28.5446 17.6838 28.5446 18.9158ZM47.3003 17.2594C47.4221 17.267 47.6116 17.267 47.7214 17.2592C47.8312 17.2515 47.7316 17.2453 47.4999 17.2455C47.2684 17.2455 47.1784 17.2517 47.3003 17.2594ZM20.9924 19.3754C20.9924 19.4491 21.0002 19.4793 21.0098 19.4424C21.0194 19.4055 21.0194 19.3452 21.0098 19.3083C21.0002 19.2714 20.9924 19.3016 20.9924 19.3754ZM10.7311 20.9645C10.7315 21.0486 10.7393 21.0786 10.7486 21.031C10.7576 20.9834 10.7574 20.9145 10.7478 20.8779C10.7382 20.8412 10.7307 20.8802 10.7311 20.9645ZM44.7621 21.0537C44.7621 21.0824 44.6754 21.1012 44.5229 21.1057L44.2835 21.1129L44.5092 21.1269C44.7189 21.14 44.8499 21.0969 44.7883 21.0353C44.7738 21.021 44.7621 21.0292 44.7621 21.0537ZM41.4606 21.1265C41.5506 21.1347 41.6884 21.1345 41.7668 21.1263C41.8452 21.118 41.7715 21.1114 41.6031 21.1116C41.4347 21.1118 41.3704 21.1184 41.4606 21.1265ZM27.0046 30.0467C27.0415 30.0563 27.1019 30.0563 27.1387 30.0467C27.1756 30.0371 27.1454 30.0291 27.0717 30.0291C26.998 30.0291 26.9678 30.0371 27.0046 30.0467ZM35.7349 30.0467C35.7718 30.0563 35.8322 30.0563 35.869 30.0467C35.9059 30.0371 35.8757 30.0291 35.802 30.0291C35.7283 30.0291 35.6981 30.0371 35.7349 30.0467ZM27.79 30.0856C27.8376 30.0948 27.9067 30.0944 27.9433 30.085C27.9798 30.0754 27.941 30.0677 27.8567 30.0683C27.7724 30.0687 27.7424 30.0765 27.79 30.0856ZM34.9121 30.0856C34.9598 30.0948 35.0288 30.0944 35.0654 30.085C35.1019 30.0754 35.0631 30.0677 34.9788 30.0683C34.8945 30.0687 34.8645 30.0765 34.9121 30.0856ZM28.8234 30.1246C28.892 30.133 29.004 30.133 29.0724 30.1246C29.1408 30.1161 29.0847 30.1091 28.9479 30.1091C28.811 30.1091 28.755 30.1161 28.8234 30.1246ZM33.7631 30.1246C33.8315 30.133 33.9434 30.133 34.0119 30.1246C34.0803 30.1161 34.0244 30.1091 33.8876 30.1091C33.7505 30.1091 33.6946 30.1161 33.7631 30.1246ZM31.0231 30.1638C31.2483 30.1705 31.6275 30.1705 31.8655 30.1638C32.1035 30.1571 31.9194 30.1514 31.4559 30.1514C30.9927 30.1514 30.7978 30.1569 31.0231 30.1638ZM61.7896 34.6041C61.9282 34.6127 62.0329 34.6378 62.0421 34.6649C62.0507 34.6902 62.056 34.6851 62.0539 34.6535C62.0507 34.609 61.9933 34.5953 61.8011 34.5928L61.5528 34.5896L61.7896 34.6041ZM15.484 35.0364C15.484 35.2785 15.4902 35.3777 15.4979 35.2566C15.5053 35.1354 15.5053 34.9374 15.4979 34.8162C15.4902 34.6951 15.484 34.7943 15.484 35.0364ZM16.3264 35.0364C16.3264 35.2785 16.3327 35.3777 16.3401 35.2566C16.3477 35.1354 16.3477 34.9374 16.3401 34.8162C16.3327 34.6951 16.3264 34.7943 16.3264 35.0364ZM67.6015 36.9318C67.6015 38.1954 67.6064 38.7069 67.6123 38.0681C67.6181 37.4296 67.6181 36.3958 67.6123 35.7708C67.6064 35.1458 67.6015 35.6683 67.6015 36.9318ZM62.0437 35.0364C62.0437 35.1733 62.0505 35.2293 62.0592 35.1609C62.0676 35.0925 62.0676 34.9803 62.0592 34.9119C62.0505 34.8435 62.0437 34.8996 62.0437 35.0364ZM17.5168 38.2528C17.5168 39.3585 17.5217 39.8108 17.5276 39.258C17.5337 38.7051 17.5337 37.8005 17.5276 37.2477C17.5217 36.6948 17.5168 37.1473 17.5168 38.2528ZM41.1424 38.2528C41.1424 39.3585 41.1471 39.8108 41.1532 39.258C41.1591 38.7051 41.1591 37.8005 41.1532 37.2477C41.1471 36.6948 41.1424 37.1473 41.1424 38.2528ZM52.5531 38.2528C52.5531 39.3585 52.558 39.8108 52.5639 39.258C52.5699 38.7051 52.5699 37.8005 52.5639 37.2477C52.558 36.6948 52.5531 37.1473 52.5531 38.2528ZM62.0313 36.6242V36.9101L61.6388 36.9224L61.2463 36.9348L61.658 36.9428L62.0697 36.951V36.6446C62.0697 36.4762 62.0611 36.3384 62.0505 36.3384C62.0399 36.3384 62.0313 36.467 62.0313 36.6242ZM62.7973 37.0085C62.8686 37.0822 62.9357 37.1424 62.9463 37.1424C62.9567 37.1424 62.9069 37.0822 62.8355 37.0085C62.764 36.9348 62.6969 36.8744 62.6865 36.8744C62.6759 36.8744 62.7257 36.9348 62.7973 37.0085ZM60.1073 36.9405C60.1757 36.9489 60.2876 36.9489 60.3561 36.9405C60.4245 36.9318 60.3686 36.925 60.2318 36.925C60.0947 36.925 60.0389 36.9318 60.1073 36.9405ZM68.9525 36.9405C69.0209 36.9489 69.1328 36.9489 69.2014 36.9405C69.2699 36.9318 69.2138 36.925 69.077 36.925C68.9401 36.925 68.884 36.9318 68.9525 36.9405ZM70.2927 36.9408C70.4032 36.9487 70.5842 36.9487 70.6948 36.9408C70.8053 36.9332 70.7148 36.9269 70.4936 36.9269C70.2725 36.9269 70.1821 36.9332 70.2927 36.9408ZM19.7847 37.0861C19.7255 37.1381 19.6924 37.1806 19.711 37.1806C19.7296 37.1806 19.7853 37.1377 19.8347 37.0849C19.9492 36.9632 19.9239 36.9638 19.7847 37.0861ZM65.648 38.808C65.648 39.6083 65.6531 39.9412 65.6594 39.5477C65.6657 39.1542 65.6657 38.4994 65.6594 38.0926C65.6531 37.6858 65.648 38.0077 65.648 38.808ZM37.5341 37.8317C37.5341 37.9054 37.5419 37.9356 37.5515 37.8987C37.5611 37.8619 37.5611 37.8015 37.5515 37.7646C37.5419 37.7278 37.5341 37.758 37.5341 37.8317ZM43.584 37.9082C43.584 37.9819 43.5918 38.0121 43.6014 37.9752C43.611 37.9383 43.611 37.8782 43.6014 37.8413C43.5918 37.8044 43.584 37.8344 43.584 37.9082ZM35.1225 38.004C35.1229 38.0881 35.1307 38.1181 35.1399 38.0705C35.1489 38.0228 35.1487 37.954 35.1391 37.9174C35.1295 37.8807 35.1221 37.9197 35.1225 38.004ZM28.2719 38.272C28.2719 38.4404 28.2788 38.5045 28.2868 38.4146C28.2948 38.3246 28.2948 38.1867 28.2866 38.1083C28.2784 38.0299 28.2717 38.1034 28.2719 38.272ZM35.9294 38.2338C35.9296 38.381 35.9365 38.4367 35.9449 38.3573C35.9531 38.2779 35.9529 38.1571 35.9445 38.0893C35.9361 38.0213 35.9292 38.0864 35.9294 38.2338ZM56.9505 38.272C56.9507 38.3983 56.9579 38.4455 56.9664 38.3765C56.975 38.3077 56.9748 38.2044 56.966 38.1469C56.9573 38.0893 56.9503 38.1456 56.9505 38.272ZM35.1217 38.5208C35.1217 38.5945 35.1295 38.6247 35.1391 38.5879C35.1487 38.551 35.1487 38.4908 35.1391 38.454C35.1295 38.4171 35.1217 38.4471 35.1217 38.5208ZM37.5341 38.5975C37.5341 38.6712 37.5419 38.7014 37.5515 38.6645C37.5611 38.6277 37.5611 38.5673 37.5515 38.5304C37.5419 38.4936 37.5341 38.5238 37.5341 38.5975ZM56.5366 39.4017C56.6188 39.4858 56.6948 39.5548 56.7052 39.5548C56.7158 39.5548 56.6572 39.4858 56.5749 39.4017C56.4927 39.3174 56.4166 39.2484 56.4062 39.2484C56.3957 39.2484 56.4543 39.3174 56.5366 39.4017ZM43.5865 39.9759C43.5865 40.0918 43.5938 40.1392 43.6026 40.0812C43.6112 40.0233 43.6112 39.9286 43.6026 39.8706C43.5938 39.8128 43.5865 39.86 43.5865 39.9759ZM29.9728 40.31C30.0416 40.3186 30.1452 40.3184 30.2026 40.3096C30.2602 40.3009 30.204 40.2939 30.0775 40.2941C29.9511 40.2943 29.904 40.3015 29.9728 40.31ZM34.3947 40.3098C34.4528 40.3184 34.5475 40.3184 34.6055 40.3098C34.6633 40.3009 34.6159 40.2937 34.5002 40.2937C34.3843 40.2937 34.3369 40.3009 34.3947 40.3098ZM38.4538 40.3098C38.5116 40.3184 38.6063 40.3184 38.6643 40.3098C38.7221 40.3009 38.6749 40.2937 38.559 40.2937C38.4432 40.2937 38.3957 40.3009 38.4538 40.3098ZM55.245 40.31C55.3139 40.3186 55.4172 40.3184 55.4746 40.3096C55.5323 40.3009 55.476 40.2939 55.3495 40.2941C55.2233 40.2943 55.1762 40.3015 55.245 40.31ZM63.7073 40.31C63.7762 40.3186 63.8795 40.3184 63.9371 40.3096C63.9946 40.3009 63.9383 40.2939 63.8118 40.2941C63.6856 40.2943 63.6385 40.3015 63.7073 40.31Z" fill="#DD9696"/>
<path id="path3" fill-rule="evenodd" clip-rule="evenodd" d="M54.3821 7.19881C54.3821 7.27252 54.39 7.30272 54.3996 7.26586C54.4094 7.229 54.4094 7.16862 54.3996 7.13176C54.39 7.0949 54.3821 7.12509 54.3821 7.19881ZM54.9595 7.29448C54.9597 7.42093 54.9669 7.46799 54.9754 7.39917C54.9838 7.33036 54.9838 7.22684 54.975 7.1694C54.9662 7.11176 54.9593 7.16823 54.9595 7.29448ZM71.5036 7.65835C71.5036 7.8793 71.5098 7.96987 71.5175 7.8593C71.5253 7.74873 71.5253 7.56778 71.5175 7.4572C71.5098 7.34663 71.5036 7.43721 71.5036 7.65835ZM54.3909 9.18989C54.3909 10.2113 54.3958 10.6291 54.4019 10.1184C54.408 9.60768 54.408 8.77211 54.4019 8.2614C54.3958 7.75069 54.3909 8.16847 54.3909 9.18989ZM65.0269 9.19715C65.022 10.2227 65.0312 11.0696 65.0468 11.0794C65.0729 11.0955 65.0725 9.72276 65.0459 8.00281C65.0402 7.63424 65.0316 8.17181 65.0269 9.19715ZM54.9481 7.87851C54.9487 7.95497 54.9581 7.96909 54.983 7.92968C55.0018 7.90008 55.0083 7.85264 54.9973 7.8244C54.9664 7.74344 54.9475 7.76402 54.9481 7.87851ZM58.3645 8.92189C58.3645 8.99561 58.3723 9.0258 58.3819 8.98894C58.3915 8.95208 58.3915 8.8917 58.3819 8.85484C58.3723 8.81799 58.3645 8.84818 58.3645 8.92189ZM66.6368 9.03678C66.6368 9.13147 66.6443 9.17029 66.6535 9.12284C66.6625 9.0756 66.6625 8.99796 66.6535 8.95052C66.6443 8.90327 66.6368 8.94189 66.6368 9.03678ZM68.8855 9.30478L68.7516 9.33301L68.8737 9.33811C68.941 9.34085 69.0065 9.32576 69.0196 9.30478C69.0325 9.2838 69.0378 9.26871 69.0314 9.27145C69.0249 9.27419 68.9592 9.28929 68.8855 9.30478ZM55.0407 10.1662C55.0407 10.6507 55.0461 10.8436 55.0528 10.595C55.0595 10.3462 55.0595 9.94998 55.0528 9.71433C55.0461 9.47848 55.0407 9.68198 55.0407 10.1662ZM67.6316 9.3334C67.8368 9.34026 68.1729 9.34026 68.3781 9.3334C68.5836 9.32634 68.4156 9.32085 68.0049 9.32085C67.5941 9.32085 67.4261 9.32634 67.6316 9.3334ZM68.8043 10.079C68.822 10.1852 68.8275 10.1907 68.8394 10.1141C68.8473 10.0643 68.8379 10.0076 68.8187 9.9884C68.7975 9.96723 68.7918 10.0029 68.8043 10.079ZM21.7563 11.6309C22.1709 11.637 22.86 11.637 23.288 11.6309C23.7158 11.6248 23.3766 11.6197 22.5342 11.6197C21.692 11.6197 21.3418 11.6246 21.7563 11.6309ZM28.5439 12.885C28.5439 13.58 28.5492 13.8696 28.5555 13.5289C28.5618 13.1879 28.5618 12.6192 28.5555 12.2651C28.5492 11.9111 28.5439 12.19 28.5439 12.885ZM11.7867 16.2259C12.341 16.2318 13.2371 16.2318 13.7778 16.2257C14.3187 16.2199 13.8653 16.215 12.7701 16.215C11.675 16.215 11.2325 16.2199 11.7867 16.2259ZM21.7398 16.2257C22.1452 16.232 22.8085 16.232 23.2139 16.2257C23.6193 16.2197 23.2876 16.2146 22.4768 16.2146C21.6661 16.2146 21.3344 16.2197 21.7398 16.2257ZM46.6864 17.2589C46.7654 17.2672 46.8946 17.2672 46.9736 17.2589C47.0524 17.2507 46.9879 17.2438 46.8299 17.2438C46.6721 17.2438 46.6074 17.2507 46.6864 17.2589ZM41.0766 21.1254C41.124 21.1346 41.2017 21.1346 41.2489 21.1254C41.2964 21.1162 41.2576 21.1088 41.1629 21.1088C41.0682 21.1088 41.0294 21.1162 41.0766 21.1254ZM14.2538 34.6431C14.3328 34.6513 14.462 34.6513 14.541 34.6431C14.6201 34.6348 14.5554 34.628 14.3975 34.628C14.2395 34.628 14.1748 34.6348 14.2538 34.6431ZM50.6119 34.6429C50.6807 34.6515 50.784 34.6513 50.8417 34.6425C50.8991 34.6337 50.8428 34.6268 50.7164 34.627C50.5901 34.6272 50.5431 34.6344 50.6119 34.6429ZM67.115 34.6423C67.1626 34.6513 67.2316 34.6511 67.2683 34.6415C67.3048 34.6319 67.2657 34.6244 67.1816 34.6248C67.0973 34.6252 67.0673 34.6331 67.115 34.6423ZM66.7974 37.0084C66.7974 38.2088 66.8023 38.6942 66.8082 38.0873C66.8142 37.4803 66.8142 36.4981 66.8082 35.9046C66.8023 35.3112 66.7974 35.8078 66.7974 37.0084ZM55.1299 36.212C55.1775 36.2213 55.2465 36.2209 55.2832 36.2115C55.3196 36.2019 55.2808 36.1942 55.1965 36.1948C55.1122 36.1952 55.0822 36.203 55.1299 36.212ZM51.7421 36.434C51.7425 36.5393 51.7498 36.5777 51.7586 36.5197C51.7674 36.4614 51.7672 36.3752 51.7582 36.3281C51.749 36.2811 51.7419 36.3287 51.7421 36.434ZM18.3199 38.8654C18.3199 39.4657 18.3252 39.7112 18.3317 39.411C18.3381 39.111 18.3381 38.6199 18.3317 38.3198C18.3252 38.0196 18.3199 38.2653 18.3199 38.8654ZM40.1418 38.1379C40.1418 38.2959 40.1487 38.3606 40.1569 38.2816C40.1652 38.2025 40.1652 38.0733 40.1569 37.9943C40.1487 37.9153 40.1418 37.98 40.1418 38.1379ZM35.1226 38.2719C35.123 38.3562 35.1308 38.386 35.14 38.3384C35.149 38.2908 35.1488 38.222 35.1392 38.1853C35.1296 38.1486 35.1222 38.1876 35.1226 38.2719ZM59.3008 39.5816C59.4459 39.5927 59.5045 39.6143 59.5188 39.6619C59.5329 39.7094 59.5361 39.7064 59.5304 39.6504C59.5237 39.5845 59.4931 39.5733 59.3124 39.5702L59.1022 39.5665L59.3008 39.5816ZM68.0431 39.5763C68.1774 39.6059 68.4181 39.6112 68.4015 39.5841C68.3915 39.5678 68.2938 39.5567 68.1844 39.559C68.0752 39.5616 68.0115 39.5692 68.0431 39.5763ZM70.6188 39.5821C70.677 39.591 70.7631 39.5908 70.8101 39.5816C70.8574 39.5725 70.8097 39.5653 70.7045 39.5657C70.599 39.5659 70.5606 39.5733 70.6188 39.5821ZM59.5165 39.9758C59.5165 40.1127 59.5235 40.1687 59.532 40.1003C59.5404 40.0319 59.5404 39.9199 59.532 39.8513C59.5235 39.7829 59.5165 39.839 59.5165 39.9758ZM51.7356 40.0215C51.7331 40.1413 51.7441 40.2473 51.76 40.2572C51.7756 40.267 51.7835 40.1946 51.7772 40.0966C51.7592 39.817 51.7405 39.7831 51.7356 40.0215ZM9.88976 40.2721C9.99053 40.2801 10.1456 40.2799 10.2344 40.2719C10.3232 40.2638 10.2409 40.2573 10.0515 40.2575C9.86192 40.2575 9.78918 40.2642 9.88976 40.2721ZM12.9719 40.2717C13.0407 40.2801 13.144 40.2801 13.2014 40.2713C13.2591 40.2624 13.2028 40.2556 13.0764 40.2558C12.9501 40.256 12.903 40.2632 12.9719 40.2717ZM17.8149 40.2703C17.8517 40.2799 17.9121 40.2799 17.949 40.2703C17.9858 40.2607 17.9556 40.2528 17.8819 40.2528C17.8082 40.2528 17.778 40.2607 17.8149 40.2703ZM23.4633 40.2711C23.5109 40.2801 23.5799 40.2799 23.6164 40.2703C23.6531 40.2607 23.614 40.2532 23.5299 40.2536C23.4456 40.254 23.4156 40.2619 23.4633 40.2711ZM23.7883 40.2703C23.8252 40.2799 23.8854 40.2799 23.9222 40.2703C23.9591 40.2607 23.9291 40.2528 23.8554 40.2528C23.7817 40.2528 23.7515 40.2607 23.7883 40.2703ZM26.3921 40.2703C26.4289 40.2799 26.4893 40.2799 26.5262 40.2703C26.563 40.2607 26.5328 40.2528 26.4591 40.2528C26.3854 40.2528 26.3552 40.2607 26.3921 40.2703ZM41.4787 40.2703C41.5156 40.2799 41.5759 40.2799 41.6128 40.2703C41.6497 40.2607 41.6195 40.2528 41.5458 40.2528C41.472 40.2528 41.4418 40.2607 41.4787 40.2703ZM59.0734 40.2717C59.1418 40.2801 59.254 40.2801 59.3224 40.2717C59.3908 40.263 59.3347 40.2562 59.1979 40.2562C59.0611 40.2562 59.005 40.263 59.0734 40.2717ZM60.7965 40.2719C60.8861 40.2801 61.0325 40.2801 61.1221 40.2719C61.2115 40.2638 61.1384 40.2573 60.9594 40.2573C60.7802 40.2573 60.7071 40.2638 60.7965 40.2719ZM65.1043 40.2719C65.1833 40.2801 65.3125 40.2801 65.3915 40.2719C65.4705 40.2636 65.4058 40.2568 65.248 40.2568C65.09 40.2568 65.0253 40.2636 65.1043 40.2719Z" fill="#C2737C"/>
<path id="path4" fill-rule="evenodd" clip-rule="evenodd" d="M20.0549 0.641364C30.5902 0.646854 47.8297 0.646854 58.365 0.641364C68.9003 0.636071 60.2806 0.631758 39.21 0.631758C18.1393 0.631758 9.51956 0.636071 20.0549 0.641364ZM77.7879 9.87924C77.7879 14.8387 77.7922 16.8678 77.7977 14.388C77.8032 11.9082 77.8032 7.85032 77.7977 5.37048C77.7922 2.89065 77.7879 4.91957 77.7879 9.87924ZM0.631434 12.3489C0.631434 18.6458 0.635943 21.2162 0.641236 18.0608C0.646726 14.9054 0.646726 9.75318 0.641236 6.61167C0.635943 3.47017 0.631434 6.05195 0.631434 12.3489ZM54.536 7.1118C54.615 7.12003 54.7442 7.12003 54.8232 7.1118C54.9022 7.10356 54.8375 7.0967 54.6795 7.0967C54.5217 7.0967 54.457 7.10356 54.536 7.1118ZM70.1788 7.11199C70.269 7.12003 70.4068 7.12003 70.4852 7.1118C70.5636 7.10356 70.4899 7.0969 70.3213 7.09709C70.1529 7.09709 70.0888 7.10396 70.1788 7.11199ZM65.1234 7.14924C65.1707 7.15846 65.2483 7.15846 65.2958 7.14924C65.343 7.14003 65.3044 7.13258 65.2095 7.13258C65.1148 7.13258 65.076 7.14003 65.1234 7.14924ZM54.9573 7.63917C54.9577 7.72347 54.9655 7.75327 54.9747 7.70563C54.9837 7.65799 54.9835 7.58918 54.9739 7.55252C54.9643 7.51586 54.9569 7.55487 54.9573 7.63917ZM59.7823 7.60918C59.8405 7.618 59.9267 7.6178 59.9738 7.60859C60.0209 7.59957 59.9732 7.59232 59.8679 7.59271C59.7627 7.5929 59.724 7.60035 59.7823 7.60918ZM61.1603 7.6082C61.1972 7.6178 61.2573 7.6178 61.2942 7.6082C61.3311 7.59839 61.3011 7.59055 61.2273 7.59055C61.1536 7.59055 61.1234 7.59839 61.1603 7.6082ZM62.2515 7.60937C62.3199 7.6178 62.4321 7.6178 62.5005 7.60937C62.5689 7.60094 62.5128 7.59389 62.376 7.59389C62.2392 7.59389 62.1831 7.60094 62.2515 7.60937ZM63.4966 7.60918C63.5548 7.618 63.6409 7.6178 63.688 7.60859C63.735 7.59957 63.6876 7.59232 63.5821 7.59271C63.4768 7.5929 63.4384 7.60035 63.4966 7.60918ZM56.4155 9.03681C56.4155 9.19463 56.4222 9.25933 56.4306 9.18032C56.4388 9.10131 56.4388 8.97212 56.4306 8.89311C56.4222 8.8141 56.4155 8.8788 56.4155 9.03681ZM19.5853 15.6419C19.5853 18.6746 19.5899 19.9095 19.5953 18.3864C19.6008 16.8631 19.6008 14.3819 19.5953 12.8725C19.5899 11.3629 19.5853 12.6092 19.5853 15.6419ZM35.5909 15.6419C35.5909 18.6746 35.5954 19.9095 35.6011 18.3864C35.6066 16.8631 35.6066 14.3819 35.6011 12.8725C35.5954 11.3629 35.5909 12.6092 35.5909 15.6419ZM68.8178 10.3004C68.8178 10.3741 68.8256 10.4043 68.8353 10.3674C68.8449 10.3305 68.8449 10.2702 68.8353 10.2333C68.8256 10.1964 68.8178 10.2266 68.8178 10.3004ZM16.139 15.6229C16.139 18.4764 16.1437 19.6439 16.1492 18.217C16.1547 16.7902 16.1547 14.4554 16.1492 13.0286C16.1437 11.6017 16.139 12.7692 16.139 15.6229ZM68.8058 10.6928C68.7945 10.7752 68.8004 10.822 68.8196 10.8028C68.838 10.7844 68.847 10.7197 68.8394 10.6591C68.8268 10.558 68.8241 10.5607 68.8058 10.6928ZM29.551 11.591C29.5984 11.6002 29.676 11.6002 29.7233 11.591C29.7707 11.5819 29.7319 11.5745 29.6372 11.5745C29.5423 11.5745 29.5037 11.5819 29.551 11.591ZM46.2466 17.2588C46.3154 17.2674 46.4189 17.2672 46.4763 17.2584C46.534 17.2497 46.4775 17.2427 46.3513 17.2429C46.2248 17.2431 46.1778 17.2503 46.2466 17.2588ZM48.4276 18.7136C48.4957 18.7223 48.6162 18.7223 48.6956 18.714C48.7752 18.7058 48.7196 18.6987 48.5721 18.6987C48.4247 18.6985 48.3596 18.7052 48.4276 18.7136ZM31.2403 21.0706C31.2566 21.0868 31.6307 21.0953 32.0714 21.0896L32.8728 21.0792L32.0418 21.0602C31.5848 21.0496 31.2241 21.0543 31.2403 21.0706ZM40.7517 21.1258C40.8099 21.1347 40.896 21.1345 40.9432 21.1255C40.9903 21.1162 40.9426 21.1092 40.8374 21.1094C40.7321 21.1098 40.6935 21.117 40.7517 21.1258ZM43.8718 21.1255C43.9193 21.1347 43.9969 21.1347 44.0442 21.1255C44.0916 21.1162 44.0528 21.1088 43.9581 21.1088C43.8632 21.1088 43.8246 21.1162 43.8718 21.1255ZM36.654 30.0083C36.6909 30.0179 36.7511 30.0179 36.788 30.0083C36.8248 29.9987 36.7948 29.9908 36.7211 29.9908C36.6474 29.9908 36.6172 29.9987 36.654 30.0083ZM27.5024 30.0849C27.5393 30.0945 27.5997 30.0945 27.6365 30.0849C27.6734 30.0753 27.6432 30.0675 27.5695 30.0675C27.4958 30.0675 27.4656 30.0753 27.5024 30.0849ZM35.2186 30.0855C35.2662 30.0947 35.335 30.0943 35.3717 30.0849C35.4083 30.0753 35.3693 30.0677 35.285 30.0683C35.2009 30.0687 35.1709 30.0765 35.2186 30.0855ZM29.897 30.1634C30.0082 30.1712 30.1805 30.171 30.2799 30.1632C30.3793 30.1553 30.2881 30.149 30.0776 30.149C29.867 30.1492 29.7856 30.1557 29.897 30.1634ZM32.4994 30.1634C32.6099 30.171 32.7909 30.171 32.9015 30.1634C33.012 30.1555 32.9216 30.1492 32.7005 30.1492C32.4794 30.1492 32.389 30.1555 32.4994 30.1634ZM8.24209 34.6415C8.27895 34.6511 8.33933 34.6511 8.37619 34.6415C8.41305 34.6319 8.38286 34.6241 8.30914 34.6241C8.23543 34.6241 8.20524 34.6319 8.24209 34.6415ZM8.58734 34.6427C8.64537 34.6515 8.73163 34.6511 8.77868 34.6421C8.82573 34.6331 8.77809 34.6258 8.67282 34.626C8.56754 34.6264 8.52911 34.6339 8.58734 34.6427ZM11.3824 34.6427C11.4406 34.6515 11.5269 34.6511 11.574 34.6421C11.621 34.6331 11.5734 34.6258 11.4681 34.626C11.3628 34.6264 11.3242 34.6339 11.3824 34.6427ZM33.0348 34.6427C33.1026 34.6513 33.2232 34.6513 33.3028 34.6431C33.3822 34.6349 33.3265 34.6278 33.1791 34.6278C33.0316 34.6276 32.9667 34.6343 33.0348 34.6427ZM46.9745 34.6433C47.0645 34.6513 47.2023 34.6511 47.2807 34.6429C47.3592 34.6349 47.2854 34.6282 47.117 34.6282C46.9486 34.6284 46.8843 34.6353 46.9745 34.6433ZM52.5872 34.9597C52.5872 35.1599 52.5937 35.2416 52.6017 35.1417C52.6096 35.0417 52.6096 34.878 52.6017 34.778C52.5937 34.6778 52.5872 34.7597 52.5872 34.9597ZM58.3268 34.6415C58.3636 34.6511 58.4238 34.6511 58.4607 34.6415C58.4975 34.6319 58.4675 34.6241 58.3938 34.6241C58.3201 34.6241 58.2899 34.6319 58.3268 34.6415ZM57.9139 37.0275C57.9139 38.2385 57.9188 38.7339 57.9247 38.1283C57.9306 37.5229 57.9306 36.532 57.9247 35.9266C57.9188 35.3212 57.9139 35.8165 57.9139 37.0275ZM61.7545 35.2938C61.8233 35.3024 61.9266 35.3022 61.9843 35.2934C62.0417 35.2848 61.9855 35.2777 61.859 35.2779C61.7328 35.2781 61.6857 35.2854 61.7545 35.2938ZM19.3087 36.2125C19.3669 36.2213 19.453 36.2211 19.5003 36.2121C19.5473 36.2029 19.4997 36.1958 19.3944 36.196C19.2891 36.1964 19.2505 36.2039 19.3087 36.2125ZM34.3948 36.2125C34.4528 36.2213 34.5475 36.2213 34.6055 36.2125C34.6634 36.2037 34.6159 36.1966 34.5002 36.1966C34.3844 36.1966 34.3369 36.2037 34.3948 36.2125ZM38.3389 36.2125C38.3967 36.2213 38.4914 36.2213 38.5495 36.2125C38.6073 36.2037 38.56 36.1966 38.4442 36.1966C38.3283 36.1966 38.2809 36.2037 38.3389 36.2125ZM63.8407 36.2131C63.9197 36.2213 64.0489 36.2213 64.1279 36.2131C64.2067 36.2046 64.1422 36.198 63.9842 36.198C63.8264 36.198 63.7617 36.2046 63.8407 36.2131ZM60.1073 36.3278C60.1757 36.3362 60.2877 36.3362 60.3561 36.3278C60.4245 36.3191 60.3686 36.3123 60.2318 36.3123C60.0948 36.3123 60.0389 36.3191 60.1073 36.3278ZM61.4681 36.3283C61.5898 36.336 61.7794 36.3358 61.8892 36.3281C61.999 36.3205 61.8992 36.3142 61.6677 36.3142C61.4359 36.3144 61.3461 36.3207 61.4681 36.3283ZM70.2939 36.3281C70.4052 36.336 70.5776 36.336 70.677 36.3281C70.7762 36.3201 70.6852 36.3138 70.4746 36.314C70.2639 36.314 70.1827 36.3205 70.2939 36.3281ZM51.7485 38.2912C51.7485 39.144 51.7536 39.493 51.7597 39.0666C51.766 38.64 51.766 37.9422 51.7597 37.5156C51.7536 37.0892 51.7485 37.4382 51.7485 38.2912ZM34.223 36.9396C34.2707 36.9488 34.3395 36.9484 34.3761 36.9388C34.4128 36.9294 34.3738 36.9218 34.2895 36.9224C34.2054 36.9228 34.1754 36.9306 34.223 36.9396ZM42.7236 36.9396C42.7712 36.9488 42.8402 36.9484 42.8767 36.9388C42.9133 36.9294 42.8743 36.9218 42.7902 36.9224C42.7059 36.9228 42.6759 36.9306 42.7236 36.9396ZM44.3965 38.9229C44.3965 39.66 44.4016 39.9561 44.4078 39.581C44.4141 39.2058 44.4141 38.6027 44.4078 38.2408C44.4016 37.8789 44.3965 38.1857 44.3965 38.9229ZM41.9376 38.9876L41.9286 40.2393L41.7851 40.2542L41.6414 40.2693L41.7862 40.2758C41.9788 40.2844 41.9696 40.356 41.9574 38.9609L41.9466 37.7358L41.9376 38.9876ZM56.1346 37.8436C56.1346 37.9001 56.0412 37.9079 55.2443 37.9177L54.354 37.9289L55.2455 37.9377C56.1373 37.9465 56.2798 37.9258 56.1585 37.8044C56.1453 37.7913 56.1346 37.8089 56.1346 37.8436ZM29.5319 37.9367C29.7794 37.9434 30.1842 37.9434 30.4318 37.9367C30.6792 37.9301 30.4767 37.9246 29.9819 37.9246C29.4869 37.9246 29.2845 37.9301 29.5319 37.9367ZM38.2068 37.9367C38.4238 37.9436 38.7684 37.9436 38.9727 37.9367C39.1768 37.9299 38.9994 37.9242 38.5781 37.9242C38.157 37.9244 37.9899 37.9299 38.2068 37.9367ZM63.8999 37.9367C64.0746 37.9438 64.3504 37.9438 64.5126 37.9365C64.6747 37.9295 64.5318 37.9236 64.1948 37.9236C63.8579 37.9238 63.7252 37.9297 63.8999 37.9367ZM36.7321 38.272C36.7323 38.3773 36.7397 38.4157 36.7485 38.3577C36.7574 38.2994 36.7572 38.2132 36.748 38.1661C36.7389 38.1191 36.7317 38.1667 36.7321 38.272ZM53.5412 38.2528C53.5412 38.3477 53.5487 38.3863 53.5579 38.339C53.5669 38.2916 53.5669 38.214 53.5579 38.1667C53.5487 38.1193 53.5412 38.1581 53.5412 38.2528ZM29.7043 38.5112C30.0676 38.5174 30.662 38.5174 31.0253 38.5112C31.3885 38.5049 31.0913 38.4998 30.3648 38.4998C29.6382 38.4998 29.341 38.5049 29.7043 38.5112ZM38.1832 38.5112C38.5346 38.5174 39.1206 38.5174 39.4852 38.5112C39.8497 38.5049 39.5623 38.4998 38.8463 38.4998C38.1301 38.4998 37.8317 38.5049 38.1832 38.5112ZM54.993 38.5112C55.3445 38.5174 55.9303 38.5174 56.2949 38.5112C56.6596 38.5049 56.372 38.4998 55.656 38.4998C54.9398 38.4998 54.6416 38.5049 54.993 38.5112ZM64.2975 38.5112C64.7551 38.5216 64.8237 38.5314 64.8388 38.589C64.8513 38.6372 64.8572 38.6319 64.8605 38.5688C64.8649 38.4827 64.8633 38.4825 64.3192 38.491L63.7736 38.4994L64.2975 38.5112ZM35.9257 38.6357C35.9257 38.7094 35.9338 38.7396 35.9434 38.7027C35.953 38.6658 35.953 38.6057 35.9434 38.5688C35.9338 38.5319 35.9257 38.5619 35.9257 38.6357ZM68.3965 39.7461C68.3965 39.8198 68.4045 39.85 68.4141 39.8131C68.4238 39.7763 68.4238 39.7161 68.4141 39.6792C68.4045 39.6424 68.3965 39.6724 68.3965 39.7461ZM68.3973 40.11C68.3979 40.1943 68.4057 40.2241 68.4147 40.1764C68.4239 40.1288 68.4236 40.06 68.4139 40.0233C68.4043 39.9866 68.3969 40.0256 68.3973 40.11ZM15.8626 40.2715C15.9208 40.2801 16.0068 40.2799 16.0539 40.2709C16.1011 40.2619 16.0535 40.2546 15.9482 40.2548C15.843 40.2552 15.8043 40.2627 15.8626 40.2715ZM32.9973 40.2709C33.0446 40.2801 33.1222 40.2801 33.1695 40.2709C33.2169 40.2619 33.1781 40.2544 33.0834 40.2544C32.9887 40.2544 32.9499 40.2619 32.9973 40.2709ZM48.9268 40.2711C48.9744 40.2801 49.0432 40.2799 49.0799 40.2703C49.1166 40.2607 49.0775 40.2533 48.9932 40.2537C48.9091 40.254 48.8791 40.2619 48.9268 40.2711ZM51.9903 40.2717C52.0591 40.2801 52.1624 40.2801 52.22 40.2713C52.2775 40.2625 52.2212 40.2556 52.0949 40.2558C51.9685 40.256 51.9214 40.2633 51.9903 40.2717ZM67.7654 40.2709C67.8129 40.2801 67.8905 40.2801 67.9377 40.2709C67.9852 40.2619 67.9464 40.2544 67.8517 40.2544C67.7568 40.2544 67.7182 40.2619 67.7654 40.2709Z" fill="#C07C73"/>
</g>
</svg>
