<svg id="svg" version="1.1" xmlns="http://www.w3.org/2000/svg" xmlns:xlink="http://www.w3.org/1999/xlink" width="400" height="231.4453125" viewBox="0, 0, 400,231.4453125"><g id="svgg"><path id="path0" d="M0.000 115.723 L 0.000 231.445 200.000 231.445 L 400.000 231.445 400.000 115.723 L 400.000 0.000 200.000 0.000 L 0.000 0.000 0.000 115.723 M396.777 49.859 L 396.777 96.496 394.448 97.572 C 346.359 119.789,293.495 136.955,245.955 145.793 C 159.029 161.951,74.869 153.681,4.541 122.069 L 3.125 121.432 3.125 62.409 C 3.125 29.946,3.184 3.327,3.255 3.255 C 3.327 3.183,91.899 3.147,200.081 3.174 L 396.777 3.223 396.777 49.859 M269.629 26.658 C 267.653 27.363,266.784 29.313,266.647 33.350 L 266.552 36.133 265.307 36.133 L 264.063 36.133 264.063 38.086 L 264.063 40.039 265.332 40.039 L 266.602 40.039 266.602 48.250 L 266.602 56.461 268.213 56.404 L 269.824 56.348 269.824 48.242 L 269.824 40.137 271.289 40.039 L 272.754 39.941 272.754 38.086 L 272.754 36.230 271.338 36.173 L 269.922 36.116 269.922 34.086 C 269.922 30.855,270.758 29.728,272.370 30.784 L 272.852 31.100 272.853 29.954 C 272.854 29.324,272.909 28.357,272.976 27.805 L 273.096 26.800 272.241 26.671 C 271.771 26.600,271.167 26.505,270.898 26.461 C 270.630 26.416,270.059 26.505,269.629 26.658 M331.927 28.717 C 331.159 29.520,331.000 31.569,331.630 32.572 C 333.090 34.901,335.602 32.605,334.770 29.704 C 334.310 28.100,332.966 27.633,331.927 28.717 M308.691 29.556 L 307.129 30.371 307.074 32.568 L 307.018 34.766 305.755 34.766 L 304.492 34.766 304.492 36.719 L 304.492 38.672 305.746 38.672 L 307.001 38.672 307.077 45.557 C 307.147 51.980,307.180 52.516,307.566 53.553 C 308.532 56.152,309.942 56.976,312.490 56.429 L 313.477 56.218 313.477 54.064 C 313.477 52.085,313.449 51.924,313.135 52.066 C 312.322 52.435,311.293 52.266,310.863 51.695 C 310.465 51.164,310.447 50.912,310.393 44.908 L 310.336 38.672 311.809 38.672 L 313.281 38.672 313.281 36.719 L 313.281 34.766 311.821 34.766 L 310.361 34.766 310.308 31.753 L 310.254 28.741 308.691 29.556 M320.947 29.721 L 319.531 30.488 319.531 32.627 L 319.531 34.766 318.262 34.766 L 316.992 34.766 316.992 36.709 L 316.992 38.653 318.213 38.711 L 319.434 38.770 319.536 45.508 C 319.634 51.900,319.662 52.311,320.088 53.503 C 321.016 56.103,322.417 56.961,324.894 56.447 L 325.977 56.222 325.977 54.067 C 325.977 52.085,325.949 51.924,325.635 52.066 C 324.822 52.435,323.793 52.266,323.363 51.695 C 322.965 51.164,322.947 50.912,322.893 44.923 L 322.836 38.703 324.065 38.701 C 324.740 38.700,325.403 38.693,325.537 38.685 C 325.715 38.676,325.781 38.144,325.781 36.719 L 325.781 34.766 324.316 34.766 L 322.852 34.766 322.852 31.836 C 322.852 28.472,322.984 28.619,320.947 29.721 M344.655 35.346 C 338.715 37.249,338.284 53.140,344.096 55.993 C 345.598 56.731,347.815 56.768,349.351 56.081 C 350.938 55.371,351.000 55.248,350.935 52.926 L 350.879 50.918 350.264 51.436 C 347.153 54.057,343.642 52.622,343.223 48.558 L 343.109 47.461 347.561 47.461 L 352.013 47.461 351.887 44.971 C 351.521 37.786,348.711 34.047,344.655 35.346 M293.304 35.557 C 286.546 37.215,285.803 53.207,292.349 56.103 C 297.289 58.288,301.573 52.876,301.111 45.034 C 300.731 38.588,297.406 34.551,293.304 35.557 M282.877 36.116 C 282.017 36.647,281.314 37.746,280.804 39.355 L 280.371 40.723 280.316 38.525 L 280.261 36.328 278.900 36.328 L 277.539 36.328 277.539 46.387 L 277.539 56.445 279.077 56.445 L 280.616 56.445 280.715 50.537 C 280.858 42.067,281.558 40.110,284.205 40.782 L 284.972 40.977 284.918 38.408 L 284.863 35.840 284.180 35.787 C 283.761 35.754,283.256 35.882,282.877 36.116 M363.086 35.875 C 362.070 36.259,361.060 37.708,360.525 39.551 L 360.184 40.723 360.170 38.525 L 360.156 36.328 358.691 36.328 L 357.227 36.328 357.227 46.387 L 357.227 56.445 358.872 56.445 L 360.518 56.445 360.594 50.244 C 360.697 41.802,361.341 40.028,364.019 40.806 L 364.660 40.992 364.605 38.416 L 364.551 35.840 363.965 35.802 C 363.643 35.781,363.247 35.814,363.086 35.875 M331.836 46.484 L 331.836 56.445 333.209 56.445 L 334.582 56.445 334.564 46.484 L 334.545 36.523 333.191 36.523 L 331.836 36.523 331.836 46.484 M347.559 39.708 C 348.263 40.412,348.828 41.966,348.828 43.200 L 348.828 43.945 345.969 43.945 L 343.109 43.945 343.223 42.848 C 343.550 39.678,345.858 38.006,347.559 39.708 M296.190 40.299 C 299.070 43.305,297.850 52.542,294.573 52.538 C 292.474 52.536,291.223 50.047,291.214 45.859 C 291.204 40.667,293.782 37.786,296.190 40.299 M47.656 79.785 L 47.656 107.813 51.172 107.813 L 54.688 107.813 54.688 95.215 L 54.688 82.617 64.941 82.617 L 75.195 82.617 75.195 95.215 L 75.195 107.813 78.711 107.813 L 82.227 107.813 82.227 79.785 L 82.227 51.758 78.711 51.758 L 75.195 51.758 75.195 63.477 L 75.195 75.195 64.941 75.195 L 54.688 75.195 54.688 63.477 L 54.688 51.758 51.172 51.758 L 47.656 51.758 47.656 79.785 M100.000 79.785 L 100.000 107.813 111.523 107.813 L 123.047 107.813 123.047 103.809 L 123.047 99.805 115.039 99.805 L 107.031 99.805 107.031 91.211 L 107.031 82.617 114.551 82.617 L 122.070 82.617 122.070 78.906 L 122.070 75.195 114.551 75.195 L 107.031 75.195 107.031 67.188 L 107.031 59.180 114.941 59.180 L 122.852 59.180 122.852 57.550 C 122.852 56.654,122.909 54.984,122.979 53.839 L 123.106 51.758 111.553 51.758 L 100.000 51.758 100.000 79.785 M138.477 79.775 L 138.477 107.813 141.992 107.813 L 145.508 107.813 145.508 95.469 C 145.508 87.934,145.578 83.197,145.688 83.311 C 145.787 83.413,146.434 84.507,147.125 85.742 C 147.817 86.978,149.730 90.361,151.376 93.262 C 153.021 96.162,155.487 100.513,156.855 102.930 L 159.343 107.324 163.772 107.377 L 168.201 107.429 167.810 106.791 C 167.595 106.440,164.326 100.923,160.545 94.531 C 156.765 88.140,153.583 82.801,153.474 82.668 C 153.254 82.399,153.295 82.378,154.688 82.020 C 160.657 80.490,164.665 75.261,165.455 67.973 C 166.281 60.359,162.969 54.568,156.543 52.390 L 154.980 51.861 146.729 51.799 L 138.477 51.738 138.477 79.775 M181.641 79.790 L 181.641 107.822 185.107 107.768 L 188.574 107.715 188.574 94.092 C 188.574 86.599,188.618 80.470,188.672 80.472 C 188.726 80.474,189.253 81.335,189.844 82.386 C 190.435 83.438,193.906 89.587,197.559 96.051 L 204.199 107.805 208.887 107.684 C 211.465 107.618,213.600 107.542,213.633 107.516 C 213.683 107.474,208.558 99.102,198.886 83.424 C 197.116 80.557,196.113 78.746,196.187 78.554 C 196.295 78.272,201.561 69.812,209.585 57.031 L 212.834 51.855 208.625 51.803 C 205.417 51.763,204.362 51.809,204.189 51.998 C 204.004 52.200,196.451 64.537,190.138 74.951 C 189.405 76.160,188.753 77.148,188.690 77.148 C 188.626 77.148,188.590 71.721,188.610 65.088 C 188.630 58.455,188.598 52.742,188.539 52.393 L 188.432 51.758 185.036 51.758 L 181.641 51.758 181.641 79.790 M236.618 51.998 C 236.537 52.219,231.389 70.653,223.710 98.218 C 222.262 103.414,221.108 107.697,221.146 107.734 C 221.183 107.772,222.806 107.747,224.752 107.679 L 228.290 107.557 229.876 101.874 C 230.748 98.749,231.544 95.994,231.645 95.752 L 231.828 95.313 240.514 95.313 L 249.200 95.313 249.404 96.045 C 249.516 96.448,250.245 99.260,251.024 102.294 L 252.441 107.810 256.386 107.811 L 260.331 107.813 260.058 106.885 C 259.907 106.375,259.171 103.760,258.422 101.074 C 257.178 96.618,255.123 89.296,247.816 63.281 C 246.413 58.286,245.121 53.672,244.944 53.027 L 244.623 51.855 240.666 51.803 C 237.606 51.762,236.689 51.806,236.618 51.998 M153.160 59.349 C 159.708 61.465,159.901 72.950,153.443 76.177 C 152.289 76.754,152.260 76.758,148.895 76.758 L 145.508 76.758 145.508 67.855 L 145.508 58.953 148.975 59.035 C 150.881 59.080,152.765 59.221,153.160 59.349 M243.911 75.109 C 245.756 81.990,247.266 87.734,247.266 87.872 C 247.266 88.131,233.969 88.136,233.710 87.877 C 233.649 87.816,234.432 84.608,235.448 80.748 C 236.465 76.888,237.972 71.156,238.797 68.010 C 239.622 64.863,240.355 62.359,240.427 62.443 C 240.498 62.528,242.066 68.228,243.911 75.109 M316.602 178.223 L 316.602 180.078 315.222 180.078 C 312.949 180.078,312.500 180.641,312.500 183.490 L 312.500 185.156 314.551 185.156 L 316.602 185.156 316.602 186.816 L 316.602 188.477 314.551 188.477 L 312.500 188.477 312.500 196.973 L 312.500 205.469 310.449 205.469 L 308.398 205.469 308.398 196.973 L 308.398 188.477 307.227 188.477 L 306.055 188.477 306.055 186.816 L 306.055 185.156 307.227 185.156 L 308.398 185.156 308.400 183.057 C 308.402 178.233,310.168 176.417,314.893 176.380 L 316.602 176.367 316.602 178.223 M48.624 186.669 C 49.962 192.173,51.114 196.612,51.182 196.532 C 51.277 196.422,54.724 184.298,56.653 177.295 L 56.854 176.563 58.608 176.563 C 60.246 176.563,60.372 176.591,60.528 177.002 C 60.620 177.244,61.910 181.770,63.395 187.060 C 64.880 192.350,66.152 196.613,66.222 196.533 C 66.292 196.452,66.929 193.970,67.639 191.016 C 68.348 188.062,69.426 183.601,70.034 181.104 L 71.140 176.563 73.461 176.563 C 74.737 176.563,75.781 176.642,75.781 176.739 C 75.781 176.837,74.111 183.298,72.070 191.098 C 70.029 198.898,68.359 205.322,68.359 205.374 C 68.359 205.426,67.484 205.469,66.414 205.469 L 64.468 205.469 64.194 204.541 C 64.043 204.031,62.749 199.591,61.319 194.674 C 59.888 189.758,58.656 185.803,58.580 185.885 C 58.469 186.007,53.775 202.082,53.074 204.743 L 52.879 205.482 50.926 205.426 L 48.974 205.371 45.305 191.347 C 43.287 183.634,41.590 177.205,41.534 177.060 C 41.358 176.600,41.626 176.549,43.934 176.605 L 46.190 176.660 48.624 186.669 M83.356 178.738 L 83.301 180.914 81.152 180.909 L 79.004 180.904 78.949 178.733 L 78.893 176.563 81.152 176.563 L 83.411 176.563 83.356 178.738 M170.703 181.650 L 170.703 186.737 171.436 186.151 C 174.805 183.454,180.367 184.441,182.215 188.063 C 183.749 191.070,183.742 199.178,182.203 202.194 C 180.340 205.846,174.571 206.871,171.426 204.110 L 170.703 203.475 170.703 204.472 L 170.703 205.469 168.652 205.469 L 166.602 205.469 166.602 191.016 L 166.602 176.563 168.652 176.563 L 170.703 176.563 170.703 181.650 M243.897 179.053 C 244.336 180.422,245.266 183.345,245.964 185.547 C 246.662 187.749,247.792 191.304,248.475 193.448 L 249.717 197.344 252.333 189.053 C 253.772 184.493,255.247 179.817,255.611 178.662 L 256.273 176.563 258.605 176.563 C 259.888 176.563,260.938 176.629,260.938 176.710 C 260.938 176.791,258.799 183.273,256.185 191.114 L 251.432 205.371 249.699 205.371 L 247.965 205.371 243.224 191.016 C 240.616 183.120,238.481 176.638,238.480 176.611 C 238.478 176.584,239.516 176.563,240.787 176.563 L 243.098 176.563 243.897 179.053 M268.359 178.695 C 268.359 179.911,268.277 180.855,268.168 180.892 C 268.063 180.928,267.052 180.929,265.922 180.896 L 263.867 180.834 263.867 178.698 L 263.867 176.563 266.113 176.563 L 268.359 176.563 268.359 178.695 M299.654 188.689 L 299.707 200.815 300.255 201.287 C 300.728 201.693,301.002 201.758,302.257 201.758 L 303.711 201.758 303.711 203.613 L 303.711 205.469 302.015 205.469 C 298.063 205.469,296.033 203.987,295.513 200.723 C 295.289 199.315,295.234 176.902,295.454 176.681 C 295.519 176.616,296.479 176.563,297.587 176.563 L 299.601 176.563 299.654 188.689 M344.922 188.563 L 344.922 200.564 345.393 201.112 C 345.816 201.605,346.019 201.670,347.395 201.758 L 348.926 201.855 348.926 203.613 L 348.926 205.371 346.777 205.356 C 343.698 205.335,342.186 204.507,341.185 202.293 L 340.723 201.270 340.667 189.173 C 340.636 182.520,340.655 176.961,340.709 176.820 C 340.782 176.630,341.344 176.563,342.865 176.563 L 344.922 176.563 344.922 188.563 M357.617 182.129 L 357.617 185.156 359.538 185.156 C 361.842 185.156,361.635 184.978,361.557 186.897 L 361.494 188.477 359.555 188.477 L 357.617 188.477 357.617 194.209 C 357.617 201.567,357.686 201.758,360.342 201.758 L 361.523 201.758 361.523 203.418 C 361.523 204.331,361.545 205.144,361.572 205.225 C 361.654 205.469,358.814 205.502,357.694 205.269 C 356.214 204.962,354.947 204.038,354.216 202.734 L 353.613 201.660 353.516 195.117 L 353.418 188.574 352.295 188.516 L 351.172 188.457 351.172 187.002 C 351.172 186.202,351.150 185.481,351.123 185.400 C 351.096 185.320,351.624 185.228,352.295 185.196 L 353.516 185.138 353.516 182.120 L 353.516 179.102 355.566 179.102 L 357.617 179.102 357.617 182.129 M100.430 184.785 C 101.535 185.014,102.814 185.661,103.364 186.269 C 103.868 186.825,100.816 189.911,100.251 189.416 C 98.414 187.804,95.533 188.237,94.245 190.319 L 93.652 191.277 93.597 198.373 L 93.541 205.469 91.398 205.469 L 89.254 205.469 89.305 195.200 L 89.355 184.932 91.357 184.897 L 93.359 184.863 93.359 185.909 L 93.359 186.955 94.082 186.320 C 95.704 184.896,98.133 184.309,100.430 184.785 M155.963 185.158 C 159.516 186.381,161.513 189.767,161.521 194.580 L 161.523 196.484 154.867 196.484 L 148.211 196.484 148.318 197.021 C 148.376 197.317,148.480 197.886,148.549 198.285 C 149.182 201.967,154.518 203.230,157.794 200.474 L 158.414 199.952 159.513 200.912 C 161.376 202.539,161.143 203.160,158.105 204.666 C 152.090 207.649,145.616 204.598,144.401 198.207 C 142.678 189.143,148.488 182.587,155.963 185.158 M198.102 184.858 C 202.289 185.745,204.718 189.200,204.766 194.336 L 204.785 196.387 198.193 196.438 L 191.602 196.490 191.602 197.037 C 191.602 201.431,197.023 203.587,200.757 200.678 C 201.846 199.829,201.651 199.782,203.096 201.240 L 204.325 202.481 203.383 203.311 C 197.847 208.194,189.182 205.558,187.685 198.535 C 185.859 189.964,190.909 183.334,198.102 184.858 M220.938 184.790 C 225.778 185.817,226.615 187.950,226.519 199.023 L 226.465 205.371 224.365 205.427 L 222.266 205.482 222.266 198.773 C 222.266 193.425,222.207 191.866,221.977 191.092 C 221.014 187.847,216.164 187.482,214.483 190.527 C 214.205 191.032,214.147 192.098,214.063 198.242 L 213.965 205.371 211.865 205.427 L 209.766 205.482 209.766 195.235 L 209.766 184.989 211.501 184.926 C 213.893 184.840,213.867 184.830,213.867 185.857 L 213.867 186.725 214.842 186.055 C 216.679 184.791,218.834 184.344,220.938 184.790 M283.844 184.858 C 288.080 185.755,290.478 189.198,290.514 194.434 L 290.527 196.387 283.936 196.438 L 277.344 196.490 277.344 197.037 C 277.344 201.434,282.765 203.587,286.504 200.674 C 287.546 199.862,287.371 199.819,288.879 201.261 L 290.095 202.425 289.154 203.278 C 283.699 208.216,274.899 205.562,273.433 198.535 C 271.633 189.912,276.642 183.332,283.844 184.858 M328.549 184.767 C 331.451 185.186,333.480 186.492,334.403 188.532 C 334.859 189.541,334.864 189.626,334.920 197.510 L 334.977 205.469 332.918 205.469 L 330.859 205.469 330.859 204.581 L 330.859 203.693 330.127 204.280 C 327.432 206.441,321.560 205.967,319.627 203.433 C 317.924 201.201,317.920 197.557,319.618 195.573 C 321.039 193.913,323.082 193.363,327.835 193.361 L 330.768 193.359 330.653 191.792 C 330.467 189.267,329.580 188.462,326.821 188.318 C 324.767 188.210,323.683 188.504,322.589 189.467 L 321.744 190.211 320.441 188.898 L 319.137 187.585 319.969 186.771 C 321.810 184.970,324.925 184.242,328.549 184.767 M83.203 195.166 L 83.203 205.469 81.152 205.469 L 79.102 205.469 79.102 195.166 L 79.102 184.863 81.153 184.863 L 83.203 184.863 83.203 195.166 M131.649 191.998 C 132.957 195.973,133.982 198.801,134.055 198.633 C 134.126 198.472,135.004 195.352,136.008 191.699 L 137.834 185.059 140.132 185.003 C 141.937 184.960,142.409 185.002,142.335 185.199 C 142.283 185.336,141.840 186.724,141.351 188.281 C 139.665 193.653,137.526 200.495,136.772 202.930 L 136.016 205.371 134.187 205.371 L 132.357 205.371 130.053 198.461 C 128.786 194.660,127.711 191.513,127.664 191.466 C 127.618 191.420,126.531 194.529,125.248 198.376 L 122.917 205.371 121.092 205.371 L 119.267 205.371 116.118 195.215 L 112.969 185.059 115.110 185.003 C 116.288 184.973,117.313 185.016,117.387 185.101 C 117.461 185.185,118.334 188.242,119.327 191.895 C 120.319 195.547,121.190 198.598,121.263 198.676 C 121.335 198.753,122.431 195.703,123.698 191.898 L 126.001 184.980 127.112 184.921 C 129.486 184.797,129.065 184.140,131.649 191.998 M268.117 195.186 L 268.168 205.482 266.066 205.427 L 263.965 205.371 263.914 195.181 C 263.867 185.715,263.887 184.986,264.196 184.927 C 264.379 184.892,265.325 184.869,266.298 184.877 L 268.066 184.890 268.117 195.186 M151.585 188.317 C 149.905 188.696,148.763 190.255,148.356 192.725 L 148.252 193.359 152.859 193.359 L 157.465 193.359 157.333 192.627 C 156.727 189.262,154.569 187.644,151.585 188.317 M194.887 188.354 C 193.053 188.857,191.912 190.275,191.665 192.360 L 191.547 193.359 196.067 193.359 L 200.586 193.359 200.586 192.700 C 200.586 189.740,197.742 187.572,194.887 188.354 M280.859 188.301 C 279.022 188.659,277.656 190.264,277.408 192.354 L 277.289 193.359 281.809 193.359 L 286.328 193.359 286.328 192.700 C 286.328 189.828,283.734 187.741,280.859 188.301 M173.135 188.751 C 169.870 190.174,169.858 199.792,173.119 201.508 C 174.607 202.291,177.046 201.805,177.993 200.537 C 179.255 198.848,179.515 192.722,178.418 190.527 C 177.498 188.687,175.119 187.887,173.135 188.751 M323.881 196.774 C 323.018 197.149,322.463 198.121,322.462 199.258 C 322.460 201.304,323.511 202.054,326.367 202.045 C 329.581 202.034,330.664 200.998,330.664 197.937 L 330.664 196.484 327.588 196.492 C 325.391 196.497,324.331 196.578,323.881 196.774 " stroke="none" fill="#9b0405" fill-rule="evenodd"></path><path id="path1" d="M3.320 62.373 L 3.320 121.426 4.932 122.122 C 12.073 125.205,14.543 126.239,18.555 127.827 C 25.989 130.769,34.922 133.909,44.141 136.820 C 72.667 145.828,104.745 151.333,140.332 153.329 C 150.779 153.915,172.727 153.767,185.742 153.022 C 248.781 149.415,315.892 132.112,385.156 101.606 C 388.753 100.022,390.660 99.165,395.264 97.067 L 396.680 96.421 396.680 49.871 L 396.680 3.320 200.000 3.320 L 3.320 3.320 3.320 62.373 M272.852 26.646 C 273.127 26.755,273.132 27.811,272.872 31.017 C 272.856 31.214,272.753 31.203,272.417 30.968 C 270.857 29.875,269.925 31.166,269.923 34.424 L 269.922 36.133 271.387 36.133 L 272.852 36.133 272.852 38.086 L 272.852 40.039 271.387 40.039 L 269.922 40.039 269.922 48.242 L 269.922 56.445 268.164 56.445 L 266.406 56.445 266.406 48.242 L 266.406 40.039 265.234 40.039 L 264.063 40.039 264.063 38.086 L 264.063 36.133 265.205 36.133 L 266.348 36.133 266.461 33.545 C 266.632 29.629,267.518 27.411,269.223 26.631 C 269.810 26.363,272.157 26.372,272.852 26.646 M333.942 28.235 C 335.282 29.173,335.434 31.777,334.224 33.057 C 332.949 34.405,331.072 33.069,331.059 30.804 C 331.047 28.798,332.675 27.347,333.942 28.235 M311.870 34.611 L 313.379 34.668 313.379 36.719 L 313.379 38.770 311.865 38.827 L 310.352 38.884 310.352 44.122 C 310.352 51.749,310.844 53.153,313.099 51.946 C 313.451 51.758,313.477 51.817,313.477 52.797 C 313.477 53.375,313.532 54.377,313.599 55.022 L 313.722 56.194 313.082 56.418 C 311.252 57.056,309.351 56.571,308.305 55.198 C 307.114 53.638,306.978 52.707,306.882 45.459 L 306.794 38.867 305.643 38.867 L 304.492 38.867 304.492 36.719 L 304.492 34.570 305.657 34.570 L 306.823 34.570 306.878 32.476 L 306.934 30.382 308.594 29.458 L 310.254 28.534 310.308 31.544 L 310.361 34.554 311.870 34.611 M322.895 31.689 L 322.949 34.668 324.463 34.725 L 325.977 34.782 325.977 36.825 L 325.977 38.867 324.414 38.867 L 322.852 38.867 322.852 44.114 C 322.852 51.750,323.344 53.153,325.599 51.946 C 325.951 51.758,325.977 51.817,325.977 52.797 C 325.977 53.375,326.032 54.382,326.100 55.033 L 326.224 56.217 325.466 56.428 C 323.323 57.023,321.756 56.549,320.666 54.978 C 319.614 53.459,319.482 52.471,319.385 45.361 L 319.297 38.867 318.144 38.867 L 316.992 38.867 316.992 36.816 L 316.992 34.766 318.164 34.766 L 319.336 34.766 319.360 32.813 C 319.374 31.738,319.396 30.768,319.409 30.657 C 319.432 30.469,322.382 28.730,322.700 28.717 C 322.778 28.714,322.866 30.051,322.895 31.689 M348.185 35.581 C 350.615 36.715,352.148 41.017,352.148 46.700 L 352.148 47.656 347.654 47.656 L 343.159 47.656 343.289 48.486 C 343.945 52.694,346.774 53.894,350.107 51.377 L 351.172 50.573 351.172 52.816 L 351.172 55.058 350.524 55.553 C 347.467 57.884,342.984 56.684,341.219 53.061 C 339.426 49.380,339.472 42.101,341.311 38.471 C 342.855 35.425,345.483 34.320,348.185 35.581 M296.777 35.844 C 303.010 38.863,302.656 54.233,296.305 56.342 C 291.670 57.882,288.059 53.883,287.756 46.875 C 287.408 38.833,291.817 33.441,296.777 35.844 M285.059 38.491 C 285.059 40.726,285.015 41.102,284.766 41.035 C 282.820 40.517,281.984 41.092,281.245 43.457 C 281.084 43.972,280.960 46.338,280.881 50.391 L 280.762 56.543 279.102 56.543 L 277.441 56.543 277.391 46.338 L 277.340 36.133 278.905 36.133 L 280.469 36.133 280.473 37.939 L 280.478 39.746 280.926 38.656 C 281.863 36.380,283.114 35.381,284.570 35.746 L 285.059 35.868 285.059 38.491 M364.844 38.520 C 364.844 41.050,364.818 41.242,364.502 41.103 C 361.478 39.774,360.557 42.291,360.550 51.912 L 360.547 56.656 358.838 56.599 L 357.129 56.543 357.078 46.338 L 357.028 36.133 358.592 36.133 L 360.156 36.133 360.170 38.037 C 360.183 39.837,360.198 39.904,360.440 39.247 C 361.397 36.648,362.789 35.405,364.404 35.706 C 364.835 35.786,364.844 35.841,364.844 38.520 M334.570 46.484 L 334.570 56.641 333.105 56.641 L 331.641 56.641 331.641 46.484 L 331.641 36.328 333.105 36.328 L 334.570 36.328 334.570 46.484 M345.195 39.341 C 344.273 39.743,343.559 41.122,343.292 43.018 L 343.189 43.750 346.026 43.750 L 348.862 43.750 348.734 42.920 C 348.260 39.851,346.985 38.562,345.195 39.341 M293.754 39.669 C 290.110 41.139,290.674 52.295,294.397 52.401 C 295.917 52.444,296.830 51.326,297.349 48.788 C 298.438 43.454,296.508 38.558,293.754 39.669 M54.692 51.807 C 54.694 51.941,54.692 57.214,54.688 63.525 L 54.679 75.000 64.937 75.000 L 75.195 75.000 75.195 63.281 L 75.195 51.563 78.809 51.563 L 82.422 51.563 82.422 79.688 L 82.422 107.813 78.809 107.813 L 75.195 107.813 75.195 95.313 L 75.195 82.813 65.062 82.813 L 54.928 82.813 54.813 83.252 C 54.749 83.494,54.702 89.097,54.708 95.703 L 54.720 107.715 51.188 107.768 L 47.656 107.821 47.656 79.692 L 47.656 51.563 51.172 51.563 C 53.852 51.563,54.689 51.621,54.692 51.807 M123.002 55.420 L 122.949 59.277 115.088 59.328 L 107.227 59.379 107.227 67.187 L 107.227 74.995 114.697 75.047 L 122.168 75.098 122.168 78.906 L 122.168 82.715 114.697 82.766 L 107.227 82.817 107.227 91.311 L 107.227 99.805 115.137 99.805 L 123.047 99.805 123.047 103.809 L 123.047 107.813 111.426 107.813 L 99.805 107.813 99.805 79.688 L 99.805 51.563 111.430 51.563 L 123.055 51.563 123.002 55.420 M156.152 52.127 C 162.240 54.132,165.302 58.349,165.569 65.097 C 165.909 73.690,161.732 80.293,154.815 82.097 C 154.187 82.261,153.644 82.423,153.609 82.458 C 153.574 82.493,153.967 83.224,154.481 84.083 C 154.995 84.942,156.822 88.018,158.540 90.918 C 160.258 93.818,163.170 98.727,165.011 101.826 C 166.853 104.925,168.359 107.496,168.359 107.539 C 168.359 107.582,166.342 107.617,163.876 107.617 L 159.392 107.617 158.632 106.299 C 158.214 105.574,155.156 100.179,151.836 94.311 L 145.801 83.642 145.750 95.727 L 145.700 107.813 142.088 107.813 L 138.477 107.813 138.477 79.674 L 138.477 51.536 146.631 51.607 C 154.520 51.675,154.830 51.692,156.152 52.127 M188.719 64.267 L 188.770 76.971 196.468 64.346 C 200.702 57.402,204.263 51.683,204.382 51.638 C 204.502 51.592,206.508 51.578,208.840 51.607 L 213.081 51.660 204.598 65.208 C 196.684 77.846,196.133 78.784,196.386 79.173 C 199.026 83.229,213.808 107.559,213.699 107.668 C 213.616 107.751,211.406 107.796,208.788 107.767 L 204.028 107.715 199.997 100.586 C 197.780 96.665,194.402 90.688,192.492 87.305 C 190.581 83.921,188.940 81.069,188.845 80.967 C 188.744 80.859,188.672 86.440,188.672 94.297 L 188.672 107.813 185.059 107.813 L 181.445 107.813 181.445 79.688 L 181.445 51.563 185.057 51.563 L 188.669 51.563 188.719 64.267 M247.736 62.549 C 249.431 68.591,251.376 75.513,252.059 77.930 C 254.101 85.167,260.120 106.697,260.262 107.275 L 260.394 107.813 256.384 107.813 L 252.374 107.813 252.174 107.178 C 252.063 106.829,251.340 104.059,250.565 101.023 L 249.157 95.504 240.465 95.555 L 231.773 95.605 230.075 101.660 L 228.378 107.715 224.616 107.768 C 221.564 107.811,220.872 107.772,220.952 107.563 C 221.007 107.422,221.233 106.651,221.454 105.850 C 221.929 104.137,225.307 92.031,227.638 83.691 C 228.538 80.469,230.864 72.119,232.805 65.137 C 234.747 58.154,236.419 52.244,236.523 52.002 C 236.709 51.567,236.749 51.563,240.682 51.563 L 244.655 51.563 247.736 62.549 M145.750 67.819 L 145.801 76.660 149.023 76.660 C 152.194 76.660,152.265 76.651,153.415 76.086 C 159.300 73.197,159.750 62.987,154.125 59.989 C 152.833 59.301,152.440 59.238,148.484 59.086 L 145.699 58.979 145.750 67.819 M239.512 65.769 C 239.071 67.462,237.603 73.040,236.250 78.164 C 234.896 83.288,233.789 87.561,233.789 87.658 C 233.789 87.804,247.049 88.137,247.218 87.996 C 247.245 87.973,247.184 87.698,247.082 87.385 C 246.981 87.072,245.475 81.499,243.737 75.000 C 241.999 68.501,240.518 63.073,240.446 62.937 C 240.373 62.801,239.953 64.076,239.512 65.769 M79.102 178.711 L 79.102 180.859 81.152 180.859 L 83.203 180.859 83.203 178.711 L 83.203 176.563 81.152 176.563 L 79.102 176.563 79.102 178.711 M263.867 178.711 L 263.867 180.859 266.016 180.859 L 268.164 180.859 268.164 178.711 L 268.164 176.563 266.016 176.563 L 263.867 176.563 263.867 178.711 M311.809 176.873 C 309.530 177.682,308.548 179.450,308.431 182.948 L 308.351 185.352 307.203 185.352 L 306.055 185.352 306.055 186.816 L 306.055 188.281 307.227 188.281 L 308.398 188.281 308.398 196.777 L 308.398 205.273 310.449 205.273 L 312.500 205.273 312.500 196.777 L 312.500 188.281 314.453 188.281 L 316.406 188.281 316.406 186.816 L 316.406 185.352 314.453 185.352 L 312.500 185.352 312.500 183.304 C 312.500 180.555,312.882 180.038,315.000 179.918 L 316.375 179.841 316.444 178.543 C 316.555 176.470,316.645 176.560,314.479 176.578 C 313.382 176.587,312.269 176.710,311.809 176.873 M41.683 177.100 C 41.862 177.672,49.023 205.065,49.023 205.180 C 49.023 205.239,49.877 205.262,50.921 205.232 L 52.819 205.176 53.633 202.344 C 57.689 188.239,58.457 185.625,58.581 185.492 C 58.659 185.408,59.713 188.747,60.922 192.914 C 62.132 197.080,63.436 201.565,63.821 202.881 L 64.520 205.273 66.418 205.273 L 68.315 205.273 68.406 204.736 C 68.457 204.441,69.295 201.167,70.269 197.461 C 74.300 182.126,75.586 177.170,75.586 176.963 C 75.586 176.812,74.910 176.762,73.394 176.800 L 71.202 176.855 69.485 183.887 C 68.541 187.754,67.440 192.302,67.039 193.993 C 66.637 195.684,66.259 197.068,66.198 197.069 C 66.137 197.070,65.441 194.763,64.650 191.943 C 63.859 189.124,62.579 184.575,61.806 181.836 L 60.400 176.855 58.642 176.800 C 56.948 176.746,56.881 176.760,56.791 177.190 C 56.536 178.405,51.305 196.799,51.174 196.940 C 51.091 197.029,50.914 196.633,50.781 196.061 C 50.647 195.488,49.584 191.108,48.418 186.328 C 47.251 181.548,46.249 177.439,46.192 177.197 C 46.090 176.773,46.008 176.758,43.831 176.758 C 41.772 176.758,41.585 176.788,41.683 177.100 M166.602 191.016 L 166.602 205.273 168.555 205.273 L 170.508 205.273 170.508 204.297 C 170.508 203.187,170.635 203.111,171.304 203.828 C 173.456 206.135,178.837 205.996,181.068 203.577 C 184.072 200.317,184.042 189.731,181.019 186.589 C 178.830 184.313,173.870 184.174,171.426 186.320 L 170.703 186.955 170.703 181.856 L 170.703 176.758 168.652 176.758 L 166.602 176.758 166.602 191.016 M238.720 177.002 C 238.809 177.243,240.139 181.269,245.095 196.289 C 246.495 200.532,247.741 204.290,247.863 204.639 L 248.085 205.273 249.705 205.273 C 250.822 205.273,251.354 205.198,251.418 205.029 C 251.726 204.213,260.742 177.012,260.742 176.898 C 260.742 176.821,259.750 176.758,258.538 176.758 L 256.333 176.758 253.242 186.572 C 251.541 191.970,250.042 196.650,249.909 196.973 C 249.641 197.627,249.722 197.859,245.084 183.156 L 243.066 176.761 240.848 176.759 C 239.156 176.758,238.651 176.816,238.720 177.002 M295.550 189.111 C 295.612 202.828,295.556 202.242,296.934 203.679 C 298.071 204.866,298.869 205.149,301.318 205.237 L 303.516 205.316 303.516 203.660 L 303.516 202.004 302.015 201.908 C 300.689 201.823,300.462 201.751,300.062 201.286 L 299.609 200.759 299.590 189.393 C 299.580 183.142,299.568 177.742,299.565 177.393 L 299.559 176.758 297.526 176.758 L 295.494 176.758 295.550 189.111 M340.820 188.738 C 340.820 201.711,340.825 201.777,341.889 203.313 C 342.808 204.638,344.080 205.155,346.631 205.241 L 348.828 205.316 348.828 203.656 L 348.828 201.996 347.364 201.922 C 346.078 201.857,345.834 201.782,345.362 201.310 L 344.824 200.773 344.768 188.765 L 344.712 176.758 342.766 176.758 L 340.820 176.758 340.820 188.738 M353.516 182.220 L 353.516 185.352 352.344 185.352 L 351.172 185.352 351.172 186.816 L 351.172 188.281 352.332 188.281 L 353.492 188.281 353.553 194.775 L 353.613 201.270 354.163 202.389 C 355.179 204.458,356.768 205.273,359.788 205.273 L 361.523 205.273 361.523 203.635 L 361.523 201.997 360.133 201.919 C 358.859 201.847,358.696 201.788,358.180 201.210 L 357.617 200.580 357.617 194.431 L 357.617 188.281 359.570 188.281 L 361.523 188.281 361.523 186.816 L 361.523 185.352 359.575 185.352 L 357.627 185.352 357.573 182.275 L 357.520 179.199 355.518 179.144 L 353.516 179.088 353.516 182.220 M96.777 185.039 C 95.609 185.408,94.702 185.911,93.994 186.584 L 93.359 187.186 93.359 186.073 L 93.359 184.961 91.406 184.961 L 89.453 184.961 89.453 195.117 L 89.453 205.273 91.406 205.273 L 93.359 205.273 93.364 198.877 C 93.369 192.107,93.456 191.257,94.263 190.037 C 95.437 188.263,98.673 187.704,99.903 189.064 C 100.431 189.646,100.607 189.571,102.122 188.111 C 103.740 186.553,103.731 186.583,102.779 185.912 C 101.243 184.829,98.639 184.450,96.777 185.039 M150.395 185.079 C 144.369 186.698,142.008 197.236,146.446 202.712 C 149.307 206.243,156.312 206.499,160.122 203.212 L 160.967 202.483 159.836 201.339 C 158.491 199.981,158.682 200.009,157.315 200.966 C 153.413 203.700,148.242 201.406,148.242 196.942 L 148.242 196.289 154.912 196.289 L 161.582 196.289 161.453 194.171 C 161.032 187.223,156.446 183.453,150.395 185.079 M193.729 185.049 C 188.242 186.562,185.688 194.694,188.690 201.093 C 190.912 205.828,198.507 207.099,203.016 203.490 C 204.350 202.423,204.353 202.471,202.857 201.133 L 201.612 200.020 201.159 200.502 C 197.969 203.898,192.108 201.960,191.491 197.306 L 191.356 196.289 198.049 196.289 L 204.741 196.289 204.635 193.994 C 204.328 187.309,199.598 183.430,193.729 185.049 M216.950 185.131 C 216.336 185.334,215.392 185.818,214.851 186.207 L 213.867 186.913 213.867 185.937 L 213.867 184.961 211.914 184.961 L 209.961 184.961 209.961 195.117 L 209.961 205.273 211.905 205.273 L 213.849 205.273 213.907 198.291 C 213.963 191.574,213.981 191.279,214.385 190.527 C 216.034 187.464,220.717 187.544,221.962 190.655 C 222.239 191.347,222.289 192.445,222.312 198.368 L 222.339 205.273 224.353 205.273 L 226.367 205.273 226.367 198.269 C 226.367 190.786,226.274 189.761,225.442 188.112 C 224.081 185.415,220.204 184.054,216.950 185.131 M279.492 185.045 C 273.992 186.575,271.425 194.697,274.425 201.074 C 276.670 205.845,284.224 207.118,288.759 203.490 C 290.085 202.429,290.088 202.478,288.595 201.133 L 287.359 200.019 286.821 200.581 C 283.644 203.897,277.863 201.924,277.248 197.314 L 277.112 196.289 283.771 196.289 L 290.430 196.289 290.426 194.580 C 290.413 187.646,285.510 183.371,279.492 185.045 M323.232 185.110 C 321.833 185.489,320.060 186.521,319.598 187.227 C 319.315 187.658,319.351 187.719,320.539 188.836 L 321.774 189.997 322.445 189.408 C 323.530 188.455,324.321 188.204,326.270 188.193 C 329.484 188.176,330.859 189.380,330.859 192.211 L 330.859 193.519 327.002 193.605 C 322.829 193.699,322.207 193.816,320.771 194.781 C 317.804 196.774,317.584 201.670,320.357 204.014 C 322.648 205.951,327.562 206.035,329.992 204.180 C 331.071 203.357,331.011 203.344,330.964 204.395 L 330.924 205.273 332.845 205.273 L 334.766 205.273 334.766 197.692 C 334.766 188.417,334.667 187.934,332.443 186.298 C 330.536 184.896,326.125 184.326,323.232 185.110 M79.102 195.117 L 79.102 205.273 81.152 205.273 L 83.203 205.273 83.203 195.117 L 83.203 184.961 81.152 184.961 L 79.102 184.961 79.102 195.117 M113.163 185.303 C 113.220 185.491,113.745 187.183,114.330 189.063 C 114.915 190.942,116.153 194.941,117.083 197.949 C 118.012 200.957,118.906 203.835,119.070 204.346 L 119.367 205.273 121.109 205.273 C 122.068 205.273,122.852 205.249,122.852 205.218 C 122.852 205.123,126.145 195.307,126.884 193.200 C 127.273 192.091,127.656 191.256,127.736 191.344 C 127.816 191.432,128.910 194.602,130.168 198.389 L 132.454 205.273 134.180 205.273 L 135.906 205.273 136.301 204.053 C 137.132 201.488,142.188 185.193,142.188 185.080 C 142.188 185.014,141.236 184.961,140.073 184.961 L 137.959 184.961 136.339 190.869 C 135.447 194.119,134.580 197.327,134.411 197.998 C 134.243 198.669,134.050 199.219,133.982 199.219 C 133.914 199.219,132.812 196.008,131.531 192.083 L 129.203 184.947 127.654 185.003 L 126.104 185.059 123.747 192.139 C 122.451 196.033,121.346 199.219,121.291 199.219 C 121.236 199.218,120.319 196.010,119.252 192.090 L 117.312 184.961 115.186 184.961 C 113.252 184.961,113.069 184.992,113.163 185.303 M264.063 195.117 L 264.063 205.273 266.016 205.273 L 267.969 205.273 267.969 195.117 L 267.969 184.961 266.016 184.961 L 264.063 184.961 264.063 195.117 M154.360 188.295 C 155.990 188.748,157.422 190.845,157.422 192.781 L 157.422 193.555 152.832 193.555 L 148.242 193.555 148.242 192.781 C 148.242 189.567,151.180 187.413,154.360 188.295 M198.182 188.581 C 199.656 189.315,200.781 191.276,200.781 193.109 L 200.781 193.555 196.094 193.555 L 191.406 193.555 191.406 193.109 C 191.406 190.333,193.503 188.086,196.094 188.086 C 196.874 188.086,197.474 188.228,198.182 188.581 M284.298 188.781 C 285.430 189.481,286.271 190.941,286.458 192.529 L 286.578 193.555 281.845 193.555 L 277.112 193.555 277.247 192.529 C 277.743 188.767,281.255 186.900,284.298 188.781 M176.428 188.518 C 180.070 189.609,180.438 199.963,176.891 201.574 C 172.933 203.371,170.586 200.717,170.739 194.618 C 170.869 189.383,172.714 187.405,176.428 188.518 M330.858 197.705 C 330.856 201.017,329.676 202.149,326.227 202.148 C 323.010 202.148,321.439 200.336,322.577 197.939 C 323.229 196.564,324.053 196.309,327.881 196.298 L 330.859 196.289 330.858 197.705 " stroke="none" fill="#fbfbfb" fill-rule="evenodd"></path><path id="path2" d="M272.897 29.688 C 272.897 30.063,272.937 30.217,272.986 30.029 C 273.035 29.841,273.035 29.534,272.986 29.346 C 272.937 29.158,272.897 29.312,272.897 29.688 M306.877 32.461 L 306.836 34.552 305.615 34.621 L 304.395 34.690 305.621 34.728 C 307.101 34.773,307.066 34.837,306.982 32.310 L 306.918 30.371 306.877 32.461 M319.408 32.813 C 319.408 33.940,319.440 34.402,319.480 33.838 C 319.519 33.274,319.519 32.351,319.480 31.787 C 319.440 31.223,319.408 31.685,319.408 32.813 M266.479 34.180 C 266.479 35.308,266.511 35.769,266.550 35.205 C 266.590 34.641,266.590 33.718,266.550 33.154 C 266.511 32.590,266.479 33.052,266.479 34.180 M311.809 34.712 L 313.268 34.782 313.334 36.678 L 313.399 38.574 313.389 36.621 L 313.379 34.668 311.865 34.655 L 310.350 34.642 311.809 34.712 M325.854 36.816 C 325.855 37.998,325.887 38.456,325.926 37.835 C 325.965 37.213,325.964 36.246,325.925 35.686 C 325.886 35.126,325.854 35.635,325.854 36.816 M284.960 38.516 C 284.907 39.988,284.932 41.124,285.016 41.040 C 285.100 40.955,285.143 39.751,285.113 38.363 L 285.057 35.840 284.960 38.516 M357.126 46.387 L 357.129 56.543 358.789 56.554 L 360.449 56.566 358.840 56.498 L 357.230 56.430 357.177 46.330 L 357.124 36.230 357.126 46.387 M306.922 44.629 C 306.922 47.852,306.949 49.197,306.982 47.619 C 307.015 46.042,307.015 43.405,306.982 41.760 C 306.949 40.115,306.923 41.406,306.922 44.629 M319.422 44.629 C 319.422 47.852,319.449 49.197,319.482 47.619 C 319.515 46.042,319.515 43.405,319.482 41.760 C 319.449 40.115,319.423 41.406,319.422 44.629 M266.496 48.242 C 266.496 52.808,266.521 54.675,266.553 52.393 C 266.584 50.110,266.584 46.375,266.553 44.092 C 266.521 41.809,266.496 43.677,266.496 48.242 M344.589 43.895 C 345.426 43.932,346.745 43.932,347.519 43.895 C 348.293 43.858,347.607 43.828,345.996 43.828 C 344.385 43.828,343.752 43.859,344.589 43.895 M339.889 44.727 C 339.889 45.103,339.929 45.256,339.978 45.068 C 340.028 44.880,340.028 44.573,339.978 44.385 C 339.929 44.197,339.889 44.351,339.889 44.727 M301.232 45.996 C 301.233 46.641,301.270 46.881,301.313 46.530 C 301.357 46.179,301.356 45.651,301.311 45.358 C 301.267 45.064,301.231 45.352,301.232 45.996 M352.002 45.605 C 352.005 46.035,352.045 46.188,352.091 45.945 C 352.138 45.702,352.136 45.350,352.087 45.164 C 352.038 44.977,352.000 45.176,352.002 45.605 M291.267 46.387 C 291.268 46.924,291.306 47.120,291.351 46.823 C 291.396 46.527,291.395 46.087,291.348 45.847 C 291.302 45.607,291.265 45.850,291.267 46.387 M339.889 47.461 C 339.889 47.837,339.929 47.991,339.978 47.803 C 340.028 47.615,340.028 47.307,339.978 47.119 C 339.929 46.931,339.889 47.085,339.889 47.461 M49.365 51.708 C 50.359 51.743,51.985 51.743,52.979 51.708 C 53.972 51.673,53.159 51.644,51.172 51.644 C 49.185 51.644,48.372 51.673,49.365 51.708 M77.012 51.708 C 78.065 51.743,79.735 51.743,80.723 51.708 C 81.711 51.673,80.850 51.644,78.809 51.644 C 76.768 51.644,75.959 51.673,77.012 51.708 M105.518 51.709 C 108.713 51.739,113.943 51.739,117.139 51.709 C 120.334 51.679,117.720 51.654,111.328 51.654 C 104.937 51.654,102.322 51.679,105.518 51.709 M142.236 51.709 C 144.358 51.740,147.830 51.740,149.951 51.709 C 152.073 51.677,150.337 51.651,146.094 51.651 C 141.851 51.651,140.115 51.677,142.236 51.709 M183.262 51.708 C 184.315 51.743,185.985 51.743,186.973 51.708 C 187.961 51.673,187.100 51.644,185.059 51.644 C 183.018 51.644,182.209 51.673,183.262 51.708 M206.505 51.708 C 207.773 51.743,209.795 51.742,210.997 51.708 C 212.200 51.674,211.162 51.646,208.691 51.646 C 206.221 51.646,205.237 51.674,206.505 51.708 M238.633 51.708 C 239.740 51.743,241.498 51.743,242.540 51.708 C 243.581 51.673,242.676 51.644,240.527 51.645 C 238.379 51.645,237.527 51.673,238.633 51.708 M313.530 55.469 C 313.530 55.952,313.568 56.150,313.614 55.908 C 313.661 55.667,313.661 55.271,313.614 55.029 C 313.568 54.788,313.530 54.985,313.530 55.469 M326.030 55.469 C 326.030 55.952,326.068 56.150,326.114 55.908 C 326.161 55.667,326.161 55.271,326.114 55.029 C 326.068 54.788,326.030 54.985,326.030 55.469 M278.271 56.588 C 278.728 56.629,279.475 56.629,279.932 56.588 C 280.388 56.547,280.015 56.514,279.102 56.514 C 278.188 56.514,277.815 56.547,278.271 56.588 M122.914 58.008 C 122.914 58.706,122.950 58.992,122.993 58.643 C 123.036 58.293,123.036 57.722,122.993 57.373 C 122.950 57.024,122.914 57.310,122.914 58.008 M148.291 59.127 C 148.694 59.169,149.353 59.169,149.756 59.127 C 150.159 59.085,149.829 59.050,149.023 59.050 C 148.218 59.050,147.888 59.085,148.291 59.127 M107.125 67.188 L 107.129 75.098 114.595 75.149 L 122.062 75.200 122.121 78.909 L 122.181 82.617 122.174 78.858 L 122.168 75.098 114.699 75.047 L 107.231 74.995 107.177 67.136 L 107.122 59.277 107.125 67.188 M145.542 74.256 C 145.523 75.512,145.574 76.580,145.654 76.631 C 145.735 76.681,145.777 76.005,145.748 75.128 C 145.653 72.257,145.577 71.933,145.542 74.256 M59.828 75.146 C 62.709 75.177,67.367 75.177,70.180 75.146 C 72.992 75.116,70.635 75.091,64.941 75.091 C 59.248 75.091,56.947 75.116,59.828 75.146 M107.120 90.234 C 107.120 94.370,107.146 96.062,107.177 93.994 C 107.209 91.926,107.209 88.542,107.177 86.475 C 107.146 84.407,107.120 86.099,107.120 90.234 M145.599 96.484 C 145.599 102.769,145.624 105.339,145.654 102.197 C 145.684 99.055,145.684 93.914,145.654 90.771 C 145.624 87.629,145.599 90.200,145.599 96.484 M241.267 88.035 C 241.888 88.074,242.855 88.074,243.415 88.034 C 243.975 87.995,243.467 87.963,242.285 87.964 C 241.104 87.964,240.645 87.996,241.267 88.035 M107.077 98.828 C 107.077 99.204,107.117 99.358,107.166 99.170 C 107.215 98.982,107.215 98.674,107.166 98.486 C 107.117 98.298,107.077 98.452,107.077 98.828 M54.737 106.934 C 54.739 107.363,54.779 107.516,54.826 107.273 C 54.872 107.030,54.871 106.679,54.822 106.492 C 54.773 106.305,54.735 106.504,54.737 106.934 M228.320 107.389 C 228.320 107.535,227.878 107.631,227.100 107.654 L 225.879 107.691 227.030 107.762 C 228.100 107.829,228.768 107.609,228.454 107.295 C 228.380 107.222,228.320 107.264,228.320 107.389 M211.480 107.760 C 211.939 107.802,212.642 107.801,213.042 107.759 C 213.442 107.717,213.066 107.683,212.207 107.684 C 211.348 107.685,211.020 107.719,211.480 107.760 M137.744 153.260 C 137.932 153.309,138.240 153.309,138.428 153.260 C 138.616 153.211,138.462 153.170,138.086 153.170 C 137.710 153.170,137.556 153.211,137.744 153.260 M182.275 153.260 C 182.463 153.309,182.771 153.309,182.959 153.260 C 183.147 153.211,182.993 153.170,182.617 153.170 C 182.241 153.170,182.087 153.211,182.275 153.260 M141.750 153.458 C 141.993 153.505,142.345 153.503,142.532 153.455 C 142.718 153.406,142.520 153.367,142.090 153.370 C 141.660 153.372,141.507 153.412,141.750 153.458 M178.078 153.458 C 178.321 153.505,178.673 153.503,178.860 153.455 C 179.046 153.406,178.848 153.367,178.418 153.370 C 177.988 153.372,177.835 153.412,178.078 153.458 M147.021 153.657 C 147.371 153.700,147.942 153.700,148.291 153.657 C 148.640 153.614,148.354 153.578,147.656 153.578 C 146.958 153.578,146.672 153.614,147.021 153.657 M172.217 153.657 C 172.566 153.700,173.137 153.700,173.486 153.657 C 173.835 153.614,173.550 153.578,172.852 153.578 C 172.153 153.578,171.868 153.614,172.217 153.657 M158.241 153.857 C 159.390 153.891,161.324 153.891,162.538 153.857 C 163.752 153.823,162.813 153.794,160.449 153.794 C 158.086 153.794,157.092 153.822,158.241 153.857 M315.173 176.506 C 315.880 176.550,316.414 176.678,316.461 176.816 C 316.505 176.945,316.532 176.919,316.521 176.758 C 316.505 176.531,316.212 176.461,315.232 176.448 L 313.965 176.432 315.173 176.506 M78.980 178.711 C 78.980 179.946,79.012 180.452,79.051 179.834 C 79.089 179.216,79.089 178.206,79.051 177.588 C 79.012 176.970,78.980 177.476,78.980 178.711 M83.277 178.711 C 83.277 179.946,83.309 180.452,83.347 179.834 C 83.386 179.216,83.386 178.206,83.347 177.588 C 83.309 176.970,83.277 177.476,83.277 178.711 M344.818 188.379 C 344.818 194.824,344.843 197.433,344.873 194.175 C 344.903 190.918,344.903 185.645,344.873 182.457 C 344.843 179.269,344.818 181.934,344.818 188.379 M316.469 178.711 C 316.469 179.409,316.504 179.695,316.548 179.346 C 316.591 178.997,316.591 178.425,316.548 178.076 C 316.504 177.727,316.469 178.013,316.469 178.711 M89.349 195.117 C 89.349 200.757,89.374 203.064,89.404 200.244 C 89.435 197.424,89.435 192.810,89.404 189.990 C 89.374 187.170,89.349 189.478,89.349 195.117 M209.857 195.117 C 209.857 200.757,209.881 203.064,209.912 200.244 C 209.942 197.424,209.942 192.810,209.912 189.990 C 209.881 187.170,209.857 189.478,209.857 195.117 M268.060 195.117 C 268.060 200.757,268.085 203.064,268.115 200.244 C 268.146 197.424,268.146 192.810,268.115 189.990 C 268.085 187.170,268.060 189.478,268.060 195.117 M316.406 186.810 L 316.406 188.268 314.404 188.331 L 312.402 188.394 314.502 188.435 L 316.602 188.477 316.602 186.914 C 316.602 186.055,316.558 185.352,316.504 185.352 C 316.450 185.352,316.406 186.008,316.406 186.810 M320.313 188.770 C 320.677 189.146,321.019 189.453,321.073 189.453 C 321.126 189.453,320.872 189.146,320.508 188.770 C 320.143 188.394,319.801 188.086,319.748 188.086 C 319.694 188.086,319.948 188.394,320.313 188.770 M306.592 188.423 C 306.941 188.466,307.512 188.466,307.861 188.423 C 308.210 188.379,307.925 188.344,307.227 188.344 C 306.528 188.344,306.243 188.379,306.592 188.423 M351.709 188.423 C 352.058 188.466,352.629 188.466,352.979 188.423 C 353.328 188.379,353.042 188.344,352.344 188.344 C 351.646 188.344,351.360 188.379,351.709 188.423 M358.545 188.425 C 359.109 188.465,360.032 188.465,360.596 188.425 C 361.160 188.386,360.698 188.354,359.570 188.354 C 358.442 188.354,357.981 188.386,358.545 188.425 M100.917 189.166 C 100.615 189.431,100.446 189.648,100.541 189.648 C 100.636 189.648,100.920 189.429,101.172 189.160 C 101.756 188.539,101.627 188.542,100.917 189.166 M334.854 197.949 C 334.854 202.031,334.880 203.729,334.912 201.722 C 334.944 199.715,334.944 196.375,334.912 194.300 C 334.880 192.225,334.854 193.867,334.854 197.949 M191.452 192.969 C 191.452 193.345,191.492 193.499,191.541 193.311 C 191.590 193.123,191.590 192.815,191.541 192.627 C 191.492 192.439,191.452 192.593,191.452 192.969 M222.311 193.359 C 222.311 193.735,222.351 193.889,222.400 193.701 C 222.449 193.513,222.449 193.206,222.400 193.018 C 222.351 192.830,222.311 192.983,222.311 193.359 M179.151 193.848 C 179.153 194.277,179.193 194.430,179.240 194.187 C 179.286 193.944,179.285 193.593,179.236 193.406 C 179.187 193.219,179.149 193.418,179.151 193.848 M144.208 195.215 C 144.208 196.074,144.243 196.401,144.284 195.942 C 144.325 195.483,144.325 194.780,144.283 194.380 C 144.241 193.980,144.207 194.355,144.208 195.215 M183.267 195.020 C 183.268 195.771,183.303 196.055,183.346 195.650 C 183.388 195.245,183.387 194.629,183.344 194.283 C 183.301 193.936,183.266 194.268,183.267 195.020 M290.490 195.215 C 290.491 195.859,290.528 196.100,290.571 195.748 C 290.615 195.397,290.614 194.870,290.569 194.577 C 290.525 194.283,290.489 194.570,290.490 195.215 M179.147 196.484 C 179.147 196.860,179.187 197.014,179.236 196.826 C 179.285 196.638,179.285 196.331,179.236 196.143 C 179.187 195.955,179.147 196.108,179.147 196.484 M191.452 196.875 C 191.452 197.251,191.492 197.405,191.541 197.217 C 191.590 197.029,191.590 196.721,191.541 196.533 C 191.492 196.345,191.452 196.499,191.452 196.875 M288.379 200.977 C 288.798 201.406,289.186 201.758,289.239 201.758 C 289.293 201.758,288.994 201.406,288.574 200.977 C 288.155 200.547,287.767 200.195,287.714 200.195 C 287.660 200.195,287.959 200.547,288.379 200.977 M222.324 203.906 C 222.324 204.497,222.361 204.739,222.406 204.443 C 222.450 204.148,222.450 203.665,222.406 203.369 C 222.361 203.074,222.324 203.315,222.324 203.906 M152.884 205.610 C 153.235 205.654,153.763 205.653,154.056 205.608 C 154.350 205.564,154.063 205.528,153.418 205.529 C 152.773 205.530,152.533 205.567,152.884 205.610 M175.439 205.609 C 175.735 205.653,176.218 205.653,176.514 205.609 C 176.809 205.564,176.567 205.527,175.977 205.527 C 175.386 205.527,175.144 205.564,175.439 205.609 M196.143 205.609 C 196.438 205.653,196.921 205.653,197.217 205.609 C 197.512 205.564,197.271 205.527,196.680 205.527 C 196.089 205.527,195.847 205.564,196.143 205.609 M281.791 205.610 C 282.142 205.654,282.669 205.653,282.962 205.608 C 283.256 205.564,282.969 205.528,282.324 205.529 C 281.680 205.530,281.440 205.567,281.791 205.610 M324.955 205.610 C 325.306 205.654,325.833 205.653,326.127 205.608 C 326.420 205.564,326.133 205.528,325.488 205.529 C 324.844 205.530,324.604 205.567,324.955 205.610 " stroke="none" fill="#dd9696" fill-rule="evenodd"></path><path id="path3" d="M277.389 36.719 C 277.389 37.095,277.429 37.249,277.478 37.061 C 277.528 36.873,277.528 36.565,277.478 36.377 C 277.429 36.189,277.389 36.343,277.389 36.719 M280.334 37.207 C 280.335 37.852,280.372 38.092,280.415 37.741 C 280.458 37.390,280.458 36.862,280.413 36.569 C 280.368 36.275,280.333 36.563,280.334 37.207 M364.721 39.063 C 364.721 40.190,364.753 40.652,364.792 40.088 C 364.832 39.524,364.832 38.601,364.792 38.037 C 364.753 37.473,364.721 37.935,364.721 39.063 M277.434 46.875 C 277.434 52.085,277.459 54.216,277.490 51.611 C 277.521 49.006,277.521 44.744,277.490 42.139 C 277.459 39.534,277.434 41.665,277.434 46.875 M331.685 46.912 C 331.660 52.143,331.707 56.463,331.787 56.513 C 331.920 56.595,331.918 49.593,331.782 40.820 C 331.753 38.940,331.709 41.682,331.685 46.912 M280.276 40.186 C 280.279 40.576,280.327 40.648,280.454 40.447 C 280.550 40.296,280.583 40.054,280.527 39.910 C 280.369 39.497,280.273 39.602,280.276 40.186 M297.702 45.508 C 297.702 45.884,297.742 46.038,297.791 45.850 C 297.840 45.662,297.840 45.354,297.791 45.166 C 297.742 44.978,297.702 45.132,297.702 45.508 M339.897 46.094 C 339.897 46.577,339.935 46.775,339.982 46.533 C 340.028 46.292,340.028 45.896,339.982 45.654 C 339.935 45.413,339.897 45.610,339.897 46.094 M351.367 47.461 L 350.684 47.605 351.307 47.631 C 351.650 47.645,351.984 47.568,352.051 47.461 C 352.117 47.354,352.144 47.277,352.111 47.291 C 352.078 47.305,351.743 47.382,351.367 47.461 M280.748 51.855 C 280.748 54.326,280.776 55.310,280.810 54.042 C 280.844 52.773,280.844 50.752,280.810 49.550 C 280.776 48.347,280.748 49.385,280.748 51.855 M344.971 47.607 C 346.018 47.642,347.732 47.642,348.779 47.607 C 349.827 47.571,348.970 47.543,346.875 47.543 C 344.780 47.543,343.923 47.571,344.971 47.607 M350.953 51.410 C 351.043 51.952,351.071 51.980,351.132 51.589 C 351.172 51.335,351.124 51.046,351.026 50.948 C 350.918 50.840,350.889 51.022,350.953 51.410 M110.973 59.326 C 113.088 59.357,116.603 59.357,118.786 59.326 C 120.968 59.295,119.238 59.269,114.941 59.269 C 110.645 59.269,108.859 59.294,110.973 59.326 M145.595 65.723 C 145.595 69.268,145.622 70.745,145.654 69.007 C 145.686 67.268,145.686 64.367,145.654 62.561 C 145.622 60.755,145.595 62.178,145.595 65.723 M60.121 82.764 C 62.948 82.794,67.519 82.794,70.277 82.763 C 73.036 82.733,70.723 82.708,65.137 82.708 C 59.551 82.708,57.294 82.733,60.121 82.764 M110.889 82.763 C 112.957 82.795,116.340 82.795,118.408 82.763 C 120.476 82.732,118.784 82.706,114.648 82.706 C 110.513 82.706,108.821 82.732,110.889 82.763 M238.135 88.033 C 238.538 88.075,239.197 88.075,239.600 88.033 C 240.002 87.991,239.673 87.956,238.867 87.956 C 238.062 87.956,237.732 87.991,238.135 88.033 M209.521 107.755 C 209.763 107.802,210.159 107.802,210.400 107.755 C 210.642 107.708,210.444 107.670,209.961 107.670 C 209.478 107.670,209.280 107.708,209.521 107.755 M72.705 176.705 C 73.108 176.747,73.767 176.747,74.170 176.705 C 74.573 176.663,74.243 176.628,73.438 176.628 C 72.632 176.628,72.302 176.663,72.705 176.705 M258.158 176.704 C 258.509 176.748,259.036 176.747,259.330 176.702 C 259.623 176.657,259.336 176.622,258.691 176.623 C 258.047 176.624,257.807 176.661,258.158 176.704 M342.336 176.701 C 342.579 176.747,342.931 176.746,343.118 176.697 C 343.304 176.648,343.105 176.610,342.676 176.612 C 342.246 176.614,342.093 176.654,342.336 176.701 M340.716 188.770 C 340.716 194.893,340.741 197.369,340.771 194.273 C 340.802 191.177,340.802 186.167,340.771 183.140 C 340.741 180.113,340.716 182.646,340.716 188.770 M281.203 184.708 C 281.446 184.755,281.798 184.753,281.985 184.705 C 282.171 184.656,281.973 184.617,281.543 184.620 C 281.113 184.622,280.960 184.662,281.203 184.708 M263.923 185.840 C 263.925 186.377,263.962 186.573,264.007 186.277 C 264.052 185.980,264.051 185.540,264.005 185.300 C 263.958 185.060,263.922 185.303,263.923 185.840 M93.445 198.242 C 93.445 201.304,93.472 202.556,93.505 201.025 C 93.538 199.495,93.538 196.990,93.505 195.459 C 93.472 193.928,93.445 195.181,93.445 198.242 M204.753 194.531 C 204.753 195.337,204.788 195.667,204.830 195.264 C 204.872 194.861,204.872 194.202,204.830 193.799 C 204.788 193.396,204.753 193.726,204.753 194.531 M179.151 195.215 C 179.153 195.645,179.193 195.797,179.240 195.554 C 179.286 195.311,179.285 194.960,179.236 194.773 C 179.187 194.586,179.149 194.785,179.151 195.215 M302.478 201.895 C 303.218 201.952,303.517 202.062,303.590 202.305 C 303.662 202.547,303.678 202.532,303.649 202.246 C 303.615 201.910,303.459 201.853,302.537 201.837 L 301.465 201.818 302.478 201.895 M347.070 201.868 C 347.755 202.019,348.983 202.046,348.898 201.908 C 348.847 201.825,348.349 201.768,347.791 201.780 C 347.234 201.793,346.909 201.832,347.070 201.868 M360.208 201.898 C 360.505 201.943,360.944 201.942,361.184 201.895 C 361.425 201.849,361.182 201.812,360.645 201.814 C 360.107 201.815,359.911 201.853,360.208 201.898 M303.578 203.906 C 303.578 204.604,303.614 204.890,303.657 204.541 C 303.700 204.192,303.700 203.621,303.657 203.271 C 303.614 202.922,303.578 203.208,303.578 203.906 M263.890 204.139 C 263.877 204.750,263.933 205.291,264.014 205.341 C 264.094 205.391,264.134 205.022,264.102 204.522 C 264.010 203.096,263.915 202.923,263.890 204.139 M50.445 205.417 C 50.959 205.458,51.750 205.457,52.203 205.416 C 52.656 205.375,52.236 205.342,51.270 205.343 C 50.303 205.343,49.932 205.377,50.445 205.417 M66.166 205.415 C 66.517 205.458,67.044 205.458,67.337 205.413 C 67.631 205.368,67.344 205.333,66.699 205.334 C 66.055 205.335,65.815 205.372,66.166 205.415 M90.869 205.408 C 91.057 205.457,91.365 205.457,91.553 205.408 C 91.741 205.359,91.587 205.319,91.211 205.319 C 90.835 205.319,90.681 205.359,90.869 205.408 M119.680 205.412 C 119.923 205.458,120.275 205.457,120.461 205.408 C 120.648 205.359,120.449 205.321,120.020 205.323 C 119.590 205.325,119.437 205.365,119.680 205.412 M121.338 205.408 C 121.526 205.457,121.833 205.457,122.021 205.408 C 122.209 205.359,122.056 205.319,121.680 205.319 C 121.304 205.319,121.150 205.359,121.338 205.408 M134.619 205.408 C 134.807 205.457,135.115 205.457,135.303 205.408 C 135.491 205.359,135.337 205.319,134.961 205.319 C 134.585 205.319,134.431 205.359,134.619 205.408 M211.572 205.408 C 211.760 205.457,212.068 205.457,212.256 205.408 C 212.444 205.359,212.290 205.319,211.914 205.319 C 211.538 205.319,211.384 205.359,211.572 205.408 M301.318 205.415 C 301.667 205.458,302.239 205.458,302.588 205.415 C 302.937 205.371,302.651 205.336,301.953 205.336 C 301.255 205.336,300.969 205.371,301.318 205.415 M310.107 205.416 C 310.564 205.458,311.311 205.458,311.768 205.416 C 312.224 205.375,311.851 205.342,310.938 205.342 C 310.024 205.342,309.651 205.375,310.107 205.416 M332.080 205.416 C 332.483 205.458,333.142 205.458,333.545 205.416 C 333.948 205.374,333.618 205.339,332.813 205.339 C 332.007 205.339,331.677 205.374,332.080 205.416 " stroke="none" fill="#c2737c" fill-rule="evenodd"></path><path id="path4" d="M102.295 3.271 C 156.033 3.299,243.967 3.299,297.705 3.271 C 351.443 3.244,307.476 3.222,200.000 3.222 C 92.524 3.222,48.557 3.244,102.295 3.271 M396.776 50.391 C 396.776 75.688,396.798 86.038,396.826 73.389 C 396.854 60.740,396.854 40.042,396.826 27.393 C 396.798 14.744,396.776 25.093,396.776 50.391 M3.221 62.988 C 3.221 95.107,3.244 108.218,3.271 92.123 C 3.299 76.028,3.299 49.748,3.271 33.724 C 3.244 17.700,3.221 30.869,3.221 62.988 M278.174 36.275 C 278.577 36.317,279.236 36.317,279.639 36.275 C 280.042 36.233,279.712 36.198,278.906 36.198 C 278.101 36.198,277.771 36.233,278.174 36.275 M357.964 36.276 C 358.424 36.317,359.127 36.317,359.527 36.275 C 359.927 36.233,359.551 36.199,358.691 36.200 C 357.832 36.200,357.505 36.235,357.964 36.276 M332.178 36.466 C 332.419 36.513,332.815 36.513,333.057 36.466 C 333.298 36.419,333.101 36.381,332.617 36.381 C 332.134 36.381,331.936 36.419,332.178 36.466 M280.323 38.965 C 280.325 39.395,280.365 39.547,280.412 39.304 C 280.458 39.061,280.457 38.710,280.408 38.523 C 280.359 38.336,280.321 38.535,280.323 38.965 M304.934 38.812 C 305.231 38.857,305.671 38.856,305.911 38.809 C 306.151 38.763,305.908 38.726,305.371 38.728 C 304.834 38.729,304.637 38.767,304.934 38.812 M311.963 38.807 C 312.151 38.856,312.458 38.856,312.646 38.807 C 312.834 38.757,312.681 38.717,312.305 38.717 C 311.929 38.717,311.775 38.757,311.963 38.807 M317.529 38.813 C 317.878 38.856,318.450 38.856,318.799 38.813 C 319.148 38.770,318.862 38.734,318.164 38.734 C 317.466 38.734,317.180 38.770,317.529 38.813 M323.880 38.812 C 324.177 38.857,324.616 38.856,324.856 38.809 C 325.096 38.763,324.854 38.726,324.316 38.728 C 323.779 38.729,323.583 38.767,323.880 38.812 M287.761 46.094 C 287.761 46.899,287.795 47.229,287.838 46.826 C 287.880 46.423,287.880 45.764,287.838 45.361 C 287.795 44.958,287.761 45.288,287.761 46.094 M99.900 79.785 C 99.900 95.254,99.923 101.553,99.951 93.784 C 99.979 86.014,99.979 73.358,99.951 65.659 C 99.923 57.959,99.900 64.316,99.900 79.785 M181.540 79.785 C 181.540 95.254,181.563 101.553,181.592 93.784 C 181.620 86.014,181.620 73.358,181.592 65.659 C 181.563 57.959,181.540 64.316,181.540 79.785 M351.022 52.539 C 351.022 52.915,351.062 53.069,351.111 52.881 C 351.160 52.693,351.160 52.385,351.111 52.197 C 351.062 52.009,351.022 52.163,351.022 52.539 M82.321 79.688 C 82.321 94.243,82.345 100.198,82.373 92.920 C 82.401 85.642,82.401 73.733,82.373 66.455 C 82.345 59.177,82.321 65.132,82.321 79.688 M350.961 54.541 C 350.903 54.961,350.933 55.200,351.031 55.102 C 351.125 55.008,351.171 54.678,351.132 54.369 C 351.068 53.853,351.054 53.867,350.961 54.541 M150.732 59.122 C 150.974 59.169,151.370 59.169,151.611 59.122 C 151.853 59.076,151.655 59.038,151.172 59.038 C 150.688 59.038,150.491 59.076,150.732 59.122 M235.892 88.032 C 236.243 88.076,236.771 88.075,237.064 88.030 C 237.358 87.986,237.070 87.950,236.426 87.951 C 235.781 87.952,235.541 87.989,235.892 88.032 M247.017 95.453 C 247.364 95.497,247.979 95.497,248.384 95.455 C 248.790 95.413,248.506 95.377,247.754 95.377 C 247.002 95.376,246.670 95.410,247.017 95.453 M159.349 107.475 C 159.432 107.558,161.340 107.601,163.588 107.572 L 167.676 107.519 163.437 107.422 C 161.106 107.368,159.266 107.392,159.349 107.475 M207.864 107.757 C 208.161 107.802,208.600 107.801,208.841 107.755 C 209.081 107.708,208.838 107.672,208.301 107.673 C 207.764 107.675,207.567 107.712,207.864 107.757 M223.779 107.755 C 224.021 107.802,224.417 107.802,224.658 107.755 C 224.900 107.708,224.702 107.670,224.219 107.670 C 223.735 107.670,223.538 107.708,223.779 107.755 M186.963 153.064 C 187.151 153.113,187.458 153.113,187.646 153.064 C 187.834 153.015,187.681 152.975,187.305 152.975 C 186.929 152.975,186.775 153.015,186.963 153.064 M140.283 153.455 C 140.471 153.504,140.779 153.504,140.967 153.455 C 141.155 153.406,141.001 153.366,140.625 153.366 C 140.249 153.366,140.095 153.406,140.283 153.455 M179.641 153.458 C 179.884 153.505,180.235 153.503,180.422 153.455 C 180.609 153.406,180.410 153.367,179.980 153.370 C 179.551 153.372,179.398 153.412,179.641 153.458 M152.497 153.855 C 153.064 153.895,153.943 153.894,154.450 153.854 C 154.957 153.814,154.492 153.782,153.418 153.782 C 152.344 153.783,151.929 153.816,152.497 153.855 M165.771 153.855 C 166.335 153.894,167.258 153.894,167.822 153.855 C 168.386 153.815,167.925 153.783,166.797 153.783 C 165.669 153.783,165.208 153.815,165.771 153.855 M42.041 176.697 C 42.229 176.746,42.537 176.746,42.725 176.697 C 42.913 176.648,42.759 176.608,42.383 176.608 C 42.007 176.608,41.853 176.648,42.041 176.697 M43.802 176.703 C 44.098 176.748,44.538 176.746,44.778 176.700 C 45.018 176.654,44.775 176.617,44.238 176.618 C 43.701 176.620,43.505 176.658,43.802 176.703 M58.059 176.703 C 58.356 176.748,58.796 176.746,59.036 176.700 C 59.276 176.654,59.033 176.617,58.496 176.618 C 57.959 176.620,57.762 176.658,58.059 176.703 M168.502 176.703 C 168.848 176.747,169.463 176.747,169.869 176.705 C 170.274 176.663,169.990 176.627,169.238 176.627 C 168.486 176.626,168.155 176.660,168.502 176.703 M239.605 176.706 C 240.064 176.747,240.767 176.746,241.167 176.704 C 241.567 176.663,241.191 176.629,240.332 176.629 C 239.473 176.630,239.145 176.665,239.605 176.706 M268.234 178.320 C 268.234 179.341,268.267 179.758,268.308 179.248 C 268.348 178.738,268.348 177.903,268.308 177.393 C 268.267 176.882,268.234 177.300,268.234 178.320 M297.510 176.697 C 297.698 176.746,298.005 176.746,298.193 176.697 C 298.381 176.648,298.228 176.608,297.852 176.608 C 297.476 176.608,297.322 176.648,297.510 176.697 M295.404 188.867 C 295.404 195.044,295.429 197.571,295.459 194.482 C 295.489 191.394,295.489 186.340,295.459 183.252 C 295.429 180.164,295.404 182.690,295.404 188.867 M314.994 180.024 C 315.345 180.068,315.872 180.067,316.166 180.022 C 316.459 179.978,316.172 179.942,315.527 179.943 C 314.883 179.944,314.643 179.981,314.994 180.024 M98.489 184.710 C 98.786 184.755,99.225 184.754,99.466 184.708 C 99.706 184.661,99.463 184.625,98.926 184.626 C 98.389 184.628,98.192 184.666,98.489 184.710 M175.439 184.710 C 175.735 184.755,176.218 184.755,176.514 184.710 C 176.809 184.665,176.567 184.629,175.977 184.629 C 175.386 184.629,175.144 184.665,175.439 184.710 M195.557 184.710 C 195.852 184.755,196.335 184.755,196.631 184.710 C 196.926 184.665,196.685 184.629,196.094 184.629 C 195.503 184.629,195.261 184.665,195.557 184.710 M325.635 184.713 C 326.038 184.755,326.697 184.755,327.100 184.713 C 327.502 184.670,327.173 184.636,326.367 184.636 C 325.562 184.636,325.232 184.670,325.635 184.713 M306.592 185.298 C 306.941 185.341,307.512 185.341,307.861 185.298 C 308.210 185.254,307.925 185.219,307.227 185.219 C 306.528 185.219,306.243 185.254,306.592 185.298 M313.533 185.301 C 314.154 185.340,315.121 185.339,315.681 185.300 C 316.241 185.261,315.732 185.229,314.551 185.229 C 313.369 185.230,312.911 185.262,313.533 185.301 M358.551 185.300 C 359.119 185.340,359.998 185.340,360.505 185.300 C 361.011 185.259,360.547 185.227,359.473 185.228 C 358.398 185.228,357.984 185.261,358.551 185.300 M263.956 195.313 C 263.956 199.663,263.982 201.443,264.013 199.268 C 264.045 197.092,264.045 193.533,264.013 191.357 C 263.982 189.182,263.956 190.962,263.956 195.313 M174.563 188.419 C 174.806 188.466,175.157 188.464,175.344 188.415 C 175.531 188.367,175.332 188.328,174.902 188.331 C 174.473 188.333,174.320 188.373,174.563 188.419 M217.922 188.419 C 218.165 188.466,218.517 188.464,218.703 188.415 C 218.890 188.367,218.691 188.328,218.262 188.331 C 217.832 188.333,217.679 188.373,217.922 188.419 M226.455 198.535 C 226.455 202.295,226.481 203.805,226.513 201.892 C 226.545 199.978,226.545 196.902,226.513 195.056 C 226.481 193.210,226.455 194.775,226.455 198.535 M213.913 198.865 L 213.867 205.250 213.135 205.326 L 212.402 205.403 213.141 205.436 C 214.123 205.480,214.076 205.845,214.014 198.729 L 213.959 192.480 213.913 198.865 M286.328 193.030 C 286.328 193.318,285.852 193.358,281.787 193.408 L 277.246 193.465 281.793 193.510 C 286.342 193.555,287.069 193.449,286.450 192.830 C 286.383 192.763,286.328 192.853,286.328 193.030 M150.635 193.505 C 151.897 193.539,153.962 193.539,155.225 193.505 C 156.487 193.471,155.454 193.443,152.930 193.443 C 150.405 193.443,149.373 193.471,150.635 193.505 M194.883 193.505 C 195.990 193.540,197.748 193.540,198.790 193.505 C 199.831 193.470,198.926 193.441,196.777 193.441 C 194.629 193.442,193.777 193.470,194.883 193.505 M325.937 193.505 C 326.828 193.541,328.235 193.541,329.062 193.504 C 329.889 193.468,329.160 193.438,327.441 193.438 C 325.723 193.439,325.046 193.469,325.937 193.505 M187.361 195.215 C 187.362 195.752,187.400 195.948,187.445 195.652 C 187.490 195.355,187.489 194.915,187.442 194.675 C 187.396 194.435,187.359 194.678,187.361 195.215 M273.100 195.117 C 273.100 195.601,273.138 195.798,273.185 195.557 C 273.231 195.315,273.231 194.919,273.185 194.678 C 273.138 194.436,273.100 194.634,273.100 195.117 M151.514 196.435 C 153.367 196.467,156.399 196.467,158.252 196.435 C 160.105 196.403,158.589 196.377,154.883 196.377 C 151.177 196.377,149.661 196.403,151.514 196.435 M194.763 196.435 C 196.555 196.467,199.544 196.467,201.404 196.435 C 203.263 196.403,201.797 196.377,198.145 196.377 C 194.492 196.377,192.970 196.403,194.763 196.435 M280.505 196.435 C 282.298 196.467,285.286 196.467,287.146 196.435 C 289.006 196.403,287.539 196.377,283.887 196.377 C 280.234 196.377,278.713 196.403,280.505 196.435 M327.965 196.435 C 330.299 196.488,330.649 196.538,330.726 196.832 C 330.790 197.078,330.820 197.051,330.837 196.729 C 330.859 196.290,330.851 196.289,328.076 196.332 L 325.293 196.375 327.965 196.435 M183.248 197.070 C 183.248 197.446,183.289 197.600,183.338 197.412 C 183.387 197.224,183.387 196.917,183.338 196.729 C 183.289 196.541,183.248 196.694,183.248 197.070 M348.873 202.734 C 348.873 203.110,348.914 203.264,348.963 203.076 C 349.012 202.888,349.012 202.581,348.963 202.393 C 348.914 202.205,348.873 202.358,348.873 202.734 M348.877 204.590 C 348.880 205.020,348.920 205.172,348.966 204.929 C 349.013 204.686,349.011 204.335,348.962 204.148 C 348.913 203.961,348.875 204.160,348.877 204.590 M80.911 205.414 C 81.208 205.458,81.647 205.457,81.887 205.411 C 82.128 205.365,81.885 205.328,81.348 205.329 C 80.811 205.331,80.614 205.369,80.911 205.414 M168.311 205.411 C 168.552 205.458,168.948 205.458,169.189 205.411 C 169.431 205.365,169.233 205.327,168.750 205.327 C 168.267 205.327,168.069 205.365,168.311 205.411 M249.563 205.412 C 249.806 205.458,250.157 205.457,250.344 205.408 C 250.531 205.359,250.332 205.321,249.902 205.323 C 249.473 205.325,249.320 205.365,249.563 205.412 M265.189 205.415 C 265.540 205.458,266.067 205.458,266.361 205.413 C 266.654 205.368,266.367 205.333,265.723 205.334 C 265.078 205.335,264.838 205.372,265.189 205.415 M345.654 205.411 C 345.896 205.458,346.292 205.458,346.533 205.411 C 346.775 205.365,346.577 205.327,346.094 205.327 C 345.610 205.327,345.413 205.365,345.654 205.411 " stroke="none" fill="#c07c73" fill-rule="evenodd"></path></g></svg>