<svg xmlns="http://www.w3.org/2000/svg" width="200.1" height="31.8" viewBox="0 0 200.113 31.801"><linearGradient id="a" x1="11.2" x2="21" y1="11.8" y2="20.9" gradientUnits="userSpaceOnUse"><stop offset="0" stop-color="#E1F4FD"/><stop offset=".2" stop-color="#B9DFF1"/><stop offset=".5" stop-color="#57B7DB"/><stop offset="1" stop-color="#008ABD"/></linearGradient><path fill="url(#a)" fill-rule="evenodd" d="M20.4 21l-7.8-9v2l7.3 7" clip-rule="evenodd"/><linearGradient id="b" x1="45.1" x2="43.5" y1="20.9" y2="12" gradientUnits="userSpaceOnUse"><stop offset="0" stop-color="#636466"/><stop offset=".1" stop-color="#757679"/><stop offset=".5" stop-color="#AFB1B4"/><stop offset=".8" stop-color="#D7D8DA"/><stop offset="1" stop-color="#E6E7E8"/></linearGradient><path fill="url(#b)" fill-rule="evenodd" d="M45.3 21l2.3-9h-4.3L41 21" clip-rule="evenodd"/><linearGradient id="c" x1="12.6" x2="41.7" y1="16.5" y2="16.5" gradientUnits="userSpaceOnUse"><stop offset="0" stop-color="#E1F4FD"/><stop offset=".1" stop-color="#B2DBF0"/><stop offset=".3" stop-color="#6CBEDF"/><stop offset=".5" stop-color="#12A9D3"/><stop offset=".6" stop-color="#009AC9"/><stop offset=".8" stop-color="#0091C3"/><stop offset=".9" stop-color="#008BBF"/><stop offset="1" stop-color="#008ABD"/></linearGradient><path fill="url(#c)" fill-rule="evenodd" d="M39.4 21l2.3-9h-29l7.7 9" clip-rule="evenodd"/><g><linearGradient id="d" x1="-.6" x2="9.8" y1=".1" y2="10.9" gradientUnits="userSpaceOnUse"><stop offset="0" stop-color="#E1F4FD"/><stop offset=".1" stop-color="#D6EEFA"/><stop offset=".2" stop-color="#B9E1F4"/><stop offset=".4" stop-color="#8ACEEC"/><stop offset=".7" stop-color="#3EB8E1"/><stop offset=".9" stop-color="#00A0D5"/><stop offset="1" stop-color="#0097D0"/></linearGradient><path fill="url(#d)" fill-rule="evenodd" d="M9.2 10.2L1.7 1.4v2.2l7 6.6" clip-rule="evenodd"/><linearGradient id="e" x1="47.8" x2="46.2" y1="10.2" y2="1.3" gradientUnits="userSpaceOnUse"><stop offset="0" stop-color="#636466"/><stop offset=".1" stop-color="#757679"/><stop offset=".5" stop-color="#AFB1B4"/><stop offset=".8" stop-color="#D7D8DA"/><stop offset="1" stop-color="#E6E7E8"/></linearGradient><path fill="url(#e)" fill-rule="evenodd" d="M48 10.2l2.3-8.8H46l-2.3 8.8" clip-rule="evenodd"/><linearGradient id="f" x1="12.2" x2="37.3" y1="13.9" y2="-7.1" gradientUnits="userSpaceOnUse"><stop offset="0" stop-color="#E1F4FD"/><stop offset=".1" stop-color="#C1E4F5"/><stop offset=".2" stop-color="#83CBEA"/><stop offset=".3" stop-color="#43B9E2"/><stop offset=".5" stop-color="#00ABDB"/><stop offset=".6" stop-color="#00A2D6"/><stop offset=".7" stop-color="#009BD2"/><stop offset=".9" stop-color="#0098D0"/><stop offset="1" stop-color="#0097D0"/></linearGradient><path fill="url(#f)" fill-rule="evenodd" d="M42.2 10.2l2.2-8.8H1.7l7.5 8.8" clip-rule="evenodd"/></g><g><linearGradient id="g" x1="42.4" x2="40.8" y1="31.6" y2="22.7" gradientUnits="userSpaceOnUse"><stop offset="0" stop-color="#636466"/><stop offset=".1" stop-color="#757679"/><stop offset=".5" stop-color="#AFB1B4"/><stop offset=".8" stop-color="#D7D8DA"/><stop offset="1" stop-color="#E6E7E8"/></linearGradient><path fill="url(#g)" fill-rule="evenodd" d="M42.6 31.6l2.3-8.8h-4.5l-2.2 8.8" clip-rule="evenodd"/><linearGradient id="h" x1="23" x2="33" y1="22.8" y2="32.2" gradientUnits="userSpaceOnUse"><stop offset="0" stop-color="#E1F4FD"/><stop offset=".3" stop-color="#74BCDB"/><stop offset=".7" stop-color="#0096C0"/><stop offset=".9" stop-color="#0083B0"/><stop offset="1" stop-color="#007CAB"/></linearGradient><path fill="url(#h)" fill-rule="evenodd" d="M31.8 31.6L24 22.8v2l7.3 6.8" clip-rule="evenodd"/><linearGradient id="i" x1="23.6" x2="37.8" y1="24.4" y2="27.7" gradientUnits="userSpaceOnUse"><stop offset="0" stop-color="#E1F4FD"/><stop offset=".1" stop-color="#B6DCEF"/><stop offset=".3" stop-color="#60B4D6"/><stop offset=".6" stop-color="#0099C3"/><stop offset=".8" stop-color="#0088B5"/><stop offset=".9" stop-color="#007FAD"/><stop offset="1" stop-color="#007CAB"/></linearGradient><path fill="url(#i)" fill-rule="evenodd" d="M36.7 31.6l2.2-8.8H24l7.8 8.8" clip-rule="evenodd"/></g><path fill="#2E3B42" fill-rule="evenodd" d="M200 7.4l-.7 3c-.3 1.2-1 1.7-2.5 1.7h-4.4c-2 0-2.6.2-3.2.7-.4.4-.6 1-.6 1.8 0 .7.3 1 1.4 1.3l4.5 1.3c3 1 4 2 4 4.4 0 2.3-1 6-2.3 7.8-1.3 1.6-3 2.4-5.6 2.4h-11c-.8 0-1-.7-1-1.3L180 25h.6c.4 1 1.2 1.5 3.6 1.5h4.3c1.6 0 2.4-.3 2.8-1 .5-.4.8-1.2.8-2s-.3-1-2.4-1.7l-4.2-1c-2.4-.8-3.4-2-3.4-4s1-4.7 2-6.4c1.2-2.2 3-3 6.4-3h9.7zM93.6 7.2c-5 0-7.8 1-10 4-2.2 2.7-4.3 9.6-4.4 14 0 2.6 1 4.7 3 5.6 1 .7 3 1 6.4 1 3.6 0 5.8-.3 7-1 1-.5 1-.8 1.7-3.3l1-3.3h-.6C96 26 94.2 26.7 90 26.7c-2 0-3-.2-3.6-.6-.8-.4-1-1-1-2 0-.5 0-1 .2-1.5l.4-2h10.4c2.3 0 3 0 3.4-1 .7-1.2 1.3-4.2 1.3-6C101.3 9 99 7 93.6 7zm2 9.4H87c1.2-3.8 2.4-5 5.5-5 2.3 0 3.4.8 3.4 2.6l-.6 2.4zm74.8-9.4c-5 0-7.8 1-10 4-2.2 2.7-4.3 9.6-4.4 14 0 2.6 1 4.7 2.7 5.6 1.3.7 3.3 1 6.6 1 3.5 0 5.8-.3 7-1 .8-.5 1-.8 1.6-3.3l.8-3.3h-.6c-1.5 1.8-3 2.5-7.3 2.5-2 0-3.3-.2-3.8-.6-.7-.4-1-1-1-2 0-.5 0-1 .2-1.5l.4-2h10.4c2.3 0 3 0 3.5-1 .6-1.2 1.2-4.2 1.2-6 0-4.4-2.3-6.3-7.7-6.3zm2 9.4h-8.4c1-3.8 2.2-5 5.3-5 2.3 0 3.4.8 3.4 2.6 0 .6 0 1.2-.5 2.4zm-50.8-9.2l-1 3.2c-.2 1.3-.8 1.7-2.6 1.7h-2.5c-2.6 0-3.3.7-4 3.6L108 28.7 108 30c0 .6.3 1 .8 1v.6h-6c-1 0-1.2-.7-1-1.3l5.3-21V9c0-.6-.3-1-.8-1v-.6h6c1 0 1.2.7 1 1.3l-.5 2.2 1.8-2.5c.7-1 .8-1 2.3-1h4.7zM80 2.6l-6.6 26c-.2.8-.6 2 .6 2.4 0 .2 0 .4-.2.6h-6.6c-1 0-1.2-.7-1-1.3l3.3-13h-9l-3 11.2-.2 1.4c0 .4.2.8.8 1v.6h-6.7c-.8 0-1.2-.7-1-1.3l6.6-26c0-.8.5-2-.7-2.3 0-.2 0-.4.2-.6H63c1 0 1.3.6 1.2 1.2l-2.5 10h9l2-8.2L73 3c0-.5-.2-.8-.8-1v-.6H79c.8 0 1.2.6 1 1.2m70 4.6h-3.2c-1.6 0-2.5.4-3.6 2l-1.2 2c0-2-1-4-4-4h-3c-2.5 0-3 1-3.7 1.8l-1.4 2 .5-2.3c0-.6-.3-1.3-1-1.3h-6l-.2.5c.6 0 .8.4.8 1v.4l-5.3 21c0 .5.2 1.2 1 1.2h6V31c-.4 0-.7-.4-.7-1 0 0 0-.6.3-1.2l3.3-12.8c.8-3.2 1.7-3.6 3.4-3.8h1.2c1.7 0 2.2 1 2 2l-4 16c-.2.7 0 1.4 1 1.4h6V31c-.5 0-.8-.4-.8-1 0 0 0-.6.3-1.2L141 16c1-3.2 1.7-3.6 3.4-3.8h1.2c1.7 0 2.2 1 2 2l-4 16c-.2.7.2 1.4 1 1.4h6V31c-.5 0-.7-.4-.7-1V29l4.3-16.7c.3-1.4.3-4.8-4.3-4.8" clip-rule="evenodd"/></svg>