<svg width="289" height="39" viewBox="0 0 289 39" fill="none" xmlns="http://www.w3.org/2000/svg">
<path fill-rule="evenodd" clip-rule="evenodd" d="M49.6365 4.3613C48.7363 5.0864 47.8728 5.89499 47.0583 6.7822L58.1794 14.9106L56.8499 16.7983L45.5737 8.56052C44.906 9.4404 44.2834 10.3808 43.7153 11.3774C43.7002 11.4038 43.6851 11.4306 43.6702 11.457L55.8552 20.6303L54.5256 22.518L42.6143 13.5371C38.469 22.7104 40.4504 32.7846 47.52 36.8139C55.1499 41.1626 65.8167 36.8252 71.3452 27.1255C76.8735 17.4262 75.1702 6.03757 67.5405 1.68893C62.7563 -1.03763 56.7781 -0.349151 51.6211 2.93503L60.5034 9.19089L59.1738 11.0786L49.6365 4.3613ZM145.3 6.36716C144.654 7.24265 144.045 8.22995 143.506 9.3403L170.628 28.4424C170.758 28.1274 170.883 27.8037 171 27.4712C171.329 26.54 171.427 25.6201 171.351 24.7153L145.3 6.36716ZM170.202 21.0815C169.274 19.3017 167.934 17.6133 166.695 16.0527C165.002 13.9214 163.5 12.0293 163.5 10.4712H175.5L179.5 0.471161H153.5C152.014 0.78952 149.296 2.00095 146.796 4.59616L170.202 21.0815ZM169.6 30.5429L142.661 11.5693C142.322 13.1977 142.697 14.7905 143.428 16.3466L167.602 33.3725C168.311 32.5522 168.99 31.6123 169.6 30.5429ZM165.957 35.0376L146.801 21.5464C148.701 24.1435 150.427 26.6211 150 28.9712H138L134.5 37.9712H161C162.163 37.6391 164.054 36.7187 165.957 35.0376ZM13.5 0.471161L3.60034 27.9702H35.7002L36.5 25.4712H17.5L27.5 0.471161H13.5ZM1.80029 32.9702L2.88037 29.9702H35.0603L34.1003 32.9702H1.80029ZM1.08032 34.9702H33.4602L32.5 37.9712H0L1.08032 34.9702ZM79.5 37.9712L89 14.4712H79.5L80.8755 10.9702H111L109.5 14.4712H101.5L93 37.9712H79.5ZM111.858 8.97018H81.6611L82.8396 5.97018H113.143L111.858 8.97018ZM114 3.97018H83.6255L85 0.471161H115.5L114 3.97018ZM121.714 8.97018L122.874 5.97018H137.374L136.214 8.97018H121.714ZM123.647 3.97018H138.147L139.5 0.471161H125L123.647 3.97018ZM120.94 10.9702H135.44L125 37.9712H110.5L120.94 10.9702ZM201 37.9712L210.5 14.4712H201L202.375 10.9702H233.25L232 14.4712H223L214.5 37.9712H201ZM233.965 8.97018H203.161L204.34 5.97018H235.036L233.965 8.97018ZM235.75 3.97018H205.125L206.5 0.471161H237L235.75 3.97018ZM244.214 8.97018L245.374 5.97018H259.874L258.714 8.97018H244.214ZM246.147 3.97018H260.647L262 0.471161H247.5L246.147 3.97018ZM271.214 8.97018L272.374 5.97018H286.874L285.714 8.97018H271.214ZM273.147 3.97018H287.647L289 0.471161H274.5L273.147 3.97018ZM270.44 10.9702H284.94L274.5 37.9712H260L270.44 10.9702ZM243.44 10.9702H257.94L247.5 37.9712H233L243.44 10.9702Z" fill="#4A4EA1"/>
</svg>
