<svg id="svg" version="1.1" xmlns="http://www.w3.org/2000/svg" xmlns:xlink="http://www.w3.org/1999/xlink" width="400" height="237.65690376569037" viewBox="0, 0, 400,237.65690376569037"><g id="svgg"><path id="path0" d="M0.000 18.063 C 0.000 33.961,0.043 36.126,0.357 36.126 C 0.553 36.126,0.713 36.233,0.713 36.364 C 0.713 36.494,0.873 36.601,1.070 36.601 C 1.266 36.601,1.426 36.691,1.426 36.802 C 1.426 36.912,1.800 37.203,2.258 37.450 C 2.715 37.696,3.090 37.980,3.090 38.081 C 3.090 38.182,3.304 38.265,3.565 38.265 C 3.827 38.265,4.040 38.372,4.040 38.503 C 4.040 38.633,4.201 38.740,4.397 38.740 C 4.593 38.740,4.753 38.845,4.753 38.973 C 4.753 39.102,5.048 39.279,5.407 39.368 C 5.766 39.457,6.200 39.727,6.371 39.967 C 6.542 40.207,6.836 40.404,7.025 40.404 C 7.213 40.404,7.368 40.499,7.368 40.616 C 7.368 40.732,7.635 40.895,7.962 40.977 C 8.289 41.059,8.556 41.231,8.556 41.359 C 8.556 41.487,8.744 41.592,8.974 41.592 C 9.204 41.592,9.520 41.797,9.676 42.046 C 9.832 42.296,10.265 42.567,10.638 42.649 C 11.011 42.731,11.467 43.008,11.652 43.265 C 11.837 43.521,12.179 43.731,12.411 43.731 C 12.644 43.731,12.834 43.836,12.834 43.965 C 12.834 44.093,13.102 44.265,13.428 44.347 C 13.755 44.429,14.023 44.591,14.023 44.708 C 14.023 44.824,14.229 44.920,14.482 44.920 C 14.735 44.920,15.009 45.134,15.092 45.395 C 15.175 45.657,15.450 45.870,15.702 45.870 C 15.955 45.870,16.162 45.975,16.162 46.104 C 16.162 46.232,16.429 46.404,16.756 46.486 C 17.083 46.568,17.350 46.730,17.350 46.847 C 17.350 46.963,17.552 47.059,17.800 47.059 C 18.047 47.059,18.313 47.224,18.391 47.427 C 18.469 47.629,18.854 47.907,19.248 48.044 C 19.642 48.181,19.964 48.390,19.964 48.508 C 19.964 48.626,20.125 48.723,20.321 48.723 C 20.517 48.723,20.677 48.829,20.677 48.960 C 20.677 49.091,20.880 49.198,21.127 49.198 C 21.375 49.198,21.639 49.358,21.714 49.554 C 21.789 49.750,22.044 49.911,22.281 49.911 C 22.518 49.911,22.866 50.125,23.054 50.386 C 23.243 50.648,23.533 50.862,23.701 50.862 C 23.868 50.862,24.005 50.969,24.005 51.099 C 24.005 51.230,24.211 51.337,24.463 51.337 C 24.715 51.337,25.082 51.497,25.278 51.693 C 25.474 51.889,25.856 52.050,26.127 52.050 C 26.619 52.050,26.619 52.038,26.619 39.335 L 26.619 26.619 200.000 26.619 L 373.381 26.619 373.381 118.598 L 373.381 210.576 186.690 210.576 L 0.000 210.576 0.000 224.124 L 0.000 237.671 200.000 237.671 L 400.000 237.671 400.000 118.835 L 400.000 0.000 200.000 0.000 L 0.000 0.000 0.000 18.063 " stroke="none" fill="#345c74" fill-rule="evenodd"></path><path id="path1" d="M-0.000 117.771 L 0.000 182.294 48.010 182.294 L 96.019 182.294 96.019 168.627 L 96.019 154.961 61.319 154.961 L 26.619 154.961 26.619 112.337 L 26.619 69.712 25.787 69.264 C 25.330 69.018,24.955 68.734,24.955 68.633 C 24.955 68.532,24.742 68.449,24.480 68.449 C 24.219 68.449,24.005 68.342,24.005 68.212 C 24.005 68.081,23.844 67.974,23.648 67.974 C 23.452 67.974,23.292 67.869,23.292 67.741 C 23.292 67.612,22.998 67.435,22.638 67.346 C 22.279 67.257,21.845 66.987,21.674 66.747 C 21.503 66.507,21.209 66.310,21.020 66.310 C 20.832 66.310,20.677 66.215,20.677 66.098 C 20.677 65.982,20.410 65.819,20.083 65.737 C 19.756 65.655,19.489 65.483,19.489 65.355 C 19.489 65.227,19.314 65.122,19.101 65.122 C 18.888 65.122,18.540 64.935,18.329 64.706 C 18.117 64.477,17.543 64.086,17.053 63.837 C 16.563 63.587,16.162 63.293,16.162 63.183 C 16.162 63.073,15.997 62.983,15.795 62.983 C 15.594 62.983,15.195 62.765,14.909 62.498 C 14.623 62.232,14.119 61.947,13.790 61.866 C 13.460 61.784,13.051 61.521,12.880 61.281 C 12.709 61.040,12.415 60.844,12.227 60.844 C 12.038 60.844,11.884 60.739,11.884 60.611 C 11.884 60.482,11.616 60.310,11.289 60.228 C 10.963 60.146,10.695 59.984,10.695 59.867 C 10.695 59.751,10.493 59.655,10.245 59.655 C 9.998 59.655,9.732 59.490,9.654 59.288 C 9.577 59.085,9.191 58.807,8.797 58.670 C 8.403 58.533,8.081 58.324,8.081 58.206 C 8.081 58.088,7.920 57.992,7.724 57.992 C 7.528 57.992,7.368 57.885,7.368 57.754 C 7.368 57.623,7.154 57.516,6.892 57.516 C 6.631 57.516,6.417 57.417,6.417 57.295 C 6.417 57.173,6.176 56.997,5.882 56.904 C 5.588 56.811,5.175 56.537,4.963 56.294 C 4.752 56.051,4.458 55.853,4.310 55.853 C 4.162 55.853,4.040 55.746,4.040 55.615 C 4.040 55.484,3.834 55.377,3.582 55.377 C 3.330 55.377,2.963 55.217,2.767 55.021 C 2.571 54.825,2.335 54.664,2.243 54.664 C 2.151 54.664,1.903 54.475,1.692 54.243 C 1.480 54.011,1.013 53.693,0.654 53.535 L -0.000 53.248 -0.000 117.771 M84.373 70.707 L 84.373 84.373 107.190 84.373 L 130.006 84.373 130.006 133.333 L 130.006 182.294 143.553 182.294 L 157.100 182.294 157.100 133.333 L 157.100 84.373 179.679 84.373 L 202.258 84.373 202.258 70.707 L 202.258 57.041 143.316 57.041 L 84.373 57.041 84.373 70.707 M262.448 57.397 C 262.285 57.582,262.151 57.899,262.151 58.100 C 262.151 58.302,262.042 58.467,261.909 58.467 C 261.777 58.467,261.483 58.868,261.257 59.358 C 261.031 59.848,260.658 60.423,260.429 60.634 C 260.199 60.845,260.012 61.193,260.012 61.406 C 260.012 61.620,259.917 61.794,259.800 61.794 C 259.683 61.794,259.521 62.062,259.439 62.389 C 259.357 62.715,259.185 62.983,259.057 62.983 C 258.928 62.983,258.824 63.127,258.824 63.302 C 258.824 63.478,258.616 63.810,258.362 64.040 C 258.108 64.270,257.836 64.747,257.759 65.100 C 257.681 65.453,257.408 65.894,257.151 66.079 C 256.894 66.264,256.684 66.605,256.684 66.838 C 256.684 67.071,256.589 67.261,256.473 67.261 C 256.356 67.261,256.194 67.528,256.112 67.855 C 256.030 68.182,255.858 68.449,255.729 68.449 C 255.601 68.449,255.496 68.610,255.496 68.806 C 255.496 69.002,255.389 69.162,255.258 69.162 C 255.128 69.162,255.021 69.376,255.021 69.638 C 255.021 69.899,254.941 70.114,254.843 70.114 C 254.637 70.116,253.832 71.464,253.832 71.806 C 253.832 71.931,253.624 72.258,253.369 72.532 C 253.114 72.805,252.735 73.389,252.526 73.829 C 252.317 74.269,252.045 74.629,251.920 74.629 C 251.795 74.629,251.693 74.843,251.693 75.104 C 251.693 75.365,251.586 75.579,251.456 75.579 C 251.325 75.579,251.218 75.694,251.218 75.834 C 251.218 75.974,251.058 76.249,250.862 76.445 C 250.665 76.641,250.505 77.008,250.505 77.260 C 250.505 77.512,250.398 77.718,250.267 77.718 C 250.137 77.718,250.030 77.830,250.030 77.966 C 250.030 78.102,249.812 78.448,249.545 78.734 C 249.279 79.020,248.994 79.523,248.913 79.853 C 248.832 80.182,248.569 80.625,248.328 80.836 C 248.087 81.047,247.891 81.341,247.891 81.490 C 247.891 81.638,247.784 81.759,247.653 81.759 C 247.522 81.759,247.415 81.965,247.415 82.217 C 247.415 82.469,247.255 82.836,247.059 83.032 C 246.863 83.228,246.702 83.503,246.702 83.643 C 246.702 83.783,246.595 83.898,246.465 83.898 C 246.334 83.898,246.227 84.100,246.227 84.348 C 246.227 84.595,246.067 84.859,245.870 84.934 C 245.674 85.010,245.514 85.288,245.514 85.554 C 245.514 85.820,245.407 86.037,245.276 86.037 C 245.146 86.037,245.039 86.148,245.039 86.284 C 245.039 86.421,244.825 86.762,244.563 87.042 C 244.302 87.323,244.088 87.693,244.088 87.864 C 244.088 88.036,243.993 88.176,243.876 88.176 C 243.759 88.176,243.597 88.443,243.515 88.770 C 243.433 89.097,243.261 89.364,243.133 89.364 C 243.004 89.364,242.900 89.525,242.900 89.721 C 242.900 89.917,242.793 90.077,242.662 90.077 C 242.531 90.077,242.424 90.291,242.424 90.553 C 242.424 90.814,242.319 91.028,242.191 91.028 C 242.063 91.028,241.891 91.295,241.809 91.622 C 241.727 91.949,241.564 92.216,241.448 92.216 C 241.331 92.216,241.236 92.407,241.236 92.639 C 241.236 92.872,241.026 93.213,240.769 93.398 C 240.513 93.583,240.231 94.061,240.143 94.461 C 240.055 94.860,239.784 95.327,239.540 95.498 C 239.296 95.669,239.097 95.963,239.097 96.151 C 239.097 96.340,239.001 96.494,238.885 96.494 C 238.768 96.494,238.606 96.762,238.524 97.089 C 238.442 97.415,238.270 97.683,238.142 97.683 C 238.013 97.683,237.908 97.897,237.908 98.158 C 237.908 98.419,237.802 98.633,237.671 98.633 C 237.540 98.633,237.433 98.794,237.433 98.990 C 237.433 99.186,237.328 99.346,237.200 99.346 C 237.072 99.346,236.900 99.614,236.818 99.941 C 236.736 100.267,236.573 100.535,236.457 100.535 C 236.340 100.535,236.245 100.725,236.245 100.958 C 236.245 101.190,236.035 101.532,235.778 101.717 C 235.522 101.902,235.240 102.380,235.152 102.779 C 235.064 103.178,234.793 103.678,234.549 103.890 C 234.305 104.101,234.106 104.396,234.106 104.544 C 234.106 104.692,233.999 104.813,233.868 104.813 C 233.737 104.813,233.630 105.015,233.630 105.263 C 233.630 105.510,233.470 105.774,233.274 105.849 C 233.078 105.925,232.917 106.204,232.917 106.469 C 232.917 106.735,232.810 106.952,232.680 106.952 C 232.549 106.952,232.442 107.112,232.442 107.308 C 232.442 107.504,232.351 107.665,232.240 107.665 C 232.130 107.665,231.839 108.119,231.594 108.675 C 231.349 109.231,230.976 109.846,230.766 110.042 C 230.555 110.238,230.183 110.853,229.940 111.408 C 229.697 111.964,229.412 112.418,229.307 112.418 C 229.201 112.418,229.115 112.579,229.115 112.775 C 229.115 112.971,229.008 113.131,228.877 113.131 C 228.746 113.131,228.639 113.345,228.639 113.607 C 228.639 113.868,228.534 114.082,228.406 114.082 C 228.278 114.082,228.106 114.349,228.024 114.676 C 227.942 115.003,227.779 115.270,227.663 115.270 C 227.546 115.270,227.451 115.459,227.451 115.689 C 227.451 115.919,227.247 116.234,226.997 116.390 C 226.747 116.546,226.476 116.979,226.394 117.352 C 226.312 117.725,226.035 118.181,225.779 118.366 C 225.522 118.551,225.312 118.893,225.312 119.126 C 225.312 119.358,225.230 119.548,225.131 119.548 C 224.949 119.548,224.520 120.253,224.225 121.034 C 224.139 121.263,223.974 121.450,223.858 121.450 C 223.743 121.450,223.648 121.615,223.648 121.816 C 223.648 122.018,223.430 122.417,223.164 122.703 C 222.897 122.989,222.613 123.492,222.532 123.822 C 222.450 124.151,222.187 124.594,221.947 124.805 C 221.706 125.016,221.509 125.311,221.509 125.459 C 221.509 125.607,221.402 125.728,221.272 125.728 C 221.141 125.728,221.034 125.945,221.034 126.211 C 221.034 126.476,220.873 126.755,220.677 126.830 C 220.481 126.906,220.321 127.170,220.321 127.417 C 220.321 127.664,220.214 127.867,220.083 127.867 C 219.952 127.867,219.846 127.981,219.846 128.122 C 219.846 128.262,219.685 128.537,219.489 128.733 C 219.293 128.929,219.133 129.295,219.133 129.548 C 219.133 129.800,219.026 130.006,218.895 130.006 C 218.764 130.006,218.657 130.143,218.657 130.310 C 218.657 130.477,218.447 130.765,218.191 130.950 C 217.934 131.135,217.652 131.613,217.565 132.013 C 217.477 132.412,217.205 132.912,216.962 133.123 C 216.718 133.335,216.518 133.629,216.518 133.777 C 216.518 133.925,216.411 134.046,216.280 134.046 C 216.150 134.046,216.043 134.253,216.043 134.505 C 216.043 134.757,215.882 135.124,215.686 135.320 C 215.490 135.516,215.330 135.791,215.330 135.931 C 215.330 136.071,215.223 136.185,215.092 136.185 C 214.961 136.185,214.854 136.399,214.854 136.661 C 214.854 136.922,214.764 137.136,214.654 137.136 C 214.544 137.136,214.250 137.537,214.001 138.027 C 213.751 138.518,213.360 139.092,213.131 139.303 C 212.903 139.514,212.715 139.862,212.715 140.075 C 212.715 140.289,212.608 140.463,212.478 140.463 C 212.347 140.463,212.240 140.616,212.240 140.803 C 212.240 140.990,212.106 141.284,211.943 141.457 C 211.780 141.629,211.485 142.092,211.289 142.484 C 211.093 142.876,210.799 143.338,210.636 143.511 C 210.472 143.683,210.339 143.978,210.339 144.164 C 210.339 144.351,210.232 144.504,210.101 144.504 C 209.970 144.504,209.863 144.694,209.863 144.927 C 209.863 145.159,209.650 145.503,209.389 145.691 C 209.128 145.879,208.850 146.381,208.770 146.805 C 208.683 147.270,208.446 147.634,208.175 147.720 C 207.927 147.799,207.724 148.070,207.724 148.323 C 207.724 148.575,207.629 148.782,207.512 148.782 C 207.396 148.782,207.233 149.049,207.151 149.376 C 207.069 149.703,206.897 149.970,206.769 149.970 C 206.641 149.970,206.536 150.184,206.536 150.446 C 206.536 150.707,206.429 150.921,206.298 150.921 C 206.168 150.921,206.061 151.036,206.061 151.176 C 206.061 151.316,205.900 151.591,205.704 151.787 C 205.508 151.983,205.348 152.350,205.348 152.602 C 205.348 152.854,205.241 153.060,205.110 153.060 C 204.979 153.060,204.872 153.181,204.872 153.329 C 204.872 153.477,204.676 153.771,204.437 153.983 C 204.197 154.194,203.802 154.822,203.559 155.377 C 203.316 155.933,203.031 156.387,202.925 156.387 C 202.820 156.387,202.733 156.548,202.733 156.744 C 202.733 156.940,202.626 157.100,202.496 157.100 C 202.365 157.100,202.258 157.303,202.258 157.550 C 202.258 157.798,202.097 158.062,201.901 158.137 C 201.705 158.212,201.545 158.452,201.545 158.669 C 201.545 158.887,201.349 159.238,201.109 159.449 C 200.869 159.661,200.475 160.288,200.232 160.844 C 199.989 161.399,199.703 161.854,199.598 161.854 C 199.492 161.854,199.406 162.014,199.406 162.210 C 199.406 162.406,199.299 162.567,199.168 162.567 C 199.037 162.567,198.930 162.769,198.930 163.017 C 198.930 163.264,198.770 163.528,198.574 163.603 C 198.378 163.679,198.217 163.958,198.217 164.223 C 198.217 164.489,198.111 164.706,197.980 164.706 C 197.849 164.706,197.742 164.817,197.742 164.953 C 197.742 165.090,197.537 165.421,197.287 165.690 C 197.036 165.959,196.762 166.456,196.677 166.795 C 196.592 167.134,196.337 167.578,196.110 167.782 C 195.883 167.985,195.500 168.580,195.259 169.103 C 195.017 169.626,194.755 170.107,194.676 170.172 C 194.597 170.238,194.373 170.612,194.177 171.004 C 193.981 171.396,193.629 171.929,193.395 172.188 C 193.162 172.447,192.904 172.928,192.822 173.257 C 192.741 173.587,192.478 173.996,192.237 174.167 C 191.997 174.338,191.800 174.632,191.800 174.820 C 191.800 175.009,191.705 175.163,191.588 175.163 C 191.472 175.163,191.309 175.431,191.227 175.758 C 191.145 176.084,190.973 176.352,190.845 176.352 C 190.717 176.352,190.612 176.566,190.612 176.827 C 190.612 177.089,190.505 177.302,190.374 177.302 C 190.244 177.302,190.137 177.463,190.137 177.659 C 190.137 177.855,190.032 178.015,189.904 178.015 C 189.775 178.015,189.603 178.283,189.521 178.610 C 189.439 178.936,189.277 179.204,189.160 179.204 C 189.044 179.204,188.948 179.394,188.948 179.627 C 188.948 179.859,188.734 180.204,188.473 180.392 C 188.164 180.615,187.998 181.007,187.998 181.514 L 187.998 182.294 203.226 182.294 C 219.271 182.294,219.133 182.302,219.133 181.270 C 219.133 181.081,219.293 180.793,219.489 180.630 C 219.685 180.467,219.846 180.187,219.846 180.007 C 219.846 179.826,219.952 179.679,220.083 179.679 C 220.214 179.679,220.321 179.565,220.321 179.424 C 220.321 179.284,220.481 179.009,220.677 178.813 C 220.873 178.617,221.034 178.251,221.034 177.998 C 221.034 177.746,221.141 177.540,221.272 177.540 C 221.402 177.540,221.509 177.380,221.509 177.184 C 221.509 176.988,221.616 176.827,221.747 176.827 C 221.878 176.827,221.985 176.613,221.985 176.352 C 221.985 176.090,222.089 175.876,222.218 175.876 C 222.346 175.876,222.518 175.609,222.600 175.282 C 222.682 174.955,222.844 174.688,222.961 174.688 C 223.078 174.688,223.173 174.577,223.173 174.440 C 223.173 174.304,223.381 173.969,223.636 173.695 C 223.891 173.422,224.163 172.912,224.239 172.563 C 224.316 172.214,224.589 171.777,224.845 171.592 C 225.102 171.407,225.312 171.065,225.312 170.833 C 225.312 170.600,225.419 170.410,225.550 170.410 C 225.680 170.410,225.787 170.250,225.787 170.053 C 225.787 169.857,225.892 169.697,226.020 169.697 C 226.149 169.697,226.321 169.430,226.403 169.103 C 226.485 168.776,226.647 168.509,226.764 168.509 C 226.880 168.509,226.976 168.295,226.976 168.033 C 226.976 167.772,227.083 167.558,227.213 167.558 C 227.344 167.558,227.451 167.411,227.451 167.231 C 227.451 167.050,227.611 166.770,227.807 166.607 C 228.004 166.445,228.164 166.111,228.164 165.865 C 228.164 165.620,228.271 165.419,228.402 165.419 C 228.532 165.419,228.639 165.307,228.639 165.171 C 228.639 165.035,228.844 164.704,229.095 164.435 C 229.345 164.166,229.620 163.669,229.705 163.330 C 229.790 162.991,230.048 162.547,230.279 162.343 C 230.510 162.139,230.898 161.518,231.141 160.963 C 231.384 160.407,231.669 159.952,231.775 159.952 C 231.880 159.952,231.967 159.792,231.967 159.596 C 231.967 159.400,232.074 159.239,232.204 159.239 C 232.335 159.239,232.442 159.026,232.442 158.764 C 232.442 158.503,232.537 158.289,232.654 158.289 C 232.771 158.289,232.933 158.021,233.015 157.695 C 233.097 157.368,233.269 157.100,233.397 157.100 C 233.526 157.100,233.630 156.940,233.630 156.744 C 233.630 156.548,233.737 156.387,233.868 156.387 C 233.999 156.387,234.106 156.173,234.106 155.912 C 234.106 155.651,234.211 155.437,234.339 155.437 C 234.467 155.437,234.639 155.169,234.721 154.843 C 234.803 154.516,234.966 154.248,235.082 154.248 C 235.199 154.248,235.294 154.074,235.294 153.860 C 235.294 153.647,235.487 153.299,235.722 153.088 C 235.958 152.876,236.335 152.329,236.561 151.872 C 237.038 150.904,237.493 150.139,237.692 149.970 C 237.769 149.905,238.030 149.397,238.272 148.841 C 238.515 148.286,238.799 147.831,238.905 147.831 C 239.010 147.831,239.097 147.671,239.097 147.475 C 239.097 147.279,239.204 147.118,239.335 147.118 C 239.465 147.118,239.572 146.904,239.572 146.643 C 239.572 146.381,239.677 146.168,239.805 146.168 C 239.934 146.168,240.106 145.900,240.188 145.573 C 240.270 145.247,240.432 144.979,240.549 144.979 C 240.665 144.979,240.761 144.868,240.761 144.732 C 240.761 144.595,240.969 144.260,241.224 143.986 C 241.479 143.713,241.750 143.203,241.827 142.854 C 241.904 142.505,242.176 142.068,242.433 141.883 C 242.690 141.698,242.900 141.357,242.900 141.124 C 242.900 140.891,242.995 140.701,243.111 140.701 C 243.228 140.701,243.391 140.434,243.473 140.107 C 243.555 139.780,243.727 139.513,243.855 139.513 C 243.983 139.513,244.088 139.352,244.088 139.156 C 244.088 138.960,244.195 138.800,244.326 138.800 C 244.456 138.800,244.563 138.586,244.563 138.324 C 244.563 138.063,244.670 137.849,244.801 137.849 C 244.932 137.849,245.039 137.702,245.039 137.522 C 245.039 137.342,245.199 137.061,245.395 136.898 C 245.591 136.736,245.752 136.402,245.752 136.156 C 245.752 135.911,245.859 135.710,245.989 135.710 C 246.120 135.710,246.227 135.550,246.227 135.354 C 246.227 135.157,246.318 134.997,246.429 134.997 C 246.539 134.997,246.830 134.542,247.075 133.987 C 247.320 133.431,247.693 132.816,247.903 132.620 C 248.114 132.424,248.486 131.809,248.729 131.254 C 248.972 130.698,249.257 130.244,249.362 130.244 C 249.468 130.244,249.554 130.083,249.554 129.887 C 249.554 129.691,249.661 129.531,249.792 129.531 C 249.923 129.531,250.030 129.317,250.030 129.055 C 250.030 128.794,250.137 128.580,250.267 128.580 C 250.398 128.580,250.505 128.427,250.505 128.240 C 250.505 128.054,250.639 127.760,250.802 127.587 C 250.966 127.414,251.260 126.952,251.456 126.560 C 251.652 126.168,251.946 125.705,252.109 125.533 C 252.273 125.360,252.406 125.066,252.406 124.879 C 252.406 124.692,252.513 124.540,252.644 124.540 C 252.775 124.540,252.882 124.349,252.882 124.117 C 252.882 123.884,253.092 123.542,253.348 123.357 C 253.605 123.172,253.887 122.694,253.974 122.295 C 254.062 121.895,254.334 121.429,254.577 121.258 C 254.821 121.087,255.021 120.793,255.021 120.604 C 255.021 120.416,255.106 120.261,255.210 120.261 C 255.314 120.261,255.597 119.780,255.840 119.192 C 256.082 118.604,256.372 118.122,256.483 118.122 C 256.594 118.122,256.684 117.962,256.684 117.766 C 256.684 117.570,256.791 117.409,256.922 117.409 C 257.053 117.409,257.160 117.195,257.160 116.934 C 257.160 116.673,257.265 116.459,257.393 116.459 C 257.521 116.459,257.693 116.191,257.775 115.865 C 257.857 115.538,258.020 115.270,258.136 115.270 C 258.253 115.270,258.348 115.159,258.348 115.023 C 258.348 114.887,258.557 114.551,258.812 114.278 C 259.067 114.004,259.338 113.494,259.415 113.145 C 259.491 112.796,259.764 112.359,260.021 112.174 C 260.277 111.989,260.487 111.648,260.487 111.415 C 260.487 111.183,260.594 110.992,260.725 110.992 C 260.856 110.992,260.963 110.839,260.963 110.653 C 260.963 110.466,261.103 110.172,261.274 109.999 C 261.446 109.826,261.739 109.337,261.926 108.913 C 262.114 108.488,262.336 108.140,262.421 108.140 C 262.505 108.140,262.642 107.873,262.724 107.546 C 262.806 107.219,262.978 106.952,263.106 106.952 C 263.234 106.952,263.339 106.738,263.339 106.477 C 263.339 106.215,263.446 106.001,263.577 106.001 C 263.708 106.001,263.815 105.887,263.815 105.747 C 263.815 105.606,263.975 105.331,264.171 105.135 C 264.367 104.939,264.528 104.573,264.528 104.321 C 264.528 104.068,264.635 103.862,264.765 103.862 C 264.896 103.862,265.003 103.741,265.003 103.593 C 265.003 103.445,265.199 103.151,265.439 102.939 C 265.678 102.728,266.073 102.100,266.316 101.545 C 266.559 100.989,266.845 100.535,266.950 100.535 C 267.056 100.535,267.142 100.374,267.142 100.178 C 267.142 99.982,267.249 99.822,267.380 99.822 C 267.510 99.822,267.617 99.608,267.617 99.346 C 267.617 99.085,267.724 98.871,267.855 98.871 C 267.986 98.871,268.093 98.718,268.093 98.532 C 268.093 98.345,268.226 98.051,268.390 97.878 C 268.553 97.705,268.847 97.243,269.043 96.851 C 269.239 96.459,269.534 95.997,269.697 95.824 C 269.860 95.651,269.994 95.403,269.994 95.272 C 269.994 93.954,271.051 94.366,271.757 95.960 C 272.004 96.515,272.296 96.970,272.407 96.970 C 272.518 96.970,272.608 97.130,272.608 97.326 C 272.608 97.522,272.704 97.683,272.820 97.683 C 272.937 97.683,273.099 97.950,273.181 98.277 C 273.263 98.604,273.435 98.871,273.564 98.871 C 273.692 98.871,273.797 99.085,273.797 99.346 C 273.797 99.608,273.904 99.822,274.034 99.822 C 274.165 99.822,274.272 99.943,274.272 100.091 C 274.272 100.239,274.472 100.533,274.716 100.745 C 274.959 100.956,275.231 101.456,275.319 101.855 C 275.406 102.255,275.688 102.733,275.945 102.918 C 276.201 103.103,276.411 103.391,276.411 103.558 C 276.411 103.725,276.518 103.862,276.649 103.862 C 276.780 103.862,276.887 104.068,276.887 104.321 C 276.887 104.573,277.047 104.939,277.243 105.135 C 277.439 105.331,277.600 105.606,277.600 105.747 C 277.600 105.887,277.706 106.001,277.837 106.001 C 277.968 106.001,278.075 106.215,278.075 106.477 C 278.075 106.738,278.180 106.952,278.308 106.952 C 278.436 106.952,278.608 107.219,278.690 107.546 C 278.772 107.873,278.909 108.140,278.993 108.140 C 279.078 108.140,279.300 108.488,279.488 108.913 C 279.675 109.337,279.968 109.826,280.140 109.999 C 280.311 110.172,280.452 110.466,280.452 110.653 C 280.452 110.839,280.559 110.992,280.689 110.992 C 280.820 110.992,280.927 111.167,280.927 111.380 C 280.927 111.594,281.115 111.941,281.344 112.153 C 281.573 112.364,281.947 112.911,282.174 113.369 C 282.650 114.327,283.120 115.099,283.331 115.270 C 283.411 115.336,283.552 115.630,283.644 115.924 C 283.736 116.218,283.911 116.459,284.033 116.459 C 284.155 116.459,284.254 116.673,284.254 116.934 C 284.254 117.195,284.361 117.409,284.492 117.409 C 284.623 117.409,284.730 117.531,284.730 117.679 C 284.730 117.827,284.929 118.121,285.173 118.332 C 285.417 118.544,285.688 119.044,285.776 119.443 C 285.864 119.842,286.145 120.320,286.402 120.505 C 286.659 120.690,286.869 120.979,286.869 121.146 C 286.869 121.313,286.976 121.450,287.106 121.450 C 287.237 121.450,287.344 121.656,287.344 121.908 C 287.344 122.160,287.504 122.527,287.701 122.723 C 287.897 122.919,288.057 123.194,288.057 123.334 C 288.057 123.474,288.164 123.589,288.295 123.589 C 288.425 123.589,288.532 123.803,288.532 124.064 C 288.532 124.326,288.637 124.540,288.766 124.540 C 288.894 124.540,289.066 124.807,289.148 125.134 C 289.230 125.460,289.392 125.728,289.509 125.728 C 289.625 125.728,289.721 125.882,289.721 126.071 C 289.721 126.260,289.920 126.554,290.164 126.725 C 290.408 126.895,290.684 127.383,290.777 127.807 C 290.871 128.232,291.045 128.580,291.166 128.580 C 291.286 128.580,291.384 128.794,291.384 129.055 C 291.384 129.525,291.226 129.531,278.907 129.531 C 268.931 129.531,266.429 129.592,266.429 129.835 C 266.429 130.002,266.215 130.293,265.954 130.481 C 265.692 130.670,265.478 131.014,265.478 131.247 C 265.478 131.479,265.383 131.670,265.266 131.670 C 265.150 131.670,264.987 131.937,264.905 132.264 C 264.823 132.591,264.651 132.858,264.523 132.858 C 264.395 132.858,264.290 133.072,264.290 133.333 C 264.290 133.595,264.183 133.809,264.052 133.809 C 263.922 133.809,263.815 133.969,263.815 134.165 C 263.815 134.361,263.734 134.522,263.636 134.523 C 263.397 134.525,262.626 135.899,262.626 136.323 C 262.626 136.509,262.519 136.661,262.389 136.661 C 262.258 136.661,262.151 136.772,262.151 136.908 C 262.151 137.045,261.946 137.376,261.695 137.645 C 261.445 137.914,261.170 138.411,261.085 138.750 C 261.000 139.089,260.745 139.533,260.519 139.736 C 260.292 139.940,259.909 140.535,259.668 141.058 C 259.426 141.581,259.164 142.062,259.085 142.127 C 259.006 142.193,258.781 142.567,258.585 142.959 C 258.390 143.351,258.096 143.813,257.932 143.986 C 257.769 144.159,257.635 144.453,257.635 144.640 C 257.635 144.826,257.528 144.979,257.398 144.979 C 257.267 144.979,257.160 145.193,257.160 145.455 C 257.160 145.716,257.053 145.930,256.922 145.930 C 256.791 145.930,256.684 146.090,256.684 146.286 C 256.684 146.482,256.580 146.643,256.451 146.643 C 256.323 146.643,256.151 146.910,256.069 147.237 C 255.987 147.564,255.825 147.831,255.708 147.831 C 255.591 147.831,255.496 148.006,255.496 148.219 C 255.496 148.433,255.306 148.780,255.073 148.992 C 254.841 149.203,254.450 149.831,254.205 150.386 C 253.961 150.942,253.670 151.396,253.559 151.396 C 253.448 151.396,253.357 151.557,253.357 151.753 C 253.357 152.068,256.383 152.109,279.161 152.109 C 306.144 152.109,305.645 152.092,305.645 153.043 C 305.645 153.183,305.752 153.298,305.882 153.298 C 306.013 153.298,306.120 153.512,306.120 153.773 C 306.120 154.034,306.225 154.248,306.353 154.248 C 306.481 154.248,306.653 154.516,306.735 154.843 C 306.817 155.169,306.980 155.437,307.096 155.437 C 307.213 155.437,307.308 155.558,307.308 155.706 C 307.308 155.854,307.508 156.148,307.752 156.360 C 307.996 156.571,308.267 157.071,308.355 157.470 C 308.442 157.870,308.724 158.348,308.981 158.533 C 309.237 158.718,309.447 159.059,309.447 159.292 C 309.447 159.525,309.543 159.715,309.659 159.715 C 309.776 159.715,309.938 159.982,310.020 160.309 C 310.102 160.636,310.274 160.903,310.403 160.903 C 310.531 160.903,310.636 161.064,310.636 161.260 C 310.636 161.456,310.743 161.616,310.873 161.616 C 311.004 161.616,311.111 161.830,311.111 162.092 C 311.111 162.353,311.216 162.567,311.344 162.567 C 311.472 162.567,311.645 162.834,311.727 163.161 C 311.809 163.488,311.971 163.755,312.088 163.755 C 312.204 163.755,312.299 163.895,312.299 164.067 C 312.299 164.238,312.487 164.589,312.715 164.846 C 312.944 165.103,313.335 165.711,313.585 166.198 C 313.834 166.684,314.128 167.083,314.238 167.083 C 314.348 167.083,314.439 167.296,314.439 167.558 C 314.439 167.819,314.545 168.033,314.676 168.033 C 314.807 168.033,314.914 168.148,314.914 168.288 C 314.914 168.428,315.074 168.703,315.270 168.899 C 315.466 169.095,315.627 169.462,315.627 169.714 C 315.627 169.966,315.734 170.172,315.865 170.172 C 315.995 170.172,316.102 170.309,316.102 170.476 C 316.102 170.644,316.316 170.934,316.576 171.122 C 316.837 171.310,317.117 171.815,317.197 172.244 C 317.278 172.673,317.439 173.024,317.555 173.024 C 317.671 173.024,317.766 173.146,317.766 173.294 C 317.766 173.442,317.965 173.736,318.209 173.947 C 318.453 174.159,318.725 174.659,318.812 175.058 C 318.900 175.457,319.182 175.935,319.438 176.120 C 319.695 176.305,319.905 176.647,319.905 176.880 C 319.905 177.112,320.000 177.302,320.117 177.302 C 320.233 177.302,320.396 177.570,320.478 177.897 C 320.560 178.223,320.732 178.491,320.860 178.491 C 320.988 178.491,321.093 178.651,321.093 178.847 C 321.093 179.043,321.200 179.204,321.331 179.204 C 321.462 179.204,321.569 179.418,321.569 179.679 C 321.569 179.941,321.674 180.154,321.802 180.154 C 321.930 180.154,322.102 180.422,322.184 180.749 C 322.266 181.075,322.416 181.343,322.517 181.343 C 322.619 181.343,322.757 181.557,322.826 181.818 C 323.023 182.571,355.080 182.568,355.080 181.815 C 355.080 181.255,354.653 180.434,354.086 179.905 C 353.866 179.700,353.616 179.255,353.531 178.916 C 353.446 178.577,353.172 178.080,352.921 177.811 C 352.671 177.542,352.466 177.211,352.466 177.075 C 352.466 176.939,352.359 176.827,352.228 176.827 C 352.097 176.827,351.990 176.610,351.990 176.344 C 351.990 176.079,351.830 175.800,351.634 175.725 C 351.438 175.649,351.277 175.385,351.277 175.138 C 351.277 174.891,351.171 174.688,351.040 174.688 C 350.909 174.688,350.802 174.573,350.802 174.433 C 350.802 174.293,350.642 174.018,350.446 173.822 C 350.250 173.626,350.089 173.259,350.089 173.007 C 350.089 172.755,349.982 172.549,349.851 172.549 C 349.721 172.549,349.614 172.428,349.614 172.280 C 349.614 172.132,349.417 171.838,349.176 171.626 C 348.936 171.415,348.673 170.972,348.591 170.643 C 348.510 170.314,348.226 169.810,347.959 169.524 C 347.693 169.238,347.475 168.892,347.475 168.756 C 347.475 168.620,347.368 168.509,347.237 168.509 C 347.106 168.509,346.999 168.308,346.999 168.062 C 346.999 167.817,346.839 167.483,346.643 167.320 C 346.447 167.158,346.286 166.877,346.286 166.697 C 346.286 166.517,346.179 166.370,346.049 166.370 C 345.918 166.370,345.811 166.215,345.811 166.027 C 345.811 165.838,345.612 165.544,345.368 165.373 C 345.124 165.202,344.852 164.736,344.765 164.336 C 344.677 163.937,344.395 163.459,344.139 163.274 C 343.882 163.089,343.672 162.747,343.672 162.514 C 343.672 162.282,343.565 162.092,343.434 162.092 C 343.304 162.092,343.197 161.939,343.197 161.752 C 343.197 161.565,343.063 161.271,342.900 161.098 C 342.736 160.926,342.442 160.463,342.246 160.071 C 342.050 159.679,341.756 159.217,341.592 159.044 C 341.429 158.871,341.295 158.577,341.295 158.391 C 341.295 158.204,341.188 158.051,341.058 158.051 C 340.927 158.051,340.820 157.861,340.820 157.628 C 340.820 157.396,340.610 157.054,340.353 156.869 C 340.097 156.684,339.820 156.228,339.738 155.855 C 339.656 155.482,339.385 155.049,339.135 154.893 C 338.885 154.737,338.681 154.421,338.681 154.191 C 338.681 153.961,338.586 153.773,338.469 153.773 C 338.352 153.773,338.190 153.506,338.108 153.179 C 338.026 152.852,337.854 152.585,337.726 152.585 C 337.597 152.585,337.493 152.371,337.493 152.109 C 337.493 151.848,337.386 151.634,337.255 151.634 C 337.124 151.634,337.017 151.474,337.017 151.277 C 337.017 151.081,336.927 150.921,336.816 150.921 C 336.705 150.921,336.414 150.466,336.169 149.911 C 335.924 149.355,335.534 148.728,335.301 148.516 C 335.069 148.305,334.878 148.011,334.878 147.863 C 334.878 147.715,334.771 147.594,334.641 147.594 C 334.510 147.594,334.403 147.387,334.403 147.135 C 334.403 146.883,334.242 146.516,334.046 146.320 C 333.850 146.124,333.690 145.849,333.690 145.709 C 333.690 145.569,333.583 145.455,333.452 145.455 C 333.321 145.455,333.214 145.252,333.214 145.005 C 333.214 144.757,333.054 144.493,332.858 144.418 C 332.662 144.343,332.501 144.064,332.501 143.798 C 332.501 143.533,332.395 143.316,332.264 143.316 C 332.133 143.316,332.026 143.179,332.026 143.011 C 332.026 142.844,331.812 142.553,331.551 142.365 C 331.289 142.176,331.075 141.845,331.075 141.628 C 331.075 141.412,330.915 141.102,330.719 140.939 C 330.523 140.776,330.362 140.496,330.362 140.316 C 330.362 140.135,330.255 139.988,330.125 139.988 C 329.994 139.988,329.887 139.786,329.887 139.538 C 329.887 139.291,329.727 139.027,329.531 138.951 C 329.335 138.876,329.174 138.597,329.174 138.332 C 329.174 138.066,329.067 137.849,328.936 137.849 C 328.806 137.849,328.699 137.728,328.699 137.580 C 328.699 137.432,328.502 137.138,328.261 136.926 C 328.021 136.715,327.758 136.272,327.676 135.943 C 327.595 135.614,327.311 135.110,327.044 134.824 C 326.778 134.538,326.560 134.192,326.560 134.056 C 326.560 133.920,326.453 133.809,326.322 133.809 C 326.191 133.809,326.084 133.608,326.084 133.362 C 326.084 133.117,325.924 132.783,325.728 132.620 C 325.532 132.458,325.371 132.177,325.371 131.997 C 325.371 131.817,325.264 131.670,325.134 131.670 C 325.003 131.670,324.896 131.479,324.896 131.247 C 324.896 131.014,324.686 130.673,324.429 130.488 C 324.173 130.303,323.896 129.846,323.814 129.473 C 323.732 129.100,323.461 128.667,323.211 128.511 C 322.961 128.355,322.757 128.040,322.757 127.810 C 322.757 127.580,322.662 127.392,322.545 127.392 C 322.429 127.392,322.266 127.124,322.184 126.797 C 322.102 126.471,321.930 126.203,321.802 126.203 C 321.674 126.203,321.569 125.989,321.569 125.728 C 321.569 125.466,321.462 125.253,321.331 125.253 C 321.200 125.253,321.093 125.092,321.093 124.896 C 321.093 124.700,320.988 124.540,320.860 124.540 C 320.732 124.540,320.560 124.272,320.478 123.945 C 320.396 123.619,320.233 123.351,320.117 123.351 C 320.000 123.351,319.905 123.161,319.905 122.928 C 319.905 122.696,319.695 122.354,319.438 122.169 C 319.182 121.984,318.909 121.547,318.832 121.198 C 318.756 120.849,318.484 120.339,318.229 120.066 C 317.974 119.792,317.766 119.457,317.766 119.321 C 317.766 119.185,317.671 119.073,317.554 119.073 C 317.437 119.073,317.275 118.806,317.193 118.479 C 317.111 118.152,316.939 117.885,316.811 117.885 C 316.682 117.885,316.578 117.671,316.578 117.409 C 316.578 117.148,316.471 116.934,316.340 116.934 C 316.209 116.934,316.102 116.774,316.102 116.578 C 316.102 116.381,316.016 116.221,315.910 116.221 C 315.805 116.221,315.520 115.766,315.276 115.211 C 315.033 114.655,314.656 114.040,314.439 113.844 C 314.221 113.648,313.844 113.033,313.601 112.478 C 313.357 111.922,313.072 111.468,312.967 111.468 C 312.861 111.468,312.775 111.307,312.775 111.111 C 312.775 110.915,312.668 110.755,312.537 110.755 C 312.406 110.755,312.299 110.541,312.299 110.279 C 312.299 110.018,312.195 109.804,312.066 109.804 C 311.938 109.804,311.766 109.537,311.684 109.210 C 311.602 108.883,311.440 108.616,311.323 108.616 C 311.206 108.616,311.111 108.461,311.111 108.273 C 311.111 108.084,310.912 107.790,310.668 107.619 C 310.424 107.448,310.153 106.982,310.065 106.582 C 309.977 106.183,309.695 105.705,309.439 105.520 C 309.182 105.335,308.972 104.993,308.972 104.760 C 308.972 104.528,308.865 104.337,308.734 104.337 C 308.604 104.337,308.497 104.185,308.497 103.998 C 308.497 103.811,308.356 103.517,308.185 103.344 C 308.014 103.172,307.720 102.683,307.533 102.258 C 307.346 101.833,307.134 101.485,307.063 101.485 C 306.992 101.485,306.626 100.897,306.250 100.178 C 305.873 99.459,305.476 98.871,305.367 98.871 C 305.259 98.871,305.169 98.711,305.169 98.515 C 305.169 98.318,305.062 98.158,304.932 98.158 C 304.801 98.158,304.694 97.941,304.694 97.675 C 304.694 97.410,304.534 97.131,304.337 97.056 C 304.141 96.980,303.981 96.716,303.981 96.469 C 303.981 96.221,303.874 96.019,303.743 96.019 C 303.613 96.019,303.506 95.859,303.506 95.663 C 303.506 95.466,303.419 95.306,303.314 95.306 C 303.208 95.306,302.923 94.851,302.680 94.296 C 302.437 93.740,302.049 93.119,301.818 92.915 C 301.587 92.711,301.329 92.267,301.244 91.929 C 301.159 91.590,300.884 91.093,300.634 90.824 C 300.383 90.555,300.178 90.223,300.178 90.087 C 300.178 89.951,300.071 89.840,299.941 89.840 C 299.810 89.840,299.703 89.639,299.703 89.393 C 299.703 89.148,299.542 88.814,299.346 88.651 C 299.150 88.488,298.990 88.232,298.990 88.080 C 298.990 87.929,298.780 87.654,298.523 87.469 C 298.267 87.284,297.994 86.847,297.917 86.498 C 297.841 86.149,297.569 85.640,297.314 85.366 C 297.059 85.092,296.851 84.757,296.851 84.621 C 296.851 84.485,296.744 84.373,296.613 84.373 C 296.482 84.373,296.376 84.172,296.376 83.927 C 296.376 83.681,296.215 83.348,296.019 83.185 C 295.823 83.022,295.663 82.742,295.663 82.562 C 295.663 82.381,295.556 82.234,295.425 82.234 C 295.294 82.234,295.187 82.080,295.187 81.891 C 295.187 81.702,294.988 81.408,294.744 81.237 C 294.500 81.067,294.229 80.600,294.141 80.201 C 294.053 79.801,293.771 79.323,293.515 79.138 C 293.258 78.953,293.048 78.611,293.048 78.379 C 293.048 78.146,292.953 77.956,292.836 77.956 C 292.720 77.956,292.557 77.689,292.475 77.362 C 292.393 77.035,292.221 76.768,292.093 76.768 C 291.965 76.768,291.860 76.607,291.860 76.411 C 291.860 76.215,291.753 76.055,291.622 76.055 C 291.491 76.055,291.384 75.841,291.384 75.579 C 291.384 75.318,291.280 75.104,291.151 75.104 C 291.023 75.104,290.851 74.837,290.769 74.510 C 290.687 74.183,290.525 73.916,290.408 73.916 C 290.291 73.916,290.196 73.775,290.196 73.604 C 290.196 73.433,290.009 73.082,289.780 72.825 C 289.551 72.568,289.160 71.960,288.911 71.473 C 288.662 70.986,288.367 70.588,288.257 70.588 C 288.147 70.588,288.057 70.374,288.057 70.113 C 288.057 69.851,287.962 69.638,287.845 69.638 C 287.729 69.638,287.566 69.370,287.484 69.043 C 287.402 68.717,287.230 68.449,287.102 68.449 C 286.974 68.449,286.869 68.235,286.869 67.974 C 286.869 67.712,286.762 67.499,286.631 67.499 C 286.500 67.499,286.393 67.338,286.393 67.142 C 286.393 66.946,286.288 66.786,286.160 66.786 C 286.032 66.786,285.860 66.518,285.778 66.191 C 285.696 65.865,285.533 65.597,285.417 65.597 C 285.300 65.597,285.205 65.407,285.205 65.174 C 285.205 64.942,284.991 64.597,284.730 64.409 C 284.468 64.220,284.254 63.929,284.254 63.762 C 284.254 63.595,284.147 63.458,284.017 63.458 C 283.886 63.458,283.779 63.257,283.779 63.012 C 283.779 62.766,283.619 62.432,283.422 62.270 C 283.226 62.107,283.066 61.827,283.066 61.646 C 283.066 61.466,282.959 61.319,282.828 61.319 C 282.698 61.319,282.591 61.172,282.591 60.992 C 282.591 60.812,282.430 60.531,282.234 60.368 C 282.038 60.206,281.878 59.872,281.878 59.626 C 281.878 59.381,281.771 59.180,281.640 59.180 C 281.509 59.180,281.402 59.043,281.402 58.876 C 281.402 58.709,281.188 58.418,280.927 58.229 C 280.665 58.041,280.452 57.696,280.452 57.464 C 280.452 56.884,262.957 56.818,262.448 57.397 " stroke="none" fill="#e4040c" fill-rule="evenodd"></path><path id="path2" d="" stroke="none" fill="#603078" fill-rule="evenodd"></path><path id="path3" d="" stroke="none" fill="#603078" fill-rule="evenodd"></path><path id="path4" d="" stroke="none" fill="#603078" fill-rule="evenodd"></path></g></svg>