<svg preserveAspectRatio="xMidYMid meet" width="100%" height="100%" overflow="visible" style="display: block;" viewBox="0 0 75.5769 45.0027" fill="none" xmlns="http://www.w3.org/2000/svg">
<g id="svgg">
<path id="path0" fill-rule="evenodd" clip-rule="evenodd" d="M0 3.4202C0 6.43047 0.00812452 6.84041 0.0674524 6.84041C0.104485 6.84041 0.134716 6.86067 0.134716 6.88547C0.134716 6.91009 0.164947 6.93035 0.202168 6.93035C0.239201 6.93035 0.269432 6.94739 0.269432 6.96841C0.269432 6.98923 0.340096 7.04434 0.426632 7.0911C0.512978 7.13768 0.583832 7.19146 0.583832 7.21058C0.583832 7.22971 0.624265 7.24542 0.673579 7.24542C0.723082 7.24542 0.763327 7.26568 0.763327 7.29049C0.763327 7.3151 0.793747 7.33536 0.830779 7.33536C0.867812 7.33536 0.898043 7.35525 0.898043 7.37948C0.898043 7.40391 0.953781 7.43742 1.02161 7.45428C1.08944 7.47113 1.17144 7.52225 1.20375 7.5677C1.23606 7.61314 1.29161 7.65044 1.32732 7.65044C1.36284 7.65044 1.39213 7.66843 1.39213 7.69058C1.39213 7.71255 1.44257 7.74341 1.50436 7.75894C1.56614 7.77446 1.61659 7.80703 1.61659 7.83127C1.61659 7.85551 1.65211 7.87539 1.69557 7.87539C1.73902 7.87539 1.79873 7.9142 1.82821 7.96135C1.85768 8.00869 1.93949 8.06 2.00997 8.07553C2.08044 8.09105 2.1666 8.1435 2.20156 8.19217C2.23651 8.24064 2.30113 8.2804 2.34496 8.2804C2.38899 8.2804 2.42489 8.30028 2.42489 8.32471C2.42489 8.34895 2.47552 8.38152 2.53712 8.39704C2.5989 8.41257 2.64954 8.44324 2.64954 8.4654C2.64954 8.48736 2.68846 8.50554 2.73626 8.50554C2.78406 8.50554 2.83583 8.54606 2.85152 8.59548C2.8672 8.64509 2.91916 8.68542 2.96677 8.68542C3.01457 8.68542 3.05369 8.7053 3.05369 8.72973C3.05369 8.75396 3.10413 8.78653 3.16592 8.80206C3.2277 8.81759 3.27815 8.84826 3.27815 8.87041C3.27815 8.89238 3.31632 8.91056 3.36317 8.91056C3.40984 8.91056 3.4601 8.9418 3.47484 8.98024C3.48958 9.01848 3.56232 9.07112 3.63676 9.09706C3.7112 9.123 3.77204 9.16258 3.77204 9.18492C3.77204 9.20726 3.80246 9.22563 3.8395 9.22563C3.87653 9.22563 3.90676 9.2457 3.90676 9.27051C3.90676 9.29531 3.94512 9.31557 3.99178 9.31557C4.03864 9.31557 4.08852 9.34587 4.10269 9.38298C4.11686 9.42009 4.16504 9.45058 4.20982 9.45058C4.2546 9.45058 4.32035 9.4911 4.35588 9.54052C4.39159 9.59013 4.44638 9.63065 4.47812 9.63065C4.50967 9.63065 4.53556 9.65091 4.53556 9.67552C4.53556 9.70033 4.57448 9.72059 4.6221 9.72059C4.66971 9.72059 4.73905 9.75088 4.77608 9.788C4.81312 9.82511 4.88529 9.85559 4.9365 9.85559C5.02946 9.85559 5.02945 9.85332 5.02945 7.44803V5.04027H37.7885H70.5475V22.4564V39.8723H35.2736H0V42.4376V45.0027H37.7885H75.5769V22.5012V0H37.7885H0V3.4202Z" fill="var(--fill-0, #345C74)"/>
<path id="path1" fill-rule="evenodd" clip-rule="evenodd" d="M0.00011268 22.2997V34.517H9.07123H18.1422V31.9292V29.3416H11.5859H5.02957V21.2708V13.1998L4.87237 13.115C4.78602 13.0684 4.71517 13.0146 4.71517 12.9955C4.71517 12.9764 4.67492 12.9606 4.62542 12.9606C4.57611 12.9606 4.53567 12.9404 4.53567 12.9158C4.53567 12.891 4.50525 12.8707 4.46822 12.8707C4.43119 12.8707 4.40096 12.8508 4.40096 12.8266C4.40096 12.8022 4.34541 12.7686 4.27739 12.7518C4.20956 12.7349 4.12756 12.6838 4.09525 12.6384C4.06294 12.5929 4.00739 12.5556 3.97168 12.5556C3.93616 12.5556 3.90687 12.5376 3.90687 12.5155C3.90687 12.4935 3.85643 12.4627 3.79464 12.4471C3.73286 12.4316 3.68241 12.399 3.68241 12.3748C3.68241 12.3506 3.64934 12.3307 3.6091 12.3307C3.56885 12.3307 3.5031 12.2953 3.46324 12.2519C3.42318 12.2085 3.31473 12.1345 3.22215 12.0874C3.12956 12.04 3.0538 11.9844 3.0538 11.9635C3.0538 11.9427 3.02262 11.9257 2.98446 11.9257C2.94648 11.9257 2.87109 11.8844 2.81705 11.8338C2.76302 11.7835 2.66779 11.7295 2.60563 11.7142C2.54328 11.6986 2.466 11.6488 2.43369 11.6034C2.40138 11.5578 2.34583 11.5206 2.31031 11.5206C2.2746 11.5206 2.2455 11.5008 2.2455 11.4765C2.2455 11.4521 2.19487 11.4195 2.13308 11.404C2.07149 11.3885 2.02085 11.3578 2.02085 11.3356C2.02085 11.3137 1.98268 11.2955 1.93583 11.2955C1.88916 11.2955 1.8389 11.2643 1.82416 11.226C1.80961 11.1876 1.73668 11.1349 1.66224 11.109C1.58779 11.0831 1.52696 11.0435 1.52696 11.0211C1.52696 10.9988 1.49654 10.9806 1.4595 10.9806C1.42247 10.9806 1.39224 10.9604 1.39224 10.9356C1.39224 10.9108 1.35181 10.8905 1.3023 10.8905C1.25299 10.8905 1.21256 10.8717 1.21256 10.8486C1.21256 10.8255 1.16702 10.7922 1.11147 10.7746C1.05592 10.757 0.977889 10.7051 0.937833 10.6591C0.897966 10.6131 0.842417 10.5756 0.814454 10.5756C0.786491 10.5756 0.76344 10.5553 0.76344 10.5305C0.76344 10.5057 0.724517 10.4855 0.676904 10.4855C0.629291 10.4855 0.559949 10.4552 0.522916 10.4181C0.485883 10.381 0.441293 10.3505 0.42391 10.3505C0.406528 10.3505 0.35967 10.3147 0.319803 10.2708C0.279747 10.2268 0.191511 10.1666 0.123681 10.1367L0.00011268 10.0824V22.2997ZM15.9417 13.3882V15.9758H20.2528H24.5637V25.2463V34.517H27.1233H29.6829V25.2463V15.9758H33.9491H38.2152V13.3882V10.8005H27.0786H15.9417V13.3882ZM49.5876 10.868C49.5568 10.903 49.5315 10.963 49.5315 11.0011C49.5315 11.0393 49.5109 11.0706 49.4858 11.0706C49.4609 11.0706 49.4053 11.1465 49.3626 11.2393C49.3199 11.3321 49.2494 11.4409 49.2062 11.4809C49.1627 11.5208 49.1274 11.5867 49.1274 11.6271C49.1274 11.6676 49.1094 11.7005 49.0873 11.7005C49.0652 11.7005 49.0346 11.7513 49.0191 11.8132C49.0036 11.8749 48.9711 11.9257 48.9469 11.9257C48.9226 11.9257 48.9029 11.9529 48.9029 11.9861C48.9029 12.0194 48.8636 12.0823 48.8156 12.1258C48.7676 12.1694 48.7162 12.2597 48.7017 12.3265C48.687 12.3933 48.6354 12.4769 48.5868 12.5119C48.5383 12.5469 48.4986 12.6115 48.4986 12.6556C48.4986 12.6997 48.4806 12.7357 48.4587 12.7357C48.4366 12.7357 48.406 12.7862 48.3905 12.8482C48.375 12.9101 48.3425 12.9606 48.3181 12.9606C48.294 12.9606 48.2741 12.9911 48.2741 13.0282C48.2741 13.0653 48.2539 13.0956 48.2291 13.0956C48.2046 13.0956 48.1844 13.1362 48.1844 13.1858C48.1844 13.2352 48.1693 13.2759 48.1507 13.2759C48.1118 13.2763 47.9597 13.5315 47.9597 13.5963C47.9597 13.6199 47.9204 13.6819 47.8722 13.7337C47.8241 13.7854 47.7524 13.896 47.713 13.9793C47.6735 14.0626 47.6221 14.1308 47.5985 14.1308C47.5748 14.1308 47.5556 14.1713 47.5556 14.2208C47.5556 14.2702 47.5353 14.3107 47.5108 14.3107C47.486 14.3107 47.4658 14.3325 47.4658 14.359C47.4658 14.3855 47.4356 14.4376 47.3986 14.4747C47.3613 14.5118 47.3311 14.5813 47.3311 14.629C47.3311 14.6767 47.3109 14.7157 47.2861 14.7157C47.2616 14.7157 47.2414 14.7369 47.2414 14.7627C47.2414 14.7884 47.2002 14.8539 47.1497 14.9081C47.0995 14.9622 47.0456 15.0575 47.0303 15.12C47.015 15.1823 46.9653 15.2661 46.9198 15.3061C46.8742 15.3461 46.8372 15.4017 46.8372 15.4299C46.8372 15.458 46.817 15.4809 46.7922 15.4809C46.7675 15.4809 46.7473 15.5199 46.7473 15.5676C46.7473 15.6153 46.717 15.6848 46.68 15.7219C46.643 15.759 46.6126 15.8111 46.6126 15.8376C46.6126 15.8641 46.5923 15.8859 46.5678 15.8859C46.543 15.8859 46.5228 15.9241 46.5228 15.9711C46.5228 16.0179 46.4926 16.0678 46.4554 16.082C46.4183 16.0964 46.3881 16.1491 46.3881 16.1994C46.3881 16.2498 46.3679 16.2909 46.3431 16.2909C46.3186 16.2909 46.2983 16.3119 46.2983 16.3377C46.2983 16.3636 46.2579 16.4282 46.2084 16.4812C46.1591 16.5344 46.1187 16.6045 46.1187 16.6368C46.1187 16.6694 46.1007 16.6959 46.0786 16.6959C46.0565 16.6959 46.0259 16.7465 46.0104 16.8084C45.9949 16.8703 45.9624 16.9209 45.9382 16.9209C45.9138 16.9209 45.8942 16.9513 45.8942 16.9885C45.8942 17.0256 45.874 17.0559 45.8492 17.0559C45.8245 17.0559 45.8043 17.0964 45.8043 17.146C45.8043 17.1954 45.7844 17.2359 45.7602 17.2359C45.7361 17.2359 45.7036 17.2865 45.6881 17.3484C45.6726 17.4103 45.6418 17.4609 45.6199 17.4609C45.5977 17.4609 45.5798 17.4971 45.5798 17.541C45.5798 17.5851 45.5401 17.6497 45.4916 17.6847C45.4432 17.7197 45.3899 17.8102 45.3733 17.886C45.3567 17.9615 45.3055 18.0499 45.2593 18.0823C45.2132 18.1147 45.1756 18.1704 45.1756 18.206C45.1756 18.2418 45.1575 18.2709 45.1356 18.2709C45.1135 18.2709 45.0829 18.3217 45.0674 18.3836C45.0519 18.4453 45.0194 18.4961 44.9952 18.4961C44.9708 18.4961 44.951 18.5366 44.951 18.586C44.951 18.6354 44.931 18.6759 44.9062 18.6759C44.8815 18.6759 44.8612 18.7064 44.8612 18.7435C44.8612 18.7806 44.8414 18.8109 44.8172 18.8109C44.793 18.8109 44.7605 18.8617 44.745 18.9236C44.7296 18.9853 44.6988 19.0361 44.6768 19.0361C44.6547 19.0361 44.6368 19.0721 44.6368 19.1162C44.6368 19.1601 44.5971 19.2249 44.5485 19.2599C44.5002 19.2949 44.4469 19.3854 44.4303 19.461C44.4136 19.5365 44.3624 19.6312 44.3163 19.6713C44.2702 19.7113 44.2326 19.7672 44.2326 19.7952C44.2326 19.8232 44.2124 19.8461 44.1877 19.8461C44.1629 19.8461 44.1427 19.8844 44.1427 19.9313C44.1427 19.9781 44.1125 20.0281 44.0754 20.0423C44.0384 20.0567 44.008 20.1095 44.008 20.1597C44.008 20.21 43.9878 20.2511 43.9632 20.2511C43.9385 20.2511 43.9182 20.2814 43.9182 20.3185C43.9182 20.3556 43.901 20.3861 43.8801 20.3861C43.8593 20.3861 43.8043 20.4721 43.758 20.5774C43.7117 20.6827 43.6413 20.7991 43.6016 20.8362C43.5617 20.8733 43.4914 20.9898 43.4455 21.0949C43.3996 21.2001 43.3457 21.2861 43.3259 21.2861C43.3059 21.2861 43.2896 21.3166 43.2896 21.3537C43.2896 21.3908 43.2694 21.4211 43.2447 21.4211C43.2199 21.4211 43.1997 21.4616 43.1997 21.5112C43.1997 21.5607 43.1799 21.6012 43.1557 21.6012C43.1315 21.6012 43.099 21.6517 43.0835 21.7137C43.068 21.7756 43.0372 21.8261 43.0153 21.8261C42.9932 21.8261 42.9752 21.8619 42.9752 21.9055C42.9752 21.949 42.9367 22.0087 42.8894 22.0382C42.8422 22.0677 42.791 22.1497 42.7755 22.2204C42.76 22.291 42.7077 22.3773 42.6593 22.4124C42.6108 22.4474 42.5711 22.5121 42.5711 22.5563C42.5711 22.6002 42.5556 22.6362 42.5369 22.6362C42.5025 22.6362 42.4214 22.7697 42.3657 22.9175C42.3495 22.9609 42.3183 22.9963 42.2964 22.9963C42.2746 22.9963 42.2567 23.0275 42.2567 23.0656C42.2567 23.1039 42.2155 23.1794 42.1652 23.2336C42.1148 23.2877 42.0611 23.383 42.0458 23.4454C42.0303 23.5077 41.9806 23.5916 41.9353 23.6316C41.8898 23.6715 41.8525 23.7274 41.8525 23.7554C41.8525 23.7834 41.8323 23.8063 41.8078 23.8063C41.783 23.8063 41.7628 23.8474 41.7628 23.8978C41.7628 23.948 41.7324 24.0008 41.6953 24.015C41.6583 24.0294 41.6281 24.0794 41.6281 24.1261C41.6281 24.1729 41.6079 24.2114 41.5831 24.2114C41.5583 24.2114 41.5383 24.2329 41.5383 24.2596C41.5383 24.2861 41.5079 24.3382 41.4709 24.3753C41.4338 24.4124 41.4036 24.4817 41.4036 24.5296C41.4036 24.5774 41.3834 24.6164 41.3586 24.6164C41.3339 24.6164 41.3137 24.6423 41.3137 24.6739C41.3137 24.7056 41.274 24.7601 41.2256 24.7951C41.1771 24.8301 41.1238 24.9207 41.1073 24.9964C41.0907 25.0719 41.0393 25.1666 40.9934 25.2066C40.9473 25.2467 40.9095 25.3024 40.9095 25.3304C40.9095 25.3584 40.8893 25.3813 40.8646 25.3813C40.84 25.3813 40.8198 25.4205 40.8198 25.4682C40.8198 25.516 40.7894 25.5855 40.7523 25.6226C40.7153 25.6597 40.6851 25.7118 40.6851 25.7383C40.6851 25.7648 40.6648 25.7864 40.6401 25.7864C40.6153 25.7864 40.5951 25.8269 40.5951 25.8765C40.5951 25.9259 40.5781 25.9664 40.5573 25.9664C40.5366 25.9664 40.481 26.0424 40.434 26.1351C40.3867 26.2281 40.3128 26.3368 40.2696 26.3767C40.2265 26.4167 40.191 26.4826 40.191 26.5229C40.191 26.5634 40.1708 26.5964 40.1462 26.5964C40.1214 26.5964 40.1012 26.6254 40.1012 26.6608C40.1012 26.6962 40.0759 26.7518 40.0451 26.7846C40.0143 26.8172 39.9586 26.9048 39.9215 26.9791C39.8845 27.0533 39.829 27.1408 39.7982 27.1735C39.7672 27.2061 39.742 27.2619 39.742 27.2972C39.742 27.3326 39.7218 27.3615 39.6971 27.3615C39.6723 27.3615 39.6521 27.3975 39.6521 27.4416C39.6521 27.4856 39.6119 27.5507 39.5626 27.5863C39.5132 27.6219 39.4607 27.717 39.4456 27.7972C39.4292 27.8853 39.3844 27.9542 39.3332 27.9705C39.2863 27.9854 39.248 28.0368 39.248 28.0847C39.248 28.1324 39.23 28.1716 39.2079 28.1716C39.186 28.1716 39.1552 28.2221 39.1397 28.2841C39.1242 28.346 39.0917 28.3965 39.0675 28.3965C39.0433 28.3965 39.0235 28.437 39.0235 28.4867C39.0235 28.5361 39.0033 28.5766 38.9785 28.5766C38.954 28.5766 38.9338 28.5984 38.9338 28.6249C38.9338 28.6514 38.9033 28.7035 38.8663 28.7406C38.8293 28.7777 38.799 28.8472 38.799 28.8949C38.799 28.9426 38.7788 28.9816 38.7541 28.9816C38.7293 28.9816 38.7091 29.0045 38.7091 29.0325C38.7091 29.0606 38.6721 29.1162 38.6269 29.1564C38.5816 29.1963 38.5069 29.3152 38.461 29.4203C38.4151 29.5256 38.3613 29.6116 38.3412 29.6116C38.3214 29.6116 38.305 29.6421 38.305 29.6792C38.305 29.7163 38.2847 29.7466 38.2602 29.7466C38.2354 29.7466 38.2152 29.785 38.2152 29.8318C38.2152 29.8787 38.1848 29.9287 38.1478 29.9429C38.1107 29.9571 38.0805 30.0026 38.0805 30.0437C38.0805 30.0849 38.0435 30.1514 37.9981 30.1914C37.9528 30.2315 37.8783 30.3502 37.8324 30.4555C37.7865 30.5606 37.7325 30.6467 37.7126 30.6467C37.6926 30.6467 37.6763 30.677 37.6763 30.7142C37.6763 30.7513 37.6561 30.7817 37.6314 30.7817C37.6066 30.7817 37.5864 30.82 37.5864 30.867C37.5864 30.9137 37.5562 30.9637 37.5191 30.9779C37.4821 30.9923 37.4517 31.0451 37.4517 31.0953C37.4517 31.1457 37.4317 31.1868 37.4069 31.1868C37.3822 31.1868 37.3619 31.2078 37.3619 31.2335C37.3619 31.2595 37.3232 31.3221 37.276 31.3731C37.2285 31.424 37.1768 31.5181 37.1607 31.5823C37.1447 31.6465 37.0965 31.7306 37.0536 31.7692C37.0107 31.8076 36.9383 31.9203 36.8928 32.0193C36.8471 32.1184 36.7976 32.2094 36.7826 32.2217C36.7677 32.2342 36.7254 32.3051 36.6884 32.3793C36.6513 32.4535 36.5848 32.5544 36.5406 32.6035C36.4966 32.6525 36.4478 32.7436 36.4323 32.8059C36.417 32.8684 36.3673 32.9458 36.3218 32.9782C36.2765 33.0106 36.2392 33.0662 36.2392 33.1018C36.2392 33.1376 36.2213 33.1668 36.1992 33.1668C36.1773 33.1668 36.1465 33.2175 36.131 33.2794C36.1155 33.3412 36.083 33.3919 36.0588 33.3919C36.0346 33.3919 36.0148 33.4324 36.0148 33.4819C36.0148 33.5315 35.9946 33.5718 35.9698 33.5718C35.9452 33.5718 35.925 33.6023 35.925 33.6394C35.925 33.6765 35.9052 33.7068 35.881 33.7068C35.8566 33.7068 35.8241 33.7576 35.8086 33.8195C35.7932 33.8812 35.7625 33.9319 35.7404 33.9319C35.7185 33.9319 35.7004 33.9679 35.7004 34.012C35.7004 34.056 35.6599 34.1213 35.6106 34.1569C35.5523 34.1991 35.5209 34.2733 35.5209 34.3693V34.517H38.3981C41.4297 34.517 41.4036 34.5185 41.4036 34.3231C41.4036 34.2873 41.4338 34.2328 41.4709 34.202C41.5079 34.1711 41.5383 34.1181 41.5383 34.084C41.5383 34.0497 41.5583 34.0219 41.5831 34.0219C41.6079 34.0219 41.6281 34.0003 41.6281 33.9736C41.6281 33.9471 41.6583 33.895 41.6953 33.8579C41.7324 33.8208 41.7628 33.7515 41.7628 33.7036C41.7628 33.6559 41.783 33.6169 41.8078 33.6169C41.8323 33.6169 41.8525 33.5866 41.8525 33.5495C41.8525 33.5123 41.8727 33.4819 41.8975 33.4819C41.9223 33.4819 41.9425 33.4413 41.9425 33.3919C41.9425 33.3423 41.9621 33.3018 41.9865 33.3018C42.0107 33.3018 42.0432 33.2512 42.0587 33.1893C42.0742 33.1274 42.1048 33.0768 42.1269 33.0768C42.149 33.0768 42.1669 33.0558 42.1669 33.0299C42.1669 33.0041 42.2062 32.9407 42.2544 32.8888C42.3026 32.8371 42.354 32.7406 42.3683 32.6745C42.3829 32.6084 42.4345 32.5256 42.4828 32.4906C42.5314 32.4556 42.5711 32.3908 42.5711 32.3469C42.5711 32.3028 42.5913 32.2668 42.616 32.2668C42.6406 32.2668 42.6608 32.2365 42.6608 32.1992C42.6608 32.1621 42.6807 32.1318 42.7049 32.1318C42.7292 32.1318 42.7617 32.0812 42.7772 32.0193C42.7927 31.9574 42.8233 31.9069 42.8454 31.9069C42.8673 31.9069 42.8855 31.8663 42.8855 31.8167C42.8855 31.7673 42.9057 31.7268 42.9303 31.7268C42.955 31.7268 42.9752 31.699 42.9752 31.6649C42.9752 31.6306 43.0055 31.5776 43.0425 31.5467C43.0797 31.516 43.1099 31.4528 43.1099 31.4062C43.1099 31.3598 43.1302 31.3218 43.1549 31.3218C43.1795 31.3218 43.1997 31.3006 43.1997 31.2748C43.1997 31.2491 43.2384 31.1864 43.2858 31.1355C43.3331 31.0845 43.385 30.9904 43.4011 30.9262C43.4172 30.862 43.4659 30.778 43.5096 30.7393C43.5532 30.7007 43.6265 30.5831 43.6724 30.478C43.7183 30.3728 43.7722 30.2866 43.7922 30.2866C43.8121 30.2866 43.8285 30.2563 43.8285 30.2192C43.8285 30.1821 43.8487 30.1516 43.8733 30.1516C43.898 30.1516 43.9182 30.1113 43.9182 30.0617C43.9182 30.0122 43.9362 29.9717 43.9583 29.9717C43.9804 29.9717 44.011 29.921 44.0265 29.8592C44.042 29.7973 44.0745 29.7466 44.0987 29.7466C44.1231 29.7466 44.1427 29.7163 44.1427 29.6792C44.1427 29.6421 44.1629 29.6116 44.1877 29.6116C44.2124 29.6116 44.2326 29.5711 44.2326 29.5216C44.2326 29.4722 44.2525 29.4317 44.2767 29.4317C44.3008 29.4317 44.3333 29.3809 44.3488 29.3192C44.3643 29.2573 44.3951 29.2066 44.417 29.2066C44.4392 29.2066 44.4571 29.1736 44.4571 29.1331C44.4571 29.0928 44.4936 29.0269 44.538 28.9869C44.5826 28.9468 44.6538 28.8432 44.6965 28.7567C44.7866 28.5734 44.8726 28.4285 44.9102 28.3965C44.9247 28.3842 44.974 28.288 45.0198 28.1827C45.0657 28.0777 45.1193 27.9915 45.1394 27.9915C45.1592 27.9915 45.1756 27.9612 45.1756 27.9241C45.1756 27.887 45.1959 27.8565 45.2206 27.8565C45.2452 27.8565 45.2654 27.816 45.2654 27.7666C45.2654 27.717 45.2852 27.6766 45.3094 27.6766C45.3338 27.6766 45.3663 27.6259 45.3818 27.564C45.3973 27.5022 45.4279 27.4515 45.45 27.4515C45.4719 27.4515 45.49 27.4305 45.49 27.4047C45.49 27.3788 45.5293 27.3153 45.5775 27.2635C45.6257 27.2118 45.6769 27.1152 45.6915 27.0491C45.706 26.983 45.7574 26.9003 45.806 26.8653C45.8545 26.8302 45.8942 26.7657 45.8942 26.7215C45.8942 26.6774 45.9121 26.6415 45.9341 26.6415C45.9562 26.6415 45.987 26.5909 46.0025 26.529C46.018 26.4671 46.0505 26.4165 46.0746 26.4165C46.0988 26.4165 46.1187 26.386 46.1187 26.3489C46.1187 26.3118 46.1389 26.2815 46.1636 26.2815C46.1882 26.2815 46.2084 26.241 46.2084 26.1914C46.2084 26.142 46.2286 26.1014 46.2534 26.1014C46.2781 26.1014 46.2983 26.0736 46.2983 26.0395C46.2983 26.0054 46.3286 25.9522 46.3656 25.9214C46.4026 25.8907 46.4331 25.8274 46.4331 25.7809C46.4331 25.7345 46.4533 25.6964 46.4778 25.6964C46.5026 25.6964 46.5228 25.6661 46.5228 25.629C46.5228 25.5917 46.54 25.5614 46.561 25.5614C46.5818 25.5614 46.6367 25.4753 46.683 25.3702C46.7293 25.2649 46.7998 25.1484 46.8395 25.1113C46.8793 25.0742 46.9496 24.9578 46.9955 24.8527C47.0415 24.7474 47.0953 24.6614 47.1151 24.6614C47.1352 24.6614 47.1514 24.6309 47.1514 24.5938C47.1514 24.5567 47.1716 24.5264 47.1964 24.5264C47.2211 24.5264 47.2414 24.4859 47.2414 24.4363C47.2414 24.3869 47.2616 24.3464 47.2861 24.3464C47.3109 24.3464 47.3311 24.3174 47.3311 24.282C47.3311 24.2468 47.3564 24.1911 47.3872 24.1583C47.4182 24.1256 47.4738 24.0381 47.5108 23.9639C47.5478 23.8896 47.6034 23.802 47.6342 23.7694C47.6652 23.7367 47.6903 23.681 47.6903 23.6456C47.6903 23.6102 47.7105 23.5814 47.7353 23.5814C47.76 23.5814 47.7802 23.5452 47.7802 23.5013C47.7802 23.4572 47.8199 23.3924 47.8683 23.3574C47.9168 23.3224 47.9701 23.2319 47.9865 23.1563C48.0032 23.0806 48.0546 22.9923 48.1005 22.9599C48.1466 22.9276 48.1844 22.8719 48.1844 22.8361C48.1844 22.8005 48.2004 22.7712 48.2201 22.7712C48.2397 22.7712 48.2932 22.6801 48.3391 22.5688C48.3848 22.4574 48.4396 22.3662 48.4606 22.3662C48.4816 22.3662 48.4986 22.3359 48.4986 22.2987C48.4986 22.2616 48.5188 22.2311 48.5435 22.2311C48.5683 22.2311 48.5885 22.1906 48.5885 22.1412C48.5885 22.0918 48.6084 22.0513 48.6325 22.0513C48.6567 22.0513 48.6892 22.0005 48.7047 21.9388C48.7202 21.8769 48.751 21.8261 48.7729 21.8261C48.795 21.8261 48.813 21.8051 48.813 21.7794C48.813 21.7536 48.8525 21.69 48.9006 21.6383C48.9488 21.5864 49 21.4898 49.0146 21.4238C49.0289 21.3577 49.0805 21.2749 49.1291 21.2399C49.1774 21.2049 49.2171 21.1403 49.2171 21.0962C49.2171 21.0523 49.2373 21.0161 49.2621 21.0161C49.2868 21.0161 49.3071 20.9871 49.3071 20.9519C49.3071 20.9165 49.3335 20.8608 49.3658 20.8281C49.3983 20.7953 49.4537 20.7027 49.489 20.6224C49.5245 20.542 49.5665 20.4761 49.5825 20.4761C49.5984 20.4761 49.6243 20.4255 49.6398 20.3636C49.6553 20.3017 49.6878 20.2511 49.712 20.2511C49.7361 20.2511 49.756 20.2106 49.756 20.1612C49.756 20.1116 49.7762 20.0711 49.801 20.0711C49.8257 20.0711 49.8459 20.0495 49.8459 20.023C49.8459 19.9963 49.8762 19.9442 49.9132 19.9071C49.9502 19.87 49.9806 19.8007 49.9806 19.753C49.9806 19.705 50.0009 19.666 50.0254 19.666C50.0502 19.666 50.0704 19.6431 50.0704 19.6151C50.0704 19.5871 50.1074 19.5314 50.1528 19.4913C50.1979 19.4513 50.2726 19.3324 50.3185 19.2273C50.3644 19.122 50.4184 19.0361 50.4383 19.0361C50.4583 19.0361 50.4745 19.0056 50.4745 18.9685C50.4745 18.9314 50.4948 18.9011 50.5195 18.9011C50.5441 18.9011 50.5643 18.8606 50.5643 18.8109C50.5643 18.7615 50.5845 18.721 50.6093 18.721C50.634 18.721 50.6542 18.692 50.6542 18.6568C50.6542 18.6214 50.6794 18.5657 50.7103 18.533C50.7411 18.5002 50.7967 18.4127 50.8337 18.3385C50.8707 18.2643 50.9265 18.1768 50.9573 18.1441C50.9881 18.1113 51.0134 18.0643 51.0134 18.0395C51.0134 17.79 51.2131 17.868 51.3465 18.1698C51.3932 18.2749 51.4483 18.361 51.4693 18.361C51.4903 18.361 51.5073 18.3913 51.5073 18.4285C51.5073 18.4656 51.5254 18.4961 51.5474 18.4961C51.5695 18.4961 51.6001 18.5466 51.6156 18.6085C51.6311 18.6704 51.6635 18.721 51.6879 18.721C51.7121 18.721 51.7319 18.7615 51.7319 18.8109C51.7319 18.8606 51.7522 18.9011 51.7767 18.9011C51.8015 18.9011 51.8217 18.924 51.8217 18.952C51.8217 18.98 51.8595 19.0357 51.9056 19.0758C51.9515 19.1158 52.0029 19.2105 52.0195 19.286C52.036 19.3618 52.0892 19.4523 52.1378 19.4873C52.1862 19.5223 52.2258 19.5769 52.2258 19.6085C52.2258 19.6401 52.2461 19.666 52.2708 19.666C52.2956 19.666 52.3158 19.705 52.3158 19.753C52.3158 19.8007 52.346 19.87 52.383 19.9071C52.4201 19.9442 52.4505 19.9963 52.4505 20.023C52.4505 20.0495 52.4705 20.0711 52.4953 20.0711C52.52 20.0711 52.5402 20.1116 52.5402 20.1612C52.5402 20.2106 52.5601 20.2511 52.5843 20.2511C52.6085 20.2511 52.6409 20.3017 52.6564 20.3636C52.6719 20.4255 52.6978 20.4761 52.7137 20.4761C52.7298 20.4761 52.7717 20.542 52.8072 20.6224C52.8426 20.7027 52.8979 20.7953 52.9304 20.8281C52.9627 20.8608 52.9894 20.9165 52.9894 20.9519C52.9894 20.9871 53.0096 21.0161 53.0341 21.0161C53.0589 21.0161 53.0791 21.0492 53.0791 21.0896C53.0791 21.1301 53.1146 21.1958 53.1579 21.2359C53.2012 21.2759 53.2718 21.3795 53.3147 21.4662C53.4047 21.6476 53.4935 21.7937 53.5333 21.8261C53.5484 21.8386 53.5751 21.8943 53.5925 21.95C53.6098 22.0056 53.6429 22.0513 53.666 22.0513C53.689 22.0513 53.7077 22.0918 53.7077 22.1412C53.7077 22.1906 53.7279 22.2311 53.7527 22.2311C53.7774 22.2311 53.7977 22.2542 53.7977 22.2823C53.7977 22.3103 53.8353 22.366 53.8814 22.4059C53.9275 22.4461 53.9787 22.5407 53.9953 22.6163C54.0119 22.6918 54.065 22.7823 54.1136 22.8174C54.1621 22.8524 54.2018 22.9071 54.2018 22.9387C54.2018 22.9704 54.222 22.9963 54.2466 22.9963C54.2713 22.9963 54.2915 23.0353 54.2915 23.083C54.2915 23.1307 54.3218 23.2002 54.359 23.2373C54.396 23.2745 54.4263 23.3265 54.4263 23.353C54.4263 23.3795 54.4465 23.4013 54.4712 23.4013C54.4958 23.4013 54.516 23.4418 54.516 23.4913C54.516 23.5409 54.5358 23.5814 54.5602 23.5814C54.5844 23.5814 54.6169 23.6319 54.6324 23.6939C54.6479 23.7556 54.6785 23.8063 54.7006 23.8063C54.7225 23.8063 54.7407 23.8355 54.7407 23.8713C54.7407 23.9071 54.7783 23.9627 54.8244 23.9951C54.8705 24.0273 54.9226 24.1197 54.9402 24.2C54.9579 24.2805 54.9908 24.3464 55.0137 24.3464C55.0364 24.3464 55.0549 24.3869 55.0549 24.4363C55.0549 24.5253 55.025 24.5264 52.6974 24.5264C50.8126 24.5264 50.3398 24.538 50.3398 24.584C50.3398 24.6156 50.2994 24.6707 50.2501 24.7063C50.2006 24.7421 50.1601 24.8072 50.1601 24.8513C50.1601 24.8953 50.1422 24.9314 50.1201 24.9314C50.0982 24.9314 50.0674 24.982 50.0519 25.0439C50.0364 25.1058 50.0039 25.1564 49.9797 25.1564C49.9555 25.1564 49.9357 25.1969 49.9357 25.2463C49.9357 25.2959 49.9155 25.3365 49.8907 25.3365C49.8661 25.3365 49.8459 25.3668 49.8459 25.4039C49.8459 25.441 49.8306 25.4715 49.8121 25.4717C49.7669 25.472 49.6213 25.7322 49.6213 25.8125C49.6213 25.8477 49.6011 25.8765 49.5765 25.8765C49.5517 25.8765 49.5315 25.8975 49.5315 25.9233C49.5315 25.9492 49.4928 26.0119 49.4454 26.0628C49.3981 26.1137 49.3462 26.2078 49.3301 26.272C49.3141 26.3362 49.2659 26.4203 49.2232 26.4587C49.1803 26.4974 49.1079 26.61 49.0624 26.709C49.0167 26.8081 48.9672 26.8992 48.9522 26.9115C48.9373 26.924 48.8948 26.9948 48.8578 27.069C48.8209 27.1432 48.7654 27.2307 48.7344 27.2635C48.7036 27.2962 48.6783 27.3519 48.6783 27.3873C48.6783 27.4225 48.658 27.4515 48.6335 27.4515C48.6087 27.4515 48.5885 27.492 48.5885 27.5416C48.5885 27.591 48.5683 27.6316 48.5435 27.6316C48.5188 27.6316 48.4986 27.6619 48.4986 27.699C48.4986 27.7361 48.4789 27.7666 48.4546 27.7666C48.4304 27.7666 48.3979 27.8171 48.3824 27.879C48.3669 27.941 48.3363 27.9915 48.3142 27.9915C48.2921 27.9915 48.2741 28.0246 48.2741 28.065C48.2741 28.1055 48.2382 28.1712 48.1942 28.2113C48.1504 28.2513 48.0765 28.3702 48.0302 28.4753C47.9841 28.5806 47.9291 28.6665 47.9081 28.6665C47.8872 28.6665 47.87 28.697 47.87 28.7341C47.87 28.7938 48.4417 28.8015 52.7454 28.8015C57.8437 28.8015 57.7494 28.7983 57.7494 28.9784C57.7494 29.0049 57.7696 29.0267 57.7942 29.0267C57.8189 29.0267 57.8391 29.0672 57.8391 29.1166C57.8391 29.166 57.859 29.2066 57.8832 29.2066C57.9073 29.2066 57.9398 29.2573 57.9553 29.3192C57.9708 29.3809 58.0016 29.4317 58.0235 29.4317C58.0456 29.4317 58.0636 29.4546 58.0636 29.4826C58.0636 29.5106 58.1014 29.5663 58.1475 29.6065C58.1936 29.6464 58.2448 29.7411 58.2614 29.8166C58.2779 29.8924 58.3311 29.9829 58.3797 30.0179C58.4281 30.0529 58.4677 30.1175 58.4677 30.1616C58.4677 30.2058 58.4859 30.2417 58.5078 30.2417C58.5299 30.2417 58.5605 30.2923 58.576 30.3542C58.5915 30.4161 58.624 30.4667 58.6484 30.4667C58.6726 30.4667 58.6924 30.4972 58.6924 30.5343C58.6924 30.5714 58.7126 30.6017 58.7372 30.6017C58.7619 30.6017 58.7821 30.6422 58.7821 30.6918C58.7821 30.7412 58.802 30.7817 58.8262 30.7817C58.8503 30.7817 58.883 30.8323 58.8985 30.8942C58.914 30.9561 58.9446 31.0067 58.9667 31.0067C58.9887 31.0067 59.0066 31.0332 59.0066 31.0658C59.0066 31.0981 59.0421 31.1646 59.0852 31.2133C59.1285 31.2619 59.2023 31.3771 59.2496 31.4693C59.2966 31.5613 59.3522 31.6368 59.373 31.6368C59.3937 31.6368 59.4109 31.6772 59.4109 31.7268C59.4109 31.7762 59.431 31.8167 59.4557 31.8167C59.4805 31.8167 59.5007 31.8385 59.5007 31.865C59.5007 31.8915 59.5309 31.9436 59.5679 31.9807C59.605 32.0178 59.6354 32.0873 59.6354 32.135C59.6354 32.1827 59.6556 32.2217 59.6804 32.2217C59.7049 32.2217 59.7251 32.2477 59.7251 32.2793C59.7251 32.3111 59.7656 32.366 59.8147 32.4016C59.864 32.4372 59.9169 32.5328 59.932 32.6141C59.9473 32.6953 59.9778 32.7618 59.9997 32.7618C60.0216 32.7618 60.0395 32.7849 60.0395 32.8129C60.0395 32.8409 60.0772 32.8966 60.1233 32.9365C60.1694 32.9767 60.2207 33.0714 60.2372 33.1469C60.2538 33.2225 60.3071 33.313 60.3555 33.348C60.404 33.383 60.4437 33.4478 60.4437 33.4919C60.4437 33.5358 60.4616 33.5718 60.4838 33.5718C60.5057 33.5718 60.5365 33.6225 60.552 33.6845C60.5675 33.7462 60.6 33.7969 60.6241 33.7969C60.6483 33.7969 60.6682 33.8272 60.6682 33.8643C60.6682 33.9015 60.6884 33.9319 60.7131 33.9319C60.7379 33.9319 60.7581 33.9725 60.7581 34.0219C60.7581 34.0715 60.7779 34.1118 60.8021 34.1118C60.8263 34.1118 60.8588 34.1626 60.8743 34.2245C60.8898 34.2862 60.9181 34.337 60.9372 34.337C60.9565 34.337 60.9826 34.3775 60.9956 34.4269C61.0328 34.5695 67.0897 34.5689 67.0897 34.4263C67.0897 34.3203 67.0091 34.1648 66.9019 34.0647C66.8604 34.0259 66.8131 33.9416 66.7971 33.8774C66.781 33.8132 66.7292 33.7191 66.6818 33.6682C66.6346 33.6172 66.5958 33.5546 66.5958 33.5288C66.5958 33.5031 66.5756 33.4819 66.5509 33.4819C66.5261 33.4819 66.5059 33.4408 66.5059 33.3904C66.5059 33.3402 66.4757 33.2874 66.4386 33.2732C66.4016 33.2588 66.3712 33.2088 66.3712 33.162C66.3712 33.1153 66.3512 33.0768 66.3264 33.0768C66.3017 33.0768 66.2814 33.0551 66.2814 33.0286C66.2814 33.002 66.2512 32.95 66.2142 32.9129C66.1772 32.8758 66.1467 32.8063 66.1467 32.7585C66.1467 32.7108 66.1265 32.6718 66.1018 32.6718C66.0772 32.6718 66.057 32.6489 66.057 32.6209C66.057 32.5929 66.0198 32.5372 65.9742 32.4971C65.9289 32.4571 65.8792 32.3732 65.8637 32.3109C65.8484 32.2486 65.7947 32.1532 65.7443 32.099C65.694 32.0449 65.6528 31.9794 65.6528 31.9536C65.6528 31.9279 65.6326 31.9069 65.6079 31.9069C65.5831 31.9069 65.5629 31.8688 65.5629 31.8222C65.5629 31.7758 65.5327 31.7126 65.4956 31.6817C65.4586 31.651 65.4282 31.5978 65.4282 31.5638C65.4282 31.5297 65.408 31.5018 65.3834 31.5018C65.3587 31.5018 65.3384 31.4725 65.3384 31.4369C65.3384 31.4011 65.3008 31.3454 65.2547 31.3131C65.2086 31.2807 65.1572 31.1924 65.1408 31.1167C65.1242 31.0412 65.0709 30.9506 65.0225 30.9156C64.974 30.8806 64.9343 30.8158 64.9343 30.7717C64.9343 30.7278 64.9141 30.6918 64.8893 30.6918C64.8648 30.6918 64.8445 30.6628 64.8445 30.6274C64.8445 30.592 64.8192 30.5364 64.7884 30.5036C64.7574 30.471 64.7019 30.3834 64.6649 30.3091C64.6278 30.2349 64.5723 30.1474 64.5413 30.1147C64.5105 30.0819 64.4852 30.0262 64.4852 29.991C64.4852 29.9556 64.465 29.9266 64.4404 29.9266C64.4156 29.9266 64.3954 29.8907 64.3954 29.8466C64.3954 29.8026 64.3557 29.7379 64.3072 29.7028C64.2588 29.6678 64.2065 29.5815 64.191 29.5108C64.1755 29.4402 64.1243 29.3582 64.0771 29.3287C64.0298 29.2991 63.9913 29.2393 63.9913 29.1958C63.9913 29.1522 63.9733 29.1166 63.9512 29.1166C63.9291 29.1166 63.8985 29.0661 63.883 29.0041C63.8675 28.9422 63.835 28.8917 63.8108 28.8917C63.7865 28.8917 63.7668 28.8511 63.7668 28.8015C63.7668 28.7521 63.7466 28.7116 63.7218 28.7116C63.6971 28.7116 63.6769 28.6813 63.6769 28.644C63.6769 28.6069 63.6599 28.5766 63.6389 28.5766C63.6179 28.5766 63.5629 28.4904 63.5167 28.3854C63.4704 28.2801 63.3967 28.1614 63.3527 28.1212C63.3088 28.0813 63.2727 28.0256 63.2727 27.9976C63.2727 27.9695 63.2525 27.9466 63.228 27.9466C63.2032 27.9466 63.183 27.9074 63.183 27.8597C63.183 27.812 63.1526 27.7425 63.1155 27.7054C63.0785 27.6683 63.0483 27.6162 63.0483 27.5897C63.0483 27.5632 63.0281 27.5416 63.0033 27.5416C62.9785 27.5416 62.9583 27.5032 62.9583 27.4564C62.9583 27.4095 62.9281 27.3595 62.8911 27.3453C62.854 27.3311 62.8236 27.2782 62.8236 27.2279C62.8236 27.1777 62.8036 27.1366 62.7788 27.1366C62.7541 27.1366 62.7339 27.1107 62.7339 27.0788C62.7339 27.0472 62.6934 26.9921 62.6441 26.9565C62.5946 26.9207 62.5542 26.8581 62.5542 26.817C62.5542 26.7761 62.524 26.7174 62.4869 26.6865C62.4499 26.6557 62.4195 26.6026 62.4195 26.5686C62.4195 26.5343 62.3993 26.5064 62.3747 26.5064C62.3499 26.5064 62.3297 26.4682 62.3297 26.4212C62.3297 26.3745 62.2995 26.3245 62.2625 26.3101C62.2254 26.2959 62.195 26.2431 62.195 26.1929C62.195 26.1425 62.1748 26.1014 62.15 26.1014C62.1255 26.1014 62.1053 26.0785 62.1053 26.0505C62.1053 26.0225 62.068 25.9668 62.0225 25.9267C61.9772 25.8867 61.9275 25.8028 61.912 25.7405C61.8967 25.6782 61.843 25.5828 61.7926 25.5287C61.7423 25.4745 61.7011 25.409 61.7011 25.3832C61.7011 25.3575 61.6809 25.3365 61.6561 25.3365C61.6314 25.3365 61.6112 25.2984 61.6112 25.2518C61.6112 25.2054 61.5809 25.1422 61.5439 25.1113C61.5069 25.0807 61.4765 25.0274 61.4765 24.9934C61.4765 24.9593 61.4562 24.9314 61.4317 24.9314C61.4069 24.9314 61.3867 24.8953 61.3867 24.8513C61.3867 24.8072 61.347 24.7427 61.2985 24.7076C61.2501 24.6726 61.1978 24.5861 61.1823 24.5154C61.1668 24.4448 61.1156 24.3628 61.0683 24.3333C61.0211 24.3038 60.9826 24.2441 60.9826 24.2006C60.9826 24.157 60.9646 24.1214 60.9425 24.1214C60.9206 24.1214 60.8898 24.0707 60.8743 24.0087C60.8588 23.947 60.8263 23.8963 60.8021 23.8963C60.7779 23.8963 60.7581 23.8558 60.7581 23.8063C60.7581 23.7567 60.7379 23.7164 60.7131 23.7164C60.6884 23.7164 60.6682 23.6859 60.6682 23.6488C60.6682 23.6117 60.6483 23.5814 60.6241 23.5814C60.6 23.5814 60.5675 23.5306 60.552 23.4687C60.5365 23.407 60.5057 23.3563 60.4838 23.3563C60.4616 23.3563 60.4437 23.3203 60.4437 23.2762C60.4437 23.2322 60.404 23.1675 60.3555 23.1324C60.3071 23.0974 60.2555 23.0147 60.241 22.9486C60.2266 22.8825 60.1752 22.7859 60.127 22.7342C60.0789 22.6824 60.0395 22.6189 60.0395 22.5932C60.0395 22.5674 60.0216 22.5462 59.9995 22.5462C59.9774 22.5462 59.9468 22.4957 59.9313 22.4337C59.9158 22.3718 59.8833 22.3213 59.8591 22.3213C59.8347 22.3213 59.8151 22.2808 59.8151 22.2311C59.8151 22.1817 59.7949 22.1412 59.7701 22.1412C59.7454 22.1412 59.7251 22.1109 59.7251 22.0738C59.7251 22.0365 59.7089 22.0062 59.6889 22.0062C59.669 22.0062 59.6152 21.92 59.5691 21.815C59.5232 21.7097 59.4519 21.5932 59.4109 21.5561C59.3697 21.519 59.2985 21.4026 59.2526 21.2975C59.2065 21.1922 59.1527 21.1062 59.1328 21.1062C59.1128 21.1062 59.0965 21.0757 59.0965 21.0386C59.0965 21.0015 59.0763 20.9712 59.0516 20.9712C59.0268 20.9712 59.0066 20.9307 59.0066 20.8811C59.0066 20.8317 58.987 20.7911 58.9626 20.7911C58.9384 20.7911 58.9059 20.7406 58.8904 20.6787C58.8749 20.6168 58.8443 20.5662 58.8222 20.5662C58.8001 20.5662 58.7821 20.5369 58.7821 20.5013C58.7821 20.4655 58.7445 20.4098 58.6984 20.3774C58.6523 20.345 58.6011 20.2568 58.5845 20.1811C58.5679 20.1055 58.5146 20.015 58.4662 19.98C58.4177 19.9449 58.378 19.8802 58.378 19.8361C58.378 19.7921 58.3578 19.756 58.333 19.756C58.3085 19.756 58.2882 19.7272 58.2882 19.6918C58.2882 19.6564 58.2616 19.6007 58.2293 19.568C58.197 19.5354 58.1414 19.4428 58.1061 19.3623C58.0708 19.2819 58.0307 19.216 58.0173 19.216C58.0039 19.216 57.9347 19.1046 57.8637 18.9685C57.7925 18.8323 57.7175 18.721 57.6969 18.721C57.6765 18.721 57.6594 18.6907 57.6594 18.6536C57.6594 18.6163 57.6392 18.586 57.6147 18.586C57.5899 18.586 57.5697 18.5449 57.5697 18.4945C57.5697 18.4444 57.5395 18.3915 57.5022 18.3773C57.4652 18.3629 57.435 18.313 57.435 18.2662C57.435 18.2192 57.4148 18.181 57.39 18.181C57.3655 18.181 57.3452 18.1507 57.3452 18.1136C57.3452 18.0763 57.3288 18.046 57.309 18.046C57.2889 18.046 57.2351 17.9598 57.1892 17.8547C57.1433 17.7495 57.0699 17.6319 57.0263 17.5932C56.9827 17.5546 56.9339 17.4705 56.9178 17.4065C56.9018 17.3424 56.8498 17.2482 56.8026 17.1973C56.7552 17.1464 56.7164 17.0835 56.7164 17.0578C56.7164 17.032 56.6962 17.011 56.6717 17.011C56.6469 17.011 56.6267 16.9729 56.6267 16.9264C56.6267 16.88 56.5963 16.8167 56.5592 16.7859C56.5222 16.755 56.492 16.7065 56.492 16.6777C56.492 16.6491 56.4523 16.5971 56.4037 16.562C56.3554 16.527 56.3038 16.4443 56.2892 16.3782C56.2749 16.3121 56.2235 16.2157 56.1753 16.1638C56.1271 16.112 56.0878 16.0485 56.0878 16.0228C56.0878 15.997 56.0676 15.9758 56.0429 15.9758C56.0181 15.9758 55.9981 15.9378 55.9981 15.8914C55.9981 15.8448 55.9677 15.7817 55.9306 15.7509C55.8936 15.72 55.8634 15.667 55.8634 15.6329C55.8634 15.5986 55.8431 15.5708 55.8184 15.5708C55.7936 15.5708 55.7734 15.5416 55.7734 15.5059C55.7734 15.4701 55.7358 15.4144 55.6897 15.382C55.6436 15.3498 55.5924 15.2614 55.5758 15.1859C55.5592 15.1101 55.5059 15.0196 55.4575 14.9846C55.409 14.9496 55.3693 14.8848 55.3693 14.8409C55.3693 14.7968 55.3513 14.7608 55.3292 14.7608C55.3073 14.7608 55.2765 14.7102 55.261 14.6483C55.2455 14.5864 55.213 14.5358 55.1888 14.5358C55.1646 14.5358 55.1448 14.5053 55.1448 14.4682C55.1448 14.4311 55.1246 14.4008 55.0998 14.4008C55.0751 14.4008 55.0549 14.3603 55.0549 14.3107C55.0549 14.2613 55.0352 14.2208 55.0109 14.2208C54.9867 14.2208 54.9542 14.1702 54.9387 14.1083C54.9232 14.0464 54.8926 13.9958 54.8705 13.9958C54.8484 13.9958 54.8304 13.9691 54.8304 13.9367C54.8304 13.9044 54.7951 13.8379 54.7518 13.7892C54.7085 13.7406 54.6347 13.6254 54.5876 13.5332C54.5406 13.441 54.4848 13.3657 54.4641 13.3657C54.4433 13.3657 54.4263 13.3251 54.4263 13.2757C54.4263 13.2261 54.4083 13.1858 54.3862 13.1858C54.3643 13.1858 54.3335 13.135 54.318 13.0731C54.3025 13.0114 54.27 12.9606 54.2458 12.9606C54.2216 12.9606 54.2018 12.9201 54.2018 12.8707C54.2018 12.8211 54.1816 12.7808 54.1568 12.7808C54.1321 12.7808 54.1119 12.7503 54.1119 12.7132C54.1119 12.676 54.092 12.6458 54.0678 12.6458C54.0437 12.6458 54.0112 12.595 53.9957 12.5331C53.9802 12.4714 53.9494 12.4206 53.9275 12.4206C53.9053 12.4206 53.8874 12.3846 53.8874 12.3405C53.8874 12.2966 53.847 12.2313 53.7977 12.1957C53.7482 12.1599 53.7077 12.1048 53.7077 12.0732C53.7077 12.0415 53.6875 12.0156 53.6629 12.0156C53.6382 12.0156 53.618 11.9775 53.618 11.9312C53.618 11.8846 53.5877 11.8213 53.5505 11.7907C53.5135 11.7598 53.4833 11.7068 53.4833 11.6725C53.4833 11.6384 53.463 11.6106 53.4383 11.6106C53.4137 11.6106 53.3935 11.5827 53.3935 11.5487C53.3935 11.5146 53.3631 11.4614 53.3261 11.4305C53.289 11.3998 53.2588 11.3366 53.2588 11.29C53.2588 11.2436 53.2386 11.2056 53.2138 11.2056C53.1891 11.2056 53.1689 11.1796 53.1689 11.148C53.1689 11.1164 53.1284 11.0613 53.0791 11.0255C53.0296 10.9899 52.9894 10.9246 52.9894 10.8806C52.9894 10.7708 49.6838 10.7583 49.5876 10.868Z" fill="var(--fill-0, #E4040C)"/>
</g>
</svg>
