<svg width="362" height="42" viewBox="0 0 362 42" fill="none" xmlns="http://www.w3.org/2000/svg">
<path d="M102.359 0C101.875 4.6419 102.278 9.28379 102.117 14.4957C105.419 10.994 109.043 10.0167 113.15 10.8311C118.465 11.8898 121.687 15.6359 122.734 21.9879C123.62 27.4442 122.975 32.6562 119.593 37.2166C115.325 42.9986 107.754 43.5687 102.52 38.7639C102.359 38.6011 102.117 38.5196 101.714 38.2753C102.278 41.5328 100.345 41.3699 98.2514 41.2885C96.238 41.207 94.1442 41.207 92.1308 41.2885C91.2449 41.2885 90.7617 41.0442 90.7617 39.9855C90.8423 26.7113 90.8423 13.5185 90.9228 0.244301C90.9228 0.162864 91.0033 0.0814368 91.0033 0C94.7884 0 98.5735 0 102.359 0ZM111.781 26.3855C111.701 25.3268 111.701 24.2682 111.459 23.2095C111.056 20.685 109.204 18.9748 106.949 18.8933C104.614 18.8119 103.003 20.1149 102.278 22.7209C101.553 25.2454 101.634 27.8514 102.439 30.3759C103.083 32.4118 104.533 33.552 106.627 33.6334C108.882 33.7148 110.331 32.5747 111.137 30.5388C111.62 29.1544 111.701 27.77 111.781 26.3855Z" fill="#012FA3"/>
<path d="M350.484 23.3725C349.437 20.2779 348.39 19.4635 346.054 19.8707C343.799 20.1964 342.35 21.9881 342.35 24.8383C342.269 29.6431 342.269 34.5293 342.35 39.3341C342.43 41.2886 341.625 41.4514 339.692 41.2886C337.518 41.1257 335.424 41.1257 333.25 41.2886C331.317 41.4514 330.914 40.8814 330.914 39.1712C330.995 26.1413 330.995 13.1114 330.995 0.081543H342.35V14.333C347.665 10.0983 353.303 9.52821 357.893 12.4599C360.228 13.9258 360.953 16.3689 362 18.5677C362 18.7306 361.92 18.812 361.92 18.9749C361.517 19.3006 361.517 19.5449 361.92 19.8707C361.92 27.1186 361.92 34.285 361.92 41.5329C361.597 41.4515 361.517 41.2072 360.873 41.2072C357.49 40.8814 354.027 41.37 350.645 40.6371C350.645 35.588 350.645 30.5389 350.645 25.4084" fill="#012FA3"/>
<path d="M157.444 0C157.041 1.22155 157.283 2.4431 157.283 3.66466C157.283 15.473 157.202 27.2813 157.283 39.0897C157.283 40.7999 156.961 41.4513 155.189 41.2885C152.773 41.1256 150.357 41.1256 147.941 41.2885C146.169 41.3699 145.767 40.7184 145.847 39.0897C145.928 26.8742 145.847 14.7401 145.847 2.52453C145.847 1.71017 145.767 0.895805 145.686 0C149.552 0 153.498 0 157.444 0Z" fill="#012FA3"/>
<path d="M139.243 0C139.243 2.19879 139.162 4.39759 139.243 6.67782C139.243 7.7365 138.921 8.14368 137.874 8.14368C134.975 8.06225 132.156 8.06225 129.257 8.14368C128.129 8.14368 127.807 7.7365 127.888 6.67782C127.968 4.47902 127.888 2.28023 127.888 0C131.673 0 135.458 0 139.243 0Z" fill="#012FA3"/>
<path d="M361.839 19.7894C361.356 19.4636 361.356 19.1379 361.839 18.8936C361.839 19.1379 361.839 19.4636 361.839 19.7894Z" fill="#012FA3"/>
<path d="M0 40.8811C0 31.8416 0.080534 22.8836 0 13.8441C0 12.1339 0.402669 11.401 2.25495 11.4824C4.9931 11.6453 7.65072 11.4824 10.3889 11.4824C10.711 11.6453 10.711 11.8896 10.5499 12.1339C10.5499 12.6225 10.6305 13.1112 10.6305 13.5998C10.9526 15.2285 11.5164 14.4956 12.0801 13.8441C14.2545 11.401 17.1537 10.5866 20.2946 10.5866C23.7575 10.5866 26.5762 11.971 28.5896 15.0656C30.8445 12.4597 33.6632 10.9938 37.0456 10.5866C44.0521 9.77225 48.8036 13.5998 48.9646 20.6848C49.1257 26.9554 48.9646 33.2261 49.0452 39.5781C49.0452 40.7997 48.6425 41.2069 47.4345 41.2069C44.6963 41.1254 41.9582 41.1254 39.22 41.2069C37.6899 41.2883 37.4483 40.6368 37.5288 39.3338C37.6094 34.2033 37.6094 29.0728 37.5288 23.9423C37.4483 20.5219 34.8712 18.7303 32.133 20.1962C30.4418 21.092 30.1197 22.8021 30.1197 24.5123C30.1197 29.3171 30.0392 34.2033 30.1197 39.0081C30.2002 40.8811 29.556 41.2883 27.7842 41.2069C25.2877 41.044 22.7911 41.1254 20.2946 41.2069C19.006 41.2883 18.6033 40.8811 18.6033 39.4967C18.6839 34.2847 18.6839 29.0728 18.6033 23.8608C18.5228 20.4405 15.8652 18.6489 13.127 20.1147C11.758 20.8477 11.5969 22.3135 11.0332 23.5351C10.9526 29.3171 10.9526 35.0177 10.8721 40.7997L10.7915 40.8811C7.24805 40.8811 3.70456 40.8811 0.161067 40.8811H0Z" fill="#012FA3"/>
<path d="M278.647 38.5192C276.07 40.0665 273.896 41.3695 271.238 41.7767C263.829 42.8353 258.755 38.1934 258.997 31.027C259.158 25.1636 259.078 19.2187 258.997 13.3552C258.997 11.5636 259.561 11.1564 261.171 11.2378C263.668 11.4007 266.165 11.3193 268.661 11.2378C270.03 11.1564 270.513 11.5636 270.433 13.0295C270.352 17.9971 270.352 22.9648 270.433 28.0138C270.433 31.5156 271.56 32.9 274.137 32.9C276.795 32.9 278.567 31.027 278.647 27.9324C278.728 23.2091 278.808 18.4043 278.647 13.6809C278.567 11.5636 279.292 11.075 281.224 11.2378C283.721 11.4007 286.218 11.3193 288.714 11.2378C289.842 11.2378 290.164 11.5636 290.164 12.7037C290.164 21.7432 290.164 30.7827 290.164 39.8222C290.164 41.0437 289.6 41.3695 288.472 41.288C285.976 41.2066 283.479 41.1252 280.983 41.288C279.05 41.288 278.164 40.7994 278.647 38.5192Z" fill="#012FA3"/>
<path d="M237.978 10.5875C243.937 10.8318 249.333 12.3791 252.232 18.1611C255.212 24.1874 255.051 30.1323 251.266 35.7514C247.803 40.882 240.152 43.0807 233.065 41.2891C224.851 39.1718 221.468 32.2496 221.951 25.0832C222.515 16.288 228.233 10.9946 236.85 10.5875C237.253 10.506 237.575 10.5875 237.978 10.5875ZM242.81 26.1419C242.89 24.5946 242.729 23.1287 242.165 21.6629C241.441 19.7898 240.071 18.894 238.139 18.894C236.125 18.894 234.595 19.7898 233.951 21.7443C232.904 24.7575 232.904 27.8521 234.031 30.9467C234.756 32.9012 236.286 33.7155 238.3 33.6341C240.233 33.5526 241.521 32.5754 242.165 30.7023C242.729 29.155 242.81 27.6892 242.81 26.1419Z" fill="#012FA3"/>
<path d="M184.423 28.747C181.362 28.747 178.383 28.8284 175.322 28.747C173.712 28.6655 173.551 29.3985 173.953 30.7014C175.161 34.2032 179.107 35.7505 182.49 33.5517C184.181 32.4931 185.792 32.4116 187.564 32.4116C189.255 32.4116 190.946 32.4931 192.557 32.4116C194.651 32.2487 194.489 33.1446 193.684 34.4475C190.865 39.0894 186.678 41.2882 181.523 41.7769C175.242 42.3469 169.443 41.0439 165.578 35.5877C161.632 30.0499 161.632 23.9422 164.933 18.0787C168.316 12.1339 173.873 10.0165 180.396 10.668C191.107 11.6452 194.57 17.8344 195.214 27.2811C195.295 28.5027 194.812 28.8284 193.684 28.8284C190.624 28.747 187.483 28.747 184.423 28.747ZM179.027 22.7206C180.396 22.7206 181.765 22.7206 183.054 22.7206C184.262 22.7206 184.503 22.3135 184.02 21.1733C183.134 19.056 181.604 17.9159 179.349 17.9159C176.853 17.9159 174.678 19.3003 173.953 21.2548C173.631 22.1506 173.712 22.7206 174.839 22.6392C176.289 22.6392 177.658 22.7206 179.027 22.7206Z" fill="#012FA3"/>
<path d="M69.6617 41.9398C63.7022 41.6954 58.3065 39.9038 55.4878 33.8775C52.508 27.5254 52.8301 21.0919 57.5011 15.6357C61.7694 10.5866 67.7289 9.93508 73.93 11.0752C80.0506 12.2153 84.0773 15.7985 85.4464 21.9063C86.896 28.3398 85.7685 34.2847 80.4533 38.6823C77.393 41.1254 73.6884 41.7769 69.6617 41.9398ZM74.7354 25.9781C74.5743 24.9195 74.5743 23.8608 74.3327 22.8021C73.6884 20.1147 72.1583 18.8117 69.8228 18.8117C67.5679 18.8117 66.0377 20.0332 65.3934 22.6392C64.7492 25.2452 64.8297 27.9326 65.635 30.5386C66.2793 32.5745 67.8095 33.5517 69.9839 33.5517C72.1583 33.4703 73.5274 32.3302 74.0911 30.2943C74.4938 28.9098 74.8159 27.444 74.7354 25.9781Z" fill="#012FA3"/>
<path d="M320.686 22.8019C319.801 22.8019 318.834 22.7204 317.948 22.8019C316.338 22.9647 315.371 22.639 314.727 20.8474C314.244 19.2186 312.633 18.73 311.022 18.8114C309.09 18.8929 307.64 19.7887 306.996 21.5803C305.949 24.512 305.949 27.6066 306.996 30.6198C307.559 32.4928 309.009 33.4701 310.942 33.4701C312.794 33.5515 314.405 32.8186 315.049 30.8641C315.532 29.3982 316.338 28.9096 317.868 28.9911C320.123 29.1539 322.378 29.0725 324.713 28.9911C326.163 28.9096 326.485 29.3168 326.163 30.8641C324.633 36.9719 319.801 41.0437 312.794 41.6952C306.673 42.1838 301.278 40.3922 297.734 35.0988C294.11 29.8054 294.03 24.1048 296.929 18.4043C300.231 11.9708 308.284 9.03903 316.418 11.2378C321.25 12.5408 324.552 15.4725 325.76 20.5216C326.163 21.9875 326.002 23.0462 323.988 22.8019C322.941 22.639 321.814 22.8019 320.686 22.8019Z" fill="#012FA3"/>
<path d="M202.06 26.8745C202.06 24.5942 201.979 22.2326 202.06 19.9523C202.14 18.6494 201.657 18.1607 200.368 18.3236C199.805 18.405 199.16 18.2422 198.516 18.3236C197.147 18.4865 196.825 17.835 196.906 16.6134C196.986 16.1248 196.906 15.7176 196.906 15.229C196.906 11.4829 196.906 11.4015 200.691 11.1572C201.657 11.0757 201.979 10.75 201.979 9.77274C201.899 7.73682 201.979 5.61946 201.979 3.58354C201.979 2.52486 202.301 2.11768 203.348 2.11768C206.247 2.19911 209.147 2.19911 211.965 2.11768C213.093 2.11768 213.415 2.52486 213.334 3.58354C213.254 5.53802 213.415 7.57395 213.254 9.52843C213.173 10.75 213.576 11.0757 214.784 11.0757C219.213 11.2386 219.133 11.2386 219.213 15.6362C219.294 17.6721 218.811 18.405 216.717 18.2422C213.334 17.9979 213.254 18.1607 213.254 21.6625C213.254 24.0242 213.254 26.3859 213.254 28.829C213.254 31.8421 214.059 32.7379 216.958 32.6565C218.73 32.5751 219.213 33.0637 219.213 34.8553C219.133 41.4517 219.213 41.4517 212.69 41.5331C212.046 41.5331 211.321 41.5331 210.677 41.5331C204.315 41.1259 201.899 38.5199 201.899 32.0864C202.06 30.4577 202.06 28.6661 202.06 26.8745Z" fill="#012FA3"/>
<path d="M139.243 26.2225C139.243 30.7015 139.243 35.0991 139.243 39.5782C139.243 40.7997 139.002 41.3698 137.633 41.2883C134.814 41.2069 131.995 41.2069 129.257 41.2883C128.13 41.2883 127.808 40.9626 127.808 39.8225C127.808 30.783 127.888 21.7435 127.808 12.704C127.808 11.401 128.371 11.2381 129.418 11.2381C132.156 11.3196 134.895 11.3196 137.633 11.2381C138.921 11.1567 139.324 11.6453 139.243 12.9483C139.243 17.3459 139.243 21.7435 139.243 26.2225Z" fill="#012FA3"/>
</svg>
