<svg preserveAspectRatio="xMidYMid meet" width="100%" height="100%" overflow="visible" style="display: block;" viewBox="0 0 120.195 13.9418" fill="none" xmlns="http://www.w3.org/2000/svg">
<g id="SVG" clip-path="url(#clip0_0_23)">
<path id="Vector" d="M33.9928 -0.000198112C33.8322 1.54068 33.9659 3.08156 33.9125 4.81165C35.0086 3.64926 36.2116 3.32485 37.5749 3.59519C39.3392 3.94662 40.4088 5.19014 40.7563 7.29869C41.0504 9.10991 40.8363 10.84 39.7136 12.3539C38.2969 14.2732 35.7837 14.4624 34.0463 12.8675C33.9928 12.8134 33.9125 12.7864 33.7787 12.7053C33.9659 13.7866 33.3243 13.7326 32.6293 13.7055C31.9609 13.6785 31.2659 13.6785 30.5976 13.7055C30.3035 13.7055 30.1431 13.6244 30.1431 13.273C30.1698 8.86663 30.1698 4.48727 30.1966 0.0808977C30.1966 0.0538646 30.2233 0.0268349 30.2233 -0.000198112C31.4798 -0.000198112 32.7362 -0.000198112 33.9928 -0.000198112ZM37.1205 8.75848C37.0939 8.40704 37.0939 8.05564 37.0136 7.7042C36.8798 6.86619 36.265 6.29849 35.5165 6.27144C34.7414 6.24442 34.2066 6.67695 33.9659 7.54201C33.7253 8.38002 33.7522 9.24508 34.0194 10.0831C34.2331 10.7589 34.7145 11.1374 35.4096 11.1644C36.1581 11.1914 36.6391 10.813 36.9067 10.1372C37.067 9.67761 37.0939 9.21806 37.1205 8.75848Z" fill="var(--fill-0, #012FA3)"/>
<path id="Vector_2" d="M116.357 7.75827C116.01 6.73102 115.662 6.46068 114.887 6.59585C114.138 6.70396 113.657 7.29872 113.657 8.24485C113.63 9.8398 113.63 11.4618 113.657 13.0567C113.684 13.7055 113.417 13.7596 112.775 13.7055C112.053 13.6515 111.358 13.6515 110.636 13.7055C109.995 13.7596 109.861 13.5704 109.861 13.0027C109.888 8.67738 109.888 4.3521 109.888 0.0268311H113.657V4.75761C115.422 3.3519 117.293 3.16266 118.817 4.13583C119.592 4.62244 119.833 5.43342 120.18 6.16332C120.18 6.21739 120.154 6.24441 120.154 6.29849C120.02 6.4066 120.02 6.4877 120.154 6.59585C120.154 9.00179 120.154 11.3807 120.154 13.7866C120.046 13.7596 120.02 13.6785 119.806 13.6785C118.683 13.5704 117.533 13.7325 116.411 13.4893C116.411 11.8132 116.411 10.1372 116.411 8.43409" fill="var(--fill-0, #012FA3)"/>
<path id="Vector_3" d="M52.278 -0.000198112C52.1443 0.405296 52.2246 0.81079 52.2246 1.21629C52.2246 5.13607 52.1977 9.05584 52.2246 12.9756C52.2246 13.5433 52.1177 13.7596 51.5295 13.7055C50.7275 13.6515 49.9255 13.6515 49.1235 13.7055C48.5353 13.7326 48.4019 13.5163 48.4284 12.9756C48.4553 8.9207 48.4284 4.89278 48.4284 0.83782C48.4284 0.567493 48.4019 0.297165 48.375 -0.000198112C49.6583 -0.000198112 50.9682 -0.000198112 52.278 -0.000198112Z" fill="var(--fill-0, #012FA3)"/>
<path id="Vector_4" d="M46.2362 -0.000198112C46.2362 0.729691 46.2093 1.45958 46.2362 2.21651C46.2362 2.56794 46.1293 2.7031 45.7817 2.7031C44.8194 2.67607 43.8837 2.67607 42.9213 2.7031C42.5469 2.7031 42.44 2.56794 42.4669 2.21651C42.4934 1.48661 42.4669 0.756725 42.4669 -0.000198112C43.7233 -0.000198112 44.9797 -0.000198112 46.2362 -0.000198112Z" fill="var(--fill-0, #012FA3)"/>
<path id="Vector_5" d="M120.127 6.56892C119.966 6.46077 119.966 6.35265 120.127 6.27155C120.127 6.35265 120.127 6.46077 120.127 6.56892Z" fill="var(--fill-0, #012FA3)"/>
<path id="Vector_6" d="M0.0148017 13.5704C0.0148017 10.5697 0.041535 7.59609 0.0148017 4.59542C0.0148017 4.02772 0.148468 3.78443 0.763333 3.81146C1.67226 3.86553 2.55446 3.81146 3.4634 3.81146C3.57032 3.86553 3.57032 3.94663 3.51684 4.02772C3.51684 4.18991 3.5436 4.35214 3.5436 4.51433C3.65052 5.05497 3.83767 4.81169 4.02479 4.59542C4.74659 3.78443 5.70898 3.51409 6.7516 3.51409C7.90111 3.51409 8.83678 3.97365 9.50513 5.0009C10.2536 4.13587 11.1893 3.64926 12.3121 3.51409C14.6379 3.24377 16.2152 4.51433 16.2686 6.86619C16.3221 8.94772 16.2686 11.0293 16.2954 13.1378C16.2954 13.5433 16.1617 13.6785 15.7607 13.6785C14.8518 13.6515 13.9428 13.6515 13.0339 13.6785C12.526 13.7055 12.4458 13.4893 12.4725 13.0567C12.4993 11.3537 12.4993 9.65059 12.4725 7.94752C12.4458 6.81212 11.5903 6.2174 10.6814 6.704C10.12 7.00136 10.013 7.56903 10.013 8.13673C10.013 9.73169 9.98632 11.3537 10.013 12.9486C10.0398 13.5704 9.82593 13.7055 9.23778 13.6785C8.40906 13.6244 7.58031 13.6515 6.7516 13.6785C6.32385 13.7055 6.19017 13.5704 6.19017 13.1108C6.21693 11.3807 6.21693 9.65059 6.19017 7.92047C6.16345 6.7851 5.28126 6.19038 4.37231 6.67695C3.91787 6.92027 3.8644 7.40684 3.67728 7.81235C3.65052 9.73169 3.65052 11.624 3.6238 13.5433L3.59704 13.5704C2.42079 13.5704 1.24453 13.5704 0.068268 13.5704H0.0148017Z" fill="var(--fill-0, #012FA3)"/>
<path id="Vector_7" d="M92.5111 12.7861C91.6557 13.2998 90.934 13.7323 90.0517 13.8675C87.5923 14.2189 85.908 12.678 85.9883 10.2991C86.0417 8.35275 86.0152 6.37934 85.9883 4.43295C85.9883 3.83823 86.1755 3.70306 86.7099 3.73008C87.5388 3.78415 88.3677 3.75713 89.1963 3.73008C89.6507 3.70306 89.811 3.83823 89.7845 4.32484C89.7576 5.97383 89.7576 7.62286 89.7845 9.29888C89.7845 10.4613 90.1586 10.9209 91.014 10.9209C91.8963 10.9209 92.4846 10.2991 92.5111 9.27186C92.538 7.70396 92.5646 6.109 92.5111 4.54107C92.4846 3.83823 92.7252 3.67604 93.3665 3.73008C94.1954 3.78415 95.0243 3.75713 95.8528 3.73008C96.2273 3.73008 96.3342 3.83823 96.3342 4.21669C96.3342 7.21735 96.3342 10.218 96.3342 13.2187C96.3342 13.6242 96.147 13.7323 95.7725 13.7053C94.944 13.6782 94.1151 13.6512 93.2865 13.7053C92.6449 13.7053 92.3508 13.5431 92.5111 12.7861Z" fill="var(--fill-0, #012FA3)"/>
<path id="Vector_8" d="M79.0111 3.51437C80.9892 3.59546 82.7804 4.10909 83.7427 6.02843C84.7319 8.02886 84.6785 10.0023 83.422 11.8675C82.2725 13.5706 79.7327 14.3005 77.3802 13.7058C74.6536 13.0029 73.5306 10.7051 73.6909 8.32622C73.8781 5.40665 75.7762 3.6495 78.6366 3.51437C78.7704 3.48731 78.8773 3.51437 79.0111 3.51437ZM80.6151 8.67766C80.6416 8.16403 80.5882 7.67742 80.4009 7.19085C80.1606 6.56907 79.7058 6.27171 79.0645 6.27171C78.396 6.27171 77.8881 6.56907 77.6743 7.21787C77.3268 8.2181 77.3268 9.24536 77.7009 10.2726C77.9415 10.9214 78.4494 11.1917 79.118 11.1647C79.7596 11.1376 80.1872 10.8133 80.4009 10.1915C80.5882 9.67785 80.6151 9.19128 80.6151 8.67766Z" fill="var(--fill-0, #012FA3)"/>
<path id="Vector_9" d="M61.2337 9.54225C60.2176 9.54225 59.2287 9.56927 58.2126 9.54225C57.6782 9.51519 57.6247 9.75851 57.7582 10.191C58.1592 11.3534 59.469 11.8671 60.592 11.1372C61.1534 10.7858 61.6881 10.7587 62.2763 10.7587C62.8377 10.7587 63.399 10.7858 63.9338 10.7587C64.6289 10.7046 64.5751 11.002 64.3079 11.4345C63.3721 12.9754 61.9822 13.7053 60.271 13.8675C58.1861 14.0567 56.2611 13.6242 54.9781 11.813C53.6682 9.97475 53.6682 7.94729 54.764 6.0009C55.887 4.02752 57.7316 3.32465 59.8969 3.54092C63.4524 3.8653 64.602 5.91981 64.8158 9.05564C64.8427 9.46115 64.6823 9.56927 64.3079 9.56927C63.2921 9.54225 62.2495 9.54225 61.2337 9.54225ZM59.4425 7.54178C59.8969 7.54178 60.3514 7.54178 60.7792 7.54178C61.1802 7.54178 61.2602 7.40665 61.0999 7.02816C60.8058 6.32532 60.2979 5.94686 59.5494 5.94686C58.7208 5.94686 57.9988 6.40641 57.7582 7.05521C57.6513 7.35257 57.6782 7.54178 58.0523 7.51476C58.5336 7.51476 58.988 7.54178 59.4425 7.54178Z" fill="var(--fill-0, #012FA3)"/>
<path id="Vector_10" d="M23.1389 13.9218C21.1606 13.8407 19.3695 13.246 18.4339 11.2455C17.4447 9.13696 17.5516 7.00136 19.1022 5.19017C20.519 3.51412 22.4973 3.29785 24.5558 3.67631C26.5875 4.05477 27.9242 5.24421 28.3786 7.2717C28.8598 9.4073 28.4856 11.3807 26.7212 12.8405C25.7053 13.6515 24.4756 13.8678 23.1389 13.9218ZM24.8231 8.62334C24.7696 8.27193 24.7696 7.9205 24.6894 7.56906C24.4756 6.67698 23.9676 6.24445 23.1924 6.24445C22.4439 6.24445 21.9359 6.64992 21.722 7.51499C21.5082 8.38005 21.5349 9.27213 21.8022 10.1372C22.0161 10.813 22.5241 11.1374 23.2458 11.1374C23.9676 11.1104 24.4221 10.7319 24.6092 10.0561C24.7429 9.59651 24.8498 9.10994 24.8231 8.62334Z" fill="var(--fill-0, #012FA3)"/>
<path id="Vector_11" d="M106.466 7.56904C106.172 7.56904 105.851 7.54198 105.557 7.56904C105.023 7.62308 104.702 7.51496 104.488 6.92024C104.328 6.37956 103.793 6.21737 103.258 6.24439C102.617 6.27144 102.135 6.5688 101.922 7.16352C101.574 8.1367 101.574 9.16396 101.922 10.1642C102.108 10.7859 102.59 11.1103 103.231 11.1103C103.846 11.1374 104.381 10.8941 104.595 10.2453C104.755 9.75868 105.023 9.59649 105.531 9.62354C106.279 9.67758 107.028 9.65056 107.803 9.62354C108.284 9.59649 108.391 9.73166 108.284 10.2453C107.776 12.2728 106.172 13.6244 103.846 13.8407C101.814 14.0029 100.023 13.4081 98.8471 11.651C97.6441 9.89385 97.6175 8.00153 98.5798 6.10925C99.6759 3.97365 102.349 3.00045 105.049 3.73033C106.653 4.16286 107.749 5.13604 108.15 6.81209C108.284 7.2987 108.231 7.65013 107.562 7.56904C107.215 7.51496 106.84 7.56904 106.466 7.56904Z" fill="var(--fill-0, #012FA3)"/>
<path id="Vector_12" d="M67.0882 8.92092C67.0882 8.16397 67.0613 7.38004 67.0882 6.62309C67.1148 6.19059 66.9544 6.02837 66.5265 6.08245C66.3397 6.10947 66.1255 6.05542 65.9118 6.08245C65.4573 6.13652 65.3504 5.92025 65.3773 5.51474C65.4039 5.35255 65.3773 5.21738 65.3773 5.05519C65.3773 3.81167 65.3773 3.78465 66.6338 3.70356C66.9544 3.6765 67.0613 3.56839 67.0613 3.24398C67.0348 2.56816 67.0613 1.8653 67.0613 1.18948C67.0613 0.838048 67.1682 0.702884 67.5158 0.702884C68.4781 0.729915 69.4407 0.729915 70.3762 0.702884C70.7506 0.702884 70.8575 0.838048 70.8306 1.18948C70.8041 1.83827 70.8575 2.51409 70.8041 3.16289C70.7772 3.56839 70.9109 3.6765 71.3119 3.6765C72.7821 3.73058 72.7556 3.73058 72.7821 5.19036C72.809 5.86618 72.6487 6.10947 71.9536 6.05542C70.8306 5.97433 70.8041 6.02837 70.8041 7.19079C70.8041 7.97476 70.8041 8.75873 70.8041 9.56972C70.8041 10.5699 71.0713 10.8673 72.0336 10.8403C72.6218 10.8132 72.7821 10.9754 72.7821 11.5701C72.7556 13.7598 72.7821 13.7598 70.6168 13.7868C70.4031 13.7868 70.1624 13.7868 69.9486 13.7868C67.8368 13.6517 67.0348 12.7866 67.0348 10.651C67.0882 10.1104 67.0882 9.51564 67.0882 8.92092Z" fill="var(--fill-0, #012FA3)"/>
<path id="Vector_13" d="M46.2363 8.70421C46.2363 10.191 46.2363 11.6508 46.2363 13.1376C46.2363 13.5431 46.1563 13.7324 45.7018 13.7053C44.7661 13.6783 43.8303 13.6783 42.9214 13.7053C42.5473 13.7053 42.4404 13.5972 42.4404 13.2187C42.4404 10.2181 42.467 7.2174 42.4404 4.21674C42.4404 3.7842 42.6273 3.73013 42.9749 3.73013C43.8838 3.75718 44.793 3.75718 45.7018 3.73013C46.1294 3.70311 46.2632 3.8653 46.2363 4.29783C46.2363 5.75762 46.2363 7.2174 46.2363 8.70421Z" fill="var(--fill-0, #012FA3)"/>
</g>
<defs>
<clipPath id="clip0_0_23">
<rect width="120.195" height="13.9418" fill="white"/>
</clipPath>
</defs>
</svg>
