<svg preserveAspectRatio="xMidYMid meet" width="100%" height="100%" overflow="visible" style="display: block;" viewBox="0 0 98 30.7524" fill="none" xmlns="http://www.w3.org/2000/svg">
<g id="SVG" clip-path="url(#clip0_0_6)">
<path id="Vector" d="M89.6566 0.521554H8.34454C4.02653 0.521554 0.526079 4.022 0.526079 8.34002V22.4133C0.526079 26.7313 4.02653 30.2317 8.34454 30.2317H89.6566C93.9746 30.2317 97.4751 26.7313 97.4751 22.4133V8.34002C97.4751 4.022 93.9746 0.521554 89.6566 0.521554Z" stroke="var(--stroke-0, #C8C8C8)" stroke-width="1.04245"/>
<path id="Vector_2" fill-rule="evenodd" clip-rule="evenodd" d="M53.7709 24.4179C51.9988 27.2847 45.8698 29.637 42.916 29.7104H89.8645C93.7795 29.7104 96.9533 26.551 96.9533 22.6537V8.09939C96.9533 4.20214 93.7795 1.0427 89.8645 1.0427H73.0439C69.9426 1.26322 64.183 2.80687 61.5247 4.57103C58.8346 6.35628 57.3079 12.3558 56.0168 17.431C55.2501 20.4442 54.5663 23.1316 53.7709 24.4179Z" fill="#FCFCFC"/>
<path id="Vector_3" fill-rule="evenodd" clip-rule="evenodd" d="M43.138 29.7104C46.0918 29.637 52.2206 27.2847 53.9928 24.4179C54.7882 23.1316 55.4721 20.4442 56.2388 17.431C57.5299 12.3558 59.0566 6.35628 61.7467 4.57103C64.4049 2.80687 68.1708 1.92478 71.7152 1.26322L73.2502 1.0427H8.13617C4.22102 1.0427 1.04722 4.20214 1.04722 8.09939V22.6537C1.04722 26.551 4.22102 29.7104 8.13617 29.7104H43.138Z" fill="#DBDBDB"/>
<g id="Group">
<path id="Vector_4" d="M8.57907 9.64294L7.9145 21.5511H11.902L12.1236 16.038L15.4466 21.5511H19.6556L20.3202 9.64294H16.3326L16.1111 15.3765L12.3451 9.64294H8.57907Z" fill="#314692"/>
<path id="Vector_5" d="M22.5356 9.64282L21.6495 21.551H31.8399L32.0614 18.6842H25.8586L26.0801 16.92H31.6184L31.8399 14.4943H26.3016L26.5231 12.7301H32.2829L32.5045 9.64282H22.5356Z" fill="#314692"/>
<path id="Vector_6" d="M35.1623 21.551L33.6116 9.64282H37.1561L38.0422 15.1558L40.036 9.64282H43.5804L44.9096 15.1558L46.6819 9.64282H50.6694L46.6819 21.551H42.9159L41.3652 15.1558L38.9283 21.551H35.1623Z" fill="#314692"/>
</g>
<g id="Group_2">
<path id="Vector_7" fill-rule="evenodd" clip-rule="evenodd" d="M82.6631 21.7714C86.6495 21.7714 89.8806 19.0069 89.8806 15.5968C89.8806 12.1867 86.6495 9.42221 82.6631 9.42221C78.6767 9.42221 75.4451 12.1867 75.4451 15.5968C75.4451 19.0069 78.6767 21.7714 82.6631 21.7714ZM82.6631 18.684C84.2789 18.684 85.5893 17.3017 85.5893 15.5966C85.5893 13.8916 84.2789 12.5094 82.6631 12.5094C81.0468 12.5094 79.7369 13.8916 79.7369 15.5966C79.7369 17.3017 81.0468 18.684 82.6631 18.684Z" fill="#D42E38"/>
<path id="Vector_8" fill-rule="evenodd" clip-rule="evenodd" d="M70.958 9.42266C71.9994 9.42266 72.9897 9.61155 73.8841 9.95129V12.674C73.4062 12.5676 72.8938 12.5096 72.3611 12.5096C69.7544 12.5096 67.6414 13.8918 67.6414 15.5968C67.6414 17.302 69.7544 18.6842 72.3611 18.6842C72.8938 18.6842 73.4062 18.6262 73.8841 18.5198V21.2433C72.9897 21.583 71.9994 21.7719 70.958 21.7719C66.9716 21.7719 63.74 19.0074 63.74 15.5973C63.74 12.1872 66.9716 9.42266 70.958 9.42266Z" fill="#D42E38"/>
</g>
</g>
<defs>
<clipPath id="clip0_0_6">
<rect width="98" height="30.7524" fill="white"/>
</clipPath>
</defs>
</svg>
