<svg width="188" height="59" viewBox="0 0 188 59" fill="none" xmlns="http://www.w3.org/2000/svg">
<rect x="1" y="1" width="186" height="57" rx="15" stroke="#C8C8C8" stroke-width="2"/>
<path fill-rule="evenodd" clip-rule="evenodd" d="M103.153 46.8462C99.7532 52.3462 87.9946 56.8591 82.3276 57H172.4C179.911 57 186 50.9385 186 43.4615V15.5385C186 8.06149 179.911 2 172.4 2H140.129C134.179 2.42308 123.129 5.38462 118.029 8.76923C112.868 12.1943 109.939 23.7046 107.462 33.4416C105.991 39.2225 104.679 44.3783 103.153 46.8462Z" fill="#FCFCFC"/>
<path fill-rule="evenodd" clip-rule="evenodd" d="M82.7526 57C88.4195 56.8591 100.178 52.3462 103.578 46.8462C105.104 44.3783 106.416 39.2225 107.887 33.4416C110.364 23.7046 113.293 12.1943 118.454 8.76923C123.554 5.38462 130.779 3.69231 137.579 2.42308L140.524 2H15.6004C8.08903 2 2 8.06149 2 15.5385V43.4615C2 50.9385 8.08903 57 15.6004 57H82.7526Z" fill="#DBDBDB"/>
<g opacity="1">
<path d="M16.4503 18.5L15.1753 41.3462H22.8255L23.2506 30.7692L29.6258 41.3462H37.701L38.9761 18.5H31.3258L30.9008 29.5L23.6756 18.5H16.4503Z" fill="#314692"/>
<path d="M43.2262 18.5L41.5261 41.3462H61.0768L61.5018 35.8462H49.6014L50.0264 32.4615H60.6518L61.0768 27.8077H50.4514L50.8764 24.4231H61.9268L62.3518 18.5H43.2262Z" fill="#314692"/>
<path d="M67.452 41.3462L64.4769 18.5H71.2771L72.9772 29.0769L76.8023 18.5H83.6025L86.1526 29.0769L89.5527 18.5H97.2029L89.5527 41.3462H82.3275L79.3524 29.0769L74.6772 41.3462H67.452Z" fill="#314692"/>
</g>
<g opacity="1">
<path fill-rule="evenodd" clip-rule="evenodd" d="M158.583 41.769C166.231 41.769 172.43 36.4653 172.43 29.9229C172.43 23.3804 166.231 18.0767 158.583 18.0767C150.935 18.0767 144.735 23.3804 144.735 29.9229C144.735 36.4653 150.935 41.769 158.583 41.769ZM158.583 35.8457C161.683 35.8457 164.197 33.1938 164.197 29.9224C164.197 26.6514 161.683 23.9995 158.583 23.9995C155.482 23.9995 152.969 26.6514 152.969 29.9224C152.969 33.1938 155.482 35.8457 158.583 35.8457Z" fill="#D42E38"/>
<path fill-rule="evenodd" clip-rule="evenodd" d="M136.127 18.0771C138.125 18.0771 140.025 18.4395 141.741 19.0913V24.3149C140.824 24.1108 139.841 23.9995 138.819 23.9995C133.818 23.9995 129.764 26.6514 129.764 29.9224C129.764 33.1938 133.818 35.8457 138.819 35.8457C139.841 35.8457 140.824 35.7344 141.741 35.5303V40.7554C140.025 41.4072 138.125 41.7695 136.127 41.7695C128.479 41.7695 122.279 36.4658 122.279 29.9233C122.279 23.3809 128.479 18.0771 136.127 18.0771Z" fill="#D42E38"/>
</g>
</svg>
