<svg preserveAspectRatio="xMidYMid meet" width="100%" height="100%" overflow="visible" style="display: block;" viewBox="0 0 97.9475 31.7595" fill="none" xmlns="http://www.w3.org/2000/svg">
<g id="svgg">
<path id="path0" fill-rule="evenodd" clip-rule="evenodd" d="M13.4644 0.0447434C13.4491 0.0690972 13.2778 0.0891691 13.0835 0.0891691C12.8894 0.0891691 12.7178 0.109241 12.7028 0.133862C12.6875 0.158484 12.5565 0.178555 12.4114 0.178555C12.2665 0.178555 12.1355 0.198627 12.1202 0.222981C12.1049 0.247603 12.0129 0.267674 11.9159 0.267674C11.8188 0.267674 11.7393 0.287746 11.7393 0.312367C11.7393 0.336721 11.6497 0.356793 11.5403 0.356793C11.4309 0.356793 11.329 0.376865 11.3137 0.401486C11.2984 0.426108 11.2266 0.446179 11.1543 0.446179C11.0817 0.446179 11.0225 0.466251 11.0225 0.490605C11.0225 0.515227 10.9532 0.535298 10.8682 0.535298C10.7835 0.535298 10.7015 0.55537 10.6865 0.579992C10.6712 0.604345 10.5994 0.624417 10.5268 0.624417C10.4545 0.624417 10.3951 0.644489 10.3951 0.66911C10.3951 0.693732 10.3346 0.713804 10.2606 0.713804C10.1867 0.713804 10.1262 0.733875 10.1262 0.758229C10.1262 0.782851 10.0657 0.802922 9.99179 0.802922C9.91786 0.802922 9.85737 0.822994 9.85737 0.847616C9.85737 0.871969 9.80817 0.892041 9.74822 0.892041C9.688 0.892041 9.62617 0.912113 9.61111 0.936734C9.59579 0.961356 9.54417 0.981428 9.49632 0.981428C9.44847 0.981428 9.40948 1.0015 9.40948 1.02585C9.40948 1.05047 9.36029 1.07055 9.30007 1.07055C9.23984 1.07055 9.17828 1.09062 9.16296 1.11524C9.14763 1.13959 9.09602 1.15967 9.04816 1.15967C9.00058 1.15967 8.96133 1.17974 8.96133 1.20436C8.96133 1.22898 8.921 1.24905 8.8718 1.24905C8.82234 1.24905 8.78201 1.26912 8.78201 1.29348C8.78201 1.3181 8.74168 1.33817 8.69249 1.33817C8.64329 1.33817 8.60296 1.35824 8.60296 1.38286C8.60296 1.40722 8.56264 1.42729 8.51317 1.42729C8.46397 1.42729 8.42365 1.44736 8.42365 1.47198C8.42365 1.4966 8.39542 1.51668 8.36074 1.51668C8.286 1.51668 7.915 1.70267 7.89349 1.75085C7.88516 1.76905 7.83972 1.7843 7.79268 1.7843C7.74536 1.7843 7.70665 1.80437 7.70665 1.82873C7.70665 1.85335 7.66632 1.87342 7.61712 1.87342C7.56793 1.87342 7.5276 1.89349 7.5276 1.91811C7.5276 1.94247 7.49158 1.96254 7.44775 1.96254C7.40393 1.96254 7.33887 2.00268 7.30339 2.05192C7.2679 2.1009 7.20311 2.14104 7.15929 2.14104C7.1152 2.14104 7.07944 2.16111 7.07944 2.18574C7.07944 2.21009 7.0531 2.23016 7.02057 2.23016C6.98831 2.23016 6.91868 2.27031 6.86572 2.31955C6.81275 2.36852 6.74285 2.40867 6.71032 2.40867C6.67779 2.40867 6.62215 2.44881 6.58666 2.49779C6.55117 2.54703 6.50117 2.58717 6.4759 2.58717C6.45063 2.58717 6.35922 2.64739 6.27292 2.72098C6.18662 2.79431 6.10086 2.85453 6.08204 2.85453C6.06349 2.85453 5.98472 2.91501 5.9073 2.98861C5.83014 3.0622 5.74761 3.12242 5.72422 3.12242C5.70083 3.12242 5.62824 3.17835 5.56291 3.2466C5.49759 3.31511 5.37338 3.42029 5.28708 3.48077C5.09674 3.61351 3.67404 5.02362 3.67404 5.07929C3.67404 5.10096 3.59339 5.20159 3.49499 5.30249C3.39633 5.40365 3.31568 5.50347 3.31568 5.52435C3.31568 5.54522 3.25519 5.62524 3.18126 5.70232C3.10732 5.77939 3.04684 5.86289 3.04684 5.88778C3.04684 5.91267 2.98635 5.99617 2.91241 6.07324C2.83848 6.15032 2.77799 6.24024 2.77799 6.27343C2.77799 6.30661 2.75783 6.33391 2.7331 6.33391C2.70863 6.33391 2.68847 6.36014 2.68847 6.39225C2.68847 6.42437 2.64814 6.49395 2.59868 6.54667C2.54948 6.59912 2.50915 6.66416 2.50915 6.69065C2.50915 6.71715 2.46883 6.78218 2.41963 6.83463C2.37016 6.88735 2.32984 6.95694 2.32984 6.98905C2.32984 7.02117 2.30967 7.04739 2.28521 7.04739C2.26048 7.04739 2.24031 7.08754 2.24031 7.13678C2.24031 7.18576 2.22015 7.2259 2.19542 7.2259C2.17095 7.2259 2.15079 7.26604 2.15079 7.31502C2.15079 7.36426 2.13063 7.4044 2.10589 7.4044C2.08116 7.4044 2.061 7.44455 2.061 7.49352C2.061 7.5425 2.04083 7.58264 2.01637 7.58264C1.99164 7.58264 1.97147 7.62279 1.97147 7.67203C1.97147 7.721 1.95131 7.76115 1.92658 7.76115C1.90211 7.76115 1.88195 7.80129 1.88195 7.85027C1.88195 7.89951 1.86179 7.93965 1.83705 7.93965C1.81232 7.93965 1.79216 7.9798 1.79216 8.02877C1.79216 8.07775 1.77199 8.11789 1.74753 8.11789C1.7228 8.11789 1.70263 8.15803 1.70263 8.20728C1.70263 8.25625 1.68247 8.2964 1.65774 8.2964C1.63327 8.2964 1.61311 8.33654 1.61311 8.38551C1.61311 8.43476 1.59295 8.4749 1.56821 8.4749C1.54348 8.4749 1.52332 8.51504 1.52332 8.56402C1.52332 8.613 1.50315 8.65314 1.47869 8.65314C1.45396 8.65314 1.43379 8.71335 1.43379 8.78695C1.43379 8.86055 1.41363 8.92076 1.3889 8.92076C1.36443 8.92076 1.34427 8.96091 1.34427 9.01015C1.34427 9.05912 1.32411 9.09927 1.29937 9.09927C1.27464 9.09927 1.25448 9.15948 1.25448 9.23308C1.25448 9.30668 1.23431 9.36689 1.20985 9.36689C1.18511 9.36689 1.16495 9.4073 1.16495 9.45681C1.16495 9.50606 1.14479 9.58634 1.12006 9.63505C1.09559 9.68376 1.05526 9.76351 1.03053 9.81222C1.0058 9.86093 0.985635 9.94121 0.985635 9.99072C0.985635 10.0402 0.965472 10.0806 0.941007 10.0806C0.916274 10.0806 0.896111 10.1395 0.896111 10.2118C0.896111 10.2838 0.875948 10.3552 0.851215 10.3705C0.82675 10.3857 0.806587 10.4671 0.806587 10.5517C0.806587 10.636 0.786424 10.705 0.761691 10.705C0.736957 10.705 0.716794 10.7642 0.716794 10.8361C0.716794 10.9084 0.696631 10.9799 0.672167 10.9948C0.647433 11.0101 0.62727 11.0915 0.62727 11.176C0.62727 11.2603 0.607107 11.3294 0.582374 11.3294C0.55791 11.3294 0.537747 11.4086 0.537747 11.5052C0.537747 11.6018 0.517584 11.6933 0.49285 11.7086C0.468117 11.7239 0.447954 11.8253 0.447954 11.9342C0.447954 12.0431 0.427791 12.1323 0.403326 12.1323C0.378593 12.1323 0.35843 12.2315 0.35843 12.3528C0.35843 12.474 0.338267 12.5856 0.313534 12.6006C0.289069 12.6158 0.268906 12.7574 0.268906 12.9156C0.268906 13.0772 0.249281 13.2027 0.22401 13.2027C0.197932 13.2027 0.179113 13.3515 0.179113 13.5598C0.179113 13.7677 0.160563 13.9165 0.134486 13.9165C0.106795 13.9165 0.0895894 14.1311 0.0895894 14.4713C0.0895894 14.7932 0.0707706 15.0378 0.0446931 15.0539C0.0175402 15.0708 6.54906e-05 15.4112 6.54906e-05 15.9264C6.54906e-05 16.4597 0.0164649 16.7712 0.0446931 16.7712C0.0723837 16.7712 0.0895894 17.0006 0.0895894 17.3707C0.0895894 17.7221 0.108139 17.9817 0.134486 17.9978C0.15895 18.013 0.179113 18.1634 0.179113 18.3323C0.179113 18.5012 0.199276 18.6516 0.22401 18.6668C0.248743 18.6821 0.268906 18.8124 0.268906 18.9567C0.268906 19.1012 0.289069 19.2315 0.313534 19.2468C0.338267 19.2618 0.35843 19.3734 0.35843 19.4946C0.35843 19.6158 0.378593 19.7151 0.403326 19.7151C0.427791 19.7151 0.447954 19.8042 0.447954 19.9132C0.447954 20.0221 0.468117 20.1235 0.49285 20.1388C0.517584 20.154 0.537747 20.2343 0.537747 20.3173C0.537747 20.4002 0.55791 20.4805 0.582374 20.4955C0.607107 20.5108 0.62727 20.5809 0.62727 20.6518C0.62727 20.7224 0.647433 20.7926 0.672167 20.8078C0.696631 20.8231 0.716794 20.9044 0.716794 20.989C0.716794 21.0733 0.736957 21.1424 0.761691 21.1424C0.786424 21.1424 0.806587 21.2026 0.806587 21.2762C0.806587 21.3498 0.82675 21.41 0.851215 21.41C0.875948 21.41 0.896111 21.4691 0.896111 21.5411C0.896111 21.6134 0.916274 21.6848 0.941007 21.6998C0.965472 21.7151 0.985635 21.7764 0.985635 21.8363C0.985635 21.8962 1.0058 21.9452 1.03053 21.9452C1.05526 21.9452 1.07543 22.0054 1.07543 22.079C1.07543 22.1526 1.09559 22.2128 1.12006 22.2128C1.14479 22.2128 1.16495 22.2731 1.16495 22.3467C1.16495 22.4203 1.18511 22.4805 1.20985 22.4805C1.23431 22.4805 1.25448 22.5206 1.25448 22.5696C1.25448 22.6188 1.27464 22.659 1.29937 22.659C1.32411 22.659 1.34427 22.7192 1.34427 22.7928C1.34427 22.8664 1.36443 22.9266 1.3889 22.9266C1.41363 22.9266 1.43379 22.9667 1.43379 23.0157C1.43379 23.0647 1.45396 23.1048 1.47869 23.1048C1.50315 23.1048 1.52332 23.145 1.52332 23.1942C1.52332 23.2432 1.54348 23.2833 1.56821 23.2833C1.59295 23.2833 1.61311 23.3139 1.61311 23.3508C1.61311 23.388 1.63058 23.4533 1.65209 23.4958C1.67387 23.5384 1.73436 23.6586 1.78651 23.7629C1.97954 24.147 2.08439 24.3319 2.11718 24.3463C2.13547 24.3546 2.15079 24.3999 2.15079 24.4467C2.15079 24.4938 2.17095 24.5323 2.19542 24.5323C2.22015 24.5323 2.24031 24.5725 2.24031 24.6215C2.24031 24.6704 2.26048 24.7106 2.28521 24.7106C2.30967 24.7106 2.32984 24.7371 2.32984 24.7692C2.32984 24.8013 2.37016 24.8706 2.41963 24.9233C2.46883 24.9761 2.50915 25.0456 2.50915 25.078C2.50915 25.1104 2.54948 25.1661 2.59868 25.2014C2.64814 25.2367 2.68847 25.3012 2.68847 25.3449C2.68847 25.3887 2.70514 25.4243 2.72557 25.4243C2.746 25.4243 2.79144 25.4795 2.82612 25.5469C2.8608 25.6143 2.92478 25.7021 2.96807 25.7417C3.01135 25.7813 3.04684 25.8367 3.04684 25.8648C3.04684 25.8929 3.10732 25.9789 3.18126 26.0559C3.25519 26.1327 3.31568 26.2149 3.31568 26.2382C3.31568 26.2615 3.37616 26.3369 3.4501 26.4057C3.52403 26.4745 3.58452 26.551 3.58452 26.5757C3.58452 26.6005 3.70549 26.7432 3.85336 26.8928C4.00122 27.0421 4.1222 27.1799 4.1222 27.1987C4.1222 27.2517 4.79618 27.9309 4.99593 28.0792C5.09459 28.1522 5.24568 28.2831 5.33198 28.3695C5.41828 28.4562 5.55942 28.5764 5.64572 28.6369C5.73175 28.6971 5.86079 28.8018 5.9323 28.8695C6.00381 28.9372 6.08204 28.9926 6.10624 28.9926C6.13044 28.9926 6.18313 29.0279 6.22292 29.071C6.26271 29.1141 6.35089 29.1778 6.41863 29.2123C6.48638 29.2471 6.54176 29.292 6.54176 29.3124C6.54176 29.3327 6.56811 29.3496 6.60064 29.3496C6.6329 29.3496 6.6985 29.3846 6.74608 29.4275C6.79393 29.4705 6.88857 29.534 6.95631 29.5688C7.02406 29.6038 7.07944 29.6488 7.07944 29.6691C7.07944 29.6897 7.11977 29.7063 7.16897 29.7063C7.21843 29.7063 7.25876 29.7264 7.25876 29.751C7.25876 29.7754 7.28968 29.7954 7.32785 29.7954C7.36576 29.7954 7.44023 29.8356 7.49292 29.8848C7.54588 29.9338 7.61578 29.9739 7.64804 29.9739C7.6803 29.9739 7.70665 29.994 7.70665 30.0186C7.70665 30.043 7.74697 30.0631 7.79644 30.0631C7.84564 30.0631 7.88596 30.0831 7.88596 30.1078C7.88596 30.1324 7.92629 30.1525 7.97549 30.1525C8.02496 30.1525 8.06528 30.1725 8.06528 30.1969C8.06528 30.2215 8.10561 30.2416 8.15481 30.2416C8.204 30.2416 8.24433 30.2616 8.24433 30.2863C8.24433 30.3106 8.28466 30.3307 8.33412 30.3307C8.38332 30.3307 8.42365 30.3508 8.42365 30.3754C8.42365 30.4 8.48413 30.4201 8.55807 30.4201C8.632 30.4201 8.69249 30.4401 8.69249 30.4645C8.69249 30.4891 8.73281 30.5092 8.78201 30.5092C8.83148 30.5092 8.8718 30.5293 8.8718 30.5539C8.8718 30.5782 8.91079 30.5983 8.95864 30.5983C9.00649 30.5983 9.05811 30.6184 9.07343 30.643C9.08849 30.6676 9.15032 30.6877 9.21054 30.6877C9.27049 30.6877 9.31969 30.7078 9.31969 30.7321C9.31969 30.7567 9.38018 30.7768 9.45411 30.7768C9.52804 30.7768 9.58853 30.7969 9.58853 30.8215C9.58853 30.8459 9.64902 30.8659 9.72295 30.8659C9.79688 30.8659 9.85737 30.886 9.85737 30.9106C9.85737 30.9352 9.91786 30.9553 9.99179 30.9553C10.0657 30.9553 10.1262 30.9754 10.1262 30.9997C10.1262 31.0244 10.1867 31.0444 10.2606 31.0444C10.3346 31.0444 10.3951 31.0645 10.3951 31.0891C10.3951 31.1135 10.4545 31.1336 10.5268 31.1336C10.5994 31.1336 10.6712 31.1536 10.6865 31.1783C10.7015 31.2029 10.8037 31.2229 10.9131 31.2229C11.0225 31.2229 11.1121 31.243 11.1121 31.2674C11.1121 31.292 11.1927 31.3121 11.2914 31.3121C11.3898 31.3121 11.4704 31.3321 11.4704 31.3568C11.4704 31.3811 11.5712 31.4012 11.6946 31.4012C11.8178 31.4012 11.9186 31.4213 11.9186 31.4459C11.9186 31.4705 12.0283 31.4906 12.1624 31.4906C12.2966 31.4906 12.4186 31.5106 12.4339 31.535C12.449 31.5596 12.5901 31.5797 12.7474 31.5797C12.9047 31.5797 13.0458 31.5998 13.0611 31.6244C13.0765 31.6493 13.2856 31.6688 13.5343 31.6688C13.8013 31.6688 13.9798 31.6867 13.9798 31.7135C13.9798 31.7424 14.5024 31.7582 15.4584 31.7582C16.4141 31.7582 16.937 31.7424 16.937 31.7135C16.937 31.6865 17.1376 31.6688 17.4494 31.6688C17.743 31.6688 17.9739 31.6498 17.9898 31.6244C18.0051 31.5998 18.1777 31.5797 18.3734 31.5797C18.5807 31.5797 18.7291 31.561 18.7291 31.535C18.7291 31.5106 18.8388 31.4906 18.9729 31.4906C19.1071 31.4906 19.2292 31.4705 19.2445 31.4459C19.2598 31.4213 19.3504 31.4012 19.4461 31.4012C19.5418 31.4012 19.6324 31.3811 19.6477 31.3568C19.6631 31.3321 19.765 31.3121 19.8744 31.3121C19.9838 31.3121 20.0733 31.292 20.0733 31.2674C20.0733 31.243 20.1327 31.2229 20.205 31.2229C20.2776 31.2229 20.3494 31.2029 20.3647 31.1783C20.3798 31.1536 20.4618 31.1336 20.5465 31.1336C20.6314 31.1336 20.7008 31.1135 20.7008 31.0891C20.7008 31.0645 20.7613 31.0444 20.8352 31.0444C20.9091 31.0444 20.9696 31.0244 20.9696 30.9997C20.9696 30.9754 21.0301 30.9553 21.104 30.9553C21.178 30.9553 21.2385 30.9352 21.2385 30.9106C21.2385 30.886 21.299 30.8659 21.3729 30.8659C21.4468 30.8659 21.5073 30.8459 21.5073 30.8215C21.5073 30.7969 21.5476 30.7768 21.5968 30.7768C21.646 30.7768 21.6864 30.7567 21.6864 30.7321C21.6864 30.7078 21.7468 30.6877 21.8208 30.6877C21.8947 30.6877 21.9552 30.6676 21.9552 30.643C21.9552 30.6184 21.9955 30.5983 22.045 30.5983C22.0942 30.5983 22.1345 30.5782 22.1345 30.5539C22.1345 30.5293 22.1652 30.5092 22.2023 30.5092C22.2396 30.5092 22.3103 30.4891 22.3593 30.4645C22.4082 30.4401 22.4883 30.4 22.5372 30.3754C22.5862 30.3508 22.6566 30.3307 22.694 30.3307C22.7313 30.3307 22.7617 30.3106 22.7617 30.2863C22.7617 30.2616 22.802 30.2416 22.8515 30.2416C22.9007 30.2416 22.941 30.2215 22.941 30.1969C22.941 30.1725 22.9797 30.1525 23.0268 30.1525C23.0741 30.1525 23.1195 30.1372 23.1276 30.119C23.1464 30.077 23.3852 29.9322 23.49 29.899C23.533 29.8854 23.5682 29.8567 23.5682 29.835C23.5682 29.8134 23.6086 29.7954 23.658 29.7954C23.7072 29.7954 23.7476 29.7754 23.7476 29.751C23.7476 29.7264 23.7739 29.7063 23.8064 29.7063C23.8387 29.7063 23.9083 29.6662 23.9613 29.6172C24.0142 29.568 24.0841 29.5278 24.1167 29.5278C24.1492 29.5278 24.2049 29.4877 24.2403 29.4387C24.2758 29.3897 24.3363 29.3496 24.3748 29.3496C24.4132 29.3496 24.4737 29.3094 24.5092 29.2602C24.5447 29.2112 24.5998 29.1711 24.6315 29.1711C24.6632 29.1711 24.7525 29.1109 24.8299 29.0373C24.9073 28.9637 24.9899 28.9034 25.0133 28.9034C25.0366 28.9034 25.1122 28.8432 25.1813 28.7696C25.2504 28.696 25.3305 28.6358 25.359 28.6358C25.3878 28.6358 25.5095 28.5355 25.6294 28.4129C25.7493 28.2901 25.869 28.1897 25.8953 28.1897C25.9529 28.1897 27.153 26.9945 27.153 26.9372C27.153 26.915 27.2538 26.7943 27.3769 26.6691C27.5 26.5438 27.6008 26.4228 27.6008 26.4006C27.6008 26.3784 27.6613 26.2973 27.7353 26.2202C27.8092 26.1432 27.8697 26.0629 27.8697 26.0417C27.8697 26.0206 27.9302 25.9403 28.0041 25.8632C28.078 25.7864 28.1385 25.6962 28.1385 25.6631C28.1385 25.6299 28.1555 25.6028 28.1759 25.6028C28.1963 25.6028 28.2418 25.5474 28.2767 25.48C28.3117 25.4126 28.3756 25.3186 28.4187 25.271C28.4617 25.2233 28.4972 25.158 28.4972 25.1259C28.4972 25.0938 28.5173 25.0676 28.5418 25.0676C28.5665 25.0676 28.5867 25.0317 28.5867 24.9881C28.5867 24.9445 28.627 24.8797 28.6762 24.8444C28.7257 24.8091 28.766 24.7446 28.766 24.7009C28.766 24.6571 28.7862 24.6215 28.8106 24.6215C28.8354 24.6215 28.8555 24.5813 28.8555 24.5323C28.8555 24.4831 28.8706 24.443 28.8891 24.4427C28.9077 24.4424 28.9453 24.3975 28.9727 24.3423C29.0002 24.2872 29.1061 24.0841 29.208 23.8906C29.3099 23.6971 29.3932 23.5012 29.3932 23.4557C29.3932 23.4099 29.4134 23.3725 29.4381 23.3725C29.4626 23.3725 29.4827 23.3323 29.4827 23.2833C29.4827 23.2344 29.5029 23.1942 29.5276 23.1942C29.5524 23.1942 29.5725 23.1541 29.5725 23.1048C29.5725 23.0559 29.5927 23.0157 29.6171 23.0157C29.6419 23.0157 29.662 22.9667 29.662 22.9068C29.662 22.8468 29.6822 22.7856 29.7069 22.7703C29.7314 22.7553 29.7516 22.7039 29.7516 22.6563C29.7516 22.6087 29.7717 22.5696 29.7965 22.5696C29.8212 22.5696 29.8414 22.5094 29.8414 22.4358C29.8414 22.3622 29.8615 22.302 29.886 22.302C29.9107 22.302 29.9309 22.2632 29.9309 22.2155C29.9309 22.1679 29.9511 22.1165 29.9758 22.1012C30.0003 22.0863 30.0204 22.026 30.0204 21.9674C30.0204 21.9091 30.0406 21.8489 30.0653 21.8336C30.09 21.8186 30.1102 21.7584 30.1102 21.6998C30.1102 21.6415 30.1304 21.5813 30.1548 21.566C30.1796 21.551 30.1997 21.4694 30.1997 21.3851C30.1997 21.3005 30.2199 21.2315 30.2446 21.2315C30.2691 21.2315 30.2892 21.1726 30.2892 21.1003C30.2892 21.0283 30.3094 20.9569 30.3341 20.9416C30.3589 20.9264 30.379 20.845 30.379 20.7605C30.379 20.6761 30.3992 20.6071 30.4237 20.6071C30.4484 20.6071 30.4686 20.5279 30.4686 20.4313C30.4686 20.3347 30.4887 20.2431 30.5135 20.2279C30.5379 20.2129 30.5581 20.1112 30.5581 20.0023C30.5581 19.8933 30.5783 19.8042 30.603 19.8042C30.6277 19.8042 30.6479 19.7049 30.6479 19.584C30.6479 19.4627 30.668 19.3511 30.6925 19.3359C30.7172 19.3206 30.7374 19.1791 30.7374 19.0209C30.7374 18.8592 30.757 18.7337 30.7823 18.7337C30.8084 18.7337 30.8269 18.5849 30.8269 18.377C30.8269 18.1688 30.8458 18.02 30.8718 18.02C30.8995 18.02 30.9167 17.7756 30.9167 17.3761C30.9167 16.9947 30.935 16.7207 30.9614 16.7043C31.0218 16.6671 31.0218 15.3437 30.9614 15.3437C30.9334 15.3437 30.9167 15.0761 30.9167 14.6303C30.9167 14.1841 30.8998 13.9165 30.8718 13.9165C30.8452 13.9165 30.8269 13.7538 30.8269 13.5177C30.8269 13.2983 30.8068 13.1064 30.7823 13.0914C30.7576 13.0762 30.7374 12.9346 30.7374 12.7764C30.7374 12.6148 30.7178 12.4893 30.6925 12.4893C30.668 12.4893 30.6479 12.3889 30.6479 12.2661C30.6479 12.1435 30.6277 12.0431 30.603 12.0431C30.5783 12.0431 30.5581 11.9428 30.5581 11.8202C30.5581 11.6974 30.5379 11.597 30.5135 11.597C30.4887 11.597 30.4686 11.5167 30.4686 11.4188C30.4686 11.3205 30.4484 11.2403 30.4237 11.2403C30.3992 11.2403 30.379 11.16 30.379 11.0618C30.379 10.9638 30.3589 10.8835 30.3341 10.8835C30.3094 10.8835 30.2892 10.8145 30.2892 10.7299C30.2892 10.6456 30.2691 10.564 30.2446 10.549C30.2199 10.5337 30.1997 10.4623 30.1997 10.39C30.1997 10.318 30.1796 10.2589 30.1548 10.2589C30.1304 10.2589 30.1102 10.1987 30.1102 10.1251C30.1102 10.0515 30.09 9.99126 30.0653 9.99126C30.0406 9.99126 30.0204 9.93104 30.0204 9.85745C30.0204 9.78385 30.0003 9.72363 29.9758 9.72363C29.9511 9.72363 29.9309 9.66342 29.9309 9.58982C29.9309 9.51623 29.9107 9.45601 29.886 9.45601C29.8615 9.45601 29.8414 9.41587 29.8414 9.36689C29.8414 9.31792 29.8212 9.27777 29.7965 9.27777C29.7717 9.27777 29.7516 9.21756 29.7516 9.14396C29.7516 9.07036 29.7314 9.01015 29.7069 9.01015C29.6822 9.01015 29.662 8.97001 29.662 8.92076C29.662 8.87179 29.6419 8.83164 29.6171 8.83164C29.5927 8.83164 29.5725 8.78267 29.5725 8.72272C29.5725 8.66277 29.5524 8.60149 29.5276 8.58623C29.5029 8.57125 29.4827 8.51986 29.4827 8.47223C29.4827 8.42459 29.4626 8.38551 29.4381 8.38551C29.4134 8.38551 29.3932 8.34537 29.3932 8.2964C29.3932 8.24742 29.373 8.20728 29.3483 8.20728C29.3238 8.20728 29.3037 8.16713 29.3037 8.11789C29.3037 8.06892 29.2835 8.02877 29.2588 8.02877C29.2341 8.02877 29.2139 7.98863 29.2139 7.93965C29.2139 7.89041 29.1937 7.85027 29.1693 7.85027C29.1445 7.85027 29.1244 7.81012 29.1244 7.76115C29.1244 7.71217 29.1042 7.67203 29.0795 7.67203C29.055 7.67203 29.0348 7.63189 29.0348 7.58264C29.0348 7.53367 29.0147 7.49352 28.9899 7.49352C28.9652 7.49352 28.945 7.45338 28.945 7.4044C28.945 7.35516 28.9249 7.31502 28.9004 7.31502C28.8757 7.31502 28.8555 7.28879 28.8555 7.25668C28.8555 7.22456 28.8152 7.15498 28.766 7.10226C28.7165 7.0498 28.6762 6.97567 28.6762 6.93794C28.6762 6.89993 28.656 6.86916 28.6316 6.86916C28.6068 6.86916 28.5867 6.83329 28.5867 6.78967C28.5867 6.74605 28.5464 6.68128 28.4972 6.64596C28.4477 6.61063 28.4074 6.55042 28.4074 6.51215C28.4074 6.47388 28.367 6.41366 28.3178 6.37833C28.2686 6.34301 28.2283 6.28279 28.2283 6.24452C28.2283 6.20625 28.188 6.14604 28.1385 6.11071C28.0893 6.07538 28.049 6.01517 28.049 5.9769C28.049 5.93863 28.0087 5.87841 27.9595 5.84309C27.91 5.80776 27.8697 5.75745 27.8697 5.73122C27.8697 5.70499 27.789 5.59473 27.6906 5.48634C27.592 5.37796 27.5113 5.27171 27.5113 5.25057C27.5113 5.22916 27.4307 5.13469 27.332 5.04021C27.2336 4.94601 27.153 4.84993 27.153 4.82665C27.153 4.76751 26.0892 3.70076 25.8983 3.56855C25.812 3.5086 25.6673 3.38389 25.577 3.29102C25.4864 3.19816 25.3937 3.12242 25.3708 3.12242C25.348 3.12242 25.2657 3.0622 25.1885 2.98861C25.1111 2.91501 25.0323 2.85453 25.0138 2.85453C24.995 2.85453 24.9092 2.79431 24.8229 2.72098C24.7366 2.64739 24.6501 2.58717 24.6307 2.58717C24.6111 2.58717 24.5519 2.54703 24.499 2.49779C24.446 2.44881 24.3764 2.40867 24.3441 2.40867C24.3116 2.40867 24.2852 2.38859 24.2852 2.36397C24.2852 2.33962 24.2589 2.31955 24.2264 2.31955C24.1941 2.31955 24.1245 2.2794 24.0715 2.23016C24.0185 2.18119 23.9443 2.14104 23.9062 2.14104C23.8683 2.14104 23.8371 2.12097 23.8371 2.09635C23.8371 2.072 23.7968 2.05192 23.7476 2.05192C23.6984 2.05192 23.658 2.03185 23.658 2.00723C23.658 1.98261 23.6268 1.96254 23.5889 1.96254C23.5508 1.96254 23.4766 1.92239 23.4236 1.87342C23.3706 1.82444 23.301 1.7843 23.2688 1.7843C23.2362 1.7843 23.2099 1.76423 23.2099 1.73961C23.2099 1.71499 23.1695 1.69491 23.1204 1.69491C23.0709 1.69491 23.0306 1.67484 23.0306 1.65049C23.0306 1.62587 22.9902 1.60579 22.941 1.60579C22.8918 1.60579 22.8515 1.58572 22.8515 1.5611C22.8515 1.53675 22.8112 1.51668 22.7617 1.51668C22.7125 1.51668 22.6722 1.4966 22.6722 1.47198C22.6722 1.44736 22.6319 1.42729 22.5827 1.42729C22.5332 1.42729 22.4929 1.40722 22.4929 1.38286C22.4929 1.35824 22.4625 1.33817 22.4251 1.33817C22.3593 1.33817 22.3117 1.31944 22.1014 1.21132C22.0463 1.18295 21.9708 1.15967 21.9334 1.15967C21.8963 1.15967 21.8657 1.13959 21.8657 1.11524C21.8657 1.09062 21.8264 1.07055 21.7788 1.07055C21.731 1.07055 21.6794 1.05047 21.664 1.02585C21.6487 1.0015 21.5872 0.981428 21.5269 0.981428C21.4667 0.981428 21.4175 0.961356 21.4175 0.936734C21.4175 0.912113 21.357 0.892041 21.2831 0.892041C21.2092 0.892041 21.1487 0.871969 21.1487 0.847616C21.1487 0.822994 21.0882 0.802922 21.0143 0.802922C20.9403 0.802922 20.8798 0.782851 20.8798 0.758229C20.8798 0.733875 20.8193 0.713804 20.7454 0.713804C20.6715 0.713804 20.611 0.693732 20.611 0.66911C20.611 0.644489 20.5416 0.624417 20.4569 0.624417C20.372 0.624417 20.2903 0.604345 20.2749 0.579992C20.2599 0.55537 20.1892 0.535298 20.1182 0.535298C20.0472 0.535298 19.9765 0.515227 19.9615 0.490605C19.9462 0.466251 19.8556 0.446179 19.7598 0.446179C19.6641 0.446179 19.5733 0.426108 19.5582 0.401486C19.5429 0.376865 19.4523 0.356793 19.3566 0.356793C19.2609 0.356793 19.17 0.336721 19.155 0.312367C19.1396 0.287746 19.0176 0.267674 18.8834 0.267674C18.7493 0.267674 18.6396 0.247603 18.6396 0.222981C18.6396 0.19836 18.521 0.178555 18.3734 0.178555C18.2269 0.178555 18.0946 0.158484 18.0796 0.133862C18.0643 0.109241 17.8634 0.0891691 17.6314 0.0891691C17.3994 0.0891691 17.1986 0.0693648 17.1833 0.0447434C17.1655 0.0161076 16.4967 5.02467e-05 15.324 5.02467e-05C14.151 5.02467e-05 13.4821 0.0161076 13.4644 0.0447434ZM82.2876 0.0447434C82.2723 0.0690972 82.0795 0.0891691 81.8593 0.0891691C81.6219 0.0891691 81.4587 0.107367 81.4587 0.133862C81.4587 0.159287 81.3243 0.178555 81.145 0.178555C80.9657 0.178555 80.8313 0.197557 80.8313 0.222981C80.8313 0.247603 80.7216 0.267674 80.5877 0.267674C80.4536 0.267674 80.3312 0.287746 80.3162 0.312367C80.3008 0.336721 80.2089 0.356793 80.1119 0.356793C80.0148 0.356793 79.9352 0.376865 79.9352 0.401486C79.9352 0.426108 79.8556 0.446179 79.7586 0.446179C79.6615 0.446179 79.5696 0.466251 79.5543 0.490605C79.5392 0.515227 79.4572 0.535298 79.3725 0.535298C79.2876 0.535298 79.2182 0.55537 79.2182 0.579992C79.2182 0.604345 79.1376 0.624417 79.0392 0.624417C78.9405 0.624417 78.8599 0.644489 78.8599 0.66911C78.8599 0.693732 78.7994 0.713804 78.7254 0.713804C78.6515 0.713804 78.591 0.733875 78.591 0.758229C78.591 0.782851 78.5305 0.802922 78.4566 0.802922C78.3827 0.802922 78.3222 0.822994 78.3222 0.847616C78.3222 0.871969 78.2617 0.892041 78.1878 0.892041C78.1138 0.892041 78.0533 0.912113 78.0533 0.936734C78.0533 0.961356 78.013 0.981428 77.9638 0.981428C77.9144 0.981428 77.874 1.0015 77.874 1.02585C77.874 1.05047 77.8135 1.07055 77.7396 1.07055C77.6657 1.07055 77.6052 1.09062 77.6052 1.11524C77.6052 1.13959 77.5649 1.15967 77.5157 1.15967C77.4665 1.15967 77.4261 1.17974 77.4261 1.20436C77.4261 1.22898 77.3858 1.24905 77.3363 1.24905C77.2871 1.24905 77.2468 1.26912 77.2468 1.29348C77.2468 1.3181 77.2186 1.33817 77.1839 1.33817C77.1092 1.33817 76.7382 1.52417 76.7167 1.57234C76.7083 1.59081 76.6629 1.60579 76.6159 1.60579C76.5685 1.60579 76.5298 1.62587 76.5298 1.65049C76.5298 1.67484 76.4895 1.69491 76.4403 1.69491C76.3911 1.69491 76.3508 1.71499 76.3508 1.73961C76.3508 1.76423 76.3196 1.7843 76.2817 1.7843C76.2435 1.7843 76.1693 1.82444 76.1164 1.87342C76.0634 1.92239 75.9938 1.96254 75.9615 1.96254C75.929 1.96254 75.9026 1.98261 75.9026 2.00723C75.9026 2.03185 75.8763 2.05192 75.8437 2.05192C75.8115 2.05192 75.7418 2.09207 75.6889 2.14104C75.6359 2.19002 75.5746 2.23016 75.5526 2.23016C75.5305 2.23016 75.4494 2.29038 75.3719 2.36397C75.2945 2.43757 75.2109 2.49779 75.1862 2.49779C75.1614 2.49779 75.0579 2.57807 74.9563 2.67629C74.8547 2.77451 74.7536 2.8548 74.7316 2.8548C74.6767 2.8548 73.889 3.64375 73.7522 3.83591C73.6909 3.92181 73.5852 4.05027 73.5172 4.12146C73.4492 4.19238 73.3935 4.27347 73.3935 4.30104C73.3935 4.32887 73.3532 4.38052 73.3037 4.41585C73.2545 4.45117 73.2142 4.51139 73.2142 4.54966C73.2142 4.58793 73.1739 4.64814 73.1247 4.68347C73.0752 4.7188 73.0349 4.78169 73.0349 4.82344C73.0349 4.86492 73.0198 4.90587 73.0013 4.9139C72.9594 4.93263 72.8139 5.17001 72.7806 5.27439C72.7669 5.31747 72.7378 5.35253 72.7161 5.35253C72.6943 5.35253 72.6765 5.39267 72.6765 5.44165C72.6765 5.49089 72.6564 5.53104 72.6316 5.53104C72.6072 5.53104 72.587 5.57118 72.587 5.62016C72.587 5.66913 72.5668 5.70927 72.5421 5.70927C72.5174 5.70927 72.4972 5.74835 72.4972 5.79598C72.4972 5.84362 72.4771 5.89501 72.4526 5.90999C72.4279 5.92525 72.4077 5.98653 72.4077 6.04648C72.4077 6.10643 72.3875 6.1554 72.3628 6.1554C72.3383 6.1554 72.3182 6.19555 72.3182 6.24452C72.3182 6.29377 72.298 6.33391 72.2733 6.33391C72.2485 6.33391 72.2284 6.39412 72.2284 6.46772C72.2284 6.54132 72.2082 6.60153 72.1837 6.60153C72.159 6.60153 72.1389 6.66175 72.1389 6.73534C72.1389 6.80894 72.1187 6.86916 72.094 6.86916C72.0695 6.86916 72.0493 6.92937 72.0493 7.00297C72.0493 7.07657 72.0292 7.13678 72.0044 7.13678C71.9797 7.13678 71.9595 7.20583 71.9595 7.29013C71.9595 7.3747 71.9394 7.45606 71.9149 7.47131C71.8902 7.4863 71.87 7.57782 71.87 7.6747C71.87 7.77132 71.8498 7.85027 71.8251 7.85027C71.8007 7.85027 71.7805 7.95063 71.7805 8.07346C71.7805 8.19604 71.7603 8.2964 71.7356 8.2964C71.7095 8.2964 71.6907 8.44519 71.6907 8.65314C71.6907 8.86135 71.6721 9.01015 71.6461 9.01015C71.6176 9.01015 71.6012 9.3222 71.6012 9.85745C71.6012 10.3927 71.6176 10.705 71.6461 10.705C71.6721 10.705 71.6907 10.8538 71.6907 11.0618C71.6907 11.27 71.7095 11.4188 71.7356 11.4188C71.7603 11.4188 71.7805 11.5191 71.7805 11.6417C71.7805 11.7643 71.8007 11.8646 71.8251 11.8646C71.8498 11.8646 71.87 11.9449 71.87 12.0431C71.87 12.1414 71.8902 12.2216 71.9149 12.2216C71.9394 12.2216 71.9595 12.2819 71.9595 12.3554C71.9595 12.429 71.9797 12.4893 72.0044 12.4893C72.0292 12.4893 72.0493 12.5495 72.0493 12.6231C72.0493 12.6967 72.0695 12.7569 72.094 12.7569C72.1187 12.7569 72.1389 12.8059 72.1389 12.8655C72.1389 12.9255 72.159 12.987 72.1837 13.002C72.2082 13.0173 72.2284 13.0687 72.2284 13.1163C72.2284 13.1639 72.2485 13.2027 72.2733 13.2027C72.298 13.2027 72.3182 13.2429 72.3182 13.2921C72.3182 13.3411 72.3383 13.3813 72.3628 13.3813C72.3875 13.3813 72.4077 13.4214 72.4077 13.4704C72.4077 13.5196 72.4279 13.5598 72.4526 13.5598C72.4771 13.5598 72.4972 13.5999 72.4972 13.6489C72.4972 13.6979 72.5174 13.738 72.5421 13.738C72.5668 13.738 72.587 13.7645 72.587 13.7966C72.587 13.8287 72.6273 13.898 72.6765 13.9508C72.7257 14.0035 72.7661 14.0731 72.7661 14.1054C72.7661 14.1378 72.8064 14.1935 72.8558 14.2288C72.905 14.2641 72.9454 14.3206 72.9454 14.3546C72.9454 14.3883 73.0059 14.4721 73.0798 14.5409C73.1537 14.6096 73.2142 14.6873 73.2142 14.7129C73.2142 14.7389 73.3865 14.9316 73.597 15.1411C73.8075 15.3507 74.0011 15.5222 74.0272 15.5222C74.053 15.5222 74.131 15.5825 74.2 15.6561C74.2691 15.7297 74.3503 15.7899 74.3807 15.7899C74.4111 15.7899 74.4686 15.8252 74.5084 15.8683C74.5482 15.9114 74.6364 15.9751 74.7041 16.0096C74.7719 16.0441 74.8273 16.0893 74.8273 16.1097C74.8273 16.13 74.863 16.1466 74.9071 16.1466C74.9509 16.1466 75.0157 16.1868 75.0512 16.236C75.0867 16.285 75.1517 16.3251 75.1956 16.3251C75.2394 16.3251 75.2754 16.3452 75.2754 16.3698C75.2754 16.3942 75.3018 16.4142 75.334 16.4142C75.3663 16.4142 75.4362 16.4544 75.4891 16.5036C75.5418 16.5526 75.6163 16.5927 75.6542 16.5927C75.6924 16.5927 75.7233 16.6128 75.7233 16.6374C75.7233 16.6618 75.7636 16.6819 75.8131 16.6819C75.8623 16.6819 75.9026 16.7019 75.9026 16.7266C75.9026 16.7512 75.9429 16.7712 75.9921 16.7712C76.0416 16.7712 76.0819 16.7913 76.0819 16.8157C76.0819 16.8403 76.1223 16.8604 76.1715 16.8604C76.2207 16.8604 76.261 16.8804 76.261 16.9051C76.261 16.9294 76.3013 16.9495 76.3508 16.9495C76.4 16.9495 76.4403 16.9696 76.4403 16.9942C76.4403 17.0188 76.4806 17.0389 76.5298 17.0389C76.5793 17.0389 76.6196 17.0589 76.6196 17.0833C76.6196 17.1079 76.6586 17.128 76.7064 17.128C76.7543 17.128 76.8059 17.1481 76.8212 17.1727C76.8363 17.197 76.8981 17.2171 76.9584 17.2171C77.0183 17.2171 77.0675 17.2372 77.0675 17.2618C77.0675 17.2864 77.1078 17.3065 77.1573 17.3065C77.2065 17.3065 77.2468 17.3266 77.2468 17.3509C77.2468 17.3755 77.3073 17.3956 77.3812 17.3956C77.4552 17.3956 77.5157 17.4157 77.5157 17.4403C77.5157 17.4647 77.556 17.4847 77.6052 17.4847C77.6547 17.4847 77.695 17.5048 77.695 17.5294C77.695 17.554 77.7555 17.5741 77.8294 17.5741C77.9033 17.5741 77.9638 17.5942 77.9638 17.6185C77.9638 17.6432 78.0243 17.6632 78.0982 17.6632C78.1722 17.6632 78.2327 17.6833 78.2327 17.7079C78.2327 17.7323 78.2716 17.7524 78.3195 17.7524C78.3673 17.7524 78.419 17.7724 78.4343 17.797C78.4493 17.8217 78.5098 17.8417 78.5687 17.8417C78.6273 17.8417 78.6878 17.8618 78.7031 17.8862C78.7182 17.9108 78.7787 17.9309 78.8375 17.9309C78.8962 17.9309 78.9566 17.9509 78.972 17.9756C78.987 17.9999 79.069 18.02 79.1537 18.02C79.2387 18.02 79.308 18.0401 79.308 18.0647C79.308 18.0893 79.3685 18.1094 79.4424 18.1094C79.5164 18.1094 79.5769 18.1294 79.5769 18.1538C79.5769 18.1784 79.6373 18.1985 79.7113 18.1985C79.7852 18.1985 79.8457 18.2186 79.8457 18.2432C79.8457 18.2675 79.9264 18.2876 80.0248 18.2876C80.1234 18.2876 80.2041 18.3077 80.2041 18.3323C80.2041 18.3569 80.2646 18.377 80.3385 18.377C80.4124 18.377 80.4729 18.3971 80.4729 18.4214C80.4729 18.446 80.5536 18.4661 80.6522 18.4661C80.7506 18.4661 80.8313 18.4862 80.8313 18.5108C80.8313 18.5352 80.8907 18.5552 80.963 18.5552C81.0356 18.5552 81.1074 18.5753 81.1227 18.5999C81.1377 18.6245 81.2197 18.6446 81.3044 18.6446C81.3894 18.6446 81.4587 18.6647 81.4587 18.689C81.4587 18.7137 81.5394 18.7337 81.6378 18.7337C81.7365 18.7337 81.8171 18.7538 81.8171 18.7784C81.8171 18.8028 81.8765 18.8229 81.9488 18.8229C82.0214 18.8229 82.0932 18.8429 82.1083 18.8675C82.1236 18.8922 82.2053 18.9122 82.2903 18.9122C82.375 18.9122 82.4443 18.9323 82.4443 18.9567C82.4443 18.9813 82.525 19.0014 82.6236 19.0014C82.7223 19.0014 82.8029 19.0214 82.8029 19.0461C82.8029 19.0704 82.8621 19.0905 82.9347 19.0905C83.007 19.0905 83.0788 19.1105 83.0941 19.1352C83.1094 19.1598 83.1912 19.1799 83.2761 19.1799C83.3608 19.1799 83.4302 19.1999 83.4302 19.2243C83.4302 19.2489 83.4906 19.269 83.5646 19.269C83.6385 19.269 83.699 19.2891 83.699 19.3137C83.699 19.338 83.7796 19.3581 83.8783 19.3581C83.9767 19.3581 84.0574 19.3782 84.0574 19.4028C84.0574 19.4274 84.1178 19.4475 84.1918 19.4475C84.2657 19.4475 84.3262 19.4676 84.3262 19.4919C84.3262 19.5165 84.3867 19.5366 84.4606 19.5366C84.5346 19.5366 84.595 19.5567 84.595 19.5813C84.595 19.6057 84.6555 19.6257 84.7295 19.6257C84.8034 19.6257 84.8639 19.6458 84.8639 19.6704C84.8639 19.695 84.9244 19.7151 84.9983 19.7151C85.0722 19.7151 85.1327 19.7352 85.1327 19.7595C85.1327 19.7842 85.1932 19.8042 85.2671 19.8042C85.3411 19.8042 85.4016 19.8243 85.4016 19.8489C85.4016 19.8733 85.4621 19.8933 85.536 19.8933C85.6099 19.8933 85.6704 19.9134 85.6704 19.938C85.6704 19.9627 85.7196 19.9827 85.7798 19.9827C85.84 19.9827 85.9016 20.0028 85.9169 20.0272C85.9323 20.0518 85.9839 20.0719 86.0317 20.0719C86.0793 20.0719 86.1186 20.0919 86.1186 20.1165C86.1186 20.1409 86.1678 20.161 86.228 20.161C86.2882 20.161 86.3498 20.181 86.3651 20.2057C86.3801 20.2303 86.4318 20.2504 86.4796 20.2504C86.5275 20.2504 86.5667 20.2704 86.5667 20.2948C86.5667 20.3194 86.5971 20.3395 86.6345 20.3395C86.6718 20.3395 86.7423 20.3595 86.7912 20.3842C86.8401 20.4085 86.9202 20.4487 86.9692 20.4733C87.0181 20.4979 87.0888 20.518 87.1262 20.518C87.1633 20.518 87.1939 20.5381 87.1939 20.5624C87.1939 20.587 87.2342 20.6071 87.2834 20.6071C87.3329 20.6071 87.3732 20.6272 87.3732 20.6518C87.3732 20.6761 87.4136 20.6962 87.4628 20.6962C87.512 20.6962 87.5523 20.7163 87.5523 20.7409C87.5523 20.7655 87.5926 20.7856 87.6421 20.7856C87.6913 20.7856 87.7316 20.8022 87.7316 20.8225C87.7316 20.8429 87.787 20.8881 87.8547 20.9229C88.009 21.0021 88.0515 21.0447 88.1311 21.198C88.1663 21.2655 88.2115 21.3209 88.2319 21.3209C88.2526 21.3209 88.2693 21.361 88.2693 21.41C88.2693 21.4589 88.2894 21.4991 88.3142 21.4991C88.3386 21.4991 88.3588 21.5392 88.3588 21.5885C88.3588 21.6375 88.379 21.6776 88.4037 21.6776C88.4284 21.6776 88.4486 21.7177 88.4486 21.7667C88.4486 21.816 88.4688 21.8561 88.4932 21.8561C88.518 21.8561 88.5381 21.8962 88.5381 21.9452C88.5381 21.9942 88.5583 22.0343 88.583 22.0343C88.6075 22.0343 88.6276 22.0745 88.6276 22.1237C88.6276 22.1727 88.6478 22.2128 88.6725 22.2128C88.6973 22.2128 88.7174 22.3132 88.7174 22.4358C88.7174 22.5586 88.6973 22.659 88.6725 22.659C88.6478 22.659 88.6276 22.7192 88.6276 22.7928C88.6276 22.8664 88.6075 22.9266 88.583 22.9266C88.5583 22.9266 88.5381 22.9667 88.5381 23.0157C88.5381 23.0647 88.518 23.1048 88.4932 23.1048C88.4688 23.1048 88.4486 23.145 88.4486 23.1942C88.4486 23.2432 88.4284 23.2833 88.4037 23.2833C88.379 23.2833 88.3588 23.3189 88.3588 23.3628C88.3588 23.4064 88.3185 23.4709 88.2693 23.5063C88.2201 23.5416 88.1798 23.5978 88.1798 23.6307C88.1798 23.7038 87.5198 24.3538 87.4456 24.3538C87.4168 24.3538 87.3638 24.394 87.3283 24.443C87.2929 24.4922 87.2278 24.5323 87.184 24.5323C87.1402 24.5323 87.1044 24.5524 87.1044 24.5768C87.1044 24.6014 87.0641 24.6215 87.0146 24.6215C86.9654 24.6215 86.9251 24.6415 86.9251 24.6662C86.9251 24.6905 86.8848 24.7106 86.8356 24.7106C86.7861 24.7106 86.7458 24.7307 86.7458 24.7553C86.7458 24.7799 86.6966 24.8 86.6366 24.8C86.5764 24.8 86.5146 24.82 86.4995 24.8444C86.4842 24.869 86.4237 24.8891 86.3651 24.8891C86.3062 24.8891 86.2457 24.9092 86.2307 24.9338C86.2153 24.9581 86.1436 24.9782 86.071 24.9782C85.9987 24.9782 85.9392 24.9983 85.9392 25.0229C85.9392 25.0478 85.8199 25.0676 85.6704 25.0676C85.5212 25.0676 85.4016 25.0874 85.4016 25.112C85.4016 25.1404 85.0881 25.1567 84.5504 25.1567C84.0127 25.1567 83.699 25.1404 83.699 25.112C83.699 25.0874 83.5796 25.0676 83.4302 25.0676C83.2807 25.0676 83.1613 25.0478 83.1613 25.0229C83.1613 24.9983 83.0807 24.9782 82.982 24.9782C82.8836 24.9782 82.8029 24.9581 82.8029 24.9338C82.8029 24.9092 82.7435 24.8891 82.6712 24.8891C82.5986 24.8891 82.5269 24.869 82.5115 24.8444C82.4965 24.82 82.436 24.8 82.3771 24.8C82.3185 24.8 82.258 24.7799 82.2427 24.7553C82.2276 24.7307 82.1658 24.7106 82.1056 24.7106C82.0456 24.7106 81.9964 24.6905 81.9964 24.6662C81.9964 24.6415 81.9572 24.6215 81.9093 24.6215C81.8615 24.6215 81.8098 24.6014 81.7948 24.5768C81.7795 24.5524 81.7179 24.5323 81.6577 24.5323C81.5975 24.5323 81.5483 24.5123 81.5483 24.4877C81.5483 24.463 81.5219 24.443 81.4894 24.443C81.4571 24.443 81.3875 24.4028 81.3345 24.3538C81.2816 24.3049 81.2171 24.2647 81.1907 24.2647C81.1224 24.2647 80.6522 23.7873 80.6522 23.718C80.6522 23.6858 80.6119 23.631 80.5624 23.5957C80.5132 23.5603 80.4729 23.4956 80.4729 23.4519C80.4729 23.4083 80.4527 23.3725 80.428 23.3725C80.4035 23.3725 80.3834 23.3323 80.3834 23.2833C80.3834 23.2344 80.3632 23.1942 80.3385 23.1942C80.3138 23.1942 80.2936 23.1541 80.2936 23.1048C80.2936 23.0559 80.2734 23.0157 80.249 23.0157C80.2242 23.0157 80.2041 22.9667 80.2041 22.9068C80.2041 22.8468 80.1839 22.7856 80.1592 22.7703C80.1347 22.7553 80.1145 22.6951 80.1145 22.6365C80.1145 22.5782 80.0944 22.5179 80.0696 22.5027C80.0449 22.4877 80.0248 22.4162 80.0248 22.344C80.0248 22.272 80.0046 22.2128 79.9801 22.2128C79.9554 22.2128 79.9352 22.1326 79.9352 22.0343C79.9352 21.9364 79.9151 21.8561 79.8903 21.8561C79.8659 21.8561 79.8457 21.7557 79.8457 21.6329C79.8457 21.5103 79.8255 21.41 79.8008 21.41C79.7761 21.41 79.7559 21.3096 79.7559 21.187V20.9638H79.0865C78.6886 20.9638 78.4058 20.9459 78.3894 20.9194C78.3714 20.8902 77.2017 20.8747 75.0262 20.8747C72.8325 20.8747 71.6907 20.89 71.6907 20.9194C71.6907 20.947 71.4517 20.9638 71.0635 20.9638H70.4363V21.4742C70.4363 21.7664 70.4554 21.9963 70.4809 22.0121C70.5056 22.0274 70.5258 22.1992 70.5258 22.394C70.5258 22.6004 70.5446 22.7481 70.5707 22.7481C70.5952 22.7481 70.6153 22.8573 70.6153 22.9908C70.6153 23.1244 70.6355 23.2459 70.6602 23.2611C70.685 23.2761 70.7051 23.3676 70.7051 23.4645C70.7051 23.5611 70.7253 23.6401 70.7498 23.6401C70.7745 23.6401 70.7946 23.7204 70.7946 23.8186C70.7946 23.9168 70.8148 23.9971 70.8395 23.9971C70.864 23.9971 70.8842 24.056 70.8842 24.1282C70.8842 24.2002 70.9043 24.2717 70.9291 24.2869C70.9538 24.3022 70.974 24.3624 70.974 24.4207C70.974 24.4791 70.9941 24.5393 71.0186 24.5546C71.0433 24.5698 71.0635 24.6311 71.0635 24.691C71.0635 24.751 71.0837 24.8 71.1084 24.8C71.1328 24.8 71.153 24.8602 71.153 24.9338C71.153 25.0074 71.1732 25.0676 71.1979 25.0676C71.2226 25.0676 71.2428 25.1077 71.2428 25.1567C71.2428 25.2057 71.263 25.2458 71.2874 25.2458C71.3122 25.2458 71.3323 25.2948 71.3323 25.3548C71.3323 25.4147 71.3525 25.476 71.3772 25.4912C71.4017 25.5065 71.4219 25.5579 71.4219 25.6055C71.4219 25.6529 71.442 25.692 71.4667 25.692C71.4915 25.692 71.5116 25.7321 71.5116 25.7811C71.5116 25.8303 71.5318 25.8705 71.5563 25.8705C71.581 25.8705 71.6012 25.9012 71.6012 25.9392C71.6012 25.977 71.6415 26.0511 71.6907 26.1036C71.7402 26.1563 71.7805 26.2259 71.7805 26.258C71.7805 26.2901 71.8007 26.3163 71.8251 26.3163C71.8498 26.3163 71.87 26.3565 71.87 26.4057C71.87 26.4547 71.8902 26.4948 71.9149 26.4948C71.9394 26.4948 71.9595 26.5211 71.9595 26.5534C71.9595 26.5856 71.9999 26.6549 72.0493 26.7076C72.0985 26.7603 72.1389 26.8213 72.1389 26.8433C72.1389 26.8652 72.1993 26.946 72.2733 27.0231C72.3472 27.1002 72.4077 27.1853 72.4077 27.2126C72.4077 27.2396 72.4639 27.3151 72.5327 27.3801C72.6013 27.4452 72.7066 27.5688 72.7666 27.6544C72.9015 27.8474 73.6094 28.5467 73.6699 28.5467C73.6941 28.5467 73.7917 28.627 73.8863 28.7249C73.9809 28.8232 74.0772 28.9034 74.1003 28.9034C74.1232 28.9034 74.2052 28.9637 74.2826 29.0373C74.36 29.1109 74.4493 29.1711 74.481 29.1711C74.5127 29.1711 74.5678 29.2112 74.6033 29.2602C74.6388 29.3094 74.6993 29.3496 74.7377 29.3496C74.7762 29.3496 74.8367 29.3897 74.8722 29.4387C74.9076 29.4877 74.9633 29.5278 74.9958 29.5278C75.0284 29.5278 75.0982 29.568 75.1512 29.6172C75.2042 29.6662 75.2738 29.7063 75.3061 29.7063C75.3386 29.7063 75.3649 29.7264 75.3649 29.751C75.3649 29.7754 75.4053 29.7954 75.4545 29.7954C75.5039 29.7954 75.5443 29.8155 75.5443 29.8401C75.5443 29.8648 75.5846 29.8848 75.6338 29.8848C75.683 29.8848 75.7236 29.8998 75.7238 29.9183C75.7238 29.9365 75.7693 29.9737 75.8247 30.0007C75.8798 30.0277 76.0158 30.0954 76.1266 30.1514C76.2376 30.207 76.3634 30.2702 76.4062 30.2919C76.4489 30.3133 76.5145 30.3307 76.5516 30.3307C76.589 30.3307 76.6196 30.3508 76.6196 30.3754C76.6196 30.4 76.6599 30.4201 76.7091 30.4201C76.7583 30.4201 76.7987 30.4401 76.7987 30.4645C76.7987 30.4891 76.8379 30.5092 76.8858 30.5092C76.9336 30.5092 76.9852 30.5293 77.0003 30.5539C77.0156 30.5782 77.0772 30.5983 77.1374 30.5983C77.1976 30.5983 77.2468 30.6184 77.2468 30.643C77.2468 30.6676 77.2861 30.6877 77.3337 30.6877C77.3815 30.6877 77.4331 30.7078 77.4485 30.7321C77.4638 30.7567 77.5253 30.7768 77.5856 30.7768C77.6458 30.7768 77.695 30.7969 77.695 30.8215C77.695 30.8459 77.7555 30.8659 77.8294 30.8659C77.9033 30.8659 77.9638 30.886 77.9638 30.9106C77.9638 30.9352 78.0243 30.9553 78.0982 30.9553C78.1722 30.9553 78.2327 30.9754 78.2327 30.9997C78.2327 31.0244 78.3133 31.0444 78.4117 31.0444C78.5104 31.0444 78.591 31.0645 78.591 31.0891C78.591 31.1135 78.6504 31.1336 78.7228 31.1336C78.7953 31.1336 78.8671 31.1536 78.8822 31.1783C78.8975 31.2029 78.9782 31.2229 79.0615 31.2229C79.1448 31.2229 79.2255 31.243 79.2408 31.2674C79.2559 31.292 79.358 31.3121 79.4674 31.3121C79.5769 31.3121 79.6664 31.3321 79.6664 31.3568C79.6664 31.3811 79.7672 31.4012 79.8903 31.4012C80.0137 31.4012 80.1145 31.4213 80.1145 31.4459C80.1145 31.4708 80.2339 31.4906 80.3834 31.4906C80.5326 31.4906 80.6522 31.5104 80.6522 31.535C80.6522 31.5612 80.8014 31.5797 81.0106 31.5797C81.2197 31.5797 81.369 31.5982 81.369 31.6244C81.369 31.6517 81.5921 31.6688 81.9488 31.6688C82.287 31.6688 82.5403 31.6875 82.5564 31.7135C82.5943 31.7748 85.7602 31.7748 85.7602 31.7135C85.7602 31.6859 85.9841 31.6688 86.3425 31.6688C86.7011 31.6688 86.9251 31.6517 86.9251 31.6244C86.9251 31.5984 87.0735 31.5797 87.2808 31.5797C87.4765 31.5797 87.6491 31.5596 87.6644 31.535C87.6797 31.5106 87.8219 31.4906 87.9808 31.4906C88.1432 31.4906 88.2693 31.471 88.2693 31.4459C88.2693 31.4213 88.379 31.4012 88.5131 31.4012C88.6473 31.4012 88.7693 31.3811 88.7846 31.3568C88.7997 31.3321 88.8916 31.3121 88.989 31.3121C89.086 31.3121 89.1653 31.292 89.1653 31.2674C89.1653 31.243 89.2449 31.2229 89.342 31.2229C89.439 31.2229 89.531 31.2029 89.5463 31.1783C89.5616 31.1536 89.6433 31.1336 89.7283 31.1336C89.813 31.1336 89.8823 31.1135 89.8823 31.0891C89.8823 31.0645 89.963 31.0444 90.0616 31.0444C90.16 31.0444 90.2407 31.0244 90.2407 30.9997C90.2407 30.9754 90.3012 30.9553 90.3751 30.9553C90.449 30.9553 90.5095 30.9352 90.5095 30.9106C90.5095 30.886 90.57 30.8659 90.644 30.8659C90.7179 30.8659 90.7784 30.8459 90.7784 30.8215C90.7784 30.7969 90.8389 30.7768 90.9128 30.7768C90.9867 30.7768 91.0472 30.7567 91.0472 30.7321C91.0472 30.7078 91.0964 30.6877 91.1566 30.6877C91.2168 30.6877 91.2784 30.6676 91.2937 30.643C91.3091 30.6184 91.3607 30.5983 91.4085 30.5983C91.4561 30.5983 91.4954 30.5782 91.4954 30.5539C91.4954 30.5293 91.5446 30.5092 91.6048 30.5092C91.665 30.5092 91.7266 30.4891 91.7419 30.4645C91.7569 30.4401 91.8086 30.4201 91.8564 30.4201C91.9043 30.4201 91.9435 30.4 91.9435 30.3754C91.9435 30.3508 91.9839 30.3307 92.033 30.3307C92.0822 30.3307 92.1226 30.3106 92.1226 30.2863C92.1226 30.2616 92.1629 30.2416 92.2124 30.2416C92.2616 30.2416 92.3019 30.2215 92.3019 30.1969C92.3019 30.1725 92.3422 30.1525 92.3914 30.1525C92.4409 30.1525 92.4812 30.1324 92.4812 30.1078C92.4812 30.0831 92.5215 30.0631 92.5707 30.0631C92.6199 30.0631 92.6603 30.043 92.6603 30.0186C92.6603 29.994 92.7006 29.9739 92.75 29.9739C92.7992 29.9739 92.8396 29.9539 92.8396 29.9292C92.8396 29.9049 92.8799 29.8848 92.9291 29.8848C92.9786 29.8848 93.0189 29.8648 93.0189 29.8401C93.0189 29.8155 93.0498 29.7954 93.088 29.7954C93.1259 29.7954 93.2004 29.7553 93.253 29.7063C93.306 29.6573 93.3759 29.6172 93.4082 29.6172C93.4404 29.6172 93.4668 29.5971 93.4668 29.5725C93.4668 29.5479 93.5071 29.5278 93.5566 29.5278C93.6058 29.5278 93.6461 29.5077 93.6461 29.4834C93.6461 29.4588 93.6724 29.4387 93.705 29.4387C93.7372 29.4387 93.8028 29.4036 93.8504 29.3605C93.8983 29.3177 93.9929 29.254 94.0606 29.2192C94.1284 29.1845 94.1838 29.1392 94.1838 29.1189C94.1838 29.0985 94.2109 29.082 94.2443 29.082C94.2776 29.082 94.3634 29.0266 94.4349 28.9588C94.5061 28.8909 94.6352 28.786 94.7215 28.7255C94.9236 28.5834 95.9761 27.5295 95.9761 27.4687C95.9761 27.4436 96.0366 27.3665 96.1106 27.2977C96.1845 27.2289 96.245 27.1481 96.245 27.1179C96.245 27.0876 96.2802 27.0303 96.3235 26.9907C96.367 26.9511 96.4307 26.8633 96.4657 26.7959C96.5004 26.7285 96.5455 26.6733 96.566 26.6733C96.5867 26.6733 96.6033 26.6423 96.6033 26.6046C96.6033 26.5666 96.6437 26.4927 96.6929 26.44C96.7423 26.3872 96.7827 26.3179 96.7827 26.2858C96.7827 26.2534 96.8028 26.2272 96.8273 26.2272C96.852 26.2272 96.8722 26.1871 96.8722 26.1381C96.8722 26.0888 96.8923 26.0487 96.9171 26.0487C96.9415 26.0487 96.9617 26.0086 96.9617 25.9596C96.9617 25.9106 96.9819 25.8705 97.0066 25.8705C97.0313 25.8705 97.0515 25.8303 97.0515 25.7811C97.0515 25.7321 97.0717 25.692 97.0961 25.692C97.1209 25.692 97.141 25.6518 97.141 25.6028C97.141 25.5536 97.1612 25.5135 97.1859 25.5135C97.2104 25.5135 97.2305 25.4532 97.2305 25.3796C97.2305 25.306 97.2507 25.2458 97.2754 25.2458C97.3002 25.2458 97.3203 25.2057 97.3203 25.1567C97.3203 25.1077 97.3405 25.0676 97.365 25.0676C97.3897 25.0676 97.4099 25.0074 97.4099 24.9338C97.4099 24.8602 97.43 24.8 97.4548 24.8C97.4792 24.8 97.4994 24.7309 97.4994 24.6464C97.4994 24.5621 97.5195 24.4804 97.5443 24.4654C97.569 24.4502 97.5892 24.3801 97.5892 24.3091C97.5892 24.2385 97.6093 24.1684 97.6338 24.1531C97.6585 24.1379 97.6787 24.0375 97.6787 23.9302C97.6787 23.8226 97.6989 23.7222 97.7236 23.707C97.7481 23.692 97.7682 23.5301 97.7682 23.3476C97.7682 23.156 97.7873 23.0157 97.8131 23.0157C97.8397 23.0157 97.858 22.853 97.858 22.617C97.858 22.3975 97.8782 22.2056 97.9026 22.1906C97.9295 22.174 97.9475 21.8714 97.9475 21.4322C97.9475 20.9933 97.9295 20.6906 97.9026 20.674C97.8779 20.6588 97.858 20.458 97.858 20.2252C97.858 19.9744 97.8397 19.8042 97.8131 19.8042C97.7884 19.8042 97.7682 19.7039 97.7682 19.5813C97.7682 19.4585 97.7481 19.3581 97.7236 19.3581C97.6989 19.3581 97.6787 19.269 97.6787 19.1601C97.6787 19.0511 97.6585 18.9497 97.6338 18.9345C97.6093 18.9192 97.5892 18.8477 97.5892 18.7758C97.5892 18.7035 97.569 18.6446 97.5443 18.6446C97.5195 18.6446 97.4994 18.5844 97.4994 18.5108C97.4994 18.4372 97.4792 18.377 97.4548 18.377C97.43 18.377 97.4099 18.3168 97.4099 18.2432C97.4099 18.1696 97.3897 18.1094 97.365 18.1094C97.3405 18.1094 97.3203 18.0703 97.3203 18.0227C97.3203 17.975 97.3002 17.9236 97.2754 17.9086C97.2507 17.8934 97.2305 17.8321 97.2305 17.7722C97.2305 17.7122 97.2104 17.6632 97.1859 17.6632C97.1612 17.6632 97.141 17.6231 97.141 17.5741C97.141 17.5249 97.1209 17.4847 97.0961 17.4847C97.0717 17.4847 97.0515 17.4446 97.0515 17.3956C97.0515 17.3466 97.0313 17.3065 97.0066 17.3065C96.9819 17.3065 96.9617 17.28 96.9617 17.2479C96.9617 17.2158 96.9214 17.1465 96.8722 17.0937C96.823 17.041 96.7827 16.9669 96.7827 16.9291C96.7827 16.8914 96.7657 16.8604 96.7453 16.8604C96.7249 16.8604 96.6797 16.8052 96.6447 16.7378C96.6101 16.6704 96.5461 16.5826 96.5028 16.543C96.4595 16.5034 96.424 16.4496 96.424 16.4233C96.424 16.3674 95.4153 15.3437 95.3602 15.3437C95.3395 15.3437 95.2336 15.2635 95.1247 15.1655C95.0158 15.0673 94.9051 14.987 94.8787 14.987C94.8524 14.987 94.8018 14.9469 94.7663 14.8979C94.7309 14.8486 94.6704 14.8085 94.6319 14.8085C94.5935 14.8085 94.533 14.7683 94.4975 14.7194C94.462 14.6704 94.4061 14.6303 94.3736 14.6303C94.341 14.6303 94.2711 14.5901 94.2182 14.5409C94.1652 14.4919 94.0956 14.4517 94.0633 14.4517C94.0311 14.4517 94.0045 14.4317 94.0045 14.4071C94.0045 14.3827 93.9641 14.3626 93.9149 14.3626C93.8657 14.3626 93.8254 14.3426 93.8254 14.3179C93.8254 14.2933 93.7988 14.2732 93.7665 14.2732C93.7343 14.2732 93.6646 14.2331 93.6117 14.1841C93.5587 14.1351 93.4842 14.095 93.4463 14.095C93.4084 14.095 93.3773 14.0749 93.3773 14.0503C93.3773 14.0257 93.3369 14.0056 93.2877 14.0056C93.2383 14.0056 93.1979 13.9855 93.1979 13.9612C93.1979 13.9366 93.1576 13.9165 93.1084 13.9165C93.0592 13.9165 93.0189 13.8964 93.0189 13.8718C93.0189 13.8475 92.9882 13.8274 92.9509 13.8274C92.9138 13.8274 92.8431 13.8073 92.7941 13.7827C92.7452 13.7581 92.6651 13.7179 92.6162 13.6936C92.5672 13.6689 92.4965 13.6489 92.4594 13.6489C92.4221 13.6489 92.3914 13.6288 92.3914 13.6042C92.3914 13.5798 92.3511 13.5598 92.3019 13.5598C92.2527 13.5598 92.2124 13.5397 92.2124 13.5151C92.2124 13.4904 92.1519 13.4704 92.0779 13.4704C92.004 13.4704 91.9435 13.4503 91.9435 13.4259C91.9435 13.4013 91.9043 13.3813 91.8564 13.3813C91.8086 13.3813 91.7569 13.3612 91.7419 13.3366C91.7266 13.3122 91.665 13.2921 91.6048 13.2921C91.5446 13.2921 91.4954 13.2721 91.4954 13.2474C91.4954 13.2228 91.4349 13.2027 91.3609 13.2027C91.287 13.2027 91.2265 13.1827 91.2265 13.1583C91.2265 13.1337 91.166 13.1136 91.0921 13.1136C91.0182 13.1136 90.9577 13.0936 90.9577 13.0689C90.9577 13.0446 90.8972 13.0245 90.8233 13.0245C90.7493 13.0245 90.6888 13.0044 90.6888 12.9798C90.6888 12.9552 90.6284 12.9351 90.5544 12.9351C90.4805 12.9351 90.42 12.9151 90.42 12.8907C90.42 12.8661 90.3595 12.846 90.2856 12.846C90.2117 12.846 90.1512 12.8259 90.1512 12.8013C90.1512 12.777 90.0918 12.7569 90.0194 12.7569C89.9469 12.7569 89.8751 12.7368 89.86 12.7122C89.8447 12.6876 89.763 12.6675 89.678 12.6675C89.5933 12.6675 89.524 12.6474 89.524 12.6231C89.524 12.5985 89.4433 12.5784 89.3446 12.5784C89.246 12.5784 89.1653 12.5583 89.1653 12.5337C89.1653 12.5093 89.1062 12.4893 89.0336 12.4893C88.9613 12.4893 88.8895 12.4692 88.8742 12.4446C88.8588 12.4199 88.7782 12.3999 88.6949 12.3999C88.6115 12.3999 88.5309 12.3798 88.5158 12.3554C88.5005 12.3308 88.4198 12.3108 88.3365 12.3108C88.2532 12.3108 88.1725 12.2907 88.1572 12.2661C88.1421 12.2417 88.0615 12.2216 87.9781 12.2216C87.8948 12.2216 87.8141 12.2016 87.7988 12.1769C87.7835 12.1523 87.7028 12.1323 87.6195 12.1323C87.5362 12.1323 87.4555 12.1122 87.4404 12.0878C87.4251 12.0632 87.3445 12.0431 87.2611 12.0431C87.1778 12.0431 87.0971 12.0231 87.0818 11.9984C87.0668 11.9741 86.9861 11.954 86.9028 11.954C86.8194 11.954 86.7388 11.9339 86.7234 11.9093C86.7081 11.8847 86.6275 11.8646 86.5441 11.8646C86.4608 11.8646 86.3801 11.8446 86.3651 11.8202C86.3498 11.7956 86.2691 11.7755 86.1858 11.7755C86.1024 11.7755 86.0218 11.7554 86.0065 11.7308C85.9914 11.7065 85.9107 11.6864 85.8274 11.6864C85.7441 11.6864 85.6634 11.6663 85.6481 11.6417C85.6328 11.6171 85.551 11.597 85.4661 11.597C85.3814 11.597 85.312 11.5769 85.312 11.5526C85.312 11.528 85.2314 11.5079 85.1327 11.5079C85.0343 11.5079 84.9537 11.4878 84.9537 11.4632C84.9537 11.4388 84.8943 11.4188 84.8219 11.4188C84.7494 11.4188 84.6776 11.3987 84.6623 11.3741C84.6472 11.3495 84.5652 11.3294 84.4805 11.3294C84.3956 11.3294 84.3262 11.3093 84.3262 11.285C84.3262 11.2603 84.2657 11.2403 84.1918 11.2403C84.1178 11.2403 84.0574 11.2202 84.0574 11.1956C84.0574 11.1712 83.9982 11.1511 83.9256 11.1511C83.8533 11.1511 83.7815 11.1311 83.7662 11.1064C83.7509 11.0818 83.6904 11.0618 83.6318 11.0618C83.5732 11.0618 83.5127 11.0417 83.4974 11.0173C83.482 10.9927 83.4216 10.9726 83.3629 10.9726C83.3043 10.9726 83.2438 10.9526 83.2285 10.9279C83.2132 10.9036 83.1516 10.8835 83.0914 10.8835C83.0312 10.8835 82.982 10.8634 82.982 10.8388C82.982 10.8142 82.9215 10.7941 82.8476 10.7941C82.7736 10.7941 82.7132 10.7741 82.7132 10.7497C82.7132 10.7251 82.6742 10.705 82.6263 10.705C82.5785 10.705 82.5269 10.6849 82.5115 10.6603C82.4965 10.636 82.4346 10.6159 82.3744 10.6159C82.3145 10.6159 82.2653 10.5958 82.2653 10.5712C82.2653 10.5466 82.226 10.5265 82.1782 10.5265C82.1303 10.5265 82.0787 10.5064 82.0636 10.4821C82.0483 10.4575 81.9868 10.4374 81.9265 10.4374C81.8663 10.4374 81.8171 10.4173 81.8171 10.3927C81.8171 10.3683 81.7768 10.3483 81.7276 10.3483C81.6781 10.3483 81.6378 10.3314 81.6378 10.3111C81.6378 10.2907 81.5827 10.2455 81.5155 10.2107C81.3458 10.1229 80.8313 9.60642 80.8313 9.52372C80.8313 9.48652 80.8111 9.45601 80.7866 9.45601C80.7619 9.45601 80.7417 9.41587 80.7417 9.36689C80.7417 9.31792 80.7216 9.27777 80.6969 9.27777C80.6724 9.27777 80.6522 9.23763 80.6522 9.18839C80.6522 9.13941 80.6321 9.09927 80.6073 9.09927C80.5826 9.09927 80.5624 9.01015 80.5624 8.90123C80.5624 8.7923 80.5423 8.69061 80.5178 8.67562C80.4931 8.66036 80.4729 8.60898 80.4729 8.56134C80.4729 8.51371 80.4931 8.4749 80.5178 8.4749C80.5423 8.4749 80.5624 8.39461 80.5624 8.2964C80.5624 8.19818 80.5826 8.11789 80.6073 8.11789C80.6321 8.11789 80.6522 8.07775 80.6522 8.02877C80.6522 7.9798 80.6724 7.93965 80.6969 7.93965C80.7216 7.93965 80.7417 7.90888 80.7417 7.87141C80.7417 7.78845 81.1195 7.4044 81.2012 7.4044C81.2332 7.4044 81.2888 7.36426 81.3243 7.31502C81.3598 7.26604 81.4246 7.2259 81.4684 7.2259C81.5125 7.2259 81.5483 7.20583 81.5483 7.18121C81.5483 7.15685 81.5886 7.13678 81.6378 7.13678C81.6873 7.13678 81.7276 7.11671 81.7276 7.09209C81.7276 7.06747 81.7679 7.04739 81.8171 7.04739C81.8663 7.04739 81.9066 7.02732 81.9066 7.00297C81.9066 6.97835 81.9558 6.95828 82.016 6.95828C82.0763 6.95828 82.1378 6.9382 82.1532 6.91358C82.1685 6.88923 82.229 6.86916 82.2876 6.86916C82.3462 6.86916 82.4067 6.84908 82.422 6.82446C82.4373 6.79984 82.5091 6.77977 82.5814 6.77977C82.654 6.77977 82.7132 6.7597 82.7132 6.73534C82.7132 6.71072 82.8228 6.69065 82.957 6.69065C83.0911 6.69065 83.2132 6.67058 83.2285 6.64596C83.2449 6.61973 83.5119 6.60153 83.8783 6.60153C84.2445 6.60153 84.5117 6.61973 84.5278 6.64596C84.5432 6.67058 84.6652 6.69065 84.7994 6.69065C84.9335 6.69065 85.0432 6.71072 85.0432 6.73534C85.0432 6.7597 85.1126 6.77977 85.1972 6.77977C85.2822 6.77977 85.3639 6.79984 85.3792 6.82446C85.3946 6.84908 85.4551 6.86916 85.5137 6.86916C85.5723 6.86916 85.6328 6.88923 85.6481 6.91358C85.6634 6.9382 85.715 6.95828 85.7629 6.95828C85.8105 6.95828 85.8497 6.97835 85.8497 7.00297C85.8497 7.02732 85.89 7.04739 85.9392 7.04739C85.9887 7.04739 86.029 7.06747 86.029 7.09209C86.029 7.11671 86.0694 7.13678 86.1186 7.13678C86.1678 7.13678 86.2081 7.15685 86.2081 7.18121C86.2081 7.20583 86.2484 7.2259 86.2979 7.2259C86.3471 7.2259 86.3874 7.24249 86.3874 7.2631C86.3874 7.28344 86.4428 7.3284 86.5105 7.36292C86.5783 7.39771 86.664 7.45713 86.7011 7.4954C86.738 7.5334 86.8388 7.61288 86.9251 7.67203C87.0907 7.78523 87.2834 7.98328 87.2834 8.04028C87.2834 8.05901 87.3439 8.13716 87.4179 8.21424C87.4918 8.29131 87.5523 8.38123 87.5523 8.41442C87.5523 8.4476 87.5724 8.4749 87.5972 8.4749C87.6219 8.4749 87.6421 8.51504 87.6421 8.56402C87.6421 8.613 87.6622 8.65314 87.6867 8.65314C87.7114 8.65314 87.7316 8.69328 87.7316 8.74253C87.7316 8.7915 87.7518 8.83164 87.7765 8.83164C87.801 8.83164 87.8211 8.89186 87.8211 8.96546C87.8211 9.03905 87.8413 9.09927 87.866 9.09927C87.8908 9.09927 87.9109 9.15841 87.9109 9.2304C87.9109 9.30266 87.9311 9.37412 87.9555 9.3891C87.9803 9.40436 88.0004 9.50579 88.0004 9.61498V9.81302H92.3468H96.6929V9.41159C96.6929 9.17367 96.6746 9.01015 96.6482 9.01015C96.6224 9.01015 96.6033 8.87634 96.6033 8.69783C96.6033 8.51933 96.5843 8.38551 96.5584 8.38551C96.534 8.38551 96.5138 8.28649 96.5138 8.16526C96.5138 8.04403 96.4937 7.93243 96.4689 7.91717C96.4442 7.90219 96.424 7.80049 96.424 7.69157C96.424 7.58264 96.4039 7.49352 96.3794 7.49352C96.3547 7.49352 96.3345 7.41324 96.3345 7.31502C96.3345 7.21707 96.3143 7.13678 96.2896 7.13678C96.2651 7.13678 96.245 7.07657 96.245 7.00297C96.245 6.92937 96.2248 6.86916 96.2001 6.86916C96.1753 6.86916 96.1552 6.81001 96.1552 6.73802C96.1552 6.66576 96.135 6.59431 96.1106 6.57905C96.0858 6.56407 96.0657 6.50251 96.0657 6.44256C96.0657 6.38288 96.0455 6.33391 96.0208 6.33391C95.9963 6.33391 95.9761 6.27369 95.9761 6.2001C95.9761 6.1265 95.956 6.06628 95.9312 6.06628C95.9065 6.06628 95.8863 6.02721 95.8863 5.97957C95.8863 5.93194 95.8662 5.88055 95.8417 5.86557C95.817 5.85031 95.7968 5.78903 95.7968 5.72908C95.7968 5.66913 95.7767 5.62016 95.7519 5.62016C95.7275 5.62016 95.7073 5.58001 95.7073 5.53104C95.7073 5.48179 95.6871 5.44165 95.6624 5.44165C95.6377 5.44165 95.6175 5.40151 95.6175 5.35253C95.6175 5.30356 95.5973 5.26341 95.5729 5.26341C95.5481 5.26341 95.528 5.22327 95.528 5.17403C95.528 5.12505 95.5078 5.08491 95.4831 5.08491C95.4586 5.08491 95.4385 5.05386 95.4385 5.01613C95.4385 4.97839 95.3981 4.90426 95.3487 4.85154C95.2995 4.79882 95.2591 4.7295 95.2591 4.69739C95.2591 4.66527 95.239 4.63878 95.2142 4.63878C95.1898 4.63878 95.1696 4.60318 95.1696 4.55956C95.1696 4.51594 95.1293 4.45117 95.0798 4.41585C95.0306 4.38052 94.9903 4.32566 94.9903 4.29408C94.9903 4.2625 94.9298 4.17365 94.8559 4.09657C94.7819 4.0195 94.7215 3.93974 94.7215 3.9194C94.7215 3.82038 93.4724 2.58717 93.3721 2.58717C93.3455 2.58717 93.267 2.52696 93.1979 2.45336C93.1288 2.37976 93.0555 2.31928 93.0345 2.31928C93.0135 2.31928 92.9259 2.25906 92.8396 2.18574C92.7533 2.11214 92.6576 2.05192 92.6267 2.05192C92.596 2.05192 92.5707 2.03185 92.5707 2.00723C92.5707 1.98261 92.5444 1.96254 92.5119 1.96254C92.4796 1.96254 92.41 1.92239 92.357 1.87342C92.304 1.82444 92.2298 1.7843 92.1917 1.7843C92.1538 1.7843 92.1226 1.76423 92.1226 1.73961C92.1226 1.71499 92.0822 1.69491 92.033 1.69491C91.9839 1.69491 91.9435 1.67484 91.9435 1.65049C91.9435 1.62587 91.9032 1.60579 91.8537 1.60579C91.8045 1.60579 91.7642 1.58572 91.7642 1.5611C91.7642 1.53675 91.7239 1.51668 91.6747 1.51668C91.6252 1.51668 91.5849 1.4966 91.5849 1.47198C91.5849 1.44736 91.5446 1.42729 91.4954 1.42729C91.4462 1.42729 91.4058 1.40722 91.4058 1.38286C91.4058 1.35824 91.3655 1.33817 91.3161 1.33817C91.2669 1.33817 91.2265 1.3181 91.2265 1.29348C91.2265 1.26912 91.1862 1.24905 91.137 1.24905C91.0875 1.24905 91.0472 1.22898 91.0472 1.20436C91.0472 1.17974 90.9867 1.15967 90.9128 1.15967C90.8389 1.15967 90.7784 1.13959 90.7784 1.11524C90.7784 1.09062 90.738 1.07055 90.6888 1.07055C90.6396 1.07055 90.5993 1.05047 90.5993 1.02585C90.5993 1.0015 90.5388 0.981428 90.4649 0.981428C90.391 0.981428 90.3305 0.961356 90.3305 0.936734C90.3305 0.912113 90.27 0.892041 90.1961 0.892041C90.1221 0.892041 90.0616 0.871969 90.0616 0.847616C90.0616 0.822994 90.0012 0.802922 89.9272 0.802922C89.8533 0.802922 89.7928 0.782851 89.7928 0.758229C89.7928 0.733875 89.7334 0.713804 89.6611 0.713804C89.5885 0.713804 89.5167 0.693732 89.5014 0.66911C89.4863 0.644489 89.4043 0.624417 89.3196 0.624417C89.2347 0.624417 89.1653 0.604345 89.1653 0.579992C89.1653 0.55537 89.0847 0.535298 88.9863 0.535298C88.8876 0.535298 88.807 0.515227 88.807 0.490605C88.807 0.466251 88.7263 0.446179 88.6276 0.446179C88.5293 0.446179 88.4486 0.426108 88.4486 0.401486C88.4486 0.376865 88.369 0.356793 88.272 0.356793C88.1749 0.356793 88.083 0.336721 88.0677 0.312367C88.0523 0.287746 87.9515 0.267674 87.8437 0.267674C87.7356 0.267674 87.6348 0.247603 87.6195 0.222981C87.6044 0.198627 87.462 0.178555 87.3033 0.178555C87.1407 0.178555 87.0146 0.159019 87.0146 0.133862C87.0146 0.106832 86.8205 0.0891691 86.5218 0.0891691C86.2231 0.0891691 86.029 0.0717734 86.029 0.0447434C86.029 0.0155724 85.3801 5.02467e-05 84.1722 5.02467e-05C82.9825 5.02467e-05 82.3053 0.0161076 82.2876 0.0447434ZM68.4872 0.66911C68.4689 0.698281 66.9034 0.713804 63.9365 0.713804H59.4138V15.879V31.0444H59.8617C60.1305 31.0444 60.3099 31.0624 60.3099 31.0891C60.3099 31.1186 61.7436 31.1336 64.5218 31.1336C68.6609 31.1336 68.7335 31.1322 68.7335 31.0471C68.7335 30.9995 68.7536 30.9481 68.7783 30.9328C68.8404 30.8946 68.8404 4.63878 68.7783 4.63878C68.749 4.63878 68.7335 3.94001 68.7335 2.6316V0.624417H68.6243C68.5641 0.624417 68.5022 0.644489 68.4872 0.66911ZM30.7374 0.892041C30.7374 0.990259 30.7576 1.07055 30.7823 1.07055C30.8116 1.07055 30.8269 2.31955 30.8269 4.72816V8.38551H34.5208C36.9353 8.38551 38.2243 8.40104 38.2426 8.43021C38.2585 8.4559 38.4969 8.4749 38.8053 8.4749H39.3403V19.1799C39.3403 26.2866 39.3554 29.8848 39.3852 29.8848C39.4126 29.8848 39.4298 30.1078 39.4298 30.4645V31.0444H39.5616C39.6341 31.0444 39.7059 31.0645 39.7213 31.0891C39.7393 31.1183 41.2824 31.1336 44.2044 31.1336H48.6602V29.4636C48.6602 28.3984 48.6763 27.7837 48.7048 27.766C48.7347 27.7478 48.7497 24.4796 48.7497 18.1067V8.4749H49.5562C50.0641 8.4749 50.3628 8.45831 50.3628 8.43021C50.3628 8.40077 51.5575 8.38551 53.8577 8.38551H57.3526V4.54966V0.713804H44.045H30.7374V0.892041ZM16.1305 7.53822C16.1305 7.56284 16.2499 7.58264 16.3993 7.58264C16.5485 7.58264 16.6682 7.60245 16.6682 7.62734C16.6682 7.65196 16.7488 7.67203 16.8472 7.67203C16.9459 7.67203 17.0265 7.6921 17.0265 7.71645C17.0265 7.74108 17.087 7.76115 17.161 7.76115C17.2349 7.76115 17.2954 7.78122 17.2954 7.80584C17.2954 7.83019 17.3559 7.85027 17.4298 7.85027C17.5037 7.85027 17.5642 7.87034 17.5642 7.89496C17.5642 7.91958 17.6045 7.93965 17.6537 7.93965C17.7032 7.93965 17.7435 7.95972 17.7435 7.98408C17.7435 8.0087 17.7696 8.02877 17.8016 8.02877C17.8841 8.02877 18.1011 8.13368 18.1016 8.17382C18.1016 8.19202 18.1422 8.20728 18.1914 8.20728C18.2409 8.20728 18.2812 8.22735 18.2812 8.2517C18.2812 8.27632 18.3215 8.2964 18.3707 8.2964C18.4199 8.2964 18.4603 8.31299 18.4603 8.3336C18.4603 8.35393 18.5154 8.3989 18.5829 8.43395C18.6501 8.46875 18.7641 8.55224 18.8358 8.61969C18.9076 8.68713 18.985 8.74253 19.0074 8.74253C19.0678 8.74253 19.8045 9.4999 19.8045 9.56172C19.8045 9.59089 19.8448 9.64388 19.8943 9.67921C19.9435 9.71454 19.9838 9.76538 19.9838 9.79215C19.9838 9.81891 20.019 9.87966 20.0623 9.9273C20.1053 9.97467 20.1693 10.0689 20.2042 10.1363C20.2392 10.2038 20.2846 10.2589 20.3051 10.2589C20.3255 10.2589 20.3422 10.299 20.3422 10.3483C20.3422 10.3972 20.3623 10.4374 20.387 10.4374C20.4118 10.4374 20.4319 10.4775 20.4319 10.5265C20.4319 10.5757 20.447 10.6159 20.4656 10.6162C20.5056 10.6167 20.611 10.8327 20.611 10.9146C20.611 10.9464 20.6312 10.9726 20.6559 10.9726C20.6806 10.9726 20.7008 11.0128 20.7008 11.0618C20.7008 11.111 20.7209 11.1511 20.7454 11.1511C20.7701 11.1511 20.7903 11.1913 20.7903 11.2403C20.7903 11.2892 20.8105 11.3294 20.8352 11.3294C20.8597 11.3294 20.8798 11.3784 20.8798 11.4383C20.8798 11.4983 20.9 11.5595 20.9247 11.5748C20.9495 11.59 20.9696 11.6414 20.9696 11.6891C20.9696 11.7364 20.9898 11.7755 21.0143 11.7755C21.039 11.7755 21.0592 11.8357 21.0592 11.9093C21.0592 11.9829 21.0793 12.0431 21.104 12.0431C21.1285 12.0431 21.1487 12.1023 21.1487 12.1743C21.1487 12.2465 21.1688 12.318 21.1936 12.333C21.2183 12.3482 21.2385 12.4296 21.2385 12.5142C21.2385 12.5985 21.2586 12.6675 21.2831 12.6675C21.3078 12.6675 21.328 12.7566 21.328 12.8655C21.328 12.9747 21.3482 13.0762 21.3729 13.0914C21.3974 13.1064 21.4175 13.218 21.4175 13.3392C21.4175 13.4605 21.4377 13.5598 21.4624 13.5598C21.488 13.5598 21.5073 13.6936 21.5073 13.8718C21.5073 14.0503 21.5264 14.1841 21.5519 14.1841C21.581 14.1841 21.5968 14.7483 21.5968 15.7872C21.5968 16.8079 21.5804 17.4004 21.5519 17.4178C21.5275 17.4331 21.5073 17.6148 21.5073 17.8219C21.5073 18.0433 21.4888 18.1985 21.4624 18.1985C21.4374 18.1985 21.4175 18.3173 21.4175 18.4661C21.4175 18.6149 21.3976 18.7337 21.3729 18.7337C21.3482 18.7337 21.328 18.8341 21.328 18.9567C21.328 19.0795 21.3078 19.1799 21.2831 19.1799C21.2586 19.1799 21.2385 19.2387 21.2385 19.311C21.2385 19.383 21.2183 19.4544 21.1936 19.4697C21.1688 19.485 21.1487 19.5663 21.1487 19.6509C21.1487 19.7352 21.1285 19.8042 21.104 19.8042C21.0793 19.8042 21.0592 19.8532 21.0592 19.9132C21.0592 19.9731 21.039 20.0344 21.0143 20.0496C20.9898 20.0646 20.9696 20.116 20.9696 20.1636C20.9696 20.2113 20.9495 20.2504 20.9247 20.2504C20.9 20.2504 20.8798 20.2993 20.8798 20.359C20.8798 20.419 20.8597 20.4805 20.8352 20.4955C20.8105 20.5108 20.7903 20.5621 20.7903 20.6098C20.7903 20.6574 20.7701 20.6962 20.7454 20.6962C20.7209 20.6962 20.7008 20.7364 20.7008 20.7856C20.7008 20.8346 20.6806 20.8747 20.6559 20.8747C20.6312 20.8747 20.611 20.9149 20.611 20.9638C20.611 21.0131 20.5908 21.0532 20.5664 21.0532C20.5416 21.0532 20.5215 21.084 20.5215 21.122C20.5215 21.1597 20.4811 21.2339 20.4319 21.2863C20.3825 21.3391 20.3422 21.4086 20.3422 21.4408C20.3422 21.4729 20.322 21.4991 20.2975 21.4991C20.2728 21.4991 20.2526 21.535 20.2526 21.5786C20.2526 21.6222 20.2123 21.687 20.1631 21.7223C20.1136 21.7576 20.0733 21.8079 20.0733 21.8342C20.0733 21.8604 19.9927 21.9706 19.8943 22.079C19.7956 22.1874 19.7149 22.2923 19.7149 22.3119C19.7149 22.3681 18.8708 23.1942 18.8135 23.1942C18.7853 23.1942 18.7294 23.2293 18.6896 23.2724C18.6498 23.3157 18.5616 23.3792 18.4939 23.4139C18.4261 23.4485 18.3707 23.4934 18.3707 23.5138C18.3707 23.5344 18.3304 23.551 18.2812 23.551C18.2318 23.551 18.1914 23.571 18.1914 23.5957C18.1914 23.62 18.1511 23.6401 18.1019 23.6401C18.0527 23.6401 18.0124 23.6602 18.0124 23.6848C18.0124 23.7094 17.9721 23.7295 17.9226 23.7295C17.8734 23.7295 17.8331 23.7495 17.8331 23.7739C17.8331 23.7985 17.7927 23.8186 17.7435 23.8186C17.6941 23.8186 17.6537 23.8387 17.6537 23.8633C17.6537 23.8876 17.6045 23.9077 17.5446 23.9077C17.4844 23.9077 17.4225 23.9278 17.4075 23.9524C17.3922 23.977 17.3317 23.9971 17.2731 23.9971C17.2142 23.9971 17.1537 24.0172 17.1386 24.0415C17.1233 24.0661 17.0515 24.0862 16.979 24.0862C16.9066 24.0862 16.8472 24.1063 16.8472 24.1309C16.8472 24.1553 16.7464 24.1753 16.6233 24.1753C16.5002 24.1753 16.3993 24.1954 16.3993 24.22C16.3993 24.2481 16.0856 24.2647 15.5479 24.2647C15.0102 24.2647 14.6965 24.2481 14.6965 24.22C14.6965 24.1954 14.5957 24.1753 14.4726 24.1753C14.3494 24.1753 14.2486 24.1553 14.2486 24.1309C14.2486 24.1063 14.168 24.0862 14.0693 24.0862C13.9706 24.0862 13.89 24.0661 13.89 24.0415C13.89 24.0172 13.8295 23.9971 13.7556 23.9971C13.6816 23.9971 13.6211 23.977 13.6211 23.9524C13.6211 23.9278 13.5908 23.9077 13.5534 23.9077C13.516 23.9077 13.4456 23.8876 13.3967 23.8633C13.3477 23.8387 13.2676 23.7985 13.2187 23.7739C13.1698 23.7495 13.0991 23.7295 13.0617 23.7295C13.0246 23.7295 12.9939 23.7094 12.9939 23.6848C12.9939 23.6602 12.9676 23.6401 12.9351 23.6401C12.9028 23.6401 12.8332 23.5999 12.7802 23.551C12.7272 23.502 12.653 23.4618 12.6149 23.4618C12.577 23.4618 12.5458 23.445 12.5458 23.4246C12.5458 23.4043 12.4912 23.3591 12.4243 23.3243C12.1511 23.1822 11.0225 22.06 11.0225 21.9305C11.0225 21.9075 10.987 21.8564 10.9438 21.8168C10.9005 21.7769 10.8365 21.6894 10.8018 21.6219C10.7669 21.5545 10.7217 21.4991 10.7013 21.4991C10.6808 21.4991 10.6639 21.4589 10.6639 21.41C10.6639 21.361 10.6462 21.3209 10.6244 21.3209C10.6026 21.3209 10.5736 21.2855 10.5599 21.2427C10.5268 21.1383 10.3811 20.9007 10.3391 20.8822C10.3206 20.8739 10.3055 20.8199 10.3055 20.7621C10.3055 20.7043 10.2854 20.6446 10.2606 20.6293C10.2362 20.6143 10.216 20.5629 10.216 20.5153C10.216 20.4677 10.1958 20.4286 10.1711 20.4286C10.1464 20.4286 10.1262 20.3885 10.1262 20.3395C10.1262 20.2905 10.106 20.2504 10.0816 20.2504C10.0569 20.2504 10.0367 20.1901 10.0367 20.1165C10.0367 20.043 10.0165 19.9827 9.99179 19.9827C9.96733 19.9827 9.94716 19.9225 9.94716 19.8489C9.94716 19.7753 9.927 19.7151 9.90227 19.7151C9.87754 19.7151 9.85737 19.6461 9.85737 19.5615C9.85737 19.4772 9.83721 19.3956 9.81274 19.3806C9.78801 19.3653 9.76785 19.285 9.76785 19.2021C9.76785 19.1191 9.74769 19.0388 9.72295 19.0236C9.69849 19.0086 9.67832 18.9171 9.67832 18.8202C9.67832 18.7236 9.65816 18.6446 9.63343 18.6446C9.60843 18.6446 9.58853 18.5255 9.58853 18.377C9.58853 18.2282 9.56864 18.1094 9.5439 18.1094C9.51702 18.1094 9.49901 17.9309 9.49901 17.6632C9.49901 17.3956 9.481 17.2171 9.45411 17.2171C9.42535 17.2171 9.40948 16.786 9.40948 16.0128C9.40948 15.2396 9.42535 14.8085 9.45411 14.8085C9.4818 14.8085 9.49901 14.5939 9.49901 14.2537C9.49901 13.9318 9.51783 13.6871 9.5439 13.6711C9.56837 13.6561 9.58853 13.5244 9.58853 13.3786C9.58853 13.2317 9.60869 13.1136 9.63343 13.1136C9.65816 13.1136 9.67832 13.0344 9.67832 12.9378C9.67832 12.8412 9.69849 12.7497 9.72295 12.7344C9.74769 12.7194 9.76785 12.6378 9.76785 12.5535C9.76785 12.4689 9.78801 12.3999 9.81274 12.3999C9.83721 12.3999 9.85737 12.3196 9.85737 12.2216C9.85737 12.1234 9.87754 12.0431 9.90227 12.0431C9.927 12.0431 9.94716 11.9942 9.94716 11.9342C9.94716 11.8743 9.96733 11.813 9.99179 11.7977C10.0165 11.7827 10.0367 11.7314 10.0367 11.6837C10.0367 11.6361 10.0569 11.597 10.0816 11.597C10.106 11.597 10.1262 11.5368 10.1262 11.4632C10.1262 11.3896 10.1464 11.3294 10.1711 11.3294C10.1958 11.3294 10.216 11.2892 10.216 11.2403C10.216 11.1913 10.2362 11.1511 10.2606 11.1511C10.2854 11.1511 10.3055 11.111 10.3055 11.0618C10.3055 11.0128 10.3257 10.9726 10.3504 10.9726C10.3749 10.9726 10.3951 10.9325 10.3951 10.8835C10.3951 10.8343 10.4152 10.7941 10.4399 10.7941C10.4647 10.7941 10.4848 10.754 10.4848 10.705C10.4848 10.656 10.505 10.6159 10.5295 10.6159C10.5542 10.6159 10.5744 10.5848 10.5744 10.5471C10.5744 10.5091 10.6147 10.4352 10.6639 10.3825C10.7134 10.3298 10.7537 10.2605 10.7537 10.2284C10.7537 10.196 10.7738 10.1698 10.7983 10.1698C10.823 10.1698 10.8432 10.1446 10.8432 10.1141C10.8435 10.0833 10.9037 9.98805 10.9776 9.90214C11.0516 9.81623 11.1118 9.72845 11.1121 9.70677C11.1121 9.64362 12.313 8.4749 12.3778 8.4749C12.41 8.4749 12.4657 8.43476 12.5011 8.38551C12.5366 8.33654 12.6014 8.2964 12.6452 8.2964C12.6893 8.2964 12.7254 8.28141 12.7254 8.26294C12.7256 8.24448 12.7711 8.20728 12.8262 8.18051C12.8816 8.15348 13.0173 8.08551 13.1284 8.02984C13.2391 7.97418 13.3649 7.91075 13.4077 7.88934C13.4507 7.86793 13.516 7.85027 13.5534 7.85027C13.5908 7.85027 13.6211 7.83019 13.6211 7.80584C13.6211 7.78122 13.6816 7.76115 13.7556 7.76115C13.8295 7.76115 13.89 7.74108 13.89 7.71645C13.89 7.6921 13.9706 7.67203 14.0693 7.67203C14.168 7.67203 14.2486 7.65196 14.2486 7.62734C14.2486 7.60271 14.3494 7.58264 14.4726 7.58264C14.5957 7.58264 14.6965 7.56257 14.6965 7.53822C14.6965 7.51038 14.9653 7.49352 15.4135 7.49352C15.8617 7.49352 16.1305 7.51038 16.1305 7.53822Z" fill="var(--fill-0, #045C9C)"/>
</g>
</svg>
