<svg id="svg" version="1.1" xmlns="http://www.w3.org/2000/svg" xmlns:xlink="http://www.w3.org/1999/xlink" width="100" height="40.33333333333334" viewBox="0, 0, 400,163.33333333333334"><g id="svgg"><path id="path0" d="M68.250 18.667 C 68.193 18.758,67.556 18.833,66.833 18.833 C 66.111 18.833,65.473 18.908,65.417 19.000 C 65.360 19.092,64.873 19.167,64.333 19.167 C 63.794 19.167,63.307 19.242,63.250 19.333 C 63.193 19.425,62.851 19.500,62.490 19.500 C 62.129 19.500,61.833 19.575,61.833 19.667 C 61.833 19.758,61.500 19.833,61.093 19.833 C 60.686 19.833,60.307 19.908,60.250 20.000 C 60.193 20.092,59.926 20.167,59.657 20.167 C 59.387 20.167,59.167 20.242,59.167 20.333 C 59.167 20.425,58.909 20.500,58.593 20.500 C 58.278 20.500,57.973 20.575,57.917 20.667 C 57.860 20.758,57.593 20.833,57.323 20.833 C 57.054 20.833,56.833 20.908,56.833 21.000 C 56.833 21.092,56.608 21.167,56.333 21.167 C 56.058 21.167,55.833 21.242,55.833 21.333 C 55.833 21.425,55.608 21.500,55.333 21.500 C 55.058 21.500,54.833 21.575,54.833 21.667 C 54.833 21.758,54.650 21.833,54.427 21.833 C 54.203 21.833,53.973 21.908,53.917 22.000 C 53.860 22.092,53.668 22.167,53.490 22.167 C 53.312 22.167,53.167 22.242,53.167 22.333 C 53.167 22.425,52.984 22.500,52.760 22.500 C 52.536 22.500,52.307 22.575,52.250 22.667 C 52.193 22.758,52.001 22.833,51.823 22.833 C 51.646 22.833,51.500 22.908,51.500 23.000 C 51.500 23.092,51.350 23.167,51.167 23.167 C 50.983 23.167,50.833 23.242,50.833 23.333 C 50.833 23.425,50.683 23.500,50.500 23.500 C 50.317 23.500,50.167 23.575,50.167 23.667 C 50.167 23.758,50.017 23.833,49.833 23.833 C 49.650 23.833,49.500 23.908,49.500 24.000 C 49.500 24.092,49.395 24.167,49.266 24.167 C 48.988 24.167,47.608 24.862,47.528 25.042 C 47.497 25.110,47.328 25.167,47.153 25.167 C 46.977 25.167,46.833 25.242,46.833 25.333 C 46.833 25.425,46.683 25.500,46.500 25.500 C 46.317 25.500,46.167 25.575,46.167 25.667 C 46.167 25.758,46.033 25.833,45.870 25.833 C 45.707 25.833,45.465 25.983,45.333 26.167 C 45.201 26.350,44.960 26.500,44.797 26.500 C 44.633 26.500,44.500 26.575,44.500 26.667 C 44.500 26.758,44.402 26.833,44.281 26.833 C 44.161 26.833,43.902 26.983,43.705 27.167 C 43.508 27.350,43.248 27.500,43.127 27.500 C 43.006 27.500,42.799 27.650,42.667 27.833 C 42.535 28.017,42.349 28.167,42.255 28.167 C 42.161 28.167,41.821 28.392,41.500 28.667 C 41.179 28.941,40.860 29.166,40.790 29.166 C 40.721 29.166,40.428 29.392,40.140 29.667 C 39.853 29.942,39.546 30.167,39.459 30.167 C 39.372 30.167,39.102 30.376,38.859 30.631 C 38.616 30.887,38.154 31.280,37.833 31.506 C 37.125 32.002,31.833 37.271,31.833 37.479 C 31.833 37.560,31.533 37.936,31.167 38.313 C 30.800 38.691,30.500 39.064,30.500 39.142 C 30.500 39.220,30.275 39.519,30.000 39.807 C 29.725 40.095,29.500 40.407,29.500 40.500 C 29.500 40.593,29.275 40.905,29.000 41.193 C 28.725 41.481,28.500 41.817,28.500 41.941 C 28.500 42.065,28.425 42.167,28.333 42.167 C 28.242 42.167,28.167 42.265,28.167 42.385 C 28.167 42.505,28.017 42.765,27.833 42.962 C 27.650 43.158,27.500 43.401,27.500 43.500 C 27.500 43.599,27.350 43.842,27.167 44.038 C 26.983 44.235,26.833 44.495,26.833 44.615 C 26.833 44.735,26.758 44.833,26.667 44.833 C 26.575 44.833,26.500 44.983,26.500 45.167 C 26.500 45.350,26.425 45.500,26.333 45.500 C 26.242 45.500,26.167 45.650,26.167 45.833 C 26.167 46.017,26.092 46.167,26.000 46.167 C 25.908 46.167,25.833 46.317,25.833 46.500 C 25.833 46.683,25.758 46.833,25.667 46.833 C 25.575 46.833,25.500 46.983,25.500 47.167 C 25.500 47.350,25.425 47.500,25.333 47.500 C 25.242 47.500,25.167 47.650,25.167 47.833 C 25.167 48.017,25.092 48.167,25.000 48.167 C 24.908 48.167,24.833 48.317,24.833 48.500 C 24.833 48.683,24.758 48.833,24.667 48.833 C 24.575 48.833,24.500 48.983,24.500 49.167 C 24.500 49.350,24.425 49.500,24.333 49.500 C 24.242 49.500,24.167 49.650,24.167 49.833 C 24.167 50.017,24.092 50.167,24.000 50.167 C 23.908 50.167,23.833 50.317,23.833 50.500 C 23.833 50.683,23.758 50.833,23.667 50.833 C 23.575 50.833,23.500 51.058,23.500 51.333 C 23.500 51.608,23.425 51.833,23.333 51.833 C 23.242 51.833,23.167 51.983,23.167 52.167 C 23.167 52.350,23.092 52.500,23.000 52.500 C 22.908 52.500,22.833 52.725,22.833 53.000 C 22.833 53.275,22.758 53.500,22.667 53.500 C 22.575 53.500,22.500 53.651,22.500 53.836 C 22.500 54.020,22.425 54.320,22.333 54.502 C 22.242 54.684,22.092 54.982,22.000 55.164 C 21.908 55.346,21.833 55.646,21.833 55.831 C 21.833 56.016,21.758 56.167,21.667 56.167 C 21.575 56.167,21.500 56.387,21.500 56.657 C 21.500 56.926,21.425 57.193,21.333 57.250 C 21.242 57.307,21.167 57.611,21.167 57.927 C 21.167 58.242,21.092 58.500,21.000 58.500 C 20.908 58.500,20.833 58.721,20.833 58.990 C 20.833 59.260,20.758 59.527,20.667 59.583 C 20.575 59.640,20.500 59.944,20.500 60.260 C 20.500 60.575,20.425 60.833,20.333 60.833 C 20.242 60.833,20.167 61.129,20.167 61.490 C 20.167 61.851,20.092 62.193,20.000 62.250 C 19.908 62.307,19.833 62.686,19.833 63.093 C 19.833 63.500,19.758 63.833,19.667 63.833 C 19.575 63.833,19.500 64.204,19.500 64.657 C 19.500 65.110,19.425 65.527,19.333 65.583 C 19.242 65.640,19.167 66.169,19.167 66.760 C 19.167 67.364,19.094 67.833,19.000 67.833 C 18.903 67.833,18.833 68.389,18.833 69.167 C 18.833 69.944,18.764 70.500,18.667 70.500 C 18.564 70.500,18.500 71.302,18.500 72.573 C 18.500 73.776,18.430 74.690,18.333 74.750 C 18.232 74.813,18.167 76.085,18.167 78.010 C 18.167 80.003,18.228 81.167,18.333 81.167 C 18.436 81.167,18.500 82.024,18.500 83.407 C 18.500 84.720,18.569 85.690,18.667 85.750 C 18.758 85.807,18.833 86.369,18.833 87.000 C 18.833 87.631,18.908 88.193,19.000 88.250 C 19.092 88.307,19.167 88.794,19.167 89.333 C 19.167 89.873,19.242 90.360,19.333 90.417 C 19.425 90.473,19.500 90.890,19.500 91.343 C 19.500 91.796,19.575 92.167,19.667 92.167 C 19.758 92.167,19.833 92.500,19.833 92.907 C 19.833 93.314,19.908 93.693,20.000 93.750 C 20.092 93.807,20.167 94.107,20.167 94.417 C 20.167 94.727,20.242 95.027,20.333 95.083 C 20.425 95.140,20.500 95.402,20.500 95.667 C 20.500 95.931,20.575 96.193,20.667 96.250 C 20.758 96.307,20.833 96.611,20.833 96.927 C 20.833 97.242,20.908 97.500,21.000 97.500 C 21.092 97.500,21.167 97.725,21.167 98.000 C 21.167 98.275,21.242 98.500,21.333 98.500 C 21.425 98.500,21.500 98.721,21.500 98.990 C 21.500 99.260,21.575 99.527,21.667 99.583 C 21.758 99.640,21.833 99.869,21.833 100.093 C 21.833 100.317,21.908 100.500,22.000 100.500 C 22.092 100.500,22.167 100.725,22.167 101.000 C 22.167 101.275,22.242 101.500,22.333 101.500 C 22.425 101.500,22.500 101.725,22.500 102.000 C 22.500 102.275,22.575 102.500,22.667 102.500 C 22.758 102.500,22.833 102.650,22.833 102.833 C 22.833 103.017,22.908 103.167,23.000 103.167 C 23.092 103.167,23.167 103.392,23.167 103.667 C 23.167 103.942,23.242 104.167,23.333 104.167 C 23.425 104.167,23.500 104.317,23.500 104.500 C 23.500 104.683,23.575 104.833,23.667 104.833 C 23.758 104.833,23.833 104.983,23.833 105.167 C 23.833 105.350,23.908 105.500,24.000 105.500 C 24.092 105.500,24.167 105.614,24.167 105.752 C 24.167 105.891,24.232 106.135,24.312 106.294 C 24.393 106.453,24.618 106.902,24.812 107.292 C 25.530 108.727,25.920 109.418,26.042 109.472 C 26.110 109.503,26.167 109.672,26.167 109.847 C 26.167 110.023,26.242 110.167,26.333 110.167 C 26.425 110.167,26.500 110.317,26.500 110.500 C 26.500 110.683,26.575 110.833,26.667 110.833 C 26.758 110.833,26.833 110.932,26.833 111.052 C 26.833 111.172,26.983 111.431,27.167 111.628 C 27.350 111.825,27.500 112.085,27.500 112.206 C 27.500 112.327,27.650 112.535,27.833 112.667 C 28.017 112.799,28.167 113.040,28.167 113.203 C 28.167 113.367,28.229 113.500,28.305 113.500 C 28.381 113.500,28.550 113.706,28.679 113.958 C 28.808 114.210,29.046 114.538,29.207 114.686 C 29.368 114.834,29.500 115.041,29.500 115.146 C 29.500 115.251,29.725 115.572,30.000 115.860 C 30.275 116.147,30.500 116.454,30.500 116.541 C 30.500 116.628,30.725 116.910,31.000 117.167 C 31.275 117.424,31.500 117.710,31.500 117.802 C 31.500 117.895,31.950 118.428,32.500 118.987 C 33.050 119.545,33.500 120.060,33.500 120.130 C 33.500 120.328,36.007 122.866,36.750 123.420 C 37.117 123.693,37.679 124.182,38.000 124.505 C 38.321 124.829,38.846 125.278,39.167 125.504 C 39.487 125.729,39.967 126.120,40.233 126.373 C 40.499 126.626,40.790 126.833,40.880 126.833 C 40.970 126.833,41.166 126.965,41.314 127.126 C 41.462 127.287,41.790 127.525,42.042 127.654 C 42.294 127.784,42.500 127.952,42.500 128.028 C 42.500 128.104,42.598 128.167,42.719 128.167 C 42.839 128.167,43.083 128.298,43.260 128.458 C 43.438 128.619,43.790 128.856,44.042 128.986 C 44.294 129.117,44.500 129.285,44.500 129.361 C 44.500 129.438,44.650 129.500,44.833 129.500 C 45.017 129.500,45.167 129.575,45.167 129.667 C 45.167 129.758,45.282 129.833,45.424 129.833 C 45.565 129.833,45.842 129.983,46.038 130.167 C 46.235 130.350,46.495 130.500,46.615 130.500 C 46.735 130.500,46.833 130.575,46.833 130.667 C 46.833 130.758,46.983 130.833,47.167 130.833 C 47.350 130.833,47.500 130.908,47.500 131.000 C 47.500 131.092,47.650 131.167,47.833 131.167 C 48.017 131.167,48.167 131.242,48.167 131.333 C 48.167 131.425,48.317 131.500,48.500 131.500 C 48.683 131.500,48.833 131.575,48.833 131.667 C 48.833 131.758,48.983 131.833,49.167 131.833 C 49.350 131.833,49.500 131.908,49.500 132.000 C 49.500 132.092,49.725 132.167,50.000 132.167 C 50.275 132.167,50.500 132.242,50.500 132.333 C 50.500 132.425,50.650 132.500,50.833 132.500 C 51.017 132.500,51.167 132.575,51.167 132.667 C 51.167 132.758,51.312 132.833,51.490 132.833 C 51.668 132.833,51.860 132.908,51.917 133.000 C 51.973 133.092,52.203 133.167,52.427 133.167 C 52.650 133.167,52.833 133.242,52.833 133.333 C 52.833 133.425,53.058 133.500,53.333 133.500 C 53.608 133.500,53.833 133.575,53.833 133.667 C 53.833 133.758,54.058 133.833,54.333 133.833 C 54.608 133.833,54.833 133.908,54.833 134.000 C 54.833 134.092,55.058 134.167,55.333 134.167 C 55.608 134.167,55.833 134.242,55.833 134.333 C 55.833 134.425,56.058 134.500,56.333 134.500 C 56.608 134.500,56.833 134.575,56.833 134.667 C 56.833 134.758,57.054 134.833,57.323 134.833 C 57.593 134.833,57.860 134.908,57.917 135.000 C 57.973 135.092,58.353 135.167,58.760 135.167 C 59.167 135.167,59.500 135.242,59.500 135.333 C 59.500 135.425,59.800 135.500,60.167 135.500 C 60.533 135.500,60.833 135.575,60.833 135.667 C 60.833 135.758,61.208 135.833,61.667 135.833 C 62.125 135.833,62.500 135.908,62.500 136.000 C 62.500 136.092,62.908 136.167,63.407 136.167 C 63.906 136.167,64.360 136.242,64.417 136.333 C 64.473 136.425,64.998 136.500,65.583 136.500 C 66.168 136.500,66.693 136.575,66.750 136.667 C 66.807 136.760,67.585 136.833,68.510 136.833 C 69.503 136.833,70.167 136.900,70.167 137.000 C 70.167 137.108,72.111 137.167,75.667 137.167 C 79.222 137.167,81.167 137.108,81.167 137.000 C 81.167 136.899,81.913 136.833,83.073 136.833 C 84.165 136.833,85.024 136.762,85.083 136.667 C 85.140 136.575,85.782 136.500,86.510 136.500 C 87.281 136.500,87.833 136.430,87.833 136.333 C 87.833 136.242,88.241 136.167,88.740 136.167 C 89.239 136.167,89.693 136.092,89.750 136.000 C 89.807 135.908,90.144 135.833,90.500 135.833 C 90.856 135.833,91.193 135.758,91.250 135.667 C 91.307 135.575,91.686 135.500,92.093 135.500 C 92.500 135.500,92.833 135.425,92.833 135.333 C 92.833 135.242,93.054 135.167,93.323 135.167 C 93.593 135.167,93.860 135.092,93.917 135.000 C 93.973 134.908,94.278 134.833,94.593 134.833 C 94.909 134.833,95.167 134.758,95.167 134.667 C 95.167 134.575,95.392 134.500,95.667 134.500 C 95.942 134.500,96.167 134.425,96.167 134.333 C 96.167 134.242,96.392 134.167,96.667 134.167 C 96.942 134.167,97.167 134.092,97.167 134.000 C 97.167 133.908,97.392 133.833,97.667 133.833 C 97.942 133.833,98.167 133.758,98.167 133.667 C 98.167 133.575,98.317 133.500,98.500 133.500 C 98.683 133.500,98.833 133.425,98.833 133.333 C 98.833 133.242,99.058 133.167,99.333 133.167 C 99.608 133.167,99.833 133.092,99.833 133.000 C 99.833 132.908,99.983 132.833,100.167 132.833 C 100.350 132.833,100.500 132.758,100.500 132.667 C 100.500 132.575,100.614 132.500,100.752 132.500 C 100.891 132.500,101.154 132.425,101.336 132.333 C 101.518 132.242,101.816 132.092,101.998 132.000 C 102.180 131.908,102.442 131.833,102.581 131.833 C 102.720 131.833,102.833 131.758,102.833 131.667 C 102.833 131.575,102.983 131.500,103.167 131.500 C 103.350 131.500,103.500 131.425,103.500 131.333 C 103.500 131.242,103.644 131.167,103.819 131.167 C 103.995 131.167,104.164 131.110,104.194 131.042 C 104.264 130.885,105.152 130.344,105.542 130.220 C 105.702 130.169,105.833 130.062,105.833 129.981 C 105.833 129.900,105.983 129.833,106.167 129.833 C 106.350 129.833,106.500 129.758,106.500 129.667 C 106.500 129.575,106.598 129.500,106.719 129.500 C 106.839 129.500,107.098 129.350,107.295 129.167 C 107.492 128.983,107.752 128.833,107.873 128.833 C 107.994 128.833,108.201 128.683,108.333 128.500 C 108.465 128.317,108.690 128.167,108.833 128.167 C 108.976 128.167,109.201 128.017,109.333 127.833 C 109.465 127.650,109.670 127.500,109.788 127.500 C 109.906 127.500,110.238 127.275,110.526 127.000 C 110.814 126.725,111.121 126.500,111.208 126.500 C 111.295 126.500,111.576 126.275,111.833 126.000 C 112.090 125.725,112.388 125.500,112.494 125.500 C 112.601 125.500,113.054 125.125,113.500 124.667 C 113.946 124.208,114.391 123.833,114.489 123.833 C 114.703 123.833,119.167 119.367,119.167 119.153 C 119.167 119.070,119.542 118.619,120.000 118.151 C 120.458 117.683,120.833 117.231,120.833 117.148 C 120.833 117.065,121.058 116.762,121.333 116.474 C 121.608 116.186,121.833 115.886,121.833 115.807 C 121.833 115.728,122.058 115.428,122.333 115.140 C 122.608 114.853,122.833 114.516,122.833 114.392 C 122.833 114.268,122.896 114.167,122.972 114.167 C 123.048 114.167,123.217 113.960,123.347 113.708 C 123.477 113.456,123.715 113.105,123.875 112.927 C 124.035 112.749,124.167 112.505,124.167 112.385 C 124.167 112.265,124.242 112.167,124.333 112.167 C 124.425 112.167,124.500 112.033,124.500 111.870 C 124.500 111.707,124.650 111.465,124.833 111.333 C 125.017 111.201,125.167 110.960,125.167 110.797 C 125.167 110.633,125.242 110.500,125.333 110.500 C 125.425 110.500,125.500 110.350,125.500 110.167 C 125.500 109.983,125.556 109.833,125.625 109.832 C 125.694 109.831,125.834 109.663,125.936 109.457 C 126.038 109.251,126.432 108.492,126.811 107.769 C 127.190 107.046,127.500 106.314,127.500 106.144 C 127.500 105.973,127.575 105.833,127.667 105.833 C 127.758 105.833,127.833 105.683,127.833 105.500 C 127.833 105.317,127.908 105.167,128.000 105.167 C 128.092 105.167,128.167 105.017,128.167 104.833 C 128.167 104.650,128.242 104.500,128.333 104.500 C 128.425 104.500,128.500 104.317,128.500 104.093 C 128.500 103.869,128.575 103.640,128.667 103.583 C 128.758 103.527,128.833 103.335,128.833 103.157 C 128.833 102.979,128.908 102.833,129.000 102.833 C 129.092 102.833,129.167 102.608,129.167 102.333 C 129.167 102.058,129.242 101.833,129.333 101.833 C 129.425 101.833,129.500 101.688,129.500 101.510 C 129.500 101.332,129.575 101.140,129.667 101.083 C 129.758 101.027,129.833 100.802,129.833 100.583 C 129.833 100.365,129.908 100.140,130.000 100.083 C 130.092 100.027,130.167 99.802,130.167 99.583 C 130.167 99.365,130.242 99.140,130.333 99.083 C 130.425 99.027,130.500 98.722,130.500 98.407 C 130.500 98.091,130.575 97.833,130.667 97.833 C 130.758 97.833,130.833 97.613,130.833 97.343 C 130.833 97.074,130.908 96.807,131.000 96.750 C 131.092 96.693,131.167 96.389,131.167 96.073 C 131.167 95.758,131.242 95.500,131.333 95.500 C 131.425 95.500,131.500 95.204,131.500 94.843 C 131.500 94.482,131.575 94.140,131.667 94.083 C 131.758 94.027,131.833 93.647,131.833 93.240 C 131.833 92.833,131.908 92.500,132.000 92.500 C 132.092 92.500,132.167 92.129,132.167 91.677 C 132.167 91.224,132.242 90.807,132.333 90.750 C 132.425 90.693,132.500 90.164,132.500 89.573 C 132.500 88.969,132.573 88.500,132.667 88.500 C 132.764 88.500,132.833 87.944,132.833 87.167 C 132.833 86.389,132.903 85.833,133.000 85.833 C 133.103 85.833,133.167 84.920,133.167 83.427 C 133.167 82.002,133.235 80.978,133.333 80.917 C 133.558 80.778,133.558 75.833,133.333 75.833 C 133.229 75.833,133.167 74.833,133.167 73.167 C 133.167 71.500,133.104 70.500,133.000 70.500 C 132.901 70.500,132.833 69.892,132.833 69.010 C 132.833 68.190,132.758 67.473,132.667 67.417 C 132.575 67.360,132.500 66.831,132.500 66.240 C 132.500 65.636,132.427 65.167,132.333 65.167 C 132.242 65.167,132.167 64.792,132.167 64.333 C 132.167 63.875,132.092 63.500,132.000 63.500 C 131.908 63.500,131.833 63.125,131.833 62.667 C 131.833 62.208,131.758 61.833,131.667 61.833 C 131.575 61.833,131.500 61.533,131.500 61.167 C 131.500 60.800,131.425 60.500,131.333 60.500 C 131.242 60.500,131.167 60.200,131.167 59.833 C 131.167 59.467,131.092 59.167,131.000 59.167 C 130.908 59.167,130.833 58.909,130.833 58.593 C 130.833 58.278,130.758 57.973,130.667 57.917 C 130.575 57.860,130.500 57.593,130.500 57.323 C 130.500 57.054,130.425 56.833,130.333 56.833 C 130.242 56.833,130.167 56.608,130.167 56.333 C 130.167 56.058,130.092 55.833,130.000 55.833 C 129.908 55.833,129.833 55.608,129.833 55.333 C 129.833 55.058,129.758 54.833,129.667 54.833 C 129.575 54.833,129.500 54.608,129.500 54.333 C 129.500 54.058,129.425 53.833,129.333 53.833 C 129.242 53.833,129.167 53.683,129.167 53.500 C 129.167 53.317,129.092 53.167,129.000 53.167 C 128.908 53.167,128.833 52.942,128.833 52.667 C 128.833 52.392,128.758 52.167,128.667 52.167 C 128.575 52.167,128.500 52.017,128.500 51.833 C 128.500 51.650,128.425 51.500,128.333 51.500 C 128.242 51.500,128.167 51.317,128.167 51.093 C 128.167 50.869,128.092 50.640,128.000 50.583 C 127.908 50.527,127.833 50.335,127.833 50.157 C 127.833 49.979,127.758 49.833,127.667 49.833 C 127.575 49.833,127.500 49.683,127.500 49.500 C 127.500 49.317,127.425 49.167,127.333 49.167 C 127.242 49.167,127.167 49.017,127.167 48.833 C 127.167 48.650,127.092 48.500,127.000 48.500 C 126.908 48.500,126.833 48.350,126.833 48.167 C 126.833 47.983,126.758 47.833,126.667 47.833 C 126.575 47.833,126.500 47.683,126.500 47.500 C 126.500 47.317,126.425 47.167,126.333 47.167 C 126.242 47.167,126.167 47.017,126.167 46.833 C 126.167 46.650,126.092 46.500,126.000 46.500 C 125.908 46.500,125.833 46.350,125.833 46.167 C 125.833 45.983,125.758 45.833,125.667 45.833 C 125.575 45.833,125.500 45.735,125.500 45.615 C 125.500 45.495,125.350 45.235,125.167 45.038 C 124.983 44.842,124.833 44.565,124.833 44.424 C 124.833 44.282,124.758 44.167,124.667 44.167 C 124.575 44.167,124.500 44.033,124.500 43.870 C 124.500 43.707,124.350 43.465,124.167 43.333 C 123.983 43.201,123.833 42.976,123.833 42.833 C 123.833 42.690,123.683 42.465,123.500 42.333 C 123.317 42.201,123.167 41.976,123.167 41.833 C 123.167 41.690,123.017 41.465,122.833 41.333 C 122.650 41.201,122.500 40.976,122.500 40.833 C 122.500 40.690,122.350 40.465,122.167 40.333 C 121.983 40.201,121.833 40.013,121.833 39.915 C 121.833 39.817,121.533 39.405,121.167 39.000 C 120.800 38.595,120.500 38.198,120.500 38.119 C 120.500 38.039,120.200 37.686,119.833 37.333 C 119.467 36.981,119.167 36.622,119.167 36.535 C 119.167 36.314,115.210 32.328,114.500 31.834 C 114.179 31.610,113.641 31.144,113.305 30.797 C 112.968 30.450,112.623 30.167,112.538 30.167 C 112.453 30.167,112.147 29.942,111.860 29.667 C 111.572 29.392,111.279 29.166,111.210 29.166 C 111.140 29.166,110.821 28.941,110.500 28.667 C 110.179 28.392,109.857 28.167,109.785 28.167 C 109.712 28.167,109.492 28.017,109.295 27.833 C 109.098 27.650,108.839 27.500,108.719 27.500 C 108.598 27.500,108.500 27.425,108.500 27.333 C 108.500 27.242,108.402 27.167,108.281 27.167 C 108.161 27.167,107.902 27.017,107.705 26.833 C 107.508 26.650,107.232 26.500,107.090 26.500 C 106.949 26.500,106.833 26.425,106.833 26.333 C 106.833 26.242,106.683 26.167,106.500 26.167 C 106.317 26.167,106.167 26.092,106.167 26.000 C 106.167 25.908,106.051 25.833,105.910 25.833 C 105.768 25.833,105.492 25.683,105.295 25.500 C 105.098 25.317,104.839 25.167,104.719 25.167 C 104.598 25.167,104.500 25.092,104.500 25.000 C 104.500 24.908,104.350 24.833,104.167 24.833 C 103.983 24.833,103.833 24.758,103.833 24.667 C 103.833 24.575,103.683 24.500,103.500 24.500 C 103.317 24.500,103.167 24.425,103.167 24.333 C 103.167 24.242,103.017 24.167,102.833 24.167 C 102.650 24.167,102.500 24.092,102.500 24.000 C 102.500 23.908,102.350 23.833,102.167 23.833 C 101.983 23.833,101.833 23.758,101.833 23.667 C 101.833 23.575,101.720 23.500,101.581 23.500 C 101.336 23.500,101.159 23.430,100.377 23.026 C 100.172 22.920,99.891 22.833,99.752 22.833 C 99.614 22.833,99.500 22.758,99.500 22.667 C 99.500 22.575,99.354 22.500,99.177 22.500 C 98.999 22.500,98.807 22.425,98.750 22.333 C 98.693 22.242,98.464 22.167,98.240 22.167 C 98.016 22.167,97.833 22.092,97.833 22.000 C 97.833 21.908,97.608 21.833,97.333 21.833 C 97.058 21.833,96.833 21.758,96.833 21.667 C 96.833 21.575,96.608 21.500,96.333 21.500 C 96.058 21.500,95.833 21.425,95.833 21.333 C 95.833 21.242,95.608 21.167,95.333 21.167 C 95.058 21.167,94.833 21.092,94.833 21.000 C 94.833 20.908,94.575 20.833,94.260 20.833 C 93.944 20.833,93.640 20.758,93.583 20.667 C 93.527 20.575,93.264 20.500,93.000 20.500 C 92.736 20.500,92.473 20.425,92.417 20.333 C 92.360 20.242,92.023 20.167,91.667 20.167 C 91.311 20.167,90.973 20.092,90.917 20.000 C 90.860 19.908,90.523 19.833,90.167 19.833 C 89.811 19.833,89.473 19.758,89.417 19.667 C 89.360 19.575,88.906 19.500,88.407 19.500 C 87.908 19.500,87.500 19.425,87.500 19.333 C 87.500 19.241,87.059 19.167,86.510 19.167 C 85.965 19.167,85.473 19.092,85.417 19.000 C 85.360 18.908,84.613 18.833,83.750 18.833 C 82.887 18.833,82.140 18.759,82.083 18.667 C 82.017 18.560,79.529 18.500,75.167 18.500 C 70.804 18.500,68.316 18.560,68.250 18.667 M324.250 18.667 C 324.193 18.758,323.476 18.833,322.657 18.833 C 321.774 18.833,321.167 18.901,321.167 19.000 C 321.167 19.095,320.667 19.167,320.000 19.167 C 319.333 19.167,318.833 19.238,318.833 19.333 C 318.833 19.425,318.425 19.500,317.927 19.500 C 317.428 19.500,316.973 19.575,316.917 19.667 C 316.860 19.758,316.518 19.833,316.157 19.833 C 315.796 19.833,315.500 19.908,315.500 20.000 C 315.500 20.092,315.204 20.167,314.843 20.167 C 314.482 20.167,314.140 20.242,314.083 20.333 C 314.027 20.425,313.722 20.500,313.407 20.500 C 313.091 20.500,312.833 20.575,312.833 20.667 C 312.833 20.758,312.533 20.833,312.167 20.833 C 311.800 20.833,311.500 20.908,311.500 21.000 C 311.500 21.092,311.275 21.167,311.000 21.167 C 310.725 21.167,310.500 21.242,310.500 21.333 C 310.500 21.425,310.275 21.500,310.000 21.500 C 309.725 21.500,309.500 21.575,309.500 21.667 C 309.500 21.758,309.275 21.833,309.000 21.833 C 308.725 21.833,308.500 21.908,308.500 22.000 C 308.500 22.092,308.350 22.167,308.167 22.167 C 307.983 22.167,307.833 22.242,307.833 22.333 C 307.833 22.425,307.608 22.500,307.333 22.500 C 307.058 22.500,306.833 22.575,306.833 22.667 C 306.833 22.758,306.683 22.833,306.500 22.833 C 306.317 22.833,306.167 22.908,306.167 23.000 C 306.167 23.092,306.017 23.167,305.833 23.167 C 305.650 23.167,305.500 23.242,305.500 23.333 C 305.500 23.425,305.395 23.500,305.266 23.500 C 304.988 23.500,303.608 24.195,303.528 24.375 C 303.497 24.444,303.328 24.500,303.153 24.500 C 302.977 24.500,302.833 24.575,302.833 24.667 C 302.833 24.758,302.683 24.833,302.500 24.833 C 302.317 24.833,302.167 24.908,302.167 25.000 C 302.167 25.092,302.051 25.167,301.910 25.167 C 301.768 25.167,301.492 25.317,301.295 25.500 C 301.098 25.683,300.839 25.833,300.719 25.833 C 300.598 25.833,300.500 25.908,300.500 26.000 C 300.500 26.092,300.402 26.167,300.281 26.167 C 300.161 26.167,299.902 26.317,299.705 26.500 C 299.508 26.683,299.280 26.833,299.198 26.833 C 299.116 26.833,298.814 27.058,298.526 27.333 C 298.238 27.608,297.927 27.833,297.835 27.833 C 297.743 27.833,297.358 28.133,296.980 28.500 C 296.602 28.867,296.226 29.167,296.144 29.167 C 295.940 29.167,293.010 32.115,292.501 32.833 C 292.273 33.154,291.880 33.634,291.627 33.900 C 291.374 34.165,291.167 34.468,291.167 34.571 C 291.167 34.675,291.017 34.868,290.833 35.000 C 290.650 35.132,290.500 35.357,290.500 35.500 C 290.500 35.643,290.350 35.868,290.167 36.000 C 289.983 36.132,289.833 36.367,289.833 36.523 C 289.833 36.678,289.777 36.831,289.708 36.861 C 289.552 36.931,289.011 37.818,288.887 38.208 C 288.836 38.369,288.728 38.500,288.647 38.500 C 288.566 38.500,288.500 38.650,288.500 38.833 C 288.500 39.017,288.425 39.167,288.333 39.167 C 288.242 39.167,288.167 39.317,288.167 39.500 C 288.167 39.683,288.092 39.833,288.000 39.833 C 287.908 39.833,287.833 39.979,287.833 40.157 C 287.833 40.335,287.758 40.527,287.667 40.583 C 287.575 40.640,287.500 40.869,287.500 41.093 C 287.500 41.317,287.425 41.500,287.333 41.500 C 287.242 41.500,287.167 41.650,287.167 41.833 C 287.167 42.017,287.092 42.167,287.000 42.167 C 286.908 42.167,286.833 42.392,286.833 42.667 C 286.833 42.942,286.758 43.167,286.667 43.167 C 286.575 43.167,286.500 43.392,286.500 43.667 C 286.500 43.942,286.425 44.167,286.333 44.167 C 286.242 44.167,286.167 44.392,286.167 44.667 C 286.167 44.942,286.092 45.167,286.000 45.167 C 285.908 45.167,285.833 45.425,285.833 45.740 C 285.833 46.056,285.758 46.360,285.667 46.417 C 285.575 46.473,285.500 46.815,285.500 47.177 C 285.500 47.538,285.425 47.833,285.333 47.833 C 285.242 47.833,285.167 48.208,285.167 48.667 C 285.167 49.125,285.092 49.500,285.000 49.500 C 284.903 49.500,284.833 50.056,284.833 50.833 C 284.833 51.611,284.764 52.167,284.667 52.167 C 284.561 52.167,284.500 53.333,284.500 55.333 C 284.500 57.333,284.561 58.500,284.667 58.500 C 284.764 58.500,284.833 59.056,284.833 59.833 C 284.833 60.611,284.903 61.167,285.000 61.167 C 285.092 61.167,285.167 61.542,285.167 62.000 C 285.167 62.458,285.242 62.833,285.333 62.833 C 285.425 62.833,285.500 63.133,285.500 63.500 C 285.500 63.867,285.575 64.167,285.667 64.167 C 285.758 64.167,285.833 64.392,285.833 64.667 C 285.833 64.942,285.908 65.167,286.000 65.167 C 286.092 65.167,286.167 65.392,286.167 65.667 C 286.167 65.942,286.242 66.167,286.333 66.167 C 286.425 66.167,286.500 66.350,286.500 66.573 C 286.500 66.797,286.575 67.027,286.667 67.083 C 286.758 67.140,286.833 67.332,286.833 67.510 C 286.833 67.688,286.908 67.833,287.000 67.833 C 287.092 67.833,287.167 67.983,287.167 68.167 C 287.167 68.350,287.242 68.500,287.333 68.500 C 287.425 68.500,287.500 68.650,287.500 68.833 C 287.500 69.017,287.575 69.167,287.667 69.167 C 287.758 69.167,287.833 69.317,287.833 69.500 C 287.833 69.683,287.908 69.833,288.000 69.833 C 288.092 69.833,288.167 69.932,288.167 70.052 C 288.167 70.172,288.317 70.431,288.500 70.628 C 288.683 70.825,288.833 71.085,288.833 71.206 C 288.833 71.327,288.983 71.535,289.167 71.667 C 289.350 71.799,289.500 72.010,289.500 72.137 C 289.500 72.263,289.725 72.576,290.000 72.833 C 290.275 73.090,290.500 73.380,290.500 73.476 C 290.500 73.573,291.141 74.293,291.924 75.076 C 292.707 75.859,293.427 76.500,293.524 76.500 C 293.620 76.500,293.910 76.725,294.167 77.000 C 294.424 77.275,294.726 77.500,294.839 77.500 C 294.952 77.500,295.166 77.632,295.314 77.793 C 295.462 77.954,295.790 78.192,296.042 78.321 C 296.294 78.450,296.500 78.619,296.500 78.695 C 296.500 78.771,296.633 78.833,296.797 78.833 C 296.960 78.833,297.201 78.983,297.333 79.167 C 297.465 79.350,297.707 79.500,297.870 79.500 C 298.033 79.500,298.167 79.575,298.167 79.667 C 298.167 79.758,298.265 79.833,298.385 79.833 C 298.505 79.833,298.765 79.983,298.962 80.167 C 299.158 80.350,299.435 80.500,299.576 80.500 C 299.718 80.500,299.833 80.575,299.833 80.667 C 299.833 80.758,299.983 80.833,300.167 80.833 C 300.350 80.833,300.500 80.908,300.500 81.000 C 300.500 81.092,300.650 81.167,300.833 81.167 C 301.017 81.167,301.167 81.242,301.167 81.333 C 301.167 81.425,301.317 81.500,301.500 81.500 C 301.683 81.500,301.833 81.575,301.833 81.667 C 301.833 81.758,301.983 81.833,302.167 81.833 C 302.350 81.833,302.500 81.908,302.500 82.000 C 302.500 82.092,302.650 82.167,302.833 82.167 C 303.017 82.167,303.167 82.242,303.167 82.333 C 303.167 82.425,303.312 82.500,303.490 82.500 C 303.668 82.500,303.860 82.575,303.917 82.667 C 303.973 82.758,304.203 82.833,304.427 82.833 C 304.650 82.833,304.833 82.908,304.833 83.000 C 304.833 83.092,304.983 83.167,305.167 83.167 C 305.350 83.167,305.500 83.242,305.500 83.333 C 305.500 83.425,305.725 83.500,306.000 83.500 C 306.275 83.500,306.500 83.575,306.500 83.667 C 306.500 83.758,306.650 83.833,306.833 83.833 C 307.017 83.833,307.167 83.908,307.167 84.000 C 307.167 84.092,307.392 84.167,307.667 84.167 C 307.942 84.167,308.167 84.242,308.167 84.333 C 308.167 84.425,308.392 84.500,308.667 84.500 C 308.942 84.500,309.167 84.575,309.167 84.667 C 309.167 84.758,309.312 84.833,309.490 84.833 C 309.668 84.833,309.860 84.908,309.917 85.000 C 309.973 85.092,310.198 85.167,310.417 85.167 C 310.635 85.167,310.860 85.242,310.917 85.333 C 310.973 85.425,311.198 85.500,311.417 85.500 C 311.635 85.500,311.860 85.575,311.917 85.667 C 311.973 85.758,312.278 85.833,312.593 85.833 C 312.909 85.833,313.167 85.908,313.167 86.000 C 313.167 86.092,313.392 86.167,313.667 86.167 C 313.942 86.167,314.167 86.242,314.167 86.333 C 314.167 86.425,314.392 86.500,314.667 86.500 C 314.942 86.500,315.167 86.575,315.167 86.667 C 315.167 86.758,315.467 86.833,315.833 86.833 C 316.200 86.833,316.500 86.908,316.500 87.000 C 316.500 87.092,316.725 87.167,317.000 87.167 C 317.275 87.167,317.500 87.242,317.500 87.333 C 317.500 87.425,317.800 87.500,318.167 87.500 C 318.533 87.500,318.833 87.575,318.833 87.667 C 318.833 87.758,319.054 87.833,319.323 87.833 C 319.593 87.833,319.860 87.908,319.917 88.000 C 319.973 88.092,320.278 88.167,320.593 88.167 C 320.909 88.167,321.167 88.242,321.167 88.333 C 321.167 88.425,321.467 88.500,321.833 88.500 C 322.200 88.500,322.500 88.575,322.500 88.667 C 322.500 88.758,322.721 88.833,322.990 88.833 C 323.260 88.833,323.527 88.908,323.583 89.000 C 323.640 89.092,323.944 89.167,324.260 89.167 C 324.575 89.167,324.833 89.242,324.833 89.333 C 324.833 89.425,325.133 89.500,325.500 89.500 C 325.867 89.500,326.167 89.575,326.167 89.667 C 326.167 89.758,326.387 89.833,326.657 89.833 C 326.926 89.833,327.193 89.908,327.250 90.000 C 327.307 90.092,327.611 90.167,327.927 90.167 C 328.242 90.167,328.500 90.242,328.500 90.333 C 328.500 90.425,328.725 90.500,329.000 90.500 C 329.275 90.500,329.500 90.575,329.500 90.667 C 329.500 90.758,329.800 90.833,330.167 90.833 C 330.533 90.833,330.833 90.908,330.833 91.000 C 330.833 91.092,331.058 91.167,331.333 91.167 C 331.608 91.167,331.833 91.242,331.833 91.333 C 331.833 91.425,332.058 91.500,332.333 91.500 C 332.608 91.500,332.833 91.575,332.833 91.667 C 332.833 91.758,333.058 91.833,333.333 91.833 C 333.608 91.833,333.833 91.908,333.833 92.000 C 333.833 92.092,334.058 92.167,334.333 92.167 C 334.608 92.167,334.833 92.242,334.833 92.333 C 334.833 92.425,335.058 92.500,335.333 92.500 C 335.608 92.500,335.833 92.575,335.833 92.667 C 335.833 92.758,336.058 92.833,336.333 92.833 C 336.608 92.833,336.833 92.908,336.833 93.000 C 336.833 93.092,337.016 93.167,337.240 93.167 C 337.464 93.167,337.693 93.242,337.750 93.333 C 337.807 93.425,337.999 93.500,338.177 93.500 C 338.354 93.500,338.500 93.575,338.500 93.667 C 338.500 93.758,338.683 93.833,338.907 93.833 C 339.131 93.833,339.360 93.908,339.417 94.000 C 339.473 94.092,339.665 94.167,339.843 94.167 C 340.021 94.167,340.167 94.242,340.167 94.333 C 340.167 94.425,340.280 94.500,340.419 94.500 C 340.558 94.500,340.820 94.575,341.002 94.667 C 341.184 94.758,341.482 94.908,341.664 95.000 C 341.846 95.092,342.109 95.167,342.248 95.167 C 342.386 95.167,342.500 95.242,342.500 95.333 C 342.500 95.425,342.650 95.500,342.833 95.500 C 343.017 95.500,343.167 95.575,343.167 95.667 C 343.167 95.758,343.317 95.833,343.500 95.833 C 343.683 95.833,343.833 95.908,343.833 96.000 C 343.833 96.092,343.983 96.167,344.167 96.167 C 344.350 96.167,344.500 96.229,344.500 96.305 C 344.500 96.381,344.706 96.550,344.958 96.680 C 345.532 96.976,345.690 97.135,345.986 97.708 C 346.117 97.960,346.285 98.167,346.361 98.167 C 346.438 98.167,346.500 98.317,346.500 98.500 C 346.500 98.683,346.575 98.833,346.667 98.833 C 346.758 98.833,346.833 98.983,346.833 99.167 C 346.833 99.350,346.908 99.500,347.000 99.500 C 347.092 99.500,347.167 99.650,347.167 99.833 C 347.167 100.017,347.242 100.167,347.333 100.167 C 347.425 100.167,347.500 100.317,347.500 100.500 C 347.500 100.683,347.575 100.833,347.667 100.833 C 347.758 100.833,347.833 100.983,347.833 101.167 C 347.833 101.350,347.908 101.500,348.000 101.500 C 348.092 101.500,348.167 101.875,348.167 102.333 C 348.167 102.792,348.092 103.167,348.000 103.167 C 347.908 103.167,347.833 103.392,347.833 103.667 C 347.833 103.942,347.758 104.167,347.667 104.167 C 347.575 104.167,347.500 104.317,347.500 104.500 C 347.500 104.683,347.425 104.833,347.333 104.833 C 347.242 104.833,347.167 104.983,347.167 105.167 C 347.167 105.350,347.092 105.500,347.000 105.500 C 346.908 105.500,346.833 105.633,346.833 105.797 C 346.833 105.960,346.683 106.201,346.500 106.333 C 346.317 106.465,346.167 106.675,346.167 106.798 C 346.167 107.071,343.712 109.500,343.436 109.500 C 343.329 109.500,343.132 109.650,343.000 109.833 C 342.868 110.017,342.626 110.167,342.463 110.167 C 342.300 110.167,342.167 110.242,342.167 110.333 C 342.167 110.425,342.017 110.500,341.833 110.500 C 341.650 110.500,341.500 110.575,341.500 110.667 C 341.500 110.758,341.350 110.833,341.167 110.833 C 340.983 110.833,340.833 110.908,340.833 111.000 C 340.833 111.092,340.650 111.167,340.427 111.167 C 340.203 111.167,339.973 111.242,339.917 111.333 C 339.860 111.425,339.635 111.500,339.417 111.500 C 339.198 111.500,338.973 111.575,338.917 111.667 C 338.860 111.758,338.593 111.833,338.323 111.833 C 338.054 111.833,337.833 111.908,337.833 112.000 C 337.833 112.093,337.389 112.167,336.833 112.167 C 336.278 112.167,335.833 112.241,335.833 112.333 C 335.833 112.439,334.667 112.500,332.667 112.500 C 330.667 112.500,329.500 112.439,329.500 112.333 C 329.500 112.241,329.056 112.167,328.500 112.167 C 327.944 112.167,327.500 112.093,327.500 112.000 C 327.500 111.908,327.200 111.833,326.833 111.833 C 326.467 111.833,326.167 111.758,326.167 111.667 C 326.167 111.575,325.946 111.500,325.677 111.500 C 325.407 111.500,325.140 111.425,325.083 111.333 C 325.027 111.242,324.802 111.167,324.583 111.167 C 324.365 111.167,324.140 111.092,324.083 111.000 C 324.027 110.908,323.797 110.833,323.573 110.833 C 323.350 110.833,323.167 110.758,323.167 110.667 C 323.167 110.575,323.021 110.500,322.843 110.500 C 322.665 110.500,322.473 110.425,322.417 110.333 C 322.360 110.242,322.131 110.167,321.907 110.167 C 321.683 110.167,321.500 110.092,321.500 110.000 C 321.500 109.908,321.402 109.833,321.281 109.833 C 321.161 109.833,320.902 109.683,320.705 109.500 C 320.508 109.317,320.268 109.167,320.170 109.167 C 319.916 109.167,318.167 107.383,318.167 107.124 C 318.167 107.004,318.017 106.799,317.833 106.667 C 317.650 106.535,317.500 106.293,317.500 106.130 C 317.500 105.967,317.425 105.833,317.333 105.833 C 317.242 105.833,317.167 105.683,317.167 105.500 C 317.167 105.317,317.092 105.167,317.000 105.167 C 316.908 105.167,316.833 105.017,316.833 104.833 C 316.833 104.650,316.758 104.500,316.667 104.500 C 316.575 104.500,316.500 104.317,316.500 104.093 C 316.500 103.869,316.425 103.640,316.333 103.583 C 316.242 103.527,316.167 103.302,316.167 103.083 C 316.167 102.865,316.092 102.640,316.000 102.583 C 315.908 102.527,315.833 102.260,315.833 101.990 C 315.833 101.721,315.758 101.500,315.667 101.500 C 315.575 101.500,315.500 101.200,315.500 100.833 C 315.500 100.467,315.425 100.167,315.333 100.167 C 315.242 100.167,315.167 99.792,315.167 99.333 C 315.167 98.875,315.092 98.500,315.000 98.500 C 314.908 98.500,314.833 98.125,314.833 97.667 L 314.833 96.833 312.343 96.833 C 310.863 96.833,309.811 96.766,309.750 96.667 C 309.683 96.558,305.332 96.500,297.240 96.500 C 289.080 96.500,284.833 96.557,284.833 96.667 C 284.833 96.770,283.944 96.833,282.500 96.833 L 280.167 96.833 280.167 98.740 C 280.167 99.832,280.238 100.691,280.333 100.750 C 280.425 100.807,280.500 101.449,280.500 102.177 C 280.500 102.948,280.570 103.500,280.667 103.500 C 280.758 103.500,280.833 103.908,280.833 104.407 C 280.833 104.906,280.908 105.360,281.000 105.417 C 281.092 105.473,281.167 105.815,281.167 106.177 C 281.167 106.538,281.242 106.833,281.333 106.833 C 281.425 106.833,281.500 107.133,281.500 107.500 C 281.500 107.867,281.575 108.167,281.667 108.167 C 281.758 108.167,281.833 108.387,281.833 108.657 C 281.833 108.926,281.908 109.193,282.000 109.250 C 282.092 109.307,282.167 109.532,282.167 109.750 C 282.167 109.968,282.242 110.193,282.333 110.250 C 282.425 110.307,282.500 110.536,282.500 110.760 C 282.500 110.984,282.575 111.167,282.667 111.167 C 282.758 111.167,282.833 111.392,282.833 111.667 C 282.833 111.942,282.908 112.167,283.000 112.167 C 283.092 112.167,283.167 112.317,283.167 112.500 C 283.167 112.683,283.242 112.833,283.333 112.833 C 283.425 112.833,283.500 113.016,283.500 113.240 C 283.500 113.464,283.575 113.693,283.667 113.750 C 283.758 113.807,283.833 113.999,283.833 114.177 C 283.833 114.354,283.908 114.500,284.000 114.500 C 284.092 114.500,284.167 114.650,284.167 114.833 C 284.167 115.017,284.242 115.167,284.333 115.167 C 284.425 115.167,284.500 115.282,284.500 115.424 C 284.500 115.565,284.650 115.842,284.833 116.038 C 285.017 116.235,285.167 116.495,285.167 116.615 C 285.167 116.735,285.242 116.833,285.333 116.833 C 285.425 116.833,285.500 116.983,285.500 117.167 C 285.500 117.350,285.575 117.500,285.667 117.500 C 285.758 117.500,285.833 117.598,285.833 117.719 C 285.833 117.839,285.983 118.098,286.167 118.295 C 286.350 118.492,286.500 118.720,286.500 118.802 C 286.500 118.884,286.725 119.186,287.000 119.474 C 287.275 119.762,287.500 120.080,287.500 120.182 C 287.500 120.283,287.709 120.565,287.965 120.808 C 288.220 121.051,288.612 121.513,288.835 121.833 C 289.337 122.554,291.970 125.167,292.195 125.167 C 292.285 125.167,292.648 125.467,293.000 125.833 C 293.352 126.200,293.710 126.500,293.796 126.500 C 293.881 126.500,294.186 126.725,294.474 127.000 C 294.762 127.275,295.094 127.500,295.212 127.500 C 295.330 127.500,295.535 127.650,295.667 127.833 C 295.799 128.017,296.024 128.167,296.167 128.167 C 296.310 128.167,296.535 128.317,296.667 128.500 C 296.799 128.683,297.006 128.833,297.127 128.833 C 297.248 128.833,297.508 128.983,297.705 129.167 C 297.902 129.350,298.161 129.500,298.281 129.500 C 298.402 129.500,298.500 129.575,298.500 129.667 C 298.500 129.758,298.650 129.833,298.833 129.833 C 299.017 129.833,299.167 129.908,299.167 130.000 C 299.167 130.092,299.317 130.167,299.500 130.167 C 299.683 130.167,299.834 130.223,299.835 130.292 C 299.835 130.360,300.004 130.499,300.210 130.600 C 300.415 130.701,300.921 130.954,301.333 131.163 C 301.746 131.371,302.214 131.607,302.373 131.688 C 302.532 131.768,302.776 131.833,302.914 131.833 C 303.053 131.833,303.167 131.908,303.167 132.000 C 303.167 132.092,303.317 132.167,303.500 132.167 C 303.683 132.167,303.833 132.242,303.833 132.333 C 303.833 132.425,303.979 132.500,304.157 132.500 C 304.335 132.500,304.527 132.575,304.583 132.667 C 304.640 132.758,304.869 132.833,305.093 132.833 C 305.317 132.833,305.500 132.908,305.500 133.000 C 305.500 133.092,305.646 133.167,305.823 133.167 C 306.001 133.167,306.193 133.242,306.250 133.333 C 306.307 133.425,306.536 133.500,306.760 133.500 C 306.984 133.500,307.167 133.575,307.167 133.667 C 307.167 133.758,307.392 133.833,307.667 133.833 C 307.942 133.833,308.167 133.908,308.167 134.000 C 308.167 134.092,308.392 134.167,308.667 134.167 C 308.942 134.167,309.167 134.242,309.167 134.333 C 309.167 134.425,309.467 134.500,309.833 134.500 C 310.200 134.500,310.500 134.575,310.500 134.667 C 310.500 134.758,310.721 134.833,310.990 134.833 C 311.260 134.833,311.527 134.908,311.583 135.000 C 311.640 135.092,311.940 135.167,312.250 135.167 C 312.560 135.167,312.860 135.242,312.917 135.333 C 312.973 135.425,313.353 135.500,313.760 135.500 C 314.167 135.500,314.500 135.575,314.500 135.667 C 314.500 135.758,314.875 135.833,315.333 135.833 C 315.792 135.833,316.167 135.908,316.167 136.000 C 316.167 136.093,316.611 136.167,317.167 136.167 C 317.722 136.167,318.167 136.241,318.167 136.333 C 318.167 136.431,318.722 136.500,319.500 136.500 C 320.278 136.500,320.833 136.569,320.833 136.667 C 320.833 136.769,321.663 136.833,322.990 136.833 C 324.248 136.833,325.190 136.903,325.250 137.000 C 325.391 137.229,337.167 137.229,337.167 137.000 C 337.167 136.897,338.000 136.833,339.333 136.833 C 340.667 136.833,341.500 136.769,341.500 136.667 C 341.500 136.570,342.052 136.500,342.823 136.500 C 343.551 136.500,344.193 136.425,344.250 136.333 C 344.307 136.242,344.836 136.167,345.427 136.167 C 346.031 136.167,346.500 136.094,346.500 136.000 C 346.500 135.908,346.908 135.833,347.407 135.833 C 347.906 135.833,348.360 135.758,348.417 135.667 C 348.473 135.575,348.815 135.500,349.177 135.500 C 349.538 135.500,349.833 135.425,349.833 135.333 C 349.833 135.242,350.129 135.167,350.490 135.167 C 350.851 135.167,351.193 135.092,351.250 135.000 C 351.307 134.908,351.611 134.833,351.927 134.833 C 352.242 134.833,352.500 134.758,352.500 134.667 C 352.500 134.575,352.800 134.500,353.167 134.500 C 353.533 134.500,353.833 134.425,353.833 134.333 C 353.833 134.242,354.058 134.167,354.333 134.167 C 354.608 134.167,354.833 134.092,354.833 134.000 C 354.833 133.908,355.058 133.833,355.333 133.833 C 355.608 133.833,355.833 133.758,355.833 133.667 C 355.833 133.575,356.058 133.500,356.333 133.500 C 356.608 133.500,356.833 133.425,356.833 133.333 C 356.833 133.242,357.016 133.167,357.240 133.167 C 357.464 133.167,357.693 133.092,357.750 133.000 C 357.807 132.908,357.999 132.833,358.177 132.833 C 358.354 132.833,358.500 132.758,358.500 132.667 C 358.500 132.575,358.683 132.500,358.907 132.500 C 359.131 132.500,359.360 132.425,359.417 132.333 C 359.473 132.242,359.665 132.167,359.843 132.167 C 360.021 132.167,360.167 132.092,360.167 132.000 C 360.167 131.908,360.317 131.833,360.500 131.833 C 360.683 131.833,360.833 131.758,360.833 131.667 C 360.833 131.575,360.983 131.500,361.167 131.500 C 361.350 131.500,361.500 131.425,361.500 131.333 C 361.500 131.242,361.650 131.167,361.833 131.167 C 362.017 131.167,362.167 131.092,362.167 131.000 C 362.167 130.908,362.317 130.833,362.500 130.833 C 362.683 130.833,362.833 130.758,362.833 130.667 C 362.833 130.575,362.983 130.500,363.167 130.500 C 363.350 130.500,363.500 130.425,363.500 130.333 C 363.500 130.242,363.650 130.167,363.833 130.167 C 364.017 130.167,364.167 130.092,364.167 130.000 C 364.167 129.908,364.282 129.833,364.424 129.833 C 364.565 129.833,364.842 129.683,365.038 129.500 C 365.235 129.317,365.495 129.167,365.615 129.167 C 365.735 129.167,365.833 129.092,365.833 129.000 C 365.833 128.908,365.983 128.833,366.167 128.833 C 366.350 128.833,366.500 128.758,366.500 128.667 C 366.500 128.575,366.598 128.500,366.719 128.500 C 366.839 128.500,367.083 128.369,367.260 128.208 C 367.438 128.048,367.790 127.810,368.042 127.680 C 368.294 127.550,368.500 127.381,368.500 127.305 C 368.500 127.229,368.601 127.167,368.725 127.167 C 368.849 127.167,369.168 126.960,369.434 126.707 C 369.699 126.453,370.179 126.061,370.500 125.835 C 371.252 125.304,375.167 121.366,375.167 121.139 C 375.167 121.045,375.392 120.757,375.667 120.500 C 375.942 120.243,376.167 119.941,376.167 119.828 C 376.167 119.715,376.298 119.501,376.459 119.353 C 376.621 119.205,376.858 118.877,376.988 118.625 C 377.117 118.373,377.285 118.167,377.361 118.167 C 377.438 118.167,377.500 118.051,377.500 117.910 C 377.500 117.768,377.650 117.492,377.833 117.295 C 378.017 117.098,378.167 116.839,378.167 116.719 C 378.167 116.598,378.242 116.500,378.333 116.500 C 378.425 116.500,378.500 116.350,378.500 116.167 C 378.500 115.983,378.575 115.833,378.667 115.833 C 378.758 115.833,378.833 115.683,378.833 115.500 C 378.833 115.317,378.908 115.167,379.000 115.167 C 379.092 115.167,379.167 115.017,379.167 114.833 C 379.167 114.650,379.242 114.500,379.333 114.500 C 379.425 114.500,379.500 114.350,379.500 114.167 C 379.500 113.983,379.575 113.833,379.667 113.833 C 379.758 113.833,379.833 113.608,379.833 113.333 C 379.833 113.058,379.908 112.833,380.000 112.833 C 380.092 112.833,380.167 112.683,380.167 112.500 C 380.167 112.317,380.242 112.167,380.333 112.167 C 380.425 112.167,380.500 111.942,380.500 111.667 C 380.500 111.392,380.575 111.167,380.667 111.167 C 380.758 111.167,380.833 110.909,380.833 110.593 C 380.833 110.278,380.908 109.973,381.000 109.917 C 381.092 109.860,381.167 109.598,381.167 109.333 C 381.167 109.069,381.242 108.807,381.333 108.750 C 381.425 108.693,381.500 108.318,381.500 107.917 C 381.500 107.515,381.575 107.140,381.667 107.083 C 381.758 107.027,381.833 106.422,381.833 105.740 C 381.833 105.024,381.904 104.500,382.000 104.500 C 382.099 104.500,382.167 103.892,382.167 103.010 C 382.167 102.190,382.242 101.473,382.333 101.417 C 382.433 101.355,382.500 100.224,382.500 98.583 C 382.500 96.943,382.433 95.812,382.333 95.750 C 382.241 95.693,382.167 94.943,382.167 94.073 C 382.167 93.136,382.099 92.500,382.000 92.500 C 381.908 92.500,381.833 92.125,381.833 91.667 C 381.833 91.208,381.758 90.833,381.667 90.833 C 381.575 90.833,381.500 90.500,381.500 90.093 C 381.500 89.686,381.425 89.307,381.333 89.250 C 381.242 89.193,381.167 88.926,381.167 88.657 C 381.167 88.387,381.092 88.167,381.000 88.167 C 380.908 88.167,380.833 87.942,380.833 87.667 C 380.833 87.392,380.758 87.167,380.667 87.167 C 380.575 87.167,380.500 86.942,380.500 86.667 C 380.500 86.392,380.425 86.167,380.333 86.167 C 380.242 86.167,380.167 86.021,380.167 85.843 C 380.167 85.665,380.092 85.473,380.000 85.417 C 379.908 85.360,379.833 85.131,379.833 84.907 C 379.833 84.683,379.758 84.500,379.667 84.500 C 379.575 84.500,379.500 84.350,379.500 84.167 C 379.500 83.983,379.425 83.833,379.333 83.833 C 379.242 83.833,379.167 83.683,379.167 83.500 C 379.167 83.317,379.092 83.167,379.000 83.167 C 378.908 83.167,378.833 83.068,378.833 82.948 C 378.833 82.828,378.683 82.569,378.500 82.372 C 378.317 82.175,378.167 81.898,378.167 81.757 C 378.167 81.616,378.104 81.500,378.028 81.500 C 377.952 81.500,377.784 81.294,377.654 81.042 C 377.525 80.790,377.287 80.462,377.126 80.314 C 376.965 80.166,376.833 79.965,376.833 79.867 C 376.833 79.658,373.081 75.833,372.876 75.833 C 372.799 75.833,372.405 75.533,372.000 75.167 C 371.595 74.800,371.183 74.500,371.085 74.500 C 370.987 74.500,370.799 74.350,370.667 74.167 C 370.535 73.983,370.310 73.833,370.167 73.833 C 370.024 73.833,369.799 73.683,369.667 73.500 C 369.535 73.317,369.327 73.167,369.206 73.167 C 369.085 73.167,368.825 73.017,368.628 72.833 C 368.431 72.650,368.172 72.500,368.052 72.500 C 367.932 72.500,367.833 72.425,367.833 72.333 C 367.833 72.242,367.683 72.167,367.500 72.167 C 367.317 72.167,367.167 72.092,367.167 72.000 C 367.167 71.908,367.068 71.833,366.948 71.833 C 366.828 71.833,366.569 71.683,366.372 71.500 C 366.175 71.317,365.898 71.167,365.757 71.167 C 365.616 71.167,365.500 71.092,365.500 71.000 C 365.500 70.908,365.350 70.833,365.167 70.833 C 364.983 70.833,364.833 70.758,364.833 70.667 C 364.833 70.575,364.683 70.500,364.500 70.500 C 364.317 70.500,364.167 70.425,364.167 70.333 C 364.167 70.242,364.053 70.167,363.914 70.167 C 363.776 70.167,363.513 70.092,363.331 70.000 C 363.149 69.908,362.851 69.758,362.669 69.667 C 362.487 69.575,362.224 69.500,362.086 69.500 C 361.947 69.500,361.833 69.425,361.833 69.333 C 361.833 69.242,361.683 69.167,361.500 69.167 C 361.317 69.167,361.167 69.092,361.167 69.000 C 361.167 68.908,360.942 68.833,360.667 68.833 C 360.392 68.833,360.167 68.758,360.167 68.667 C 360.167 68.575,360.021 68.500,359.843 68.500 C 359.665 68.500,359.473 68.425,359.417 68.333 C 359.360 68.242,359.131 68.167,358.907 68.167 C 358.683 68.167,358.500 68.092,358.500 68.000 C 358.500 67.908,358.275 67.833,358.000 67.833 C 357.725 67.833,357.500 67.758,357.500 67.667 C 357.500 67.575,357.275 67.500,357.000 67.500 C 356.725 67.500,356.500 67.425,356.500 67.333 C 356.500 67.242,356.275 67.167,356.000 67.167 C 355.725 67.167,355.500 67.092,355.500 67.000 C 355.500 66.908,355.275 66.833,355.000 66.833 C 354.725 66.833,354.500 66.758,354.500 66.667 C 354.500 66.575,354.275 66.500,354.000 66.500 C 353.725 66.500,353.500 66.425,353.500 66.333 C 353.500 66.242,353.279 66.167,353.010 66.167 C 352.740 66.167,352.473 66.092,352.417 66.000 C 352.360 65.908,352.056 65.833,351.740 65.833 C 351.425 65.833,351.167 65.758,351.167 65.667 C 351.167 65.575,350.867 65.500,350.500 65.500 C 350.133 65.500,349.833 65.425,349.833 65.333 C 349.833 65.242,349.613 65.167,349.343 65.167 C 349.074 65.167,348.807 65.092,348.750 65.000 C 348.693 64.908,348.393 64.833,348.083 64.833 C 347.773 64.833,347.473 64.758,347.417 64.667 C 347.360 64.575,347.060 64.500,346.750 64.500 C 346.440 64.500,346.140 64.425,346.083 64.333 C 346.027 64.242,345.727 64.167,345.417 64.167 C 345.107 64.167,344.807 64.092,344.750 64.000 C 344.693 63.908,344.393 63.833,344.083 63.833 C 343.773 63.833,343.473 63.758,343.417 63.667 C 343.360 63.575,343.060 63.500,342.750 63.500 C 342.440 63.500,342.140 63.425,342.083 63.333 C 342.027 63.242,341.727 63.167,341.417 63.167 C 341.107 63.167,340.807 63.092,340.750 63.000 C 340.693 62.908,340.393 62.833,340.083 62.833 C 339.773 62.833,339.473 62.758,339.417 62.667 C 339.360 62.575,339.060 62.500,338.750 62.500 C 338.440 62.500,338.140 62.425,338.083 62.333 C 338.027 62.242,337.727 62.167,337.417 62.167 C 337.107 62.167,336.807 62.092,336.750 62.000 C 336.693 61.908,336.389 61.833,336.073 61.833 C 335.758 61.833,335.500 61.758,335.500 61.667 C 335.500 61.575,335.200 61.500,334.833 61.500 C 334.467 61.500,334.167 61.425,334.167 61.333 C 334.167 61.242,333.946 61.167,333.677 61.167 C 333.407 61.167,333.140 61.092,333.083 61.000 C 333.027 60.908,332.722 60.833,332.407 60.833 C 332.091 60.833,331.833 60.758,331.833 60.667 C 331.833 60.575,331.608 60.500,331.333 60.500 C 331.058 60.500,330.833 60.425,330.833 60.333 C 330.833 60.242,330.613 60.167,330.343 60.167 C 330.074 60.167,329.807 60.092,329.750 60.000 C 329.693 59.908,329.468 59.833,329.250 59.833 C 329.032 59.833,328.807 59.758,328.750 59.667 C 328.693 59.575,328.468 59.500,328.250 59.500 C 328.032 59.500,327.807 59.425,327.750 59.333 C 327.693 59.242,327.464 59.167,327.240 59.167 C 327.016 59.167,326.833 59.092,326.833 59.000 C 326.833 58.908,326.608 58.833,326.333 58.833 C 326.058 58.833,325.833 58.758,325.833 58.667 C 325.833 58.575,325.688 58.500,325.510 58.500 C 325.332 58.500,325.140 58.425,325.083 58.333 C 325.027 58.242,324.797 58.167,324.573 58.167 C 324.350 58.167,324.167 58.092,324.167 58.000 C 324.167 57.908,324.021 57.833,323.843 57.833 C 323.665 57.833,323.473 57.758,323.417 57.667 C 323.360 57.575,323.131 57.500,322.907 57.500 C 322.683 57.500,322.500 57.425,322.500 57.333 C 322.500 57.242,322.350 57.167,322.167 57.167 C 321.983 57.167,321.833 57.104,321.833 57.028 C 321.833 56.952,321.628 56.783,321.378 56.653 C 320.747 56.325,318.833 54.395,318.833 54.086 C 318.833 53.947,318.758 53.833,318.667 53.833 C 318.575 53.833,318.500 53.683,318.500 53.500 C 318.500 53.317,318.425 53.167,318.333 53.167 C 318.242 53.167,318.167 53.017,318.167 52.833 C 318.167 52.650,318.092 52.500,318.000 52.500 C 317.908 52.500,317.833 52.167,317.833 51.760 C 317.833 51.353,317.758 50.973,317.667 50.917 C 317.575 50.860,317.500 50.668,317.500 50.490 C 317.500 50.312,317.575 50.167,317.667 50.167 C 317.758 50.167,317.833 49.867,317.833 49.500 C 317.833 49.133,317.908 48.833,318.000 48.833 C 318.092 48.833,318.167 48.683,318.167 48.500 C 318.167 48.317,318.242 48.167,318.333 48.167 C 318.425 48.167,318.500 48.052,318.500 47.912 C 318.500 47.602,319.905 46.167,320.209 46.167 C 320.328 46.167,320.535 46.017,320.667 45.833 C 320.799 45.650,321.040 45.500,321.203 45.500 C 321.367 45.500,321.500 45.425,321.500 45.333 C 321.500 45.242,321.650 45.167,321.833 45.167 C 322.017 45.167,322.167 45.092,322.167 45.000 C 322.167 44.908,322.317 44.833,322.500 44.833 C 322.683 44.833,322.833 44.758,322.833 44.667 C 322.833 44.575,323.016 44.500,323.240 44.500 C 323.464 44.500,323.693 44.425,323.750 44.333 C 323.807 44.242,324.032 44.167,324.250 44.167 C 324.468 44.167,324.693 44.092,324.750 44.000 C 324.807 43.908,325.074 43.833,325.343 43.833 C 325.613 43.833,325.833 43.758,325.833 43.667 C 325.833 43.575,326.241 43.500,326.740 43.500 C 327.239 43.500,327.693 43.425,327.750 43.333 C 327.811 43.235,328.804 43.167,330.167 43.167 C 331.529 43.167,332.523 43.235,332.583 43.333 C 332.640 43.425,333.094 43.500,333.593 43.500 C 334.092 43.500,334.500 43.575,334.500 43.667 C 334.500 43.758,334.758 43.833,335.073 43.833 C 335.389 43.833,335.693 43.908,335.750 44.000 C 335.807 44.092,336.032 44.167,336.250 44.167 C 336.468 44.167,336.693 44.242,336.750 44.333 C 336.807 44.425,336.999 44.500,337.177 44.500 C 337.354 44.500,337.500 44.575,337.500 44.667 C 337.500 44.758,337.650 44.833,337.833 44.833 C 338.017 44.833,338.167 44.908,338.167 45.000 C 338.167 45.092,338.317 45.167,338.500 45.167 C 338.683 45.167,338.833 45.242,338.833 45.333 C 338.833 45.425,338.983 45.500,339.167 45.500 C 339.350 45.500,339.500 45.562,339.500 45.639 C 339.500 45.715,339.706 45.883,339.958 46.012 C 340.210 46.142,340.529 46.364,340.667 46.507 C 340.804 46.649,341.179 46.946,341.500 47.167 C 342.116 47.590,342.833 48.330,342.833 48.543 C 342.833 48.613,343.058 48.905,343.333 49.193 C 343.608 49.481,343.833 49.817,343.833 49.941 C 343.833 50.065,343.908 50.167,344.000 50.167 C 344.092 50.167,344.167 50.317,344.167 50.500 C 344.167 50.683,344.242 50.833,344.333 50.833 C 344.425 50.833,344.500 50.983,344.500 51.167 C 344.500 51.350,344.575 51.500,344.667 51.500 C 344.758 51.500,344.833 51.725,344.833 52.000 C 344.833 52.275,344.908 52.500,345.000 52.500 C 345.092 52.500,345.167 52.721,345.167 52.990 C 345.167 53.260,345.242 53.527,345.333 53.583 C 345.425 53.640,345.500 54.019,345.500 54.427 L 345.500 55.167 361.667 55.167 L 377.833 55.167 377.833 53.667 C 377.833 52.778,377.765 52.167,377.667 52.167 C 377.571 52.167,377.500 51.667,377.500 51.000 C 377.500 50.333,377.429 49.833,377.333 49.833 C 377.242 49.833,377.167 49.463,377.167 49.010 C 377.167 48.557,377.092 48.140,377.000 48.083 C 376.908 48.027,376.833 47.647,376.833 47.240 C 376.833 46.833,376.758 46.500,376.667 46.500 C 376.575 46.500,376.500 46.200,376.500 45.833 C 376.500 45.467,376.425 45.167,376.333 45.167 C 376.242 45.167,376.167 44.942,376.167 44.667 C 376.167 44.392,376.092 44.167,376.000 44.167 C 375.908 44.167,375.833 43.946,375.833 43.677 C 375.833 43.407,375.758 43.140,375.667 43.083 C 375.575 43.027,375.500 42.797,375.500 42.573 C 375.500 42.350,375.425 42.167,375.333 42.167 C 375.242 42.167,375.167 41.942,375.167 41.667 C 375.167 41.392,375.092 41.167,375.000 41.167 C 374.908 41.167,374.833 41.021,374.833 40.843 C 374.833 40.665,374.758 40.473,374.667 40.417 C 374.575 40.360,374.500 40.131,374.500 39.907 C 374.500 39.683,374.425 39.500,374.333 39.500 C 374.242 39.500,374.167 39.350,374.167 39.167 C 374.167 38.983,374.092 38.833,374.000 38.833 C 373.908 38.833,373.833 38.683,373.833 38.500 C 373.833 38.317,373.758 38.167,373.667 38.167 C 373.575 38.167,373.500 38.017,373.500 37.833 C 373.500 37.650,373.425 37.500,373.333 37.500 C 373.242 37.500,373.167 37.384,373.167 37.243 C 373.167 37.102,373.017 36.825,372.833 36.628 C 372.650 36.431,372.500 36.172,372.500 36.052 C 372.500 35.932,372.425 35.833,372.333 35.833 C 372.242 35.833,372.167 35.700,372.167 35.537 C 372.167 35.374,372.017 35.132,371.833 35.000 C 371.650 34.868,371.500 34.663,371.500 34.545 C 371.500 34.427,371.275 34.095,371.000 33.807 C 370.725 33.519,370.500 33.221,370.500 33.145 C 370.500 32.775,365.854 28.167,365.481 28.167 C 365.382 28.167,365.090 27.942,364.833 27.667 C 364.576 27.392,364.303 27.166,364.225 27.166 C 364.147 27.166,363.821 26.941,363.500 26.667 C 363.179 26.392,362.823 26.167,362.708 26.167 C 362.594 26.167,362.500 26.092,362.500 26.000 C 362.500 25.908,362.402 25.833,362.281 25.833 C 362.161 25.833,361.902 25.683,361.705 25.500 C 361.508 25.317,361.232 25.167,361.090 25.167 C 360.949 25.167,360.833 25.092,360.833 25.000 C 360.833 24.908,360.683 24.833,360.500 24.833 C 360.317 24.833,360.167 24.758,360.167 24.667 C 360.167 24.575,360.017 24.500,359.833 24.500 C 359.650 24.500,359.500 24.425,359.500 24.333 C 359.500 24.242,359.350 24.167,359.167 24.167 C 358.983 24.167,358.833 24.092,358.833 24.000 C 358.833 23.908,358.683 23.833,358.500 23.833 C 358.317 23.833,358.167 23.758,358.167 23.667 C 358.167 23.575,358.017 23.500,357.833 23.500 C 357.650 23.500,357.500 23.425,357.500 23.333 C 357.500 23.242,357.350 23.167,357.167 23.167 C 356.983 23.167,356.833 23.092,356.833 23.000 C 356.833 22.908,356.608 22.833,356.333 22.833 C 356.058 22.833,355.833 22.758,355.833 22.667 C 355.833 22.575,355.683 22.500,355.500 22.500 C 355.317 22.500,355.167 22.425,355.167 22.333 C 355.167 22.242,354.942 22.167,354.667 22.167 C 354.392 22.167,354.167 22.092,354.167 22.000 C 354.167 21.908,353.942 21.833,353.667 21.833 C 353.392 21.833,353.167 21.758,353.167 21.667 C 353.167 21.575,352.942 21.500,352.667 21.500 C 352.392 21.500,352.167 21.425,352.167 21.333 C 352.167 21.242,351.946 21.167,351.677 21.167 C 351.407 21.167,351.140 21.092,351.083 21.000 C 351.027 20.908,350.722 20.833,350.407 20.833 C 350.091 20.833,349.833 20.758,349.833 20.667 C 349.833 20.575,349.533 20.500,349.167 20.500 C 348.800 20.500,348.500 20.425,348.500 20.333 C 348.500 20.242,348.200 20.167,347.833 20.167 C 347.467 20.167,347.167 20.092,347.167 20.000 C 347.167 19.908,346.871 19.833,346.510 19.833 C 346.149 19.833,345.807 19.758,345.750 19.667 C 345.693 19.575,345.318 19.500,344.917 19.500 C 344.515 19.500,344.140 19.425,344.083 19.333 C 344.027 19.242,343.497 19.167,342.907 19.167 C 342.302 19.167,341.833 19.094,341.833 19.000 C 341.833 18.899,341.111 18.833,340.000 18.833 C 338.889 18.833,338.167 18.768,338.167 18.667 C 338.167 18.558,335.753 18.500,331.260 18.500 C 326.835 18.500,324.316 18.560,324.250 18.667 M272.917 21.000 C 272.849 21.109,267.026 21.167,255.990 21.167 L 239.167 21.167 239.167 77.833 L 239.167 134.500 240.833 134.500 C 241.833 134.500,242.500 134.567,242.500 134.667 C 242.500 134.777,247.833 134.833,258.167 134.833 C 273.563 134.833,273.833 134.828,273.833 134.510 C 273.833 134.332,273.908 134.140,274.000 134.083 C 274.231 133.940,274.231 35.833,274.000 35.833 C 273.891 35.833,273.833 33.222,273.833 28.333 L 273.833 20.833 273.427 20.833 C 273.203 20.833,272.973 20.908,272.917 21.000 M132.500 21.833 C 132.500 22.200,132.575 22.500,132.667 22.500 C 132.776 22.500,132.833 27.167,132.833 36.167 L 132.833 49.833 146.573 49.833 C 155.554 49.833,160.349 49.891,160.417 50.000 C 160.476 50.096,161.363 50.167,162.510 50.167 L 164.500 50.167 164.500 90.167 C 164.500 116.722,164.556 130.167,164.667 130.167 C 164.769 130.167,164.833 131.000,164.833 132.333 L 164.833 134.500 165.323 134.500 C 165.593 134.500,165.860 134.575,165.917 134.667 C 165.984 134.776,171.724 134.833,182.593 134.833 L 199.167 134.833 199.167 128.593 C 199.167 124.613,199.227 122.316,199.333 122.250 C 199.444 122.182,199.500 109.970,199.500 86.157 L 199.500 50.167 202.500 50.167 C 204.389 50.167,205.500 50.105,205.500 50.000 C 205.500 49.890,209.944 49.833,218.500 49.833 L 231.500 49.833 231.500 35.500 L 231.500 21.167 182.000 21.167 L 132.500 21.167 132.500 21.833 M78.167 46.667 C 78.167 46.759,78.611 46.833,79.167 46.833 C 79.722 46.833,80.167 46.907,80.167 47.000 C 80.167 47.092,80.467 47.167,80.833 47.167 C 81.200 47.167,81.500 47.242,81.500 47.333 C 81.500 47.425,81.725 47.500,82.000 47.500 C 82.275 47.500,82.500 47.575,82.500 47.667 C 82.500 47.758,82.725 47.833,83.000 47.833 C 83.275 47.833,83.500 47.908,83.500 48.000 C 83.500 48.092,83.650 48.167,83.833 48.167 C 84.017 48.167,84.167 48.242,84.167 48.333 C 84.167 48.425,84.264 48.500,84.383 48.500 C 84.690 48.500,85.497 48.892,85.499 49.042 C 85.499 49.110,85.650 49.167,85.833 49.167 C 86.017 49.167,86.167 49.242,86.167 49.333 C 86.167 49.425,86.317 49.500,86.500 49.500 C 86.683 49.500,86.833 49.562,86.833 49.639 C 86.833 49.715,87.038 49.883,87.289 50.014 C 87.539 50.144,87.963 50.456,88.230 50.708 C 88.497 50.960,88.785 51.167,88.868 51.167 C 89.093 51.167,91.833 53.997,91.833 54.228 C 91.833 54.337,91.983 54.535,92.167 54.667 C 92.350 54.799,92.500 54.989,92.500 55.089 C 92.500 55.189,92.631 55.416,92.792 55.594 C 92.952 55.771,93.190 56.123,93.320 56.375 C 93.450 56.627,93.619 56.833,93.695 56.833 C 93.771 56.833,93.833 56.983,93.833 57.167 C 93.833 57.350,93.908 57.500,94.000 57.500 C 94.092 57.500,94.167 57.650,94.167 57.833 C 94.167 58.017,94.223 58.167,94.292 58.168 C 94.441 58.170,94.833 58.977,94.833 59.283 C 94.833 59.402,94.908 59.500,95.000 59.500 C 95.092 59.500,95.167 59.650,95.167 59.833 C 95.167 60.017,95.242 60.167,95.333 60.167 C 95.425 60.167,95.500 60.317,95.500 60.500 C 95.500 60.683,95.575 60.833,95.667 60.833 C 95.758 60.833,95.833 61.016,95.833 61.240 C 95.833 61.464,95.908 61.693,96.000 61.750 C 96.092 61.807,96.167 61.999,96.167 62.177 C 96.167 62.354,96.242 62.500,96.333 62.500 C 96.425 62.500,96.500 62.725,96.500 63.000 C 96.500 63.275,96.575 63.500,96.667 63.500 C 96.758 63.500,96.833 63.721,96.833 63.990 C 96.833 64.260,96.908 64.527,97.000 64.583 C 97.092 64.640,97.167 64.944,97.167 65.260 C 97.167 65.575,97.242 65.833,97.333 65.833 C 97.425 65.833,97.500 66.166,97.500 66.573 C 97.500 66.981,97.575 67.360,97.667 67.417 C 97.758 67.473,97.833 67.890,97.833 68.343 C 97.833 68.796,97.908 69.167,98.000 69.167 C 98.095 69.167,98.167 69.667,98.167 70.333 C 98.167 71.000,98.238 71.500,98.333 71.500 C 98.441 71.500,98.500 73.608,98.500 77.490 C 98.500 81.304,98.439 83.518,98.333 83.583 C 98.242 83.640,98.167 84.319,98.167 85.093 C 98.167 85.920,98.098 86.500,98.000 86.500 C 97.907 86.500,97.833 86.944,97.833 87.500 C 97.833 88.056,97.759 88.500,97.667 88.500 C 97.575 88.500,97.500 88.875,97.500 89.333 C 97.500 89.792,97.425 90.167,97.333 90.167 C 97.242 90.167,97.167 90.387,97.167 90.657 C 97.167 90.926,97.092 91.193,97.000 91.250 C 96.908 91.307,96.833 91.611,96.833 91.927 C 96.833 92.242,96.758 92.500,96.667 92.500 C 96.575 92.500,96.500 92.683,96.500 92.907 C 96.500 93.131,96.425 93.360,96.333 93.417 C 96.242 93.473,96.167 93.665,96.167 93.843 C 96.167 94.021,96.092 94.167,96.000 94.167 C 95.908 94.167,95.833 94.350,95.833 94.573 C 95.833 94.797,95.758 95.027,95.667 95.083 C 95.575 95.140,95.500 95.332,95.500 95.510 C 95.500 95.688,95.425 95.833,95.333 95.833 C 95.242 95.833,95.167 95.983,95.167 96.167 C 95.167 96.350,95.092 96.500,95.000 96.500 C 94.908 96.500,94.833 96.650,94.833 96.833 C 94.833 97.017,94.758 97.167,94.667 97.167 C 94.575 97.167,94.500 97.282,94.500 97.424 C 94.500 97.565,94.350 97.842,94.167 98.038 C 93.983 98.235,93.833 98.495,93.833 98.615 C 93.833 98.735,93.758 98.833,93.667 98.833 C 93.575 98.833,93.500 98.967,93.500 99.130 C 93.500 99.293,93.350 99.535,93.167 99.667 C 92.983 99.799,92.833 99.987,92.833 100.085 C 92.833 100.183,92.533 100.595,92.167 101.000 C 91.800 101.405,91.500 101.797,91.500 101.870 C 91.500 102.080,88.360 105.167,88.147 105.167 C 88.042 105.167,87.834 105.298,87.686 105.459 C 87.538 105.621,87.210 105.858,86.958 105.988 C 86.706 106.117,86.500 106.285,86.500 106.361 C 86.500 106.438,86.350 106.500,86.167 106.500 C 85.983 106.500,85.833 106.575,85.833 106.667 C 85.833 106.758,85.683 106.833,85.500 106.833 C 85.317 106.833,85.167 106.908,85.167 107.000 C 85.167 107.092,85.017 107.167,84.833 107.167 C 84.650 107.167,84.500 107.242,84.500 107.333 C 84.500 107.425,84.350 107.500,84.167 107.500 C 83.983 107.500,83.833 107.575,83.833 107.667 C 83.833 107.758,83.650 107.833,83.427 107.833 C 83.203 107.833,82.973 107.908,82.917 108.000 C 82.860 108.092,82.635 108.167,82.417 108.167 C 82.198 108.167,81.973 108.242,81.917 108.333 C 81.860 108.425,81.593 108.500,81.323 108.500 C 81.054 108.500,80.833 108.575,80.833 108.667 C 80.833 108.758,80.458 108.833,80.000 108.833 C 79.542 108.833,79.167 108.908,79.167 109.000 C 79.167 109.105,78.000 109.167,76.000 109.167 C 74.000 109.167,72.833 109.105,72.833 109.000 C 72.833 108.908,72.458 108.833,72.000 108.833 C 71.542 108.833,71.167 108.758,71.167 108.667 C 71.167 108.575,70.867 108.500,70.500 108.500 C 70.133 108.500,69.833 108.425,69.833 108.333 C 69.833 108.242,69.608 108.167,69.333 108.167 C 69.058 108.167,68.833 108.092,68.833 108.000 C 68.833 107.908,68.720 107.833,68.581 107.833 C 68.442 107.833,68.180 107.758,67.998 107.667 C 67.816 107.575,67.518 107.425,67.336 107.333 C 67.154 107.242,66.891 107.167,66.752 107.167 C 66.614 107.167,66.500 107.092,66.500 107.000 C 66.500 106.908,66.402 106.833,66.281 106.833 C 66.161 106.833,65.902 106.683,65.705 106.500 C 65.508 106.317,65.232 106.167,65.090 106.167 C 64.949 106.167,64.833 106.104,64.833 106.028 C 64.833 105.952,64.630 105.783,64.381 105.653 C 63.365 105.122,59.167 100.929,59.167 100.445 C 59.167 100.359,59.035 100.168,58.874 100.020 C 58.713 99.871,58.475 99.544,58.346 99.292 C 58.216 99.040,58.048 98.833,57.972 98.833 C 57.896 98.833,57.833 98.683,57.833 98.500 C 57.833 98.317,57.767 98.167,57.686 98.167 C 57.605 98.167,57.497 98.035,57.446 97.875 C 57.323 97.485,56.781 96.597,56.625 96.528 C 56.556 96.497,56.500 96.295,56.500 96.079 C 56.500 95.863,56.425 95.640,56.333 95.583 C 56.242 95.527,56.167 95.335,56.167 95.157 C 56.167 94.979,56.092 94.833,56.000 94.833 C 55.908 94.833,55.833 94.683,55.833 94.500 C 55.833 94.317,55.758 94.167,55.667 94.167 C 55.575 94.167,55.500 93.942,55.500 93.667 C 55.500 93.392,55.425 93.167,55.333 93.167 C 55.242 93.167,55.167 92.942,55.167 92.667 C 55.167 92.392,55.092 92.167,55.000 92.167 C 54.908 92.167,54.833 91.909,54.833 91.593 C 54.833 91.278,54.758 90.973,54.667 90.917 C 54.575 90.860,54.500 90.560,54.500 90.250 C 54.500 89.940,54.425 89.640,54.333 89.583 C 54.242 89.527,54.167 89.185,54.167 88.823 C 54.167 88.462,54.092 88.167,54.000 88.167 C 53.907 88.167,53.833 87.722,53.833 87.167 C 53.833 86.611,53.759 86.167,53.667 86.167 C 53.567 86.167,53.500 85.500,53.500 84.500 C 53.500 83.500,53.433 82.833,53.333 82.833 C 53.226 82.833,53.167 81.222,53.167 78.333 C 53.167 75.444,53.226 73.833,53.333 73.833 C 53.436 73.833,53.500 73.031,53.500 71.760 C 53.500 70.557,53.570 69.643,53.667 69.583 C 53.758 69.527,53.833 69.035,53.833 68.490 C 53.833 67.941,53.908 67.500,54.000 67.500 C 54.092 67.500,54.167 67.204,54.167 66.843 C 54.167 66.482,54.242 66.140,54.333 66.083 C 54.425 66.027,54.500 65.722,54.500 65.407 C 54.500 65.091,54.575 64.833,54.667 64.833 C 54.758 64.833,54.833 64.533,54.833 64.167 C 54.833 63.800,54.908 63.500,55.000 63.500 C 55.092 63.500,55.167 63.317,55.167 63.093 C 55.167 62.869,55.242 62.640,55.333 62.583 C 55.425 62.527,55.500 62.335,55.500 62.157 C 55.500 61.979,55.575 61.833,55.667 61.833 C 55.758 61.833,55.833 61.608,55.833 61.333 C 55.833 61.058,55.908 60.833,56.000 60.833 C 56.092 60.833,56.167 60.683,56.167 60.500 C 56.167 60.317,56.242 60.167,56.333 60.167 C 56.425 60.167,56.500 60.017,56.500 59.833 C 56.500 59.650,56.575 59.500,56.667 59.500 C 56.758 59.500,56.833 59.350,56.833 59.167 C 56.833 58.983,56.908 58.833,57.000 58.833 C 57.092 58.833,57.167 58.683,57.167 58.500 C 57.167 58.317,57.242 58.167,57.333 58.167 C 57.425 58.167,57.500 58.051,57.500 57.910 C 57.500 57.768,57.650 57.492,57.833 57.295 C 58.017 57.098,58.167 56.839,58.167 56.719 C 58.167 56.598,58.242 56.500,58.333 56.500 C 58.425 56.500,58.500 56.406,58.500 56.292 C 58.501 56.177,58.725 55.821,59.000 55.500 C 59.275 55.179,59.499 54.851,59.500 54.770 C 59.500 54.534,63.967 50.167,64.208 50.167 C 64.328 50.167,64.535 50.017,64.667 49.833 C 64.799 49.650,65.040 49.500,65.203 49.500 C 65.367 49.500,65.501 49.444,65.501 49.375 C 65.502 49.306,65.671 49.167,65.876 49.067 C 66.082 48.966,66.587 48.712,67.000 48.504 C 67.412 48.296,67.880 48.059,68.039 47.979 C 68.199 47.899,68.442 47.833,68.581 47.833 C 68.720 47.833,68.833 47.758,68.833 47.667 C 68.833 47.575,69.058 47.500,69.333 47.500 C 69.608 47.500,69.833 47.425,69.833 47.333 C 69.833 47.242,70.133 47.167,70.500 47.167 C 70.867 47.167,71.167 47.092,71.167 47.000 C 71.167 46.908,71.542 46.833,72.000 46.833 C 72.458 46.833,72.833 46.758,72.833 46.667 C 72.833 46.563,73.833 46.500,75.500 46.500 C 77.167 46.500,78.167 46.563,78.167 46.667 " stroke="none" fill="#045c9c" fill-rule="evenodd"></path><path id="path1" d="" stroke="none" fill="#085c9c" fill-rule="evenodd"></path><path id="path2" d="" stroke="none" fill="#085c9c" fill-rule="evenodd"></path><path id="path3" d="" stroke="none" fill="#085c9c" fill-rule="evenodd"></path><path id="path4" d="" stroke="none" fill="#085c9c" fill-rule="evenodd"></path></g></svg>
