<?xml version="1.0" encoding="utf-8"?>
<!-- Generator: Adobe Illustrator 23.0.1, SVG Export Plug-In . SVG Version: 6.00 Build 0)  -->
<svg version="1.1" id="Ebene_1" xmlns="http://www.w3.org/2000/svg" xmlns:xlink="http://www.w3.org/1999/xlink" x="0px" y="0px"
	 viewBox="0 0 300 40" style="enable-background:new 0 0 300 40;" xml:space="preserve">
<g>
	<path d="M0.37,3.63H13.5c3.39,0,6.01,0.7,7.87,2.09c1.85,1.4,2.78,3.22,2.78,5.47c0,2.15-0.74,4.07-2.2,5.78
		c-1.11,1.32-2.53,2.39-4.28,3.22l6.37,10.77c1.46,2.43,3,4.4,4.6,5.9c0.71,0.65,1.29,1.09,1.72,1.34c0.53,0.36,0.88,0.56,1.02,0.58
		v0.32c-1.07,0.22-1.97,0.32-2.68,0.32c-1.64,0-3.05-0.36-4.23-1.07c-1.56-0.96-3.04-2.65-4.4-5.04l-6.97-12H8.58v14.89l4.07,2.57
		v0.32H0.37v-0.39l3.44-2.51V6.51L0.37,4V3.63L0.37,3.63z M116.17,39.79c-3.12-0.19-5.69-1.18-7.73-2.96c-1.03-0.93-1.84-2-2.4-3.22
		s-0.85-2.5-0.85-3.85c0-2.46,0.88-4.74,2.62-6.85c1.6-1.89,3.62-3.37,6.05-4.45c-1.32-1.32-2.25-2.53-2.78-3.65
		c-0.53-1.11-0.8-2.28-0.8-3.48c0-1.68,0.67-3.17,2.03-4.45c1.4-1.32,3.19-1.98,5.42-1.98c0.85,0,1.73,0.12,2.62,0.35
		c0.89,0.23,1.68,0.56,2.35,0.98v-0.1h0.32l-0.1,5.47h-0.32c-0.43-1.75-1.03-3.04-1.82-3.88c-0.79-0.84-1.81-1.27-3.05-1.27
		c-1.11,0-2.02,0.37-2.73,1.1c-0.71,0.74-1.07,1.63-1.07,2.7c0,0.71,0.25,1.47,0.72,2.28c0.48,0.8,1.46,2.09,2.95,3.85
		c1.47,1.77,4.33,5.07,8.55,9.88l2.84,3.27l0.8-1.4c2.18-4.03,3.66-6.66,4.45-7.87l-3.7-2.84V17.1h10.23v0.32
		c-1.14,0.65-2.09,1.27-2.84,1.87s-1.45,1.31-2.09,2.09c-0.53,0.67-1.14,1.6-1.8,2.75c-0.66,1.16-1.38,2.47-2.17,3.93l-0.85,1.55
		l-0.75,1.34l0.8,0.9c1.25,1.42,2.43,2.59,3.57,3.48c1.12,0.89,2.47,1.42,4.05,1.6c0.93,0.1,1.89-0.05,2.9-0.48l0.16,0.22
		c-1.76,1.86-3.76,2.78-6.05,2.78c-1.76,0-3.14-0.32-4.18-0.97s-2.35-1.93-3.97-3.85c-2.65,3.14-5.73,4.85-9.22,5.11h-2.12v0.03
		H116.17z M196.32,39.79c-1.72-0.67-3.12-1.6-4.21-2.81c-0.67,0.57-1.55,1.14-2.62,1.72c-1.29,0.65-2.3,0.96-3.05,0.96
		c-1.89,0-3.41-0.52-4.58-1.55c-1.16-1.03-1.75-2.33-1.75-3.85c0-0.96,0.22-1.77,0.65-2.43c0.43-0.66,0.88-1.06,1.34-1.2l1.18-0.37
		l5.2-1.6l3.48-1.07v-4.5c0-1.29-0.32-2.31-0.96-3.08c-0.65-0.76-1.59-1.15-2.83-1.15c-1.36,0-2.52,0.56-3.48,1.65v3.22l-4.18-1.23
		v-0.27c1.42-1.68,2.66-2.91,3.7-3.7c1.82-1.4,3.81-2.09,6-2.09c1.82,0,3.3,0.52,4.45,1.55c1,0.96,1.5,2.16,1.5,3.59l-0.1,7.6
		l-0.1,6.15c1.4,0.89,2.71,1.5,3.97,1.82v0.32l-3.19,2.33L196.32,39.79L196.32,39.79z M299.66,17.05l-1.38,4.03
		c-0.06-0.04-0.4-0.16-0.96-0.37c-0.57-0.22-1.22-0.32-1.93-0.32c-0.67,0-1.47,0.18-2.38,0.53c-0.9,0.36-1.76,0.88-2.55,1.55v13.98
		l4.28,2.3v0.32h-11.69v-0.32l3.17-2.3V20.7l-3-1.55v-0.37l0.65-0.27c0.32-0.14,0.66-0.27,1.02-0.37c0.36-0.1,0.71-0.23,1.07-0.37
		c0.18-0.04,0.79-0.23,1.82-0.58l2.68-0.8v4.71c1.64-1.75,2.96-2.96,3.97-3.65c0.93-0.67,1.65-1.01,2.2-1.01
		c0.65,0,1.23,0.08,1.77,0.22l1.27,0.37L299.66,17.05L299.66,17.05z M12.01,5.28H8.58v14.4h4.87c1.64,0,3.05-0.74,4.23-2.2
		c1.14-1.36,1.72-3.01,1.72-4.98c0-1.25-0.19-2.35-0.58-3.3c-0.4-0.94-0.94-1.71-1.65-2.28C15.83,5.84,14.11,5.28,12.01,5.28
		 M29.75,28.37c0-1.64,0.28-3.18,0.85-4.6c0.57-1.42,1.37-2.7,2.4-3.8c1-1.07,2.17-1.9,3.5-2.5c1.34-0.58,2.74-0.88,4.2-0.88
		c1.46,0,2.87,0.27,4.23,0.83s2.53,1.32,3.54,2.28c1.03,1.03,1.84,2.25,2.4,3.65c0.57,1.4,0.85,2.91,0.85,4.55
		c0,1.64-0.28,3.19-0.85,4.63c-0.57,1.45-1.37,2.7-2.4,3.78c-1,1.03-2.17,1.85-3.5,2.43c-1.34,0.58-2.75,0.88-4.25,0.88
		s-2.91-0.27-4.23-0.8c-1.32-0.53-2.48-1.31-3.48-2.3c-1.03-1.03-1.84-2.24-2.4-3.62C30.04,31.53,29.75,30.01,29.75,28.37
		 M34.37,28.1c0,1.4,0.17,2.69,0.5,3.88c0.34,1.2,0.8,2.25,1.37,3.14c0.57,0.89,1.25,1.58,2.03,2.06c0.79,0.48,1.6,0.72,2.46,0.72
		s1.68-0.25,2.46-0.75c0.79-0.5,1.47-1.18,2.09-2.03c1.25-1.82,1.87-4.16,1.87-7.02c0-2.82-0.62-5.16-1.87-7.02
		c-0.61-0.89-1.31-1.58-2.09-2.06c-0.79-0.48-1.6-0.72-2.46-0.72c-0.83,0-1.62,0.25-2.38,0.72c-0.76,0.48-1.45,1.16-2.06,2.06
		C35,23.01,34.37,25.35,34.37,28.1 M36.29,5.71c-0.65,0-1.18,0.22-1.6,0.67c-0.43,0.45-0.65,0.98-0.65,1.63
		c0,0.61,0.22,1.12,0.65,1.55c0.43,0.43,0.97,0.65,1.6,0.65c0.61,0,1.14-0.22,1.58-0.65c0.45-0.43,0.67-0.94,0.67-1.55
		c0-0.65-0.22-1.19-0.67-1.63C37.42,5.94,36.9,5.71,36.29,5.71 M45.12,5.76c-0.65,0-1.16,0.22-1.58,0.65
		c-0.41,0.43-0.62,0.96-0.62,1.6c0,0.61,0.21,1.11,0.62,1.53s0.93,0.62,1.58,0.62c0.61,0,1.12-0.21,1.55-0.62
		c0.43-0.41,0.65-0.92,0.65-1.53c0-0.65-0.22-1.18-0.65-1.6C46.25,5.98,45.73,5.76,45.12,5.76 M70.62,4.79l-3.59-1.65V2.76l0.7-0.27
		l4.33-1.45l2.78-0.8V35.7l3.7,1.45v0.37l-3.85,0.96L72,39.18l-1.34,0.32v-2.95c-0.57,0.67-1.51,1.37-2.84,2.09
		c-1.22,0.65-2.29,0.96-3.22,0.96c-1.46,0-2.81-0.27-4.05-0.83c-1.23-0.56-2.28-1.33-3.14-2.33c-0.89-0.96-1.59-2.11-2.09-3.43
		s-0.75-2.71-0.75-4.18c0-1.54,0.27-3.04,0.8-4.5c0.53-1.46,1.31-2.77,2.3-3.9c1.07-1.22,2.37-2.16,3.9-2.81c1.54-0.66,3.27-1,5.2-1
		c1.82,0,3.09,0.09,3.8,0.27L70.62,4.79L70.62,4.79z M66.61,36.72c0.71,0,1.45-0.14,2.22-0.43c0.76-0.28,1.37-0.65,1.8-1.07v-15.7
		c-0.32-0.22-0.76-0.47-1.34-0.75c-0.75-0.28-1.63-0.43-2.62-0.43c-2.21,0-4.06,0.93-5.52,2.78c-1.4,1.78-2.09,4.02-2.09,6.7
		c0,2.75,0.74,4.95,2.2,6.58C62.6,35.95,64.39,36.72,66.61,36.72 M87.39,0.24l-2.68,0.8l-3.97,1.4c-0.47,0.18-0.71,0.28-0.75,0.32
		v0.37l3.17,1.65v31.65l-3.17,2.3v0.32h10.61v-0.32l-3.22-2.3V0.24L87.39,0.24z M118.35,37.05c1.64,0,3.1-0.32,4.37-0.96
		c1.27-0.65,2.46-1.59,3.57-2.83l-11.47-13.82c-1.56,1-2.82,2.28-3.75,3.83c-0.93,1.55-1.4,3.26-1.4,5.12c0,2.57,0.76,4.63,2.3,6.15
		C113.58,36.21,115.71,37.05,118.35,37.05 M180.16,13.48c0,3.57-1.45,6.43-4.33,8.57c-1.29,0.96-2.79,1.69-4.52,2.2
		c-1.73,0.5-3.54,0.74-5.44,0.7v-0.48c1.22-0.18,2.38-0.54,3.5-1.1s2.12-1.27,2.97-2.12c1.97-1.97,2.95-4.33,2.95-7.12
		c0-2.68-0.8-4.82-2.4-6.43c-1.6-1.6-3.93-2.4-6.97-2.4h-2.52v30.91l4.07,2.57v0.32h-12.37v-0.32l3.54-2.57V6.51l-3.54-2.57V3.63
		h12.75c3.68,0,6.61,0.83,8.79,2.46C178.98,7.87,180.16,10.34,180.16,13.48 M191.89,35.7c0-1.36,0.01-2.39,0.05-3.1v-3.27
		l-2.03,0.65c-1.36,0.43-2.82,0.94-4.4,1.55c-0.18,0.08-0.4,0.16-0.65,0.25c-0.25,0.09-0.41,0.18-0.48,0.27
		c-0.08,0.09-0.13,0.22-0.16,0.4c-0.1,0.32-0.16,0.67-0.16,1.07c0,0.93,0.35,1.73,1.05,2.4c0.7,0.67,1.65,1.01,2.86,1.01
		c0.83,0,1.56-0.13,2.25-0.37C190.9,36.31,191.46,36.02,191.89,35.7 M204.31,20.7v15.75l-3.17,2.3v0.32h11.67v-0.32l-4.28-2.3V22.48
		c0.79-0.67,1.63-1.2,2.55-1.55c0.9-0.36,1.71-0.53,2.38-0.53c0.71,0,1.36,0.1,1.93,0.32c0.57,0.22,0.89,0.34,0.96,0.37l1.4-4.07
		l-1.29-0.37c-0.53-0.14-1.12-0.22-1.77-0.22c-0.53,0-1.27,0.34-2.2,1.01c-1,0.67-2.33,1.9-3.97,3.65v-4.71l-2.68,0.8
		c-1.03,0.36-1.64,0.56-1.82,0.58c-0.36,0.14-0.71,0.27-1.07,0.37c-0.36,0.1-0.7,0.23-1.02,0.37l-0.65,0.27v0.37L204.31,20.7z
		 M234.06,19.63l1.55-2.4h-9.17v-3.48l-7.18,5.52v0.37h2.95v14.35c0,1.46,0.48,2.7,1.45,3.7c1.18,1.25,2.87,1.87,5.09,1.87
		c1.5,0,2.96-0.37,4.4-1.12c1.03-0.53,1.98-1.27,2.83-2.2l-0.22-0.37c-1.5,0.71-3.08,1.07-4.71,1.07c-1.54,0-2.69-0.37-3.45-1.12
		s-1.15-1.72-1.15-2.9V19.63H234.06z M247.71,39.08v-0.32l-3.22-2.3V21.88c1.72-1.72,3.57-2.57,5.57-2.57
		c1.56,0,2.78,0.41,3.62,1.23c0.84,0.83,1.27,1.84,1.27,3.05v12.85l-3.1,2.3v0.32h10.55v-0.32l-3.22-2.3V22.1
		c0-1.46-0.66-2.77-1.98-3.9c-1.36-1.07-2.92-1.6-4.71-1.6c-1.4,0-2.95,0.43-4.65,1.29c-0.61,0.28-1.2,0.66-1.8,1.12
		c-0.58,0.47-1.1,0.89-1.53,1.29v-3.9l-2.68,0.8c-1.03,0.36-1.64,0.56-1.82,0.58c-0.36,0.14-0.71,0.27-1.07,0.37
		c-0.36,0.1-0.7,0.23-1.02,0.37l-0.65,0.27v0.37l3,1.55v15.75l-3.17,2.3v0.32L247.71,39.08L247.71,39.08z M266.68,27.08
		c0,2.96,0.83,5.3,2.46,7.02c0.75,0.79,1.64,1.4,2.68,1.82c1.03,0.43,2.16,0.65,3.37,0.65c2,0,3.93-0.37,5.78-1.12l0.22,0.37
		c-0.89,0.89-2,1.69-3.32,2.4c-1.76,0.93-3.46,1.4-5.15,1.4c-3,0-5.43-0.98-7.29-2.95c-1.97-2.07-2.95-4.84-2.95-8.3
		c0-1.56,0.26-3.08,0.78-4.5c0.52-1.42,1.27-2.68,2.22-3.75c0.96-1.11,2.06-1.97,3.27-2.6c1.22-0.62,2.5-0.93,3.85-0.93
		c2.33,0,4.19,0.8,5.62,2.4c1.07,1.25,1.89,2.87,2.46,4.87v0.05h-13.72C266.78,24.88,266.68,25.94,266.68,27.08 M272.41,18.3
		c-1.03,0-1.99,0.34-2.86,1.02c-0.88,0.67-1.56,1.68-2.06,3h8.67c-0.14-1.42-0.62-2.5-1.45-3.22
		C274.03,18.57,273.27,18.3,272.41,18.3"/>
	<path d="M0.37,3.63H13.5c3.39,0,6.01,0.7,7.87,2.09c1.85,1.4,2.78,3.22,2.78,5.47c0,2.15-0.74,4.07-2.2,5.78
		c-1.11,1.32-2.53,2.39-4.28,3.22l6.37,10.77c1.46,2.43,3,4.4,4.6,5.9c0.71,0.65,1.29,1.09,1.72,1.34c0.53,0.36,0.88,0.56,1.02,0.58
		v0.32c-1.07,0.22-1.97,0.32-2.68,0.32c-1.64,0-3.05-0.36-4.23-1.07c-1.56-0.96-3.04-2.65-4.4-5.04l-6.97-12H8.58v14.89l4.07,2.57
		v0.32H0.37v-0.39l3.44-2.51V6.51L0.37,4V3.63L0.37,3.63z M116.17,39.79c-3.12-0.19-5.69-1.18-7.73-2.96c-1.03-0.93-1.84-2-2.4-3.22
		s-0.85-2.5-0.85-3.85c0-2.46,0.88-4.74,2.62-6.85c1.6-1.89,3.62-3.37,6.05-4.45c-1.32-1.32-2.25-2.53-2.78-3.65
		c-0.53-1.11-0.8-2.28-0.8-3.48c0-1.68,0.67-3.17,2.03-4.45c1.4-1.32,3.19-1.98,5.42-1.98c0.85,0,1.73,0.12,2.62,0.35
		c0.89,0.23,1.68,0.56,2.35,0.98v-0.1h0.32l-0.1,5.47h-0.32c-0.43-1.75-1.03-3.04-1.82-3.88c-0.79-0.84-1.81-1.27-3.05-1.27
		c-1.11,0-2.02,0.37-2.73,1.1c-0.71,0.74-1.07,1.63-1.07,2.7c0,0.71,0.25,1.47,0.72,2.28c0.48,0.8,1.46,2.09,2.95,3.85
		c1.47,1.77,4.33,5.07,8.55,9.88l2.84,3.27l0.8-1.4c2.18-4.03,3.66-6.66,4.45-7.87l-3.7-2.84V17.1h10.23v0.32
		c-1.14,0.65-2.09,1.27-2.84,1.87s-1.45,1.31-2.09,2.09c-0.53,0.67-1.14,1.6-1.8,2.75c-0.66,1.16-1.38,2.47-2.17,3.93l-0.85,1.55
		l-0.75,1.34l0.8,0.9c1.25,1.42,2.43,2.59,3.57,3.48c1.12,0.89,2.47,1.42,4.05,1.6c0.93,0.1,1.89-0.05,2.9-0.48l0.16,0.22
		c-1.76,1.86-3.76,2.78-6.05,2.78c-1.76,0-3.14-0.32-4.18-0.97s-2.35-1.93-3.97-3.85c-2.65,3.14-5.73,4.85-9.22,5.11h-2.12v0.03
		H116.17z M196.32,39.79c-1.72-0.67-3.12-1.6-4.21-2.81c-0.67,0.57-1.55,1.14-2.62,1.72c-1.29,0.65-2.3,0.96-3.05,0.96
		c-1.89,0-3.41-0.52-4.58-1.55c-1.16-1.03-1.75-2.33-1.75-3.85c0-0.96,0.22-1.77,0.65-2.43c0.43-0.66,0.88-1.06,1.34-1.2l1.18-0.37
		l5.2-1.6l3.48-1.07v-4.5c0-1.29-0.32-2.31-0.96-3.08c-0.65-0.76-1.59-1.15-2.83-1.15c-1.36,0-2.52,0.56-3.48,1.65v3.22l-4.18-1.23
		v-0.27c1.42-1.68,2.66-2.91,3.7-3.7c1.82-1.4,3.81-2.09,6-2.09c1.82,0,3.3,0.52,4.45,1.55c1,0.96,1.5,2.16,1.5,3.59l-0.1,7.6
		l-0.1,6.15c1.4,0.89,2.71,1.5,3.97,1.82v0.32l-3.19,2.33L196.32,39.79L196.32,39.79z M299.66,17.05l-1.38,4.03
		c-0.06-0.04-0.4-0.16-0.96-0.37c-0.57-0.22-1.22-0.32-1.93-0.32c-0.67,0-1.47,0.18-2.38,0.53c-0.9,0.36-1.76,0.88-2.55,1.55v13.98
		l4.28,2.3v0.32h-11.69v-0.32l3.17-2.3V20.7l-3-1.55v-0.37l0.65-0.27c0.32-0.14,0.66-0.27,1.02-0.37c0.36-0.1,0.71-0.23,1.07-0.37
		c0.18-0.04,0.79-0.23,1.82-0.58l2.68-0.8v4.71c1.64-1.75,2.96-2.96,3.97-3.65c0.93-0.67,1.65-1.01,2.2-1.01
		c0.65,0,1.23,0.08,1.77,0.22l1.27,0.37L299.66,17.05L299.66,17.05z M12.01,5.28H8.58v14.4h4.87c1.64,0,3.05-0.74,4.23-2.2
		c1.14-1.36,1.72-3.01,1.72-4.98c0-1.25-0.19-2.35-0.58-3.3c-0.4-0.94-0.94-1.71-1.65-2.28C15.83,5.84,14.11,5.28,12.01,5.28
		 M29.75,28.37c0-1.64,0.28-3.18,0.85-4.6c0.57-1.42,1.37-2.7,2.4-3.8c1-1.07,2.17-1.9,3.5-2.5c1.34-0.58,2.74-0.88,4.2-0.88
		c1.46,0,2.87,0.27,4.23,0.83s2.53,1.32,3.54,2.28c1.03,1.03,1.84,2.25,2.4,3.65c0.57,1.4,0.85,2.91,0.85,4.55
		c0,1.64-0.28,3.19-0.85,4.63c-0.57,1.45-1.37,2.7-2.4,3.78c-1,1.03-2.17,1.85-3.5,2.43c-1.34,0.58-2.75,0.88-4.25,0.88
		s-2.91-0.27-4.23-0.8c-1.32-0.53-2.48-1.31-3.48-2.3c-1.03-1.03-1.84-2.24-2.4-3.62C30.04,31.53,29.75,30.01,29.75,28.37
		 M34.37,28.1c0,1.4,0.17,2.69,0.5,3.88c0.34,1.2,0.8,2.25,1.37,3.14c0.57,0.89,1.25,1.58,2.03,2.06c0.79,0.48,1.6,0.72,2.46,0.72
		s1.68-0.25,2.46-0.75c0.79-0.5,1.47-1.18,2.09-2.03c1.25-1.82,1.87-4.16,1.87-7.02c0-2.82-0.62-5.16-1.87-7.02
		c-0.61-0.89-1.31-1.58-2.09-2.06c-0.79-0.48-1.6-0.72-2.46-0.72c-0.83,0-1.62,0.25-2.38,0.72c-0.76,0.48-1.45,1.16-2.06,2.06
		C35,23.01,34.37,25.35,34.37,28.1 M36.29,5.71c-0.65,0-1.18,0.22-1.6,0.67c-0.43,0.45-0.65,0.98-0.65,1.63
		c0,0.61,0.22,1.12,0.65,1.55c0.43,0.43,0.97,0.65,1.6,0.65c0.61,0,1.14-0.22,1.58-0.65c0.45-0.43,0.67-0.94,0.67-1.55
		c0-0.65-0.22-1.19-0.67-1.63C37.42,5.94,36.9,5.71,36.29,5.71 M45.12,5.76c-0.65,0-1.16,0.22-1.58,0.65
		c-0.41,0.43-0.62,0.96-0.62,1.6c0,0.61,0.21,1.11,0.62,1.53s0.93,0.62,1.58,0.62c0.61,0,1.12-0.21,1.55-0.62
		c0.43-0.41,0.65-0.92,0.65-1.53c0-0.65-0.22-1.18-0.65-1.6C46.25,5.98,45.73,5.76,45.12,5.76 M70.62,4.79l-3.59-1.65V2.76l0.7-0.27
		l4.33-1.45l2.78-0.8V35.7l3.7,1.45v0.37l-3.85,0.96L72,39.18l-1.34,0.32v-2.95c-0.57,0.67-1.51,1.37-2.84,2.09
		c-1.22,0.65-2.29,0.96-3.22,0.96c-1.46,0-2.81-0.27-4.05-0.83c-1.23-0.56-2.28-1.33-3.14-2.33c-0.89-0.96-1.59-2.11-2.09-3.43
		s-0.75-2.71-0.75-4.18c0-1.54,0.27-3.04,0.8-4.5c0.53-1.46,1.31-2.77,2.3-3.9c1.07-1.22,2.37-2.16,3.9-2.81c1.54-0.66,3.27-1,5.2-1
		c1.82,0,3.09,0.09,3.8,0.27L70.62,4.79L70.62,4.79z M66.61,36.72c0.71,0,1.45-0.14,2.22-0.43c0.76-0.28,1.37-0.65,1.8-1.07v-15.7
		c-0.32-0.22-0.76-0.47-1.34-0.75c-0.75-0.28-1.63-0.43-2.62-0.43c-2.21,0-4.06,0.93-5.52,2.78c-1.4,1.78-2.09,4.02-2.09,6.7
		c0,2.75,0.74,4.95,2.2,6.58C62.6,35.95,64.39,36.72,66.61,36.72 M87.39,0.24l-2.68,0.8l-3.97,1.4c-0.47,0.18-0.71,0.28-0.75,0.32
		v0.37l3.17,1.65v31.65l-3.17,2.3v0.32h10.61v-0.32l-3.22-2.3V0.24L87.39,0.24z M118.35,37.05c1.64,0,3.1-0.32,4.37-0.96
		c1.27-0.65,2.46-1.59,3.57-2.83l-11.47-13.82c-1.56,1-2.82,2.28-3.75,3.83c-0.93,1.55-1.4,3.26-1.4,5.12c0,2.57,0.76,4.63,2.3,6.15
		C113.58,36.21,115.71,37.05,118.35,37.05 M180.16,13.48c0,3.57-1.45,6.43-4.33,8.57c-1.29,0.96-2.79,1.69-4.52,2.2
		c-1.73,0.5-3.54,0.74-5.44,0.7v-0.48c1.22-0.18,2.38-0.54,3.5-1.1s2.12-1.27,2.97-2.12c1.97-1.97,2.95-4.33,2.95-7.12
		c0-2.68-0.8-4.82-2.4-6.43c-1.6-1.6-3.93-2.4-6.97-2.4h-2.52v30.91l4.07,2.57v0.32h-12.37v-0.32l3.54-2.57V6.51l-3.54-2.57V3.63
		h12.75c3.68,0,6.61,0.83,8.79,2.46C178.98,7.87,180.16,10.34,180.16,13.48 M191.89,35.7c0-1.36,0.01-2.39,0.05-3.1v-3.27
		l-2.03,0.65c-1.36,0.43-2.82,0.94-4.4,1.55c-0.18,0.08-0.4,0.16-0.65,0.25c-0.25,0.09-0.41,0.18-0.48,0.27
		c-0.08,0.09-0.13,0.22-0.16,0.4c-0.1,0.32-0.16,0.67-0.16,1.07c0,0.93,0.35,1.73,1.05,2.4c0.7,0.67,1.65,1.01,2.86,1.01
		c0.83,0,1.56-0.13,2.25-0.37C190.9,36.31,191.46,36.02,191.89,35.7 M204.31,20.7v15.75l-3.17,2.3v0.32h11.67v-0.32l-4.28-2.3V22.48
		c0.79-0.67,1.63-1.2,2.55-1.55c0.9-0.36,1.71-0.53,2.38-0.53c0.71,0,1.36,0.1,1.93,0.32c0.57,0.22,0.89,0.34,0.96,0.37l1.4-4.07
		l-1.29-0.37c-0.53-0.14-1.12-0.22-1.77-0.22c-0.53,0-1.27,0.34-2.2,1.01c-1,0.67-2.33,1.9-3.97,3.65v-4.71l-2.68,0.8
		c-1.03,0.36-1.64,0.56-1.82,0.58c-0.36,0.14-0.71,0.27-1.07,0.37c-0.36,0.1-0.7,0.23-1.02,0.37l-0.65,0.27v0.37L204.31,20.7z
		 M234.06,19.63l1.55-2.4h-9.17v-3.48l-7.18,5.52v0.37h2.95v14.35c0,1.46,0.48,2.7,1.45,3.7c1.18,1.25,2.87,1.87,5.09,1.87
		c1.5,0,2.96-0.37,4.4-1.12c1.03-0.53,1.98-1.27,2.83-2.2l-0.22-0.37c-1.5,0.71-3.08,1.07-4.71,1.07c-1.54,0-2.69-0.37-3.45-1.12
		s-1.15-1.72-1.15-2.9V19.63H234.06z M247.71,39.08v-0.32l-3.22-2.3V21.88c1.72-1.72,3.57-2.57,5.57-2.57
		c1.56,0,2.78,0.41,3.62,1.23c0.84,0.83,1.27,1.84,1.27,3.05v12.85l-3.1,2.3v0.32h10.55v-0.32l-3.22-2.3V22.1
		c0-1.46-0.66-2.77-1.98-3.9c-1.36-1.07-2.92-1.6-4.71-1.6c-1.4,0-2.95,0.43-4.65,1.29c-0.61,0.28-1.2,0.66-1.8,1.12
		c-0.58,0.47-1.1,0.89-1.53,1.29v-3.9l-2.68,0.8c-1.03,0.36-1.64,0.56-1.82,0.58c-0.36,0.14-0.71,0.27-1.07,0.37
		c-0.36,0.1-0.7,0.23-1.02,0.37l-0.65,0.27v0.37l3,1.55v15.75l-3.17,2.3v0.32L247.71,39.08L247.71,39.08z M266.68,27.08
		c0,2.96,0.83,5.3,2.46,7.02c0.75,0.79,1.64,1.4,2.68,1.82c1.03,0.43,2.16,0.65,3.37,0.65c2,0,3.93-0.37,5.78-1.12l0.22,0.37
		c-0.89,0.89-2,1.69-3.32,2.4c-1.76,0.93-3.46,1.4-5.15,1.4c-3,0-5.43-0.98-7.29-2.95c-1.97-2.07-2.95-4.84-2.95-8.3
		c0-1.56,0.26-3.08,0.78-4.5c0.52-1.42,1.27-2.68,2.22-3.75c0.96-1.11,2.06-1.97,3.27-2.6c1.22-0.62,2.5-0.93,3.85-0.93
		c2.33,0,4.19,0.8,5.62,2.4c1.07,1.25,1.89,2.87,2.46,4.87v0.05h-13.72C266.78,24.88,266.68,25.94,266.68,27.08 M272.41,18.3
		c-1.03,0-1.99,0.34-2.86,1.02c-0.88,0.67-1.56,1.68-2.06,3h8.67c-0.14-1.42-0.62-2.5-1.45-3.22
		C274.03,18.57,273.27,18.3,272.41,18.3"/>
</g>
</svg>
