<svg width="148" height="64" viewBox="0 0 148 64" fill="none" xmlns="http://www.w3.org/2000/svg">
<path opacity="1" d="M135 41H146.227L148 42.7692L136.773 64L135 62.2308V41Z" fill="#000000"/>
<rect x="136.772" y="42.769" width="11.2273" height="21.2308" fill="#0E4F95"/>
<path d="M137.886 61V47H142.145C143.233 47 144.011 47.1273 144.478 47.382C144.945 47.6303 145.328 48.0664 145.628 48.6903C145.928 49.3079 146.078 50.0496 146.078 50.9154C146.078 52.0105 145.847 52.8922 145.386 53.5607C144.931 54.2292 144.281 54.6494 143.436 54.8213C143.87 55.1778 144.228 55.5694 144.511 55.9959C144.795 56.4161 145.181 57.1737 145.67 58.2688L146.886 61H144.478L143.011 57.9536C142.483 56.8522 142.125 56.1646 141.936 55.8909C141.747 55.6107 141.547 55.4197 141.336 55.3179C141.125 55.2096 140.786 55.1555 140.32 55.1555H139.903V61H137.886ZM139.903 52.9209H141.403C142.32 52.9209 142.903 52.8763 143.153 52.7872C143.403 52.6917 143.606 52.5039 143.761 52.2237C143.917 51.9436 143.995 51.5712 143.995 51.1064C143.995 50.6608 143.917 50.3042 143.761 50.0368C143.606 49.7631 143.395 49.5753 143.128 49.4734C142.939 49.4034 142.392 49.3683 141.486 49.3683H139.903V52.9209Z" fill="white"/>
<path opacity="1" d="M120 41H131.227L133 42.7692L121.773 64L120 62.2308V41Z" fill="#000000"/>
<rect x="121.772" y="42.769" width="11.2273" height="21.2308" fill="#0E4F95"/>
<path d="M122.542 54.2832C122.542 52.6628 122.755 51.3299 123.181 50.2847C123.614 49.2332 124.176 48.4508 124.868 47.9375C125.561 47.4242 126.4 47.1675 127.387 47.1675C128.816 47.1675 129.979 47.7767 130.877 48.9951C131.78 50.2135 132.232 51.9484 132.232 54.1997C132.232 56.4757 131.755 58.2539 130.802 59.5342C129.966 60.666 128.83 61.2319 127.395 61.2319C125.949 61.2319 124.808 60.6722 123.971 59.5527C123.018 58.2725 122.542 56.516 122.542 54.2832ZM124.619 54.1904C124.619 55.7552 124.885 56.9303 125.417 57.7158C125.949 58.4951 126.608 58.8848 127.395 58.8848C128.187 58.8848 128.844 58.4982 129.364 57.7251C129.885 56.9458 130.146 55.7521 130.146 54.144C130.146 52.5669 129.891 51.401 129.381 50.6465C128.877 49.8919 128.215 49.5146 127.395 49.5146C126.575 49.5146 125.907 49.895 125.392 50.6558C124.877 51.4165 124.619 52.5947 124.619 54.1904Z" fill="white"/>
<path opacity="1" d="M105 41H116.227L118 42.7692L106.773 64L105 62.2308V41Z" fill="#000000"/>
<rect x="106.772" y="42.769" width="11.2273" height="21.2308" fill="#0E4F95"/>
<path d="M111.269 61V49.7002H107.957V47.3994H116.816V49.7002H113.514V61H111.269Z" fill="white"/>
<path opacity="1" d="M90 41H101.227L103 42.7692L91.7727 64L90 62.2308V41Z" fill="#000000"/>
<rect x="91.7725" y="42.769" width="11.2273" height="21.2308" fill="#0E4F95"/>
<path d="M92.5347 54.2832C92.5347 52.6628 92.7483 51.3299 93.1755 50.2847C93.6082 49.2332 94.1714 48.4508 94.8649 47.9375C95.5584 47.4242 96.399 47.1675 97.3866 47.1675C98.818 47.1675 99.9831 47.7767 100.882 48.9951C101.786 50.2135 102.238 51.9484 102.238 54.1997C102.238 56.4757 101.761 58.2539 100.807 59.5342C99.9693 60.666 98.8319 61.2319 97.3949 61.2319C95.9468 61.2319 94.8039 60.6722 93.9661 59.5527C93.0118 58.2725 92.5347 56.516 92.5347 54.2832ZM94.6152 54.1904C94.6152 55.7552 94.8816 56.9303 95.4142 57.7158C95.9468 58.4951 96.6071 58.8848 97.3949 58.8848C98.1883 58.8848 98.8458 58.4982 99.3673 57.7251C99.8888 56.9458 100.15 55.7521 100.15 54.144C100.15 52.5669 99.8944 51.401 99.3839 50.6465C98.879 49.8919 98.216 49.5146 97.3949 49.5146C96.5738 49.5146 95.9052 49.895 95.3892 50.6558C94.8732 51.4165 94.6152 52.5947 94.6152 54.1904Z" fill="white"/>
<path opacity="1" d="M75 41H86.2273L88 42.7692L76.7727 64L75 62.2308V41Z" fill="#000000"/>
<rect x="76.7725" y="42.769" width="11.2273" height="21.2308" fill="#0E4F95"/>
<path d="M77.4004 61V47.3994H80.4181L82.3904 56.6768L84.2456 47.3994H87.3719V61H85.4394V50.2939L83.3867 61H81.377L79.3414 50.2939V61H77.4004Z" fill="white"/>
<path opacity="1" d="M61 41H72.2273L74 42.7692L62.7727 64L61 62.2308V41Z" fill="#000000"/>
<rect x="62.7725" y="42.769" width="11.2273" height="21.2308" fill="#0E4F95"/>
<path d="M63.5288 54.2832C63.5288 52.6628 63.7427 51.3299 64.1703 50.2847C64.6036 49.2332 65.1674 48.4508 65.8617 47.9375C66.556 47.4242 67.3975 47.1675 68.3862 47.1675C69.8192 47.1675 70.9856 47.7767 71.8855 48.9951C72.7908 50.2135 73.2435 51.9484 73.2435 54.1997C73.2435 56.4757 72.7658 58.2539 71.8105 59.5342C70.9718 60.666 69.8331 61.2319 68.3945 61.2319C66.9448 61.2319 65.8006 60.6722 64.9619 59.5527C64.0065 58.2725 63.5288 56.516 63.5288 54.2832ZM65.6117 54.1904C65.6117 55.7552 65.8783 56.9303 66.4116 57.7158C66.9448 58.4951 67.6058 58.8848 68.3945 58.8848C69.1888 58.8848 69.847 58.4982 70.3691 57.7251C70.8912 56.9458 71.1523 55.7521 71.1523 54.144C71.1523 52.5669 70.8968 51.401 70.3858 50.6465C69.8803 49.8919 69.2166 49.5146 68.3945 49.5146C67.5724 49.5146 66.9031 49.895 66.3866 50.6558C65.87 51.4165 65.6117 52.5947 65.6117 54.1904Z" fill="white"/>
<path opacity="1" d="M46 41H57.2273L59 42.7692L47.7727 64L46 62.2308V41Z" fill="#000000"/>
<rect x="47.7725" y="42.769" width="11.2273" height="21.2308" fill="#0E4F95"/>
<path d="M52.1758 61L48.1958 47.3994H50.6357L53.4561 57.4653L56.1836 47.3994H58.5771L54.5879 61H52.1758Z" fill="white"/>
<path opacity="1" d="M31 41H42.2273L44 42.7692L32.7727 64L31 62.2308V41Z" fill="#000000"/>
<rect x="32.7725" y="42.769" width="11.2273" height="21.2308" fill="#0E4F95"/>
<path d="M33.8862 61V47H38.1446C39.2335 47 40.0112 47.1273 40.4779 47.382C40.9446 47.6303 41.3279 48.0664 41.6279 48.6903C41.9279 49.3079 42.0779 50.0496 42.0779 50.9154C42.0779 52.0105 41.8473 52.8922 41.3862 53.5607C40.9307 54.2292 40.2807 54.6494 39.4362 54.8213C39.8696 55.1778 40.2279 55.5694 40.4112 55.9959C40.7946 56.4161 41.1807 57.1737 41.6696 58.2688L42.8862 61H40.4779L39.0112 57.9536C38.4835 56.8522 38.1251 56.1646 37.9362 55.8909C37.7473 55.6107 37.5473 55.4197 37.3362 55.3179C37.1251 55.2096 36.7862 55.1555 36.3196 55.1555H35.9029V61H33.8862ZM35.9029 52.9209H37.4029C38.3196 52.9209 38.9029 52.8763 39.1529 52.7872C39.4029 52.6917 39.6057 52.5039 39.7612 52.2237C39.9168 51.9436 39.9946 51.5712 39.9946 51.1064C39.9946 50.6608 39.9168 50.3042 39.7612 50.0368C39.6057 49.7631 39.3946 49.5753 39.1279 49.4734C38.939 49.4034 38.3918 49.3683 37.4862 49.3683H35.9029V52.9209Z" fill="white"/>
<path opacity="1" d="M16 41H27.2273L29 42.7692L17.7727 64L16 62.2308V41Z" fill="#000000"/>
<rect x="17.7725" y="42.769" width="11.2273" height="21.2308" fill="#0E4F95"/>
<path d="M19.1465 61V47.3994H27.4219V49.7002H21.3916V52.7153H26.9951V55.0068H21.3916V58.7085H27.626V61H19.1465Z" fill="white"/>
<path opacity="1" d="M1 41H12.2273L14 42.7692L2.77273 64L1 62.2308V41Z" fill="#000000"/>
<rect x="2.77246" y="42.769" width="11.2273" height="21.2308" fill="#0E4F95"/>
<path d="M3.85449 56.5747L6.05322 56.3149C6.30062 58.0529 7.11084 58.9219 8.48389 58.9219C9.16423 58.9219 9.69922 58.7456 10.0889 58.3931C10.4785 58.0343 10.6733 57.5921 10.6733 57.0664C10.6733 56.7572 10.6053 56.4943 10.4692 56.2778C10.3332 56.0614 10.126 55.8851 9.84766 55.749C9.56934 55.6068 8.89518 55.3717 7.8252 55.0439C6.86654 54.7533 6.16455 54.4378 5.71924 54.0977C5.27393 53.7575 4.91829 53.3122 4.65234 52.7617C4.39258 52.2051 4.2627 51.6082 4.2627 50.9712C4.2627 50.229 4.42969 49.561 4.76367 48.9673C5.10384 48.3735 5.5708 47.9251 6.16455 47.6221C6.7583 47.319 7.49121 47.1675 8.36328 47.1675C9.67448 47.1675 10.6981 47.5231 11.4341 48.2344C12.1701 48.9456 12.5597 49.9631 12.603 51.2866L10.3486 51.4072C10.2497 50.6774 10.0363 50.1672 9.7085 49.8765C9.3807 49.5858 8.91374 49.4404 8.30762 49.4404C7.7015 49.4404 7.23454 49.5672 6.90674 49.8208C6.57894 50.0744 6.41504 50.3898 6.41504 50.7671C6.41504 51.1382 6.56348 51.4505 6.86035 51.7041C7.15723 51.9577 7.84066 52.236 8.91064 52.5391C10.0425 52.8669 10.8589 53.2132 11.3599 53.5781C11.867 53.9368 12.2536 54.4038 12.5195 54.979C12.7855 55.548 12.9185 56.2407 12.9185 57.0571C12.9185 58.2384 12.5535 59.2311 11.8237 60.0352C11.1001 60.8392 9.96517 61.2412 8.41895 61.2412C5.68522 61.2412 4.16374 59.6857 3.85449 56.5747Z" fill="white"/>
<path opacity="1" d="M75 0H94L97 3L78 39L75 36V0Z" fill="#000000"/>
<path opacity="1" d="M49 0H68L71 3L52 39L49 36V0Z" fill="#000000"/>
<path opacity="1" d="M25 0H44L47 3L28 39L25 36V0Z" fill="#000000"/>
<path opacity="1" d="M0 0H19L22 3L3 39L0 36V0Z" fill="#000000"/>
<rect x="3" y="3" width="19" height="36" fill="#0E4F95"/>
<rect x="28" y="3" width="19" height="36" fill="#0E4F95"/>
<rect x="52" y="3" width="19" height="36" fill="#0E4F95"/>
<rect x="78" y="3" width="19" height="36" fill="#0E4F95"/>
<path d="M5 36V12H12.5704C14.5062 12 15.8889 12.2183 16.7185 12.6548C17.5481 13.0805 18.2296 13.8281 18.763 14.8977C19.2963 15.9563 19.563 17.2278 19.563 18.7121C19.563 20.4894 19.1531 22.101 18.3333 23.2469C17.5235 24.3929 16.3679 25.1132 14.8667 25.4079C15.637 26.0191 16.2741 26.6903 16.7778 27.4216C17.2815 28.1419 17.9679 29.4407 18.837 31.3179L21 36H16.7185L14.1111 30.7776C13.1728 28.8895 12.5358 27.7108 12.2 27.2415C11.8642 26.7613 11.5086 26.4338 11.1333 26.2592C10.758 26.0737 10.1556 25.9809 9.32593 25.9809H8.58519V36H5ZM8.58519 22.1501H11.2519C12.8815 22.1501 13.9185 22.0737 14.363 21.9209C14.8074 21.7572 15.1679 21.4352 15.4444 20.955C15.721 20.4748 15.8593 19.8363 15.8593 19.0396C15.8593 18.2756 15.721 17.6644 15.4444 17.206C15.1679 16.7367 14.7926 16.4147 14.3185 16.2401C13.9827 16.1201 13.0099 16.06 11.4 16.06H8.58519V22.1501Z" fill="white"/>
<path d="M30 12.3779H33.8994V25.1719C33.8994 27.1592 33.9478 28.4536 34.0444 29.0552C34.2163 30.0972 34.6245 30.9028 35.269 31.4722C35.9243 32.0415 36.7837 32.3262 37.8472 32.3262C38.7495 32.3262 39.4854 32.1274 40.0547 31.73C40.624 31.3218 41.0107 30.7632 41.2148 30.0542C41.4297 29.3345 41.5371 27.7983 41.5371 25.4458V12.3779H45.4526V24.7852C45.4526 27.9541 45.2808 30.2476 44.937 31.6655C44.604 33.0728 43.8413 34.2168 42.6489 35.0977C41.4673 35.9678 39.9043 36.4028 37.96 36.4028C35.9404 36.4028 34.3613 36.043 33.2227 35.3232C32.0947 34.5928 31.2729 33.5723 30.7573 32.2617C30.2524 30.9404 30 28.5127 30 24.9785V12.3779Z" fill="white"/>
<path d="M66.084 27.3149L69.8706 28.7812C69.2798 31.4238 68.2969 33.3574 66.9219 34.582C65.5469 35.7959 63.855 36.4028 61.8462 36.4028C59.3218 36.4028 57.2754 35.4307 55.707 33.4863C53.9023 31.2412 53 28.2119 53 24.3984C53 20.3701 53.9077 17.2173 55.7231 14.9399C57.3022 12.9634 59.4238 11.9751 62.0879 11.9751C64.2578 11.9751 66.0732 12.7163 67.5342 14.1987C68.5762 15.2515 69.3389 16.8145 69.8223 18.8877L65.9551 20.0156C65.708 18.7373 65.2139 17.7598 64.4727 17.083C63.7422 16.3955 62.8774 16.0518 61.8784 16.0518C60.4497 16.0518 59.2842 16.6748 58.3818 17.9209C57.4795 19.167 57.0283 21.2241 57.0283 24.0923C57.0283 27.0679 57.4688 29.1841 58.3496 30.4409C59.2305 31.6978 60.3745 32.3262 61.7817 32.3262C62.813 32.3262 63.7046 31.9287 64.4565 31.1338C65.2085 30.3281 65.751 29.0552 66.084 27.3149Z" fill="white"/>
<path d="M80 36V12.3779H83.8994V21.6753H91.5693V12.3779H95.4849V36H91.5693V25.6714H83.8994V36H80Z" fill="white"/>
</svg>
