<svg xmlns="http://www.w3.org/2000/svg" viewBox="0 0 396.85 129.89"><defs><style>.cls-1{fill:#878787;}.cls-2{fill:#00b7ff;}</style></defs><title>logo_sycor_ohne_claim_rgb</title><g id="Logo"><path class="cls-1" d="M247.7,104.36a7.06,7.06,0,0,0-3.22-6.21,15,15,0,0,0-8.1-2,18.56,18.56,0,0,0-3.55.33,9.37,9.37,0,0,0-3,1.14,6.32,6.32,0,0,0-2.18,2.18,6.74,6.74,0,0,0-.81,3.43,3.87,3.87,0,0,0,1.47,3.15,14.17,14.17,0,0,0,3.86,2.13c1.59.62,3.38,1.2,5.34,1.74s3.91,1.18,5.88,1.9q2.51,1,4.9,2.18a16.86,16.86,0,0,1,4.18,2.94,13.83,13.83,0,0,1,2.89,4.13,14,14,0,0,1,1.07,5.77,15.6,15.6,0,0,1-2.16,8.38,18.64,18.64,0,0,1-5.67,5.77,24.16,24.16,0,0,1-8,3.32,40.66,40.66,0,0,1-9.09,1,43,43,0,0,1-9.14-.92,20,20,0,0,1-7.41-3.16,15.7,15.7,0,0,1-5-6,22.42,22.42,0,0,1-2-9.52h11.75q-.21,5.32,3.38,7.56a16.85,16.85,0,0,0,9,2.23,22.14,22.14,0,0,0,4-.38,14.18,14.18,0,0,0,3.81-1.25,7.75,7.75,0,0,0,2.89-2.45,6.63,6.63,0,0,0,1.14-4,4.63,4.63,0,0,0-1.57-3.59,14.61,14.61,0,0,0-4-2.44,46.85,46.85,0,0,0-5.56-1.9q-3.09-.88-6-2a31.57,31.57,0,0,1-4.73-2.07,17.19,17.19,0,0,1-4-2.88,12.11,12.11,0,0,1-2.72-4,13.89,13.89,0,0,1-1-5.44,14.62,14.62,0,0,1,2-7.83,16.43,16.43,0,0,1,5.28-5.34,24.22,24.22,0,0,1,7.4-3,36.43,36.43,0,0,1,8.48-1,43.09,43.09,0,0,1,8.6.82,18.8,18.8,0,0,1,7,2.88,14.13,14.13,0,0,1,4.69,5.55,19.13,19.13,0,0,1,1.56,8.72Z" transform="translate(-99.21 -86.39)"/><path class="cls-1" d="M268.11,156.07a144.26,144.26,0,0,0,11.23-12.74L269.25,87.91h13.06L288,132s13.58-22.71,21.66-44.09c10.95-.08,5.58-.08,13.28,0-17.42,40.16-38.2,68.82-46.42,77.71" transform="translate(-99.21 -86.39)"/><path class="cls-1" d="M366,106.53c.14-3.49-.8-6.08-2.84-7.79s-4.79-2.56-8.27-2.56a14.1,14.1,0,0,0-8.16,2.39,20.26,20.26,0,0,0-5.76,6.1,29.07,29.07,0,0,0-3.43,8.11,33.7,33.7,0,0,0-1.14,8.43A24.67,24.67,0,0,0,337,127a12.54,12.54,0,0,0,2.13,4.63,10.25,10.25,0,0,0,3.86,3.1,13.62,13.62,0,0,0,5.88,1.14A13.76,13.76,0,0,0,358,133a16.17,16.17,0,0,0,5.06-8.17h12.41q-3.06,10.89-10.23,15.89t-18.39,5A25.73,25.73,0,0,1,337,144a19.29,19.29,0,0,1-7.13-5,21.92,21.92,0,0,1-4.4-7.61,29.46,29.46,0,0,1-1.53-9.75,41.87,41.87,0,0,1,2.18-13.5,33.94,33.94,0,0,1,6.31-11.26,30.19,30.19,0,0,1,10.07-7.67A30.94,30.94,0,0,1,356,86.39a29,29,0,0,1,8.81,1.3A21.39,21.39,0,0,1,372,91.51a17.63,17.63,0,0,1,4.79,6.31,19.55,19.55,0,0,1,1.63,8.71Z" transform="translate(-99.21 -86.39)"/><path class="cls-1" d="M411.27,145.71q-11.75,0-18.17-6.37t-6.43-18.22A38.39,38.39,0,0,1,389,107.89a34.58,34.58,0,0,1,6.48-11,30.94,30.94,0,0,1,10.12-7.62,30.36,30.36,0,0,1,13.23-2.83q11.76,0,18.17,6.15t6.43,18a43.06,43.06,0,0,1-2.17,13.82,32.51,32.51,0,0,1-6.37,11.15A30.16,30.16,0,0,1,424.71,143,32,32,0,0,1,411.27,145.71ZM418,96.19a14.45,14.45,0,0,0-8.31,2.39,21.39,21.39,0,0,0-5.94,6,26.67,26.67,0,0,0-3.53,8.11,35,35,0,0,0-1.14,8.7,16.7,16.7,0,0,0,3.1,10.35q3.1,4.14,9.85,4.13a14.74,14.74,0,0,0,8.32-2.33,20.83,20.83,0,0,0,5.94-6,26.66,26.66,0,0,0,3.53-8.17,35.64,35.64,0,0,0,1.15-8.76,16.78,16.78,0,0,0-3.1-10.34C425.8,97.57,422.52,96.19,418,96.19Z" transform="translate(-99.21 -86.39)"/><path class="cls-1" d="M462.43,87.91h11.76l-2.29,11,.22.22a32,32,0,0,1,3.21-4.57,27.5,27.5,0,0,1,4.19-4.08,21.7,21.7,0,0,1,5-2.94,14.06,14.06,0,0,1,5.61-1.14c1,0,2,0,3,.05s2,.13,3,.27l-2.62,11.87c-.72-.14-1.44-.25-2.17-.32s-1.44-.11-2.18-.11a19.16,19.16,0,0,0-8.32,1.68,17.4,17.4,0,0,0-6,4.63,24.74,24.74,0,0,0-4,6.75,47,47,0,0,0-2.39,8l-5.23,24.93H450.78Z" transform="translate(-99.21 -86.39)"/><path class="cls-2" d="M256.4,166.56c-19.31,17.15-41.46,27.77-74.47,27.77-30.59,0-53.74-9.87-73.7-27.77l-9,10.48c19.53,20.52,46.08,39.24,83.71,39.24,36.46,0,63.41-19.15,82.52-39.24Z" transform="translate(-99.21 -86.39)"/></g></svg>