<?xml version="1.0" encoding="utf-8"?>
<!-- Generator: Adobe Illustrator 22.1.0, SVG Export Plug-In . SVG Version: 6.00 Build 0)  -->
<svg version="1.1" id="Ebene_1" xmlns="http://www.w3.org/2000/svg" xmlns:xlink="http://www.w3.org/1999/xlink" x="0px" y="0px"
	 viewBox="0 0 247.2 34.1" enable-background="new 0 0 247.2 34.1" xml:space="preserve">
<g>
	<polygon points="0,11.7 0,16.6 6.5,16.6 6.5,33.5 12.2,33.5 12.2,16.6 18.7,16.6 18.7,11.7 	"/>
	<polygon points="21.3,11.7 21.3,33.5 37.7,33.5 37.7,28.7 27,28.7 27,24.5 36.4,24.5 36.4,20.1 27,20.1 27,16.3 37.4,16.3 
		37.4,11.7 	"/>
	<path d="M50,11.3c-6.5,0-10.5,5.1-10.5,11.4c0,6.7,4.5,11.4,10.5,11.4c5.5,0,9.3-3.4,9.6-8.9h-5.5c-0.3,2.7-1.8,4-4.2,4
		c-3.1,0-4.9-2.6-4.9-6.5s1.8-6.5,4.9-6.5c2.3,0,3.9,1.1,4.2,3.4h5.5C59.4,14.2,54.6,11.3,50,11.3L50,11.3z"/>
	<polygon points="62.4,11.7 62.4,33.5 68.1,33.5 68.1,24.6 75.6,24.6 75.6,33.5 81.3,33.5 81.3,11.7 75.6,11.7 75.6,19.7 68.1,19.7 
		68.1,11.7 	"/>
	<polygon points="85.4,11.7 85.4,33.5 90.7,33.5 90.7,19.9 90.8,19.9 98.3,33.5 104.2,33.5 104.2,11.7 98.8,11.7 98.8,25.2 
		98.8,25.2 91.2,11.7 	"/>
	<polygon points="172.1,11.7 172.1,33.5 186.7,33.5 186.7,28.7 177.8,28.7 177.8,11.7 	"/>
	<path d="M207.9,18.8c0-4.7-3.2-7.1-7.8-7.1h-10.4v21.8h5.7v-7.3h4.7C205.3,26.3,207.9,23.7,207.9,18.8L207.9,18.8z M202.2,19.2
		c0,1.9-1.2,2.7-3,2.7h-3.9v-5.6h3.9C201,16.3,202.2,17.2,202.2,19.2L202.2,19.2z"/>
	<polygon points="210.7,11.7 210.7,33.5 216.4,33.5 216.4,11.7 	"/>
	<polygon points="220.3,11.7 220.3,33.5 225.7,33.5 225.7,19.9 225.8,19.9 233.3,33.5 239.2,33.5 239.2,11.7 233.8,11.7 233.8,25.2 
		233.8,25.2 226.2,11.7 	"/>
	<path d="M244.4,11.7c-0.8,0-1.5,0.3-2,0.8c-0.6,0.6-0.8,1.2-0.8,2s0.3,1.5,0.8,2c0.6,0.6,1.2,0.8,2,0.8s1.5-0.3,2-0.8
		c0.6-0.6,0.8-1.2,0.8-2s-0.3-1.4-0.8-2C245.9,12,245.2,11.7,244.4,11.7L244.4,11.7z M242.1,14.6c0-0.7,0.2-1.3,0.7-1.7
		c0.4-0.5,1-0.7,1.7-0.7s1.2,0.2,1.7,0.7c0.4,0.5,0.7,1,0.7,1.7s-0.2,1.3-0.7,1.7c-0.4,0.5-1,0.7-1.7,0.7s-1.2-0.2-1.7-0.7
		S242.1,15.3,242.1,14.6L242.1,14.6z M243.3,12.9v3.3h0.5v-1.4h0.5l0.9,1.4h0.6l-1-1.5c0.6-0.1,0.9-0.4,0.9-0.9c0-0.7-0.4-1-1.1-1
		h-1.3V12.9z M243.8,14.4v-1.1h0.7c0.5,0,0.7,0.2,0.7,0.5c0,0.4-0.2,0.5-0.8,0.5h-0.6V14.4z"/>
	<path d="M129.6,22.6c0-6.5-4.3-11.4-11.2-11.4c-7.1,0-11.2,5-11.2,11.4c0,6.8,4.5,11.4,11.2,11.4C125.4,34,129.6,29.1,129.6,22.6
		L129.6,22.6z M123.7,22.6c0,3.8-1.9,6.5-5.3,6.5c-3.4,0-5.3-2.7-5.3-6.5s1.9-6.5,5.2-6.5C121.9,16.2,123.7,18.8,123.7,22.6
		L123.7,22.6z"/>
	<path d="M152.5,12.8l14.8-2.3V0L152.5,12.8L152.5,12.8z M170.3,12.3l-37.9,6v7.4L170.3,12.3L170.3,12.3z M136.6,26.6l-8,6.9h15.5
		l11.5-13.6L136.6,26.6L136.6,26.6z M159,18.7l-4.2,14.8h12.5V15.8L159,18.7L159,18.7z"/>
</g>
</svg>
